<?xml version='1.0' encoding='UTF-8'?>
<svg xmlns="http://www.w3.org/2000/svg" xmlns:xlink="http://www.w3.org/1999/xlink" width="58" height="56"><g id="arrowSecond1">
		<path opacity="0.7" fill="#FFFFFF" d="M52.7,2.4c-0.8-0.1-1.6-0.5-2.0-0.3c-1.6-0.2-3.4-0.0-4.7,0.0c-3.6,0.2-7.3,0.3-10.9,0.9c-1.4,0.2-13.8-0.6-16.4,2.5c-3.0,3.6,0.8,8.2,4.6,11.5c-0.3,0.2-0.6,0.5-0.8,0.7c-1.8,1.5-3.6,3.0-5.4,4.6c-3.8,3.4-7.5,7.0-11.0,10.6c-3.4,3.5-6.6,6.8-3.9,11.9c0.7,1.4,1.8,2.5,3.0,3.5c1.3,1.5,2.4,2.8,3.9,3.8c0.7,0.9,2.1,1.7,3.6,1.9c2.8,0.4,5.2-1.6,7.3-3.3c2.4-1.9,4.6-4.2,6.7-6.4c2.3-2.3,4.3-4.8,6.4-7.3c0.8-0.9,2.7-3.0,3.9-4.4c0.4-0.4,0.8-0.8,1.1-1.1c1.4,2.0,4.3,5.3,7.0,6.4c0.1,0.1,0.3,0.1,0.4,0.2c0.4,0.2,0.7,0.3,1.1,0.4c1.2,0.3,2.3,0.0,3.1-0.5c0.6-0.3,1.1-0.8,1.5-1.5c3.7-5.3,3.2-18.6,3.2-20.8C54.6,14.4,56.8,2.8,52.7,2.4z"/>
		<circle fill="#00FFFF" cx="28.2" cy="28.0" r="5" opacity="0"/>
	</g>
</svg>
