<?xml version='1.0' encoding='UTF-8'?>
<svg xmlns="http://www.w3.org/2000/svg" xmlns:xlink="http://www.w3.org/1999/xlink" width="1024" height="768"><g id="back">
		<g>
			<g>
				<rect x="-24.9" y="228.9" fill="#21134C" width="1076.3" height="547.6"/>
				<path fill="#303162" d="M-13.7,742.1V548.4c21.9,0.2,43.9,0.5,65.8,0.7c3.7,0,7.3,0.1,11,0.1c22.4-0.8,44.6,6,67.3,5.2     c25.9-1,22.7,5.6,22.6,8.9c-0.1,3.4-0.1,6.7,0,10.1c0,3.4,0.2,6.8,0.3,10.2c1.5,16.7,3.6,33.4,4.9,50c0.3,3.3,0.5,6.6,0.7,10     c0.4,3.1,0.7,6.2,1,9.3c0.3,3.1,0.6,6.2,0.8,9.3c3.2,18.9,6.3,37.9,6.1,57c-0.3,31.9-3.4,25.5-24.8,27.4     c-10.5,0.9-20.9-1.6-31.6-1.2c-3.4-0.1-6.8-0.2-10.2-0.3c-37.2-0.9-74.3-1.8-111.4-2.9C-12,742.2-12.9,742.2-13.7,742.1z"/>
				<path fill="#322E5F" d="M400.5,273.5c0.1-0.9,0.1-1.9,0.2-2.8c0.1-0.3,0.2-0.6,0.3-1c2.7-13.5,4-27.1,4.6-40.8h637.7v129.6     c-0.8,0.2-1.7,0.4-2.6,0.5c-5,0-9.9,0-14.9,0c-4.4-0.4-8.9-0.9-13.2-1c-13.8-0.2-27.5,0-41.3,0c-33.1,0-66.1-1.3-99.2-2.3     c-33.2-1-66.5,0.5-99.7-1.1c-33.2-1.5-66.3-4.3-99.5-4.7c-9.6-0.1-19.1-0.2-28.7-0.3c-33.7-1.4-67.5-1.4-101.2-1.9     c-38.7-0.6-77.3-2.2-116-2.1c-8,0-16,0.1-24.1,0.2c-0.4-0.7-0.8-1.4-1.1-2.1c0.1-5.5-1-11.2-1.5-16.5c0.1-0.9,0.2-1.8,0.3-2.7     c0.2-1.5-0.1-2.7-0.7-3.6c-0.2-6.8,0.3-13.6,0.6-20.4C400.9,291.6,399.8,282.5,400.5,273.5z"/>
				<path fill="#3F3364" d="M854.9,228.9c-12.3,4.9-25.5,7.8-38.5,9.2c-28.3,3.2-58.7,0.6-86.1-9.2H854.9z"/>
				<path fill="#3F3364" d="M689.1,228.9c7.6,5,15.4,9.4,23.5,13.1c48.5,22.3,104.1,25.3,156.1,18c24.3-3.4,48.6-8.7,70.6-20.3     c5.7-3,11.3-6.6,16.4-10.8h20.9c-16.9,21.1-46.2,34.3-70.6,40.9c-51.9,13.9-108.4,14.9-160.5,1.9c-30.5-7.6-61.1-21.5-85.3-42.7     H689.1z"/>
				<path fill="#3F3364" d="M648.5,228.9c10.9,11.4,22.6,21.7,35.6,30.4c45.5,30.2,100.3,45.4,154,47.2c25.2,0.9,50.6-1.5,75.3-6.9     c11.7-2.6,23.2-5.7,33.8-11.4c9.6-5.2,17.8-12.6,24.7-21.1c9.3-11.5,16.4-24.9,23.5-38.1h17.8c-10.8,19.9-20.6,40.8-36.4,57.2     c-19.5,20.2-45.5,27.9-71.9,32.9c-27.2,5.1-55,6.1-82.6,4.1c-53.9-3.9-107.7-21.1-152.8-52.3c-16.7-11.5-31.3-26.2-44.7-41.9     H648.5z"/>
				<path fill="#35346B" d="M-20,336.4c0,0.3,0,0.6,0,0.8c30.2,0.5,60.4,2.9,90.6,4.6c39.8,2.2,79.6,5.4,119.4,6.6     c14.6,0.4,29.2,0.6,43.8,0.6c1.3-4.9,4.7-8.6,10.5-9.4c6.5-0.8,12,3.6,15,9.2c16.6-0.2,33.2-0.5,49.9-0.8     c25.1-0.5,50.3-1.3,75.4-1.8c1.1-2.2,2.4-4.3,3.7-6.3c-1.3-6.3-1.1-12.6-0.4-19.1c0.8-8.6,1-17.3,1.6-26c0.3-4.2,0.6-8.4,1-12.6     c0.4-4.2,2.5-8.1,2.9-12.3c0.3-2.6,0.5-5.3,0.8-7.9c1-16.2,0.6-10.4,0.3-4.9c0.4-9.4,0.4-18.8,0.3-28.1H-20.8     c0.5,9.4,1.2,18.7,1.6,28C-18.2,283.4-19.9,309.9-20,336.4z M353.4,255.9c0-4.5,3.8-8.8,8.3-8.6c6.2,0.3,11.4,4.5,14.2,10.1     c2.1,4.2,1.1,9.3-3,11.8c-3.8,2.3-9.2,1.1-11.3-3.1c-0.2-0.5-0.5-0.9-0.7-1.3c-0.1-0.1-0.2-0.2-0.3-0.3l-0.1-0.1     C356.5,263.6,353.4,260.3,353.4,255.9z M63,317.6c-0.1-2.4,2-4.4,4.2-4.4c1.7,0,3.1,1,3.7,2.5l0,0l0.1,0c0.3,0,0.7,0,1,0     c2.3,0,4.2,2,4.2,4.4c0,2.4-1.9,4.4-4.2,4.4C67.8,324.4,63.1,322.6,63,317.6z"/>
				<path fill="#382E5F" d="M685.5,378.8c-0.1-7.1-0.9-14.3-1.8-21.4c-9,0.5-18.1,0.8-27.1,1.3c-18.7,0.9-37.5,0.5-56.3,0.4     c-38.8-0.2-77.6-0.6-116.3-2.5c-39-1.9-78.2-1.7-117.3-1.9c-39.1-0.2-78.2,0.2-117.2,0c-38.8-0.3-77.5-1.7-116.3-3.5     c-22.7-1.1-45.4-1.1-68.2-1.1c-11.2,0-22.5,0.6-33.7,0.3c-10.4-0.3-20.9-0.8-31.3-0.8c-4.6,0-9.2,0-13.8,0.1v188.9     c3.8,0.2,7.6,0.4,11.4,0.5c13.7,0.6,27.5,1.2,41.2,1.9c1.4-2.1,4.1-1.5,6.7,0.3c22.9,1.1,45.8,2.1,68.7,2.7     c77.7,1.9,155.5,3.2,233.2,5.1c38.8,0.9,77.6,0.3,116.4,0.8c19.5,0.3,38.9,0.8,58.3,1.7c19.3,0.9,38.6,2.7,57.9,3.1     c32.6,0.6,65.2-1.5,97.8-3.1c-0.9-7.3-0.1-15,0.1-22.3c0.3-8.4,0.7-16.9,1.3-25.3c1.1-16.7,2.4-33.3,3.7-50     c1.3-16.7,1.2-33.3,1.8-50C685.2,395.5,685.6,387.1,685.5,378.8z M619.1,412.8c-1.4,2.5-3.5,3.9-6.3,4c-1.1,0-2.2-0.4-3.2-0.9     c-0.8-0.1-1.6-0.3-2.3-0.8c-1.8-1.1-2.7-2.8-3.4-4.8c-1-3-0.5-6.4,0.7-9.2c0.9-1.9,3.2-3.1,5.2-3.1c2.2,0,4,1.2,5.2,3.1     c0.4,0.6,0.7,1.1,1.1,1.7c0.1,0.1,0.2,0.3,0.3,0.5c0.5,0.7,1.1,1.3,1.7,1.9C620.1,407.3,620.4,410.4,619.1,412.8z"/>
				<path fill="#473768" d="M679,512.7c-1.9-0.4-3.9-0.8-5.8-1.3c-15.2-3.5-30.1-8.4-44.6-14.1c-29.2-11.3-57-25.8-84.7-40.5     c-47.1-24.9-89.3-59.5-123-101.9c6.8,0.1,13.5,0.1,20.3,0.3c12.8,15.1,26.8,29.1,41.7,41.8c21.6,18.4,45.5,34,70.3,47.2     c28,14.9,56.2,29.5,85.9,40.6c12.6,4.7,25.5,8.7,38.6,11.8c0.8,0.2,1.5,0.3,2.3,0.5c-0.2,2.2-0.3,4.5-0.5,6.7     C679.3,506.8,679.1,509.7,679,512.7z"/>
				<path fill="#473768" d="M602.1,554.6c-6.5-5.9-13.1-11.7-19.9-17.3c-22.6-18.5-46.7-35.5-71.7-50.5     c-50.3-30.2-105.9-48.7-163-58.9c-54.3-9.8-109.1-11-164-12.9c-54-1.9-108.8-3.3-162.1,7.5c-11.9,2.4-23.7,5.6-35.2,9.6v-15.8     c38.3-14.1,80.9-17.4,120.6-18.6c26-0.8,51.9-0.2,77.9,0.7c26.1,0.9,52.2,1.4,78.2,2.9c58.2,3.4,116.1,12.7,171.6,31.8     c55.9,19.3,106.6,50.4,153.2,87.3c13.3,10.5,26.3,21.7,38.6,33.6C618.3,554.2,610.2,554.5,602.1,554.6z"/>
				<path fill="#473768" d="M247,546.8c-4.8-1.5-10-2.2-14.9-2.6c-6-0.4-13,0.1-19.8,1.9c-8.2-0.2-16.4-0.3-24.6-0.5     c12.6-13,33.5-16.8,51.2-14.7c10,1.2,19.8,4.8,28.2,10.7c2.2,1.6,4.5,3.5,6.5,5.8C264.9,547.1,256,547,247,546.8z"/>
				<path fill="#473768" d="M328.2,548.5c-9.9-0.2-19.8-0.4-29.7-0.7c-5.4-2.8-10.8-5.5-16.2-8.3c-18.4-9.6-39.4-13.6-59.7-14.9     c-32.5-2.1-67.1,2.8-95.5,19.6c-4.2-0.1-8.5-0.2-12.7-0.3c-2.7-0.1-5.3-0.2-8-0.2c13.1-12,29.6-20,46.1-25.3     c23.1-7.5,47.8-10.1,71.9-8.8c21.5,1.2,43.3,5.6,62.8,15.1C300.9,531.4,315.8,538.5,328.2,548.5z"/>
				<path fill="#473768" d="M479.2,550.1c-0.8-0.5-1.6-1.1-2.4-1.6c-11.7-7.7-24.4-13-37.3-18.1c-13-5.2-26.2-10-39.5-14.5     c-9.4-3.2-18.9-6.2-28.5-8.9c11.3,4.6,22.4,9.7,33,15.6c14.2,7.8,27.7,17.1,40.5,27.1c-8.8-0.1-17.7-0.1-26.5-0.1     c-4.7-3.2-9.4-6.2-14.3-9.1c-22.9-13.8-47.9-23.5-73.2-31.1c-45-13.5-92.4-19.1-139.1-14.5c-43.4,4.3-87.4,19.5-122.1,47.5     c-5.2-0.2-10.5-0.5-15.7-0.7c14.4-13.9,30.4-25.5,48.2-35c21.8-11.6,45.4-18.9,69.4-23.3c19.6-3.6,39.5-5.1,59.4-4.9     c55-7.8,111.1,4,163.9,20.6c13.9,4.4,27.6,9.2,41.2,14.4c13.1,5,26.3,9.9,38.6,16.7c10.6,5.9,20.4,13.1,29.9,20.7     C496.3,550.5,487.8,550.2,479.2,550.1z"/>
				<path fill="#35346B" d="M701.8,357.9c12.6,2.1,25.9,0,38.4,1.9c2.7,0.1,5.3,0.2,7.9,0.3c2.6,0.1,5.3,0.2,7.9,0.2     c3.5,0.1,7,0.1,10.5,0.1c34.8-0.5,70.5-0.5,105.1,0.8c3.6,0.1,7.3,0.3,11,0.4c22,0.9,44,1.9,66,2.4c31.6,0.7,63.1,1.6,94.7,2V559     c-11.5-1.1-23.3-0.7-35-0.6c-22.1,0.1-44.3-1.5-66.3-2.9c-44.4-2.8-88.6-4.9-133.1-5.4c-38-0.4-76.1-1-114,0.6     c-3.2,0.1-6.4,0.3-9.6,0.4c0.5-6,0-12.2,0.2-18.1c0.3-8.5,0.8-16.9,1.2-25.3c0.9-16.8,2.1-33.7,2.6-50.5     c0.2-5.6,0.3-11.2,0.3-16.8c0-2.8,0.1-5.6,0.1-8.4c-0.2-3-0.3-6-0.3-9c0-3,0.2-6,0.3-9c0-4.8,0.2-9.6,0.4-14.4     c0.1-2.4,0.2-4.8,0.4-7.1c1.4-11.3-2.7-24,3.8-33.9C696.7,357.3,699.6,357.9,701.8,357.9z"/>
				<path fill="#3B3B75" d="M882.6,361.7c-2.3,2.9-4.6,5.9-6.9,8.9c-8.1,10.8-16.5,21.2-24,32.5c-8.8,13.1-16.7,26.9-23.9,41.1     c-12.2,24.4-22.1,50.2-29.8,76.5c-2.9,9.7-5.5,19.4-8.1,29.2c-5.9-0.1-11.9-0.1-17.8-0.2c2.8-13.1,6.2-26.1,9.6-39     c7.2-27,17.3-53.2,29.7-78c12.8-25.6,28.4-49.6,46-71.9C865.9,361.1,874.3,361.4,882.6,361.7z"/>
				<path fill="#3B3B75" d="M926.6,371.9c-19.6,19-36.9,40.7-52.7,63.1c-14.5,20.6-26.4,42.6-35,66.6c-4.7,13.1-8.3,26.6-11.4,40.3     c-0.6,2.8-1.2,5.6-1.7,8.5c-5.6-0.1-11.3-0.2-16.9-0.3l-0.2,0c0.6-3.3,1.1-6.6,1.8-9.9c2.9-15,6.9-29.9,11.7-44.4     c8.9-26.3,21.7-50.3,37.3-72.8c14.8-21.4,31.1-41.7,49.1-60.2c8.9,0.4,17.9,0.7,26.8,1C932.3,366.4,929.4,369.1,926.6,371.9z"/>
				<path fill="#3B3B75" d="M1043.2,410.3v18.8c-18.4,0.4-36,4.6-53.2,11.9c-46.8,19.9-89.9,60.8-107.1,111.2     c-5.4-0.2-10.7-0.5-16.1-0.7c0.7-2.8,1.5-5.6,2.4-8.4c3.9-11.9,9.5-23.3,15.9-34c13.2-22,30.9-41,50.7-56.6     c19.9-15.8,42.6-28.4,66.6-35.9C1015.9,412.4,1029.5,410.6,1043.2,410.3z"/>
				<path fill="#3B3B75" d="M1043.2,505.8c-10.5,0.2-21.2,3-31,6.4c-12.2,4.3-23.7,11.5-32.4,21.5c-6.2,7-10.3,14.9-13.1,23.3     c-5.4-0.3-10.9-0.7-16.3-1c3.2-12.2,9.2-23.6,17.3-33.2c11.2-13.3,26-22.1,42-27.8c9.2-3.3,21.4-6.1,33.5-6.5V505.8z"/>
				<path fill="#3B3B75" d="M1043.2,519.9v17.4c-2.7,0.2-5.6,0.7-8.6,1.6c-10.2,3.1-20,9.9-26.3,19.5h-0.1c-5.8,0-11.5-0.1-17.3-0.3     C998.5,537.2,1021.9,520.9,1043.2,519.9z"/>
				<path fill="#322E5F" d="M1043.2,745.3V567.3c-7.1,0-14.4,0.7-21.2,0.9c-16,0.4-32-0.5-47.9-2c-33.3-3.1-66.4-5.8-99.8-7.2     c-33.9-1.4-67.7-2.7-101.6-2.7c-15.7,0-31.5,0.6-47.2,1.4c-0.3,0.4-0.7,0.3-1.3,0.1c-17.7,0.9-35.3,2-53,2.6     c-16.9,0.6-33.7,0.9-50.6,0.2c-17.1-0.7-34.1-2.1-51.2-2.6c-34.3-1.1-68.6-0.7-102.9-0.9c-65.7-0.4-131.3-3.8-197-5.7     c-0.2,0.9-0.5,1.8-1,2.6l-0.1,0.1c-0.4,0.7-0.8,1.3-1.2,2c-1.2,1.7-3,2.4-4.9,2.6c-2.4,0.3-5.3-1.1-6.3-3.7c-0.6-1.5-0.8-2.4-1-4     c-11.9-0.3-23.7-0.6-35.6-1c-3-0.1-5.9-0.2-8.9-0.2c-14.3-1.6-33.8-4.7-41.9,3.8c-14.3,14.9-3.1,43.6-1.2,66.6     c0.2,2.6,0.5,5.1,0.7,7.7c0.8,9.9,1.2,19.9,1.5,29.9c0.1,3.3,0.2,6.7,0.2,10c1.8,27.1,2.8,54.7,6.9,78.1     c1.1,6.1,20.4,2.1,31.8,3.2c3.8,0.2,7.6,0.3,11.4,0.5c64.5,2.8,129,4.8,193.6,2.5c16.5-0.6,32.9-1.1,49.3-1.5     c0.6-1.9,1.5-3.6,2.8-4.9c3.1-3.2,6.8-3.1,10.4-1.1c1.8,1,2.7,3.4,2.6,5.7c12.3-0.2,24.6-0.4,36.9-0.4c13,0,26,0.2,39.1,0.3     c2.1-8.1,7.9-13.2,15.4-9.1c3.8,2.1,7.1,5.5,9.9,9.4c12.8,0,25.6-0.1,38.3-0.5c34.6-1.3,69.1-4.4,103.6-6.1     c34.5-1.7,69-1.2,103.5-0.1c20,0.6,39.9,1.3,59.9,1.6c19.5,0.3,39.1-0.7,58.6-1.3C977.1,742.7,1010.3,741.7,1043.2,745.3z      M885.7,699.2c0.3,6.9-5.9,10.9-11,9.3c-1.1-0.1-2.3-0.4-3.3-1c-2.4-1.3-4.3-2.4-6.4-4.4c-2.2-2.1-2.9-4.7-3-7.7     c0-0.2,0-0.3,0-0.5v-0.4c0-4.5,3.2-8.2,7-8.2c1,0,1.9,0.2,2.7,0.7c2,0.3,4,0.9,6,1.7c2,0.8,4.2,1.4,5.7,3.2     C885.1,693.8,885.6,696.5,885.7,699.2z"/>
				<path fill="#3D3768" d="M664.1,559.2c-0.1,0.1-0.2,0.1-0.3,0.2c-7.8,5-16.6,9.7-25.9,13.9c-18.8,8.6-41.1,15.2-66.3,16.5     c-24,1.2-50.3-6.2-60.7-17.7c-3.5-3.8-4.7-7.8-4.2-11.6c8.4,0.1,16.8,0.2,25.2,0.3c-0.1,1.9,0.4,3.8,1.8,5.6     c6.6,8.3,27.5,10.7,42.6,9.2c19.4-2,36.3-8.1,50.9-15.6C639.5,559.8,651.8,559.5,664.1,559.2z"/>
				<path fill="#3D3768" d="M690.1,580.7c-22.4,11.9-51.9,19.4-80.1,24.2c-55.9,9.5-131,9.8-168.5-22.3c-8.2-7-13.7-15.4-16.3-24     c6.9,0.2,13.8,0.4,20.7,0.6c2.3,4.7,5.3,9.3,9.8,13.5c7.7,7.1,18.4,12.6,30.8,16.4c25.8,7.9,56.8,8.1,84.8,5.7     c28.7-2.5,56.6-8.3,81.9-17c13.9-4.8,25.4-11.1,37.4-17.9c1.5-0.8,3-1.7,4.4-2.6c11.9-0.3,23.8-0.6,35.8-0.8     C718.4,565.3,704.3,573.2,690.1,580.7z"/>
				<path fill="#3D3768" d="M715.7,600.5c-57.1,32.8-128.7,58.7-203.2,62.2c-47.3,2.2-94.4-9.3-124.2-36     c-21.9-19.6-32-45.2-27.2-69.6c6.9,0,13.8,0.1,20.7,0.1c-2.5,17.5,2.5,34.9,15.7,50.8c16.4,19.8,44.6,32.3,76.2,36.3     c34.5,4.4,70.6-0.7,103.3-8.6c35.6-8.6,68.9-21.5,99.7-36.6c24.9-12.3,47.2-26.6,66.7-42.8c9-0.1,18-0.2,27-0.2     c1.8,0,3.7,0,5.5,0c-7.3,6.8-14.7,13.5-22.9,19.8C741.5,584.8,728.9,592.9,715.7,600.5z"/>
				<path fill="#3D3768" d="M748,597.3c15.2-12.9,29-26.6,42.1-40.9c9.4,0.1,18.7,0.3,28.1,0.5c-30.7,34.3-66.2,65.6-106.1,91.7     c-53.5,35-116.4,61.3-184.7,64.8c-30.3,1.5-61.2-1.5-89.7-10.6c-26.3-8.4-50.8-19.9-73.1-34.4c-40-26.1-74-67.9-57.2-111.6     c6.1,0.1,12.1,0.1,18.2,0.1c-7.1,18.2-5.9,36.9,5,54.7c11.7,19.2,31.1,34.4,51.6,46.8c20.7,12.6,44.1,22.7,68.4,29.4     c28.8,7.9,59.7,9,89.6,6.3c52.3-4.9,101.7-25.2,144.2-50.9C707,629.5,728.3,614,748,597.3z"/>
				<path fill="#3B3B75" d="M53.1,228.9c0.5,2.6,1.1,5.2,2,7.7c2.8,8.4,8.6,15.1,14.4,20.4c1.3,1.2,2.7,2.4,4.1,3.5     c8.7,6.4,19.1,10.7,30.7,12.8c21.7,3.8,43.8-1,61.2-12.5c12-8,21.5-19.3,24.8-31.9h15.4c-2.5,17.9-16,34-32.8,45     c-4.9,3.2-10.2,6-15.8,8.2c19.8-1,39.3-5.4,56.8-12.8c20.8-8.8,37.8-22.6,46.7-40.3c5.9,0.3,11.8,0.6,17.7,0.9     c-18,58.6-113.8,80.8-176.1,64.2c-18.5-5-35.9-13.3-49-25.8c-8.2-7.8-14.5-17-18.3-26.9c-1.1-2.9-1.9-5.9-2.5-9     c-0.4-1.1-0.9-2.3-1.3-3.5H53.1z"/>
				<path fill="#3B3B75" d="M75.5,228.9c0.4,2,1.1,3.9,1.9,5.7c1.3,2.5,1.2,2.3,2.8,4.1c1.8,2.1,2.8,2.8,3.9,3.6     c1.5,1.1,3.2,2,4.9,2.9c-0.5-0.3,1.7,0.7,2,0.8c1,0.4,2,0.7,3,1c3.6,1,7.5,1.5,12.5,1.6c7.2,0.1,17.5-2.3,24.9-6.4     c5.5-3.1,9.9-7.8,12.6-13.1h16.4c-0.1,0.3-0.1,0.7-0.2,1c-0.9,4-2.9,7.7-5.1,11.2c-3.4,5.1-8.3,9.1-13.7,12.6     c-10.4,6.6-23.6,9.4-36.3,9.4c-11.4,0-23.5-3.2-32.1-9.7c-8.6-6.4-13.4-15.2-14.2-24.6H75.5z"/>
				<path fill="#6C669D" d="M-31.1,37.5c6.7,63.3,4.2,127,4.2,190.5c0,8.5-3.6,15.8-9.3,21H1058c-0.6-16.8-1.5-33.7-2.6-50.5     c-4.8-74.5-13.7-148.8-19.8-223.2c-69.8,0.8-139.5,3.4-209.2,5.4c-73,2-146.1,3.3-219.1,0.6C571-20,535-23,498.9-25.5     c-36.7-2.5-73.5-3.9-110.3-4.6c-72.6-1.3-145.5-0.8-218.1,1.4c-69.9,2.2-139.1,15-209.1,13.7C-35.3,2.5-33,20-31.1,37.5z"/>
				<path fill="#4D4A91" d="M-37.9-14.8v3.8c2.9,16.1,5.1,32.3,6.8,48.5c6.7,63.3,4.2,127,4.2,190.5c0,0.1,0,0.3,0,0.4h50.5     c1.7-81.8,4-163.7,6-245.7C7.1-15.6-15.4-14.5-37.9-14.8z"/>
				<path fill="#4D4A91" d="M388.6-30.1c-33.1-0.6-66.2-0.8-99.4-0.6c-4.5,94-9,187.7-13,281.4c44-0.5,88-0.2,132,0.4     c-2.4-93.6-4.8-187.2-7.4-280.8C396.7-29.9,392.6-30,388.6-30.1z"/>
				<path fill="#5B477F" d="M826.3-19.3c-28.2,0.8-56.4,1.5-84.7,1.8c-1,85.5-1,156.2-0.3,199.4h123.4c2-67.2,1.3-134.7-1-202.3     C851.2-20,838.8-19.7,826.3-19.3z"/>
				<path fill="#675386" d="M436.5-28.7c-3.6,43.3-6.9,90.3-9.8,137.2c5.1,6.6,8.7,14.7,9.1,23c0.4,9.4-4.3,16-11.6,19.3     c-1.5,26.5-2.9,52.6-4.1,77.7h69.2c-2.7-85-8.4-170.2-10.6-255.2C464.6-27.6,450.5-28.2,436.5-28.7z"/>
				<path fill="#675386" d="M717.9-17.3c-11.6,0.1-23.3,0.1-34.9,0c1.2,66.3,2.6,132.6,4.2,198.9c0,1.3,0.1,2.5,0.1,3.7     c10.5,0.1,21.2,1.2,32,2.7c0.2-3,0.3-6.3,0.2-9.7C718.6,113.1,718.2,47.9,717.9-17.3z"/>
				<path fill="#7F7BAA" d="M388.6-30.1c-12.8-0.2-25.7-0.4-38.6-0.5c-2,72.5-3.3,145,0.2,214.2l0,0.1c17.9-0.2,35.8-0.6,53.7-1.2     c0-0.5,0.1-0.9,0.1-1.4c6.7-69.9,8.3-140.5,8.4-210.7C404.5-29.7,396.5-29.9,388.6-30.1z"/>
				<path fill="#7F7BAA" d="M607.2-18.7c-29.2-1.1-58.3-3.2-87.5-5.3c0.3,69.4,0.7,138.4,0.4,206.7c0,15.3,0.1,30.5,0.1,45.7h113.4     c0.1-9.7,0.1-19.3,0.2-29c0.6-71.5,2.3-144.2,4.2-217.2C627.8-18,617.5-18.3,607.2-18.7z"/>
				<path fill="#8887B2" d="M556.6-21.4c-0.4,7-1.2,14-2.5,20.8c-0.5,2.8-1.2,5.7-2,8.6c-1.3,0.3-2.5,1.1-3.4,2.2     c-3.8-10.3-5.4-21.7-6.2-32.5c-4.4-0.3-8.7-0.6-13.1-0.9c1.1,18.1,4.5,37.8,14.4,52.6c1.8,2.7,5.8,4,8.7,2.6     c1.5-0.3,2.9-1.1,4-2.6c5.7-7.5,8.2-17.3,10.1-26.4c1.6-7.7,2.5-15.6,2.9-23.4C565.3-20.9,561-21.1,556.6-21.4z"/>
				<path fill="#8887B2" d="M607.2-18.7c-6-0.2-12-0.5-17.9-0.8c-2,9.3-4.4,18.5-7,27.5c-3.7,13-7.1,23.1-12.8,34.7     c-2.8,5.7-6.1,10.8-9.1,14.4c-0.9,1.1-1.9,2.1-2.9,3.1c-0.3,0.3-2.1,1.8-2.3,2c-0.9,0.6-1.8,1.2-2.8,1.6     c-0.5,0.3-0.8,0.4-0.9,0.5c-0.1,0-0.4,0-1.1,0.2c-2.1,0.6-3.7,0.4-6,0c1.9,0.3-1.9-0.6-2.5-0.9c-1.5-0.6-2.8-1.4-4.2-2.2     c-7.9-4.7-12.7-12.7-16-21.3c-0.8-2.1-1.6-4.2-2.3-6.3v34.9c1.8,2.1,3.8,4.1,5.9,5.9c7.7,6.5,16.3,9.9,26.2,9.1     c8.2-0.6,15.8-6,21.4-11.9c12.3-12.8,19-31.4,24.6-48.3c4.5-13.8,8.4-28,11.4-42.3C608.5-18.7,607.9-18.7,607.2-18.7z"/>
				<path fill="#8887B2" d="M623.8-18.2c-2.7,19.5-6.6,39-11.9,57.8c-4.9,17.2-10.6,33-18.8,48c-7.5,13.7-17.2,27.6-31.8,30     c-8,1.3-14.3-1.5-20.8-6c-7.8-5.4-15-12.8-20.9-21V115c1.1,1.2,2.1,2.3,3.2,3.4c8.4,8.6,18,15.7,29.6,17.7     c16.9,2.8,32.3-6.8,43.5-20.1c12-14.3,20-32.5,26.5-50.4c6.6-18.1,11.2-36.9,14.9-55.9c0-0.2,0.1-0.4,0.1-0.6     c0.1-9,0.2-18,0.3-26.9C633-17.9,628.4-18,623.8-18.2z"/>
				<path fill="#614D81" d="M848.7-20c-7.4,0.2-14.9,0.4-22.3,0.6c-4.4,0.1-8.9,0.2-13.3,0.4c6,7.3,12.2,14.5,18.8,21.6     c9.8,10.6,21,21.1,33.5,30.1c0.1-9.8-0.5-32.4-0.8-33.8C858.9-7.2,853.7-13.5,848.7-20z"/>
				<path fill="#614D81" d="M769.9-18c-9.3,0.2-18.6,0.3-27.8,0.5c2.5,4.3,5.4,9.1,7.6,13.5c9.7,19,17.6,39,23.9,59.4     c14.3,46.1,21.3,96.8,13.1,144.7c-0.9,5.1-1.9,10.1-3.1,15.1c6.9-0.6,13.8-1.2,20.8-1.6c1.7-6.2,3.1-12.5,4.2-18.7     c6-34.5,3.8-70.2-2.4-104.6C799.4,52.9,787.6,15.8,769.9-18z"/>
				<path fill="#675386" d="M59.9-19.9c4.2,82.7,8.9,165.5,13.8,248.3h102c-3.2-85.7-5.8-171.3-8.1-256.9     C131.6-27.2,95.8-23.2,59.9-19.9z"/>
				<path fill="#6C669D" d="M131.5,56.7c1.3,9.3,5.7,18.5,12.7,24.2c6.8,5.6,16.9-0.9,17.1-9.5c0.2-7.2-0.7-15.2-0.7-22.5     c0-5.6-1.7-9.4-4.2-14.2c-4-7.8-16.2-10.8-20.9-1.7C130.4,43,130.1,46.7,131.5,56.7z"/>
				<path fill="#6C669D" d="M76.8-21.5c0.1,0.9,0.3,1.7,0.4,2.5c0.8,4.8,4.3,8.8,9.4,9.5c6,0.8,11.6-3.4,12.4-9.3     c0.2-1.6,0.5-3.2,0.6-4.9C92-23,84.4-22.2,76.8-21.5z"/>
				<path fill="#6C669D" d="M138.5,97.9c0.6,2.5,0.7,5.2,0.8,7.7c0.2,3.5,2.6,6.5,6.3,6.5c3.5,0.1,6.4-2.8,6.5-6.3     c0.1-3.3,0.2-6.5-0.6-9.7c-0.9-3.4-3.1-7.9-7-8.4c-2.7-0.3-5.3,1.2-6.3,3.7C137.3,93.6,138,95.9,138.5,97.9z"/>
				<path fill="#7F7BAA" d="M900.2-21.5c1.1,76.3,3.4,152.6,2.4,228.9h112.1c1-76.4,3.1-154,5.4-231.9     C980.2-23.9,940.2-22.8,900.2-21.5z"/>
				<path fill="#4D4A91" d="M428.3,227.5H57.8c-1.2,1.5-3.1,2.5-5.1,2.5c-3.9,0-7.6-0.4-10.8-2.5h-68.9c0,0.2,0,0.3,0,0.5     c0,12-7.2,21.7-17.4,26.3c16.2,0.7,32.4,2,48.5,3.2h428.6C431.7,247.5,429.9,237.5,428.3,227.5z"/>
				<path fill="#5B477F" d="M727.7,243.6v-27.1h-11.2c-44.6,9-90.6,11-136,11.4c-30.5,0.3-61,0.4-91.4,0.1     c-32.2-0.3-64.4-1.8-96.2-7.2c-2.8-0.5-4.2-2.2-4.6-4.3h-2.5c-2.8,11.9-5,23.9-9.2,35.4c-0.6,1.5-1.2,3.1-1.8,4.6h290.9     C686.5,252.1,707.1,247.9,727.7,243.6z"/>
				<path fill="#4D4A91" d="M1057.5,237.8c-14.8-2.4-29.8-4.5-44.7-6.4c-13.8-1.8-27.7-3.4-41.7-4.8H779.7c-16.2,1.8-32.3,4.1-48.4,7     c-9.5,1.7-19.1,3.2-28.6,5v28.1h258.2c9.3-3,19-4.3,28.8-3.5c2.6,0.2,4.4,1.6,5.4,3.5h63.3C1058.3,256.9,1058,247.3,1057.5,237.8     z"/>
				<path fill="#808491" d="M967.3,617c-7.5,0.6-11.9,2.8-16.4,9c-0.2,0.3-0.5,0.7-0.7,1c0,1.3-0.2,2.5-0.8,3.6     c-1.6,3.1-4.4,4.6-7.9,4.4c-2.6-0.2-5.3-1.4-7-3.5l-0.1-0.2c-1-1.3-1.6-2.9-1.5-4.9l-0.1,0.1c0-0.6,0.1-1.5,0-1.6l-42.4-16.9     c-0.7,2.1-1.1,4.3-1.4,6.6c7.2,4.6,14.8,8.7,21.3,14.1c3.5,2.9,7.1,6,9.8,9.6c2.6,3.6,5,7.5,8.3,10.7c6.1,5.9,13.7,6.1,19.8,2.9     l0.1-0.3c2.6-0.6,4.9-1.9,7-3.9c2.8-2.7,5-5.7,7.1-8.9c1.9-2.9,2.1-5,5.2-5.2C978.2,633,978,616.1,967.3,617z"/>
				<path fill="#6A6AA5" d="M1026.5,626.7c-9.6-3.4-19.3-4.3-29.4-4.2c-7.3,0.1-14.3-2.4-21.5-3.5l-7.2,18c0.4,0.1,0.9,0.2,1.4,0.2     c8.7,0.7,17,4,25.8,4c9.3,0,18.6-0.6,27.8,0.4c8.9,0.9,17.6,3.4,25.6,7.2c4.2,2,8.6,4.9,11.7,8.4c2.5,2.8,3.7,5.5,7.3,7.1     c4.3,1.8,9.1-3.7,5.8-7.5c-2.1-2.5-3.8-5.2-5.8-7.7c-2.9-3.5-7.2-6.2-11-8.6C1047.7,634.7,1036.8,630.3,1026.5,626.7z"/>
				<path fill="#6A6AA5" d="M1001.6,688.6c-9.3-4.2-16.7-10.7-23.8-18.3c-5.1-5.6-11.9-8.6-17.7-13l8.5-21.3c0.4,0.2,0.7,0.5,1.1,0.8     c6.7,5.9,14.9,9.2,21.1,15.8c6.5,7,12.6,14.4,19.8,20.5c6.9,5.8,14.9,10.2,23.4,12.8c4.5,1.4,9.7,2.1,14.5,1.3     c3.8-0.6,6.7-2.1,10.4-0.8c4.4,1.6,3.6,10.1-1.5,11c-3.4,0.6-6.6,1.8-9.9,2.5c-4.7,1-9.7,0.1-14.2-0.7     C1022.4,697.4,1011.5,693.1,1001.6,688.6z"/>
				<path fill="#969AA8" d="M962.2,610c-2.8-4.9-7.8-8.4-15-8.3c-4.6,0-9,1.3-13.4,2.1c-4.4,0.8-9.2,0.6-13.8,0.3     c-8.3-0.6-16.5-2.7-24.8-4.2c-0.2,0.2-0.6,1-0.8,1.2c-1.5,1.5-2.7,3.5-3.6,5.7l42.3,16.8c0,0,0.3-0.9,0.4-1.1     c1.9-4.8,8.2-6.1,12.3-3.3c1.7,0.8,3.1,2.1,3.7,4.2c1,3.5,0.6,7.5-2.3,10c-0.3,1.4-0.7,2.8-0.8,4.4c-0.8,6.5-0.4,14.7,5.9,17.6     c1.4,1.2,3.1,2.1,4.9,2.9c5.5,2.4,11.4,1.8,16.5-1.3c10-6.2,14.3-19.7,9.4-30.2c-2.2-4.8-6.2-7.8-11.1-9.4c-2-0.7-4.1-0.7-6-0.2     C965.2,614.5,963.9,612,962.2,610z"/>
				<path fill="#808491" d="M970.9,650.3c-1.3-2.8-2-6-2.8-8.7c-1.7-5.3-4.9-9.9-7.5-14.9c-2.5,1.7-3.9,4.4-5,7.1     c-0.6,1.5-0.8,3.1-0.7,4.7c0,1.3,0.2,2.5,0.5,3.7c1.3,4.1,4.9,6.9,8.9,8.2C966.6,651.1,968.8,651,970.9,650.3z"/>
				<path fill="#808491" d="M971.2,639c0.9,2.7,1.5,6.7,3,9.7c0.5-0.4,1.1-0.8,1.6-1.2c2.7-2.4,3.8-6.9,3.7-10.3     c-0.2-8.1-7.9-13.6-15.3-11.8C966.5,629.8,969.6,634.1,971.2,639z"/>
				<path fill="#4D4D82" d="M833.9,716.3c-5.3-15.7-17.5-25.9-33.4-29.6c-8.2-1.9-16.6-2.4-24.4,1.1c-0.9,0.4-1.7,0.8-2.6,1.3     c-2.1,0.7-4,1.7-6,3.4c-4.1,3.3-7.4,7.4-10.2,11.8c-5,7.7-7.9,16.3-8.7,25.5c-1.5,18.1,8.5,35.4,24.9,43.1     c16.7,7.8,36.2,5.1,49.9-7.3C836.8,753.4,839.5,732.9,833.9,716.3z M820.3,748.7c-7.7,14.2-25.8,19-40.2,12.8     c-15.5-6.7-21.2-23.1-16.9-38.8c1.1-4.1,3.1-8.2,5.5-11.8c5.8-4.9,11.3-11.8,19.3-12.3c8.1-0.5,18.3,2,24.7,7.1     C825.3,715.5,827.7,735.1,820.3,748.7z"/>
				<path fill="#6589A8" d="M768.9,706.2c-5.5,6-8.6,14.1-9.5,22.2c-0.1,0.7-0.1,1.5-0.1,2.2c-0.1,2.2,0.1,4.4,0.6,6.5     c0.2,0.7,0.3,1.4,0.5,2c0.1,0.7,0.3,1.4,0.3,2.1c0.2,0.8,0.4,1.7,0.7,2.5c2.4,7.3,7.2,13.4,14.1,16.6c8.7,4.1,18.7,5.3,27.6,2.2     c0.8-0.3,1.6-0.6,2.4-1c3.8-1.6,7.3-3.9,10.2-6.8c0.6-0.6,1.1-1.2,1.6-1.8c5.5-6.7,8.5-15.3,8.1-24.1c0-0.8,0-1.5-0.1-2.3     c-0.2-2.3-0.6-4.7-1.1-6.9c-0.2-0.7-0.3-1.5-0.5-2.2c-2.3-7.5-8.3-13.8-15.5-17.4c-0.7-0.3-1.5-0.6-2.2-0.8     c-0.8-0.3-1.5-0.5-2.3-0.7c-0.7-0.2-1.4-0.4-2.2-0.6c-0.7-0.2-1.5-0.3-2.2-0.5c-7.7-1.2-15.5,0.1-22.2,2.8     c-0.7,0.4-1.5,0.8-2.2,1.3c-1.6,1-3.1,2.1-4.6,3.4C769.9,705.3,769.4,705.8,768.9,706.2z M776.5,709.8c0.8-0.5,1.6-1,2.4-1.4     c2.1-1.1,4.2-2,6.4-2.6c0.7-0.2,1.5-0.4,2.2-0.6c9.4-1.9,20.7,1.2,26.4,9.4c0.5,0.7,0.9,1.4,1.3,2.1c1.6,3.2,2.5,6.9,2.7,10.6     c0.1,0.9,0.1,1.8,0,2.8c0,0.9-0.1,1.8-0.2,2.7c-0.1,0.9-0.2,1.8-0.4,2.6c-0.1,3.5-1.5,6.6-3,9.8c-0.4,0.6-0.8,1.3-1.2,1.9     c-2.1,3-5,5.2-8,7c-0.8,0.4-1.6,0.7-2.4,1c-0.7,0.3-1.4,0.5-2.2,0.8c-0.8,0.2-1.5,0.4-2.3,0.5c-1,0.3-1.9,0.5-2.9,0.7     c-2,0.4-4,0.5-6,0.4c-0.9,0-1.8-0.1-2.7-0.2c-3.6-0.5-7.1-1.9-10.1-4.2c-0.8-0.5-1.6-1-2.4-1.6c-5.3-3.8-8.6-10.4-8.6-17.3     c-0.1-0.8-0.1-1.6-0.2-2.4C765.2,722.9,769.1,714.4,776.5,709.8z"/>
				<path fill="#4E7496" d="M807.6,705.8c-14-9.8-31.1-3.2-39.6,10c-6.6,10.2-6.4,23.4,1.2,32.8c2.7,3.4,6.2,5.9,10.1,7.6     c2.7,1.5,6,2.2,9.4,2.4c3.4,0.4,7,0.2,10.4-0.4c3.8-0.7,7.2-2.4,10.1-4.8c3.8-2.7,7-6.3,9.2-10.1     C826,729.7,819.4,714,807.6,705.8z"/>
				<path fill="#5E5C7D" d="M781.9,716.3c-8.6,5.6-8.8,16.5-3.4,24.3c4.1,6,11.5,8.8,18.5,6.8c2.5-0.7,4.7-2.1,6.5-3.9     c1.5-1.2,2.6-2.8,3.5-4.7c1-1.8,1.7-3.8,2.1-5.9c0.5-2.3,0.3-4.6-0.4-6.7c-0.6-2.7-1.9-5.3-3.5-7.4     C799.3,711.5,789.1,711.6,781.9,716.3z"/>
				<path fill="#6589A8" d="M800.2,727.4c-0.9-2.2-2.1-4.1-4.2-5.2c-2.3-1.2-4.7-1.2-7.2-0.8c-3.1,0.6-4.8,3.3-5.3,6.2     c-0.3,1.1-0.4,2.2-0.4,3.4c0,0.5,0,1,0.1,1.5c0,1.2,0.2,2.4,1,3.5c1.6,2.3,3.6,3.4,6.4,3.6c0.3,0,0.5,0,0.8,0     c1.7,0.1,3.4-0.3,4.8-1C800,736.8,801.8,731.4,800.2,727.4z"/>
				<path fill="#4E7496" d="M793.8,727.6c-0.6-0.6-1.4-0.9-2.2-0.9c-0.7,0-1.4,0.2-1.9,0.7c-0.6,0.3-1.1,0.9-1.3,1.7     c0,0.2-0.1,0.3-0.1,0.5c-0.2,0.5-0.3,1-0.3,1.5c-0.1,0.8,0.4,1.6,0.9,2.2c0.6,0.6,1.3,0.9,2.2,0.9c0.8,0,1.6-0.3,2.2-0.9     c0.3-0.3,0.5-0.7,0.7-1.1c0.4-0.4,0.7-1,0.8-1.4C794.9,729.6,794.6,728.4,793.8,727.6z"/>
				<path fill="#4E7496" d="M790.9,715.7c-2,0-2,2.6,0,2.6S792.9,715.7,790.9,715.7z"/>
				<path fill="#4E7496" d="M792.9,742.9c-1.6,0-1.6,2.5,0,2.5S794.5,742.9,792.9,742.9z"/>
				<path fill="#4E7496" d="M777.9,730.1c-1,0-1,2.6,0,2.6C779.9,732.7,779.9,730.1,777.9,730.1z"/>
				<path fill="#4E7496" d="M804.8,728.8L804.8,728.8c-0.9,0.5-0.9,1.8-0.1,2.3l0.1,0.1c0.9,0.5,2-0.1,2-1.2     C806.9,728.9,805.7,728.3,804.8,728.8z"/>
				<path fill="#4E7496" d="M782.3,721.4c-0.2-0.2-0.4-0.3-0.6-0.4c-0.4-0.2-0.9,0-1.2,0.3c-0.2,0.2-0.4,0.4-0.4,0.6l0,0.2l0,0.1     l0,0.1l0,0.2c0.1,0.3,0.2,0.5,0.4,0.6c0.3,0.3,0.8,0.4,1.2,0.3c0.2-0.1,0.4-0.2,0.6-0.4C782.8,722.6,782.8,721.9,782.3,721.4z"/>
				<path fill="#4E7496" d="M800.9,720.4c-2,0-2,2.7,0,2.7S802.9,720.4,800.9,720.4z"/>
				<path fill="#4E7496" d="M782.9,740.3c-1,0-1,2.6,0,2.6C784.9,742.9,784.9,740.3,782.9,740.3z"/>
				<path fill="#4E7496" d="M801.9,738.4c-1,0-1,2.3,0,2.3C803.9,740.7,803.9,738.4,801.9,738.4z"/>
				<path fill="#5E82AD" d="M1063.5,556c-1.4,0.4-2.8,0.7-4.2,0.9c-2.2,0.6-4.4,1.2-6.6,1.6c-4.5,0.8-9,1.1-13.6,1     c-2-0.1-4.1-0.2-6.1-0.5c-8.1-1.2-15.9-4.3-22.6-9.4c-1.9-1.1-3.7-2.3-5.4-3.5c-11.9-8.6-19.2-23.3-19.3-38.8     c-0.2-1.8-0.3-3.5-0.4-5.3c-0.7-20,8.3-39.1,24.8-49.4c1.8-1.1,3.6-2.2,5.4-3.1c4.6-2.4,9.5-4.4,14.4-5.9c1.7-0.5,3.3-0.9,5-1.3     c10.2-2.1,21.4-1.5,31.8,1.8c-0.3-9-0.7-18-1.3-26.9c-1.6-0.4-3.1-0.7-4.7-1c-19.4-2.9-39.2,0.2-56.1,7.1c-1.9,1-3.7,2-5.5,3.2     c-4,2.5-7.9,5.4-11.6,8.5c-1.2,1-2.5,2.1-3.6,3.2c-14,15.2-21.6,35.6-23.9,56c-0.2,1.9-0.3,3.7-0.3,5.6c-0.2,5.5,0.2,11,1.4,16.5     c0.4,1.7,0.8,3.4,1.1,5.2c0.4,1.7,0.7,3.5,0.9,5.2c0.5,2.1,1.1,4.2,1.8,6.2c6.2,18.3,18,33.8,35.6,42c19,8.9,40.5,12.4,60.6,8     C1062,573.9,1062.8,564.9,1063.5,556z"/>
				<path fill="#4D4D82" d="M1062.8,565c-17.5,5.3-36.8,2.6-53.6-5.2c-14.1-6.6-23.7-19.1-28.6-33.8c-0.6-1.6-1-3.3-1.5-5     c-0.2-1.4-0.4-2.8-0.7-4.2c-0.3-1.4-0.6-2.8-0.9-4.2c-0.9-4.4-1.3-8.8-1.1-13.3c0-1.5,0.1-3,0.3-4.5c1.9-16.5,8-32.9,19.3-45.1     c1-0.9,1.9-1.7,2.9-2.6c3-2.5,6.1-4.8,9.3-6.9c1.4-0.9,2.9-1.8,4.4-2.5c13.6-5.5,29.5-8.1,45.2-5.7c1.5,0.3,3,0.6,4.5,1     c1.4,0.4,2.9,0.7,4.3,1.2c-0.2-5.7-0.6-11.4-1-17.1c-1.6-0.4-3.1-0.7-4.7-1c-19.4-2.9-39.2,0.2-56.1,7.1c-1.9,1-3.7,2-5.5,3.2     c-4,2.5-7.9,5.4-11.6,8.5c-1.2,1-2.5,2.1-3.6,3.2c-14,15.2-21.6,35.6-23.9,56c-0.2,1.9-0.3,3.7-0.3,5.6c-0.2,5.5,0.2,11,1.4,16.5     c0.4,1.7,0.8,3.4,1.1,5.2c0.4,1.7,0.7,3.5,0.9,5.2c0.5,2.1,1.1,4.2,1.8,6.2c6.2,18.3,18,33.8,35.6,42c19,8.9,40.5,12.4,60.6,8     C1061.8,576.9,1062.3,570.9,1062.8,565z"/>
				<path fill="#49719B" d="M1064.7,539.7c2.2-32.4,3.2-64.9,2.1-97.4c-0.2,0.2-0.3,0.4-0.5,0.6c-6.2,8.7-18.2,9.2-28.3,9     c-1-0.2-2-0.4-3-0.7c-0.8-0.2-1.7-0.5-2.5-0.9c-0.8-0.3-1.6-0.7-2.4-1.1c-3.2-1.5-6.6-4.8-8.6-6.8c-0.6,0.3-1.1,0.6-1.7,0.9     c-3,1.8-6.1,3.6-9.1,5.3c0.2,0.9,0.5,1.8,0.6,2.7c0.1,0.7,0.2,1.5,0.3,2.2c0.2,6.6,0.9,15.3-5.7,18.9c-0.8,0.6-1.7,1.2-2.6,1.7     c-3.7,2-8,2.9-11.9,2.2c-1-0.1-1.9-0.1-2.8-0.1c-0.2,0-0.5,0-0.7,0c-0.5,1.5-1,2.9-1.6,4.3c-0.5,2.4-0.9,4.9-1.4,7.3     c1.2,0.9,2.4,1.8,3.5,2.8c0.9,0.8,1.8,1.7,2.6,2.6c11.2,9.9,10.4,26.1-0.3,35.1c-0.8,1-1.6,1.9-2.5,2.8c2.3,4.1,5,8,8.1,11.6     c0.7-0.7,1.4-1.4,2.2-1.9c1-0.8,2.1-1.5,3.2-2.1c13.5-8.8,29.4,0.6,30.7,16.1c0.3,1.2,0.5,2.4,0.7,3.6c0.2,1.2,0.2,2.4,0.3,3.6     c3.9,0,7.9-0.1,11.8-0.1c0-0.6,0.1-1.2,0.1-1.7c0.1-1.2,0.2-2.4,0.5-3.5c0.2-1.3,0.5-2.5,0.9-3.6c0.4-1.1,0.8-2.1,1.4-3.1     c0.6-1.1,1.2-2,1.9-2.9c0.7-0.9,1.4-1.6,2.2-2.3C1056.2,540.8,1060.4,539.5,1064.7,539.7z"/>
				<path fill="#6092A0" d="M1055.7,492.9c-1.4-3-4.2-4.8-7.3-6.2c0.4,0.1,0.3,0.1-1.2-0.5l-0.1,0l0,0l0,0c-3.6-0.7-7.4-1.4-10.7,0.2     c-0.8,0.3-1.5,0.7-2.1,1.2c-8.7,5.9-10.1,20.7,3.6,26.3c13.3,3.6,22.1-8.7,18.8-18.7C1056.4,494.4,1056.1,493.7,1055.7,492.9z"/>
				<path fill="#5E82AD" d="M1067.3,466.5c-5.1-3.7-11-6.1-17.4-7c-2.2-0.3-4.4-0.4-6.6-0.3c-9.1,0-16.7,4.7-23.6,10.6     c0.7-0.8,0.6-0.8-2.6,2.3l-0.1,0.2l-0.1,0.1h0c-6,8.3-12.1,16.4-12.1,26.4c-0.1,2.2,0.1,4.4,0.4,6.6c4,25.5,32.7,44.7,59.9,28.3     C1066.5,511.4,1067.4,489,1067.3,466.5z M1036.5,519.3c-19.3-7.9-17.4-28.8-5-37.2c1-0.6,2-1.2,3.1-1.7c4.7-2.2,9.9-1.2,15.3-0.3     v0l0.1,0c2.2,0.8,2.2,0.9,1.6,0.7c4.3,1.9,8.3,4.5,10.3,8.7c0.6,1,1,2.1,1.4,3.2C1067.8,506.9,1055.3,524.3,1036.5,519.3z"/>
				<path fill="#6D9DAF" d="M1047.3,466.4c-0.6-1.6-2.1-2.7-3.9-2.2c-0.8,0.2-1.5,0.7-1.9,1.4c-0.1,0.3-0.2,0.5-0.3,0.8l0,0     c-0.1,0.3-0.2,0.7-0.2,1.1c-0.2,1,0.1,2,0.8,2.7c0.9,0.9,2.5,1.2,3.6,0.5c0.5-0.3,0.9-0.7,1.2-1.1     C1047.5,468.7,1047.7,467.4,1047.3,466.4z"/>
				<path fill="#6D9DAF" d="M1050.8,529.7c-0.3-1.3-1.6-2.2-3-2.2c-1.3,0-2.6,0.9-3,2.2c-0.1,0.6-0.2,1.3,0,1.8     c0.1,0.5,0.4,1,0.8,1.4c0.6,0.6,1.4,0.9,2.2,0.9c0.6,0,1.1-0.1,1.5-0.4c0.7-0.4,1.1-1.1,1.4-1.8     C1051,531,1050.9,530.3,1050.8,529.7z"/>
				<path fill="#6D9DAF" d="M1015.3,501.5c-0.5-0.8-1.4-1.4-2.3-1.6c-0.7-0.2-1.5-0.1-2.1,0.3c-0.1,0.1-0.2,0.2-0.3,0.2l-0.1,0.1     c-0.3,0.3-0.5,0.6-0.7,0.9c-0.6,1-0.7,2.2-0.1,3.3c0.9,1.5,2.9,2,4.4,1.2C1015.7,505,1016.2,503,1015.3,501.5z"/>
				<path fill="#6D9DAF" d="M1022,476.9c-0.8-0.8-2.2-1.3-3.3-0.9c-0.8,0.3-1.2,0.5-1.8,1.1c-1.2,1-1.2,3.2-0.1,4.3     c0.1,0.2,0.2,0.4,0.4,0.5c0.6,0.6,1.5,1,2.4,1c0.6,0,1.2-0.2,1.7-0.5c0.7-0.4,1.4-1.2,1.5-2c0.1-0.4,0.2-0.8,0.1-1.1     C1022.9,478.4,1022.6,477.6,1022,476.9z"/>
				<path fill="#6D9DAF" d="M1066.2,479.8c0.3,0.5,0.7,0.9,1.1,1.1c0-1.8,0-3.6,0.1-5.4C1065.9,476.3,1065.1,478,1066.2,479.8z"/>
				<path fill="#6D9DAF" d="M1029.5,520c-0.4-0.6-1.2-1.1-1.8-1.2c-1-0.3-1.7,0-2.6,0.3l-0.1,0.1c-0.7,0.3-1.3,1.2-1.5,2     c-0.2,0.9-0.1,1.8,0.3,2.6c0.3,0.5,0.7,0.9,1.2,1.2l0,0l0.1,0.1c0.1,0.1,0.3,0.1,0.4,0.1l0.1,0c0.7,0.3,1.4,0.4,2.1,0.2l0.2-0.1     c1,0,2-0.6,2.5-1.4C1031.1,522.4,1030.7,520.8,1029.5,520z"/>
				<path fill="#6D9DAF" d="M1064.2,521c0.1,0.9,0.4,1.7,1,2.4c0.1,0.1,0.3,0.3,0.5,0.4c0.1-2.3,0.2-4.5,0.4-6.8     c-0.9,0.4-1.6,1.2-1.8,2.2l0,0.1c0.1-0.3,0.2-0.6,0.4-0.8C1064.2,519.3,1064,520.1,1064.2,521z"/>
				<path fill="#A35555" d="M907.3,682.1c-9.1-4.4-19.7-7.1-29.3-2.5c-9.3,4.5-14.3,13.7-17.3,23.2c-1.7,5.6,6.9,7.9,8.7,2.4     c2.2-7,5.6-13.7,12.2-17.3c6.6-3.6,14.9-1,21.2,2C907.9,692.4,912.5,684.6,907.3,682.1z"/>
				<path fill="#A68428" d="M723.1,734.7c-5.8,10.1-8.5,22.7-8.6,34.3c-0.1,5.8,8.9,5.8,9,0c0.1-10,2.4-21,7.4-29.7     C733.8,734.2,726,729.7,723.1,734.7z"/>
				<path fill="#73535D" d="M214.2,802.6c0.8-0.5,1.6-1.3,2.3-2.4c2-3.2,3.5-6.5,4.9-10.1c2.6-6.8,5.1-13.5,7.8-20.2     c6.5-15.9,13.2-31.8,20.3-47.4c1.4-4.3,3.1-8.4,5.3-12.3c0-0.3,0.1-0.5,0.1-0.8c0.1-1.8,0.1-3.6-0.1-5.4     c-15.1-6.5-31.3-11.4-46.7-16.9c-18.3-6.5-35.5-15.1-53.8-21.3c-17.4-5.9-35.3-12.6-53-17.4c-9.3-2.5-18.7-5-27.9-7.9     c-7.2,20.5-14.1,40.9-20.6,61.6c-4.3,13.6-6.6,28.1-10.4,42c24.6,9,49.1,18.4,73.9,27C148.8,782.5,182,790.6,214.2,802.6z"/>
				<path fill="#8085A9" d="M66.3,738.7c2.8,1.1,5.6,2.3,8.2,3.3c11,4,21.9,8,33.1,11.5c33.4,10.3,66.4,20.2,99.2,32     c4.4-13.4,10.7-26.1,15.7-39.4c3.4-9,7-20.8,12.3-30.3c-13.1-5.8-27.8-9.1-41.4-13.2c-14.6-4.4-28.5-10.2-42.9-15.3     c-19.8-7-40.2-11.9-59.9-18.9c-4.2,11.8-7.9,23.7-12,35.6C74.8,715.5,69.8,726.9,66.3,738.7z"/>
				<path fill="#997472" d="M61.5,657.3c28.2,8.5,56,18.6,83.8,28.5c31.1,11,62.6,20.6,93.8,31.2c4.4,1.2,8.7,2.7,12.9,4.5     c0.8,0.3,1.7,0.6,2.5,0.9c1.9-4.8,3.7-9.7,5.3-14.8c0.1-0.4,0.2-0.7,0.3-1.1c1.4-6.9,8.4-25,5.6-31.4     c-9.3-3.2-36.1-12.5-45.3-15.7c-19.1-6.7-36.9-16.2-56-22.6c-18.2-6.1-36.8-13.1-55.4-17.7c-5.5-1.4-19.7-5.8-25.1-7.3     c-7.3,3-14,23.1-16.2,26.1c-1.3,3.8-2.7,7.7-4,11.5C62.9,652.1,62.2,654.7,61.5,657.3z"/>
				<path fill="#8F5B53" d="M145.3,685.8c31.1,11,62.6,20.6,93.8,31.2c4.4,1.2,8.7,2.7,12.9,4.5c0.8,0.3,1.6,0.6,2.4,0.9     c1.4-3.9,3-7.8,5.1-11.4c0-0.3,0.1-0.5,0.1-0.8c0.1-1.9,0.1-3.8-0.1-5.7c-16-6.9-33-12-49.4-17.8c-19.3-6.8-37.5-15.9-56.9-22.5     c-18.4-6.3-37.3-13.3-56-18.4c-9.9-2.7-19.7-5.3-29.4-8.3c-2.3,6.6-4.5,13.1-6.8,19.7C89.4,665.7,117.3,675.9,145.3,685.8z"/>
				<path fill="#9BA2C5" d="M190.6,739.2c-2.2-3.8-7.6-5.6-11.4-7.2c-6.9-2.8-13.6-6-20.5-8.8c-8.1-3.3-16.4-6.3-24.5-9.7     c-6.3-2.6-12-6.8-19-7.2c-1.3-0.1-2.2,0.7-2.6,1.6c-2.5,2.4-3.5,6-3.1,9.5c-0.3,1.9,1.4,3.5,3,3.4c0.3,0.5,0.8,1.1,1.4,1.6     c1.8,1.5,4.5,2,6.7,2.6c4.7,1.3,9.3,3,14,4.4c9.2,2.8,18.4,5.6,27.6,8.3c8.2,2.3,17.1,5.4,25.6,5.9     C190.3,743.8,191.8,741.5,190.6,739.2z"/>
				<path fill="#9BA2C5" d="M123.1,714.9c0.3-0.6,0.5-1.3,0.8-1.9c0.7-1.7,1.2-3.4,1.5-5.1c0.5-2.7,0.5-5.5-0.7-8     c-0.3-0.6-0.7-1.2-1.3-1.7l-0.1-0.1c-1.2-1.6-3.1-2.1-4.8-1.5c-6.7,2.4-8.4,10.1-10.2,16c-1.6,5.3-5.3,10.8-3.4,16.9     c0.6,2,3.5,3.1,5.2,2.2c3.1-1.5,5.1-3.8,6.6-6.4C119.8,722.7,121.7,718.3,123.1,714.9z"/>
				<path fill="#9BA2C5" d="M136.8,714c0.6-1.9-0.9-4-3-3.2c-3.1,1.2-5.2,4.8-7.2,7.3c-1.6,2-2.2,3.4-3.7,5.2c-0.9,0.8-1.2,1.9-0.8,3     l0,0.1c0.5,1.7,2.7,2.2,4.1,1.3c1.7-1.1,2.8-3.5,3.9-5.1c1.2-1.6,2.4-3.3,3.7-4.8C134.9,716.4,136.3,715.5,136.8,714z"/>
				<path fill="#9BA2C5" d="M148.3,719.3c1.2-3.2-3-5-4.7-2.2c-2.3,3.7-5.4,6.9-8,10.4l0,0.1c-0.2,0.3-0.4,0.6-0.7,0.9     c-2.1,2.9,2.1,6.4,4.2,3.6C142,727.8,146.4,724.2,148.3,719.3z"/>
				<path fill="#9BA2C5" d="M159.4,721.4c-0.2-0.8-0.7-1.4-1.4-1.7c-0.7-0.3-1.5-0.4-2.2,0c-0.4,0.2-0.7,0.4-0.9,0.7l-0.2,0.2     c0.2-0.6-0.7,0.4-1,0.6c-1.3,1.1-2.4,2.5-3.4,3.8c-0.9,1.3-1.8,2.6-2.6,3.9c-0.8,1.2-2,2.4-2.6,3.8c-0.9,2.1,1.1,4.7,3.5,3.8     c0.7-0.3,1.1-0.6,1.5-1.2c0.3-0.3,0.4-0.7,0.5-1.1c0.5-0.8,1.3-1.6,1.8-2.4c0.9-1.3,1.7-2.6,2.7-3.9c1.1-1.5,3.4-2.9,4.2-4.7     C159.6,722.7,159.6,722,159.4,721.4z"/>
				<path fill="#9BA2C5" d="M168,728l0.1-0.1c0.4-0.4,0.3-0.3,0,0c1.8-1.4,0.2-4.6-2.4-4c-0.6,0.2-1.2,0.6-2.1,1.5     c-0.9,0.9-1.6,2-2.3,3.1c-1.5,2.2-2.8,4.4-4.3,6.6c-2,2.8,2.1,6.3,4.1,3.5c1.3-1.8,2.5-3.8,3.7-5.7c0.7-1,1.4-2.1,2.1-3.1     c0.3-0.4,0.6-0.9,0.9-1.3c0.2-0.2,0.3-0.4,0.4-0.5L168,728z"/>
				<polygon fill="#9BA2C5" points="168.1,727.9 168.1,727.8 168.1,727.9    "/>
				<path fill="#9BA2C5" d="M179.4,730.6c-0.1-1-1-2.1-2-2.2l-0.3,0c-1.2-0.1-2.1,0.5-2.5,1.4c-0.1,0.1-0.5,0.7-0.7,1.1     c-0.6,0.9-1.3,1.8-2,2.6c-1.2,1.5-2.6,3-3.9,4.4c-2.4,2.5,1.7,6,4.1,3.5c1.7-1.8,3.3-3.6,4.7-5.6     C177.9,734.4,179.6,732.5,179.4,730.6z"/>
				<path fill="#9BA2C5" d="M183.8,732.9c-2.9,2.9-6.1,6-7.3,10c-0.9,2.9,3.7,4.1,4.9,1.5c1.6-3.4,4.6-5.7,6.6-8.9     C189.5,733.1,185.6,731.1,183.8,732.9z"/>
				<path fill="#4D4D82" d="M32.1,671.9c0.5-0.5,0.8-0.8,1.5-1.1c0.6-0.3,1.2-0.3,1.8-0.2c1.1,0.1,2,0.9,2.6,1.7     c0.3,0.3,0.4,0.7,0.5,1.1c8.4,0.7,16.9,0.2,25-1.3c1.8-0.3,3.5-0.7,5.3-1.2c-0.1-1.2,0.4-2.4,1.3-3.1c0.8-0.6,1.6-0.7,2.5-0.7     c1.1,0,1.9,0.8,2.4,1.7l0.1,0.1c10.3-3.5,19.4-8.9,27.1-15.9c-0.3-0.8-0.4-1.7-0.3-2.6c0.1-1.8,2.1-3.1,3.7-2.9     c0.6,0.1,1.1,0.3,1.5,0.6c4.9-5.3,9.2-11.2,12.8-17.8c-0.9-1-1.3-2.4-0.7-3.7c0.4-0.8,0.9-1.5,1.6-2.1c0.6-0.4,1.5-0.8,2.3-0.8     c0.8-1.8,1.6-3.6,2.3-5.5c2-5.3,3.7-10.7,4.9-16.1c-0.1,0-0.3-0.1-0.4-0.1c-1.8-0.7-2.2-2.7-1.7-4.4l0,0c0.4-1.4,1.9-2,3.2-2     c0.9-7.4,0.6-14.9-1.6-22.4c-0.1-0.2-0.1-0.4-0.2-0.6c-1.1,0.6-2.7,0.7-3.6-0.3c-0.8-0.8-1.5-1.7-1.7-2.9     c-0.2-1.1,0.2-2.2,0.8-3.1c0.5-0.7,1.3-1.3,2.2-1.7c-0.8-2.7-1.9-5.4-3.6-8.3c-2.6-4.5-5.7-8.6-9.1-12.4     c-1.2,0.8-2.7,0.9-3.9-0.1c-1.3-1.1-1.7-3.3-0.6-4.6c-1.6-1.6-3.3-3.2-5-4.7c-4.6-4.1-9.6-7.8-14.8-10.9c-0.1,0.7-0.5,1.4-1.2,2     c-1.3,1-3.7,0.9-4.6-0.7c-0.9-1.4-1-3.1-0.3-4.6l0-0.1c-7.2-3.6-14.7-6.4-22.7-8.2c-0.6-0.2-1.3-0.3-1.9-0.4     c-0.7,1.2-2,1.9-3.3,1.7c-1.6-0.3-2.9-1.2-3.4-2.8c-9.7-1.1-19.4-0.3-28.7,2.1c0.5,1.6-0.5,3.4-1.9,4c-1.7,0.7-3.5-0.2-4.3-1.8     l-0.1-0.2c-7.7,2.7-14.9,6.6-21.5,11.6c0.3,1,0.2,2.2-0.5,3.1c-1,1.2-2.9,1.7-4.2,0.8c-5.3,4.7-10,10.2-14,16.5     c-0.4,0.7-0.8,1.3-1.2,2l0.1,0.1c1.5,1,1.6,3.4,0.5,4.7c-1,1.3-2.5,1.5-3.9,1c-3.8,7.5-6.5,15.5-8,23.6c0.1,0.1,0.3,0.1,0.4,0.2     c1.6,0.8,2.4,2.7,1.7,4.4c-0.5,1.2-1.8,2-3.1,2c-1,9.1-0.4,18.3,1.6,27.3l0.1,0c1.8,0.3,3.1,2,2.8,3.8c-0.1,0.9-0.6,1.7-1.3,2.2     c2.3,7.5,5.6,14.8,10.1,21.7c0.5-0.1,0.9-0.1,1.5-0.1c1.1,0,1.8,0.7,2.5,1.4c1,1.1,0.8,2.9-0.1,4c5.5,6.8,12.1,12.4,19.5,16.7     c0.3-0.2,0.5-0.4,0.8-0.4c1-0.3,1.8-0.4,2.9,0c0.9,0.3,1.6,1.2,1.9,2.1c0.2,0.5,0.2,1,0.2,1.5c7.8,3.8,16.2,6.3,24.9,7.6     C31.8,672.3,32,672.1,32.1,671.9z M8.8,638.7c-23.5-17.8-27.5-52.1-12.5-76.9c16.1-26.6,47-33,74.2-21.1     c7.1,3.1,13.9,7.8,19.9,13.1c7.3,11.8,18.3,23.7,17.1,38.4c-1.2,14.9-8.4,33-19.1,43.5C67.2,656.3,31.5,655.8,8.8,638.7z"/>
				<path fill="#7E6FA3" d="M87.5,544c-12.2-9-27.6-13-42.7-13.1c-1.4,0-2.7,0.1-4.1,0.2c-4,0.3-8,1-11.9,2.3     c-1.2,0.4-2.4,0.8-3.7,1.2c-1.2,0.4-2.5,0.7-3.7,1c-1.5,0.5-2.9,1.1-4.4,1.8c-12.9,5.9-23.2,15.8-27.9,29.2     c-5.8,16.8-6.1,35.4,1.4,51.2c0.7,1.4,1.4,2.9,2.2,4.2c3.6,6.7,8.5,12.7,14.4,17.4c1.2,0.9,2.4,1.8,3.6,2.6     c13.4,8.7,29.8,12.6,45.9,10.3c1.4-0.2,2.8-0.4,4.2-0.6c4.3-0.8,8.5-1.9,12.5-3.3c1.3-0.5,2.7-0.9,4-1.4     c13.4-5.6,23.8-18,29-31.9c0.4-1.4,0.7-2.8,1.1-4.2c0.3-1.4,0.6-2.9,0.9-4.3c0.2-1.4,0.5-2.7,0.7-4.1c0.2-1.4,0.3-2.8,0.5-4.1     c0.6-14.4-3.2-28.5-9.5-40.3c-0.9-1.3-1.8-2.5-2.7-3.8c-2.2-2.7-4.6-5.3-7.1-7.8C89.3,545.6,88.4,544.8,87.5,544z M82.4,558.8     c1.1,1.3,2.1,2.7,3.1,4.2c2.4,3.6,4.4,7.4,6.1,11.3c0.5,1.3,1,2.7,1.5,4c5.3,16.8,1.8,38.4-12.1,50.4c-1.1,1-2.3,1.9-3.6,2.8     c-5.6,3.6-12.2,6-19,7.1c-1.7,0.3-3.4,0.5-5.1,0.6c-1.7,0.1-3.3,0.2-5,0.2c-1.6,0-3.3,0-4.9-0.1c-6.4,0.6-12.4-1.4-18.7-3.6     c-1.3-0.5-2.5-1.1-3.6-1.8c-5.8-3.3-10.6-8.1-14.5-13.3c-0.9-1.3-1.7-2.7-2.4-4.2c-0.7-1.3-1.3-2.5-1.8-3.9     c-0.5-1.3-1-2.7-1.4-4.2c-0.7-1.7-1.3-3.5-1.9-5.3c-1.1-3.6-1.7-7.3-2-11c-0.1-1.7-0.2-3.4-0.1-5.1c0.3-6.7,2.2-13.4,5.7-19.4     c0.8-1.6,1.5-3.2,2.4-4.7c6-10.5,17.4-17.8,30.2-19.2c1.4-0.3,2.9-0.6,4.3-0.8C56.1,540.4,72.5,546.1,82.4,558.8z"/>
				<path fill="#655982" d="M87.9,626.7c21.6-23.1,13.9-56.2-8-75.3C63,536.6,38.7,533.6,19.4,545c-7,4.1-12.5,9.9-16.6,16.5     c-3.5,4.6-5.7,10.5-6.9,16.5c-1.6,6.2-2.2,12.7-1.9,19.1c0.3,7.2,2.6,13.9,6.2,19.7c3.9,7.7,9.6,14.5,16.2,19.6     C39.2,654.3,69.7,646.2,87.9,626.7z M43.3,564.5c-3.7-2.3-6.8-7.5-5.9-12c0.2-0.9,0.5-1.8,0.9-2.7c0.6-1.7,1.6-3.2,3.3-4.3     c0.9-0.6,1.8-1,2.8-1.4l0.2-0.1c3-1.1,7-1.6,10-0.1c3.1,1.6,4.8,4.2,5,7.2c1.4,3.5,1.1,7.6-1.3,10.8     C54.6,566.9,48.2,567.6,43.3,564.5z M71.9,569.7c0.3-0.2,0.5-0.5,0.8-0.7c2.9-2.1,6.9-2.8,10.3-1.7c1.7,0.4,3.4,1.2,4.8,2.8     c0.5,0.6,0.9,1.2,1.2,1.8c0.3,0.3,0.6,0.6,0.8,0.9c1.6,1.9,1.6,4.5,0.5,6.6c-0.2,0.7-0.4,1.3-0.7,2c-2,3.9-5.6,5.8-9.4,5.4     c-0.1,0-0.3,0.1-0.4,0.1c-4.2,1-7.7-1.9-9.6-5.3c-0.7-1.2-1-2.6-1.2-3.9l-0.1-0.2C67.6,574.5,69.1,571.3,71.9,569.7z M5.2,578.8     c-0.5-2.2-0.1-4.7,0.9-7c0.2-1.2,0.7-2.4,1.6-3.4c0.5-0.5,0.9-0.9,1.5-1.3c0.5-0.6,1.1-1.1,1.7-1.5c2.4-1.7,5.7-2.7,8.5-1.6     c2,0.3,3.6,1.5,4.5,3.2c0.9,0.6,1.6,1.4,2.2,2.4c1.3,2.1,1.8,4.6,1.5,6.9c-0.2,2.8-1.5,5.4-4.1,6.9c-3.1,1.8-6.9,3.3-10.6,2.7     C8.7,585.4,6.1,582.7,5.2,578.8z M72.6,599c0.8-0.6,1.7-0.9,2.7-1c5.8-0.5,10.5,2.8,11.7,8.5c0.8,4-0.5,8.8-3.3,11.7     c-3.9,4.1-10.3,5.3-14.8,1.4c-4-3.5-5.1-10.1-2.7-14.8C67.7,602,69.9,600,72.6,599z M11.7,621.3c-2.3-1.3-3.8-3-4.6-5     c-0.4-0.6-0.7-1.1-1-1.7c-0.3-0.7-0.5-1.5-0.5-2.2c0-1.9,0-2,0.5-3.8c0.2-0.8,0.7-1.7,1.4-2.3c0.8-1.6,1.9-2.9,3.3-4     c3.6-2.9,7.9-2.8,12.1-1.6c2.2,0.6,3.6,3.1,3.8,5.4c1.7,4.1,0.7,9.2-2.3,12.4C21.3,621.5,15.8,623.7,11.7,621.3z M41.1,634.5     c-3.1-3.1-5.2-7-4.8-11.5c0.5-4.6,4.7-9.2,9.6-9.2c5,0,9.9,2.4,11.9,7.2c0.3,0.7,0.5,1.3,0.6,2c0.2,0.6,0.4,1.2,0.5,1.8     c1,4.9-2,9.6-6.2,11.7C49.1,638.5,44,637.4,41.1,634.5z"/>
				<path fill="#877C9E" d="M50.9,607.1c4.2-1.1,8-2.8,10.7-6.4c2.9-3.9,3.5-8.4,3.3-13c-0.3-5.9-4.9-9.7-10-11.4     c-1.9-0.9-4-1.4-6.1-1.6c-0.9-0.2-1.8-0.3-2.7-0.3c-2.2-0.3-4.5-0.2-6.7,0.9c-4.6,2.3-7.2,5.8-8.3,10.7c-0.1,0.5-0.2,1-0.2,1.5     c-0.6,3-0.4,6.3,0.5,9.1C33.8,604.3,43.2,609.1,50.9,607.1z"/>
				<path fill="#7E6FA3" d="M52.3,595.4c1.2-0.9,2.1-2.3,2.3-3.9c0.2-1.3-0.1-2.6-0.7-3.7c-0.5-1.3-1.4-2.3-2.7-2.9     c-0.3-0.1-0.6-0.2-0.9-0.4c-0.8-0.5-1.7-0.8-2.7-0.9c-1.4-0.3-3.1,0.2-4.2,1.1c-1.2,0.9-2,2.2-2.2,3.7c-0.2,1.5,0.2,3,1.1,4.2     c0.5,0.7,1.1,1.2,1.8,1.5c0.6,0.8,1.6,1.5,2.4,1.9C48.4,596.9,50.7,596.6,52.3,595.4z"/>
				<path fill="#7948A3" d="M797.8,84.7c1.6-5.1-7-7.9-8.9-2.9c-1.3,3.4-2.6,6.8-4,10.2c-1.4,3.3-3.4,6.4-4,10     c-0.5,3.3,3.5,6.8,6.5,4.3C793.6,101.3,795.5,92,797.8,84.7z"/>
				<path fill="#7948A3" d="M765.9,59.4c2.9-4.4-4.6-9.5-7.7-5.2c-2.2,2.9-4.4,5.9-6.6,8.7c-2.2,2.8-5,5.3-6.5,8.5     c-1.4,3,1.5,7.5,5,5.9C757.2,74.1,761.7,65.7,765.9,59.4z"/>
				<path fill="#7948A3" d="M813.4,90.2c-0.4-4.5-7.5-5.2-8.1-0.4c-0.5,3.7-0.8,7.5-1.6,11.2c-0.8,3.9-1.7,7.9-1.3,11.9     c0.4,4.1,5.8,5.2,7.7,1.5C813.8,107.5,814.1,97.8,813.4,90.2z"/>
				<path fill="#7948A3" d="M835,101.7c-0.2-5.8-8.8-5.5-9,0.3c-0.1,5.9-1.1,11.9-1.1,17.8c0,4.2,6.1,5,7.8,1.4     C835.6,115.2,835.2,108.2,835,101.7z"/>
				<path fill="#7948A3" d="M858,108.2c-0.3-0.5-3.2-3.2-3.9-2.2c-1.4,1.1-2.9,2.3-4.3,3.4c-0.4,0.8-0.7,1.6-0.9,2.4     c-0.6,1.6-1,3.2-1.4,4.9c-0.9,3.6-1.5,7-1.4,10.7c0.1,4.1,5.7,5.2,7.6,1.7c2.9-5.3,4-11.6,4.9-17.6     C858.7,110.3,858.6,109.3,858,108.2z"/>
				<path fill="#7948A3" d="M776.8,75.2c-0.2-0.6-2.4-3.8-3.4-3c-1.7,0.8-3.3,1.6-5,2.4c-0.5,0.7-1,1.4-1.4,2.2     c-0.9,1.4-1.7,3-2.4,4.5c-1.7,3.3-2.9,6.5-3.6,10.2c-0.8,4.1,4.5,6.3,7.1,3.3c4-4.6,6.4-10.5,8.5-16.1     C776.9,77.4,777.1,76.4,776.8,75.2z"/>
				<path fill="#7948A3" d="M877.7,116.7c0-2.5-2.8-4.4-5.1-4.1c-2.7,0.3-4.1,2.6-4.1,5.1c0,4.3-0.6,9.2,1.2,13.2     c1.1,2.7,5.8,2.6,6.9,0C878.4,126.5,877.7,121.3,877.7,116.7z"/>
				<path fill="#7948A3" d="M901.8,130.1c0-4.9,0.9-9.6,1.1-14.4c0.3-5.9-8.9-6-9.2-0.1c-0.2,5-2.2,10.9,0.6,15.5     c0.9,1.5,2.2,2.6,4.1,2.3C900,133.3,901.8,131.9,901.8,130.1z"/>
				<path fill="#7948A3" d="M927,129.7c-1.2-3-3.1-5.7-4.2-8.7c-1-2.5-1.6-5.1-2.2-7.7c-1.6-6.2-11.1-3.5-9.5,2.7     c1.6,6.4,3.6,15.3,10.2,18.3C924,135.6,928.3,133.2,927,129.7z"/>
				<path fill="#7948A3" d="M937.3,116.6c0,2.4,0.2,4.6,0.4,7c0.2,2,0.3,5.4,1.7,6.8c2.1,2.1,5.9,1.1,6.6-1.8     c1.1-3.9,1.1-8.2,1.1-12.3C947.2,109.9,937.2,110.2,937.3,116.6z"/>
				<path fill="#734899" d="M826.3-19.3c-46.9,1.3-93.8,2.3-140.8,2.1c9.8,18.8,20.8,36,33.5,51.5c3.6,4.3,7.2,8.6,11,12.7     c1.9,2.1,3.8,4.1,5.7,6.1c16,25.3,39.2,38,64.2,45.4c2.2,1.3,4.3,2.8,6.5,4.4c24.4,16.2,52.1,20.3,80.6,20c2.5,0.2,5,0.4,7.5,0.5     c11.6,0.8,23.3,0.7,34.9-1c8.1-1.2,17.4-3.4,25.4-8.1c3.5,0,7-0.2,10.7-1c6.3-1.3,12.5-3.5,18.6-6.2c8.8-3.8,17.3-9.4,25.5-15.1     c11.8-8.2,22.9-17.8,34.2-27.1c-2.9-29.9-5.8-59.8-8.3-89.7C965.8-23.9,896.1-21.3,826.3-19.3z"/>
				<path fill="#083C87" d="M240.1,18.2c-6.3-2.2-12.2-5.1-17.9-8.5c1.6-3,3.1-6,4.6-9c2.9-6,5.9-12.1,8.7-18.4     c1-2.1,1.9-4.3,2.9-6.5c0.8-2,1.5-4,2.3-6c-23.4,0.4-46.8,0.9-70.2,1.6c-69.9,2.2-139.1,15-209.1,13.7C-35.3,2.5-33,20-31.1,37.5     c3.8,36.2,4.6,72.6,4.6,109c2,0.4,4,0.8,5.9,1c9.6,1.5,19.3,1.7,29,1.3c0.1,3.7,0.1,7.5,0.1,11.2c0,7.7,12,7.7,12,0     c0-4,0-8-0.1-11.9c0.5,0,1-0.1,1.5-0.1c5,0,10,0,14.9-0.3c0.1,4.1-0.3,8.2-1.1,12.3c-1.5,7.6,10,10.8,11.6,3.2     c1.1-5.5,1.5-11,1.4-16.5c3-0.4,6.1-0.8,9.1-1.4c0.4,5.5,1.2,11.1,1.3,16.7c0.1,7.7,12.1,7.7,12,0c-0.1-6.3-1.5-12.9-1.7-19.3     c4-1.1,7.9-2.4,11.8-3.9c1.5,5.1,3.4,10.1,5.1,15.2c2.5,7.3,14.1,4.2,11.6-3.2c-1.9-5.6-4.2-11.2-5.8-16.9     c3.5-1.8,7-3.8,10.4-6.1c1.5-1.1,3-2.1,4.5-3.1c1.2,3.4,2.6,6.8,3.8,10.3c1.1,3.1,4,5.1,7.4,4.2c3-0.8,5.3-4.3,4.2-7.4     c-1.4-3.8-2.9-7.5-4.2-11.4c3.5-1.3,6.9-2.7,10.2-4.2c1.8,3.1,3.6,6.1,5.5,9.2c4.1,6.5,14.5,0.5,10.4-6.1     c-1.8-2.8-3.5-5.7-5.2-8.6c4.2-2.5,8.3-5.3,12.2-8.4c2.9,3,6.4,5.5,10.2,7.2c3,1.3,6.4,0.9,8.2-2.2c1.5-2.6,0.8-6.9-2.2-8.2     c-2.8-1.2-5.3-2.9-7.3-4.9c3-3,5.8-6.3,8.5-9.9c4.2,2.1,8.5,4.2,12.8,6.2c3,1.4,6.4,0.9,8.2-2.2c1.5-2.6,0.8-6.8-2.2-8.2     c-3.8-1.8-7.7-3.6-11.4-5.5c0.9-1,1.8-1.9,2.6-2.9c1.7-1.9,3.4-3.8,5.1-5.7c3.6,3,7.7,5.3,12.1,7c3.1,1.2,6.6-1.3,7.4-4.2     c0.9-3.4-1.1-6.2-4.2-7.4c-2.3-0.9-4.3-2.2-6.3-3.6c-0.4-0.3-0.9-0.6-1.3-1c4-5,7.9-10.3,11.6-15.6c3.7,4,7.5,7.9,11.9,11.2     c2.6,1.9,6.7,0.4,8.2-2.2c1.8-3,0.5-6.3-2.2-8.2c-4.2-3.1-7.8-7.1-11.2-11.1c2.3-3.6,4.5-7.3,6.6-11.1c6.5,3.9,13.3,7.1,20.5,9.6     C244.2,32.3,247.4,20.7,240.1,18.2z"/>
				<path fill="#6D0B66" d="M607.2-18.7C571-20,535-23,498.9-25.5c-36.7-2.5-73.5-3.9-110.3-4.6c-55.9-1-112-0.9-167.9,0.2     c0.9,1.6,1.9,3.2,2.8,4.9c1.3,1.9,2.6,3.9,3.9,5.8c1.3,1.9,2.7,3.8,4,5.7c2.1,2.6,4.3,5,6.5,7.4c2.3,2.4,4.6,4.7,7,6.9     c2.2,2.1,4.4,4.2,6.6,6.2c2.2,1.9,4.4,3.7,6.6,5.4c6.8,5.3,13.8,10.2,21,14.7c21.1,13.5,43.8,24.6,66.6,34.9     c53.3,24,111.4,35.1,169.8,34.5c93.2-0.9,195.9-21.9,264.3-89.9c2.9-2.9,5.8-5.9,8.5-9.1c2.7-3.1,5.4-6.3,7.9-9.6     c1.9-2.1,3.8-4.3,5.7-6.6C737-17,672.1-16.3,607.2-18.7z"/>
				<path fill="#93278F" d="M325.5,18.3c-1.9-1.7-3.8-3.3-5.8-5c-1.9-1.6-3.9-3.3-5.8-4.9c-8.1-5.5-14.5-12.1-20-19.3     c-1.9-2.5-3.6-5-5.3-7.7c-1.7-2.9-3.3-5.9-4.8-9c-0.5-1-1-2.1-1.5-3.1c-20.7,0.1-41.3,0.4-62,0.8c0.7,1.3,1.5,2.5,2.2,3.8     c1.5,2.3,3,4.5,4.4,6.6c1.4,2.1,2.8,4.1,4.1,6c2.2,2.5,4.4,5,6.7,7.3c2.3,2.4,4.7,4.6,7.1,6.8c2.2,2.1,4.5,4.2,6.7,6.2     c2.2,1.9,4.4,3.7,6.6,5.4c6.8,5.3,13.8,10.2,21,14.7c21.1,13.5,43.8,24.6,66.6,34.9c9.8,4.4,19.8,8.4,29.9,12     c-10.4-10.7-20.1-22.1-29.6-33.4C339.5,32.8,333.1,25,325.5,18.3z"/>
				<path fill="#93278F" d="M452,39.7c-6.8-8.1-13.3-16.4-19.7-24.7c-3.2-4.2-6.4-8.4-9.6-12.6c-2.1-2.5-4.2-5-6.1-7.6     c-2-2.6-3.8-5.3-5.7-8c-1.4-2.4-2.8-4.8-4.2-7.2c-1.3-2.4-2.7-4.8-4-7.3c-0.3-0.7-0.6-1.4-0.9-2.2c-4.4-0.1-8.9-0.2-13.3-0.3     c-13.9-0.2-27.8-0.4-41.7-0.5c2,2.8,4.1,5.4,6.2,8.1c1.7,2.1,3.4,4.1,5.1,6.1c5.2,6,10.7,11.6,16.7,16.8c2.1,2,4.1,4,6.1,6.1     c5.8,6.2,11,12.8,16,19.8c7.7,10.7,14.3,20.5,22.8,29.5c4.3,4.5,8.7,8.9,13.4,13c4.1,3.6,10.1,8.4,13,10.5     c9,6.2,17.8,11.5,26.9,15.6c14.1,1.3,28.2,1.8,42.4,1.7c2.2,0,4.5-0.1,6.8-0.1C495.5,81.9,471,62.5,452,39.7z"/>
				<path fill="#93278F" d="M599.3,36c-11.4-8.7-22.2-18.4-32.3-28.6c-2-2.1-4-4.1-6-6.3c-2.7-2.6-5.2-5.3-7.7-8.1     c-2.5-2.7-4.9-5.6-7.2-8.4c-2.2-2.3-4.3-4.7-6.2-7.2c-13.7-1-27.4-2-41.1-2.9c-6-0.4-11.9-0.8-17.9-1.1c0.1,0.1,0.2,0.3,0.3,0.4     c1.8,2.8,3.7,5.5,5.7,8.2c5.8,7.8,12.3,15.2,19.5,21.8c2.9,2.5,5.9,4.8,9.1,6.9c3.1,2.1,6.4,4.1,9.9,5.9c2.5,1.5,5.1,3,7.6,4.6     c2.5,1.5,5,3.1,7.5,4.7c8.8,5.7,17.3,11.9,25.5,18.3c16.1,12.5,28.7,23.7,44.7,33.2c4.2,2.5,8.5,4.9,13,7     c0.4,0.2,0.8,0.4,1.2,0.5c12.3-2.7,24.4-5.8,36.3-9.6c-3-1.4-5.9-2.9-8.7-4.5C634.1,60.8,616,48.8,599.3,36z"/>
				<path fill="#93278F" d="M735.6-1.5c-2.3-1.2-4.6-2.4-6.8-3.8C726-7,723.4-9,720.9-11c-2.8-2-5.5-4.1-8.3-6.2     c-25.9,0.1-51.8,0-77.6-0.6c2.3,2.8,4.6,5.5,7.1,8.1c1.6,1.7,3.3,3.4,5,5c1.7,1.6,3.4,3.3,5.1,4.8c2,1.8,4.1,3.6,6.1,5.3     c2.1,1.7,4.2,3.4,6.3,5.1c4.4,3.4,6.4,4.8,11.3,8c9,5.9,18.4,11.1,28.2,15.6c10,4.5,17,7.1,26.9,10.4     c14.2-8.6,27.7-18.4,40.1-29.7c-4.6-2.5-9.4-4.8-14.3-7C750,4.6,742.5,1.9,735.6-1.5z"/>
				<path fill="#C45B7B" d="M339.8,59.3c0,0,3.8-2.9,10-7c11.8-6.9,24.1-13.2,35.4-21.1c2.3-1.6,4.5-3.2,6.6-5     c5.6-2.5,8.4-7.5,12.2-11.6c17.4,23,38.6,42.9,59.8,61.9c0,0-2.8,4.3-5.6,8.5c-2.8,4.3-5.6,8.5-5.6,8.5S376.4,86.2,339.8,59.3z"/>
				<path fill="#FF8752" d="M344.8,50.8c0.9,1.7,2.6,2.9,3.9,4.4c1.6,1.7,2.9,3.7,4.3,5.5c1.4,1.8,4.2,0.2,3.1-1.8     c-1.1-2-2.2-3.9-3.5-5.8c-1.5-2-3.2-4.4-5.7-5.1C345.5,47.7,344.1,49.6,344.8,50.8z"/>
				<path fill="#FF8752" d="M375,38.6c-1-2.4-2.6-5.7-5.4-6.1c-1.3-0.2-2.2,1-2,2.2c0.2,1.6,1.4,2.6,2.3,3.8c1.8,2.5,2.8,5.7,3.2,8.6     c0.3,1.9,3.3,2,3.4,0C376.5,44.2,376.1,41.4,375,38.6z"/>
				<path fill="#FF8752" d="M393,23c-1.2-2.4-2.6-4.8-4-7c-1.2-1.8-4,0-3.2,1.9c1,2.2,1.9,4.5,2.9,6.7c1.1,2.3,1.9,4.8,3.9,6.4     c1.1,0.9,3.2,0.4,3-1.3C395.3,27.1,394.1,25.2,393,23z"/>
				<path fill="#FF8752" d="M420.5,23.1c-2.6,0.6-4.8,3.3-6.9,5.4c-2.1,2.1-3.9,4.6-5.6,7.2c-1.2,1.9,0.9,4.4,2.2,2.6     c1.6-2.4,3.5-4.4,5.3-6.4c1.9-2,4.5-3.4,6.1-5.9C422.3,25,421.6,22.8,420.5,23.1z"/>
				<path fill="#FF8752" d="M436.2,42.6c-2.4-0.9-4.4,1.1-5.9,2.8c-2.1,2.4-3.8,5.1-4.9,8c-0.8,2,2,3.3,3,1.4     c1.1-2.1,2.7-4.1,4.2-5.9c1.3-1.5,3.3-2.4,4.2-4.1C437.3,44.1,437,42.9,436.2,42.6z"/>
				<path fill="#FF8752" d="M453.5,59.5c-2.2,0.2-4.1,1.8-5.9,3c-1.7,1.1-3.2,2.4-4.8,3.6c-1.6,1.2,0.5,3.9,2.1,2.8     c1.4-0.9,2.9-1.9,4.4-2.8c1.9-1.2,4.3-2.1,5.6-3.9C455.8,61.1,455,59.4,453.5,59.5z"/>
				<path fill="#FF8752" d="M463.9,89.6c-1.6-0.6-3.3-0.3-4.9-0.3c-2.4,0.1-4.7-0.1-7-0.4c-2.4-0.3-2.8,3-0.6,3.6     c3.8,1,9.3,1.9,13,0.3C465.9,92.1,465.1,90,463.9,89.6z"/>
				<path fill="#083C87" d="M1033.1-24.7c0.2,1.2,0.4,2.4,0.7,3.6c0.6,2.4,1.2,4.7,1.8,7c0.4,1.3,0.8,2.6,1.2,4     c-0.4-4.9-0.8-9.7-1.2-14.6C1034.8-24.7,1034-24.7,1033.1-24.7z"/>
				<path fill="#211F1F" d="M104.5,351.4c-0.4-1.9-1-3.6-1.8-5.2c-0.4-0.9-0.9-1.5-1.5-2c-4.6-8.9-9.7-17.4-14.9-25.8     c-1.3-2.1-3.2-2.4-4.9-1.7c-1.1-1.1-2.4-1.5-3.6-1.4c-1.4-0.7-3.1-0.3-4.3,0.9c-3.3-4-8.9-0.2-8.3,4.9c-1.5-0.4-3.1,0.5-3.5,3.2     c-0.1,0.6-0.1,1.3-0.2,1.9c-0.3,1.1-0.4,2.3-0.2,3.6c0,14.4,6.7,31.9,14,41c2.9,3.5,6.6,1.5,7.8-2.6c2.4,0.7,4.9-0.4,5.3-4.3     c0.1-1.4,0.2-2.7,0.2-4c1.3-0.6,2.3-1.9,3-3.5c0.3,0.5,0.5,1,0.8,1.5c1.8,3.3,4.6,3.7,6.8,2.4     C102.5,360.3,105.5,356.6,104.5,351.4z"/>
				<path fill="#5B0617" d="M311.4,363.9c-0.8-11.4-7.3-20.7-15.9-20.3c-1.5,0.1-3.1,0.5-4.5,1.2c-2.3-1.3-4.5-2.3-6.8-3.2     c-2.3-0.9-4.5-1.5-6.8-2c-4.2-0.1-8.6-1.5-13,1.5c-6.2,3.6-12.4,6-18.6,7.5c-1.6,0.4-3.1,0.7-4.7,1c-15.4,2.2-32,3.9-46.7-4.4     c-1.1-0.6-2.3-1.2-3.4-1.9c-1.7-0.9-3.3-1.9-5-3c-13.1-6.7-24.4-29.6-39.1-23c-10.4,6.4-3.4,28,4.3,38.5c0.9,1.6,1.8,3.2,2.8,4.7     c3,4.5,6.5,8.5,11.2,10.7c1.1,0.7,2.1,1.3,3.2,1.8c1.1,0.6,2.2,1.1,3.3,1.5c2.2,0.9,4.3,1.7,6.4,2.4c5.2,1.6,10.5,2.4,15.7,3.2     c5.8,0.8,12.8,1.7,20.6,2.5c7.8,0.8,15.7,1.6,23.5,2.3c2,0.2,3.9,0.3,5.9,0.5c11.4-0.1,23.2,2.3,35.3,1.7c2,0,3.9,0,5.9,0     c3.9,0,7.8-0.1,11.8-0.3c8-0.4,15.4-10.4,14.6-21.8C311.4,364.6,311.4,364.3,311.4,363.9z"/>
				<path fill="#E0121D" d="M33.7,338.7c7.9-0.8,15.6-2.7,23.3-4.5l0.1,0.2c6.4-1.6,12.8-3.1,19.2-4.5c5.6-1.2,11.3-2.4,16.9-3.7     l-0.1-0.1c5.5-1.2,12.5-2.7,15.3-6.6c1.7-2.3,1.3-4.8-0.1-6.8c-6.3-0.2-12.6-0.6-18.9-1.1c-16.7-1.4-33.4-3.2-50.1-4.9     c-3.5-0.4-7.2-0.7-11-1c1.8,6.7,3,13.7,3.9,20.7C32.8,330.4,33.2,334.6,33.7,338.7z"/>
				<path fill="#E0121D" d="M93.5,387c1.1,0,2.3-0.3,3.3-1C95.7,386.3,94.6,386.7,93.5,387z"/>
				<path fill="#211F1F" d="M409.1,425.8c1.1-4.6,1.2-7.4,1.4-12.2c-0.9-0.9-3.1-4.4-3.9-5.5c-1.5-1.9-2.7-3.9-3.7-6     c-6.7-3.4-18.4-7.7-20.8-9.9c-8.4-0.1-16.7-0.1-25.1-0.1c-33.1,0.1-66.3,0.8-99.4,0.5c-66.1-0.6-197.9,4.2-198,4.2l0,5.7     c-0.2,8.7,2.4,15.6,4.4,22.8c0.9,3.2,25.3,15.1,33.9,14.3c4.1-0.4,11.1,0.6,17.7,0.1c39.3-3.3,76.5-10,115.9-10.2     c29.5-0.2,57.5,0.8,88.4,2.7c25.8,1.6,51.6,1.7,77.3,0.8c2.3-0.2,5.3-0.4,7.8-0.6c0.7-0.1,2.7-2.6,3.2-3.7     C408.5,427.7,408.8,426.8,409.1,425.8z"/>
				<path fill="#E0121D" d="M61.5,414.4c0.1,0.6,0.4,1.2,1,1.8c1.3,0,33.3,6.6,33.3,6.6s10.3-0.9,15.4-1.3     c69.6-5.9,139.5-4.3,209.2-4.7c26.1-0.2,52.2-1.3,78.3-2.2c3.9-0.3,7.8-0.6,11.7-0.9c-1.8-12.7-11.2-22.9-17.9-30.6     c-9.8-11.2-21-19.5-32.8-25.9c-24.6-13.3-51.3-18.4-77.5-20.5c-5.1-0.1-10.3,0.2-15.4,0.5c-5.3,0.3-12.3,9.8-17.1,13.1     c-11.8,8.2-24.7,12.8-38,11.9c-11.6-0.8-23-1-32.8-10.9c-13.6-13.6-9.5-29.3-6.7-48.8c0,0-10.7-8-12.5-7.1     c-9,5.6-16.6,14.2-24.7,23.2c-12.4,11.7-16,13.5-26.1,22.3c-8.6,8.2-52.9,15.5-54.4,22.9c-0.5,0.8-0.4,9.4-0.2,10.4     C54.2,382.9,61,411.6,61.5,414.4z"/>
				<path fill="#E0121D" d="M159.8,295.4c-11.7,2.1-27.2,14.9-35.3,24.7c-4.8,5.8-14.2,17.7-16.4,24.5c-1.7,5.3-3.6,15.4,3.8,15.7     c9.8,0.3,14.2-12.1,18.7-19.8c3.2-5.6,13-13.8,18.9-14.9C163.2,323.1,167,307.7,159.8,295.4z"/>
				<path fill="#C41123" d="M389.3,387.5c-11.3-9.1-22.8-18.2-34.9-25c-6.5-3.7-13.4-6.8-20.4-7.9c-6.8-1.1-14.2,0.4-21,1.6     c-16.4,2.8-32.4,8.4-48.3,14.4c-1.8,0.7-3.6,1.4-5.4,2.1c-3.6,2.1-7.3,3.8-11.1,4.9c-1.9,0.6-3.9,1.1-5.8,1.6     c-8.8,3.2-17.8,5.8-26.9,6.4c-2.3,0.1-4.7,0.2-7,0.2c-16.4,1.8-33.3,1.3-49.2-4.7c-4.8-1.8-9.4-4.2-14.2-5.9     c-4.8-1.6-10-2.6-14.6-4.9c-0.5-0.2-1-0.5-1.5-0.8c-2.2-0.2-4.4-0.4-6.5-0.4c-13.7-0.2-27,6-39.8,12.2c-8.2,4-16.8,9.9-25.4,12.7     c1.1,8.4,3.9,18.4,4.3,20.5c0.1,0.6,0.4,1.2,1,1.8c1.3,0,33.3,6.6,33.3,6.6s10.3-0.9,15.4-1.3c69.6-5.9,139.5-4.3,209.2-4.7     c26.1-0.2,52.2-1.3,78.3-2.2c3.9-0.3,7.8-0.6,11.7-0.9c-0.5-3.5-1.6-6.7-3-9.8C401.5,397.7,395.2,392.3,389.3,387.5z"/>
				<path fill="#9B9B9A" d="M376.5,390.9c8.4,5.1,18.6,7.9,28.1,7.4c-3.6-5.9-8.2-11-12-15.3c-9.1-10.4-19.5-18.3-30.3-24.5     C359,372.7,367,385.2,376.5,390.9z"/>
				<path fill="#211F1F" d="M85.7,430.2c5.4,1,10.8,1.6,16.3,1.9c0-0.2,0-0.4,0-0.6c3.2-0.3,6.4-1.3,9.5-2.3c1.8-0.6,3.8-1.5,5.8-2.3     c2.1,2,4.7,2.8,7.5,1.4l0,0.2c4.3-1.5,8.6-3,13-4.4c0.4-0.1,0.7-0.3,1-0.5c5.8,9,17.9,1.6,15.5-12.7c-1.3-7.7-4.1-13.8-7.9-18.4     c-9.6-15-24.5-21-39.3-15.3c-8.3,3.2-15.8,11.3-19.8,22c-1.1,2.8-1.9,6.1-2.4,9.5c-0.1,0.2-0.1,0.4-0.2,0.7     c-1,3.8-1.2,7.4-0.4,10.6C84.3,423.6,84.8,427,85.7,430.2z"/>
				<path fill="#211F1F" d="M317.2,422.9c10.7-1.1,21-1.1,31.7-0.6c7.5,0.4,15.1,0.8,22.7,0.6c0.2-0.7,0.3-1.4,0.3-2.2     c-0.8-29.6-20-53.8-41.6-51.1c-20.5,2.6-34.7,27-28.9,54.5C306.7,423.8,312,423.4,317.2,422.9z"/>
				<path fill="#3A3A3A" d="M90.4,402.3c1.6-4.1,3.9-7.5,7-10.5c2.5-2.8,5.5-5.1,8.7-6.7l-0.1-0.2c0.7-0.3,1.4-0.5,2.1-0.8     c1-0.4,2-0.7,3-1c0.6-0.2,1.3-0.4,1.9-0.6c3.3-0.6,6.6-0.6,9.9,0c3.5,0.6,6.9,1.8,10,3.6l0.2,0.1c0.3,0.2,0.6,0.4,0.9,0.6     c2.3,1.4,4.3,3.1,6.2,5.2c4.4,4.8,5.4,8.2,7.7,14.3c0.2,0.6,0.4,1.3,0.7,2c0.2,0.5,0.3,1.1,0.5,1.6c1,3.6,0.6,5,0.5,10.2     c0,0.6-0.1,1.1-0.2,1.7c-1.1,8.6-5.5,16.4-12.2,21.5c-6.4,4.9-14.6,7-22.6,5.7c-8.2-1.3-15.8-6.1-20.7-13.2     c-4.8-6.8-7-15.5-5.9-23.8c0-0.3,0.1-0.7,0.1-1c0-0.1,0-0.3,0-0.4C89,407.8,89.7,405.1,90.4,402.3z"/>
				<path fill="#777777" d="M102.5,421.1l-0.1-0.2c-0.2-0.5-0.4-1-0.5-1.5l0,0c-0.1-0.3-0.2-0.6-0.2-0.8l0-0.1     c-0.2-0.7-0.3-1.5-0.4-2.2c0-0.2,0-0.4-0.1-0.6c0-0.1,0-0.3,0-0.4c0-0.3,0-0.6,0-0.9l0-0.2c0-0.4,0-0.8,0-1.2     c0.3-4.9,2.3-9.5,5.8-12.7c1.3-0.9,2.6-1.9,4-2.8c2.9-1.5,6-2.1,9.2-1.9c2.6,0.4,5.3,1.3,7.7,2.5c1.7,0.9,3.1,2.3,4.5,3.7     c2.7,2.8,3.3,5.5,4.5,9.1c0.6,3.3,0.5,6.5-0.5,9.6c-1,3.1-2.6,5.8-4.9,8c-4.7,4.5-11.6,5.9-17.7,3.7c-3-1.1-5.6-2.9-7.7-5.3     c-1.1-1.3-2-2.7-2.7-4.1l0-0.1c0-0.1-0.1-0.2-0.1-0.3c-0.1-0.2-0.1-0.3-0.2-0.4C102.7,421.5,102.6,421.3,102.5,421.1z"/>
				<path fill="#211F1F" d="M111.5,418.6c-0.1-0.3-0.2-0.6-0.3-0.8l-0.1-0.2c-0.2-0.8-0.3-1.5-0.3-2.3v0c0-0.8,0-1.6,0.2-2.3     c0.1-0.4,0.2-0.8,0.3-1.1c0-0.1,0.1-0.2,0.1-0.3c0.1-0.2,0.2-0.5,0.3-0.7l0.1-0.2l0.1-0.1c0.2-0.3,0.3-0.6,0.5-0.8     c0.1-0.1,0.1-0.2,0.2-0.3c0.2-0.2,0.3-0.4,0.5-0.6c0.1-0.1,0.2-0.2,0.3-0.3c0.2-0.2,0.3-0.3,0.5-0.5c0.1-0.1,0.2-0.2,0.3-0.2     c0.3-0.2,0.6-0.5,0.9-0.6c0.7-0.3,1.4-0.6,2.1-0.9c1.5-0.5,3-0.5,4.6-0.1c0.4,0.1,1.4,0.5,1.9,0.8c1.6,0.6,2.8,2.1,3.7,3.5     c1.4,2,1.6,4.7,1.2,7c-0.1,0.8-0.4,1.6-0.8,2.4c-0.9,1.7-1.7,2.5-3.2,3.6c-1.3,1-2.9,1.2-4.4,1.4c-0.8,0.1-1.6,0-2.4-0.3     c-0.8-0.2-1.5-0.5-2.3-0.9l0,0l-0.1-0.1c-0.3-0.2-0.5-0.3-0.8-0.5c-0.1-0.1-0.2-0.2-0.3-0.2c-0.2-0.2-0.4-0.3-0.6-0.5     c-0.1-0.1-0.2-0.2-0.3-0.3c-0.2-0.2-0.3-0.3-0.5-0.5c-0.1-0.1-0.2-0.2-0.2-0.3c-0.2-0.3-0.4-0.6-0.6-0.9c-0.2-0.3-0.4-0.7-0.5-1     C111.5,418.8,111.5,418.7,111.5,418.6z"/>
				<path fill="#3A3A3A" d="M306,417.6c-1.3-8.9,0.7-18.1,5.4-25.4c1.8-2.1,3.5-4.1,5.3-6.2c4.1-3.7,8.8-6,14-7l8.1-0.3     c5.4,0.6,10.3,2.8,14.7,6.3c6.3,5.2,10.6,13,11.9,21.5c1.3,8.9-0.7,18.1-5.4,25.3c-1.8,2.1-3.5,4.1-5.3,6.2     c-4.1,3.7-8.8,6.1-14,7l-8.1,0.3c-5.4-0.6-10.3-2.7-14.7-6.3C311.6,434,307.3,426.2,306,417.6z"/>
				<path fill="#777777" d="M318.1,415.1c-0.8-11.1,6.8-18.3,16.2-20.6c9.4-2.3,18.3,7.6,19,16.8c0.8,11.1-6.8,18.3-16.2,20.6     C327.6,434.2,318.8,424.4,318.1,415.1z"/>
				<path fill="#211F1F" d="M334.9,403.9c11.9-2.9,15.1,16.9,3.2,19.8C326.2,426.6,323,406.8,334.9,403.9z"/>
				<path fill="#211F1F" d="M906.7,349.5c0.3-1.9,1-3.6,1.8-5.2c0.4-0.9,0.9-1.5,1.5-2c4.5-9,9.5-17.5,14.6-26     c1.3-2.1,3.1-2.4,4.9-1.7c1.1-1.1,2.4-1.5,3.6-1.4c1.4-0.7,3.1-0.3,4.3,0.8c3.3-4,8.9-0.3,8.3,4.8c1.5-0.4,3.1,0.5,3.5,3.1     c0.1,0.6,0.2,1.3,0.2,1.9c0.3,1.1,0.4,2.3,0.2,3.6c0.2,14.4-6.3,32-13.6,41.1c-2.8,3.6-6.6,1.6-7.8-2.5c-2.4,0.7-4.9-0.3-5.4-4.2     c-0.2-1.4-0.2-2.7-0.3-4c-1.3-0.6-2.4-1.9-3-3.5c-0.3,0.5-0.5,1-0.8,1.5c-1.8,3.3-4.6,3.8-6.7,2.5     C908.8,358.4,905.8,354.8,906.7,349.5z"/>
				<path fill="#0051B2" d="M700,364.6c0.6-11.4,7-20.8,15.7-20.5c1.5,0.1,3.1,0.5,4.5,1.2c2.2-1.3,4.5-2.4,6.7-3.3     c2.2-0.9,4.5-1.6,6.7-2.1c4.2-0.2,8.6-1.6,13,1.3c6.2,3.5,12.4,5.9,18.7,7.3c1.6,0.4,3.1,0.7,4.7,0.9c15.4,2,32,3.5,46.6-4.9     c1.1-0.6,2.3-1.2,3.4-1.9c1.7-0.9,3.3-1.9,4.9-3.1c13-6.9,24.1-29.9,38.8-23.5c10.5,6.3,3.7,28-3.9,38.5     c-0.9,1.6-1.8,3.2-2.8,4.7c-2.9,4.5-6.4,8.6-11.1,10.8c-1.1,0.7-2.1,1.3-3.2,1.9c-1.1,0.6-2.2,1.1-3.2,1.6     c-2.2,1-4.3,1.8-6.3,2.5c-5.1,1.7-10.4,2.5-15.7,3.3c-5.8,0.9-12.8,1.9-20.6,2.8c-7.8,0.9-15.6,1.8-23.5,2.6     c-2,0.2-3.9,0.4-5.9,0.6c-11.4,0.1-23.2,2.6-35.3,2.1c-2,0-3.9,0.1-5.9,0.1c-3.9,0-7.8,0-11.8-0.2c-8-0.3-15.5-10.2-14.9-21.6     C699.9,365.3,700,364.9,700,364.6z"/>
				<path fill="#14B6EF" d="M977.4,335.9c-7.9-0.8-15.6-2.5-23.3-4.2l-0.1,0.2c-6.4-1.5-12.8-3-19.3-4.3c-5.7-1.1-11.3-2.3-17-3.5     l0.1-0.1c-5.5-1.1-12.6-2.6-15.4-6.4c-1.7-2.3-1.4-4.8,0.1-6.8c6.3-0.3,12.6-0.7,18.9-1.3c16.7-1.6,33.4-3.6,50-5.5     c3.5-0.4,7.2-0.7,11-1.1c-1.8,6.8-2.9,13.7-3.7,20.7C978.2,327.7,977.8,331.8,977.4,335.9z"/>
				<path fill="#E0121D" d="M918.1,385c-1.1,0-2.3-0.3-3.3-1C915.9,384.3,917,384.7,918.1,385z"/>
				<path fill="#211F1F" d="M602.9,427.7c-1.2-4.5-1.3-7.4-1.5-12.2c0.9-1,3.1-4.5,3.9-5.5c1.5-1.9,2.7-3.9,3.6-6.1     c6.6-3.5,18.3-8,20.7-10.2c8.4-0.2,16.7-0.3,25.1-0.4c33.2-0.3,66.3,0,99.4-0.7c66.1-1.5,197.9,1.7,198.1,1.7l0.1,5.7     c0.3,8.7-2.2,15.7-4.2,22.9c-0.8,3.2-25.2,15.4-33.8,14.7c-4.1-0.3-11.1,0.7-17.7,0.3c-39.3-2.9-76.6-9-116-8.8     c-29.5,0.2-57.5,1.5-88.4,3.8c-25.7,1.9-51.6,2.3-77.3,1.8c-2.3-0.2-5.3-0.3-7.8-0.5c-0.7,0-2.8-2.6-3.2-3.7     C603.5,429.6,603.2,428.7,602.9,427.7z"/>
				<path fill="#14B6EF" d="M950.4,412c-0.1,0.6-0.4,1.2-0.9,1.8c-1.3,0-33.3,7-33.3,7s-10.3-0.8-15.4-1.1     c-69.6-5-139.6-2.6-209.3-2.2c-26.1,0.2-52.2-0.7-78.3-1.2c-3.9-0.3-7.8-0.5-11.8-0.8c1.6-12.7,11-23.1,17.6-30.8     c9.6-11.3,20.8-19.8,32.5-26.3c24.5-13.6,51.1-19.1,77.3-21.4c5.1-0.1,10.3,0.1,15.4,0.4c5.3,0.3,12.4,9.6,17.3,12.9     c11.8,8.1,24.8,12.5,38.1,11.5c11.6-0.9,23-1.3,32.7-11.3c13.4-13.8,9.2-29.4,6.2-48.9c0,0,10.6-8.1,12.4-7.3     c9.1,5.5,16.7,14,25,22.9c12.5,11.5,16.1,13.3,26.4,22c8.7,8.1,53,14.9,54.6,22.2c0.5,0.8,0.5,9.4,0.3,10.4     C957.4,380.4,950.8,409.2,950.4,412z"/>
				<path fill="#14B6EF" d="M850.8,294.2c11.7,2,27.3,14.5,35.5,24.2c4.8,5.7,14.4,17.5,16.7,24.3c1.7,5.3,3.7,15.4-3.7,15.7     c-9.8,0.4-14.4-11.9-18.9-19.6c-3.3-5.5-13.2-13.6-19.1-14.6C847.7,322,843.7,306.6,850.8,294.2z"/>
				<path fill="#1B8EED" d="M622.3,389.1c11.2-9.2,22.6-18.4,34.6-25.4c6.5-3.8,13.3-6.9,20.3-8.2c6.8-1.2,14.2,0.3,21,1.4     c16.4,2.6,32.5,8,48.5,13.8c1.8,0.6,3.6,1.3,5.4,2c3.7,2,7.4,3.7,11.2,4.8c1.9,0.6,3.9,1.1,5.8,1.6c8.9,3.1,17.8,5.6,26.9,6     c2.3,0.1,4.7,0.1,7,0.1c16.4,1.6,33.4,0.9,49.2-5.3c4.7-1.9,9.4-4.3,14.1-6.1c4.8-1.7,9.9-2.7,14.6-5.1c0.5-0.3,1-0.5,1.5-0.8     c2.2-0.3,4.3-0.4,6.5-0.5c13.7-0.4,27.1,5.6,39.9,11.7c8.2,3.9,16.9,9.6,25.6,12.4c-1,8.4-3.7,18.4-4.1,20.5     c-0.1,0.6-0.4,1.2-0.9,1.8c-1.3,0-33.3,7-33.3,7s-10.3-0.8-15.4-1.1c-69.6-5-139.6-2.6-209.3-2.2c-26.1,0.2-52.2-0.7-78.3-1.2     c-3.9-0.3-7.8-0.5-11.8-0.8c0.5-3.5,1.5-6.8,2.9-9.9C610.2,399.4,616.4,394,622.3,389.1z"/>
				<path fill="#9B9B9A" d="M635.1,392.4c-8.4,5.2-18.5,8.1-28,7.7c3.6-5.9,8.1-11.1,11.8-15.4c8.9-10.5,19.3-18.5,30-24.8     C652.4,373.9,644.6,386.6,635.1,392.4z"/>
				<path fill="#211F1F" d="M926.4,428.1c-5.4,1.1-10.8,1.7-16.2,2.1c0-0.2,0-0.4,0-0.6c-3.2-0.3-6.4-1.2-9.5-2.1     c-1.9-0.6-3.8-1.4-5.8-2.2c-2,2.1-4.6,2.9-7.5,1.5l0,0.2c-4.3-1.4-8.7-2.9-13-4.3c-0.4-0.1-0.7-0.3-1-0.5     c-5.7,9.1-17.9,1.8-15.6-12.5c1.2-7.7,4-13.8,7.7-18.5c9.5-15.1,24.3-21.3,39.2-15.8c8.4,3.1,15.9,11.1,20.1,21.8     c1.1,2.8,1.9,6.1,2.5,9.5c0.1,0.2,0.2,0.4,0.2,0.7c1.1,3.7,1.2,7.4,0.5,10.6C927.7,421.5,927.2,424.9,926.4,428.1z"/>
				<path fill="#211F1F" d="M694.7,423.6c-10.7-1-21-0.8-31.7-0.2c-7.5,0.5-15.1,0.9-22.7,0.9c-0.2-0.7-0.3-1.4-0.3-2.2     c0.4-29.6,19.4-54.1,41.1-51.6c20.5,2.4,35,26.6,29.4,54.2C705.3,424.4,700,424.1,694.7,423.6z"/>
				<path fill="#3A3A3A" d="M921.3,400.2c-1.7-4-4-7.5-7.1-10.4c-2.6-2.8-5.5-5-8.8-6.6l0-0.2c-0.7-0.3-1.4-0.5-2.2-0.7     c-1-0.4-2-0.7-3-1c-0.6-0.2-1.3-0.4-1.9-0.6c-3.3-0.6-6.6-0.5-9.9,0.1c-3.5,0.6-6.9,1.9-10,3.8l-0.2,0.1     c-0.3,0.2-0.6,0.4-0.9,0.6c-2.2,1.4-4.3,3.2-6.2,5.3c-4.4,4.9-5.4,8.3-7.5,14.4c-0.2,0.6-0.4,1.3-0.6,2c-0.2,0.5-0.3,1.1-0.5,1.6     c-1,3.6-0.6,5.1-0.4,10.2c0,0.6,0.1,1.1,0.2,1.7c1.2,8.6,5.7,16.4,12.4,21.3c6.5,4.8,14.7,6.8,22.6,5.4     c8.2-1.4,15.7-6.3,20.6-13.4c4.7-6.9,6.8-15.5,5.6-23.8c0-0.3-0.1-0.7-0.1-1c0-0.1,0-0.3-0.1-0.4     C922.8,405.8,922.1,403,921.3,400.2z"/>
				<path fill="#777777" d="M909.4,419.2l0.1-0.2c0.2-0.5,0.3-1,0.5-1.5l0,0c0.1-0.3,0.2-0.6,0.2-0.8l0-0.1c0.2-0.7,0.3-1.5,0.4-2.3     c0-0.2,0-0.4,0.1-0.6c0-0.1,0-0.3,0-0.4c0-0.3,0-0.6,0-0.9l0-0.2c0-0.4,0-0.8,0-1.2c-0.3-4.9-2.4-9.5-5.9-12.7     c-1.3-0.9-2.7-1.8-4-2.8c-2.9-1.5-6-2-9.2-1.8c-2.6,0.4-5.2,1.4-7.7,2.6c-1.7,0.9-3.1,2.3-4.5,3.8c-2.7,2.8-3.2,5.5-4.4,9.2     c-0.6,3.3-0.4,6.5,0.6,9.6c1,3.1,2.7,5.8,5,8c4.8,4.4,11.6,5.8,17.7,3.5c3-1.1,5.6-2.9,7.7-5.4c1.1-1.3,2-2.7,2.7-4.2l0-0.1     c0-0.1,0.1-0.2,0.1-0.3c0.1-0.2,0.1-0.3,0.2-0.4C909.2,419.6,909.3,419.4,909.4,419.2z"/>
				<path fill="#211F1F" d="M900.5,416.8c0.1-0.3,0.2-0.6,0.3-0.8l0.1-0.2c0.2-0.8,0.3-1.5,0.3-2.3v0c0-0.8,0-1.6-0.2-2.3     c-0.1-0.4-0.2-0.8-0.3-1.1l-0.1-0.3c-0.1-0.2-0.2-0.5-0.3-0.7l-0.1-0.2l-0.1-0.1c-0.2-0.3-0.3-0.6-0.5-0.8     c-0.1-0.1-0.2-0.2-0.2-0.3c-0.2-0.2-0.3-0.4-0.5-0.6c-0.1-0.1-0.2-0.2-0.3-0.3c-0.2-0.2-0.3-0.3-0.5-0.5     c-0.1-0.1-0.2-0.2-0.3-0.2c-0.3-0.2-0.6-0.4-0.9-0.6c-0.7-0.3-1.4-0.6-2.1-0.9c-1.5-0.4-3.1-0.4-4.6,0c-0.4,0.1-1.3,0.5-1.9,0.8     c-1.6,0.7-2.7,2.1-3.7,3.5c-1.4,2.1-1.5,4.7-1.1,7c0.1,0.8,0.4,1.6,0.8,2.4c0.9,1.7,1.7,2.5,3.2,3.5c1.3,1,2.9,1.1,4.4,1.3     c0.8,0.1,1.6,0,2.4-0.3c0.8-0.2,1.5-0.6,2.3-1v0l0.1-0.1c0.3-0.2,0.5-0.3,0.8-0.5c0.1-0.1,0.2-0.2,0.3-0.3     c0.2-0.2,0.4-0.3,0.6-0.5c0.1-0.1,0.2-0.2,0.3-0.3c0.2-0.2,0.3-0.4,0.5-0.5c0.1-0.1,0.2-0.2,0.2-0.3c0.2-0.3,0.4-0.6,0.6-0.9     c0.2-0.3,0.3-0.7,0.5-1C900.4,417,900.4,416.9,900.5,416.8z"/>
				<path fill="#3A3A3A" d="M705.9,418.2c1.2-8.9-0.9-18.1-5.7-25.3c-1.8-2-3.6-4.1-5.4-6.1c-4.2-3.7-8.9-5.9-14.1-6.9l-8.1-0.2     c-5.4,0.7-10.3,2.9-14.6,6.5c-6.2,5.2-10.5,13.1-11.7,21.7c-1.2,8.9,0.9,18.1,5.7,25.3c1.8,2.1,3.6,4.1,5.4,6.1     c4.2,3.7,8.9,5.9,14.1,6.9l8.1,0.2c5.4-0.7,10.3-2.9,14.6-6.5C700.5,434.7,704.7,426.8,705.9,418.2z"/>
				<path fill="#777777" d="M693.8,415.8c0.7-11.2-7-18.3-16.4-20.4c-9.5-2.2-18.2,7.8-18.8,17.1c-0.7,11.2,7,18.3,16.4,20.4     C684.5,435.1,693.2,425.1,693.8,415.8z"/>
				<path fill="#211F1F" d="M676.8,404.9c-12-2.7-14.9,17.1-3,19.8C685.9,427.4,688.8,407.6,676.8,404.9z"/>
			</g>
			<path fill="#FFFFFF" d="M164.9,367.5c0,31.4,16.9,59.7,56.9,59.3c31.4-0.3,56.9-25.5,56.9-56.9c0-11.8-0.9-20.4-6.6-29.5    c-9.5-15.1-28.3-27.5-48-27.5C192.8,312.9,164.9,336,164.9,367.5z"/>
			<g>
				<path fill="#FFFFFF" d="M733.9,367.5c0,31.4,16.9,59.7,56.9,59.3c31.4-0.3,56.9-25.5,56.9-56.9c0-11.8-0.9-20.4-6.6-29.5     c-9.5-15.1-28.3-27.5-48-27.5C761.8,312.9,733.9,336,733.9,367.5z"/>
			</g>
		</g>
	</g>
</svg>
