<?xml version='1.0' encoding='UTF-8'?>
<svg xmlns="http://www.w3.org/2000/svg" xmlns:xlink="http://www.w3.org/1999/xlink" width="144" height="166"><g id="blueSquirrel">
		<g>
			<g>
				<path fill="#00A1F2" d="M30.9,150.3c-2.4-3.5-5.5-6.0-8.8-8.5c-0.8-0.6-1.8-1.6-2.9-2.4c0.1-0.3,0.2-0.5,0.3-0.8c0.2,0.0,0.3-0.2,0.1-0.6c0.0-0.0,0.0-0.0,0.0-0.0c1.1-0.5,1.7-1.9,1.7-3.0c0.0-1.6-1.0-3.0-2.5-3.5c-2.9-0.9-5.2,2.1-4.3,4.7c-0.1,0.6-0.2,1.2-0.2,1.9c-0.4-0.0-0.8,0.0-1.2,0.2c-0.1,0.0-0.2,0.1-0.3,0.1c-0.1-0.3-0.2-0.5-0.5-0.7c-0.1-0.1-0.2-0.2-0.2-0.2c-0.0-0.0-0.0-0.0-0.0-0.0c0.0-0.0,0.0-0.1,0.0-0.1c0.9-2.0-0.5-4.6-2.9-4.8c-1.5-0.1-2.9,0.9-3.4,2.3c-0.2,0.6-0.2,1.2-0.1,1.8c0.2,0.9,0.7,1.5,1.3,2.0c0.2,0.2,0.3,0.4,0.5,0.6c0.0,0.0,0.0,0.0,0.0,0.0c0.5,0.8,0.9,1.3,1.6,1.9c0.2,0.2,0.4,0.3,0.6,0.4c-0.2,0.4-0.2,0.9-0.3,1.3c-0.4-0.1-0.8-0.1-1.2-0.1c-0.5-0.7-1.1-1.2-2.1-1.4c-2.0-0.5-4.1,0.8-4.5,2.8c-0.4,1.6,0.4,3.4,1.9,4.2c0.9,0.5,2.0,0.6,2.9,0.3c0.6-0.2,1.0-0.5,1.4-0.9c0.9-0.1,1.8-0.4,2.6-0.9c0.9,1.6,2.3,2.9,3.6,4.1c4.1,3.5,10.1,7.0,15.5,4.6C31.5,154.6,32.0,151.9,30.9,150.3z"/>
			</g>
		</g>
		<g>
			<g>
				<g>
					<path fill="#00B7FF" d="M77.1,108.4c3.1-4.4,6.8-8.3,10.7-11.7c-0.5,0.4-0.9,0.8-1.4,1.2c3.9-3.4,7.9-6.5,12.3-8.9c2.0-1.1,4.1-2.1,6.2-2.9c1.3-0.5,2.6-0.9,3.9-1.3c0.5-0.2,4.9-1.2,1.2-0.3c10.4-2.4,21.5-1.3,28.6,6.8c2.3,2.6,5.1,7.5,0.4,10.4c-4.2,2.6-13.6,4.3-14.4,8.0c-3.4,15.7-4.5,32.7-15.9,44.9c-12.7,13.5-31.3,12.4-38.9-3.0c1.3,2.7-0.7-1.5-0.9-2.1c-0.6-1.5-0.9-3.1-1.2-4.7c-0.8-4.4-0.9-9.1-0.1-13.7C68.9,122.9,72.4,115.1,77.1,108.4C80.2,104.0,75.5,110.7,77.1,108.4z"/>
				</g>
				<g>
					<path fill="#DD812F" d="M123.4,83.5c-0.1-0.0-0.1-0.0-0.2-0.0c-0.1-0.0-0.1-0.0-0.2-0.0C123.2,83.4,123.3,83.4,123.4,83.5z"/>
				</g>
				<g>
					<path fill="#DD812F" d="M123.4,83.5c0.3,0.0,0.7,0.1,1.0,0.2C124.1,83.6,123.8,83.5,123.4,83.5z"/>
				</g>
				<g>
					<path fill="#DD812F" d="M69.6,122.9c0.2-0.6,0.4-1.2,0.7-1.8c-0.1,0.2-0.1,0.4-0.2,0.6C69.9,122.1,69.7,122.5,69.6,122.9z"/>
				</g>
			</g>
			<g>
				<g>
					<path fill="#FFA143" d="M111.3,84.1c-0.5,0.1-0.9,0.2-1.4,0.3C111.4,84.1,111.6,84.0,111.3,84.1z"/>
				</g>
				<g>
					<path fill="#66E9FF" d="M124.5,109.6c-0.8,3.6-1.5,7.4-2.2,11.1c-2.7-2.3-6.0-3.9-9.2-5.4c-2.3-1.0-4.5-1.9-6.8-3.0c-1.0-0.5-2.1-1.0-3.0-1.6c-0.3-0.1-0.5-0.3-0.8-0.5c-0.1-0.0-0.1-0.1-0.2-0.1c-0.0-0.0-0.1-0.0-0.1-0.1c-0.6-0.4-1.1-0.8-1.6-1.3c-0.6-0.5-1.1-1.0-1.6-1.5c-0.2-0.2-0.5-0.5-0.7-0.8c-0.0-0.0-0.0-0.0-0.0-0.1c-0.1-0.1-0.2-0.2-0.3-0.4c-0.9-1.1-1.6-2.3-2.3-3.6c-0.1-0.2-0.2-0.4-0.3-0.6c-0.0-0.0-0.0-0.1-0.1-0.1c-0.1-0.3-0.2-0.5-0.3-0.8c-0.2-0.6-0.5-1.3-0.6-1.9c-0.1-0.4-0.2-0.8-0.3-1.2c-0.0-0.2-0.1-0.8-0.1-0.8c-0.1-0.6-0.1-1.1-0.2-1.7c-0.0-0.7-0.0-1.5,0.0-2.2c0.0-0.0-0.0-0.1,0.0-0.1c0.0-0.1,0.0-0.2,0.0-0.3c0.0-0.3,0.1-0.5,0.1-0.8c1.5-1.1,3.1-2.1,4.8-3.0c2.0-1.1,4.1-2.1,6.2-2.9c1.3-0.5,2.6-0.9,3.9-1.3c0.3-0.1,2.0-0.5,2.5-0.6c10.0-2.0,20.4-0.6,27.3,7.1c2.3,2.6,5.1,7.5,0.4,10.4C134.7,104.3,125.3,106.0,124.5,109.6z"/>
				</g>
				<g>
					<path fill="#FFA143" d="M87.8,96.7c-0.2,0.1-0.3,0.3-0.5,0.4c-0.3,0.3-0.6,0.5-0.9,0.8C86.9,97.5,87.3,97.1,87.8,96.7z"/>
				</g>
				<g>
					<path fill="#FFA143" d="M69.7,151.4c0.1,0.3,0.3,0.6,0.4,0.8C70.2,152.5,70.1,152.3,69.7,151.4z"/>
				</g>
				<g>
					<path fill="#FFA143" d="M123.4,83.5c-0.1-0.0-0.1-0.0-0.2-0.0c-0.1-0.0-0.1-0.0-0.2-0.0C123.2,83.4,123.3,83.4,123.4,83.5z"/>
				</g>
				<g>
					<path fill="#FFA143" d="M123.4,83.5c0.3,0.0,0.7,0.1,1.0,0.2C124.1,83.6,123.8,83.5,123.4,83.5z"/>
				</g>
				<g>
					<path fill="#FFA143" d="M69.6,122.9c0.2-0.6,0.4-1.2,0.7-1.8c-0.1,0.2-0.1,0.4-0.2,0.6C69.9,122.1,69.7,122.5,69.6,122.9z"/>
				</g>
			</g>
		</g>
		<g>
			<path fill="#008CE2" d="M4.6,107.7c1.5-1.1,3.3-1.2,5.0-0.8c-0.0-0.1-0.1-0.1-0.1-0.2c-0.1-0.1-0.1-0.2-0.2-0.3c-0.0-0.0-0.0-0.1-0.0-0.1c-0.0-0.0-0.1-0.1-0.1-0.1c-0.3-0.3-0.6-0.6-0.9-0.8c-0.9-0.8-0.8-2.4,0.0-3.2c0.9-0.9,2.2-0.8,3.2,0.0c0.8,0.6,1.4,1.4,1.9,2.2c0.7-0.6,1.3-1.2,2.3-1.9c0.4-0.3,0.9-0.6,1.4-0.9c1.4-0.8,2.8-1.6,4.3-2.2c3.2-1.3,6.3-2.2,9.5-2.4c2.4-0.2,3.7,2.0,3.0,4.1c-0.6,1.8-2.4,3.5-4.4,4.0c-2.9,0.7-5.8,2.0-8.6,3.4c-1.4,0.8-2.7,1.7-4.2,2.4c0.1,0.1,0.1,0.2,0.1,0.4c0.3,1.4,0.3,2.8,0.0,4.3c-0.3,1.2-1.6,1.9-2.7,1.6c-1.2-0.3-1.8-1.6-1.6-2.7c0.0-0.2,0.1-0.3,0.1-0.5c-0.0,0.0,0.0-0.3,0.0-0.4c0.0-0.2-0.0-0.3-0.0-0.5c0.0,0.3-0.1-0.4-0.1-0.5c-0.0-0.0-0.0-0.1-0.0-0.1c-0.1,0.1-0.1,0.1-0.1,0.1c-0.3,0.2-0.5,0.5-0.8,0.8c-0.0,0.0-0.3,0.4-0.4,0.5c-0.2,0.2-0.3,0.5-0.4,0.7c-0.6,1.1-2.0,1.4-3.1,0.8c-1.1-0.6-1.4-2.0-0.8-3.1c0.2-0.3,0.3-0.6,0.5-0.9c-0.2,0.1-0.4,0.2-0.5,0.3c-1.0,0.7-2.5,0.2-3.1-0.8C3.2,109.6,3.6,108.4,4.6,107.7z"/>
		</g>
		<g>
			<path fill="#15C2FF" d="M18.8,112.8c2.9-8.8,9.2-16.2,15.6-22.7c5.3-5.4,10.9-11.1,17.3-15.3c3.9-2.6,7.9-4.6,12.6-5.5c5.2-1.0,10.1,0.2,14.6,2.6c2.5,1.3,3.4,4.9,2.7,7.5c0.0,1.6-0.1,3.2-0.0,4.8c0.1,3.8,0.3,7.5,0.4,11.3c0.1,7.1,0.2,14.3,0.1,21.4c-0.1,6.5-0.3,12.9-1.6,19.3c-1.2,6.1-3.1,12.8-8.3,16.7c-4.9,3.6-10.6,4.4-16.5,4.6c-5.0,0.2-10.0-0.1-14.9-1.2c-9.4-2.1-17.7-8.3-21.4-17.3C15.8,130.6,15.9,121.2,18.8,112.8z"/>
		</g>
		<g>
			<path fill="#66D0FF" d="M40.6,156.2c4.1,0.9,8.3,1.3,12.5,1.2c0.6-0.5,1.2-1.0,1.8-1.5c4.8-5.0,4.0-10.9,2.3-17.1c-1.9-6.6-4.0-13.3-4.9-20.1c-0.8-6.1-0.5-11.9-0.3-18.0c0.1-4.0-0.2-8.7-4.3-10.7c-3.6-1.8-8.1-2.2-12.1-1.3c-0.4,0.4-0.9,0.9-1.3,1.3c-6.4,6.5-12.6,13.9-15.6,22.7c-2.8,8.4-3.0,17.9,0.4,26.1C22.9,147.9,31.2,154.1,40.6,156.2z"/>
		</g>
		<g>
			<g>
				<path fill="#00B3F9" d="M28.7,9.7c-7.3,13.0-7.7,31.8-2.1,45.5c2.6,6.2,12.2,3.5,11.2-3.1c-0.3-2.2-0.6-4.6-0.8-7.0c3.4,2.4,8.5-0.6,9.8-4.4c3.2-10.1,0.0-24.1-6.5-32.2C37.3,4.8,30.9,5.8,28.7,9.7z"/>
			</g>
			<g>
				<path fill="#008CE2" d="M27.0,25.7c1.1-1.8,3.6-2.7,5.3-1.1c3.8,3.6,4.6,12.1,1.2,16.3c-1.3,1.6-3.4,2.4-5.3,1.1c-0.8-0.5-1.5-1.5-1.7-2.5C24.9,35.4,24.9,29.4,27.0,25.7z"/>
			</g>
			<g>
				<path fill="#15C2FF" d="M84.8,18.1c-12.9,4.5-22.3,19.2-24.3,32.4c-0.9,5.6,7.5,9.8,10.8,4.4c0.4-0.6,0.7-1.2,1.1-2.0c-0.8,5.3,6.5,10.1,10.7,6.0c8.5-8.4,13.8-23.3,10.6-35.2C92.8,20.2,88.8,16.7,84.8,18.1z"/>
			</g>
			<g>
				<path fill="#008CE2" d="M72.9,53.7c-0.2-0.5-0.2-1.2-0.2-1.7c0.1-0.9,0.3-1.8,0.6-2.6c0.5-1.6,1.1-3.2,1.9-4.8c1.9-3.9,6.5-10.0,11.4-8.6c1.6,0.4,2.4,1.9,2.5,3.5c0.6,7.2-5.1,13.6-9.8,18.4c-1.5,1.5-3.5,2.1-5.3,0.8C72.6,57.5,71.9,55.2,72.9,53.7z"/>
			</g>
			<g>
				<path fill="#15C2FF" d="M3.7,75.6c1.9,2.5,5.1,4.8,8.9,6.2c3.4,1.3,6.9,2.1,10.6,2.8c6.6,1.2,13.4,2.1,20.2,2.5c3.3,0.2,6.6,0.2,9.9,0.1c3.8-0.1,7.6-0.3,11.2-1.0c6.9-1.3,13.9-3.8,16.9-8.3c6.7-17.0-4.3-40.1-23.5-47.3c-20.9-4.5-44.1,10.2-54.1,29.9C1.4,65.2,0.1,70.7,3.7,75.6z"/>
			</g>
			<g>
				<path fill="#00A1F2" d="M15.7,48.5C16.0,59.0,27.0,63.0,35.6,64.7c2.3,0.6,4.6,1.2,6.9,1.7c9.3,2.1,18.9,3.2,27.6-1.6c2.1-1.6,3.9-3.7,5.0-6.5C78.0,50.0,73.0,38.0,65.0,38.0c-15.0,0.0-33.0-6.0-46.1,6.4C17.7,45.6,16.6,47.0,15.7,48.5z"/>
			</g>
			<g>
				<path fill="#231051" d="M23.4,70.8c-1.6-0.7-4.1-1.3-6.3-1.6c-4.5-0.6-8.1,0.1-10.8,1.6c-0.7,0.4-0.9,0.8-0.9,1.3c-1.3,2.4,2.6,4.8,6.8,6.3c2.4,0.9,5.3,1.3,8.4,1.2c3.5-0.1,5.8-1.1,7.5-2.3C31.2,75.1,27.0,72.3,23.4,70.8z"/>
			</g>
			<g>
				<g>
					<path fill="#FFFFFF" d="M64.5,42.3c5.3,2.9,7.6,9.6,4.8,15.0c-2.8,5.3-9.7,7.6-15.0,4.8c-5.3-2.9-7.6-9.6-4.8-15.0C52.3,41.7,59.2,39.4,64.5,42.3z"/>
				</g>
				<g>
					<path fill="#231051" d="M56.3,47.8c2.3,1.2,3.3,4.1,2.1,6.5c-1.2,2.3-4.2,3.3-6.5,2.1c-2.3-1.3-3.3-4.2-2.1-6.5C51.0,47.5,54.0,46.5,56.3,47.8z"/>
				</g>
			</g>
			<g>
				<g>
					<path fill="#FFFFFF" d="M31.5,40.7c5.1,0.2,9.3,4.2,9.2,9.0c-0.1,4.7-4.5,8.7-9.6,8.5c-5.1-0.2-9.3-4.2-9.2-9.0C22.0,44.5,26.4,40.5,31.5,40.7z"/>
				</g>
				<g>
					<path fill="#231051" d="M27.3,44.7c2.1,0.1,3.9,1.9,3.8,4.0c-0.1,2.1-1.9,3.9-4.0,3.8c-2.1-0.1-3.9-1.9-3.8-4.0C23.3,46.4,25.2,44.6,27.3,44.7z"/>
				</g>
			</g>
			<g>
				<path fill="#66D0FF" d="M81.2,15.2c-0.4-1.5,1.4-2.7,2.7-2.1c1.0,0.4,1.8,1.2,2.3,2.2c0.2-0.8,0.5-1.6,0.8-2.4c0.5-1.2,2.0-1.8,3.2-1.3c1.3,0.5,1.7,1.9,1.3,3.2c-0.4,1.2-0.8,2.5-1.5,3.6c0.8-1.2,2.3-2.0,3.6-2.4c1.1-0.4,1.9-0.3,2.9,0.2c1.0,0.6,1.6,2.0,1.0,3.1c-1.1,1.7-1.8,1.8-3.3,2.4c-0.9,0.4-2.0,0.6-3.0,0.5c-1.2-0.1-1.7-1.2-1.7-2.2c0.0-0.5,0.1-0.9,0.3-1.3c-0.5,0.8-1.1,1.6-1.8,2.2c-0.6,0.5-1.6,0.3-2.1-0.3c-0.9,0.3-1.9,0.0-2.5-1.1c-0.3-0.7-0.8-1.4-1.3-2.1C81.7,16.7,81.4,16.1,81.2,15.2z"/>
			</g>
		</g>
		<g>
			<g>
				<path fill="#00A1F2" d="M52.6,159.2c-0.2-4.2,0.9-8.1,2.0-12.1c0.3-1.0,0.5-2.4,0.9-3.7c-0.2-0.1-0.5-0.3-0.7-0.5c-0.2,0.2-0.3,0.0-0.5-0.4c-0.0-0.0-0.0-0.0-0.0-0.0c-1.1,0.2-2.5-0.5-3.2-1.3c-1.0-1.2-1.0-3.0-0.1-4.3c1.8-2.4,5.4-1.5,6.2,1.2c0.5,0.4,0.9,0.8,1.3,1.4c0.3-0.2,0.6-0.4,1.0-0.6c0.1-0.0,0.2-0.0,0.3-0.1c-0.1-0.3-0.1-0.6-0.1-0.9c0.0-0.1,0.0-0.2,0.0-0.3c-0.0-0.0-0.0-0.0-0.0-0.0c-0.0-0.0-0.0-0.0-0.1-0.1c-2.0-1.1-2.4-4.0-0.6-5.5c1.1-1.0,2.9-1.1,4.1-0.2c0.5,0.3,0.9,0.8,1.1,1.3c0.4,0.8,0.4,1.6,0.1,2.4c0.0,0.3-0.0,0.5-0.0,0.8c-0.0,0.0-0.0,0.0-0.0,0.0c0.1,0.9,0.0,1.6-0.1,2.5c-0.1,0.2-0.1,0.5-0.3,0.6c0.4,0.2,0.7,0.5,1.0,0.9c0.3-0.3,0.5-0.6,0.9-0.8c-0.0-0.8,0.2-1.6,0.8-2.4c1.3-1.6,3.8-1.8,5.3-0.4c1.3,1.1,1.7,2.9,1.0,4.5c-0.4,0.9-1.2,1.6-2.2,2.0c-0.6,0.2-1.1,0.2-1.7,0.2c-0.8,0.4-1.7,0.8-2.6,0.8c0.2,1.8-0.1,3.7-0.4,5.4c-1.1,5.3-3.9,11.6-9.6,12.9C54.7,163.0,52.6,161.0,52.6,159.2z"/>
			</g>
			<g>
				<g>
					<path fill="#008CE2" d="M60.9,146.3c0.1,0.0,0.2,0.0,0.2,0.0C61.0,146.3,61.0,146.3,60.9,146.3z"/>
				</g>
			</g>
		</g>
		<g>
			<g>
				<path fill="#231051" d="M53.8,75.8c-1.0,0.4-0.9,0.3,0.3-0.2c1.4-0.4,3.1-0.5,4.5-0.4c1.4,0.0,2.7,0.1,4.1-0.0c0.6-0.1,2.0-0.4,2.0-0.3c1.2-0.5,2.0-1.3,3.4-1.5c3.1-0.4,6.8,1.8,6.3,5.4c-0.7,5.0-5.5,7.0-10.0,7.2c-4.7,0.1-10.0-0.8-12.6-5.1C50.5,78.7,51.7,76.6,53.8,75.8z"/>
			</g>
			<g>
				<path fill="#231F20" d="M59.7,80.6c3.4-1.9,10.5-3.6,13.2,0.3c0.1,0.2,0.3,0.4,0.5,0.6c-1.8,3.0-5.5,4.3-9.1,4.4c-2.7,0.1-5.7-0.2-8.2-1.3C56.8,83.0,58.0,81.6,59.7,80.6z"/>
			</g>
			<g>
				<path fill="#FFFF8D" d="M59.8,79.1c-0.8,1.5-2.8,1.9-3.5,0.1c-0.5-1.2-0.7-2.6-0.8-4.0c1.0-0.1,2.1-0.2,3.1-0.1c0.7,0.0,1.4,0.0,2.1,0.1C60.6,76.6,60.4,78.0,59.8,79.1z"/>
			</g>
			<g>
				<path fill="#FFFF8D" d="M63.0,76.5c0.1-0.5,0.1-0.9,0.1-1.4c0.7-0.1,1.5-0.3,1.5-0.3c1.2-0.5,2.0-1.3,3.4-1.5c0.2-0.0,0.4-0.0,0.7-0.0c0.5,2.4,0.8,5.4-1.0,6.6C65.5,81.3,63.6,78.4,63.0,76.5z"/>
			</g>
		</g>
		<g>
			<path fill="#008CE2" d="M74.3,100.9c4.7,5.2,8.9,11.0,9.6,18.2c1.8-0.5,3.7-0.4,5.3,0.7c1.0,0.7,1.5,1.9,0.8,3.1c-0.6,1.0-2.1,1.5-3.1,0.8c-0.9-0.6-1.8-0.5-2.7-0.0c0.6,1.3,1.0,2.8,1.0,4.2c0.1,2.9-4.4,2.9-4.5,0.0c0.0-0.1-0.0-0.2-0.0-0.4c-0.0-0.0-0.0-0.1-0.0-0.2c-0.1-0.5-0.2-0.9-0.4-1.3c-0.2-0.5-0.4-1.0-0.7-1.3c-0.5,1.0-1.0,2.0-1.7,2.9c-0.7,1.0-1.9,1.5-3.1,0.8c-1.0-0.6-1.5-2.1-0.8-3.1c0.5-0.7,1.0-1.6,1.4-2.4h-0.0c-0.0-0.0-0.1-0.0-0.2-0.1c0.3,0.2,0.0,0.0-0.2-0.0c-0.0,0.0-0.3-0.0-0.4-0.0c-0.0,0.0-0.1,0.0-0.2,0.0c-0.2,0.0-0.3,0.1-0.5,0.2c-1.1,0.4-2.4-0.5-2.7-1.6c-0.3-1.2,0.4-2.3,1.6-2.7c0.8-0.3,1.6-0.4,2.4-0.3c-0.7-4.4-4.1-8.4-7.0-11.6C64.7,102.9,70.6,96.9,74.3,100.9z"/>
		</g>
		<g>
			<path fill="#66D0FF" d="M26.6,6.8c0.4-0.6,1.3-1.2,2.1-0.9c0.9,0.4,1.8,0.9,2.6,1.5c0.0,0.0,0.1,0.0,0.1,0.1c-0.5-1.1-1.0-2.2-1.2-3.3c-0.3-1.8,1.7-2.8,2.9-1.9c-0.0-0.0,0.0,0.0,0.1,0.1c0.1,0.0,0.1,0.1,0.2,0.1c0.0,0.0,0.1,0.1,0.1,0.1c0.0,0.0,0.0,0.0,0.0,0.0c0.1,0.1,0.1,0.2,0.2,0.3c0.0,0.0,0.0,0.0,0.0,0.0c0.0,0.0,0.0,0.0,0.0,0.0c-0.0,0.0-0.0,0.0-0.0-0.0c0.1,0.1,0.1,0.3,0.2,0.4c0.2,0.4,0.3,0.8,0.4,1.2c0.2,0.6,0.4,1.2,0.6,1.7c0.1-0.8,0.3-1.6,0.6-2.4c0.5-1.4,1.9-2.4,3.4-1.6c2.6,1.4,0.3,5.3-0.9,6.9c-0.8,1.1-2.4,0.8-2.9-0.3c-0.2,0.3-0.4,0.5-0.7,0.7c-0.7,0.4-1.6,0.2-2.2-0.3c-0.0,0.0,0.0,0.0-0.0,0.0c-0.2,0.9-1.1,1.6-2.0,1.5c-1.2-0.2-2.4-0.9-3.4-1.7C26.3,8.4,26.2,7.5,26.6,6.8z"/>
		</g>
	</g>
</svg>
