<?xml version='1.0' encoding='UTF-8'?>
<svg xmlns="http://www.w3.org/2000/svg" xmlns:xlink="http://www.w3.org/1999/xlink" version="1.1" x="0px" y="0px" width="86px" height="68px" viewBox="0 0 86 68" enable-background="new 0 0 86 68" xml:space="preserve"><g id="blueButterfly5">
		<path fill="#0098FF" d="M74.3,6.2c-7.1-2.9-14.3,4.2-18.2,9.1c-4.6,5.9-8.9,14.8-6.9,22.5c-1.3,2.3-0.1,5.3,3.0,5.5c5.2,0.4,10.8-2.1,15.5-4.0c5.2-2.0,10.5-5.3,13.8-9.9C87.2,21.7,82.9,9.8,74.3,6.2z"/>
		<path fill="#0098FF" d="M78.3,51.0c-0.3-14.8-19.3-13.5-28.2-7.5c-2.0,1.3-1.8,3.6-0.6,4.9c0.4,4.1,7.8,8.6,10.5,10.6c3.0,2.3,6.9,5.0,10.9,4.5C77.3,63.0,78.4,56.2,78.3,51.0z"/>
		<path fill="#0098FF" d="M7.5,38.9c4.8,2.9,11.0,3.9,16.6,3.7c5.1-0.1,11.2,0.0,15.8-2.4c2.8-1.4,2.7-4.7,0.7-6.3c-1.1-7.9-8.5-14.4-15.1-18.0c-5.5-3.1-14.9-6.8-20.3-1.3C-1.4,21.3-0.7,33.8,7.5,38.9z"/>
		<path fill="#0098FF" d="M28.6,66.2c3.8-1.1,6.4-5.1,8.3-8.4c1.6-2.9,6.8-9.9,5.5-13.9c0.6-1.6-0.1-3.8-2.4-4.3c-10.5-2.1-28.5,4.1-23.1,17.8C18.8,62.3,22.4,68.1,28.6,66.2z"/>
		<g>
			<path fill="#B0825C" d="M38.0,29.8c0.3,5.0,0.2,10.2,0.1,15.2c-0.1,4.9,1.9,12.1,8.3,10.7c6.8-1.5,5.6-10.4,5.4-15.5c-0.2-5.1-0.8-10.1-3.4-14.6C45.3,20.2,37.7,24.6,38.0,29.8L38.0,29.8z"/>
		</g>
		<g>
			<path fill="#9B6131" d="M51.9,42.2c0.0-0.7-0.1-1.4-0.1-2.0c0.0-0.1,0.0-0.2,0.0-0.3c-1.6-0.1-3.2-0.1-4.8-0.2c-2.9-0.1-5.9-0.1-8.8-0.5c0.0,1.8-0.1,3.6-0.1,5.4C42.7,43.3,47.4,42.3,51.9,42.2z"/>
			<path fill="#9B6131" d="M38.8,50.5c1.1,3.4,3.4,6.2,7.6,5.2c4.0-0.9,5.2-4.3,5.5-8.1C47.5,48.0,42.7,49.5,38.8,50.5z"/>
			<path fill="#9B6131" d="M50.6,34.4c0.2,0.0,0.5,0.0,0.7,0.0c-0.2-1.5-0.5-3.1-1.0-4.5c-4.1,0.4-8.2,1.1-12.2,2.1c0.0,0.5,0.0,1.1,0.0,1.6C42.1,34.5,46.6,34.2,50.6,34.4z"/>
		</g>
		<g>
			<path fill="#B0825C" d="M37.9,28.8c2.0,0.3,4.0,0.3,6.0,0.4c2.2,0.1,3.9-0.5,5.9-1.6c2.5-1.5,1.8-5.6-0.7-6.6c-3.5-1.5-8.7-1.4-12.1,0.4c-1.6,0.8-2.6,2.2-2.4,4.0C34.8,27.1,36.2,28.5,37.9,28.8L37.9,28.8z"/>
		</g>
		<g>
			<path fill="#B0825C" d="M39.5,21.9c1.8-3.5,1.5-7.9,0.1-11.5c-1.5-3.7-4.8-8.5-9.4-8.0c-1.3,0.1-1.9,1.8-0.7,2.5c2.4,1.4,4.4,2.3,5.9,4.8c2.2,3.3,2.5,7.6,1.9,11.5C37.2,22.4,38.9,23.1,39.5,21.9L39.5,21.9z"/>
		</g>
		<g>
			<path fill="#B0825C" d="M46.4,24.0c3.3-7.2,5.5-15.5,1.6-23.0c-0.9-1.7-3.2-0.4-2.9,1.2c0.5,2.9,1.4,5.4,1.5,8.4c0.1,4.1-1.6,8.6-2.6,12.6C43.8,24.8,45.8,25.4,46.4,24.0L46.4,24.0z"/>
		</g>
		<path fill="#FFFFFF" d="M41.3,23.8c-0.2-0.7-0.7-1.1-1.3-1.5c-1.2-0.8-2.8-0.1-3.5,1.1c-0.3,0.6-0.4,1.3-0.2,1.9c0.2,0.7,0.7,1.1,1.2,1.5c1.2,0.8,2.8,0.1,3.5-1.1C41.5,25.2,41.5,24.5,41.3,23.8z"/>
		<path fill="#FFFFFF" d="M48.1,21.2c-3.3-2.1-6.8,2.8-3.5,4.9C47.8,28.2,51.3,23.3,48.1,21.2z"/>
		<path d="M40.3,23.0c-1.5-1.0-3.1,1.4-1.6,2.4C40.2,26.4,41.8,24.1,40.3,23.0z"/>
		<path d="M45.4,22.7c-1.2-0.8-2.2,1.2-1.0,2.0C45.6,25.5,46.6,23.5,45.4,22.7z"/>
		<path fill="#63DD80" d="M22.4,31.4c0.9-1.8,1.1-3.9,0.6-5.9c-0.3-0.6-0.6-1.2-0.8-1.9c-0.8-1.2-1.8-2.2-3.1-2.9c-1.6-1.1-4.1-1.1-5.9-0.6c-2.0,0.6-3.7,2.0-4.7,3.9c-0.9,1.8-1.1,3.9-0.6,5.9c0.3,0.6,0.6,1.2,0.8,1.9c0.8,1.2,1.8,2.2,3.1,2.8c1.6,1.1,4.1,1.1,5.9,0.6C19.7,34.6,21.4,33.2,22.4,31.4z"/>
		<path fill="#63DD80" d="M74.8,14.5c-3.8-2.5-9.0-1.2-11.4,2.5c-2.4,3.8-1.2,9.0,2.5,11.4c3.8,2.5,9.0,1.2,11.4-2.5C79.8,22.1,78.6,16.9,74.8,14.5z"/>
		<path fill="#63DD80" d="M29.1,57.3c1.9-4.5-1.4-7.4-4.5-6.8c-1.1,0.2-2.2,0.9-2.8,1.9c-0.9,1.1-1.0,2.6-0.5,3.9c0.2,0.5,0.4,0.9,0.7,1.3c0.0,0.0,0.0,0.0,0.0,0.0c0.1,0.2,0.3,0.3,0.4,0.4c0.2,0.2,0.3,0.3,0.5,0.4c1.0,0.6,2.2,0.9,3.3,0.7C27.3,58.9,28.7,58.2,29.1,57.3z"/>
		<path fill="#63DD80" d="M72.6,51.6C72.6,51.6,72.6,51.6,72.6,51.6c0.0,0.0,0.0-0.1,0.1-0.2c0.0-0.1,0.0-0.1,0.0-0.2c0.1-0.5,0.1-1.1,0.1-1.6c0.0-0.2-0.1-0.3-0.1-0.5c0.0-0.1,0.0-0.1,0.0-0.2c0.0,0.0,0.0,0.0,0.0,0.0c-0.1-0.2-0.1-0.4-0.2-0.7c0.0,0.0,0.0-0.1,0.0-0.1c-0.1-0.2-0.2-0.3-0.3-0.5c-0.5-0.9-1.0-1.6-2.0-2.0l0.0,0.0c-0.2-0.3-0.8-0.4-1.3-0.6c-1.8-0.5-3.8,0.0-5.1,1.3c-0.7,0.7-1.1,1.5-1.4,2.4c-0.2,0.9-0.2,1.8,0.0,2.7c0.5,0.8,0.9,1.6,1.4,2.4c0.7,0.7,1.5,1.2,2.4,1.4c1.8,0.5,3.8,0.0,5.1-1.3C71.9,53.4,72.4,52.5,72.6,51.6z"/>
		<path fill="#FFBA00" d="M17.2,24.9c-2.9-1.9-5.3,2.8-2.5,4.7C17.6,31.5,20.0,26.8,17.2,24.9z"/>
		<path fill="#FFBA00" d="M73.2,19.3c-0.3-1.0-0.9-1.7-1.8-2.2c-1.7-1.1-4.1-0.2-5.0,1.5c-0.5,0.9-0.6,1.9-0.3,2.8c0.3,1.0,0.9,1.7,1.8,2.2c1.7,1.1,4.1,0.2,5.0-1.5C73.3,21.3,73.4,20.3,73.2,19.3z"/>
		<path fill="#FFBA00" d="M25.6,55.9c0.4-0.1,0.9-0.4,1.0-0.7c0.7-0.9,0.6-2.4-0.4-3.0c-1.3-0.5-2.3-0.4-3.0,0.4c-0.8,0.9-0.5,2.3,0.4,3.0c0.1,0.1,0.3,0.2,0.5,0.3c0.0,0.0,0.0,0.0,0.0,0.0c0.0,0.0,0.1,0.0,0.1,0.0c0.1,0.0,0.2,0.1,0.3,0.1c0.1,0.0,0.1,0.0,0.2,0.0c0.2,0.0,0.3,0.0,0.5,0.0c0.1,0.0,0.2,0.0,0.4-0.1C25.5,55.9,25.6,55.9,25.6,55.9z"/>
		<path fill="#FFBA00" d="M69.3,47.5c-2.5-1.6-4.5,2.5-2.0,4.1C69.7,53.2,71.7,49.1,69.3,47.5z"/>
	</g>
	</svg>
