<?xml version='1.0' encoding='UTF-8'?>
<svg xmlns="http://www.w3.org/2000/svg" xmlns:xlink="http://www.w3.org/1999/xlink" width="254" height="82"><g id="board2">
		<g>
			<g>
				<path fill="#B56B2E" d="M249.3,3.6c-1.9,0.0-245.9,73.0-247.0,74.0c1.7,1.8,2.3,1.7,2.3,1.7s4.6,0.0,12.6,0.0c2.7,0.0,5.8,0.0,9.3,0.0c19.0-0.5,37.9-0.7,56.7-0.8c3.9,0.0,7.7,0.0,11.8,0.1c47.6,1.3,95.4,2.0,143.6,0.5c3.0,0.0,5.5,0.0,7.6,0.0c4.2,0.0,6.5,0.0,6.5,0.0s0.0-4.6,0.0-11.6c-0.6-17.2,0.5-14.0,0.0-31.2c0.0-6.9,0.0-24.0,0.0-24.0S253.0,3.6,249.3,3.6z"/>
			</g>
		</g>
		<g>
			<g>
				<path fill="#D98F4E" d="M249.8,76.5c0.0,0.0-2.3,0.0-6.5,0.0c-2.1,0.0-4.6,0.0-7.6,0.0c-48.2,1.5-96.0,0.8-143.6-0.5c-4.1-0.1-7.9-0.1-11.8-0.1c-18.8,0.1-37.7,0.3-56.7,0.8c-3.5,0.0-6.6,0.0-9.3,0.0c-8.0,0.0-12.6,0.0-12.6,0.0s-0.7-21.7-0.7-28.7c-0.3-17.2,1.5-16.5,0.6-33.8c0.0-6.9,0.0-11.6,0.0-11.6s6.9,0.0,18.4,0.0c2.9,0.0,6.0,0.0,9.5,0.0c53.9-1.7,105.7-1.8,161.0,0.6c16.3,0.2,31.6,0.5,46.6-0.8c2.6,0.0,4.9,0.0,6.8,0.0c3.7,0.0,5.8,0.0,5.8,0.0s0.0,24.3,0.0,31.3c0.6,17.2-0.6,14.0,0.0,31.2C249.8,71.9,249.8,76.5,249.8,76.5z"/>
			</g>
		</g>
		<g>
			<g>
				<path fill="#E69B5A" d="M245.5,13.2c-5.8,4.5-11.7,9.0-17.9,12.9c-10.2,6.5-20.8,12.3-32.0,16.7c-2.2,0.9-4.5,1.7-6.8,2.5c-37.2,13.5-80.7,3.0-113.4-18.3c-2.8-1.9-5.6-3.9-8.3-6.0c-1.7-1.5-3.4-3.0-5.1-4.5c-5.1-4.5-10.2-8.8-16.7-11.2c-1.7-0.6-2.9-1.7-3.5-2.9c-4.1,0.1-8.3,0.3-12.4,0.4c-3.4,0.0-6.6,0.0-9.5,0.0c-11.5,0.0-18.4,0.1-18.4,0.1s0.0,0.1,0.0,0.3c0.3,0.2,0.6,0.3,0.9,0.5c8.2,3.6,17.3,4.1,26.0,5.7c10.2,1.8,15.9,8.7,23.1,15.5c1.7,1.6,3.4,3.2,5.2,4.9c1.8,1.6,3.6,3.3,5.4,4.9c5.1,3.9,10.7,7.4,16.5,10.6c2.9,1.6,5.9,3.1,8.9,4.5c23.8,11.1,50.2,16.5,75.7,10.8c2.4-0.5,4.8-1.0,7.2-1.6c15.4-3.5,29.4-9.6,43.8-15.9c11.6-5.1,23.4-9.7,35.4-12.4c0.0-5.1,0.0-13.7-0.1-20.1C248.3,11.6,246.9,12.4,245.5,13.2z"/>
				<path fill="#F0A86A" d="M183.5,59.7c-14.4,4.3-29.7,7.3-44.7,8.0c-5.9,0.3-12.0-0.2-17.8-1.6c-6.3-1.5-12.3-4.1-18.6-5.7c-6.7-1.7-13.5-3.1-19.6-6.4c-5.9-3.1-11.3-6.9-16.4-11.1c-5.5-4.5-10.9-9.3-16.2-14.1c-4.4-3.9-8.0-8.9-13.0-12.1c-7.5-4.7-17.2-4.4-25.7-6.3c-2.9-0.6-6.6-1.3-9.9-2.8c0.0,1.8,0.0,4.2,0.0,6.8c0.1,2.2,0.2,4.1,0.2,5.8c4.3,0.5,8.7,0.5,12.9,1.6c6.6,1.7,12.9,4.3,18.8,7.6c11.8,6.6,23.9,15.5,32.9,25.7c2.3,2.7,4.5,5.5,6.6,8.3c5.5,4.7,11.5,8.8,18.4,11.6c0.9,0.3,1.7,0.7,2.6,1.0c26.2,0.6,52.5,1.1,78.9,1.1c0.4-0.6,0.9-1.1,1.6-1.6c17.8-11.8,36.2-24.2,56.6-30.8c6.0-1.9,12.4-3.6,18.7-4.0c0.0-1.8-0.1-3.9-0.1-6.4C226.9,40.0,206.1,52.9,183.5,59.7z"/>
				<path fill="#E69B5A" d="M26.0,67.3c1.7,2.9,3.3,6.1,4.4,9.5c7.7-0.2,15.3-0.3,22.9-0.4c-3.9-6.5-8.2-12.8-13.7-18.0c-6.0-5.6-12.9-9.4-20.1-13.2c-5.0-2.7-12.3-7.3-18.5-6.2c-0.1,2.4-0.1,5.4,0.0,9.2C11.4,49.8,21.2,59.2,26.0,67.3z"/>
				<path fill="#F0A86A" d="M16.0,72.1c-1.9-3.1-4.3-6.0-7.3-8.1c-1.9-1.3-4.6-3.2-7.4-4.2c0.0,1.4,0.1,2.9,0.1,4.3c5.7,2.8,10.7,7.4,12.7,12.8c0.1,0.0,0.2,0.0,0.3,0.0c1.3,0.0,2.7,0.0,4.3,0.0C17.8,74.9,16.8,73.2,16.0,72.1z"/>
				<path fill="#F0A86A" d="M221.6,67.8c6.3-2.6,12.8-4.5,19.5-5.7c2.6-0.5,5.6-0.9,8.6-1.0c-0.1-4.1-0.1-6.8,0.0-9.0c-6.4,0.4-12.7,2.3-18.7,4.6c-13.7,5.3-26.4,12.6-38.7,20.5c5.3,0.0,10.5-0.1,15.8-0.2C211.3,72.6,216.9,69.7,221.6,67.8z"/>
				<path fill="#F0A86A" d="M158.3,9.0c4.6-1.2,7.5-3.6,9.1-6.6c-17.3-0.5-34.4-0.8-51.4-0.9c3.2,1.8,6.7,3.3,10.3,4.3C136.2,8.6,148.0,11.6,158.3,9.0z"/>
				<path fill="#E69B5A" d="M190.4,3.1c-2.9-0.1-5.8-0.2-8.7-0.3c-3.0,11.0-11.9,18.8-23.8,20.2c-13.6,1.6-28.9-0.9-41.6-6.2c-7.1-3.0-16.3-8.0-19.5-15.3c-10.3,0.1-20.5,0.2-30.8,0.4c8.4,6.7,16.0,14.6,25.3,20.0c15.3,8.8,33.0,12.4,50.6,13.2c16.7,0.8,36.7-0.3,49.6-12.3c5.9-5.5,10.4-12.2,13.5-19.6C200.3,3.2,195.4,3.2,190.4,3.1z"/>
			</g>
		</g>
	</g>
</svg>
