<?xml version='1.0' encoding='UTF-8'?>
<svg xmlns="http://www.w3.org/2000/svg" xmlns:xlink="http://www.w3.org/1999/xlink" width="566" height="140"><g id="box2">
		<g>
			<g>
				<path fill="#7C5538" d="M563.4,119.1c-0.2-5.5,0.1-10.2-0.2-15.7c-15.6,5.8-34.1,1.6-50.3,2.1c-20.4,0.6-43.9-0.6-62.9,1.0c-33.2,2.7-74.8-3.3-109.4-0.3c-33.4,2.8-73.9-2.9-109.4,0.0c-31.4,2.6-71.4,0.3-106.0,0.3c-31.6,0.0-120.8-45.8-123.7-10.7c-0.5,6.2,0.7,21.0,1.1,28.5c0.2,4.7,1.1,10.9,9.3,12.4c9.3,1.7,23.5,0.5,32.5,0.3c12.8-0.3,25.7-0.3,38.5,0.0c38.9,0.9,77.8-0.5,117.4,0.3c15.8,0.3,30.1,0.1,45.8,0.3c23.8,0.2,47.9,0.1,71.6-0.1c42.4-0.4,86.7-1.6,129.5-2.6c21.1-0.5,44.4,1.8,66.1,1.9c15.4,0.1,49.0,3.0,49.8-8.0C563.5,125.4,563.5,120.5,563.4,119.1z"/>
			</g>
			<g>
				<g>
					<path fill="#724C33" d="M84.9,97.5c-4.3-0.2-8.6-0.3-12.8-0.5c0.0-1.1,0.0-2.3,0.0-3.4c-0.1,0.0-0.3-0.1-0.4-0.1c-3.2,0.1-6.5,0.1-9.7,0.1c0.0,1.0,0.0,2.0,0.0,3.0c-5.6-0.2-11.2-0.4-16.8-0.6c0.0-0.9,0.0-1.8,0.0-2.7c-10.0-0.1-20.0,0.1-30.0,1.9c0.0,14.0,0.0,27.9,0.1,41.9c9.1,1.0,21.3,0.0,29.3-0.2c0.2,0.0,0.5,0.0,0.7,0.0c-0.1-11.5-0.1-22.9-0.1-34.4c5.6,0.2,11.1,0.4,16.7,0.6c-0.2,11.2-0.3,22.3-0.4,33.5c3.4,0.0,6.8,0.0,10.1,0.0c0.1-11.1,0.2-22.1,0.4-33.2l20.5,0.8c-0.3,10.9-0.7,21.8-1.0,32.7c6.4,0.1,12.7,0.1,19.1,0.2c0.3-10.7,0.7-21.5,1.0-32.2c0.8,0.0,1.6,0.1,2.3,0.1C105.6,103.6,95.5,100.7,84.9,97.5z"/>
				</g>
				<g>
					<path fill="#724C33" d="M155.5,106.8c-10.2-0.2-20.3-0.4-30.0-0.4c0.0,10.3,0.0,20.5,0.1,30.8c10.0,0.0,20.0-0.1,30.0-0.2C155.6,127.0,155.5,116.9,155.5,106.8z"/>
				</g>
				<g>
					<path fill="#724C33" d="M392.5,136.3c3.4-0.1,6.8-0.2,10.1-0.2c0.1-9.8,0.2-19.6,0.3-29.4c0.3,0.0,0.6-0.1,1.0-0.1c-21.4-0.9-43.5-2.1-63.2-0.4c-33.4,2.8-73.9-2.9-109.4,0.0c-21.1,1.7-46.0,1.3-70.6,0.8c3.8,0.1,7.6,0.3,11.4,0.4c-0.1,9.9-0.2,19.8-0.3,29.6c3.4,0.0,6.8,0.0,10.1,0.0c0.1-9.8,0.2-19.5,0.3-29.3c6.8,0.3,13.6,0.5,20.5,0.8c-0.3,9.6-0.6,19.2-0.9,28.8c6.5,0.1,12.8,0.2,19.1,0.2c0.3-9.4,0.6-18.8,0.9-28.2c2.2,0.1,4.3,0.2,6.5,0.2c2.5,0.1,5.1,0.2,7.6,0.3c0.0,9.2,0.0,18.5,0.1,27.7c3.4,0.0,6.7,0.0,10.2,0.1c6.6,0.1,13.2,0.1,19.8,0.1c-0.1-8.9-0.1-17.9-0.1-26.8c5.5,0.2,11.0,0.4,16.6,0.5c-0.1,8.8-0.2,17.6-0.3,26.3c3.4,0.0,6.8,0.0,10.1,0.0c0.1-8.7,0.2-17.4,0.3-26.1c6.8,0.1,13.6,0.2,20.4,0.2c-0.3,8.6-0.5,17.2-0.8,25.8c1.9,0.0,3.8,0.0,5.7,0.0c4.4,0.0,8.9-0.1,13.4-0.1c0.3-8.6,0.6-17.2,0.8-25.9c0.2,0.0,0.4,0.0,0.6,0.0c4.5-0.1,9.0-0.3,13.6-0.5c0.0,8.7,0.0,17.4,0.1,26.2c9.9-0.2,19.9-0.3,30.0-0.6c-0.1-9.2-0.1-18.4-0.1-27.6c5.5-0.4,11.1-0.9,16.6-1.4C392.7,117.1,392.6,126.7,392.5,136.3z"/>
				</g>
				<g>
					<path fill="#724C33" d="M552.0,136.1c0.3-10.1,0.6-20.1,1.0-30.2c-6.2,0.8-12.7,0.7-19.1,0.4c-0.3,10.3-0.6,20.6-1.0,30.9C539.6,137.3,546.5,137.1,552.0,136.1z"/>
				</g>
				<g>
					<path fill="#724C33" d="M442.6,107.0c-6.2,0.3-12.6,0.3-19.1,0.2c-0.3,9.5-0.6,18.9-0.9,28.4c6.4-0.2,12.8-0.3,19.1-0.5C442.0,125.7,442.3,116.3,442.6,107.0z"/>
				</g>
				<g>
					<path fill="#724C33" d="M513.4,105.5c-0.1,0.0-0.3,0.0-0.4,0.0c-3.2,0.1-6.4,0.1-9.7,0.2c-0.1,10.3-0.3,20.7-0.4,31.0c3.4,0.1,6.8,0.2,10.1,0.2C513.1,126.4,513.2,115.9,513.4,105.5z"/>
				</g>
				<g>
					<path fill="#724C33" d="M456.6,106.1c0.0,9.6,0.0,19.2,0.1,28.8c9.8,0.1,19.9,0.6,30.0,1.1c-0.1-10.1-0.1-20.2-0.1-30.3C476.3,105.6,466.1,105.6,456.6,106.1z"/>
				</g>
			</g>
		</g>
		<g>
			<g>
				<path fill="#A3755B" d="M563.4,58.4c-0.1-14.9-0.8-15.5-0.7-30.4c0.1-15.0,1.8-24.1-14.6-25.9c-13.1-1.4-26.8,0.3-40.0,0.4c-16.1,0.1-33.1-2.3-49.0-0.4c-23.4,2.8-49.5,0.4-73.9,0.4c-14.3,0.0-28.5,0.1-42.7,0.5c-9.6,0.3-20.0-1.4-30.4-1.1c-56.5,1.6-111.5,1.6-168.1,0.2c-10.3-0.3-20.7,1.3-30.2,0.9c-13.7-0.6-27.1-0.7-40.9-0.5c-15.5,0.2-30.9-0.6-46.3-0.6c-15.4,0.0-24.1,1.2-24.1,18.2c0.0,16.5,1.0,32.8,0.6,49.3c-0.4,12.7-3.4,29.9-0.1,42.2c4.1,15.6,26.9,9.8,39.8,9.7c16.5-0.2,33.1,0.4,49.6-0.1c-2.0,0.1-4.0,0.1-6.0,0.2c8.1-0.2,16.6-1.3,24.6-1.3c8.4,0.0,17.1,1.8,26.5,1.7c21.8-0.3,43.6,0.1,65.3-0.5c-2.0,0.1-4.0,0.1-6.0,0.2c8.1-0.2,16.6-1.3,24.6-1.3c8.4,0.0,17.1,1.8,26.5,1.7c21.8-0.3,43.6,0.1,65.3-0.5c-2.0,0.1-4.0,0.1-6.0,0.2c8.1-0.2,16.6-1.3,24.6-1.3c8.4,0.0,17.1,1.8,26.5,1.7c21.8-0.3,43.6,0.1,65.3-0.5c-2.0,0.1-4.0,0.1-6.0,0.2c8.1-0.2,16.6-1.3,24.6-1.3c8.4,0.0,17.1,1.8,26.5,1.7c21.8-0.3,43.6,0.1,65.3-0.5c-2.0,0.1-4.0,0.1-6.0,0.2c9.3-0.3,27.1,3.1,32.7-5.8c4.0-6.4,2.8-16.6,2.7-27.3C563.2,77.7,563.4,63.7,563.4,58.4z"/>
			</g>
			<g>
				<path fill="#AF7E5D" d="M563.0,44.5c-0.2-4.2-0.4-8.0-0.3-15.9c-14.0-3.4-28.3-6.5-43.0-9.2c-42.1-7.7-85.5-12.3-129.1-15.7c-4.9-0.4-9.8-0.7-14.7-1.1c-11.2,0.0-22.3,0.1-33.4,0.5c-9.6,0.3-20.0-1.4-30.4-1.1c-56.5,1.6-111.5,1.6-168.1,0.2c-10.3-0.3-20.7,1.3-30.2,0.9c-4.9-0.2-9.8-0.3-14.6-0.4c-31.6,1.7-63.1,4.0-94.6,6.4c-1.4,2.6-2.1,6.2-2.1,11.0c0.0,7.7,0.2,15.4,0.4,23.0c16.9-1.6,33.8-3.0,50.8-4.5c5.1-0.4,10.2-0.9,15.3-1.3c0.4,0.0,3.4-0.3,4.6-0.4c2.0-0.2,3.9-0.3,5.9-0.5c11.2-0.9,22.4-1.7,33.6-2.4c21.7-1.5,43.4-3.0,65.2-4.1c43.7-2.3,87.5-3.7,131.4-3.7c54.6,0.0,109.5,1.9,163.4,7.1c27.2,2.6,53.9,6.1,80.8,9.7C556.9,43.6,560.0,44.0,563.0,44.5z"/>
			</g>
			<g>
				<path fill="#AF7E5D" d="M527.8,121.4c9.3-0.3,27.1,3.1,32.7-5.8c4.0-6.4,2.8-16.6,2.7-27.3c0.0-1.1,0.0-2.3,0.0-3.5c-8.8-0.5-17.6-1.2-26.3-2.1c0.0,0.0,0.0,0.0,0.0,0.0c-1.9-0.2-3.7-0.4-5.6-0.7c-4.1-0.5-8.1-1.1-12.1-1.6c-8.8-1.3-17.5-2.7-26.2-4.2c-34.4-5.9-67.7-13.4-101.9-19.7c-39.8-7.3-80.7-12.8-122.8-15.4c-88.5-5.4-178.9,2.4-265.2,21.5c0.0,2.2,0.0,4.5-0.1,6.7c-0.2,8.7-1.7,19.5-1.6,29.4c1.7-0.3,3.4-0.7,5.1-1.0c10.5-2.1,21.0-4.0,31.6-5.7c20.6-3.5,41.5-6.2,62.4-8.3c10.2-1.0,20.4-1.9,30.6-2.7c5.1-0.4,10.3-0.7,15.4-1.1c1.5-0.1,3.0-0.2,4.4-0.3c-0.4,0.0,6.4-0.3,7.6-0.3c44.8-1.8,89.5-0.1,132.8,4.4c0.4,0.0,0.9,0.1,1.8,0.2c2.2,0.3,4.5,0.6,6.7,0.9c4.5,0.6,8.9,1.2,13.3,1.9c9.5,1.4,18.8,2.9,28.1,4.6c17.6,3.1,34.9,6.6,52.2,10.1c33.3,6.7,66.5,13.7,100.9,18.6c4.2,0.6,8.5,1.2,12.8,1.7c8.8,0.0,17.7-0.1,26.5-0.4C531.9,121.3,529.9,121.4,527.8,121.4z"/>
			</g>
			<g>
				<path fill="#AF7E5D" d="M391.6,116.6c-74.9-13.6-171.9-18.0-267.6-14.0c-40.8,1.7-81.3,4.8-121.0,9.0c0.0,0.0,0.0,0.0,0.0,0.0c4.1,15.6,26.9,9.8,39.8,9.7c15.4-0.2,30.7,0.3,46.1,0.0c7.4-0.4,14.9-1.2,22.1-1.2c8.4,0.0,17.1,1.8,26.5,1.7c20.4-0.2,40.9,0.1,61.3-0.4c7.5-0.3,15.2-1.2,22.6-1.3c8.4,0.0,17.1,1.8,26.5,1.7c20.4-0.2,40.9,0.1,61.3-0.4c7.5-0.3,15.2-1.2,22.6-1.3c8.4,0.0,17.1,1.8,26.5,1.7c19.4-0.2,38.9,0.1,58.3-0.3C408.4,119.7,400.1,118.1,391.6,116.6z"/>
			</g>
		</g>
		<g>
			<g>
				<path fill="#7C5538" d="M112.7,85.9c-0.2-3.3-0.5-6.6-0.4-9.9c0.1-3.4,0.3-6.8,0.2-10.3c-0.2-7.1-0.5-14.2-0.3-21.3c0.2-6.8,0.2-13.6,0.1-20.4c-0.1-4.0,1.3-11.6-4.4-12.1c-3.2-0.3-6.6-0.1-9.8-0.2c-3.5-0.1-6.9,0.0-10.4,0.1c-13.8,0.5-27.6,1.1-41.4,0.6c-6.8-0.2-13.6-0.7-20.4-0.7c-2.9,0.0-5.7,0.0-8.6,0.4c-3.0,0.4-5.8,0.5-6.3,4.0c-0.4,2.7-0.1,5.7,0.0,8.4c0.0,3.6-0.2,7.2-0.1,10.8c0.2,6.8-0.3,13.7,0.1,20.5c0.4,7.3,0.0,14.6-0.2,21.9c-0.2,7.6-0.1,15.1,0.0,22.7c0.0,2.8-0.6,6.1,1.3,8.5c1.9,2.4,5.1,2.4,7.9,2.5c3.6,0.2,7.2,0.3,10.8,0.1c2.4-0.1,6.7-1.0,8.8-0.3c1.5-0.3,3.3,0.1,4.9,0.2c1.5,0.1,3.0,0.1,4.4,0.1c3.7,0.1,7.4,0.1,11.1,0.1c6.8,0.0,13.7-0.1,20.5-0.1c6.8,0.0,13.6-0.1,20.4-0.2c2.4,0.0,5.0,0.2,7.4-0.3c3.1-0.6,3.7-2.6,3.8-5.4C112.3,99.2,113.0,92.5,112.7,85.9z"/>
			</g>
			<g>
				<path fill="#5E3F32" d="M112.7,85.9c-0.2-3.3-0.5-6.6-0.4-9.9c0.1-3.4,0.3-6.8,0.2-10.3c-0.2-7.1-0.5-14.2-0.3-21.3c0.2-6.8,0.2-13.6,0.1-20.4c0.0-0.2,0.0-0.3,0.0-0.5c-1.2-0.1-2.4,0.0-3.4,0.0c-5.5,0.0-10.9,0.0-16.4-0.1c-5.4,0.0-10.8,0.3-16.2,0.6c-5.5,0.3-11.0,0.0-16.5,0.2c-5.4,0.2-10.8,0.5-16.2,0.3c-5.5-0.1-11.0-0.4-16.4-0.4c-3.2,0.0-8.4-0.6-10.5,2.5c-0.5,0.7-0.5,1.4-0.7,2.1c-0.4,1.2-1.0,2.4-1.3,3.6c-0.5,2.5-0.4,5.1-0.2,7.6c0.4,5.3,0.7,10.6,0.9,15.9c0.2,5.3-0.5,10.6-0.5,16.0c0.0,2.5-0.5,5.0-0.6,7.5c-0.1,2.8-0.2,5.5-0.3,8.3c-0.1,5.4-0.2,10.9,0.0,16.4c0.1,2.1,0.2,4.2,0.2,6.4c1.8,0.8,3.9,0.8,5.9,1.0c3.6,0.2,7.2,0.3,10.8,0.1c2.4-0.1,6.7-1.0,8.8-0.3c1.5-0.3,3.3,0.1,4.9,0.2c1.5,0.1,3.0,0.1,4.4,0.1c3.7,0.1,7.4,0.1,11.1,0.1c6.8,0.0,13.7-0.1,20.5-0.1c6.8,0.0,13.6-0.1,20.4-0.2c2.4,0.0,5.0,0.2,7.4-0.3c3.1-0.6,3.7-2.6,3.8-5.4C112.3,99.2,113.0,92.5,112.7,85.9z"/>
			</g>
		</g>
		<g>
			<g>
				<path fill="#7C5538" d="M333.4,85.9c-0.2-3.3-0.5-6.6-0.4-9.9c0.1-3.4,0.3-6.8,0.2-10.3c-0.2-7.1-0.5-14.2-0.3-21.3c0.2-6.8,0.2-13.6,0.1-20.4c-0.1-4.0,1.3-11.6-4.4-12.1c-3.2-0.3-6.6-0.1-9.8-0.2c-3.5-0.1-6.9,0.0-10.4,0.1c-13.8,0.5-27.6,1.1-41.4,0.6c-6.8-0.2-13.6-0.7-20.4-0.7c-2.9,0.0-5.7,0.0-8.6,0.4c-3.0,0.4-5.8,0.5-6.3,4.0c-0.4,2.7-0.1,5.7,0.0,8.4c0.0,3.6-0.2,7.2-0.1,10.8c0.2,6.8-0.3,13.7,0.1,20.5c0.4,7.3,0.0,14.6-0.2,21.9c-0.2,7.6-0.1,15.1,0.0,22.7c0.0,2.8-0.6,6.1,1.3,8.5c1.9,2.4,5.1,2.4,7.9,2.5c3.6,0.2,7.2,0.3,10.8,0.1c2.4-0.1,6.7-1.0,8.8-0.3c1.5-0.3,3.3,0.1,4.9,0.2c1.5,0.1,3.0,0.1,4.4,0.1c3.7,0.1,7.4,0.1,11.1,0.1c6.8,0.0,13.7-0.1,20.5-0.1c6.8,0.0,13.6-0.1,20.4-0.2c2.4,0.0,5.0,0.2,7.4-0.3c3.1-0.6,3.7-2.6,3.8-5.4C333.0,99.2,333.7,92.5,333.4,85.9z"/>
			</g>
			<g>
				<path fill="#5E3F32" d="M333.4,85.9c-0.2-3.3-0.5-6.6-0.4-9.9c0.1-3.4,0.3-6.8,0.2-10.3c-0.2-7.1-0.5-14.2-0.3-21.3c0.2-6.8,0.2-13.6,0.1-20.4c0.0-0.2,0.0-0.3,0.0-0.5c-1.2-0.1-2.4,0.0-3.4,0.0c-5.5,0.0-10.9,0.0-16.4-0.1c-5.4,0.0-10.8,0.3-16.2,0.6c-5.5,0.3-11.0,0.0-16.5,0.2c-5.4,0.2-10.8,0.5-16.2,0.3c-5.5-0.1-11.0-0.4-16.4-0.4c-3.2,0.0-8.4-0.6-10.5,2.5c-0.5,0.7-0.5,1.4-0.7,2.1c-0.4,1.2-1.0,2.4-1.3,3.6c-0.5,2.5-0.4,5.1-0.2,7.6c0.4,5.3,0.7,10.6,0.9,15.9c0.2,5.3-0.5,10.6-0.5,16.0c0.0,2.5-0.5,5.0-0.6,7.5c-0.1,2.8-0.2,5.5-0.3,8.3c-0.1,5.4-0.2,10.9,0.0,16.4c0.1,2.1,0.2,4.2,0.2,6.4c1.8,0.8,3.9,0.8,5.9,1.0c3.6,0.2,7.2,0.3,10.8,0.1c2.4-0.1,6.7-1.0,8.8-0.3c1.5-0.3,3.3,0.1,4.9,0.2c1.5,0.1,3.0,0.1,4.4,0.1c3.7,0.1,7.4,0.1,11.1,0.1c6.8,0.0,13.7-0.1,20.5-0.1c6.8,0.0,13.6-0.1,20.4-0.2c2.4,0.0,5.0,0.2,7.4-0.3c3.1-0.6,3.7-2.6,3.8-5.4C333.0,99.2,333.7,92.5,333.4,85.9z"/>
			</g>
		</g>
		<g>
			<g>
				<path fill="#7C5538" d="M554.1,85.9c-0.2-3.3-0.5-6.6-0.4-9.9c0.1-3.4,0.3-6.8,0.2-10.3c-0.2-7.1-0.5-14.2-0.3-21.3c0.2-6.8,0.2-13.6,0.1-20.4c-0.1-4.0,1.3-11.6-4.4-12.1c-3.2-0.3-6.6-0.1-9.8-0.2c-3.5-0.1-6.9,0.0-10.4,0.1c-13.8,0.5-27.6,1.1-41.4,0.6c-6.8-0.2-13.6-0.7-20.4-0.7c-2.9,0.0-5.7,0.0-8.6,0.4c-3.0,0.4-5.8,0.5-6.3,4.0c-0.4,2.7-0.1,5.7,0.0,8.4c0.0,3.6-0.2,7.2-0.1,10.8c0.2,6.8-0.3,13.7,0.1,20.5c0.4,7.3,0.0,14.6-0.2,21.9c-0.2,7.6-0.1,15.1,0.0,22.7c0.0,2.8-0.6,6.1,1.3,8.5c1.9,2.4,5.1,2.4,7.9,2.5c3.6,0.2,7.2,0.3,10.8,0.1c2.4-0.1,6.7-1.0,8.8-0.3c1.5-0.3,3.3,0.1,4.9,0.2c1.5,0.1,3.0,0.1,4.4,0.1c3.7,0.1,7.4,0.1,11.1,0.1c6.8,0.0,13.7-0.1,20.5-0.1c6.8,0.0,13.6-0.1,20.4-0.2c2.4,0.0,5.0,0.2,7.4-0.3c3.1-0.6,3.7-2.6,3.8-5.4C553.8,99.2,554.4,92.5,554.1,85.9z"/>
			</g>
			<g>
				<path fill="#5E3F32" d="M554.1,85.9c-0.2-3.3-0.5-6.6-0.4-9.9c0.1-3.4,0.3-6.8,0.2-10.3c-0.2-7.1-0.5-14.2-0.3-21.3c0.2-6.8,0.2-13.6,0.1-20.4c0.0-0.2,0.0-0.3,0.0-0.5c-1.2-0.1-2.4,0.0-3.4,0.0c-5.5,0.0-10.9,0.0-16.4-0.1c-5.4,0.0-10.8,0.3-16.2,0.6c-5.5,0.3-11.0,0.0-16.5,0.2c-5.4,0.2-10.8,0.5-16.2,0.3c-5.5-0.1-11.0-0.4-16.4-0.4c-3.2,0.0-8.4-0.6-10.5,2.5c-0.5,0.7-0.5,1.4-0.7,2.1c-0.4,1.2-1.0,2.4-1.3,3.6c-0.5,2.5-0.4,5.1-0.2,7.6c0.4,5.3,0.7,10.6,0.9,15.9c0.2,5.3-0.5,10.6-0.5,16.0c0.0,2.5-0.5,5.0-0.6,7.5c-0.1,2.8-0.2,5.5-0.3,8.3c-0.1,5.4-0.2,10.9,0.0,16.4c0.1,2.1,0.2,4.2,0.2,6.4c1.8,0.8,3.9,0.8,5.9,1.0c3.6,0.2,7.2,0.3,10.8,0.1c2.4-0.1,6.7-1.0,8.8-0.3c1.5-0.3,3.3,0.1,4.9,0.2c1.5,0.1,3.0,0.1,4.4,0.1c3.7,0.1,7.4,0.1,11.1,0.1c6.8,0.0,13.7-0.1,20.5-0.1c6.8,0.0,13.6-0.1,20.4-0.2c2.4,0.0,5.0,0.2,7.4-0.3c3.1-0.6,3.7-2.6,3.8-5.4C553.8,99.2,554.4,92.5,554.1,85.9z"/>
			</g>
		</g>
		<g>
			<path fill="#333333" d="M390.3,77.8c-0.1-1.5-0.2-3.9-0.2-7.2l-0.1-4.5c-3.0-0.1-6.4-0.2-10.0-0.5l-1.7-0.1c0.0,0.0,0.0-0.1,0.0-0.3c0.0-0.3,0.0-1.0,0.1-2.3c0.0-0.3,0.0-0.8,0.1-1.4c0.0-0.6,0.1-1.1,0.1-1.4c0.0-0.4,0.0-0.6-0.1-0.6c2.7,0.0,4.6,0.1,5.7,0.1l5.8,0.0c0.1-3.1,0.2-6.9,0.4-11.6l0.0-0.6l1.1,0.1c1.0,0.1,1.6,0.2,1.8,0.2c1.0,0.1,1.9,0.1,2.4,0.1c0.1,0.0,0.3,0.0,0.5,0.0c0.2,0.0,0.4,0.0,0.5,0.0c-0.1,3.0-0.2,7.0-0.2,11.8c3.1,0.0,5.5,0.0,7.3,0.0c1.7,0.0,3.2-0.1,4.2-0.2l0.1,1.2c0.1,1.2,0.1,2.2,0.2,3.0c0.1,0.8,0.2,1.4,0.3,2.0c-2.5,0.2-6.5,0.4-12.1,0.5c0.0,5.2,0.1,8.9,0.3,11.2c-0.8,0.0-1.4,0.1-1.7,0.1C392.9,77.4,391.3,77.6,390.3,77.8z"/>
		</g>
		<g>
			<path fill="#333333" d="M174.5,60.8h-1.3c-4.8,0.0-9.7-0.1-14.5-0.4c0.0,0.0,0.0-0.1,0.0-0.3c0.0-0.3,0.0-1.0,0.1-2.3c0.1-1.5,0.2-2.6,0.2-3.1c0.0-0.4,0.0-0.7-0.1-0.7l4.0,0.1c4.8,0.1,8.8,0.2,12.2,0.2c4.9,0.0,9.3-0.1,13.3-0.4c0.1,1.6,0.2,2.8,0.4,3.8c0.1,1.0,0.2,1.9,0.4,2.6l-3.7,0.2c-3.6,0.2-5.5,0.3-5.7,0.3C178.5,60.8,176.8,60.8,174.5,60.8zM174.5,71.9h-1.3c-4.8,0.0-9.7-0.1-14.5-0.4c0.0,0.0,0.0-0.1,0.0-0.3c0.0-0.3,0.0-1.0,0.1-2.3c0.1-1.5,0.2-2.6,0.2-3.1c0.0-0.4,0.0-0.7-0.1-0.7l4.0,0.1c4.6,0.1,8.6,0.2,12.0,0.2c5.0,0.0,9.5-0.1,13.5-0.4c0.1,1.6,0.2,2.8,0.4,3.8c0.1,1.0,0.2,1.9,0.4,2.6l-3.7,0.2c-3.6,0.2-5.5,0.3-5.7,0.3C178.5,71.9,176.8,71.9,174.5,71.9z"/>
		</g>
	</g>
</svg>
