<?xml version='1.0' encoding='UTF-8'?>
<svg xmlns="http://www.w3.org/2000/svg" xmlns:xlink="http://www.w3.org/1999/xlink" width="666" height="118"><g id="bundleTarget2">
		<circle fill="#FF00FF" cx="611.0" cy="59.3" r="5" opacity="0"/>
		<circle fill="#FF00FF" cx="535.3" cy="59.3" r="5" opacity="0"/>
		<circle fill="#FF00FF" cx="459.5" cy="59.3" r="5" opacity="0"/>
		<circle fill="#FF00FF" cx="343.7" cy="59.3" r="5" opacity="0"/>
		<circle fill="#FF00FF" cx="268.0" cy="59.3" r="5" opacity="0"/>
		<circle fill="#FF00FF" cx="192.2" cy="59.3" r="5" opacity="0"/>
		<circle fill="#FF00FF" cx="116.5" cy="59.3" r="5" opacity="0"/>
		<circle fill="#FF00FF" cx="40.7" cy="59.3" r="5" opacity="0"/>
		<rect x="1.8" y="1.8" opacity="0" fill="#FF00FF" width="660.945" height="114.984"/>
		<path opacity="0.5" fill="#FFFFFF" d="M661.8,115.0h-3.0c-1.1,0.0-2.0-0.9-2.0-2.0s0.9-2.0,2.0-2.0h1.0v-1.0c0.0-1.1,0.9-2.0,2.0-2.0s2.0,0.9,2.0,2.0v3.0C663.8,114.1,662.9,115.0,661.8,115.0z"/>
		<path opacity="0.5" fill="#FFFFFF" d="M647.0,115.0h-5.9c-1.1,0.0-2.0-0.9-2.0-2.0s0.9-2.0,2.0-2.0h5.9c1.1,0.0,2.0,0.9,2.0,2.0S648.1,115.0,647.0,115.0zM629.3,115.0h-5.9c-1.1,0.0-2.0-0.9-2.0-2.0s0.9-2.0,2.0-2.0h5.9c1.1,0.0,2.0,0.9,2.0,2.0S630.4,115.0,629.3,115.0zM611.6,115.0h-5.9c-1.1,0.0-2.0-0.9-2.0-2.0s0.9-2.0,2.0-2.0h5.9c1.1,0.0,2.0,0.9,2.0,2.0S612.7,115.0,611.6,115.0zM593.9,115.0h-5.9c-1.1,0.0-2.0-0.9-2.0-2.0s0.9-2.0,2.0-2.0h5.9c1.1,0.0,2.0,0.9,2.0,2.0S595.0,115.0,593.9,115.0zM576.2,115.0h-5.9c-1.1,0.0-2.0-0.9-2.0-2.0s0.9-2.0,2.0-2.0h5.9c1.1,0.0,2.0,0.9,2.0,2.0S577.3,115.0,576.2,115.0zM558.5,115.0h-5.9c-1.1,0.0-2.0-0.9-2.0-2.0s0.9-2.0,2.0-2.0h5.9c1.1,0.0,2.0,0.9,2.0,2.0S559.6,115.0,558.5,115.0zM540.8,115.0h-5.9c-1.1,0.0-2.0-0.9-2.0-2.0s0.9-2.0,2.0-2.0h5.9c1.1,0.0,2.0,0.9,2.0,2.0S541.9,115.0,540.8,115.0zM523.1,115.0h-5.9c-1.1,0.0-2.0-0.9-2.0-2.0s0.9-2.0,2.0-2.0h5.9c1.1,0.0,2.0,0.9,2.0,2.0S524.2,115.0,523.1,115.0zM505.4,115.0h-5.9c-1.1,0.0-2.0-0.9-2.0-2.0s0.9-2.0,2.0-2.0h5.9c1.1,0.0,2.0,0.9,2.0,2.0S506.6,115.0,505.4,115.0zM487.8,115.0h-5.9c-1.1,0.0-2.0-0.9-2.0-2.0s0.9-2.0,2.0-2.0h5.9c1.1,0.0,2.0,0.9,2.0,2.0S488.9,115.0,487.8,115.0zM470.1,115.0h-5.9c-1.1,0.0-2.0-0.9-2.0-2.0s0.9-2.0,2.0-2.0h5.9c1.1,0.0,2.0,0.9,2.0,2.0S471.2,115.0,470.1,115.0zM452.4,115.0h-5.9c-1.1,0.0-2.0-0.9-2.0-2.0s0.9-2.0,2.0-2.0h5.9c1.1,0.0,2.0,0.9,2.0,2.0S453.5,115.0,452.4,115.0zM434.7,115.0h-5.9c-1.1,0.0-2.0-0.9-2.0-2.0s0.9-2.0,2.0-2.0h5.9c1.1,0.0,2.0,0.9,2.0,2.0S435.8,115.0,434.7,115.0zM417.0,115.0h-5.9c-1.1,0.0-2.0-0.9-2.0-2.0s0.9-2.0,2.0-2.0h5.9c1.1,0.0,2.0,0.9,2.0,2.0S418.1,115.0,417.0,115.0zM399.3,115.0h-5.9c-1.1,0.0-2.0-0.9-2.0-2.0s0.9-2.0,2.0-2.0h5.9c1.1,0.0,2.0,0.9,2.0,2.0S400.4,115.0,399.3,115.0zM381.6,115.0h-5.9c-1.1,0.0-2.0-0.9-2.0-2.0s0.9-2.0,2.0-2.0h5.9c1.1,0.0,2.0,0.9,2.0,2.0S382.7,115.0,381.6,115.0zM363.9,115.0h-5.9c-1.1,0.0-2.0-0.9-2.0-2.0s0.9-2.0,2.0-2.0h5.9c1.1,0.0,2.0,0.9,2.0,2.0S365.0,115.0,363.9,115.0zM346.2,115.0h-5.9c-1.1,0.0-2.0-0.9-2.0-2.0s0.9-2.0,2.0-2.0h5.9c1.1,0.0,2.0,0.9,2.0,2.0S347.3,115.0,346.2,115.0zM328.5,115.0h-5.9c-1.1,0.0-2.0-0.9-2.0-2.0s0.9-2.0,2.0-2.0h5.9c1.1,0.0,2.0,0.9,2.0,2.0S329.6,115.0,328.5,115.0zM310.8,115.0h-5.9c-1.1,0.0-2.0-0.9-2.0-2.0s0.9-2.0,2.0-2.0h5.9c1.1,0.0,2.0,0.9,2.0,2.0S312.0,115.0,310.8,115.0zM293.2,115.0h-5.9c-1.1,0.0-2.0-0.9-2.0-2.0s0.9-2.0,2.0-2.0h5.9c1.1,0.0,2.0,0.9,2.0,2.0S294.3,115.0,293.2,115.0zM275.5,115.0h-5.9c-1.1,0.0-2.0-0.9-2.0-2.0s0.9-2.0,2.0-2.0h5.9c1.1,0.0,2.0,0.9,2.0,2.0S276.6,115.0,275.5,115.0zM257.8,115.0h-5.9c-1.1,0.0-2.0-0.9-2.0-2.0s0.9-2.0,2.0-2.0h5.9c1.1,0.0,2.0,0.9,2.0,2.0S258.9,115.0,257.8,115.0zM240.1,115.0h-5.9c-1.1,0.0-2.0-0.9-2.0-2.0s0.9-2.0,2.0-2.0h5.9c1.1,0.0,2.0,0.9,2.0,2.0S241.2,115.0,240.1,115.0zM222.4,115.0h-5.9c-1.1,0.0-2.0-0.9-2.0-2.0s0.9-2.0,2.0-2.0h5.9c1.1,0.0,2.0,0.9,2.0,2.0S223.5,115.0,222.4,115.0zM204.7,115.0h-5.9c-1.1,0.0-2.0-0.9-2.0-2.0s0.9-2.0,2.0-2.0h5.9c1.1,0.0,2.0,0.9,2.0,2.0S205.8,115.0,204.7,115.0zM187.0,115.0h-5.9c-1.1,0.0-2.0-0.9-2.0-2.0s0.9-2.0,2.0-2.0h5.9c1.1,0.0,2.0,0.9,2.0,2.0S188.1,115.0,187.0,115.0zM169.3,115.0h-5.9c-1.1,0.0-2.0-0.9-2.0-2.0s0.9-2.0,2.0-2.0h5.9c1.1,0.0,2.0,0.9,2.0,2.0S170.4,115.0,169.3,115.0zM151.6,115.0h-5.9c-1.1,0.0-2.0-0.9-2.0-2.0s0.9-2.0,2.0-2.0h5.9c1.1,0.0,2.0,0.9,2.0,2.0S152.7,115.0,151.6,115.0zM133.9,115.0h-5.9c-1.1,0.0-2.0-0.9-2.0-2.0s0.9-2.0,2.0-2.0h5.9c1.1,0.0,2.0,0.9,2.0,2.0S135.0,115.0,133.9,115.0zM116.2,115.0h-5.9c-1.1,0.0-2.0-0.9-2.0-2.0s0.9-2.0,2.0-2.0h5.9c1.1,0.0,2.0,0.9,2.0,2.0S117.4,115.0,116.2,115.0zM98.6,115.0h-5.9c-1.1,0.0-2.0-0.9-2.0-2.0s0.9-2.0,2.0-2.0h5.9c1.1,0.0,2.0,0.9,2.0,2.0S99.7,115.0,98.6,115.0zM80.9,115.0h-5.9c-1.1,0.0-2.0-0.9-2.0-2.0s0.9-2.0,2.0-2.0h5.9c1.1,0.0,2.0,0.9,2.0,2.0S82.0,115.0,80.9,115.0zM63.2,115.0h-5.9c-1.1,0.0-2.0-0.9-2.0-2.0s0.9-2.0,2.0-2.0h5.9c1.1,0.0,2.0,0.9,2.0,2.0S64.3,115.0,63.2,115.0zM45.5,115.0h-5.9c-1.1,0.0-2.0-0.9-2.0-2.0s0.9-2.0,2.0-2.0h5.9c1.1,0.0,2.0,0.9,2.0,2.0S46.6,115.0,45.5,115.0zM27.8,115.0h-5.9c-1.1,0.0-2.0-0.9-2.0-2.0s0.9-2.0,2.0-2.0h5.9c1.1,0.0,2.0,0.9,2.0,2.0S28.9,115.0,27.8,115.0z"/>
		<path opacity="0.5" fill="#FFFFFF" d="M10.1,115.0h-3.0c-1.1,0.0-2.0-0.9-2.0-2.0v-3.0c0.0-1.1,0.9-2.0,2.0-2.0s2.0,0.9,2.0,2.0v1.0h1.0c1.1,0.0,2.0,0.9,2.0,2.0S11.2,115.0,10.1,115.0z"/>
		<path opacity="0.5" fill="#FFFFFF" d="M7.1,100.1c-1.1,0.0-2.0-0.9-2.0-2.0v-6.0c0.0-1.1,0.9-2.0,2.0-2.0s2.0,0.9,2.0,2.0v6.0C9.1,99.2,8.2,100.1,7.1,100.1zM7.1,82.2c-1.1,0.0-2.0-0.9-2.0-2.0v-6.0c0.0-1.1,0.9-2.0,2.0-2.0s2.0,0.9,2.0,2.0v6.0C9.1,81.3,8.2,82.2,7.1,82.2zM7.1,64.3c-1.1,0.0-2.0-0.9-2.0-2.0v-6.0c0.0-1.1,0.9-2.0,2.0-2.0s2.0,0.9,2.0,2.0v6.0C9.1,63.4,8.2,64.3,7.1,64.3zM7.1,46.4c-1.1,0.0-2.0-0.9-2.0-2.0v-6.0c0.0-1.1,0.9-2.0,2.0-2.0s2.0,0.9,2.0,2.0v6.0C9.1,45.5,8.2,46.4,7.1,46.4zM7.1,28.5c-1.1,0.0-2.0-0.9-2.0-2.0v-6.0c0.0-1.1,0.9-2.0,2.0-2.0s2.0,0.9,2.0,2.0v6.0C9.1,27.6,8.2,28.5,7.1,28.5z"/>
		<path opacity="0.5" fill="#FFFFFF" d="M7.1,10.6c-1.1,0.0-2.0-0.9-2.0-2.0v-3.0c0.0-1.1,0.9-2.0,2.0-2.0h3.0c1.1,0.0,2.0,0.9,2.0,2.0s-0.9,2.0-2.0,2.0h-1.0v1.0C9.1,9.7,8.2,10.6,7.1,10.6z"/>
		<path opacity="0.5" fill="#FFFFFF" d="M647.0,7.6h-5.9c-1.1,0.0-2.0-0.9-2.0-2.0s0.9-2.0,2.0-2.0h5.9c1.1,0.0,2.0,0.9,2.0,2.0S648.1,7.6,647.0,7.6zM629.3,7.6h-5.9c-1.1,0.0-2.0-0.9-2.0-2.0s0.9-2.0,2.0-2.0h5.9c1.1,0.0,2.0,0.9,2.0,2.0S630.4,7.6,629.3,7.6zM611.6,7.6h-5.9c-1.1,0.0-2.0-0.9-2.0-2.0s0.9-2.0,2.0-2.0h5.9c1.1,0.0,2.0,0.9,2.0,2.0S612.7,7.6,611.6,7.6zM593.9,7.6h-5.9c-1.1,0.0-2.0-0.9-2.0-2.0s0.9-2.0,2.0-2.0h5.9c1.1,0.0,2.0,0.9,2.0,2.0S595.0,7.6,593.9,7.6zM576.2,7.6h-5.9c-1.1,0.0-2.0-0.9-2.0-2.0s0.9-2.0,2.0-2.0h5.9c1.1,0.0,2.0,0.9,2.0,2.0S577.3,7.6,576.2,7.6zM558.5,7.6h-5.9c-1.1,0.0-2.0-0.9-2.0-2.0s0.9-2.0,2.0-2.0h5.9c1.1,0.0,2.0,0.9,2.0,2.0S559.6,7.6,558.5,7.6zM540.8,7.6h-5.9c-1.1,0.0-2.0-0.9-2.0-2.0s0.9-2.0,2.0-2.0h5.9c1.1,0.0,2.0,0.9,2.0,2.0S541.9,7.6,540.8,7.6zM523.1,7.6h-5.9c-1.1,0.0-2.0-0.9-2.0-2.0s0.9-2.0,2.0-2.0h5.9c1.1,0.0,2.0,0.9,2.0,2.0S524.2,7.6,523.1,7.6zM505.4,7.6h-5.9c-1.1,0.0-2.0-0.9-2.0-2.0s0.9-2.0,2.0-2.0h5.9c1.1,0.0,2.0,0.9,2.0,2.0S506.6,7.6,505.4,7.6zM487.8,7.6h-5.9c-1.1,0.0-2.0-0.9-2.0-2.0s0.9-2.0,2.0-2.0h5.9c1.1,0.0,2.0,0.9,2.0,2.0S488.9,7.6,487.8,7.6zM470.1,7.6h-5.9c-1.1,0.0-2.0-0.9-2.0-2.0s0.9-2.0,2.0-2.0h5.9c1.1,0.0,2.0,0.9,2.0,2.0S471.2,7.6,470.1,7.6zM452.4,7.6h-5.9c-1.1,0.0-2.0-0.9-2.0-2.0s0.9-2.0,2.0-2.0h5.9c1.1,0.0,2.0,0.9,2.0,2.0S453.5,7.6,452.4,7.6zM434.7,7.6h-5.9c-1.1,0.0-2.0-0.9-2.0-2.0s0.9-2.0,2.0-2.0h5.9c1.1,0.0,2.0,0.9,2.0,2.0S435.8,7.6,434.7,7.6zM417.0,7.6h-5.9c-1.1,0.0-2.0-0.9-2.0-2.0s0.9-2.0,2.0-2.0h5.9c1.1,0.0,2.0,0.9,2.0,2.0S418.1,7.6,417.0,7.6zM399.3,7.6h-5.9c-1.1,0.0-2.0-0.9-2.0-2.0s0.9-2.0,2.0-2.0h5.9c1.1,0.0,2.0,0.9,2.0,2.0S400.4,7.6,399.3,7.6zM381.6,7.6h-5.9c-1.1,0.0-2.0-0.9-2.0-2.0s0.9-2.0,2.0-2.0h5.9c1.1,0.0,2.0,0.9,2.0,2.0S382.7,7.6,381.6,7.6zM363.9,7.6h-5.9c-1.1,0.0-2.0-0.9-2.0-2.0s0.9-2.0,2.0-2.0h5.9c1.1,0.0,2.0,0.9,2.0,2.0S365.0,7.6,363.9,7.6zM346.2,7.6h-5.9c-1.1,0.0-2.0-0.9-2.0-2.0s0.9-2.0,2.0-2.0h5.9c1.1,0.0,2.0,0.9,2.0,2.0S347.3,7.6,346.2,7.6zM328.5,7.6h-5.9c-1.1,0.0-2.0-0.9-2.0-2.0s0.9-2.0,2.0-2.0h5.9c1.1,0.0,2.0,0.9,2.0,2.0S329.6,7.6,328.5,7.6zM310.8,7.6h-5.9c-1.1,0.0-2.0-0.9-2.0-2.0s0.9-2.0,2.0-2.0h5.9c1.1,0.0,2.0,0.9,2.0,2.0S312.0,7.6,310.8,7.6zM293.2,7.6h-5.9c-1.1,0.0-2.0-0.9-2.0-2.0s0.9-2.0,2.0-2.0h5.9c1.1,0.0,2.0,0.9,2.0,2.0S294.3,7.6,293.2,7.6zM275.5,7.6h-5.9c-1.1,0.0-2.0-0.9-2.0-2.0s0.9-2.0,2.0-2.0h5.9c1.1,0.0,2.0,0.9,2.0,2.0S276.6,7.6,275.5,7.6zM257.8,7.6h-5.9c-1.1,0.0-2.0-0.9-2.0-2.0s0.9-2.0,2.0-2.0h5.9c1.1,0.0,2.0,0.9,2.0,2.0S258.9,7.6,257.8,7.6zM240.1,7.6h-5.9c-1.1,0.0-2.0-0.9-2.0-2.0s0.9-2.0,2.0-2.0h5.9c1.1,0.0,2.0,0.9,2.0,2.0S241.2,7.6,240.1,7.6zM222.4,7.6h-5.9c-1.1,0.0-2.0-0.9-2.0-2.0s0.9-2.0,2.0-2.0h5.9c1.1,0.0,2.0,0.9,2.0,2.0S223.5,7.6,222.4,7.6zM204.7,7.6h-5.9c-1.1,0.0-2.0-0.9-2.0-2.0s0.9-2.0,2.0-2.0h5.9c1.1,0.0,2.0,0.9,2.0,2.0S205.8,7.6,204.7,7.6zM187.0,7.6h-5.9c-1.1,0.0-2.0-0.9-2.0-2.0s0.9-2.0,2.0-2.0h5.9c1.1,0.0,2.0,0.9,2.0,2.0S188.1,7.6,187.0,7.6zM169.3,7.6h-5.9c-1.1,0.0-2.0-0.9-2.0-2.0s0.9-2.0,2.0-2.0h5.9c1.1,0.0,2.0,0.9,2.0,2.0S170.4,7.6,169.3,7.6zM151.6,7.6h-5.9c-1.1,0.0-2.0-0.9-2.0-2.0s0.9-2.0,2.0-2.0h5.9c1.1,0.0,2.0,0.9,2.0,2.0S152.7,7.6,151.6,7.6zM133.9,7.6h-5.9c-1.1,0.0-2.0-0.9-2.0-2.0s0.9-2.0,2.0-2.0h5.9c1.1,0.0,2.0,0.9,2.0,2.0S135.0,7.6,133.9,7.6zM116.2,7.6h-5.9c-1.1,0.0-2.0-0.9-2.0-2.0s0.9-2.0,2.0-2.0h5.9c1.1,0.0,2.0,0.9,2.0,2.0S117.4,7.6,116.2,7.6zM98.6,7.6h-5.9c-1.1,0.0-2.0-0.9-2.0-2.0s0.9-2.0,2.0-2.0h5.9c1.1,0.0,2.0,0.9,2.0,2.0S99.7,7.6,98.6,7.6zM80.9,7.6h-5.9c-1.1,0.0-2.0-0.9-2.0-2.0s0.9-2.0,2.0-2.0h5.9c1.1,0.0,2.0,0.9,2.0,2.0S82.0,7.6,80.9,7.6zM63.2,7.6h-5.9c-1.1,0.0-2.0-0.9-2.0-2.0s0.9-2.0,2.0-2.0h5.9c1.1,0.0,2.0,0.9,2.0,2.0S64.3,7.6,63.2,7.6zM45.5,7.6h-5.9c-1.1,0.0-2.0-0.9-2.0-2.0s0.9-2.0,2.0-2.0h5.9c1.1,0.0,2.0,0.9,2.0,2.0S46.6,7.6,45.5,7.6zM27.8,7.6h-5.9c-1.1,0.0-2.0-0.9-2.0-2.0s0.9-2.0,2.0-2.0h5.9c1.1,0.0,2.0,0.9,2.0,2.0S28.9,7.6,27.8,7.6z"/>
		<path opacity="0.5" fill="#FFFFFF" d="M661.8,10.6c-1.1,0.0-2.0-0.9-2.0-2.0v-1.0h-1.0c-1.1,0.0-2.0-0.9-2.0-2.0s0.9-2.0,2.0-2.0h3.0c1.1,0.0,2.0,0.9,2.0,2.0v3.0C663.8,9.7,662.9,10.6,661.8,10.6z"/>
		<path opacity="0.5" fill="#FFFFFF" d="M661.8,100.1c-1.1,0.0-2.0-0.9-2.0-2.0v-6.0c0.0-1.1,0.9-2.0,2.0-2.0s2.0,0.9,2.0,2.0v6.0C663.8,99.2,662.9,100.1,661.8,100.1zM661.8,82.2c-1.1,0.0-2.0-0.9-2.0-2.0v-6.0c0.0-1.1,0.9-2.0,2.0-2.0s2.0,0.9,2.0,2.0v6.0C663.8,81.3,662.9,82.2,661.8,82.2zM661.8,64.3c-1.1,0.0-2.0-0.9-2.0-2.0v-6.0c0.0-1.1,0.9-2.0,2.0-2.0s2.0,0.9,2.0,2.0v6.0C663.8,63.4,662.9,64.3,661.8,64.3zM661.8,46.4c-1.1,0.0-2.0-0.9-2.0-2.0v-6.0c0.0-1.1,0.9-2.0,2.0-2.0s2.0,0.9,2.0,2.0v6.0C663.8,45.5,662.9,46.4,661.8,46.4zM661.8,28.5c-1.1,0.0-2.0-0.9-2.0-2.0v-6.0c0.0-1.1,0.9-2.0,2.0-2.0s2.0,0.9,2.0,2.0v6.0C663.8,27.6,662.9,28.5,661.8,28.5z"/>
		<circle fill="#00FFFF" cx="658.8" cy="111.7" r="5" opacity="0"/>
	</g>
</svg>
