<?xml version='1.0' encoding='UTF-8'?>
<svg xmlns="http://www.w3.org/2000/svg" xmlns:xlink="http://www.w3.org/1999/xlink" width="74" height="122"><g id="bundle5">
		<g id="XMLID_14432_">
			<g id="XMLID_14439_">
				<path fill="#034C87" d="M34.5,74.8c-0.1-6.4-0.1-12.9-0.2-19.3c-0.2-16.3-0.7-32.5-0.5-48.8c0.0-3.2-2.7-5.8-5.8-5.8c-3.2,0.0-5.8,2.6-5.8,5.8c-0.2,16.0,0.3,32.0,0.5,48.0c0.1,6.5,0.1,13.0,0.2,19.5c0.1,4.9,0.4,10.0-0.1,14.9c-0.3,3.1,2.9,5.8,5.8,5.8c3.4,0.0,5.5-2.7,5.8-5.8C34.8,84.4,34.5,79.6,34.5,74.8z"/>
			</g>
			<g id="XMLID_14438_">
				<path fill="#043B60" d="M28.2,79.9c-0.6-9.5-0.9-18.9-0.8-28.4c0.3-16.9,1.5-33.8,1.2-50.6c-0.2,0.0-0.4,0.0-0.6,0.0c-3.2,0.0-5.8,2.6-5.8,5.8c-0.2,16.0,0.3,32.0,0.5,48.0c0.1,6.5,0.1,13.0,0.2,19.5c0.1,4.9,0.4,10.0-0.1,14.9c-0.3,3.1,2.8,5.7,5.7,5.8C28.8,90.0,28.6,84.9,28.2,79.9z"/>
			</g>
			<g id="XMLID_14437_">
				<path fill="#0B549E" d="M32.6,17.0c0.1-1.7-2.6-1.7-2.7,0.0c-0.2,3.5,0.2,7.1,0.0,10.6c-0.1,1.7,2.6,1.7,2.7,0.0C32.7,24.0,32.4,20.5,32.6,17.0z"/>
			</g>
			<g id="XMLID_14436_">
				<path fill="#0B549E" d="M33.3,78.4c0.1-1.7-2.6-1.7-2.7,0.0c-0.2,3.5,0.1,7.1,0.0,10.6c-0.1,1.7,2.6,1.7,2.7,0.0C33.5,85.5,33.1,81.9,33.3,78.4z"/>
			</g>
			<g id="XMLID_14435_">
				<path fill="#5DB2E8" d="M33.8,7.7c0.0-0.3,0.0-0.7,0.0-1.0c0.0-3.2-2.7-5.8-5.8-5.8c-3.2,0.0-5.8,2.6-5.8,5.8c0.0,0.4,0.0,0.8,0.0,1.2c0.5,1.3,1.4,2.4,2.6,3.1c1.4,0.8,3.2,1.1,4.8,0.6c0.5-0.2,1.0-0.4,1.5-0.6c0.9-0.5,1.7-1.3,2.2-2.2C33.5,8.4,33.7,8.1,33.8,7.7z"/>
			</g>
			<g id="XMLID_14434_">
				<path fill="#0B549E" d="M31.3,29.9c-0.8,0.0-1.0,0.7-1.0,1.5v2.7c0.0,0.8,0.2,1.5,1.0,1.5c0.8,0.0,1.0-0.7,1.0-1.5v-2.7C32.3,30.6,32.2,29.9,31.3,29.9z"/>
			</g>
			<g id="XMLID_14433_">
				<path fill="#83D5FF" d="M31.1,10.9c0.9-0.5,1.7-1.3,2.2-2.2c0.2-0.3,0.4-0.6,0.5-1.0c0.0-0.3,0.0-0.7,0.0-1.0c0.0-3.2-2.7-5.8-5.8-5.8c-0.8,0.0-1.6,0.2-2.3,0.5c-0.1,0.4-0.1,0.8-0.2,1.1c-0.2,2.9,0.2,5.7,2.3,8.5c0.2,0.3,0.4,0.5,0.7,0.8c0.4,0.0,0.8-0.1,1.1-0.2C30.1,11.4,30.6,11.2,31.1,10.9z"/>
			</g>
		</g>
		<g id="XMLID_14424_">
			<g id="XMLID_14431_">
				<path fill="#034C87" d="M48.4,74.8c-0.1-6.4-0.1-12.9-0.2-19.3c-0.2-16.3-0.7-32.5-0.5-48.8c0.0-3.2-2.7-5.8-5.8-5.8c-3.2,0.0-5.8,2.6-5.8,5.8c-0.2,16.0,0.3,32.0,0.5,48.0c0.1,6.5,0.1,13.0,0.2,19.5c0.1,4.9,0.4,10.0-0.1,14.9c-0.3,3.1,2.9,5.8,5.8,5.8c3.4,0.0,5.5-2.7,5.8-5.8C48.7,84.4,48.5,79.6,48.4,74.8z"/>
			</g>
			<g id="XMLID_14430_">
				<path fill="#043B60" d="M42.2,79.9c-0.7-9.5-0.9-18.9-0.8-28.4c0.3-16.9,1.5-33.8,1.2-50.6c-0.2,0.0-0.4,0.0-0.6,0.0c-3.2,0.0-5.8,2.6-5.8,5.8c-0.2,16.0,0.3,32.0,0.5,48.0c0.1,6.5,0.1,13.0,0.2,19.5c0.1,4.9,0.4,10.0-0.1,14.9c-0.3,3.1,2.8,5.7,5.7,5.8C42.8,90.0,42.5,84.9,42.2,79.9z"/>
			</g>
			<g id="XMLID_14429_">
				<path fill="#0B549E" d="M46.5,17.0c0.1-1.7-2.6-1.7-2.7,0.0c-0.2,3.5,0.1,7.1,0.0,10.6c-0.1,1.7,2.6,1.7,2.7,0.0C46.6,24.0,46.3,20.5,46.5,17.0z"/>
			</g>
			<g id="XMLID_14428_">
				<path fill="#0B549E" d="M47.3,78.4c0.1-1.7-2.6-1.7-2.7,0.0c-0.2,3.5,0.2,7.1,0.0,10.6c-0.1,1.7,2.6,1.7,2.7,0.0C47.4,85.5,47.1,81.9,47.3,78.4z"/>
			</g>
			<g id="XMLID_14427_">
				<path fill="#5DB2E8" d="M47.7,7.7c0.0-0.3,0.0-0.7,0.0-1.0c0.0-3.2-2.7-5.8-5.8-5.8c-3.2,0.0-5.8,2.6-5.8,5.8c0.0,0.4,0.0,0.8,0.0,1.2c0.5,1.3,1.4,2.4,2.6,3.1c1.4,0.8,3.2,1.1,4.8,0.6c0.5-0.2,1.0-0.4,1.5-0.6c0.9-0.5,1.7-1.3,2.2-2.2C47.4,8.4,47.6,8.1,47.7,7.7z"/>
			</g>
			<g id="XMLID_14426_">
				<path fill="#0B549E" d="M45.3,29.9c-0.8,0.0-2.0,0.7-2.0,1.5v2.7c0.0,0.8,1.2,1.5,2.0,1.5c0.8,0.0,2.0-0.7,2.0-1.5v-2.7C47.3,30.6,46.2,29.9,45.3,29.9z"/>
			</g>
			<g id="XMLID_14425_">
				<path fill="#83D5FF" d="M45.0,10.9c0.9-0.5,1.7-1.3,2.2-2.2c0.2-0.3,0.4-0.6,0.5-1.0c0.0-0.3,0.0-0.7,0.0-1.0c0.0-3.2-2.7-5.8-5.8-5.8c-0.8,0.0-1.6,0.2-2.3,0.5c-0.1,0.4-0.1,0.8-0.2,1.1c-0.2,2.9,0.2,5.7,2.3,8.5c0.2,0.3,0.4,0.5,0.7,0.8c0.4,0.0,0.8-0.1,1.1-0.2C44.0,11.4,44.5,11.2,45.0,10.9z"/>
			</g>
		</g>
		<g id="XMLID_14416_">
			<g id="XMLID_14423_">
				<path fill="#034C87" d="M62.3,74.8c-0.1-6.4-0.1-12.9-0.2-19.3c-0.2-16.3-0.7-32.5-0.5-48.8c0.0-3.2-2.7-5.8-5.8-5.8c-3.2,0.0-5.8,2.6-5.8,5.8c-0.2,16.0,0.3,32.0,0.5,48.0c0.1,6.5,0.1,13.0,0.2,19.5c0.1,4.9,0.4,10.0-0.1,14.9c-0.3,3.1,2.9,5.8,5.8,5.8c3.4,0.0,5.5-2.7,5.8-5.8C62.6,84.4,62.4,79.6,62.3,74.8z"/>
			</g>
			<g id="XMLID_14422_">
				<path fill="#043B60" d="M56.1,79.9c-0.6-9.5-0.9-18.9-0.8-28.4c0.3-16.9,1.5-33.8,1.2-50.6c-0.2,0.0-0.4,0.0-0.6,0.0c-3.2,0.0-5.8,2.6-5.8,5.8c-0.2,16.0,0.3,32.0,0.5,48.0c0.1,6.5,0.1,13.0,0.2,19.5c0.1,4.9,0.4,10.0-0.1,14.9c-0.3,3.1,2.8,5.7,5.7,5.8C56.7,90.0,56.4,84.9,56.1,79.9z"/>
			</g>
			<g id="XMLID_14421_">
				<path fill="#0B549E" d="M60.4,17.0c0.1-1.7-2.6-1.7-2.7,0.0c-0.2,3.5,0.1,7.1,0.0,10.6c-0.1,1.7,2.6,1.7,2.7,0.0C60.6,24.0,60.2,20.5,60.4,17.0z"/>
			</g>
			<g id="XMLID_14420_">
				<path fill="#0B549E" d="M61.2,78.4c0.1-1.7-2.6-1.7-2.7,0.0c-0.2,3.5,0.1,7.1,0.0,10.6c-0.1,1.7,2.6,1.7,2.7,0.0C61.3,85.5,61.0,81.9,61.2,78.4z"/>
			</g>
			<g id="XMLID_14419_">
				<path fill="#5DB2E8" d="M61.6,7.7c0.0-0.3,0.0-0.7,0.0-1.0c0.0-3.2-2.7-5.8-5.8-5.8c-3.2,0.0-5.8,2.6-5.8,5.8c0.0,0.4,0.0,0.8,0.0,1.2c0.5,1.3,1.4,2.4,2.6,3.1c1.4,0.8,3.2,1.1,4.8,0.6c0.5-0.2,1.0-0.4,1.5-0.6c0.9-0.5,1.7-1.3,2.2-2.2C61.3,8.4,61.5,8.1,61.6,7.7z"/>
			</g>
			<g id="XMLID_14418_">
				<path fill="#0B549E" d="M59.3,29.9c-0.8,0.0-1.0,0.7-1.0,1.5v2.7c0.0,0.8,0.2,1.5,1.0,1.5c0.8,0.0,1.0-0.7,1.0-1.5v-2.7C60.3,30.6,60.2,29.9,59.3,29.9z"/>
			</g>
			<g id="XMLID_14417_">
				<path fill="#83D5FF" d="M58.9,10.9c0.9-0.5,1.7-1.3,2.2-2.2c0.2-0.3,0.4-0.6,0.5-1.0c0.0-0.3,0.0-0.7,0.0-1.0c0.0-3.2-2.7-5.8-5.8-5.8c-0.8,0.0-1.6,0.2-2.3,0.5c-0.1,0.4-0.1,0.8-0.2,1.1c-0.2,2.9,0.2,5.7,2.3,8.5c0.2,0.3,0.4,0.5,0.7,0.8c0.4,0.0,0.8-0.1,1.1-0.2C57.9,11.4,58.4,11.2,58.9,10.9z"/>
			</g>
		</g>
		<g id="XMLID_14408_">
			<g id="XMLID_14415_">
				<path fill="#0B549E" d="M27.1,86.8c-0.1-6.4-0.1-12.9-0.2-19.3c-0.2-16.3-0.7-32.5-0.5-48.8c0.0-3.2-2.7-5.8-5.8-5.8c-3.2,0.0-5.8,2.6-5.8,5.8c-0.2,16.0,0.3,32.0,0.5,48.0c0.1,6.5,0.1,13.0,0.2,19.5c0.1,4.9,0.4,10.0-0.1,14.9c-0.3,3.1,2.9,5.8,5.8,5.8c3.4,0.0,5.5-2.7,5.8-5.8C27.5,96.4,27.2,91.5,27.1,86.8z"/>
			</g>
			<g id="XMLID_14414_">
				<path fill="#044275" d="M20.9,91.9c-0.6-9.5-0.9-18.9-0.8-28.4c0.3-16.9,1.5-33.8,1.2-50.6c-0.2,0.0-0.4,0.0-0.6,0.0c-3.2,0.0-5.8,2.6-5.8,5.8c-0.2,16.0,0.3,32.0,0.5,48.0c0.1,6.5,0.1,13.0,0.2,19.5c0.1,4.9,0.4,10.0-0.1,14.9c-0.3,3.1,2.8,5.7,5.7,5.8C21.5,101.9,21.2,96.8,20.9,91.9z"/>
			</g>
			<g id="XMLID_14413_">
				<path fill="#2165B5" d="M25.2,28.9c0.1-1.7-2.6-1.7-2.7,0.0c-0.2,3.5,0.1,7.1,0.0,10.6c-0.1,1.7,2.6,1.7,2.7,0.0C25.4,36.0,25.0,32.5,25.2,28.9z"/>
			</g>
			<g id="XMLID_14412_">
				<path fill="#2165B5" d="M26.0,90.4c0.1-1.7-2.6-1.7-2.7,0.0c-0.2,3.5,0.1,7.1,0.0,10.6c-0.1,1.7,2.6,1.7,2.7,0.0C26.2,97.5,25.8,93.9,26.0,90.4z"/>
			</g>
			<g id="XMLID_14411_">
				<path fill="#5DB2E8" d="M26.4,19.7c0.0-0.3,0.0-0.7,0.0-1.0c0.0-3.2-2.7-5.8-5.8-5.8c-3.2,0.0-5.8,2.6-5.8,5.8c0.0,0.4,0.0,0.8,0.0,1.2c0.5,1.3,1.4,2.4,2.6,3.1c1.4,0.8,3.2,1.1,4.8,0.6c0.5-0.2,1.0-0.4,1.5-0.6c0.9-0.5,1.7-1.3,2.2-2.2C26.2,20.4,26.3,20.1,26.4,19.7z"/>
			</g>
			<g id="XMLID_14410_">
				<path fill="#2165B5" d="M23.8,41.9c-0.8,0.0-1.5,0.7-1.5,1.5v2.7c0.0,0.8,0.7,1.5,1.5,1.5c0.8,0.0,1.5-0.7,1.5-1.5v-2.7C25.3,42.6,24.6,41.9,23.8,41.9z"/>
			</g>
			<g id="XMLID_14409_">
				<path fill="#83D5FF" d="M23.8,22.9c0.9-0.5,1.7-1.3,2.2-2.2c0.2-0.3,0.4-0.6,0.5-1.0c0.0-0.3,0.0-0.7,0.0-1.0c0.0-3.2-2.7-5.8-5.8-5.8c-0.8,0.0-1.6,0.2-2.3,0.5c-0.1,0.4-0.1,0.8-0.2,1.1c-0.2,2.9,0.2,5.7,2.3,8.5c0.2,0.3,0.4,0.5,0.7,0.8c0.4,0.0,0.8-0.1,1.1-0.2C22.8,23.4,23.3,23.2,23.8,22.9z"/>
			</g>
		</g>
		<g id="XMLID_14400_">
			<g id="XMLID_14407_">
				<path fill="#0B549E" d="M41.4,86.8c-0.1-6.4-0.1-12.9-0.2-19.3c-0.2-16.3-0.7-32.5-0.5-48.8c0.0-3.2-2.7-5.8-5.8-5.8c-3.2,0.0-5.8,2.6-5.8,5.8c-0.2,16.0,0.3,32.0,0.5,48.0c0.1,6.5,0.1,13.0,0.2,19.5c0.1,4.9,0.4,10.0-0.1,14.9c-0.3,3.1,2.9,5.8,5.8,5.8c3.4,0.0,5.5-2.7,5.8-5.8C41.8,96.4,41.5,91.5,41.4,86.8z"/>
			</g>
			<g id="XMLID_14406_">
				<path fill="#044275" d="M35.2,91.9c-0.6-9.5-0.9-18.9-0.8-28.4c0.3-16.9,1.5-33.8,1.2-50.6c-0.2,0.0-0.4,0.0-0.6,0.0c-3.2,0.0-5.8,2.6-5.8,5.8c-0.2,16.0,0.3,32.0,0.5,48.0c0.1,6.5,0.1,13.0,0.2,19.5c0.1,4.9,0.4,10.0-0.1,14.9c-0.3,3.1,2.8,5.7,5.7,5.8C35.8,101.9,35.5,96.8,35.2,91.9z"/>
			</g>
			<g id="XMLID_14405_">
				<path fill="#2165B5" d="M39.5,28.9c0.1-1.7-2.6-1.7-2.7,0.0c-0.2,3.5,0.1,7.1,0.0,10.6c-0.1,1.7,2.6,1.7,2.7,0.0C39.7,36.0,39.3,32.5,39.5,28.9z"/>
			</g>
			<g id="XMLID_14404_">
				<path fill="#2165B5" d="M40.3,90.4c0.1-1.7-2.6-1.7-2.7,0.0c-0.2,3.5,0.1,7.1,0.0,10.6c-0.1,1.7,2.6,1.7,2.7,0.0C40.5,97.5,40.1,93.9,40.3,90.4z"/>
			</g>
			<g id="XMLID_14403_">
				<path fill="#5DB2E8" d="M40.7,19.7c0.0-0.3,0.0-0.7,0.0-1.0c0.0-3.2-2.7-5.8-5.8-5.8c-3.2,0.0-5.8,2.6-5.8,5.8c0.0,0.4,0.0,0.8,0.0,1.2c0.5,1.3,1.4,2.4,2.6,3.1c1.4,0.8,3.2,1.1,4.8,0.6c0.5-0.2,1.0-0.4,1.5-0.6c0.9-0.5,1.7-1.3,2.2-2.2C40.5,20.4,40.6,20.1,40.7,19.7z"/>
			</g>
			<g id="XMLID_14402_">
				<path fill="#2165B5" d="M38.3,41.9c-0.8,0.0-1.0,0.7-1.0,1.5v2.7c0.0,0.8,0.2,1.5,1.0,1.5c0.8,0.0,1.0-0.7,1.0-1.5v-2.7C39.3,42.6,39.2,41.9,38.3,41.9z"/>
			</g>
			<g id="XMLID_14401_">
				<path fill="#83D5FF" d="M38.1,22.9c0.9-0.5,1.7-1.3,2.2-2.2c0.2-0.3,0.4-0.6,0.5-1.0c0.0-0.3,0.0-0.7,0.0-1.0c0.0-3.2-2.7-5.8-5.8-5.8c-0.8,0.0-1.6,0.2-2.3,0.5c-0.1,0.4-0.1,0.8-0.2,1.1c-0.2,2.9,0.2,5.7,2.3,8.5c0.2,0.3,0.4,0.5,0.7,0.8c0.4,0.0,0.8-0.1,1.1-0.2C37.1,23.4,37.6,23.2,38.1,22.9z"/>
			</g>
		</g>
		<g id="XMLID_14392_">
			<g id="XMLID_14399_">
				<path fill="#0B549E" d="M56.5,86.8c-0.1-6.4-0.1-12.9-0.2-19.3c-0.2-16.3-0.7-32.5-0.5-48.8c0.0-3.2-2.7-5.8-5.8-5.8c-3.2,0.0-5.8,2.6-5.8,5.8c-0.2,16.0,0.3,32.0,0.5,48.0c0.1,6.5,0.1,13.0,0.2,19.5c0.1,4.9,0.4,10.0-0.1,14.9c-0.3,3.1,2.9,5.8,5.8,5.8c3.4,0.0,5.5-2.7,5.8-5.8C56.8,96.4,56.6,91.5,56.5,86.8z"/>
			</g>
			<g id="XMLID_14398_">
				<path fill="#044275" d="M50.3,91.9c-0.6-9.5-0.9-18.9-0.8-28.4c0.3-16.9,1.5-33.8,1.2-50.6c-0.2,0.0-0.4,0.0-0.6,0.0c-3.2,0.0-5.8,2.6-5.8,5.8c-0.2,16.0,0.3,32.0,0.5,48.0c0.1,6.5,0.1,13.0,0.2,19.5c0.1,4.9,0.4,10.0-0.1,14.9c-0.3,3.1,2.8,5.7,5.7,5.8C50.9,101.9,50.6,96.8,50.3,91.9z"/>
			</g>
			<g id="XMLID_14397_">
				<path fill="#2165B5" d="M54.6,28.9c0.1-1.7-2.6-1.7-2.7,0.0c-0.2,3.5,0.1,7.1,0.0,10.6c-0.1,1.7,2.6,1.7,2.7,0.0C54.8,36.0,54.4,32.5,54.6,28.9z"/>
			</g>
			<g id="XMLID_14396_">
				<path fill="#2165B5" d="M55.4,90.4c0.1-1.7-2.6-1.7-2.7,0.0c-0.2,3.5,0.2,7.1,0.0,10.6c-0.1,1.7,2.6,1.7,2.7,0.0C55.5,97.5,55.2,93.9,55.4,90.4z"/>
			</g>
			<g id="XMLID_14395_">
				<path fill="#5DB2E8" d="M55.8,19.7c0.0-0.3,0.0-0.7,0.0-1.0c0.0-3.2-2.7-5.8-5.8-5.8c-3.2,0.0-5.8,2.6-5.8,5.8c0.0,0.4,0.0,0.8,0.0,1.2c0.5,1.3,1.4,2.4,2.6,3.1c1.4,0.8,3.2,1.1,4.8,0.6c0.5-0.2,1.0-0.4,1.5-0.6c0.9-0.5,1.7-1.3,2.2-2.2C55.5,20.4,55.7,20.1,55.8,19.7z"/>
			</g>
			<g id="XMLID_14394_">
				<path fill="#2165B5" d="M52.3,41.9c-0.8,0.0-1.0,0.7-1.0,1.5v2.7c0.0,0.8,0.2,1.5,1.0,1.5c0.8,0.0,1.0-0.7,1.0-1.5v-2.7C53.3,42.6,53.2,41.9,52.3,41.9z"/>
			</g>
			<g id="XMLID_14393_">
				<path fill="#83D5FF" d="M53.1,22.9c0.9-0.5,1.7-1.3,2.2-2.2c0.2-0.3,0.4-0.6,0.5-1.0c0.0-0.3,0.0-0.7,0.0-1.0c0.0-3.2-2.7-5.8-5.8-5.8c-0.8,0.0-1.6,0.2-2.3,0.5c-0.1,0.4-0.1,0.8-0.2,1.1c-0.2,2.9,0.2,5.7,2.3,8.5c0.2,0.3,0.4,0.5,0.7,0.8c0.4,0.0,0.8-0.1,1.1-0.2C52.1,23.4,52.6,23.2,53.1,22.9z"/>
			</g>
		</g>
		<g id="XMLID_14384_">
			<g id="XMLID_14391_">
				<path fill="#0B549E" d="M70.4,86.8c-0.1-6.4-0.1-12.9-0.2-19.3c-0.2-16.3-0.7-32.5-0.5-48.8c0.0-3.2-2.7-5.8-5.8-5.8c-3.2,0.0-5.8,2.6-5.8,5.8c-0.2,16.0,0.3,32.0,0.5,48.0c0.1,6.5,0.1,13.0,0.2,19.5c0.1,4.9,0.4,10.0-0.1,14.9c-0.3,3.1,2.9,5.8,5.8,5.8c3.4,0.0,5.5-2.7,5.8-5.8C70.7,96.4,70.5,91.5,70.4,86.8z"/>
			</g>
			<g id="XMLID_14390_">
				<path fill="#044275" d="M64.2,91.9c-0.6-9.5-0.9-18.9-0.8-28.4c0.3-16.9,1.5-33.8,1.2-50.6c-0.2,0.0-0.4,0.0-0.6,0.0c-3.2,0.0-5.8,2.6-5.8,5.8c-0.2,16.0,0.3,32.0,0.5,48.0c0.1,6.5,0.1,13.0,0.2,19.5c0.1,4.9,0.4,10.0-0.1,14.9c-0.3,3.1,2.8,5.7,5.7,5.8C64.8,101.9,64.5,96.8,64.2,91.9z"/>
			</g>
			<g id="XMLID_14389_">
				<path fill="#2165B5" d="M68.5,28.9c0.1-1.7-2.6-1.7-2.7,0.0c-0.2,3.5,0.1,7.1,0.0,10.6c-0.1,1.7,2.6,1.7,2.7,0.0C68.7,36.0,68.3,32.5,68.5,28.9z"/>
			</g>
			<g id="XMLID_14388_">
				<path fill="#2165B5" d="M69.3,90.4c0.1-1.7-2.6-1.7-2.7,0.0c-0.2,3.5,0.2,7.1,0.0,10.6c-0.1,1.7,2.6,1.7,2.7,0.0C69.4,97.5,69.1,93.9,69.3,90.4z"/>
			</g>
			<g id="XMLID_14387_">
				<path fill="#5DB2E8" d="M69.7,19.7c0.0-0.3,0.0-0.7,0.0-1.0c0.0-3.2-2.7-5.8-5.8-5.8c-3.2,0.0-5.8,2.6-5.8,5.8c0.0,0.4,0.0,0.8,0.0,1.2c0.5,1.3,1.4,2.4,2.6,3.1c1.4,0.8,3.2,1.1,4.8,0.6c0.5-0.2,1.0-0.4,1.5-0.6c0.9-0.5,1.7-1.3,2.2-2.2C69.5,20.4,69.6,20.1,69.7,19.7z"/>
			</g>
			<g id="XMLID_14386_">
				<path fill="#2165B5" d="M67.3,41.9c-0.8,0.0-1.0,0.7-1.0,1.5v2.7c0.0,0.8,0.2,1.5,1.0,1.5c0.8,0.0,1.0-0.7,1.0-1.5v-2.7C68.3,42.6,68.2,41.9,67.3,41.9z"/>
			</g>
			<g id="XMLID_14385_">
				<path fill="#83D5FF" d="M67.0,22.9c0.9-0.5,1.7-1.3,2.2-2.2c0.2-0.3,0.4-0.6,0.5-1.0c0.0-0.3,0.0-0.7,0.0-1.0c0.0-3.2-2.7-5.8-5.8-5.8c-0.8,0.0-1.6,0.2-2.3,0.5c-0.1,0.4-0.1,0.8-0.2,1.1c-0.2,2.9,0.2,5.7,2.3,8.5c0.2,0.3,0.4,0.5,0.7,0.8c0.4,0.0,0.8-0.1,1.1-0.2C66.0,23.4,66.6,23.2,67.0,22.9z"/>
			</g>
		</g>
		<g id="XMLID_14376_">
			<g id="XMLID_14383_">
				<path fill="#3079C7" d="M34.5,98.8c-0.1-6.4-0.1-12.9-0.2-19.3c-0.2-16.3-0.7-32.5-0.5-48.8c0.0-3.2-2.7-5.8-5.8-5.8c-3.2,0.0-5.8,2.6-5.8,5.8c-0.2,16.0,0.3,32.0,0.5,48.0c0.1,6.5,0.1,13.0,0.2,19.5c0.1,4.9,0.4,10.0-0.1,14.9c-0.3,3.1,2.9,5.8,5.8,5.8c3.4,0.0,5.5-2.7,5.8-5.8C34.8,108.4,34.5,103.5,34.5,98.8z"/>
			</g>
			<g id="XMLID_14382_">
				<path fill="#094D91" d="M28.2,103.9c-0.6-9.5-0.9-18.9-0.8-28.4c0.3-16.9,1.5-33.8,1.2-50.6c-0.2,0.0-0.4,0.0-0.6,0.0c-3.2,0.0-5.8,2.6-5.8,5.8c-0.2,16.0,0.3,32.0,0.5,48.0c0.1,6.5,0.1,13.0,0.2,19.5c0.1,4.9,0.4,10.0-0.1,14.9c-0.3,3.1,2.8,5.7,5.7,5.8C28.8,113.9,28.6,108.8,28.2,103.9z"/>
			</g>
			<g id="XMLID_14381_">
				<path fill="#3C89CE" d="M32.6,40.9c0.1-1.7-2.6-1.7-2.7,0.0c-0.2,3.5,0.2,7.1,0.0,10.6c-0.1,1.7,2.6,1.7,2.7,0.0C32.7,48.0,32.4,44.5,32.6,40.9z"/>
			</g>
			<g id="XMLID_14380_">
				<path fill="#3C89CE" d="M33.3,102.4c0.1-1.7-2.6-1.7-2.7,0.0c-0.2,3.5,0.1,7.1,0.0,10.6c-0.1,1.7,2.6,1.7,2.7,0.0C33.5,109.4,33.1,105.9,33.3,102.4z"/>
			</g>
			<g id="XMLID_14379_">
				<path fill="#5DB2E8" d="M33.8,31.7c0.0-0.3,0.0-0.7,0.0-1.0c0.0-3.2-2.7-5.8-5.8-5.8c-3.2,0.0-5.8,2.6-5.8,5.8c0.0,0.4,0.0,0.8,0.0,1.2c0.5,1.3,1.4,2.4,2.6,3.0c1.4,0.8,3.2,1.1,4.8,0.6c0.5-0.2,1.0-0.4,1.5-0.6c0.9-0.5,1.7-1.3,2.2-2.2C33.5,32.4,33.7,32.0,33.8,31.7z"/>
			</g>
			<g id="XMLID_14378_">
				<path fill="#3C89CE" d="M31.3,53.9c-0.8,0.0-1.0,0.7-1.0,1.5v2.7c0.0,0.8,0.2,1.5,1.0,1.5c0.8,0.0,1.0-0.7,1.0-1.5v-2.7C32.3,54.6,32.2,53.9,31.3,53.9z"/>
			</g>
			<g id="XMLID_14377_">
				<path fill="#83D5FF" d="M31.1,34.9c0.9-0.5,1.7-1.3,2.2-2.2c0.2-0.3,0.4-0.6,0.5-1.0c0.0-0.3,0.0-0.7,0.0-1.0c0.0-3.2-2.7-5.8-5.8-5.8c-0.8,0.0-1.6,0.2-2.3,0.5c-0.1,0.4-0.1,0.8-0.2,1.1c-0.2,2.9,0.2,5.7,2.3,8.5c0.2,0.3,0.4,0.5,0.7,0.8c0.4,0.0,0.8-0.1,1.1-0.2C30.1,35.4,30.6,35.2,31.1,34.9z"/>
			</g>
		</g>
		<g id="XMLID_14368_">
			<g id="XMLID_14375_">
				<path fill="#3079C7" d="M48.8,98.8c-0.1-6.4-0.1-12.9-0.2-19.3c-0.2-16.3-0.7-32.5-0.5-48.8c0.0-3.2-2.7-5.8-5.8-5.8c-3.2,0.0-5.8,2.6-5.8,5.8c-0.2,16.0,0.3,32.0,0.5,48.0c0.1,6.5,0.1,13.0,0.2,19.5c0.1,4.9,0.4,10.0-0.1,14.9c-0.3,3.1,2.9,5.8,5.8,5.8c3.4,0.0,5.5-2.7,5.8-5.8C49.1,108.4,48.8,103.5,48.8,98.8z"/>
			</g>
			<g id="XMLID_14374_">
				<path fill="#094D91" d="M42.5,103.9c-0.6-9.5-0.9-18.9-0.8-28.4c0.3-16.9,1.5-33.8,1.2-50.6c-0.2,0.0-0.4,0.0-0.6,0.0c-3.2,0.0-5.8,2.6-5.8,5.8c-0.2,16.0,0.3,32.0,0.5,48.0c0.1,6.5,0.1,13.0,0.2,19.5c0.1,4.9,0.4,10.0-0.1,14.9c-0.3,3.1,2.8,5.7,5.7,5.8C43.1,113.9,42.9,108.8,42.5,103.9z"/>
			</g>
			<g id="XMLID_14373_">
				<path fill="#3C89CE" d="M46.9,40.9c0.1-1.7-2.6-1.7-2.7,0.0c-0.2,3.5,0.1,7.1,0.0,10.6c-0.1,1.7,2.6,1.7,2.7,0.0C47.0,48.0,46.7,44.5,46.9,40.9z"/>
			</g>
			<g id="XMLID_14372_">
				<path fill="#3C89CE" d="M47.6,102.4c0.1-1.7-2.6-1.7-2.7,0.0c-0.2,3.5,0.1,7.1,0.0,10.6c-0.1,1.7,2.6,1.7,2.7,0.0C47.8,109.4,47.4,105.9,47.6,102.4z"/>
			</g>
			<g id="XMLID_14371_">
				<path fill="#5DB2E8" d="M48.1,31.7c0.0-0.3,0.0-0.7,0.0-1.0c0.0-3.2-2.7-5.8-5.8-5.8c-3.2,0.0-5.8,2.6-5.8,5.8c0.0,0.4,0.0,0.8,0.0,1.2c0.5,1.3,1.4,2.4,2.6,3.0c1.4,0.8,3.2,1.1,4.8,0.6c0.5-0.2,1.0-0.4,1.5-0.6c0.9-0.5,1.7-1.3,2.2-2.2C47.8,32.4,48.0,32.0,48.1,31.7z"/>
			</g>
			<g id="XMLID_14370_">
				<path fill="#3C89CE" d="M45.3,53.9c-0.8,0.0-2.0,0.7-2.0,1.5v2.7c0.0,0.8,1.2,1.5,2.0,1.5c0.8,0.0,2.0-0.7,2.0-1.5v-2.7C47.3,54.6,46.2,53.9,45.3,53.9z"/>
			</g>
			<g id="XMLID_14369_">
				<path fill="#83D5FF" d="M45.4,34.9c0.9-0.5,1.7-1.3,2.2-2.2c0.2-0.3,0.4-0.6,0.5-1.0c0.0-0.3,0.0-0.7,0.0-1.0c0.0-3.2-2.7-5.8-5.8-5.8c-0.8,0.0-1.6,0.2-2.3,0.5c-0.1,0.4-0.1,0.8-0.2,1.1c-0.2,2.9,0.2,5.7,2.3,8.5c0.2,0.3,0.4,0.5,0.7,0.8c0.4,0.0,0.8-0.1,1.1-0.2C44.4,35.4,44.9,35.2,45.4,34.9z"/>
			</g>
		</g>
		<g id="XMLID_14360_">
			<g id="XMLID_14367_">
				<path fill="#3079C7" d="M63.1,98.8c-0.1-6.4-0.1-12.9-0.2-19.3c-0.2-16.3-0.7-32.5-0.5-48.8c0.0-3.2-2.7-5.8-5.8-5.8c-3.2,0.0-5.8,2.6-5.8,5.8c-0.2,16.0,0.3,32.0,0.5,48.0c0.1,6.5,0.1,13.0,0.2,19.5c0.1,4.9,0.4,10.0-0.1,14.9c-0.3,3.1,2.9,5.8,5.8,5.8c3.4,0.0,5.5-2.7,5.8-5.8C63.4,108.4,63.1,103.5,63.1,98.8z"/>
			</g>
			<g id="XMLID_14366_">
				<path fill="#094D91" d="M56.8,103.9c-0.6-9.5-0.9-18.9-0.8-28.4c0.3-16.9,1.5-33.8,1.2-50.6c-0.2,0.0-0.4,0.0-0.6,0.0c-3.2,0.0-5.8,2.6-5.8,5.8c-0.2,16.0,0.3,32.0,0.5,48.0c0.1,6.5,0.1,13.0,0.2,19.5c0.1,4.9,0.4,10.0-0.1,14.9c-0.3,3.1,2.8,5.7,5.7,5.8C57.4,113.9,57.2,108.8,56.8,103.9z"/>
			</g>
			<g id="XMLID_14365_">
				<path fill="#3C89CE" d="M61.2,40.9c0.1-1.7-2.6-1.7-2.7,0.0c-0.2,3.5,0.1,7.1,0.0,10.6c-0.1,1.7,2.6,1.7,2.7,0.0C61.3,48.0,61.0,44.5,61.2,40.9z"/>
			</g>
			<g id="XMLID_14364_">
				<path fill="#3C89CE" d="M61.9,102.4c0.1-1.7-2.6-1.7-2.7,0.0c-0.2,3.5,0.2,7.1,0.0,10.6c-0.1,1.7,2.6,1.7,2.7,0.0C62.1,109.4,61.7,105.9,61.9,102.4z"/>
			</g>
			<g id="XMLID_14363_">
				<path fill="#5DB2E8" d="M62.4,31.7c0.0-0.3,0.0-0.7,0.0-1.0c0.0-3.2-2.7-5.8-5.8-5.8c-3.2,0.0-5.8,2.6-5.8,5.8c0.0,0.4,0.0,0.8,0.0,1.2c0.5,1.3,1.4,2.4,2.6,3.0c1.4,0.8,3.2,1.1,4.8,0.6c0.5-0.2,1.0-0.4,1.5-0.6c0.9-0.5,1.7-1.3,2.2-2.2C62.1,32.4,62.3,32.0,62.4,31.7z"/>
			</g>
			<g id="XMLID_14362_">
				<path fill="#3C89CE" d="M59.8,53.9c-0.8,0.0-1.5,0.7-1.5,1.5v2.7c0.0,0.8,0.7,1.5,1.5,1.5c0.8,0.0,1.5-0.7,1.5-1.5v-2.7C61.3,54.6,60.7,53.9,59.8,53.9z"/>
			</g>
			<g id="XMLID_14361_">
				<path fill="#83D5FF" d="M59.7,34.9c0.9-0.5,1.7-1.3,2.2-2.2c0.2-0.3,0.4-0.6,0.5-1.0c0.0-0.3,0.0-0.7,0.0-1.0c0.0-3.2-2.7-5.8-5.8-5.8c-0.8,0.0-1.6,0.2-2.3,0.5c-0.1,0.4-0.1,0.8-0.2,1.1c-0.2,2.9,0.2,5.7,2.3,8.5c0.2,0.3,0.4,0.5,0.7,0.8c0.4,0.0,0.8-0.1,1.1-0.2C58.7,35.4,59.2,35.2,59.7,34.9z"/>
			</g>
		</g>
		<g id="XMLID_14356_">
			<path fill="#E5770A" d="M71.6,58.6c-3.9-1.9-8.4-2.0-12.7-1.9c-4.9,0.2-9.8,0.8-14.6,1.8c-7.8,1.6-15.7,3.8-23.7,3.5c-0.1-0.7-0.9-1.4-1.7-1.0c-0.9,0.5-1.7,0.6-2.6,0.3c1.9-2.6,2.4-5.9,0.3-9.1c-1.2-1.8-3.7-3.7-5.1-1.1c-1.3,2.4-0.7,6.1,0.0,8.5c0.0,0.0,0.0,0.0,0.0,0.0c-1.2-0.4-2.5-0.6-3.7-0.8c-2.2-0.3-5.4-0.6-7.2,1.1c-1.9,1.8,0.5,4.4,2.1,5.3c2.3,1.4,5.4,1.0,7.8,0.2c1.2-0.4,2.3-1.0,3.3-1.8c0.0,0.0,0.1,0.0,0.1,0.0c1.4,4.4-2.1,9.1-6.5,9.9c-1.5,0.3-0.8,2.5,0.6,2.2c3.7-0.7,6.8-3.6,8.0-7.1c9.4,1.6,19.0-1.1,28.2-3.0c4.6-0.9,9.3-1.5,14.0-1.8c4.5-0.2,9.3-0.2,13.3,1.9c-0.2-0.1,0.0-3.4,0.0-3.7C71.6,62.0,71.9,58.8,71.6,58.6zM10.6,63.1c-1.7,0.8-3.8,1.2-5.6,0.8c-0.7-0.2-3.6-1.9-2.3-2.4c1.7-0.7,4.0-0.4,5.7-0.1c1.1,0.2,2.3,0.5,3.5,0.9C11.4,62.6,11.0,62.9,10.6,63.1zM14.1,60.3c-0.7-1.5-0.9-3.3-1.0-4.8c-0.1-1.0,0.0-2.0,0.3-3.0c0.0-0.1,0.1-0.2,0.2-0.3c0.3,0.2,0.7,0.7,0.8,0.9C16.3,55.7,15.8,58.3,14.1,60.3z"/>
		</g>
		<g id="XMLID_14353_">
			<g id="XMLID_14355_">
				<path fill="#E8842A" d="M44.3,58.5c-1.5,0.3-2.9,0.6-4.4,0.9c-0.1,0.2-0.3,0.3-0.4,0.5c-2.0,2.5-3.7,5.2-5.0,8.0c3.3-0.7,6.5-1.4,9.7-2.1c0.1,0.0,0.1,0.0,0.2,0.0c2.0-2.4,4.3-4.7,6.7-6.7c0.9-0.7,1.8-1.4,2.7-2.1C50.7,57.4,47.5,57.9,44.3,58.5z"/>
			</g>
			<g id="XMLID_14354_">
				<path fill="#F28E3D" d="M38.0,59.9c-1.7,0.4-3.4,0.7-5.1,1.0c-1.8,2.6-3.4,5.3-4.7,8.1c1.0-0.1,2.0-0.3,3.0-0.4C33.1,65.4,35.4,62.4,38.0,59.9z"/>
			</g>
		</g>
	</g>
</svg>
