<?xml version='1.0' encoding='UTF-8'?>
<svg xmlns="http://www.w3.org/2000/svg" xmlns:xlink="http://www.w3.org/1999/xlink" width="276" height="88"><svg x="0" y="0">
		<g id="defaultContent">
			<path fill="#4BD6C5" d="M72.8,45.3c0.0-1.7-0.1-3.3-0.5-4.9c-1.5-9.2-8.8-16.5-16.7-18.6c-3.1-0.8-5.9-1.0-8.1-1.0c-1.7,0.0-3.4-0.1-5.5,0.1c-3.4,0.2-6.7,1.1-10.1,3.0c-4.9,2.7-7.9,7.3-10.3,12.6c-3.5,9.4-0.8,19.7,5.7,26.4c1.3,1.3,2.7,2.5,4.3,3.5c2.2,1.9,4.6,2.6,7.6,3.2c0.3,0.1,5.1,0.5,7.1,0.5c1.6,0.0,3.5,0.0,5.5-0.3C63.0,68.5,73.3,58.0,72.8,45.3z"/>
			<path fill="#333333" d="M42.8,48.1c0.0-2.0,0.2-3.8,0.7-5.5c0.4-1.5,1.0-2.8,1.6-3.9c0.3-0.6,0.7-1.1,0.9-1.5c0.1-0.2,0.2-0.3,0.3-0.4c0.5-0.7,0.8-1.2,1.0-1.5c0.1-0.3,0.2-0.5,0.2-0.7c0.0-0.6-0.2-1.1-0.7-1.5c-0.5-0.4-1.2-0.6-2.1-0.6c-1.0,0.0-2.0,0.2-3.0,0.6c-1.1,0.5-1.9,1.1-2.6,1.8l-0.9-4.7c0.3-0.3,0.7-0.6,1.3-0.9s1.1-0.6,1.7-0.8c1.4-0.6,2.8-0.8,4.1-0.8c1.2,0.0,2.3,0.2,3.3,0.5s1.8,0.8,2.5,1.3c0.7,0.6,1.2,1.2,1.5,2.0s0.5,1.6,0.5,2.5c0.0,0.5-0.1,0.9-0.2,1.3c-0.1,0.4-0.3,0.8-0.6,1.2c-0.3,0.5-0.6,0.9-0.8,1.2c-1.0,1.3-1.7,2.5-2.2,3.6c-0.6,1.4-1.0,2.8-1.2,4.4c-0.1,0.8-0.1,1.6-0.1,2.4H42.8zM43.0,52.5c0.6-0.6,1.5-1.0,2.4-1.0c1.0,0.0,1.8,0.3,2.5,1.0c0.6,0.7,1.0,1.5,1.0,2.5c0.0,1.0-0.3,1.8-1.0,2.5s-1.5,1.0-2.5,1.0c-1.0,0.0-1.8-0.3-2.4-1.0c-0.7-0.6-1.0-1.4-1.0-2.5C42.1,54.0,42.4,53.1,43.0,52.5z"/>
			<circle fill="#00FFFF" cx="46.8" cy="54.5" r="5" opacity="0"/>
		</g>
	</svg>
	<svg id="draggable" x="92" y="0">
		<use xlink:href="#defaultContent" style="stroke: #000000; stroke-width: 14; opacity: 0.2; stroke-miterlimit: 10; stroke-linecap: round; stroke-linejoin: round;" x="6" y="6"/>
		<use xlink:href="#defaultContent" style="stroke: #FFFFFF; stroke-width: 14; stroke-miterlimit: 10; stroke-linecap: round; stroke-linejoin: round;"/>
		<use xlink:href="#defaultContent"/>
	</svg>
	<svg id="grabbed" x="184" y="0">
		<use xlink:href="#defaultContent" style="stroke: #FFFFFF; stroke-width: 32; stroke-miterlimit: 10; stroke-linecap: round; stroke-linejoin: round;"/>
		<use xlink:href="#defaultContent"/>
	</svg>
</svg>
