<?xml version='1.0' encoding='UTF-8'?>
<svg xmlns="http://www.w3.org/2000/svg" xmlns:xlink="http://www.w3.org/1999/xlink" width="450" height="88"><svg x="0" y="0">
		<g id="defaultContent">
			<path fill="#964FBF" d="M131.5,55.0c-0.1-2.0-0.3-4.0-0.3-6.0c0.0-2.1-0.1-9.2-0.0-13.6c0.1-4.1,0.1-3.2,0.0-7.3c-0.0-2.4,0.8-7.1-2.7-7.4c-2.0-0.2-4.1-0.0-6.1-0.1c-2.2-0.1-4.3-0.0-6.5,0.0c-8.7,0.3-82.4-0.0-86.7-0.1c-1.8-0.0-3.6-0.0-5.4,0.2c-1.9,0.2-3.6,0.3-3.9,2.5c-0.2,1.6-0.0,3.4-0.0,5.1c0.0,2.2-0.2,4.2-0.0,8.3c0.3,4.4-0.0,8.8-0.1,13.3c-0.1,4.6-0.1,9.2-0.0,13.8c0.0,1.7-0.4,3.7,0.8,5.2c1.2,1.5,3.2,1.4,4.9,1.5c2.3,0.1,4.5,0.2,6.8,0.1c1.5-0.1,87.6-0.0,91.9-0.1c1.5-0.0,3.1,0.1,4.6-0.2c1.9-0.3,2.3-1.6,2.4-3.3C131.3,63.1,131.7,59.0,131.5,55.0z"/>
			<path fill="#FFFFFF" d="M33.8,51.4c0.0,1.5,0.0,2.7,0.0,3.8c0.0,1.2,0.1,2.1,0.2,2.5h-4.6c0.1-0.5,0.2-1.3,0.2-2.2c0.0-0.9,0.0-2.3,0.0-4.2v-10.4c0.0-1.4-0.0-2.6-0.1-3.5c-0.0-0.5-0.1-0.8-0.1-1.1c0.5-0.0,1.3-0.0,2.4-0.1c1.6-0.0,3.2-0.1,5.0-0.1c1.2,0.0,2.2,0.1,3.1,0.4c0.9,0.3,1.7,0.6,2.4,1.2c0.7,0.5,1.2,1.2,1.6,2.0c0.4,0.8,0.6,1.7,0.6,2.7c0.0,1.5-0.4,2.9-1.3,3.9c-0.8,1.0-1.8,1.7-3.2,2.2l1.0,1.4l2.7,3.7c1.0,1.3,1.8,2.4,2.4,3.2c0.3,0.4,0.6,0.7,0.7,0.8h-5.2l-5.7-8.6h-2.0V51.4zM33.8,46.0h2.3c1.4,0.0,2.4-0.3,3.0-0.8c0.8-0.6,1.1-1.4,1.1-2.7c0.0-1.1-0.3-1.9-1.0-2.3s-1.7-0.7-3.0-0.7l-1.3,0.0l-0.5,0.0l-0.5,0.0V46.0z"/>
			<path fill="#FFFFFF" d="M60.7,57.8c-0.2-0.3-0.4-1.0-0.6-2.0c-0.2-1.0-0.2-1.7-0.2-2.3v-0.8c-0.8,1.5-1.6,2.8-2.6,3.7c-1.3,1.2-2.6,1.8-4.0,1.8c-0.6,0.0-1.2-0.1-1.7-0.4s-1.0-0.7-1.4-1.2c-0.4-0.5-0.7-1.2-0.9-2.0c-0.2-0.8-0.3-1.7-0.3-2.7c0.0-1.2,0.2-2.4,0.5-3.5s0.9-2.1,1.6-2.9c0.7-0.9,1.7-1.6,2.8-2.1s2.4-0.8,3.9-0.8c1.0,0.0,2.1,0.1,3.1,0.2s2.0,0.3,2.9,0.5v6.8c0.0,3.4,0.3,5.9,1.0,7.8H60.7zM59.4,46.1c-0.8-0.2-1.6-0.3-2.4-0.3c-1.4,0.0-2.5,0.6-3.2,1.8c-0.6,1.0-0.9,2.4-0.9,4.1c0.0,0.8,0.2,1.5,0.5,2.1c0.3,0.5,0.7,0.8,1.1,0.8c0.3,0.0,0.7-0.1,1.1-0.4s0.8-0.7,1.1-1.2c0.7-0.9,1.3-2.0,1.8-3.3c0.2-0.6,0.4-1.1,0.6-1.6s0.2-0.9,0.2-1.1V46.1z"/>
			<path fill="#FFFFFF" d="M79.9,42.8v2.1l-7.8,9.7h4.8c0.7,0.0,1.3-0.0,1.8-0.0s1.0-0.1,1.4-0.2v3.4h-12.9v-2.3l7.6-9.5h-4.9c-0.6,0.0-1.1,0.0-1.4,0.0s-0.6,0.1-0.9,0.2v-3.4H79.9z"/>
			<path fill="#FFFFFF" d="M95.4,42.8v2.1l-7.8,9.7h4.8c0.7,0.0,1.3-0.0,1.8-0.0s1.0-0.1,1.4-0.2v3.4h-12.9v-2.3l7.6-9.5h-4.9c-0.6,0.0-1.1,0.0-1.4,0.0s-0.6,0.1-0.9,0.2v-3.4H95.4z"/>
			<path fill="#FFFFFF" d="M103.6,50.8c0.0,1.1,0.0,2.3,0.1,3.6c0.1,1.6,0.1,2.7,0.2,3.4h-4.4v-16.6c0.0-2.9-0.1-5.1-0.3-6.9h4.4V50.8z"/>
			<path fill="#FFFFFF" d="M111.6,51.2c0.1,1.2,0.4,2.1,1.1,2.7s1.5,0.9,2.6,0.9c1.0,0.0,2.0-0.1,2.9-0.3s1.8-0.6,2.7-1.1l0.3,3.4c-1.0,0.5-2.1,0.9-3.0,1.1c-1.0,0.2-2.0,0.3-3.2,0.3c-1.0,0.0-1.9-0.2-2.8-0.5c-0.9-0.3-1.7-0.8-2.3-1.4c-0.7-0.7-1.2-1.5-1.6-2.4s-0.6-2.0-0.6-3.3c0.0-1.2,0.2-2.3,0.5-3.3s0.8-1.8,1.5-2.5s1.4-1.2,2.3-1.6s1.9-0.6,3.0-0.6c1.5,0.0,2.8,0.4,3.8,1.1c0.9,0.7,1.5,1.6,1.9,2.8c0.3,1.1,0.5,2.2,0.5,3.6v0.3c0.0,0.1,0.0,0.3,0.0,0.3v0.3v0.3H111.6zM112.6,46.3c-0.5,0.5-0.8,1.2-1.0,2.2h5.6c0.0-1.0-0.2-1.8-0.7-2.2c-0.4-0.5-1.1-0.7-2.0-0.7C113.8,45.6,113.1,45.8,112.6,46.3z"/>
			<circle fill="#00FFFF" cx="115.0" cy="55.3" r="5" opacity="0"/>
		</g>
	</svg>
	<svg id="draggable" x="150" y="0">
		<use xlink:href="#defaultContent" style="stroke: #000000; stroke-width: 14; opacity: 0.2; stroke-miterlimit: 10; stroke-linecap: round; stroke-linejoin: round;" x="6" y="6"/>
		<use xlink:href="#defaultContent" style="stroke: #FFFFFF; stroke-width: 14; stroke-miterlimit: 10; stroke-linecap: round; stroke-linejoin: round;"/>
		<use xlink:href="#defaultContent"/>
	</svg>
	<svg id="grabbed" x="300" y="0">
		<use xlink:href="#defaultContent" style="stroke: #FFFFFF; stroke-width: 32; stroke-miterlimit: 10; stroke-linecap: round; stroke-linejoin: round;"/>
		<use xlink:href="#defaultContent"/>
	</svg>
</svg>
