<?xml version='1.0' encoding='UTF-8'?>
<svg xmlns="http://www.w3.org/2000/svg" xmlns:xlink="http://www.w3.org/1999/xlink" width="582" height="260"><svg x="0" y="0">
		<g id="defaultContent">
			<g opacity="0.5">
				<path fill="#333333" d="M165.8,233.3l-112.0,8.9c-6.6,0.5-12.4-4.4-12.9-11.0l-14.4-181.5c-0.5-6.6,4.4-12.4,11.0-12.9l112.0-8.9c6.6-0.5,12.4,4.4,12.9,11.0l14.4,181.5C177.4,226.9,172.4,232.8,165.8,233.3z"/>
			</g>
			<g>
				<g>
					<path fill="#FF7A0D" d="M160.1,226.2l-112.0,8.9c-6.6,0.5-12.4-4.4-12.9-11.0l-14.4-181.5c-0.5-6.6,4.4-12.4,11.0-12.9l112.0-8.9c6.6-0.5,12.4,4.4,12.9,11.0l14.4,181.5C171.7,219.9,166.7,225.7,160.1,226.2z"/>
				</g>
				<g>
					<path fill="#FFF8D2" d="M151.2,218.7l-95.4,7.6c-6.6,0.5-12.4-4.4-12.9-11.0l-13.1-165.1c-0.5-6.6,4.4-12.4,11.0-12.9l95.4-7.6c6.6-0.5,12.4,4.4,12.9,11.0l13.1,165.1C162.7,212.3,157.8,218.1,151.2,218.7z"/>
				</g>
			</g>
			<g>
				<g>
					<path fill="#40C0C5" d="M139.2,138.0c-4.7,37.7-18.9,56.1-40.8,56.9c-21.9,0.7-41.7-20.8-46.2-61.2c-4.2-37.8-11.4-74.2,45.6-77.1C140.4,54.3,141.4,119.6,139.2,138.0z"/>
				</g>
				<g>
					<path fill="#024C66" d="M58.8,113.5c-3.5,3.8,1.5,8.2,1.5,8.2s12.1,12.0,36.7,10.4c22.6-2.7,30.1-11.4,33.0-14.9c0.9-1.1,4.0-5.1,1.2-8.3c-2.8-3.2-5.6-0.1-8.2,1.3c-3.0,1.5-8.9,7.7-27.5,9.0c-19.7,1.5-29.8-6.0-29.8-6.0S61.9,110.1,58.8,113.5z"/>
				</g>
				<g>
					<ellipse transform="matrix(0.9945 -0.1047 0.1047 0.9945 -777.8037 -111.5806)" fill="#008279" cx="829.111" cy="299.611" rx="11.902" ry="12.348"/>
				</g>
				<g>
					<ellipse transform="matrix(0.6761 -0.7368 0.7368 0.6761 -703.3326 509.9484)" fill="#FFFFFF" cx="831.39" cy="300.753" rx="7.618" ry="7.722"/>
				</g>
				<g>
					<path fill="#FFFFFF" d="M102.4,131.5c0.0,0.0-2.2-6.1,4.0-8.6c7.4-2.9,8.2,5.1,8.2,5.1s-1.7,0.8-5.4,1.9C105.8,130.9,102.1,131.6,102.4,131.5z"/>
				</g>
				<g>
					<path fill="#FFFFFF" d="M88.6,132.4c0.0,0.0-0.4-6.7,6.9-7.4c7.9-0.8,7.0,6.5,7.0,6.5s-4.2,0.6-7.1,0.8C92.6,132.5,88.6,132.4,88.6,132.4z"/>
				</g>
				<g>
					<path fill="#FFFFFF" d="M75.5,129.9c0.0,0.0,1.4-7.2,8.5-5.6c7.7,1.8,4.8,8.0,4.8,8.0s-3.7-0.3-7.2-1.0C77.8,130.6,75.5,129.9,75.5,129.9z"/>
				</g>
				<g>
					<ellipse transform="matrix(0.6761 -0.7368 0.7368 0.6761 -703.9702 512.5052)" fill="#333333" cx="833.98" cy="302.757" rx="3.395" ry="3.349"/>
				</g>
				<g>
					<ellipse transform="matrix(0.9945 -0.1047 0.1047 0.9945 -777.4164 -108.4413)" fill="#008279" cx="859.218" cy="297.491" rx="11.902" ry="14.431"/>
				</g>
				<g>
					<path fill="#20A595" d="M115.6,160.8c1.1,5.2,2.9,6.6,6.4,6.5c3.0-0.1,5.3-6.3,3.6-11.4s-5.3-7.6-7.9-5.2C112.3,155.8,115.3,159.2,115.6,160.8z"/>
				</g>
				<g>
					<path fill="#20A595" d="M95.3,176.1c0.7,2.9,0.1,4.0-1.8,4.8c-1.6,0.7-4.3-1.9-4.7-4.9c-0.3-3.0,1.0-5.1,2.9-4.5C95.8,172.8,95.1,175.2,95.3,176.1z"/>
				</g>
				<g>
					<path fill="#20A595" d="M104.3,172.6c0.1,3.8,0.8,5.1,2.5,5.7c1.5,0.5,3.1-3.4,2.7-7.2c-0.4-3.8-1.9-6.3-3.4-5.1C103.1,168.5,104.3,171.4,104.3,172.6z"/>
				</g>
				<g>
					<path fill="#20A595" d="M75.6,170.5c0.3,3.2,3.1,7.9,6.1,7.0c3.2-1.0,2.9-3.1,2.6-6.3c-0.3-3.2,0.1-6.9-3.5-8.0C77.7,162.2,75.2,167.3,75.6,170.5z"/>
				</g>
				<g>
					<ellipse transform="matrix(0.5799 -0.8147 0.8147 0.5799 -633.7277 623.508)" fill="#FFFFFF" cx="857.117" cy="298.046" rx="7.722" ry="7.618"/>
				</g>
				<g>
					<ellipse transform="matrix(0.5799 -0.8147 0.8147 0.5799 -636.6524 622.8342)" fill="#333333" cx="855.001" cy="300.545" rx="3.349" ry="3.395"/>
				</g>
				<g>
					<path fill="#20A595" d="M73.4,73.1c-2.3,5.0-7.0,2.6-10.4,1.3c-3.6-1.4-9.9-4.8-7.1-9.1c2.5-3.8,4.8-2.5,8.6-1.4C68.7,65.1,75.9,67.6,73.4,73.1z"/>
				</g>
				<g>
					<path fill="#20A595" d="M103.0,78.0c-3.9-1.1-3.0-5.8-2.2-8.2c0.8-2.6,3.6-5.9,7.0-4.3c3.0,1.4,2.1,3.1,1.6,5.7C108.7,74.2,107.3,79.3,103.0,78.0z"/>
				</g>
				<g>
					<path fill="#20A595" d="M82.0,61.0c-2.7,4.4-5.8,3.1-8.4,1.8c-2.8-1.4-7.3-4.5-5.3-8.6c1.8-3.6,3.8-3.4,6.7-2.3C78.2,53.1,84.9,56.2,82.0,61.0z"/>
				</g>
				<g>
					<path fill="#20A595" d="M102.9,62.5c-5.1-1.5-4.2-6.6-2.7-10.1c1.7-3.8,4.9-8.3,9.7-6.2c3.0,1.3,3.1,6.7,1.3,10.2C109.1,60.6,107.2,63.7,102.9,62.5z"/>
				</g>
				<g>
					<path fill="#20A595" d="M117.8,77.2c-4.9-1.4-5.1-8.5-1.3-12.7c3.2-3.6,10.6-5.6,12.9-1.2c2.6,5.1-0.7,5.8-3.2,8.0C122.8,74.3,121.9,78.4,117.8,77.2z"/>
				</g>
				<g>
					<path fill="#20A595" d="M94.2,60.0c-4.6,1.3-5.8-2.9-6.2-6.3c-0.5-3.7-0.3-6.8,4.4-7.4c3.0-0.4,5.3,2.2,5.6,5.8C98.3,56.2,98.1,59.0,94.2,60.0z"/>
				</g>
				<g>
					<path fill="#20A595" d="M91.3,72.8c-3.7,2.2-7.2,0.4-8.7-2.3c-1.6-2.9-1.0-5.7,1.6-7.0c2.4-1.2,6.5-0.6,7.9,2.3C93.3,68.2,93.5,71.6,91.3,72.8z"/>
				</g>
				<g>
					<path fill="#008279" d="M43.9,133.9c0.0-4.5,5.3-5.1,8.2-5.0c3.0,0.0,7.5,2.0,6.9,6.1c-0.6,3.6-2.6,3.3-5.7,3.5C49.8,138.8,43.9,138.9,43.9,133.9z"/>
				</g>
				<g>
					<path fill="#008279" d="M46.1,156.0c-4.1-3.3-1.0-9.3,1.2-11.3c2.4-2.1,6.3-5.7,9.9-2.6c5.9,5.0,1.6,10.3-0.5,12.6C54.3,157.4,50.6,159.7,46.1,156.0z"/>
				</g>
				<g>
					<path fill="#008279" d="M52.5,176.7c-4.4-3.4,0.4-7.6,2.5-10.3c2.3-2.9,7.7-5.7,11.2-2.0c3.1,3.3,1.2,5.0-0.8,8.1C63.1,176.0,57.4,180.5,52.5,176.7z"/>
				</g>
				<g>
					<path fill="#008279" d="M43.9,133.9c0.0-4.5,5.3-5.1,8.2-5.0c3.0,0.0,7.5,2.0,6.9,6.1c-0.6,3.6-2.6,3.3-5.7,3.5C49.8,138.8,43.9,138.9,43.9,133.9z"/>
				</g>
				<g>
					<path fill="#008279" d="M46.1,156.0c-4.1-3.3-1.0-9.3,1.2-11.3c2.4-2.1,6.3-5.7,9.9-2.6c5.9,5.0,1.6,10.3-0.5,12.6C54.3,157.4,50.6,159.7,46.1,156.0z"/>
				</g>
				<g>
					<path fill="#008279" d="M52.5,176.7c-4.4-3.4,0.4-7.6,2.5-10.3c2.3-2.9,7.7-5.7,11.2-2.0c3.1,3.3,1.2,5.0-0.8,8.1C63.1,176.0,57.4,180.5,52.5,176.7z"/>
				</g>
				<g>
					<path fill="#008279" d="M146.8,120.9c-1.0-4.4-6.2-3.8-9.0-3.2c-3.0,0.7-6.9,3.5-5.5,7.4c1.3,3.4,3.3,2.7,6.3,2.3C142.1,126.9,147.9,125.7,146.8,120.9z"/>
				</g>
				<g>
					<path fill="#008279" d="M150.1,145.3c3.3-4.1-0.9-9.3-3.5-10.8c-2.8-1.6-7.3-4.3-10.2-0.5c-4.7,6.1,0.5,10.4,3.1,12.2C142.4,148.3,146.5,149.8,150.1,145.3z"/>
				</g>
				<g>
					<path fill="#008279" d="M142.4,176.6c3.6-4.2-1.9-7.4-4.6-9.6c-2.9-2.3-8.7-4.0-11.4,0.4c-2.4,3.8-0.1,5.1,2.5,7.7C131.8,178.1,138.4,181.3,142.4,176.6z"/>
				</g>
				<g>
					<path fill="#008279" d="M93.7,189.9c-5.3,0.8-0.1,12.6-0.1,12.6l-4.3,0.3c0.0,0.0-4.8,0.3-4.7,4.8s5.7,5.5,5.7,5.5s7.3,1.2,10.0-1.9c2.7-3.1,0.4-10.1,0.4-10.1S98.9,189.2,93.7,189.9z"/>
				</g>
				<g>
					<path fill="#008279" d="M109.4,188.3c5.3-0.4,2.7,12.3,2.7,12.3l4.3-0.6c0.0,0.0,4.7-0.6,5.6,3.7s-4.4,6.6-4.4,6.6s-6.9,2.7-10.2,0.2c-3.3-2.5-2.5-9.8-2.5-9.8S104.2,188.6,109.4,188.3z"/>
				</g>
			</g>
			<g>
				<path fill="#231F20" d="M82.7,179.7c-1.8,0.0-3.6-0.3-5.3-1.0s-3.2-1.7-4.6-2.9c1.1-1.8,1.9-3.7,2.5-5.7c1.5,1.4,3.0,2.3,4.5,2.8c0.8,0.2,1.6,0.3,2.4,0.3c1.1-0.0,2.0-0.3,2.8-0.7c0.8-0.4,1.5-1.1,2.0-1.9s0.8-1.7,0.8-2.6c-0.0-0.8-0.2-1.5-0.7-2.2c-0.4-0.7-1.0-1.3-1.7-1.8s-1.4-0.9-2.2-1.1c-0.6-0.2-1.3-0.2-2.1-0.2c-1.6,0.0-3.3,0.5-5.3,1.4c0.1-3.0,0.2-6.0,0.1-9.2c-0.1-3.6-0.3-7.1-0.6-10.5c0.0,0.1,1.4,0.2,4.0,0.1l1.9-0.0c2.4-0.1,4.8-0.2,7.2-0.4c0.6-0.1,1.6-0.2,2.9-0.3c1.3-0.1,2.0-0.2,2.0-0.3c0.3,2.5,0.5,4.4,0.6,5.6l-12.4,1.1l0.3,6.6c0.5-0.1,1.1-0.2,1.8-0.2c1.8-0.0,3.4,0.4,5.1,1.2s2.9,1.9,4.0,3.4c0.6,0.9,1.1,1.9,1.4,3.0c0.3,1.1,0.5,2.2,0.5,3.3c0.0,1.9-0.3,3.7-1.1,5.4c-0.9,1.8-2.2,3.3-4.0,4.6s-3.6,2.0-5.7,2.2C83.7,179.7,83.2,179.7,82.7,179.7z"/>
				<path fill="#231F20" d="M122.3,158.5c0.0,0.3,0.0,0.8,0.1,1.5c0.1,3.7-0.5,7.2-1.6,10.4c-2.2,5.8-5.8,8.7-10.8,8.8c-2.5,0.1-4.5-0.7-6.2-2.4c-1.6-1.6-2.8-3.7-3.6-6.1c-0.8-2.5-1.2-5.0-1.2-7.5c-0.0-0.7-0.0-1.3,0.0-1.9c0.1-2.7,0.6-5.4,1.5-8.1c1.1-3.7,2.8-6.6,5.0-8.7c0.8-0.7,1.7-1.2,2.9-1.6c1.2-0.4,2.3-0.6,3.5-0.7c1.3-0.0,2.4,0.2,3.4,0.6c1.0,0.4,1.8,1.0,2.5,1.9s1.4,1.8,1.8,2.9c0.8,1.7,1.4,3.4,1.8,5.3C121.9,154.7,122.2,156.5,122.3,158.5zM114.4,169.9c0.8-1.4,1.3-3.0,1.7-4.7c0.4-1.8,0.5-3.6,0.5-5.4c-0.0-1.7-0.2-3.3-0.6-4.9c-0.3-1.6-0.8-3.1-1.5-4.4c-0.8-1.7-1.9-2.6-3.3-2.5c-1.3,0.0-2.4,0.7-3.4,2.0c-0.9,1.2-1.5,2.4-1.8,3.6c-0.8,2.8-1.1,5.6-1.1,8.5c0.1,3.0,0.6,5.7,1.6,8.3c0.3,0.9,1.0,1.6,1.8,2.2c0.7,0.4,1.4,0.6,1.9,0.6c0.1-0.0,0.2-0.0,0.4-0.1C112.2,172.6,113.4,171.6,114.4,169.9z"/>
			</g>
		</g>
	</svg>
	<svg id="active" x="194" y="0">
		<use xlink:href="#defaultContent" style="stroke: #000000; stroke-width: 14; opacity: 0.2; stroke-miterlimit: 10; stroke-linecap: round; stroke-linejoin: round;" x="6" y="6"/>
		<use xlink:href="#defaultContent" style="stroke: #FFFFFF; stroke-width: 14; stroke-miterlimit: 10; stroke-linecap: round; stroke-linejoin: round;"/>
		<use xlink:href="#defaultContent"/>
	</svg>
	<svg id="selected" x="388" y="0">
		<use xlink:href="#defaultContent" style="stroke: #FFFFFF; stroke-width: 32; stroke-miterlimit: 10; stroke-linecap: round; stroke-linejoin: round;"/>
		<use xlink:href="#defaultContent"/>
	</svg>
</svg>
