<?xml version='1.0' encoding='UTF-8'?>
<svg xmlns="http://www.w3.org/2000/svg" xmlns:xlink="http://www.w3.org/1999/xlink" width="750" height="106"><svg x="0" y="0">
		<g id="defaultContent">
			<path fill="#CFAEFF" d="M230.9,69.8c-0.1-2.2-0.2-4.4-0.2-6.7c0.0-2.3,0.2-4.6,0.1-6.9c-0.1-4.8-0.2-9.5-0.2-14.4c0.1-4.6,0.1-9.2,0.0-13.7c-0.0-2.7,0.6-7.8-2.1-8.2c-1.5-0.2-3.1-0.1-4.7-0.1c-1.6-0.1-3.3-0.0-4.9,0.1c-6.6,0.3-67.6,0.7-74.2,0.4c-5.1-0.2-10.2-0.1-15.2-0.2c-7.5-0.1-63.4-0.2-71.2-0.2c-0.9,0.0-2.7,0.0-3.5-0.0c-1.5-0.0-3.0-0.1-4.5-0.1c-6.3-0.0-17.4,0.0-23.7-0.0c-1.4-0.0-2.7-0.0-4.1,0.2c-1.5,0.3-2.8,0.4-3.0,2.7c-0.2,1.8-0.0,3.8-0.0,5.6c0.0,2.4-0.1,4.9-0.0,7.3c0.1,4.6-0.1,9.2,0.0,13.8c0.2,4.9-0.0,9.8-0.1,14.7c-0.1,5.1-0.1,10.2-0.0,15.3c0.0,1.9-0.3,4.1,0.6,5.8c0.9,1.6,2.4,1.6,3.8,1.7c1.7,0.1,3.4,0.2,5.2,0.1c1.2-0.1,7.0-0.3,8.0-0.2c2.0,0.2,8.9,0.0,10.9,0.0c4.6,0.0,9.2,0.0,13.7,0.0c1.8,0.0,3.7,0.0,5.5,0.0c0.8,0.0,1.6,0.0,2.3-0.0c0.7-0.0,1.4-0.3,2.2-0.3c0.8,0.0,1.4,0.3,2.2,0.3c1.9,0.0,53.4,0.0,55.3,0.0c3.7,0.0,7.4,0.0,11.1,0.0c1.2,0.0,2.4-0.0,3.6,0.0c0.7,0.0,1.4,0.1,2.1,0.1c1.8,0.1,3.5,0.1,5.3,0.1c3.3-0.0,60.9-0.1,64.2-0.1c3.2-0.0,6.5-0.0,9.7-0.1c1.1-0.0,2.4,0.1,3.5-0.2c1.5-0.4,1.8-1.7,1.8-3.7C230.7,78.7,231.0,74.2,230.9,69.8z"/>
			<path fill="#A08AE2" d="M230.6,79.1c-0.1,1.9-0.4,3.3-1.8,3.6c-1.1,0.3-2.4,0.2-3.5,0.2c-3.2,0.1-6.5,0.1-9.7,0.1c-3.3,0.0-60.9,0.1-64.2,0.1c-1.8,0.0-3.5-0.0-5.3-0.1c-0.7-0.0-1.4-0.1-2.1-0.1c-1.2-0.1-2.4-0.0-3.6-0.0c-3.7,0.0-7.4-0.0-11.1-0.0c-1.9-0.0-53.4-0.0-55.3-0.0c-0.8,0.0-3.7-0.1-4.4-0.0c-0.8,0.0-1.6,0.0-2.3,0.0c-1.8-0.0-3.7-0.0-5.5-0.0c-4.6-0.0-9.2-0.0-13.7-0.0c-2.0-0.0-8.9,0.1-10.9-0.0c-1.1-0.1-6.9,0.1-8.0,0.2c-1.7,0.1-3.4,0.0-5.2-0.1c-1.3-0.1-2.9-0.1-3.8-1.7c-0.4-0.7-0.5-1.5-0.6-2.4c0.0,0.2,0.0,0.4,0.0,0.7c0.0,1.9-0.3,4.1,0.6,5.8c0.9,1.6,2.4,1.6,3.8,1.7c1.7,0.1,3.4,0.2,5.2,0.1c1.2-0.1,7.0-0.3,8.0-0.2c2.0,0.2,8.9,0.0,10.9,0.0c4.6,0.0,9.2,0.0,13.7,0.0c1.8,0.0,3.7,0.0,5.5,0.0c0.8,0.0,1.6,0.0,2.3-0.0c0.7-0.0,3.6,0.0,4.4,0.0c1.9,0.0,53.4,0.0,55.3,0.0c3.7,0.0,7.4,0.0,11.1,0.0c1.2,0.0,2.4-0.0,3.6,0.0c0.7,0.0,1.4,0.1,2.1,0.1c1.8,0.1,3.5,0.1,5.3,0.1c3.3-0.0,60.9-0.1,64.2-0.1c3.2-0.0,6.5-0.0,9.7-0.1c1.1-0.0,2.4,0.1,3.5-0.2c1.5-0.4,1.8-1.7,1.8-3.7c0.0-1.4,0.1-2.8,0.1-4.1C230.7,79.0,230.6,79.1,230.6,79.1z"/>
			<path fill="#333333" d="M61.7,72.3c0.0-0.3,0.1-0.6,0.2-0.9c0.1-0.3,0.3-0.6,0.6-0.8c0.3-0.2,0.6-0.4,1.0-0.6c0.4-0.1,0.8-0.2,1.2-0.2c0.9,0.0,1.6,0.3,2.1,0.9c0.2,0.3,0.4,0.6,0.6,1.0c0.1,0.4,0.2,0.8,0.2,1.3c0.0,1.3-0.4,2.7-1.1,4.0c-0.3,0.6-0.7,1.2-1.1,1.8c-0.4,0.6-0.9,1.0-1.4,1.5l-2.3-1.1c0.8-0.9,1.4-1.7,1.9-2.6c0.4-0.9,0.6-1.7,0.6-2.3h-2.5V72.3z"/>
			<path fill="#333333" d="M29.8,68.7l1.3-1.3l2.6-2.4c0.3-0.3,0.6-0.5,0.8-0.7c0.2-0.2,0.4-0.3,0.5-0.4c0.9,1.6,2.6,3.0,5.2,4.2c1.2,0.5,2.3,0.8,3.5,0.8c1.1,0.0,2.1-0.2,3.1-0.7c1.0-0.5,1.8-1.3,2.4-2.4c0.6-1.1,0.9-2.3,0.9-3.7c0.0-1.1-0.2-2.1-0.6-3.0c-0.4-0.9-1.0-1.6-1.7-2.1c-1.4-1.0-3.5-1.6-6.3-1.6l-1.5-0.0c-0.5,0.0-0.9,0.0-1.3,0.1l-0.0-7.5c1.5-0.0,2.9-0.3,4.2-0.8c1.3-0.5,2.5-1.2,3.6-2.2c1.1-0.9,1.6-2.1,1.6-3.5c0.0-0.3-0.0-0.6-0.1-0.9c-0.2-0.9-0.6-1.6-1.2-2.3c-0.6-0.7-1.3-1.1-2.2-1.4c-0.5-0.2-1.0-0.3-1.6-0.3c-1.0,0.0-2.0,0.2-3.2,0.7c-1.2,0.5-2.3,1.2-3.6,2.1c-0.9-1.9-2.1-3.6-3.5-5.1c1.9-1.7,4.3-2.9,7.3-3.6c1.1-0.3,2.2-0.5,3.5-0.5c1.1,0.0,2.3,0.1,3.5,0.4c2.6,0.6,4.5,1.8,5.9,3.7h0.0c1.4,2.0,2.1,4.2,2.1,6.4c0.0,0.9-0.1,1.8-0.3,2.6c-0.7,2.9-2.4,5.1-4.9,6.7c3.0,1.0,5.2,2.7,6.6,5.1c1.2,2.0,1.8,4.2,1.8,6.4c0.0,0.6-0.0,1.2-0.1,1.7c-0.4,3.3-1.6,6.2-3.6,8.4s-4.8,3.8-8.3,4.5c-0.9,0.2-1.9,0.3-2.9,0.3c-1.2,0.0-2.2-0.1-3.2-0.3c-0.9-0.2-2.1-0.6-3.5-1.1c-0.9-0.4-1.8-1.0-2.9-1.9c-1.1-0.9-2.1-1.9-3.0-2.9C30.3,69.3,29.8,68.8,29.8,68.7z"/>
			<path fill="#333333" d="M221.5,50.8c0.0,0.4,0.0,1.0,0.0,1.8c0.0,4.6-0.8,8.9-2.3,13.0c-3.0,7.1-7.5,10.7-13.7,10.7c-3.1,0.0-5.7-1.0-7.6-3.1c-2.0-2.1-3.4-4.7-4.3-7.8c-0.9-3.1-1.3-6.2-1.3-9.4c0.0-0.8,0.0-1.6,0.1-2.3c0.3-3.4,0.9-6.7,2.1-10.1c1.5-4.6,3.7-8.2,6.5-10.7c1.0-0.8,2.2-1.5,3.6-2.0c1.5-0.5,2.9-0.7,4.4-0.7c1.6,0.0,3.0,0.3,4.2,0.8c1.2,0.5,2.2,1.3,3.1,2.4c0.9,1.1,1.6,2.3,2.2,3.7c0.9,2.1,1.6,4.3,2.1,6.7C221.1,46.0,221.4,48.4,221.5,50.8zM211.2,64.9c1.0-1.7,1.7-3.7,2.2-5.9c0.5-2.2,0.7-4.4,0.7-6.8c0.0-2.1-0.2-4.2-0.6-6.2c-0.4-2.0-1.0-3.8-1.7-5.5c-1.0-2.2-2.3-3.3-4.0-3.3c-1.7,0.0-3.1,0.8-4.2,2.4c-1.1,1.5-1.9,3.0-2.3,4.5c-1.0,3.5-1.6,7.0-1.6,10.5c0.0,3.7,0.6,7.2,1.8,10.4c0.4,1.1,1.2,2.1,2.2,2.8c0.9,0.6,1.7,0.8,2.4,0.8c0.1,0.0,0.3-0.0,0.5-0.1C208.4,68.2,210.0,67.0,211.2,64.9z"/>
			<path fill="#333333" d="M167.2,51.0c0.0,0.4,0.0,1.0,0.0,1.8c0.0,4.6-0.8,8.9-2.3,13.0c-3.0,7.1-7.5,10.7-13.7,10.7c-3.1,0.0-5.7-1.0-7.6-3.1c-2.0-2.1-3.4-4.7-4.3-7.8c-0.9-3.1-1.3-6.2-1.3-9.4c0.0-0.8,0.0-1.6,0.1-2.3c0.3-3.4,0.9-6.7,2.1-10.1c1.5-4.6,3.7-8.2,6.5-10.7c1.0-0.8,2.2-1.5,3.6-2.0c1.5-0.5,2.9-0.7,4.4-0.7c1.6,0.0,3.0,0.3,4.2,0.8c1.2,0.5,2.2,1.3,3.1,2.4c0.9,1.1,1.6,2.3,2.2,3.7c0.9,2.1,1.6,4.3,2.1,6.7C166.8,46.2,167.1,48.6,167.2,51.0zM156.9,65.0c1.0-1.7,1.7-3.7,2.2-5.9c0.5-2.2,0.7-4.4,0.7-6.8c0.0-2.1-0.2-4.2-0.6-6.2c-0.4-2.0-1.0-3.8-1.7-5.5c-1.0-2.2-2.3-3.3-4.0-3.3c-1.7,0.0-3.1,0.8-4.2,2.4c-1.1,1.5-1.9,3.0-2.3,4.5c-1.0,3.5-1.6,7.0-1.6,10.5c0.0,3.7,0.6,7.2,1.8,10.4c0.4,1.1,1.2,2.1,2.2,2.8c0.9,0.6,1.7,0.8,2.4,0.8c0.1,0.0,0.3-0.0,0.5-0.1C154.1,68.4,155.7,67.2,156.9,65.0z"/>
			<path fill="#333333" d="M113.0,51.0c0.0,0.4,0.0,1.0,0.0,1.8c0.0,4.6-0.8,8.9-2.3,13.0c-3.0,7.1-7.5,10.7-13.7,10.7c-3.1,0.0-5.7-1.0-7.6-3.1c-2.0-2.1-3.4-4.7-4.3-7.8c-0.9-3.1-1.3-6.2-1.3-9.4c0.0-0.8,0.0-1.6,0.1-2.3c0.3-3.4,0.9-6.7,2.1-10.1c1.5-4.6,3.7-8.2,6.5-10.7c1.0-0.8,2.2-1.5,3.6-2.0c1.5-0.5,2.9-0.7,4.4-0.7c1.6,0.0,3.0,0.3,4.2,0.8c1.2,0.5,2.2,1.3,3.1,2.4c0.9,1.1,1.6,2.3,2.2,3.7c0.9,2.1,1.6,4.3,2.1,6.7C112.6,46.2,112.9,48.6,113.0,51.0zM102.7,65.0c1.0-1.7,1.7-3.7,2.2-5.9c0.5-2.2,0.7-4.4,0.7-6.8c0.0-2.1-0.2-4.2-0.6-6.2c-0.4-2.0-1.0-3.8-1.7-5.5c-1.0-2.2-2.3-3.3-4.0-3.3c-1.7,0.0-3.1,0.8-4.2,2.4c-1.1,1.5-1.9,3.0-2.3,4.5c-1.0,3.5-1.6,7.0-1.6,10.5c0.0,3.7,0.6,7.2,1.8,10.4c0.4,1.1,1.2,2.1,2.2,2.8c0.9,0.6,1.7,0.8,2.4,0.8c0.1,0.0,0.3-0.0,0.5-0.1C99.9,68.4,101.5,67.2,102.7,65.0z"/>
			<circle fill="#00FFFF" cx="209.2" cy="69.9" r="5" opacity="0"/>
		</g>
	</svg>
	<svg id="draggable" x="250" y="0">
		<use xlink:href="#defaultContent" style="stroke: #000000; stroke-width: 14; opacity: 0.2; stroke-miterlimit: 10; stroke-linecap: round; stroke-linejoin: round;" x="6" y="6"/>
		<use xlink:href="#defaultContent" style="stroke: #FFFFFF; stroke-width: 14; stroke-miterlimit: 10; stroke-linecap: round; stroke-linejoin: round;"/>
		<use xlink:href="#defaultContent"/>
	</svg>
	<svg id="grabbed" x="500" y="0">
		<use xlink:href="#defaultContent" style="stroke: #FFFFFF; stroke-width: 32; stroke-miterlimit: 10; stroke-linecap: round; stroke-linejoin: round;"/>
		<use xlink:href="#defaultContent"/>
	</svg>
</svg>
