<?xml version='1.0' encoding='UTF-8'?>
<svg xmlns="http://www.w3.org/2000/svg" xmlns:xlink="http://www.w3.org/1999/xlink" width="522" height="150"><svg x="0" y="0">
		<g id="defaultContent">
			<g>
				<path fill="#A75778" d="M61.9,123.7c-2.8,1.1-11.3,1.0-21.7,0.5c-7.2-2.2-12.8-7.3-16.4-15.9c-3.0-7.2-3.6-17.9-2.9-30.4l5.8-18.9c0.6-2.1,2.1-3.9,4.1-4.9l12.9-6.6l16.1-21.2c1.5-1.9,3.6-3.1,6.0-3.4c8.9-1.0,17.8-1.3,26.7-0.8c2.5,0.1,5.0-0.1,7.4-0.8c4.5-1.3,9.1-1.3,14.3-1.3c0.3-1.2,24.1,4.0,27.0,6.8c3.8,3.5,7.1,28.3,4.6,34.1c-0.6,1.3-0.5,2.9-0.0,4.2c3.7,9.6,10.2,39.6,9.6,40.9c-4.2,8.7-25.3,17.3-29.1,15.9l-16.9-0.8c-6.6,0.2-11.3-0.3-17.9,2.3c-4.9,2.5-12.8,3.5-22.7,3.4L61.9,123.7z"/>
			</g>
			<g>
				<path fill="none" d="M98.1,121.2c0.1-0.1,0.2-0.2,0.3-0.4C98.6,120.6,98.5,120.7,98.1,121.2z"/>
			</g>
			<g>
				<path fill="none" d="M95.9,121.5c-0.0-0.0-0.0-0.0-0.0-0.0C95.7,120.9,95.8,121.3,95.9,121.5z"/>
			</g>
			<g>
				<path fill="#A75778" d="M118.4,50.4c0.9,0.0,1.8-0.8,1.8-1.8c-0.0-1.0-0.8-1.8-1.8-1.8c-0.1,0.0-0.2,0.0-0.2,0.0c-0.9,0.0-1.8,0.8-1.8,1.8c0.0,1.0,0.8,1.8,1.8,1.8C118.2,50.4,118.3,50.4,118.4,50.4z"/>
			</g>
			<g>
				<path fill="#BB608A" d="M41.4,49.5c0.8,1.7,2.8,2.8,4.7,2.3c4.0-1.0,4.2-6.9,1.2-9.1l-3.6,4.8l-2.5,1.3C41.1,48.9,41.2,49.2,41.4,49.5z"/>
			</g>
			<g>
				<path fill="#BB608A" d="M20.8,79.6c4.0,2.3,9.9,1.1,13.6-1.5c5.1-3.6,7.4-10.3,4.6-16.1c-2.1-4.2-6.4-6.3-10.8-6.0c-0.3,0.4-0.7,0.9-0.9,1.3c-0.0,0.0-0.0,0.0-0.0,0.0c-0.1,0.2-0.2,0.4-0.3,0.7c-0.0,0.0-0.0,0.1-0.0,0.1c-0.1,0.3-0.2,0.5-0.3,0.8l-5.8,18.9C20.8,78.4,20.8,79.0,20.8,79.6z"/>
			</g>
			<g>
				<path fill="#BB608A" d="M96.8,112.3c-3.3-0.0-5.4,2.2-7.0,4.7c-1.5,2.3-2.3,4.8-2.1,7.5c0.7-0.2,1.3-0.4,1.9-0.6c0.0-0.0,0.1-0.0,0.1-0.0c0.6-0.2,1.1-0.5,1.6-0.7c0.0,0.0,0.0,0.0,0.0,0.0c0.6-0.2,1.2-0.4,1.8-0.6c0.1-0.0,0.2-0.1,0.3-0.1c0.5-0.2,1.1-0.3,1.6-0.5c0.1-0.0,0.2-0.0,0.3-0.1c0.5-0.1,1.0-0.2,1.5-0.3c0.1-0.0,0.1-0.0,0.2-0.0c0.5-0.1,1.0-0.2,1.5-0.2c0.1-0.0,0.2-0.0,0.3-0.0c0.5-0.1,1.0-0.1,1.5-0.1c0.1-0.0,0.1-0.0,0.2-0.0c0.5-0.0,0.9-0.1,1.4-0.1c0.1-0.0,0.2-0.0,0.3-0.0c0.5-0.0,1.0-0.0,1.5-0.0c0.1-0.0,0.2-0.0,0.4-0.0c0.5-0.0,1.0-0.0,1.6-0.0C104.8,116.6,101.5,112.4,96.8,112.3zM95.9,121.4c0.0,0.0,0.0,0.0,0.0,0.0C95.8,121.3,95.7,120.9,95.9,121.4zM98.4,120.9c-0.1,0.2-0.2,0.3-0.3,0.4C98.5,120.7,98.6,120.6,98.4,120.9z"/>
			</g>
			<g>
				<path fill="#BB608A" d="M144.7,113.5c-1.3-1.6-3.1-1.8-4.7-1.1c-0.3-0.1-0.5-0.1-0.8-0.1c-0.8-0.0-1.4,0.6-1.7,1.3c-0.3,0.8-0.5,1.7-0.6,2.5c-0.1,0.4-0.1,0.7-0.1,1.1c0.1,0.8,0.5,1.3,1.1,1.6c0.0,0.0,0.0,0.0,0.0,0.0c0.6-0.3,1.2-0.5,1.8-0.8c0.0-0.0,0.1-0.0,0.1-0.0c1.2-0.6,2.4-1.2,3.6-1.9c0.0-0.0,0.1-0.0,0.1-0.1c0.6-0.3,1.2-0.7,1.8-1.0c0.0,0.0,0.0,0.0,0.0,0.0C145.3,114.4,145.1,113.9,144.7,113.5z"/>
			</g>
			<g>
				<path fill="#BB608A" d="M146.2,54.2c0.1-0.0,0.2-0.1,0.3-0.1c0.0-3.5-0.3-7.8-0.9-12.0c-0.0-0.0-0.0-0.0-0.0-0.1c-0.2-1.8-0.5-3.5-0.9-5.1c-0.0-0.0-0.0-0.1-0.0-0.1c-0.1-0.5-0.2-1.1-0.3-1.6c0.0,0.0,0.0,0.0,0.0-0.0c-0.2-1.1-0.5-2.0-0.7-3.0c-0.0-0.0-0.0-0.0-0.0-0.0c-0.1-0.4-0.3-0.9-0.4-1.3c-0.0-0.0-0.0-0.0-0.0-0.1c-0.3-0.8-0.6-1.6-0.8-2.2c0.0,0.0,0.0,0.0,0.0,0.0c-1.3,0.1-2.6,0.5-3.8,1.1c-7.0,3.7-7.9,13.7-3.6,19.8C137.5,53.2,141.8,55.2,146.2,54.2z"/>
			</g>
			<g>
				<path fill="#BB608A" d="M65.3,113.1c0.0-0.1,0.0-0.2,0.0-0.3c0.0-6.9-10.7-6.9-10.7,0.0c0.0,0.1,0.0,0.2,0.0,0.3C54.6,119.9,65.3,119.9,65.3,113.1z"/>
			</g>
			<g>
				<path fill="#BB608A" d="M48.9,76.3c-0.2,0.0-0.3,0.0-0.5,0.0c-2.0,0.0-4.0,1.8-3.9,3.9c0.1,2.1,1.7,3.9,3.9,3.9c0.2,0.0,0.3,0.0,0.5,0.0c2.0,0.0,4.0-1.8,3.9-3.9C52.7,78.1,51.1,76.3,48.9,76.3z"/>
			</g>
			<g>
				<path fill="#BB608A" d="M124.2,111.0c-1.4,0.0-1.4,2.1,0.0,2.1C125.5,113.2,125.5,111.0,124.2,111.0z"/>
			</g>
			<g>
				<path fill="#BB608A" d="M154.5,100.0c-0.0-0.1-0.0-0.2-0.0-0.3c-0.1-0.4-0.1-0.7-0.2-1.1c-0.0-0.1-0.0-0.2-0.0-0.2c-0.1-0.4-0.2-0.8-0.2-1.2c-0.0-0.1-0.0-0.2-0.1-0.3c-0.1-0.4-0.2-0.8-0.3-1.3c-0.0-0.1-0.0-0.2-0.0-0.2c-0.1-0.5-0.2-0.9-0.3-1.4c-0.0-0.1-0.0-0.1-0.0-0.2c-0.1-0.5-0.2-1.0-0.3-1.5c-0.0-0.0-0.0-0.1-0.0-0.1c-0.1-0.5-0.2-1.1-0.4-1.7c-0.0-0.0-0.0-0.0-0.0-0.0c-0.1-0.0-0.3-0.0-0.4-0.0c-2.1,0.1-3.8,1.1-4.9,3.0c-1.0,1.8-0.9,4.2,0.2,5.9c1.7,2.6,4.6,3.3,7.4,2.9c-0.1-0.3-0.1-0.7-0.2-1.1c-0.0-0.1-0.0-0.1-0.0-0.2C154.6,100.7,154.5,100.4,154.5,100.0z"/>
			</g>
			<g>
				<path fill="#BB608A" d="M93.8,45.5c5.0,0.0,5.0-7.8,0.0-7.8C88.7,37.7,88.7,45.5,93.8,45.5z"/>
			</g>
			<g>
				<path fill="#BB608A" d="M59.7,26.2l-0.4,0.5l-0.5,0.6c1.9,0.9,4.0,1.1,6.1,0.5c2.8-0.8,4.8-3.0,5.8-5.6c0.0,0.0,0.0,0.0-0.0,0.0c-1.7,0.1-3.3,0.3-5.0,0.5c-1.8,0.2-3.5,0.9-4.8,2.1C60.4,25.3,60.0,25.7,59.7,26.2z"/>
			</g>
			<g>
				<path fill="#333333" d="M85.5,105.7c-0.0,0.6-0.0,1.5-0.0,2.5c0.0,0.9,0.0,1.5,0.0,1.8c-3.3-0.0-5.7-0.1-7.0-0.1c-8.2,0.0-14.2,0.3-18.0,0.8c-0.2-2.6-0.5-5.3-0.9-8.0c2.2-0.4,4.9-0.7,8.0-0.9c-0.2-3.0-0.4-6.6-0.4-10.9c0.0-5.4,0.2-11.6,0.6-18.8c-0.9,1.4-2.0,2.7-3.3,3.7c-1.2,1.1-2.7,2.0-4.4,2.9c-1.5-2.6-3.0-4.8-4.7-6.6c3.0-1.7,5.7-4.0,8.2-6.9c1.8-2.1,3.2-3.9,4.3-5.5c1.1-1.6,1.9-3.1,2.5-4.6c0.4,0.3,1.1,0.6,2.0,0.9c1.0,0.3,2.4,0.8,4.2,1.3l3.1,0.9c-1.7,6.4-2.6,15.2-2.7,26.3v2.8c0.0,5.7,0.2,10.5,0.6,14.3c2.8,0.0,5.4,0.1,7.9,0.2v0.3C85.6,102.5,85.5,103.7,85.5,105.7z"/>
				<path fill="#333333" d="M112.9,110.5c0.0-0.5-0.1-2.8-0.3-6.8c-0.2-4.0-0.3-6.8-0.4-8.2c-2.2,0.0-5.3,0.2-9.3,0.4c-4.9,0.2-7.8,0.4-8.9,0.4c-0.2-0.7-0.6-1.7-1.4-3.0c-0.2-0.4-0.4-0.8-0.7-1.1s-0.4-0.7-0.5-0.8c0.9-4.0,2.3-8.0,4.1-12.0c1.9-4.0,4.1-7.9,6.7-11.9c1.3-2.0,2.8-4.1,4.6-6.4c0.9-1.1,1.7-2.1,2.5-3.0l1.3-1.4c0.1-0.1,0.3-0.3,0.6-0.7c0.3-0.4,0.6-0.6,0.8-0.7c4.5,0.0,7.8,0.1,9.9,0.2c-0.2,0.9-0.5,5.4-0.9,13.4c-0.2,4.7-0.4,8.8-0.4,12.5c0.0,1.8,0.0,3.4,0.1,4.8c2.7,0.0,4.7,0.1,6.0,0.2v1.9c0.0,1.1-0.0,2.1-0.0,2.7c-0.0,0.4-0.0,1.0-0.0,1.8l0.0,2.8c-1.1,0.1-2.9,0.1-5.4,0.1c0.1,1.3,0.3,4.8,0.7,10.5l0.2,4.1c-0.2,0.1-1.2,0.1-2.9,0.1l-5.1-0.0C113.4,110.4,112.9,110.4,112.9,110.5zM112.0,69.4c-1.3,2.0-2.8,4.6-4.6,7.6c-2.4,4.1-4.1,7.4-5.0,9.7c2.9-0.3,6.1-0.5,9.6-0.5V69.4z"/>
			</g>
			<g>
				<circle fill="#00FFFF" cx="122.4" cy="121.1" r="10" opacity="0"/>
			</g>
		</g>
	</svg>
	<svg id="active" x="174" y="0">
		<use xlink:href="#defaultContent" style="stroke: #000000; stroke-width: 14; opacity: 0.2; stroke-miterlimit: 10; stroke-linecap: round; stroke-linejoin: round;" x="6" y="6"/>
		<use xlink:href="#defaultContent" style="stroke: #FFFFFF; stroke-width: 14; stroke-miterlimit: 10; stroke-linecap: round; stroke-linejoin: round;"/>
		<use xlink:href="#defaultContent"/>
	</svg>
	<svg id="selected" x="348" y="0">
		<use xlink:href="#defaultContent" style="stroke: #FFFFFF; stroke-width: 32; stroke-miterlimit: 10; stroke-linecap: round; stroke-linejoin: round;"/>
		<use xlink:href="#defaultContent"/>
	</svg>
</svg>
