<?xml version='1.0' encoding='UTF-8'?>
<svg xmlns="http://www.w3.org/2000/svg" xmlns:xlink="http://www.w3.org/1999/xlink" width="94" height="60"><g id="caterpillar14">
		<g>
			<g>
				<g>
					<g>
						<path fill-rule="evenodd" clip-rule="evenodd" fill="#A456E8" d="M72.9,12.6c-2.8,2.2-5.2,4.4-8.4,6.1c-3.7,1.9-7.7,3.5-11.5,5.2c-6.7,2.9-13.7,5.5-20.2,8.8c-5.4,2.8-10.8,5.6-16.1,8.4c-4.7,2.5-9.7,4.2-13.8,6.9c-1.6,1.1-1.9,3.2-1.4,4.9c2.1,6.3,12.0,6.0,17.0,4.7c6.7-1.7,12.9-4.8,19.2-7.7c6.8-3.2,14.0-5.3,21.2-7.3c4.6-1.3,9.0-3.1,13.3-5.0c4.6-2.0,10.1-4.4,14.1-7.5C97.3,21.3,84.0,3.8,72.9,12.6z"/>
					</g>
				</g>
			</g>
			<g>
				<g>
					<g>
						<path fill="#A456E8" d="M57.5,26.2c1.2-7.9,4.1-19.4,15.1-20.3c2.3-0.1,4.6,0.4,6.7,1.6c5.8,3.2,10.2,7.5,10.9,14.2c0.2,1.7-1.0,3.5-2.8,5.2c-7.0,5.0-15.7,12.4-25.5,10.9c-4.6-1.4-4.2-5.7-4.4-9.8C57.5,27.4,57.5,26.8,57.5,26.2z"/>
					</g>
				</g>
			</g>
			<g>
				<g>
					<g>
						<path fill="#A456E8" d="M57.6,22.1c4.0-6.1,11.8-10.5,19.5-11.9c0.7-0.1,1.4-0.2,2.1-0.2c0.8,0.0,1.6,0.1,2.4,0.2c5.6,0.8,10.2,4.0,11.1,8.8c0.1,0.6,0.2,1.2,0.1,1.9c0.0,0.7-0.1,1.3-0.3,2.0c-0.2,0.7-0.4,1.4-0.7,2.1c-0.2,0.5-0.4,0.9-0.7,1.4c-1.0,1.8-2.5,3.5-4.2,4.9c-0.6,0.5-1.2,0.9-1.8,1.4c-6.6,4.4-16.8,7.8-23.6,4.2c-0.6-0.3-1.1-0.7-1.6-1.0c-2.5-1.9-4.1-4.8-4.1-8.1c0.0-0.6,0.1-1.3,0.2-1.9c0.1-0.6,0.4-1.3,0.6-1.9C57.0,23.3,57.3,22.7,57.6,22.1z"/>
					</g>
				</g>
			</g>
			<g>
				<g>
					<g>
						<path fill="#231F20" d="M64.6,28.3c1.1-1.0,2.5-0.7,3.5,0.3c1.5,1.4,4.8,1.0,6.9,0.7c1.5-0.2,2.8,1.9,1.4,2.9c-3.6,2.4-8.8,2.8-12.1-0.4C63.4,30.8,63.7,29.1,64.6,28.3z"/>
					</g>
				</g>
			</g>
			<g>
				<g>
					<g>
						<path fill-rule="evenodd" clip-rule="evenodd" fill="#B36CFF" d="M22.6,49.5c-0.8-1.3-2.2-2.2-3.4-3.0c-1.2-0.8-2.3-1.8-3.5-2.5c-0.7-0.4-1.4,0.2-1.6,0.8c-1.0,3.4,3.2,7.6,6.3,8.3C22.5,53.4,23.6,51.0,22.6,49.5z"/>
					</g>
				</g>
			</g>
			<g>
				<g>
					<g>
						<path fill-rule="evenodd" clip-rule="evenodd" fill="#B36CFF" d="M27.2,36.8c-1.5,2.3-1.4,4.8-1.0,7.4c0.3,2.1,0.8,5.3,2.6,6.7c0.7,0.5,1.7,0.5,2.3-0.2c1.2-1.5,1.0-3.8,1.0-5.6c0.0-2.2,0.5-4.5,0.3-6.6C32.2,36.0,28.7,34.5,27.2,36.8z"/>
					</g>
				</g>
			</g>
			<g>
				<g>
					<g>
						<path fill-rule="evenodd" clip-rule="evenodd" fill="#B36CFF" d="M41.3,30.2c-1.6-0.4-3.7,1.0-3.8,2.7c-0.1,2.1,0.7,3.5,1.5,5.4c1.0,2.1,2.2,4.1,3.9,5.8c2.5,2.4,6.6-0.2,6.3-3.4C48.8,36.7,45.3,31.2,41.3,30.2z"/>
					</g>
				</g>
			</g>
			<g>
				<g>
					<g>
						<path fill-rule="evenodd" clip-rule="evenodd" fill="#B36CFF" d="M59.4,29.5c-0.6-0.9-1.2-1.7-1.9-2.5c-0.7-0.8-2.2-1.4-2.6-1.7c-1.5-0.9-4.4-0.2-4.0,2.1c0.1,0.7,0.0,1.4,0.0,2.1c0.0,1.0,0.3,2.1,0.5,3.0c0.4,2.4,1.1,4.8,2.4,6.9c2.3,3.8,8.9,1.2,8.2-3.1C61.7,33.9,60.7,31.5,59.4,29.5z"/>
					</g>
				</g>
			</g>
			<g>
				<g>
					<g>
						<path fill-rule="evenodd" clip-rule="evenodd" fill="#A456E8" d="M64.2,4.4c-0.8,1.0-1.1,2.3-1.0,3.6c0.0,0.6,0.0,1.2,0.2,1.7c0.1,0.5,0.4,0.9,0.6,1.4c0.3,0.9,1.7,0.8,1.9-0.2c0.1-0.4,0.3-0.8,0.4-1.2c0.1-0.4,0.2-0.8,0.3-1.3c0.3-1.1,0.7-2.1,0.7-3.2C67.2,3.8,65.2,3.3,64.2,4.4z"/>
					</g>
				</g>
			</g>
			<g>
				<g>
					<g>
						<path fill-rule="evenodd" clip-rule="evenodd" fill="#A456E8" d="M73.5,2.7c-0.5-0.7-1.8-1.1-2.5-0.4c-1.6,1.5-2.8,4.0-1.5,6.0c0.5,0.8,1.6,0.5,2.0-0.2c0.3-0.5,0.6-1.1,0.8-1.7c0.2-0.5,0.7-1.0,1.1-1.6C74.0,4.3,74.0,3.4,73.5,2.7z"/>
					</g>
				</g>
			</g>
			<g>
				<g>
					<g>
						<path fill-rule="evenodd" clip-rule="evenodd" fill="#8F36CE" d="M84.3,11.1c-0.8-1.0-2.4-1.9-3.7-2.3c-1.5-0.5-3.2-0.5-4.9-0.3c-2.0,0.2-3.8,1.3-5.0,2.8c-6.5-0.2-10.6,5.5-11.9,10.1c-0.2,2.2-0.5,4.3,1.1,5.8c5.0,2.3,8.8-1.3,12.0-3.1c0.9-0.4,1.7-0.9,2.5-1.3c4.5-2.6,10.1-3.8,13.3-7.4C89.5,13.5,87.2,11.7,84.3,11.1z"/>
					</g>
				</g>
			</g>
			<g>
				<g>
					<g>
						<path fill="#FFFFFF" d="M69.7,29.2c-0.7-0.2-1.4-0.5-2.2-0.6c-0.6,0.0-0.9,0.6-0.8,1.1c0.3,0.9,1.3,1.5,2.1,1.8c1.2,0.5,2.8,1.0,3.7-0.3c0.2-0.3,0.1-0.8-0.1-1.1C71.8,29.3,70.6,29.4,69.7,29.2z"/>
					</g>
				</g>
			</g>
			<g>
				<g>
					<g>
						<path fill="#FFFFFF" d="M76.4,10.3c3.6-2.9,9.1,2.0,6.8,5.6C79.3,21.9,71.7,13.9,76.4,10.3C76.7,10.0,76.2,10.4,76.4,10.3z"/>
					</g>
				</g>
			</g>
			<g>
				<g>
					<g>
						<path fill="#FFFFFF" d="M62.2,17.5c2.6-6.0,9.5-5.0,10.5,0.6c0.6,3.3-2.4,6.6-5.9,6.4C63.2,24.7,61.1,20.4,62.2,17.5C62.4,17.1,61.7,18.9,62.2,17.5z"/>
					</g>
				</g>
			</g>
			<g>
				<g>
					<g>
						<path d="M69.2,15.9c2.9-0.7,4.0,4.0,1.1,4.7C67.4,21.3,66.3,16.6,69.2,15.9z"/>
					</g>
				</g>
			</g>
			<g>
				<g>
					<g>
						<path d="M76.7,13.1c1.7-1.9,4.6,0.8,2.9,2.7C77.9,17.7,75.0,15.0,76.7,13.1z"/>
					</g>
				</g>
			</g>
			<g>
				<g>
					<g>
						<path fill-rule="evenodd" clip-rule="evenodd" fill="#B36CFF" d="M8.3,48.0c-0.8-1.0-2.3-1.1-3.2-0.1c-0.7,0.8-0.7,2.0-0.6,3.1c0.0,1.4,0.5,2.8,1.8,3.4c0.9,0.4,2.0,0.2,2.6-0.6c0.9-1.2,0.6-2.4,0.2-3.6C9.0,49.5,8.8,48.5,8.3,48.0z"/>
					</g>
				</g>
			</g>
		</g>
	</g>
</svg>
