<?xml version='1.0' encoding='UTF-8'?>
<svg xmlns="http://www.w3.org/2000/svg" xmlns:xlink="http://www.w3.org/1999/xlink" version="1.1" x="0px" y="0px" width="1206px" height="132px" viewBox="0 0 1206 132" enable-background="new 0 0 1206 132"><g id="defaultContent">
		<g>
			<g>
				<path fill="#B53C8D" d="M286.1,68.9c-19.7-0.2-38.8,15.7-34.0,36.8c1.1,4.6,8.5,3.6,9.0-0.8c0.8-7.0,3.1-13.4,8.2-18.4c4.8-4.7,11.4-6.5,17.8-7.7C292.7,77.5,291.7,69.0,286.1,68.9L286.1,68.9z"/>
			</g>
			<g>
				<path fill="#B53C8D" d="M253.8,111.1c0.0-2.0,1.6-2.4,2.9-3.5c1.4-1.2,0.9-4.0-1.2-4.0c-1.4,0.0-2.4,0.3-3.5,1.2c-0.7,0.6-1.2,1.2-1.6,2.0c-0.9,1.4-1.1,3.2-1.0,4.8c0.1,1.2,1.3,2.1,2.4,1.9C253.2,113.4,253.8,112.3,253.8,111.1L253.8,111.1z"/>
			</g>
			<g>
				<path fill="#B53C8D" d="M261.5,109.0c-2.4-1.4-1.4-4.1-1.6-6.4c-0.1-2.1-2.5-2.2-3.7-1.1c-2.4,2.0-1.9,5.6-0.9,8.1c0.7,2.0,2.5,3.2,4.4,4.0C262.3,114.5,263.9,110.3,261.5,109.0L261.5,109.0z"/>
			</g>
			<g>
				<path fill="#B53C8D" d="M265.5,102.7c-2.3,0.3-3.6-1.5-5.4-2.6c0.3,0.3,0.7,0.6,1.0,0.9c-0.5-0.6-1.0-1.1-1.6-1.6c-1.6-1.3-4.0,0.6-3.5,2.4c1.3,4.7,5.9,7.1,10.5,5.8C269.5,106.7,268.7,102.2,265.5,102.7L265.5,102.7z"/>
			</g>
		</g>
		<g>
			<g>
				<path fill="#B53C8D" d="M183.4,61.9c-18.7,3.0-35.5,19.9-32.4,39.8c0.7,4.4,8.0,5.4,9.1,0.7c1.8-7.6,3.2-14.6,8.5-20.7c4.4-5.1,10.6-8.2,17.1-9.6C192.3,70.7,190.0,60.8,183.4,61.9L183.4,61.9z"/>
			</g>
			<g>
				<path fill="#B53C8D" d="M160.9,97.9c0.2,1.7,0.5,3.0,1.4,4.5c0.6,1.0,1.3,1.8,1.5,3.0c0.2,1.0-0.2,2.1-1.2,2.6c-0.4,0.2-0.8,0.3-1.2,0.3c-0.2,0.0-0.4-0.1-0.6-0.1c-0.4-0.1-0.8-0.3-1.0-0.7c-1.5,0.1-2.6-2.8-3.0-3.9c-0.8-2.0-0.5-4.2,0.3-6.2C157.8,95.7,160.6,95.9,160.9,97.9L160.9,97.9z"/>
			</g>
			<g>
				<path fill="#B53C8D" d="M158.5,101.0c-1.1,1.0-2.3,2.5-2.7,4.0c-0.2,1.0-0.3,1.9-0.9,2.8c-1.2,1.8-3.6,1.3-4.5-0.4c-1.0-1.9-0.2-4.1,0.7-5.8c1.2-2.1,3.2-3.3,5.4-4.2C158.5,96.6,160.0,99.6,158.5,101.0L158.5,101.0z"/>
			</g>
			<g>
				<path fill="#B53C8D" d="M154.5,100.9c-2.2,0.1-4.1,1.9-5.7,3.2c-1.6,1.2-3.8-0.4-3.5-2.2c0.8-5.0,5.6-5.7,9.8-5.2C157.5,97.0,156.8,100.8,154.5,100.9L154.5,100.9z"/>
			</g>
		</g>
		<path fill="#DD57A4" d="M159.4,41.0c-9.4-5.2-30.4-9.3-31.2,6.0c-2.4,30.6,33.8,41.9,58.5,44.4c2.5,0.3,5.0,0.6,7.5,0.8c11.3,1.5,22.6,1.5,33.6,1.2c3.0,0.0,6.1,0.2,9.2,0.3c24.6,1.2,50.5,4.6,69.2-12.2c1.3-1.2,2.3-2.7,2.9-4.3c0.6-1.6,0.8-3.4,0.8-5.3c-13.3-51.6-82.5-29.9-122.0-27.5c-6.4,0.0-12.1,0.0-18.6-1.3c-2.2-0.4-4.3-0.8-6.5-1.4C160.8,41.5,159.6,41.1,159.4,41.0z"/>
		<g>
			<path fill="#C94998" d="M200.8,41.6C200.8,41.6,200.8,41.6,200.8,41.6C201.1,41.7,201.2,41.7,200.8,41.6z"/>
			<path fill="#C94998" d="M195.7,42.3c-2.4,0.9-3.8,3.4-3.5,5.8c0.3,2.6,2.3,4.4,4.8,4.9c1.5,0.3,1.9,0.2,2.9,0.3c2.6,0.1,5.0-2.2,5.5-4.7c0.6-3.0-1.4-6.4-4.5-7.0c-0.2,0.0-0.6-0.1-0.6-0.1C198.5,41.3,197.3,41.7,195.7,42.3z"/>
		</g>
		<path fill="#C94998" d="M232.8,42.8c-0.7-7.6-13.0-5.4-14.7,0.6C215.2,53.2,233.5,51.2,232.8,42.8C232.6,41.5,233.0,45.2,232.8,42.8z"/>
		<path fill="#C94998" d="M171.7,41.8c-6.7-0.1-7.1,8.7-0.5,8.8C177.9,50.8,178.4,41.9,171.7,41.8z"/>
		<path fill="#C94998" d="M188.8,59.1c-4.4-6.1-16.3-0.5-10.0,4.8C182.2,66.7,193.2,65.1,188.8,59.1C188.0,58.1,189.4,59.9,188.8,59.1z"/>
		<path fill="#C94998" d="M207.6,62.9c0.6,9.0,19.3,5.4,16.2-2.6C224.9,56.8,206.9,53.4,207.6,62.9C207.8,65.9,207.5,61.5,207.6,62.9z"/>
		<path fill="#C94998" d="M249.2,61.3c-2.1-2.4-6.6-5.2-9.8-3.5c-1.9,1.0-3.0,3.1-2.8,5.2c0.1,0.8,3.2,5.5,0.9,2.5C242.2,71.5,255.6,68.7,249.2,61.3C248.1,60.1,250.7,63.0,249.2,61.3z"/>
		<path fill="#F967BB" d="M297.1,76.5c-6.6-0.2-12.9,2.0-19.4,2.9c-5.6,0.8-11.3,1.3-16.9,1.7c-12.0,0.9-23.8,1.9-35.8,1.4c-12.2-0.5-24.5-1.4-36.7-2.4c-10.6-0.9-21.4-2.0-31.5-5.7c-6.3-2.3-10.3,6.8-4.1,9.6c10.8,4.8,22.2,7.5,33.9,8.9c13.1,1.6,26.3,3.3,39.4,4.0c12.2,0.7,24.4,0.0,36.6-0.9c12.5-0.9,26.4-4.4,38.6-8.4C327.1,79.2,302.7,76.7,297.1,76.5z"/>
		<path fill="#F967BB" d="M173.8,70.1c-10.4-8.5-23.2,1.9-34.5,1.3c-2.3,0.1-4.5,0.2-6.7,0.3c-11.0,0.3-22.0,0.8-33.0,0.7c-12.0-0.1-23.9-0.3-35.9-1.2c-6.1-0.5-12.2-1.0-18.3-1.3c-5.5-0.3-11.3,0.6-16.7-0.5c-5.1-1.0-8.6,7.2-3.4,9.6c5.8,2.6,11.8,2.8,18.0,3.5c5.8,0.7,11.5,1.5,17.3,2.2c11.9,1.4,23.6,2.3,35.5,2.6c10.1,0.3,20.2,0.3,30.3,0.1c2.0,0.0,4.0-0.1,6.1-0.2c13.6-2.3,33.2-1.5,41.4-15.4C174.0,71.9,174.0,71.3,173.8,70.1z"/>
		<path fill="#DD57A4" d="M103.0,59.1c-1.4,0.0-5.7-0.3-7.7-0.2c-11.2,0.5-36.6,0.6-41.3,0.6c-4.0-0.3-8.0-0.6-12.0-1.1c-2.7-5.8-6.5-11.3-15.4-10.9c-6.3,0.3-9.8,5.2-10.4,9.6c-0.6,4.5,3.2,10.3,7.3,13.3c0.9,0.7,2.0,1.0,3.1,1.0c1.1,0.6,2.7,0.9,4.4,0.6c3.1-0.6,27.9,0.0,37.4,0.4c11.5,0.5,23.1,1.2,34.6,1.6c0.5,0.0,1.0,0.0,1.5,0.0C124.7,76.4,114.8,58.3,103.0,59.1z"/>
		<path fill="#DD57A4" d="M169.1,57.6c-0.4-1.5-0.9-3.0-1.5-4.4c-0.6-1.5-1.2-2.9-2.0-4.3c-4.2-8.1-11.0-14.3-17.2-20.7c-1.7-1.5-3.6-3.0-5.7-4.4c-13.2-5.6-37.0-14.5-43.7,4.7c-0.4,1.6-0.8,3.2-1.0,4.7c0.6,15.6,2.7,27.2,3.8,40.9c12.2-0.1,34.9-1.5,38.7-1.6c5.4-0.1,29.7,0.8,29.7-5.7C170.3,63.6,169.9,60.5,169.1,57.6z"/>
		<path fill="#DD57A4" d="M160.4,39.6l-1.7-5.4c-1.6-3.5-3.9-6.3-6.8-8.6c-3.1-2.3-6.6-3.6-10.3-3.9c-3.6-0.3-7.0,0.4-10.2,2.1c-3.6,2.2-6.0,3.7-8.4,7.4c-2.2,3.2-3.6,6.8-4.0,10.8c-0.2,2.4-0.1,4.7,0.3,7.0c0.5,3.8,2.1,8.0,4.6,11.1c1.0,1.3,2.2,2.5,3.5,3.6c1.3,0.7,2.5,1.4,3.8,2.1c2.8,1.1,5.6,1.3,8.5,0.8c2.1-0.2,4.1-0.6,5.9-1.3c4.7-1.3,9.0-4.5,11.7-8.9C160.3,51.5,161.5,45.4,160.4,39.6z"/>
		<path fill="#FFFFFF" d="M153.5,42.8l-1.2-3.4c-1.1-2.2-2.6-4.0-4.7-5.4c-2.2-1.4-4.5-2.3-7.1-2.5c-2.5-0.2-4.8,0.3-7.0,1.3c-2.5,1.4-4.1,2.3-5.8,4.7c-1.5,2.0-2.4,4.3-2.8,6.8c-0.1,1.5-0.1,3.0,0.2,4.4c0.3,2.4,1.4,5.1,3.2,7.0c0.7,0.9,1.5,1.6,2.4,2.3c0.9,0.4,1.7,0.9,2.6,1.3c1.9,0.7,3.8,0.9,5.8,0.5c1.5-0.1,2.8-0.4,4.0-0.8c3.3-0.8,6.2-2.9,8.1-5.6C153.4,50.4,154.2,46.5,153.5,42.8z"/>
		<path d="M135.9,41.8c-7.3,0.0-8.1,11.3-0.7,11.3C142.4,53.1,143.2,41.8,135.9,41.8z"/>
		<path d="M26.3,57.7c0.0-1.1-0.9-2.1-2.0-2.1c-0.8,0.0-1.5,0.3-2.0,0.8c-0.5,0.5-0.8,1.4-0.6,2.1c0.1,0.7,0.7,1.3,1.3,1.5c0.7,0.2,1.4,0.1,2.0-0.4c0.1-0.1,0.2-0.2,0.2-0.3c0.1-0.1,0.3-0.2,0.4-0.3C26.0,58.8,26.3,58.2,26.3,57.7z"/>
		<path d="M32.5,55.5c-0.5-0.1-1.1,0.0-1.6,0.3c-0.3,0.2-0.6,0.5-0.7,0.8c-0.2,0.3-0.2,0.7-0.2,1.1c0.0,0.2,0.1,0.4,0.1,0.7c0.1,0.3,0.2,0.6,0.4,0.8c0.6,0.9,1.8,1.1,2.7,0.6c0.4-0.3,0.7-0.7,0.8-1.2c0.1,0.0,0.1-0.1,0.1-0.3c0.0,0.0,0.0-0.1,0.0-0.1c0.0-0.1,0.0-0.2,0.1-0.3C34.4,56.9,33.6,55.7,32.5,55.5z"/>
		<path fill="#FFFFFF" d="M52.0,68.8c-3.3-0.1-6.6-0.2-9.8-0.3c-0.1,0.3-0.2,0.7-0.3,1.2c-0.1,1.0-0.3,1.7-0.3,2.6c0.0,1.0,0.3,1.9,0.6,2.8c0.5,1.5,1.4,2.5,2.7,3.4c1.6,1.1,3.5,0.5,4.9-0.6c1.0-0.8,1.8-1.8,2.3-2.9c0.3-0.7,0.9-2.0,0.8-2.8C52.8,71.1,52.7,69.8,52.0,68.8z"/>
		<path fill="#FFFFFF" d="M67.7,74.1c-0.1-2.6-1.6-5.3-3.2-6.9c-1.7-1.6-3.9-1.5-5.7-0.1c-1.7,1.3-2.5,3.6-2.9,5.6c-0.1,0.3-0.1,0.7-0.1,1.0C59.8,73.8,63.8,73.9,67.7,74.1z"/>
		<path fill="#FFFFFF" d="M99.8,71.8c-0.4,3.0,0.6,5.7,2.3,8.2c1.6,2.3,4.7,2.2,6.5,0.3c1.8-1.8,3.2-5.5,2.4-8.2C107.3,72.1,103.6,72.0,99.8,71.8z"/>
		<path fill="#FFFFFF" d="M117.2,73.7c3.2,0.3,6.4,0.3,9.6,0.1c0.0-0.4,0.0-0.8-0.1-1.2c-0.1-0.7-0.3-1.2-0.6-1.9c-0.6-1.4-1.8-2.4-2.9-3.4c-1.2-0.9-3.5-0.7-4.5,0.4c-1.5,1.7-2.5,3.6-2.6,5.9c0.0,0.1,0.0,0.1,0.0,0.2C116.5,73.7,116.8,73.7,117.2,73.7z"/>
		<path fill="#DD57A4" d="M384.6,49.9c-2.6,0.7-43.7-4.7-62.0-5.5c-2.3-0.2-4.6-0.4-6.9-0.6c-11.5-1.0-23.0-1.9-34.5-1.9c-0.2-0.3-7.3,2.6-9.0,5.7c-2.1,3.8-2.1,8.7-0.7,12.9c3.2,9.2,12.4,14.2,19.3,17.9c4.6,2.4,9.2,4.0,14.0,4.9c1.6,0.3,3.2,0.5,4.8,0.6c49.5-1.6,72.5-25.0,72.7-25.2C383.7,55.8,386.1,52.6,384.6,49.9z"/>
		<path fill="#C94998" d="M310.5,45.5c-0.1-0.9-0.5-1.7-1.1-2.4c-0.7-0.6-1.1-1.1-1.8-1.7c-1.0-0.8-2.2-1.2-3.4-1.0c-0.8,0.1-1.5,0.4-2.2,0.8c-0.7,0.5-1.2,1.1-1.5,1.8c-0.7,2.0-0.3,4.7,1.0,6.4c1.7,2.1,5.0,2.5,7.1,0.8c1.0-0.8,1.7-2.0,1.9-3.3C310.5,46.4,310.5,45.9,310.5,45.5z"/>
		<path fill="#C94998" d="M340.2,41.6c-6.0-0.1-6.4,8.1-0.4,8.2C345.8,49.9,346.2,41.7,340.2,41.6z"/>
		<path fill="#C94998" d="M356.3,53.5c-3.6-3.3-8.8,2.2-5.2,5.5C354.7,62.3,359.9,56.8,356.3,53.5z"/>
		<path fill="#C94998" d="M283.5,45.6c-0.2-0.9-0.9-1.7-1.7-2.1c-0.3-0.1-0.6-0.2-0.9-0.3c-0.6-0.1-1.2-0.1-1.8,0.0c-0.7,0.4-1.4,0.7-2.0,1.1c-0.7,0.6-1.2,1.3-1.7,2.1c-0.1,0.4-0.3,0.8-0.4,1.2c-0.1,0.6-0.1,1.1,0.1,1.7c0.2,1.0,0.6,1.9,1.5,2.6c1.0,0.8,2.7,1.2,3.9,0.6c1.2-0.4,2.0-1.1,2.5-2.1c0.1-0.1,0.2-0.3,0.2-0.4C284.0,48.6,283.8,47.0,283.5,45.6z"/>
		<path fill="#C94998" d="M275.5,64.8c-0.6-4.0-4.9-4.3-7.6-2.6C258.2,68.3,277.1,75.4,275.5,64.8C275.3,63.7,275.7,66.5,275.5,64.8z"/>
		<path fill="#C94998" d="M299.0,55.6c-1.6-2.3-4.1-3.1-6.6-3.2c-2.4-0.1-4.3,2.3-4.3,4.6c0.0,1.2,0.6,2.3,1.4,3.0c0.7,0.7,1.6,1.0,2.5,1.1c0.4,0.1,0.7,0.2,1.1,0.3c0.1,0.0,0.2,0.0,0.2,0.1c0.1,0.0,0.1,0.0,0.2,0.1c0.0,0.0,0.0,0.0,0.0,0.0c0.1,0.0,0.3,0.1,0.4,0.1c1.0,0.3,1.9,0.0,2.8-0.2C299.1,60.9,300.5,57.7,299.0,55.6z"/>
		<path fill="#C94998" d="M329.6,53.4c-0.3-0.2-0.6-0.5-0.8-0.7c-0.7-0.4-1.4-0.7-2.2-0.7c-0.5,0.0-0.9,0.0-1.4,0.1c-1.4,0.3-2.8,1.3-3.2,2.8c0.0,0.2-0.1,0.4-0.1,0.5c-0.3,1.0-0.3,2.0,0.2,2.9c0.6,1.3,1.9,2.1,3.2,2.2c0.3,0.0,0.5,0.0,0.8,0.0c-0.1,0.0-0.2,0.0-0.3,0.0c0.1,0.0,0.2,0.0,0.3,0.0c2.3,0.2,4.4-1.7,4.5-4.1C330.8,55.4,330.4,54.3,329.6,53.4z"/>
		<path fill="#C94998" d="M369.4,46.6c-0.4-0.6-0.9-1.0-1.6-1.2c-0.8-0.3-1.7,0.0-2.4,0.5c-0.7,0.4-1.3,1.3-1.2,2.1c0.1,0.9,0.4,1.5,1.2,2.1c0.4,0.2,0.7,0.3,1.1,0.4c1.4,0.3,2.8-0.5,3.2-1.9C369.8,47.9,369.7,47.2,369.4,46.6z"/>
		<g>
			<g>
				<path fill="#B53C8D" d="M195.1,69.1c-12.3,7.5-19.2,22.1-17.2,36.4c0.7,5.2,7.7,6.3,9.3,0.9c2.3-7.6,3.3-15.8,7.5-22.7c1.0-1.7,2.4-3.2,3.9-4.4c1.5-1.2,3.3-1.7,4.2-3.6C205.3,70.8,199.5,66.4,195.1,69.1L195.1,69.1z"/>
			</g>
			<g>
				<path fill="#B53C8D" d="M180.7,105.5c-2.8,0.3-4.7,2.3-6.8,4.0c-1.7,1.4-4.1-0.2-3.5-2.3c1.3-4.6,5.7-6.9,10.3-6.6C183.5,100.9,183.4,105.2,180.7,105.5L180.7,105.5z"/>
			</g>
			<g>
				<path fill="#B53C8D" d="M184.2,106.1c-0.8,1.0-1.6,2.1-2.0,3.3c-0.4,1.2-0.1,2.7-0.4,3.9c-0.3,1.3-2.1,2.1-3.2,1.3c-1.8-1.4-2.3-3.4-1.9-5.6c0.6-2.8,2.6-4.8,4.9-6.4C183.8,101.1,185.7,104.4,184.2,106.1L184.2,106.1z"/>
			</g>
			<g>
				<path fill="#B53C8D" d="M186.7,101.1c-1.8,3.0,1.8,5.5,3.5,7.5c1.6,1.9-0.8,4.0-2.8,3.4c-5.8-1.9-8.8-9.0-4.0-13.6C185.2,96.7,188.0,99.0,186.7,101.1L186.7,101.1z"/>
			</g>
		</g>
		<g>
			<g>
				<path fill="#B53C8D" d="M279.1,67.2c-6.8,6.1-9.5,13.6-8.7,22.7c0.6,7.6,3.9,15.2,11.1,18.5c4.0,1.8,7.8-2.3,7.3-6.1c-1.1-8.6-9.9-18.1-2.2-26.9C291.1,70.3,284.6,62.3,279.1,67.2L279.1,67.2z"/>
			</g>
			<g>
				<path fill="#B53C8D" d="M290.5,100.3c0.1-0.2,0.2-0.4,0.3-0.6c-0.2,0.0-0.4,0.0-0.7,0.0c0.3,0.0-0.4-0.1-0.2-0.1c-1.0-0.3-1.8-0.5-2.9-0.3c-1.3,0.3-2.6,1.8-1.8,3.2c1.9,3.4,6.6,3.2,8.9,0.4c0.8-1.0,0.6-2.5-0.4-3.2c-0.5-0.4-1.1-0.5-1.7-0.5c-0.2,0.1-0.4,0.1-0.6,0.2C291.0,99.7,290.7,100.0,290.5,100.3L290.5,100.3z"/>
			</g>
			<g>
				<path fill="#B53C8D" d="M290.4,107.8c-2.5-0.6-2.4-2.8-3.3-4.6c-0.8-1.8-3.9-2.3-4.6-0.1c-0.9,2.5,0.2,5.0,1.9,6.9c1.5,1.7,3.5,2.4,5.8,2.4C292.8,112.3,292.8,108.4,290.4,107.8L290.4,107.8z"/>
			</g>
			<g>
				<path fill="#B53C8D" d="M281.8,109.9c-0.8-2.4,1.3-4.7,2.6-6.4c0.9-1.3,1.3-3.0-0.1-4.1c-1.8-1.5-3.7,0.0-4.9,1.4c-2.0,2.2-3.2,5.2-3.0,8.3c0.1,1.6,0.8,4.0,2.7,4.3C281.0,113.6,282.3,111.7,281.8,109.9L281.8,109.9z"/>
			</g>
		</g>
		<path fill="#C94998" d="M257.9,38.4c-3.7-1.0-10.2-0.4-10.1,4.7c0.0,2.7,1.9,3.8,4.1,4.8c0.5,0.2,7.8,1.3,3.5,1.0C262.0,49.4,265.2,40.3,257.9,38.4C255.9,37.8,260.7,39.1,257.9,38.4z"/>
		<path fill="#DD57A4" d="M99.8,31.4c-18.1,0.0-19.2,32.4-1.0,32.4C116.9,63.8,118.0,31.4,99.8,31.4z"/>
		<path fill="#FFFFFF" d="M100.3,37.8c-12.7-0.8-14.7,19.0-1.9,19.7C111.1,58.3,113.1,38.6,100.3,37.8z"/>
		<path d="M100.4,43.6c-6.1,0.0-6.2,9.5-0.1,9.5C106.4,53.1,106.5,43.6,100.4,43.6z"/>
		<path fill="#C94998" d="M138.4,21.2c-2.2,0.2-4.1,0.9-6.2,1.5c-2.8,0.8-5.6,1.4-8.3,2.5c-3.5,1.4-1.2,7.0,2.4,6.1c4.6-1.2,10.3-1.6,14.1-4.7C142.3,25.0,141.1,21.0,138.4,21.2z"/>
		<path fill="#C94998" d="M107.9,27.8c-4.2-1.2-8.6-0.5-12.8-1.4c-4.1-0.9-4.8,5.4-0.9,6.4c4.2,1.1,9.1,1.7,13.3,0.5C110.1,32.5,110.8,28.6,107.9,27.8z"/>
	</g>
	<g id="active">
		<g id="activeShadow" opacity="0.2">
			<g>
				<g>
					<path fill="#B53C8D" d="M694.1,74.9c-19.7-0.2-38.8,15.7-34.0,36.8c1.1,4.6,8.5,3.6,9.0-0.8c0.8-7.0,3.1-13.4,8.2-18.4c4.8-4.7,11.4-6.5,17.8-7.7C700.7,83.5,699.7,75.0,694.1,74.9L694.1,74.9z" stroke="#000000" stroke-width="14" stroke-miterlimit="10" stroke-linecap="round" stroke-linejoin="round"/>
				</g>
				<g>
					<path fill="#B53C8D" d="M661.8,117.1c0.0-2.0,1.6-2.4,2.9-3.5c1.4-1.2,0.9-4.0-1.2-4.0c-1.4,0.0-2.4,0.3-3.5,1.2c-0.7,0.6-1.2,1.2-1.6,2.0c-0.9,1.4-1.1,3.2-1.0,4.8c0.1,1.2,1.3,2.1,2.4,1.9C661.2,119.4,661.8,118.3,661.8,117.1L661.8,117.1z" stroke="#000000" stroke-width="14" stroke-miterlimit="10" stroke-linecap="round" stroke-linejoin="round"/>
				</g>
				<g>
					<path fill="#B53C8D" d="M669.5,115.0c-2.4-1.4-1.4-4.1-1.6-6.4c-0.1-2.1-2.5-2.2-3.7-1.1c-2.4,2.0-1.9,5.6-0.9,8.1c0.7,2.0,2.5,3.2,4.4,4.0C670.3,120.5,671.9,116.3,669.5,115.0L669.5,115.0z" stroke="#000000" stroke-width="14" stroke-miterlimit="10" stroke-linecap="round" stroke-linejoin="round"/>
				</g>
				<g>
					<path fill="#B53C8D" d="M673.5,108.7c-2.3,0.3-3.6-1.5-5.4-2.6c0.3,0.3,0.7,0.6,1.0,0.9c-0.5-0.6-1.0-1.1-1.6-1.6c-1.6-1.3-4.0,0.6-3.5,2.4c1.3,4.7,5.9,7.1,10.5,5.8C677.5,112.7,676.7,108.2,673.5,108.7L673.5,108.7z" stroke="#000000" stroke-width="14" stroke-miterlimit="10" stroke-linecap="round" stroke-linejoin="round"/>
				</g>
			</g>
			<g>
				<g>
					<path fill="#B53C8D" d="M591.4,67.9c-18.7,3.0-35.5,19.9-32.4,39.8c0.7,4.4,8.0,5.4,9.1,0.7c1.8-7.6,3.2-14.6,8.5-20.7c4.4-5.1,10.6-8.2,17.1-9.6C600.3,76.7,598.0,66.8,591.4,67.9L591.4,67.9z" stroke="#000000" stroke-width="14" stroke-miterlimit="10" stroke-linecap="round" stroke-linejoin="round"/>
				</g>
				<g>
					<path fill="#B53C8D" d="M568.9,103.9c0.2,1.7,0.5,3.0,1.4,4.5c0.6,1.0,1.3,1.8,1.5,3.0c0.2,1.0-0.2,2.1-1.2,2.6c-0.4,0.2-0.8,0.3-1.2,0.3c-0.2,0.0-0.4-0.1-0.6-0.1c-0.4-0.1-0.8-0.3-1.0-0.7c-1.5,0.1-2.6-2.8-3.0-3.9c-0.8-2.0-0.5-4.2,0.3-6.2C565.8,101.7,568.6,101.9,568.9,103.9L568.9,103.9z" stroke="#000000" stroke-width="14" stroke-miterlimit="10" stroke-linecap="round" stroke-linejoin="round"/>
				</g>
				<g>
					<path fill="#B53C8D" d="M566.5,107.0c-1.1,1.0-2.3,2.5-2.7,4.0c-0.2,1.0-0.3,1.9-0.9,2.8c-1.2,1.8-3.6,1.3-4.5-0.4c-1.0-1.9-0.2-4.1,0.7-5.8c1.2-2.1,3.2-3.3,5.4-4.2C566.5,102.6,568.0,105.6,566.5,107.0L566.5,107.0z" stroke="#000000" stroke-width="14" stroke-miterlimit="10" stroke-linecap="round" stroke-linejoin="round"/>
				</g>
				<g>
					<path fill="#B53C8D" d="M562.5,106.9c-2.2,0.1-4.1,1.9-5.7,3.2c-1.6,1.2-3.8-0.4-3.5-2.2c0.8-5.0,5.6-5.7,9.8-5.2C565.5,103.0,564.8,106.8,562.5,106.9L562.5,106.9z" stroke="#000000" stroke-width="14" stroke-miterlimit="10" stroke-linecap="round" stroke-linejoin="round"/>
				</g>
			</g>
			<path fill="#DD57A4" d="M567.4,47.0c-9.4-5.2-30.4-9.3-31.2,6.0c-2.4,30.6,33.8,41.9,58.5,44.4c2.5,0.3,5.0,0.6,7.5,0.8c11.3,1.5,22.6,1.5,33.6,1.2c3.0,0.0,6.1,0.2,9.2,0.3c24.6,1.2,50.5,4.6,69.2-12.2c1.3-1.2,2.3-2.7,2.9-4.3c0.6-1.6,0.8-3.4,0.8-5.3c-13.3-51.6-82.5-29.9-122.0-27.5c-6.4,0.0-12.1,0.0-18.6-1.3c-2.2-0.4-4.3-0.8-6.5-1.4C568.8,47.5,567.6,47.1,567.4,47.0z" stroke="#000000" stroke-width="14" stroke-miterlimit="10" stroke-linecap="round" stroke-linejoin="round"/>
			<g>
				<path fill="#C94998" d="M608.8,47.6C608.8,47.6,608.8,47.6,608.8,47.6C609.1,47.7,609.2,47.7,608.8,47.6z" stroke="#000000" stroke-width="14" stroke-miterlimit="10" stroke-linecap="round" stroke-linejoin="round"/>
				<path fill="#C94998" d="M603.7,48.3c-2.4,0.9-3.8,3.4-3.5,5.8c0.3,2.6,2.3,4.4,4.8,4.9c1.5,0.3,1.9,0.2,2.9,0.3c2.6,0.1,5.0-2.2,5.5-4.7c0.6-3.0-1.4-6.4-4.5-7.0c-0.2,0.0-0.6-0.1-0.6-0.1C606.5,47.3,605.3,47.7,603.7,48.3z" stroke="#000000" stroke-width="14" stroke-miterlimit="10" stroke-linecap="round" stroke-linejoin="round"/>
			</g>
			<path fill="#C94998" d="M640.8,48.8c-0.7-7.6-13.0-5.4-14.7,0.6C623.2,59.2,641.5,57.2,640.8,48.8C640.6,47.5,641.0,51.2,640.8,48.8z" stroke="#000000" stroke-width="14" stroke-miterlimit="10" stroke-linecap="round" stroke-linejoin="round"/>
			<path fill="#C94998" d="M579.7,47.8c-6.7-0.1-7.1,8.7-0.5,8.8C585.9,56.8,586.4,47.9,579.7,47.8z" stroke="#000000" stroke-width="14" stroke-miterlimit="10" stroke-linecap="round" stroke-linejoin="round"/>
			<path fill="#C94998" d="M596.8,65.1c-4.4-6.1-16.3-0.5-10.0,4.8C590.2,72.7,601.2,71.1,596.8,65.1C596.0,64.1,597.4,65.9,596.8,65.1z" stroke="#000000" stroke-width="14" stroke-miterlimit="10" stroke-linecap="round" stroke-linejoin="round"/>
			<path fill="#C94998" d="M615.6,68.9c0.6,9.0,19.3,5.4,16.2-2.6C632.9,62.8,614.9,59.4,615.6,68.9C615.8,71.9,615.5,67.5,615.6,68.9z" stroke="#000000" stroke-width="14" stroke-miterlimit="10" stroke-linecap="round" stroke-linejoin="round"/>
			<path fill="#C94998" d="M657.2,67.3c-2.1-2.4-6.6-5.2-9.8-3.5c-1.9,1.0-3.0,3.1-2.8,5.2c0.1,0.8,3.2,5.5,0.9,2.5C650.2,77.5,663.6,74.7,657.2,67.3C656.1,66.1,658.7,69.0,657.2,67.3z" stroke="#000000" stroke-width="14" stroke-miterlimit="10" stroke-linecap="round" stroke-linejoin="round"/>
			<path fill="#F967BB" d="M705.1,82.5c-6.6-0.2-12.9,2.0-19.4,2.9c-5.6,0.8-11.3,1.3-16.9,1.7c-12.0,0.9-23.8,1.9-35.8,1.4c-12.2-0.5-24.5-1.4-36.7-2.4c-10.6-0.9-21.4-2.0-31.5-5.7c-6.3-2.3-10.3,6.8-4.1,9.6c10.8,4.8,22.2,7.5,33.9,8.9c13.1,1.6,26.3,3.3,39.4,4.0c12.2,0.7,24.4,0.0,36.6-0.9c12.5-0.9,26.4-4.4,38.6-8.4C735.1,85.2,710.7,82.7,705.1,82.5z" stroke="#000000" stroke-width="14" stroke-miterlimit="10" stroke-linecap="round" stroke-linejoin="round"/>
			<path fill="#F967BB" d="M581.8,76.1c-10.4-8.5-23.2,1.9-34.5,1.3c-2.3,0.1-4.5,0.2-6.7,0.3c-11.0,0.3-22.0,0.8-33.0,0.7c-12.0-0.1-23.9-0.3-35.9-1.2c-6.1-0.5-12.2-1.0-18.3-1.3c-5.5-0.3-11.3,0.6-16.7-0.5c-5.1-1.0-8.6,7.2-3.4,9.6c5.8,2.6,11.8,2.8,18.0,3.5c5.8,0.7,11.5,1.5,17.3,2.2c11.9,1.4,23.6,2.3,35.5,2.6c10.1,0.3,20.2,0.3,30.3,0.1c2.0,0.0,4.0-0.1,6.1-0.2c13.6-2.3,33.2-1.5,41.4-15.4C582.0,77.9,582.0,77.3,581.8,76.1z" stroke="#000000" stroke-width="14" stroke-miterlimit="10" stroke-linecap="round" stroke-linejoin="round"/>
			<path fill="#DD57A4" d="M511.0,65.1c-1.4,0.0-5.7-0.3-7.7-0.2c-11.2,0.5-36.6,0.6-41.3,0.6c-4.0-0.3-8.0-0.6-12.0-1.1c-2.7-5.8-6.5-11.3-15.4-10.9c-6.3,0.3-9.8,5.2-10.4,9.6c-0.6,4.5,3.2,10.3,7.3,13.3c0.9,0.7,2.0,1.0,3.1,1.0c1.1,0.6,2.7,0.9,4.4,0.6c3.1-0.6,27.9,0.0,37.4,0.4c11.5,0.5,23.1,1.2,34.6,1.6c0.5,0.0,1.0,0.0,1.5,0.0C532.7,82.4,522.8,64.3,511.0,65.1z" stroke="#000000" stroke-width="14" stroke-miterlimit="10" stroke-linecap="round" stroke-linejoin="round"/>
			<path fill="#DD57A4" d="M577.1,63.6c-0.4-1.5-0.9-3.0-1.5-4.4c-0.6-1.5-1.2-2.9-2.0-4.3c-4.2-8.1-11.0-14.3-17.2-20.7c-1.7-1.5-3.6-3.0-5.7-4.4c-13.2-5.6-37.0-14.5-43.7,4.7c-0.4,1.6-0.8,3.2-1.0,4.7c0.6,15.6,2.7,27.2,3.8,40.9c12.2-0.1,34.9-1.5,38.7-1.6c5.4-0.1,29.7,0.8,29.7-5.7C578.3,69.6,577.9,66.5,577.1,63.6z" stroke="#000000" stroke-width="14" stroke-miterlimit="10" stroke-linecap="round" stroke-linejoin="round"/>
			<path fill="#DD57A4" d="M568.4,45.6l-1.7-5.4c-1.6-3.5-3.9-6.3-6.8-8.6c-3.1-2.3-6.6-3.6-10.3-3.9c-3.6-0.3-7.0,0.4-10.2,2.1c-3.6,2.2-6.0,3.7-8.4,7.4c-2.2,3.2-3.6,6.8-4.0,10.8c-0.2,2.4-0.1,4.7,0.3,7.0c0.5,3.8,2.1,8.0,4.6,11.1c1.0,1.3,2.2,2.5,3.5,3.6c1.3,0.7,2.5,1.4,3.8,2.1c2.8,1.1,5.6,1.3,8.5,0.8c2.1-0.2,4.1-0.6,5.9-1.3c4.7-1.3,9.0-4.5,11.7-8.9C568.3,57.5,569.5,51.4,568.4,45.6z" stroke="#000000" stroke-width="14" stroke-miterlimit="10" stroke-linecap="round" stroke-linejoin="round"/>
			<path fill="#FFFFFF" d="M561.5,48.8l-1.2-3.4c-1.1-2.2-2.6-4.0-4.7-5.4c-2.2-1.4-4.5-2.3-7.1-2.5c-2.5-0.2-4.8,0.3-7.0,1.3c-2.5,1.4-4.1,2.3-5.8,4.7c-1.5,2.0-2.4,4.3-2.8,6.8c-0.1,1.5-0.1,3.0,0.2,4.4c0.3,2.4,1.4,5.1,3.2,7.0c0.7,0.9,1.5,1.6,2.4,2.3c0.9,0.4,1.7,0.9,2.6,1.3c1.9,0.7,3.8,0.9,5.8,0.5c1.5-0.1,2.8-0.4,4.0-0.8c3.3-0.8,6.2-2.9,8.1-5.6C561.4,56.4,562.2,52.5,561.5,48.8z" stroke="#000000" stroke-width="14" stroke-miterlimit="10" stroke-linecap="round" stroke-linejoin="round"/>
			<path d="M543.9,47.8c-7.3,0.0-8.1,11.3-0.7,11.3C550.4,59.1,551.2,47.8,543.9,47.8z" stroke="#000000" stroke-width="14" stroke-miterlimit="10" stroke-linecap="round" stroke-linejoin="round"/>
			<path d="M434.3,63.7c0.0-1.1-0.9-2.1-2.0-2.1c-0.8,0.0-1.5,0.3-2.0,0.8c-0.5,0.5-0.8,1.4-0.6,2.1c0.1,0.7,0.7,1.3,1.3,1.5c0.7,0.2,1.4,0.1,2.0-0.4c0.1-0.1,0.2-0.2,0.2-0.3c0.1-0.1,0.3-0.2,0.4-0.3C434.0,64.8,434.3,64.2,434.3,63.7z" stroke="#000000" stroke-width="14" stroke-miterlimit="10" stroke-linecap="round" stroke-linejoin="round"/>
			<path d="M440.5,61.5c-0.5-0.1-1.1,0.0-1.6,0.3c-0.3,0.2-0.6,0.5-0.7,0.8c-0.2,0.3-0.2,0.7-0.2,1.1c0.0,0.2,0.1,0.4,0.1,0.7c0.1,0.3,0.2,0.6,0.4,0.8c0.6,0.9,1.8,1.1,2.7,0.6c0.4-0.3,0.7-0.7,0.8-1.2c0.1,0.0,0.1-0.1,0.1-0.3c0.0,0.0,0.0-0.1,0.0-0.1c0.0-0.1,0.0-0.2,0.1-0.3C442.4,62.9,441.6,61.7,440.5,61.5z" stroke="#000000" stroke-width="14" stroke-miterlimit="10" stroke-linecap="round" stroke-linejoin="round"/>
			<path fill="#FFFFFF" d="M460.0,74.8c-3.3-0.1-6.6-0.2-9.8-0.3c-0.1,0.3-0.2,0.7-0.3,1.2c-0.1,1.0-0.3,1.7-0.3,2.6c0.0,1.0,0.3,1.9,0.6,2.8c0.5,1.5,1.4,2.5,2.7,3.4c1.6,1.1,3.5,0.5,4.9-0.6c1.0-0.8,1.8-1.8,2.3-2.9c0.3-0.7,0.9-2.0,0.8-2.8C460.8,77.1,460.7,75.8,460.0,74.8z" stroke="#000000" stroke-width="14" stroke-miterlimit="10" stroke-linecap="round" stroke-linejoin="round"/>
			<path fill="#FFFFFF" d="M475.7,80.1c-0.1-2.6-1.6-5.3-3.2-6.9c-1.7-1.6-3.9-1.5-5.7-0.1c-1.7,1.3-2.5,3.6-2.9,5.6c-0.1,0.3-0.1,0.7-0.1,1.0C467.8,79.8,471.8,79.9,475.7,80.1z" stroke="#000000" stroke-width="14" stroke-miterlimit="10" stroke-linecap="round" stroke-linejoin="round"/>
			<path fill="#FFFFFF" d="M507.8,77.8c-0.4,3.0,0.6,5.7,2.3,8.2c1.6,2.3,4.7,2.2,6.5,0.3c1.8-1.8,3.2-5.5,2.4-8.2C515.3,78.1,511.6,78.0,507.8,77.8z" stroke="#000000" stroke-width="14" stroke-miterlimit="10" stroke-linecap="round" stroke-linejoin="round"/>
			<path fill="#FFFFFF" d="M525.2,79.7c3.2,0.3,6.4,0.3,9.6,0.1c0.0-0.4,0.0-0.8-0.1-1.2c-0.1-0.7-0.3-1.2-0.6-1.9c-0.6-1.4-1.8-2.4-2.9-3.4c-1.2-0.9-3.5-0.7-4.5,0.4c-1.5,1.7-2.5,3.6-2.6,5.9c0.0,0.1,0.0,0.1,0.0,0.2C524.5,79.7,524.8,79.7,525.2,79.7z" stroke="#000000" stroke-width="14" stroke-miterlimit="10" stroke-linecap="round" stroke-linejoin="round"/>
			<path fill="#DD57A4" d="M792.6,55.9c-2.6,0.7-43.7-4.7-62.0-5.5c-2.3-0.2-4.6-0.4-6.9-0.6c-11.5-1.0-23.0-1.9-34.5-1.9c-0.2-0.3-7.3,2.6-9.0,5.7c-2.1,3.8-2.1,8.7-0.7,12.9c3.2,9.2,12.4,14.2,19.3,17.9c4.6,2.4,9.2,4.0,14.0,4.9c1.6,0.3,3.2,0.5,4.8,0.6c49.5-1.6,72.5-25.0,72.7-25.2C791.7,61.8,794.1,58.6,792.6,55.9z" stroke="#000000" stroke-width="14" stroke-miterlimit="10" stroke-linecap="round" stroke-linejoin="round"/>
			<path fill="#C94998" d="M718.5,51.5c-0.1-0.9-0.5-1.7-1.1-2.4c-0.7-0.6-1.1-1.1-1.8-1.7c-1.0-0.8-2.2-1.2-3.4-1.0c-0.8,0.1-1.5,0.4-2.2,0.8c-0.7,0.5-1.2,1.1-1.5,1.8c-0.7,2.0-0.3,4.7,1.0,6.4c1.7,2.1,5.0,2.5,7.1,0.8c1.0-0.8,1.7-2.0,1.9-3.3C718.5,52.4,718.5,51.9,718.5,51.5z" stroke="#000000" stroke-width="14" stroke-miterlimit="10" stroke-linecap="round" stroke-linejoin="round"/>
			<path fill="#C94998" d="M748.2,47.6c-6.0-0.1-6.4,8.1-0.4,8.2C753.8,55.9,754.2,47.7,748.2,47.6z" stroke="#000000" stroke-width="14" stroke-miterlimit="10" stroke-linecap="round" stroke-linejoin="round"/>
			<path fill="#C94998" d="M764.3,59.5c-3.6-3.3-8.8,2.2-5.2,5.5C762.7,68.3,767.9,62.8,764.3,59.5z" stroke="#000000" stroke-width="14" stroke-miterlimit="10" stroke-linecap="round" stroke-linejoin="round"/>
			<path fill="#C94998" d="M691.5,51.6c-0.2-0.9-0.9-1.7-1.7-2.1c-0.3-0.1-0.6-0.2-0.9-0.3c-0.6-0.1-1.2-0.1-1.8,0.0c-0.7,0.4-1.4,0.7-2.0,1.1c-0.7,0.6-1.2,1.3-1.7,2.1c-0.1,0.4-0.3,0.8-0.4,1.2c-0.1,0.6-0.1,1.1,0.1,1.7c0.2,1.0,0.6,1.9,1.5,2.6c1.0,0.8,2.7,1.2,3.9,0.6c1.2-0.4,2.0-1.1,2.5-2.1c0.1-0.1,0.2-0.3,0.2-0.4C692.0,54.6,691.8,53.0,691.5,51.6z" stroke="#000000" stroke-width="14" stroke-miterlimit="10" stroke-linecap="round" stroke-linejoin="round"/>
			<path fill="#C94998" d="M683.5,70.8c-0.6-4.0-4.9-4.3-7.6-2.6C666.2,74.3,685.1,81.4,683.5,70.8C683.3,69.7,683.7,72.5,683.5,70.8z" stroke="#000000" stroke-width="14" stroke-miterlimit="10" stroke-linecap="round" stroke-linejoin="round"/>
			<path fill="#C94998" d="M707.0,61.6c-1.6-2.3-4.1-3.1-6.6-3.2c-2.4-0.1-4.3,2.3-4.3,4.6c0.0,1.2,0.6,2.3,1.4,3.0c0.7,0.7,1.6,1.0,2.5,1.1c0.4,0.1,0.7,0.2,1.1,0.3c0.1,0.0,0.2,0.0,0.2,0.1c0.1,0.0,0.1,0.0,0.2,0.1c0.0,0.0,0.0,0.0,0.0,0.0c0.1,0.0,0.3,0.1,0.4,0.1c1.0,0.3,1.9,0.0,2.8-0.2C707.1,66.9,708.5,63.7,707.0,61.6z" stroke="#000000" stroke-width="14" stroke-miterlimit="10" stroke-linecap="round" stroke-linejoin="round"/>
			<path fill="#C94998" d="M737.6,59.4c-0.3-0.2-0.6-0.5-0.8-0.7c-0.7-0.4-1.4-0.7-2.2-0.7c-0.5,0.0-0.9,0.0-1.4,0.1c-1.4,0.3-2.8,1.3-3.2,2.8c0.0,0.2-0.1,0.4-0.1,0.5c-0.3,1.0-0.3,2.0,0.2,2.9c0.6,1.3,1.9,2.1,3.2,2.2c0.3,0.0,0.5,0.0,0.8,0.0c-0.1,0.0-0.2,0.0-0.3,0.0c0.1,0.0,0.2,0.0,0.3,0.0c2.3,0.2,4.4-1.7,4.5-4.1C738.8,61.4,738.4,60.3,737.6,59.4z" stroke="#000000" stroke-width="14" stroke-miterlimit="10" stroke-linecap="round" stroke-linejoin="round"/>
			<path fill="#C94998" d="M777.4,52.6c-0.4-0.6-0.9-1.0-1.6-1.2c-0.8-0.3-1.7,0.0-2.4,0.5c-0.7,0.4-1.3,1.3-1.2,2.1c0.1,0.9,0.4,1.5,1.2,2.1c0.4,0.2,0.7,0.3,1.1,0.4c1.4,0.3,2.8-0.5,3.2-1.9C777.8,53.9,777.7,53.2,777.4,52.6z" stroke="#000000" stroke-width="14" stroke-miterlimit="10" stroke-linecap="round" stroke-linejoin="round"/>
			<g>
				<g>
					<path fill="#B53C8D" d="M603.1,75.1c-12.3,7.5-19.2,22.1-17.2,36.4c0.7,5.2,7.7,6.3,9.3,0.9c2.3-7.6,3.3-15.8,7.5-22.7c1.0-1.7,2.4-3.2,3.9-4.4c1.5-1.2,3.3-1.7,4.2-3.6C613.3,76.8,607.5,72.4,603.1,75.1L603.1,75.1z" stroke="#000000" stroke-width="14" stroke-miterlimit="10" stroke-linecap="round" stroke-linejoin="round"/>
				</g>
				<g>
					<path fill="#B53C8D" d="M588.7,111.5c-2.8,0.3-4.7,2.3-6.8,4.0c-1.7,1.4-4.1-0.2-3.5-2.3c1.3-4.6,5.7-6.9,10.3-6.6C591.5,106.9,591.4,111.2,588.7,111.5L588.7,111.5z" stroke="#000000" stroke-width="14" stroke-miterlimit="10" stroke-linecap="round" stroke-linejoin="round"/>
				</g>
				<g>
					<path fill="#B53C8D" d="M592.2,112.1c-0.8,1.0-1.6,2.1-2.0,3.3c-0.4,1.2-0.1,2.7-0.4,3.9c-0.3,1.3-2.1,2.1-3.2,1.3c-1.8-1.4-2.3-3.4-1.9-5.6c0.6-2.8,2.6-4.8,4.9-6.4C591.8,107.1,593.7,110.4,592.2,112.1L592.2,112.1z" stroke="#000000" stroke-width="14" stroke-miterlimit="10" stroke-linecap="round" stroke-linejoin="round"/>
				</g>
				<g>
					<path fill="#B53C8D" d="M594.7,107.1c-1.8,3.0,1.8,5.5,3.5,7.5c1.6,1.9-0.8,4.0-2.8,3.4c-5.8-1.9-8.8-9.0-4.0-13.6C593.2,102.7,596.0,105.0,594.7,107.1L594.7,107.1z" stroke="#000000" stroke-width="14" stroke-miterlimit="10" stroke-linecap="round" stroke-linejoin="round"/>
				</g>
			</g>
			<g>
				<g>
					<path fill="#B53C8D" d="M687.1,73.2c-6.8,6.1-9.5,13.6-8.7,22.7c0.6,7.6,3.9,15.2,11.1,18.5c4.0,1.8,7.8-2.3,7.3-6.1c-1.1-8.6-9.9-18.1-2.2-26.9C699.1,76.3,692.6,68.3,687.1,73.2L687.1,73.2z" stroke="#000000" stroke-width="14" stroke-miterlimit="10" stroke-linecap="round" stroke-linejoin="round"/>
				</g>
				<g>
					<path fill="#B53C8D" d="M698.5,106.3c0.1-0.2,0.2-0.4,0.3-0.6c-0.2,0.0-0.4,0.0-0.7,0.0c0.3,0.0-0.4-0.1-0.2-0.1c-1.0-0.3-1.8-0.5-2.9-0.3c-1.3,0.3-2.6,1.8-1.8,3.2c1.9,3.4,6.6,3.2,8.9,0.4c0.8-1.0,0.6-2.5-0.4-3.2c-0.5-0.4-1.1-0.5-1.7-0.5c-0.2,0.1-0.4,0.1-0.6,0.2C699.0,105.7,698.7,106.0,698.5,106.3L698.5,106.3z" stroke="#000000" stroke-width="14" stroke-miterlimit="10" stroke-linecap="round" stroke-linejoin="round"/>
				</g>
				<g>
					<path fill="#B53C8D" d="M698.4,113.8c-2.5-0.6-2.4-2.8-3.3-4.6c-0.8-1.8-3.9-2.3-4.6-0.1c-0.9,2.5,0.2,5.0,1.9,6.9c1.5,1.7,3.5,2.4,5.8,2.4C700.8,118.3,700.8,114.4,698.4,113.8L698.4,113.8z" stroke="#000000" stroke-width="14" stroke-miterlimit="10" stroke-linecap="round" stroke-linejoin="round"/>
				</g>
				<g>
					<path fill="#B53C8D" d="M689.8,115.9c-0.8-2.4,1.3-4.7,2.6-6.4c0.9-1.3,1.3-3.0-0.1-4.1c-1.8-1.5-3.7,0.0-4.9,1.4c-2.0,2.2-3.2,5.2-3.0,8.3c0.1,1.6,0.8,4.0,2.7,4.3C689.0,119.6,690.3,117.7,689.8,115.9L689.8,115.9z" stroke="#000000" stroke-width="14" stroke-miterlimit="10" stroke-linecap="round" stroke-linejoin="round"/>
				</g>
			</g>
			<path fill="#C94998" d="M665.9,44.4c-3.7-1.0-10.2-0.4-10.1,4.7c0.0,2.7,1.9,3.8,4.1,4.8c0.5,0.2,7.8,1.3,3.5,1.0C670.0,55.4,673.2,46.3,665.9,44.4C663.9,43.8,668.7,45.1,665.9,44.4z" stroke="#000000" stroke-width="14" stroke-miterlimit="10" stroke-linecap="round" stroke-linejoin="round"/>
			<path fill="#DD57A4" d="M507.8,37.4c-18.1,0.0-19.2,32.4-1.0,32.4C524.9,69.8,526.0,37.4,507.8,37.4z" stroke="#000000" stroke-width="14" stroke-miterlimit="10" stroke-linecap="round" stroke-linejoin="round"/>
			<path fill="#FFFFFF" d="M508.3,43.8c-12.7-0.8-14.7,19.0-1.9,19.7C519.1,64.3,521.1,44.6,508.3,43.8z" stroke="#000000" stroke-width="14" stroke-miterlimit="10" stroke-linecap="round" stroke-linejoin="round"/>
			<path d="M508.4,49.6c-6.1,0.0-6.2,9.5-0.1,9.5C514.4,59.1,514.5,49.6,508.4,49.6z" stroke="#000000" stroke-width="14" stroke-miterlimit="10" stroke-linecap="round" stroke-linejoin="round"/>
			<path fill="#C94998" d="M546.4,27.2c-2.2,0.2-4.1,0.9-6.2,1.5c-2.8,0.8-5.6,1.4-8.3,2.5c-3.5,1.4-1.2,7.0,2.4,6.1c4.6-1.2,10.3-1.6,14.1-4.7C550.3,31.0,549.1,27.0,546.4,27.2z" stroke="#000000" stroke-width="14" stroke-miterlimit="10" stroke-linecap="round" stroke-linejoin="round"/>
			<path fill="#C94998" d="M515.9,33.8c-4.2-1.2-8.6-0.5-12.8-1.4c-4.1-0.9-4.8,5.4-0.9,6.4c4.2,1.1,9.1,1.7,13.3,0.5C518.1,38.5,518.8,34.6,515.9,33.8z" stroke="#000000" stroke-width="14" stroke-miterlimit="10" stroke-linecap="round" stroke-linejoin="round"/>
		</g>
		<g id="activeStroke">
			<g>
				<g>
					<path fill="#B53C8D" d="M688.1,68.9c-19.7-0.2-38.8,15.7-34.0,36.8c1.1,4.6,8.5,3.6,9.0-0.8c0.8-7.0,3.1-13.4,8.2-18.4c4.8-4.7,11.4-6.5,17.8-7.7C694.7,77.5,693.7,69.0,688.1,68.9L688.1,68.9z" stroke="#FFFFFF" stroke-width="14" stroke-miterlimit="10" stroke-linecap="round" stroke-linejoin="round"/>
				</g>
				<g>
					<path fill="#B53C8D" d="M655.8,111.1c0.0-2.0,1.6-2.4,2.9-3.5c1.4-1.2,0.9-4.0-1.2-4.0c-1.4,0.0-2.4,0.3-3.5,1.2c-0.7,0.6-1.2,1.2-1.6,2.0c-0.9,1.4-1.1,3.2-1.0,4.8c0.1,1.2,1.3,2.1,2.4,1.9C655.2,113.4,655.8,112.3,655.8,111.1L655.8,111.1z" stroke="#FFFFFF" stroke-width="14" stroke-miterlimit="10" stroke-linecap="round" stroke-linejoin="round"/>
				</g>
				<g>
					<path fill="#B53C8D" d="M663.5,109.0c-2.4-1.4-1.4-4.1-1.6-6.4c-0.1-2.1-2.5-2.2-3.7-1.1c-2.4,2.0-1.9,5.6-0.9,8.1c0.7,2.0,2.5,3.2,4.4,4.0C664.3,114.5,665.9,110.3,663.5,109.0L663.5,109.0z" stroke="#FFFFFF" stroke-width="14" stroke-miterlimit="10" stroke-linecap="round" stroke-linejoin="round"/>
				</g>
				<g>
					<path fill="#B53C8D" d="M667.5,102.7c-2.3,0.3-3.6-1.5-5.4-2.6c0.3,0.3,0.7,0.6,1.0,0.9c-0.5-0.6-1.0-1.1-1.6-1.6c-1.6-1.3-4.0,0.6-3.5,2.4c1.3,4.7,5.9,7.1,10.5,5.8C671.5,106.7,670.7,102.2,667.5,102.7L667.5,102.7z" stroke="#FFFFFF" stroke-width="14" stroke-miterlimit="10" stroke-linecap="round" stroke-linejoin="round"/>
				</g>
			</g>
			<g>
				<g>
					<path fill="#B53C8D" d="M585.4,61.9c-18.7,3.0-35.5,19.9-32.4,39.8c0.7,4.4,8.0,5.4,9.1,0.7c1.8-7.6,3.2-14.6,8.5-20.7c4.4-5.1,10.6-8.2,17.1-9.6C594.3,70.7,592.0,60.8,585.4,61.9L585.4,61.9z" stroke="#FFFFFF" stroke-width="14" stroke-miterlimit="10" stroke-linecap="round" stroke-linejoin="round"/>
				</g>
				<g>
					<path fill="#B53C8D" d="M562.9,97.9c0.2,1.7,0.5,3.0,1.4,4.5c0.6,1.0,1.3,1.8,1.5,3.0c0.2,1.0-0.2,2.1-1.2,2.6c-0.4,0.2-0.8,0.3-1.2,0.3c-0.2,0.0-0.4-0.1-0.6-0.1c-0.4-0.1-0.8-0.3-1.0-0.7c-1.5,0.1-2.6-2.8-3.0-3.9c-0.8-2.0-0.5-4.2,0.3-6.2C559.8,95.7,562.6,95.9,562.9,97.9L562.9,97.9z" stroke="#FFFFFF" stroke-width="14" stroke-miterlimit="10" stroke-linecap="round" stroke-linejoin="round"/>
				</g>
				<g>
					<path fill="#B53C8D" d="M560.5,101.0c-1.1,1.0-2.3,2.5-2.7,4.0c-0.2,1.0-0.3,1.9-0.9,2.8c-1.2,1.8-3.6,1.3-4.5-0.4c-1.0-1.9-0.2-4.1,0.7-5.8c1.2-2.1,3.2-3.3,5.4-4.2C560.5,96.6,562.0,99.6,560.5,101.0L560.5,101.0z" stroke="#FFFFFF" stroke-width="14" stroke-miterlimit="10" stroke-linecap="round" stroke-linejoin="round"/>
				</g>
				<g>
					<path fill="#B53C8D" d="M556.5,100.9c-2.2,0.1-4.1,1.9-5.7,3.2c-1.6,1.2-3.8-0.4-3.5-2.2c0.8-5.0,5.6-5.7,9.8-5.2C559.5,97.0,558.8,100.8,556.5,100.9L556.5,100.9z" stroke="#FFFFFF" stroke-width="14" stroke-miterlimit="10" stroke-linecap="round" stroke-linejoin="round"/>
				</g>
			</g>
			<path fill="#DD57A4" d="M561.4,41.0c-9.4-5.2-30.4-9.3-31.2,6.0c-2.4,30.6,33.8,41.9,58.5,44.4c2.5,0.3,5.0,0.6,7.5,0.8c11.3,1.5,22.6,1.5,33.6,1.2c3.0,0.0,6.1,0.2,9.2,0.3c24.6,1.2,50.5,4.6,69.2-12.2c1.3-1.2,2.3-2.7,2.9-4.3c0.6-1.6,0.8-3.4,0.8-5.3c-13.3-51.6-82.5-29.9-122.0-27.5c-6.4,0.0-12.1,0.0-18.6-1.3c-2.2-0.4-4.3-0.8-6.5-1.4C562.8,41.5,561.6,41.1,561.4,41.0z" stroke="#FFFFFF" stroke-width="14" stroke-miterlimit="10" stroke-linecap="round" stroke-linejoin="round"/>
			<g>
				<path fill="#C94998" d="M602.8,41.6C602.8,41.6,602.8,41.6,602.8,41.6C603.1,41.7,603.2,41.7,602.8,41.6z" stroke="#FFFFFF" stroke-width="14" stroke-miterlimit="10" stroke-linecap="round" stroke-linejoin="round"/>
				<path fill="#C94998" d="M597.7,42.3c-2.4,0.9-3.8,3.4-3.5,5.8c0.3,2.6,2.3,4.4,4.8,4.9c1.5,0.3,1.9,0.2,2.9,0.3c2.6,0.1,5.0-2.2,5.5-4.7c0.6-3.0-1.4-6.4-4.5-7.0c-0.2,0.0-0.6-0.1-0.6-0.1C600.5,41.3,599.3,41.7,597.7,42.3z" stroke="#FFFFFF" stroke-width="14" stroke-miterlimit="10" stroke-linecap="round" stroke-linejoin="round"/>
			</g>
			<path fill="#C94998" d="M634.8,42.8c-0.7-7.6-13.0-5.4-14.7,0.6C617.2,53.2,635.5,51.2,634.8,42.8C634.6,41.5,635.0,45.2,634.8,42.8z" stroke="#FFFFFF" stroke-width="14" stroke-miterlimit="10" stroke-linecap="round" stroke-linejoin="round"/>
			<path fill="#C94998" d="M573.7,41.8c-6.7-0.1-7.1,8.7-0.5,8.8C579.9,50.8,580.4,41.9,573.7,41.8z" stroke="#FFFFFF" stroke-width="14" stroke-miterlimit="10" stroke-linecap="round" stroke-linejoin="round"/>
			<path fill="#C94998" d="M590.8,59.1c-4.4-6.1-16.3-0.5-10.0,4.8C584.2,66.7,595.2,65.1,590.8,59.1C590.0,58.1,591.4,59.9,590.8,59.1z" stroke="#FFFFFF" stroke-width="14" stroke-miterlimit="10" stroke-linecap="round" stroke-linejoin="round"/>
			<path fill="#C94998" d="M609.6,62.9c0.6,9.0,19.3,5.4,16.2-2.6C626.9,56.8,608.9,53.4,609.6,62.9C609.8,65.9,609.5,61.5,609.6,62.9z" stroke="#FFFFFF" stroke-width="14" stroke-miterlimit="10" stroke-linecap="round" stroke-linejoin="round"/>
			<path fill="#C94998" d="M651.2,61.3c-2.1-2.4-6.6-5.2-9.8-3.5c-1.9,1.0-3.0,3.1-2.8,5.2c0.1,0.8,3.2,5.5,0.9,2.5C644.2,71.5,657.6,68.7,651.2,61.3C650.1,60.1,652.7,63.0,651.2,61.3z" stroke="#FFFFFF" stroke-width="14" stroke-miterlimit="10" stroke-linecap="round" stroke-linejoin="round"/>
			<path fill="#F967BB" d="M699.1,76.5c-6.6-0.2-12.9,2.0-19.4,2.9c-5.6,0.8-11.3,1.3-16.9,1.7c-12.0,0.9-23.8,1.9-35.8,1.4c-12.2-0.5-24.5-1.4-36.7-2.4c-10.6-0.9-21.4-2.0-31.5-5.7c-6.3-2.3-10.3,6.8-4.1,9.6c10.8,4.8,22.2,7.5,33.9,8.9c13.1,1.6,26.3,3.3,39.4,4.0c12.2,0.7,24.4,0.0,36.6-0.9c12.5-0.9,26.4-4.4,38.6-8.4C729.1,79.2,704.7,76.7,699.1,76.5z" stroke="#FFFFFF" stroke-width="14" stroke-miterlimit="10" stroke-linecap="round" stroke-linejoin="round"/>
			<path fill="#F967BB" d="M575.8,70.1c-10.4-8.5-23.2,1.9-34.5,1.3c-2.3,0.1-4.5,0.2-6.7,0.3c-11.0,0.3-22.0,0.8-33.0,0.7c-12.0-0.1-23.9-0.3-35.9-1.2c-6.1-0.5-12.2-1.0-18.3-1.3c-5.5-0.3-11.3,0.6-16.7-0.5c-5.1-1.0-8.6,7.2-3.4,9.6c5.8,2.6,11.8,2.8,18.0,3.5c5.8,0.7,11.5,1.5,17.3,2.2c11.9,1.4,23.6,2.3,35.5,2.6c10.1,0.3,20.2,0.3,30.3,0.1c2.0,0.0,4.0-0.1,6.1-0.2c13.6-2.3,33.2-1.5,41.4-15.4C576.0,71.9,576.0,71.3,575.8,70.1z" stroke="#FFFFFF" stroke-width="14" stroke-miterlimit="10" stroke-linecap="round" stroke-linejoin="round"/>
			<path fill="#DD57A4" d="M505.0,59.1c-1.4,0.0-5.7-0.3-7.7-0.2c-11.2,0.5-36.6,0.6-41.3,0.6c-4.0-0.3-8.0-0.6-12.0-1.1c-2.7-5.8-6.5-11.3-15.4-10.9c-6.3,0.3-9.8,5.2-10.4,9.6c-0.6,4.5,3.2,10.3,7.3,13.3c0.9,0.7,2.0,1.0,3.1,1.0c1.1,0.6,2.7,0.9,4.4,0.6c3.1-0.6,27.9,0.0,37.4,0.4c11.5,0.5,23.1,1.2,34.6,1.6c0.5,0.0,1.0,0.0,1.5,0.0C526.7,76.4,516.8,58.3,505.0,59.1z" stroke="#FFFFFF" stroke-width="14" stroke-miterlimit="10" stroke-linecap="round" stroke-linejoin="round"/>
			<path fill="#DD57A4" d="M571.1,57.6c-0.4-1.5-0.9-3.0-1.5-4.4c-0.6-1.5-1.2-2.9-2.0-4.3c-4.2-8.1-11.0-14.3-17.2-20.7c-1.7-1.5-3.6-3.0-5.7-4.4c-13.2-5.6-37.0-14.5-43.7,4.7c-0.4,1.6-0.8,3.2-1.0,4.7c0.6,15.6,2.7,27.2,3.8,40.9c12.2-0.1,34.9-1.5,38.7-1.6c5.4-0.1,29.7,0.8,29.7-5.7C572.3,63.6,571.9,60.5,571.1,57.6z" stroke="#FFFFFF" stroke-width="14" stroke-miterlimit="10" stroke-linecap="round" stroke-linejoin="round"/>
			<path fill="#DD57A4" d="M562.4,39.6l-1.7-5.4c-1.6-3.5-3.9-6.3-6.8-8.6c-3.1-2.3-6.6-3.6-10.3-3.9c-3.6-0.3-7.0,0.4-10.2,2.1c-3.6,2.2-6.0,3.7-8.4,7.4c-2.2,3.2-3.6,6.8-4.0,10.8c-0.2,2.4-0.1,4.7,0.3,7.0c0.5,3.8,2.1,8.0,4.6,11.1c1.0,1.3,2.2,2.5,3.5,3.6c1.3,0.7,2.5,1.4,3.8,2.1c2.8,1.1,5.6,1.3,8.5,0.8c2.1-0.2,4.1-0.6,5.9-1.3c4.7-1.3,9.0-4.5,11.7-8.9C562.3,51.5,563.5,45.4,562.4,39.6z" stroke="#FFFFFF" stroke-width="14" stroke-miterlimit="10" stroke-linecap="round" stroke-linejoin="round"/>
			<path fill="#FFFFFF" d="M555.5,42.8l-1.2-3.4c-1.1-2.2-2.6-4.0-4.7-5.4c-2.2-1.4-4.5-2.3-7.1-2.5c-2.5-0.2-4.8,0.3-7.0,1.3c-2.5,1.4-4.1,2.3-5.8,4.7c-1.5,2.0-2.4,4.3-2.8,6.8c-0.1,1.5-0.1,3.0,0.2,4.4c0.3,2.4,1.4,5.1,3.2,7.0c0.7,0.9,1.5,1.6,2.4,2.3c0.9,0.4,1.7,0.9,2.6,1.3c1.9,0.7,3.8,0.9,5.8,0.5c1.5-0.1,2.8-0.4,4.0-0.8c3.3-0.8,6.2-2.9,8.1-5.6C555.4,50.4,556.2,46.5,555.5,42.8z" stroke="#FFFFFF" stroke-width="14" stroke-miterlimit="10" stroke-linecap="round" stroke-linejoin="round"/>
			<path d="M537.9,41.8c-7.3,0.0-8.1,11.3-0.7,11.3C544.4,53.1,545.2,41.8,537.9,41.8z" stroke="#FFFFFF" stroke-width="14" stroke-miterlimit="10" stroke-linecap="round" stroke-linejoin="round"/>
			<path d="M428.3,57.7c0.0-1.1-0.9-2.1-2.0-2.1c-0.8,0.0-1.5,0.3-2.0,0.8c-0.5,0.5-0.8,1.4-0.6,2.1c0.1,0.7,0.7,1.3,1.3,1.5c0.7,0.2,1.4,0.1,2.0-0.4c0.1-0.1,0.2-0.2,0.2-0.3c0.1-0.1,0.3-0.2,0.4-0.3C428.0,58.8,428.3,58.2,428.3,57.7z" stroke="#FFFFFF" stroke-width="14" stroke-miterlimit="10" stroke-linecap="round" stroke-linejoin="round"/>
			<path d="M434.5,55.5c-0.5-0.1-1.1,0.0-1.6,0.3c-0.3,0.2-0.6,0.5-0.7,0.8c-0.2,0.3-0.2,0.7-0.2,1.1c0.0,0.2,0.1,0.4,0.1,0.7c0.1,0.3,0.2,0.6,0.4,0.8c0.6,0.9,1.8,1.1,2.7,0.6c0.4-0.3,0.7-0.7,0.8-1.2c0.1,0.0,0.1-0.1,0.1-0.3c0.0,0.0,0.0-0.1,0.0-0.1c0.0-0.1,0.0-0.2,0.1-0.3C436.4,56.9,435.6,55.7,434.5,55.5z" stroke="#FFFFFF" stroke-width="14" stroke-miterlimit="10" stroke-linecap="round" stroke-linejoin="round"/>
			<path fill="#FFFFFF" d="M454.0,68.8c-3.3-0.1-6.6-0.2-9.8-0.3c-0.1,0.3-0.2,0.7-0.3,1.2c-0.1,1.0-0.3,1.7-0.3,2.6c0.0,1.0,0.3,1.9,0.6,2.8c0.5,1.5,1.4,2.5,2.7,3.4c1.6,1.1,3.5,0.5,4.9-0.6c1.0-0.8,1.8-1.8,2.3-2.9c0.3-0.7,0.9-2.0,0.8-2.8C454.8,71.1,454.7,69.8,454.0,68.8z" stroke="#FFFFFF" stroke-width="14" stroke-miterlimit="10" stroke-linecap="round" stroke-linejoin="round"/>
			<path fill="#FFFFFF" d="M469.7,74.1c-0.1-2.6-1.6-5.3-3.2-6.9c-1.7-1.6-3.9-1.5-5.7-0.1c-1.7,1.3-2.5,3.6-2.9,5.6c-0.1,0.3-0.1,0.7-0.1,1.0C461.8,73.8,465.8,73.9,469.7,74.1z" stroke="#FFFFFF" stroke-width="14" stroke-miterlimit="10" stroke-linecap="round" stroke-linejoin="round"/>
			<path fill="#FFFFFF" d="M501.8,71.8c-0.4,3.0,0.6,5.7,2.3,8.2c1.6,2.3,4.7,2.2,6.5,0.3c1.8-1.8,3.2-5.5,2.4-8.2C509.3,72.1,505.6,72.0,501.8,71.8z" stroke="#FFFFFF" stroke-width="14" stroke-miterlimit="10" stroke-linecap="round" stroke-linejoin="round"/>
			<path fill="#FFFFFF" d="M519.2,73.7c3.2,0.3,6.4,0.3,9.6,0.1c0.0-0.4,0.0-0.8-0.1-1.2c-0.1-0.7-0.3-1.2-0.6-1.9c-0.6-1.4-1.8-2.4-2.9-3.4c-1.2-0.9-3.5-0.7-4.5,0.4c-1.5,1.7-2.5,3.6-2.6,5.9c0.0,0.1,0.0,0.1,0.0,0.2C518.5,73.7,518.8,73.7,519.2,73.7z" stroke="#FFFFFF" stroke-width="14" stroke-miterlimit="10" stroke-linecap="round" stroke-linejoin="round"/>
			<path fill="#DD57A4" d="M786.6,49.9c-2.6,0.7-43.7-4.7-62.0-5.5c-2.3-0.2-4.6-0.4-6.9-0.6c-11.5-1.0-23.0-1.9-34.5-1.9c-0.2-0.3-7.3,2.6-9.0,5.7c-2.1,3.8-2.1,8.7-0.7,12.9c3.2,9.2,12.4,14.2,19.3,17.9c4.6,2.4,9.2,4.0,14.0,4.9c1.6,0.3,3.2,0.5,4.8,0.6c49.5-1.6,72.5-25.0,72.7-25.2C785.7,55.8,788.1,52.6,786.6,49.9z" stroke="#FFFFFF" stroke-width="14" stroke-miterlimit="10" stroke-linecap="round" stroke-linejoin="round"/>
			<path fill="#C94998" d="M712.5,45.5c-0.1-0.9-0.5-1.7-1.1-2.4c-0.7-0.6-1.1-1.1-1.8-1.7c-1.0-0.8-2.2-1.2-3.4-1.0c-0.8,0.1-1.5,0.4-2.2,0.8c-0.7,0.5-1.2,1.1-1.5,1.8c-0.7,2.0-0.3,4.7,1.0,6.4c1.7,2.1,5.0,2.5,7.1,0.8c1.0-0.8,1.7-2.0,1.9-3.3C712.5,46.4,712.5,45.9,712.5,45.5z" stroke="#FFFFFF" stroke-width="14" stroke-miterlimit="10" stroke-linecap="round" stroke-linejoin="round"/>
			<path fill="#C94998" d="M742.2,41.6c-6.0-0.1-6.4,8.1-0.4,8.2C747.8,49.9,748.2,41.7,742.2,41.6z" stroke="#FFFFFF" stroke-width="14" stroke-miterlimit="10" stroke-linecap="round" stroke-linejoin="round"/>
			<path fill="#C94998" d="M758.3,53.5c-3.6-3.3-8.8,2.2-5.2,5.5C756.7,62.3,761.9,56.8,758.3,53.5z" stroke="#FFFFFF" stroke-width="14" stroke-miterlimit="10" stroke-linecap="round" stroke-linejoin="round"/>
			<path fill="#C94998" d="M685.5,45.6c-0.2-0.9-0.9-1.7-1.7-2.1c-0.3-0.1-0.6-0.2-0.9-0.3c-0.6-0.1-1.2-0.1-1.8,0.0c-0.7,0.4-1.4,0.7-2.0,1.1c-0.7,0.6-1.2,1.3-1.7,2.1c-0.1,0.4-0.3,0.8-0.4,1.2c-0.1,0.6-0.1,1.1,0.1,1.7c0.2,1.0,0.6,1.9,1.5,2.6c1.0,0.8,2.7,1.2,3.9,0.6c1.2-0.4,2.0-1.1,2.5-2.1c0.1-0.1,0.2-0.3,0.2-0.4C686.0,48.6,685.8,47.0,685.5,45.6z" stroke="#FFFFFF" stroke-width="14" stroke-miterlimit="10" stroke-linecap="round" stroke-linejoin="round"/>
			<path fill="#C94998" d="M677.5,64.8c-0.6-4.0-4.9-4.3-7.6-2.6C660.2,68.3,679.1,75.4,677.5,64.8C677.3,63.7,677.7,66.5,677.5,64.8z" stroke="#FFFFFF" stroke-width="14" stroke-miterlimit="10" stroke-linecap="round" stroke-linejoin="round"/>
			<path fill="#C94998" d="M701.0,55.6c-1.6-2.3-4.1-3.1-6.6-3.2c-2.4-0.1-4.3,2.3-4.3,4.6c0.0,1.2,0.6,2.3,1.4,3.0c0.7,0.7,1.6,1.0,2.5,1.1c0.4,0.1,0.7,0.2,1.1,0.3c0.1,0.0,0.2,0.0,0.2,0.1c0.1,0.0,0.1,0.0,0.2,0.1c0.0,0.0,0.0,0.0,0.0,0.0c0.1,0.0,0.3,0.1,0.4,0.1c1.0,0.3,1.9,0.0,2.8-0.2C701.1,60.9,702.5,57.7,701.0,55.6z" stroke="#FFFFFF" stroke-width="14" stroke-miterlimit="10" stroke-linecap="round" stroke-linejoin="round"/>
			<path fill="#C94998" d="M731.6,53.4c-0.3-0.2-0.6-0.5-0.8-0.7c-0.7-0.4-1.4-0.7-2.2-0.7c-0.5,0.0-0.9,0.0-1.4,0.1c-1.4,0.3-2.8,1.3-3.2,2.8c0.0,0.2-0.1,0.4-0.1,0.5c-0.3,1.0-0.3,2.0,0.2,2.9c0.6,1.3,1.9,2.1,3.2,2.2c0.3,0.0,0.5,0.0,0.8,0.0c-0.1,0.0-0.2,0.0-0.3,0.0c0.1,0.0,0.2,0.0,0.3,0.0c2.3,0.2,4.4-1.7,4.5-4.1C732.8,55.4,732.4,54.3,731.6,53.4z" stroke="#FFFFFF" stroke-width="14" stroke-miterlimit="10" stroke-linecap="round" stroke-linejoin="round"/>
			<path fill="#C94998" d="M771.4,46.6c-0.4-0.6-0.9-1.0-1.6-1.2c-0.8-0.3-1.7,0.0-2.4,0.5c-0.7,0.4-1.3,1.3-1.2,2.1c0.1,0.9,0.4,1.5,1.2,2.1c0.4,0.2,0.7,0.3,1.1,0.4c1.4,0.3,2.8-0.5,3.2-1.9C771.8,47.9,771.7,47.2,771.4,46.6z" stroke="#FFFFFF" stroke-width="14" stroke-miterlimit="10" stroke-linecap="round" stroke-linejoin="round"/>
			<g>
				<g>
					<path fill="#B53C8D" d="M597.1,69.1c-12.3,7.5-19.2,22.1-17.2,36.4c0.7,5.2,7.7,6.3,9.3,0.9c2.3-7.6,3.3-15.8,7.5-22.7c1.0-1.7,2.4-3.2,3.9-4.4c1.5-1.2,3.3-1.7,4.2-3.6C607.3,70.8,601.5,66.4,597.1,69.1L597.1,69.1z" stroke="#FFFFFF" stroke-width="14" stroke-miterlimit="10" stroke-linecap="round" stroke-linejoin="round"/>
				</g>
				<g>
					<path fill="#B53C8D" d="M582.7,105.5c-2.8,0.3-4.7,2.3-6.8,4.0c-1.7,1.4-4.1-0.2-3.5-2.3c1.3-4.6,5.7-6.9,10.3-6.6C585.5,100.9,585.4,105.2,582.7,105.5L582.7,105.5z" stroke="#FFFFFF" stroke-width="14" stroke-miterlimit="10" stroke-linecap="round" stroke-linejoin="round"/>
				</g>
				<g>
					<path fill="#B53C8D" d="M586.2,106.1c-0.8,1.0-1.6,2.1-2.0,3.3c-0.4,1.2-0.1,2.7-0.4,3.9c-0.3,1.3-2.1,2.1-3.2,1.3c-1.8-1.4-2.3-3.4-1.9-5.6c0.6-2.8,2.6-4.8,4.9-6.4C585.8,101.1,587.7,104.4,586.2,106.1L586.2,106.1z" stroke="#FFFFFF" stroke-width="14" stroke-miterlimit="10" stroke-linecap="round" stroke-linejoin="round"/>
				</g>
				<g>
					<path fill="#B53C8D" d="M588.7,101.1c-1.8,3.0,1.8,5.5,3.5,7.5c1.6,1.9-0.8,4.0-2.8,3.4c-5.8-1.9-8.8-9.0-4.0-13.6C587.2,96.7,590.0,99.0,588.7,101.1L588.7,101.1z" stroke="#FFFFFF" stroke-width="14" stroke-miterlimit="10" stroke-linecap="round" stroke-linejoin="round"/>
				</g>
			</g>
			<g>
				<g>
					<path fill="#B53C8D" d="M681.1,67.2c-6.8,6.1-9.5,13.6-8.7,22.7c0.6,7.6,3.9,15.2,11.1,18.5c4.0,1.8,7.8-2.3,7.3-6.1c-1.1-8.6-9.9-18.1-2.2-26.9C693.1,70.3,686.6,62.3,681.1,67.2L681.1,67.2z" stroke="#FFFFFF" stroke-width="14" stroke-miterlimit="10" stroke-linecap="round" stroke-linejoin="round"/>
				</g>
				<g>
					<path fill="#B53C8D" d="M692.5,100.3c0.1-0.2,0.2-0.4,0.3-0.6c-0.2,0.0-0.4,0.0-0.7,0.0c0.3,0.0-0.4-0.1-0.2-0.1c-1.0-0.3-1.8-0.5-2.9-0.3c-1.3,0.3-2.6,1.8-1.8,3.2c1.9,3.4,6.6,3.2,8.9,0.4c0.8-1.0,0.6-2.5-0.4-3.2c-0.5-0.4-1.1-0.5-1.7-0.5c-0.2,0.1-0.4,0.1-0.6,0.2C693.0,99.7,692.7,100.0,692.5,100.3L692.5,100.3z" stroke="#FFFFFF" stroke-width="14" stroke-miterlimit="10" stroke-linecap="round" stroke-linejoin="round"/>
				</g>
				<g>
					<path fill="#B53C8D" d="M692.4,107.8c-2.5-0.6-2.4-2.8-3.3-4.6c-0.8-1.8-3.9-2.3-4.6-0.1c-0.9,2.5,0.2,5.0,1.9,6.9c1.5,1.7,3.5,2.4,5.8,2.4C694.8,112.3,694.8,108.4,692.4,107.8L692.4,107.8z" stroke="#FFFFFF" stroke-width="14" stroke-miterlimit="10" stroke-linecap="round" stroke-linejoin="round"/>
				</g>
				<g>
					<path fill="#B53C8D" d="M683.8,109.9c-0.8-2.4,1.3-4.7,2.6-6.4c0.9-1.3,1.3-3.0-0.1-4.1c-1.8-1.5-3.7,0.0-4.9,1.4c-2.0,2.2-3.2,5.2-3.0,8.3c0.1,1.6,0.8,4.0,2.7,4.3C683.0,113.6,684.3,111.7,683.8,109.9L683.8,109.9z" stroke="#FFFFFF" stroke-width="14" stroke-miterlimit="10" stroke-linecap="round" stroke-linejoin="round"/>
				</g>
			</g>
			<path fill="#C94998" d="M659.9,38.4c-3.7-1.0-10.2-0.4-10.1,4.7c0.0,2.7,1.9,3.8,4.1,4.8c0.5,0.2,7.8,1.3,3.5,1.0C664.0,49.4,667.2,40.3,659.9,38.4C657.9,37.8,662.7,39.1,659.9,38.4z" stroke="#FFFFFF" stroke-width="14" stroke-miterlimit="10" stroke-linecap="round" stroke-linejoin="round"/>
			<path fill="#DD57A4" d="M501.8,31.4c-18.1,0.0-19.2,32.4-1.0,32.4C518.9,63.8,520.0,31.4,501.8,31.4z" stroke="#FFFFFF" stroke-width="14" stroke-miterlimit="10" stroke-linecap="round" stroke-linejoin="round"/>
			<path fill="#FFFFFF" d="M502.3,37.8c-12.7-0.8-14.7,19.0-1.9,19.7C513.1,58.3,515.1,38.6,502.3,37.8z" stroke="#FFFFFF" stroke-width="14" stroke-miterlimit="10" stroke-linecap="round" stroke-linejoin="round"/>
			<path d="M502.4,43.6c-6.1,0.0-6.2,9.5-0.1,9.5C508.4,53.1,508.5,43.6,502.4,43.6z" stroke="#FFFFFF" stroke-width="14" stroke-miterlimit="10" stroke-linecap="round" stroke-linejoin="round"/>
			<path fill="#C94998" d="M540.4,21.2c-2.2,0.2-4.1,0.9-6.2,1.5c-2.8,0.8-5.6,1.4-8.3,2.5c-3.5,1.4-1.2,7.0,2.4,6.1c4.6-1.2,10.3-1.6,14.1-4.7C544.3,25.0,543.1,21.0,540.4,21.2z" stroke="#FFFFFF" stroke-width="14" stroke-miterlimit="10" stroke-linecap="round" stroke-linejoin="round"/>
			<path fill="#C94998" d="M509.9,27.8c-4.2-1.2-8.6-0.5-12.8-1.4c-4.1-0.9-4.8,5.4-0.9,6.4c4.2,1.1,9.1,1.7,13.3,0.5C512.1,32.5,512.8,28.6,509.9,27.8z" stroke="#FFFFFF" stroke-width="14" stroke-miterlimit="10" stroke-linecap="round" stroke-linejoin="round"/>
		</g>
		<g id="activeContent">
			<g>
				<g>
					<path fill="#B53C8D" d="M688.1,68.9c-19.7-0.2-38.8,15.7-34.0,36.8c1.1,4.6,8.5,3.6,9.0-0.8c0.8-7.0,3.1-13.4,8.2-18.4c4.8-4.7,11.4-6.5,17.8-7.7C694.7,77.5,693.7,69.0,688.1,68.9L688.1,68.9z"/>
				</g>
				<g>
					<path fill="#B53C8D" d="M655.8,111.1c0.0-2.0,1.6-2.4,2.9-3.5c1.4-1.2,0.9-4.0-1.2-4.0c-1.4,0.0-2.4,0.3-3.5,1.2c-0.7,0.6-1.2,1.2-1.6,2.0c-0.9,1.4-1.1,3.2-1.0,4.8c0.1,1.2,1.3,2.1,2.4,1.9C655.2,113.4,655.8,112.3,655.8,111.1L655.8,111.1z"/>
				</g>
				<g>
					<path fill="#B53C8D" d="M663.5,109.0c-2.4-1.4-1.4-4.1-1.6-6.4c-0.1-2.1-2.5-2.2-3.7-1.1c-2.4,2.0-1.9,5.6-0.9,8.1c0.7,2.0,2.5,3.2,4.4,4.0C664.3,114.5,665.9,110.3,663.5,109.0L663.5,109.0z"/>
				</g>
				<g>
					<path fill="#B53C8D" d="M667.5,102.7c-2.3,0.3-3.6-1.5-5.4-2.6c0.3,0.3,0.7,0.6,1.0,0.9c-0.5-0.6-1.0-1.1-1.6-1.6c-1.6-1.3-4.0,0.6-3.5,2.4c1.3,4.7,5.9,7.1,10.5,5.8C671.5,106.7,670.7,102.2,667.5,102.7L667.5,102.7z"/>
				</g>
			</g>
			<g>
				<g>
					<path fill="#B53C8D" d="M585.4,61.9c-18.7,3.0-35.5,19.9-32.4,39.8c0.7,4.4,8.0,5.4,9.1,0.7c1.8-7.6,3.2-14.6,8.5-20.7c4.4-5.1,10.6-8.2,17.1-9.6C594.3,70.7,592.0,60.8,585.4,61.9L585.4,61.9z"/>
				</g>
				<g>
					<path fill="#B53C8D" d="M562.9,97.9c0.2,1.7,0.5,3.0,1.4,4.5c0.6,1.0,1.3,1.8,1.5,3.0c0.2,1.0-0.2,2.1-1.2,2.6c-0.4,0.2-0.8,0.3-1.2,0.3c-0.2,0.0-0.4-0.1-0.6-0.1c-0.4-0.1-0.8-0.3-1.0-0.7c-1.5,0.1-2.6-2.8-3.0-3.9c-0.8-2.0-0.5-4.2,0.3-6.2C559.8,95.7,562.6,95.9,562.9,97.9L562.9,97.9z"/>
				</g>
				<g>
					<path fill="#B53C8D" d="M560.5,101.0c-1.1,1.0-2.3,2.5-2.7,4.0c-0.2,1.0-0.3,1.9-0.9,2.8c-1.2,1.8-3.6,1.3-4.5-0.4c-1.0-1.9-0.2-4.1,0.7-5.8c1.2-2.1,3.2-3.3,5.4-4.2C560.5,96.6,562.0,99.6,560.5,101.0L560.5,101.0z"/>
				</g>
				<g>
					<path fill="#B53C8D" d="M556.5,100.9c-2.2,0.1-4.1,1.9-5.7,3.2c-1.6,1.2-3.8-0.4-3.5-2.2c0.8-5.0,5.6-5.7,9.8-5.2C559.5,97.0,558.8,100.8,556.5,100.9L556.5,100.9z"/>
				</g>
			</g>
			<path fill="#DD57A4" d="M561.4,41.0c-9.4-5.2-30.4-9.3-31.2,6.0c-2.4,30.6,33.8,41.9,58.5,44.4c2.5,0.3,5.0,0.6,7.5,0.8c11.3,1.5,22.6,1.5,33.6,1.2c3.0,0.0,6.1,0.2,9.2,0.3c24.6,1.2,50.5,4.6,69.2-12.2c1.3-1.2,2.3-2.7,2.9-4.3c0.6-1.6,0.8-3.4,0.8-5.3c-13.3-51.6-82.5-29.9-122.0-27.5c-6.4,0.0-12.1,0.0-18.6-1.3c-2.2-0.4-4.3-0.8-6.5-1.4C562.8,41.5,561.6,41.1,561.4,41.0z"/>
			<g>
				<path fill="#C94998" d="M602.8,41.6C602.8,41.6,602.8,41.6,602.8,41.6C603.1,41.7,603.2,41.7,602.8,41.6z"/>
				<path fill="#C94998" d="M597.7,42.3c-2.4,0.9-3.8,3.4-3.5,5.8c0.3,2.6,2.3,4.4,4.8,4.9c1.5,0.3,1.9,0.2,2.9,0.3c2.6,0.1,5.0-2.2,5.5-4.7c0.6-3.0-1.4-6.4-4.5-7.0c-0.2,0.0-0.6-0.1-0.6-0.1C600.5,41.3,599.3,41.7,597.7,42.3z"/>
			</g>
			<path fill="#C94998" d="M634.8,42.8c-0.7-7.6-13.0-5.4-14.7,0.6C617.2,53.2,635.5,51.2,634.8,42.8C634.6,41.5,635.0,45.2,634.8,42.8z"/>
			<path fill="#C94998" d="M573.7,41.8c-6.7-0.1-7.1,8.7-0.5,8.8C579.9,50.8,580.4,41.9,573.7,41.8z"/>
			<path fill="#C94998" d="M590.8,59.1c-4.4-6.1-16.3-0.5-10.0,4.8C584.2,66.7,595.2,65.1,590.8,59.1C590.0,58.1,591.4,59.9,590.8,59.1z"/>
			<path fill="#C94998" d="M609.6,62.9c0.6,9.0,19.3,5.4,16.2-2.6C626.9,56.8,608.9,53.4,609.6,62.9C609.8,65.9,609.5,61.5,609.6,62.9z"/>
			<path fill="#C94998" d="M651.2,61.3c-2.1-2.4-6.6-5.2-9.8-3.5c-1.9,1.0-3.0,3.1-2.8,5.2c0.1,0.8,3.2,5.5,0.9,2.5C644.2,71.5,657.6,68.7,651.2,61.3C650.1,60.1,652.7,63.0,651.2,61.3z"/>
			<path fill="#F967BB" d="M699.1,76.5c-6.6-0.2-12.9,2.0-19.4,2.9c-5.6,0.8-11.3,1.3-16.9,1.7c-12.0,0.9-23.8,1.9-35.8,1.4c-12.2-0.5-24.5-1.4-36.7-2.4c-10.6-0.9-21.4-2.0-31.5-5.7c-6.3-2.3-10.3,6.8-4.1,9.6c10.8,4.8,22.2,7.5,33.9,8.9c13.1,1.6,26.3,3.3,39.4,4.0c12.2,0.7,24.4,0.0,36.6-0.9c12.5-0.9,26.4-4.4,38.6-8.4C729.1,79.2,704.7,76.7,699.1,76.5z"/>
			<path fill="#F967BB" d="M575.8,70.1c-10.4-8.5-23.2,1.9-34.5,1.3c-2.3,0.1-4.5,0.2-6.7,0.3c-11.0,0.3-22.0,0.8-33.0,0.7c-12.0-0.1-23.9-0.3-35.9-1.2c-6.1-0.5-12.2-1.0-18.3-1.3c-5.5-0.3-11.3,0.6-16.7-0.5c-5.1-1.0-8.6,7.2-3.4,9.6c5.8,2.6,11.8,2.8,18.0,3.5c5.8,0.7,11.5,1.5,17.3,2.2c11.9,1.4,23.6,2.3,35.5,2.6c10.1,0.3,20.2,0.3,30.3,0.1c2.0,0.0,4.0-0.1,6.1-0.2c13.6-2.3,33.2-1.5,41.4-15.4C576.0,71.9,576.0,71.3,575.8,70.1z"/>
			<path fill="#DD57A4" d="M505.0,59.1c-1.4,0.0-5.7-0.3-7.7-0.2c-11.2,0.5-36.6,0.6-41.3,0.6c-4.0-0.3-8.0-0.6-12.0-1.1c-2.7-5.8-6.5-11.3-15.4-10.9c-6.3,0.3-9.8,5.2-10.4,9.6c-0.6,4.5,3.2,10.3,7.3,13.3c0.9,0.7,2.0,1.0,3.1,1.0c1.1,0.6,2.7,0.9,4.4,0.6c3.1-0.6,27.9,0.0,37.4,0.4c11.5,0.5,23.1,1.2,34.6,1.6c0.5,0.0,1.0,0.0,1.5,0.0C526.7,76.4,516.8,58.3,505.0,59.1z"/>
			<path fill="#DD57A4" d="M571.1,57.6c-0.4-1.5-0.9-3.0-1.5-4.4c-0.6-1.5-1.2-2.9-2.0-4.3c-4.2-8.1-11.0-14.3-17.2-20.7c-1.7-1.5-3.6-3.0-5.7-4.4c-13.2-5.6-37.0-14.5-43.7,4.7c-0.4,1.6-0.8,3.2-1.0,4.7c0.6,15.6,2.7,27.2,3.8,40.9c12.2-0.1,34.9-1.5,38.7-1.6c5.4-0.1,29.7,0.8,29.7-5.7C572.3,63.6,571.9,60.5,571.1,57.6z"/>
			<path fill="#DD57A4" d="M562.4,39.6l-1.7-5.4c-1.6-3.5-3.9-6.3-6.8-8.6c-3.1-2.3-6.6-3.6-10.3-3.9c-3.6-0.3-7.0,0.4-10.2,2.1c-3.6,2.2-6.0,3.7-8.4,7.4c-2.2,3.2-3.6,6.8-4.0,10.8c-0.2,2.4-0.1,4.7,0.3,7.0c0.5,3.8,2.1,8.0,4.6,11.1c1.0,1.3,2.2,2.5,3.5,3.6c1.3,0.7,2.5,1.4,3.8,2.1c2.8,1.1,5.6,1.3,8.5,0.8c2.1-0.2,4.1-0.6,5.9-1.3c4.7-1.3,9.0-4.5,11.7-8.9C562.3,51.5,563.5,45.4,562.4,39.6z"/>
			<path fill="#FFFFFF" d="M555.5,42.8l-1.2-3.4c-1.1-2.2-2.6-4.0-4.7-5.4c-2.2-1.4-4.5-2.3-7.1-2.5c-2.5-0.2-4.8,0.3-7.0,1.3c-2.5,1.4-4.1,2.3-5.8,4.7c-1.5,2.0-2.4,4.3-2.8,6.8c-0.1,1.5-0.1,3.0,0.2,4.4c0.3,2.4,1.4,5.1,3.2,7.0c0.7,0.9,1.5,1.6,2.4,2.3c0.9,0.4,1.7,0.9,2.6,1.3c1.9,0.7,3.8,0.9,5.8,0.5c1.5-0.1,2.8-0.4,4.0-0.8c3.3-0.8,6.2-2.9,8.1-5.6C555.4,50.4,556.2,46.5,555.5,42.8z"/>
			<path d="M537.9,41.8c-7.3,0.0-8.1,11.3-0.7,11.3C544.4,53.1,545.2,41.8,537.9,41.8z"/>
			<path d="M428.3,57.7c0.0-1.1-0.9-2.1-2.0-2.1c-0.8,0.0-1.5,0.3-2.0,0.8c-0.5,0.5-0.8,1.4-0.6,2.1c0.1,0.7,0.7,1.3,1.3,1.5c0.7,0.2,1.4,0.1,2.0-0.4c0.1-0.1,0.2-0.2,0.2-0.3c0.1-0.1,0.3-0.2,0.4-0.3C428.0,58.8,428.3,58.2,428.3,57.7z"/>
			<path d="M434.5,55.5c-0.5-0.1-1.1,0.0-1.6,0.3c-0.3,0.2-0.6,0.5-0.7,0.8c-0.2,0.3-0.2,0.7-0.2,1.1c0.0,0.2,0.1,0.4,0.1,0.7c0.1,0.3,0.2,0.6,0.4,0.8c0.6,0.9,1.8,1.1,2.7,0.6c0.4-0.3,0.7-0.7,0.8-1.2c0.1,0.0,0.1-0.1,0.1-0.3c0.0,0.0,0.0-0.1,0.0-0.1c0.0-0.1,0.0-0.2,0.1-0.3C436.4,56.9,435.6,55.7,434.5,55.5z"/>
			<path fill="#FFFFFF" d="M454.0,68.8c-3.3-0.1-6.6-0.2-9.8-0.3c-0.1,0.3-0.2,0.7-0.3,1.2c-0.1,1.0-0.3,1.7-0.3,2.6c0.0,1.0,0.3,1.9,0.6,2.8c0.5,1.5,1.4,2.5,2.7,3.4c1.6,1.1,3.5,0.5,4.9-0.6c1.0-0.8,1.8-1.8,2.3-2.9c0.3-0.7,0.9-2.0,0.8-2.8C454.8,71.1,454.7,69.8,454.0,68.8z"/>
			<path fill="#FFFFFF" d="M469.7,74.1c-0.1-2.6-1.6-5.3-3.2-6.9c-1.7-1.6-3.9-1.5-5.7-0.1c-1.7,1.3-2.5,3.6-2.9,5.6c-0.1,0.3-0.1,0.7-0.1,1.0C461.8,73.8,465.8,73.9,469.7,74.1z"/>
			<path fill="#FFFFFF" d="M501.8,71.8c-0.4,3.0,0.6,5.7,2.3,8.2c1.6,2.3,4.7,2.2,6.5,0.3c1.8-1.8,3.2-5.5,2.4-8.2C509.3,72.1,505.6,72.0,501.8,71.8z"/>
			<path fill="#FFFFFF" d="M519.2,73.7c3.2,0.3,6.4,0.3,9.6,0.1c0.0-0.4,0.0-0.8-0.1-1.2c-0.1-0.7-0.3-1.2-0.6-1.9c-0.6-1.4-1.8-2.4-2.9-3.4c-1.2-0.9-3.5-0.7-4.5,0.4c-1.5,1.7-2.5,3.6-2.6,5.9c0.0,0.1,0.0,0.1,0.0,0.2C518.5,73.7,518.8,73.7,519.2,73.7z"/>
			<path fill="#DD57A4" d="M786.6,49.9c-2.6,0.7-43.7-4.7-62.0-5.5c-2.3-0.2-4.6-0.4-6.9-0.6c-11.5-1.0-23.0-1.9-34.5-1.9c-0.2-0.3-7.3,2.6-9.0,5.7c-2.1,3.8-2.1,8.7-0.7,12.9c3.2,9.2,12.4,14.2,19.3,17.9c4.6,2.4,9.2,4.0,14.0,4.9c1.6,0.3,3.2,0.5,4.8,0.6c49.5-1.6,72.5-25.0,72.7-25.2C785.7,55.8,788.1,52.6,786.6,49.9z"/>
			<path fill="#C94998" d="M712.5,45.5c-0.1-0.9-0.5-1.7-1.1-2.4c-0.7-0.6-1.1-1.1-1.8-1.7c-1.0-0.8-2.2-1.2-3.4-1.0c-0.8,0.1-1.5,0.4-2.2,0.8c-0.7,0.5-1.2,1.1-1.5,1.8c-0.7,2.0-0.3,4.7,1.0,6.4c1.7,2.1,5.0,2.5,7.1,0.8c1.0-0.8,1.7-2.0,1.9-3.3C712.5,46.4,712.5,45.9,712.5,45.5z"/>
			<path fill="#C94998" d="M742.2,41.6c-6.0-0.1-6.4,8.1-0.4,8.2C747.8,49.9,748.2,41.7,742.2,41.6z"/>
			<path fill="#C94998" d="M758.3,53.5c-3.6-3.3-8.8,2.2-5.2,5.5C756.7,62.3,761.9,56.8,758.3,53.5z"/>
			<path fill="#C94998" d="M685.5,45.6c-0.2-0.9-0.9-1.7-1.7-2.1c-0.3-0.1-0.6-0.2-0.9-0.3c-0.6-0.1-1.2-0.1-1.8,0.0c-0.7,0.4-1.4,0.7-2.0,1.1c-0.7,0.6-1.2,1.3-1.7,2.1c-0.1,0.4-0.3,0.8-0.4,1.2c-0.1,0.6-0.1,1.1,0.1,1.7c0.2,1.0,0.6,1.9,1.5,2.6c1.0,0.8,2.7,1.2,3.9,0.6c1.2-0.4,2.0-1.1,2.5-2.1c0.1-0.1,0.2-0.3,0.2-0.4C686.0,48.6,685.8,47.0,685.5,45.6z"/>
			<path fill="#C94998" d="M677.5,64.8c-0.6-4.0-4.9-4.3-7.6-2.6C660.2,68.3,679.1,75.4,677.5,64.8C677.3,63.7,677.7,66.5,677.5,64.8z"/>
			<path fill="#C94998" d="M701.0,55.6c-1.6-2.3-4.1-3.1-6.6-3.2c-2.4-0.1-4.3,2.3-4.3,4.6c0.0,1.2,0.6,2.3,1.4,3.0c0.7,0.7,1.6,1.0,2.5,1.1c0.4,0.1,0.7,0.2,1.1,0.3c0.1,0.0,0.2,0.0,0.2,0.1c0.1,0.0,0.1,0.0,0.2,0.1c0.0,0.0,0.0,0.0,0.0,0.0c0.1,0.0,0.3,0.1,0.4,0.1c1.0,0.3,1.9,0.0,2.8-0.2C701.1,60.9,702.5,57.7,701.0,55.6z"/>
			<path fill="#C94998" d="M731.6,53.4c-0.3-0.2-0.6-0.5-0.8-0.7c-0.7-0.4-1.4-0.7-2.2-0.7c-0.5,0.0-0.9,0.0-1.4,0.1c-1.4,0.3-2.8,1.3-3.2,2.8c0.0,0.2-0.1,0.4-0.1,0.5c-0.3,1.0-0.3,2.0,0.2,2.9c0.6,1.3,1.9,2.1,3.2,2.2c0.3,0.0,0.5,0.0,0.8,0.0c-0.1,0.0-0.2,0.0-0.3,0.0c0.1,0.0,0.2,0.0,0.3,0.0c2.3,0.2,4.4-1.7,4.5-4.1C732.8,55.4,732.4,54.3,731.6,53.4z"/>
			<path fill="#C94998" d="M771.4,46.6c-0.4-0.6-0.9-1.0-1.6-1.2c-0.8-0.3-1.7,0.0-2.4,0.5c-0.7,0.4-1.3,1.3-1.2,2.1c0.1,0.9,0.4,1.5,1.2,2.1c0.4,0.2,0.7,0.3,1.1,0.4c1.4,0.3,2.8-0.5,3.2-1.9C771.8,47.9,771.7,47.2,771.4,46.6z"/>
			<g>
				<g>
					<path fill="#B53C8D" d="M597.1,69.1c-12.3,7.5-19.2,22.1-17.2,36.4c0.7,5.2,7.7,6.3,9.3,0.9c2.3-7.6,3.3-15.8,7.5-22.7c1.0-1.7,2.4-3.2,3.9-4.4c1.5-1.2,3.3-1.7,4.2-3.6C607.3,70.8,601.5,66.4,597.1,69.1L597.1,69.1z"/>
				</g>
				<g>
					<path fill="#B53C8D" d="M582.7,105.5c-2.8,0.3-4.7,2.3-6.8,4.0c-1.7,1.4-4.1-0.2-3.5-2.3c1.3-4.6,5.7-6.9,10.3-6.6C585.5,100.9,585.4,105.2,582.7,105.5L582.7,105.5z"/>
				</g>
				<g>
					<path fill="#B53C8D" d="M586.2,106.1c-0.8,1.0-1.6,2.1-2.0,3.3c-0.4,1.2-0.1,2.7-0.4,3.9c-0.3,1.3-2.1,2.1-3.2,1.3c-1.8-1.4-2.3-3.4-1.9-5.6c0.6-2.8,2.6-4.8,4.9-6.4C585.8,101.1,587.7,104.4,586.2,106.1L586.2,106.1z"/>
				</g>
				<g>
					<path fill="#B53C8D" d="M588.7,101.1c-1.8,3.0,1.8,5.5,3.5,7.5c1.6,1.9-0.8,4.0-2.8,3.4c-5.8-1.9-8.8-9.0-4.0-13.6C587.2,96.7,590.0,99.0,588.7,101.1L588.7,101.1z"/>
				</g>
			</g>
			<g>
				<g>
					<path fill="#B53C8D" d="M681.1,67.2c-6.8,6.1-9.5,13.6-8.7,22.7c0.6,7.6,3.9,15.2,11.1,18.5c4.0,1.8,7.8-2.3,7.3-6.1c-1.1-8.6-9.9-18.1-2.2-26.9C693.1,70.3,686.6,62.3,681.1,67.2L681.1,67.2z"/>
				</g>
				<g>
					<path fill="#B53C8D" d="M692.5,100.3c0.1-0.2,0.2-0.4,0.3-0.6c-0.2,0.0-0.4,0.0-0.7,0.0c0.3,0.0-0.4-0.1-0.2-0.1c-1.0-0.3-1.8-0.5-2.9-0.3c-1.3,0.3-2.6,1.8-1.8,3.2c1.9,3.4,6.6,3.2,8.9,0.4c0.8-1.0,0.6-2.5-0.4-3.2c-0.5-0.4-1.1-0.5-1.7-0.5c-0.2,0.1-0.4,0.1-0.6,0.2C693.0,99.7,692.7,100.0,692.5,100.3L692.5,100.3z"/>
				</g>
				<g>
					<path fill="#B53C8D" d="M692.4,107.8c-2.5-0.6-2.4-2.8-3.3-4.6c-0.8-1.8-3.9-2.3-4.6-0.1c-0.9,2.5,0.2,5.0,1.9,6.9c1.5,1.7,3.5,2.4,5.8,2.4C694.8,112.3,694.8,108.4,692.4,107.8L692.4,107.8z"/>
				</g>
				<g>
					<path fill="#B53C8D" d="M683.8,109.9c-0.8-2.4,1.3-4.7,2.6-6.4c0.9-1.3,1.3-3.0-0.1-4.1c-1.8-1.5-3.7,0.0-4.9,1.4c-2.0,2.2-3.2,5.2-3.0,8.3c0.1,1.6,0.8,4.0,2.7,4.3C683.0,113.6,684.3,111.7,683.8,109.9L683.8,109.9z"/>
				</g>
			</g>
			<path fill="#C94998" d="M659.9,38.4c-3.7-1.0-10.2-0.4-10.1,4.7c0.0,2.7,1.9,3.8,4.1,4.8c0.5,0.2,7.8,1.3,3.5,1.0C664.0,49.4,667.2,40.3,659.9,38.4C657.9,37.8,662.7,39.1,659.9,38.4z"/>
			<path fill="#DD57A4" d="M501.8,31.4c-18.1,0.0-19.2,32.4-1.0,32.4C518.9,63.8,520.0,31.4,501.8,31.4z"/>
			<path fill="#FFFFFF" d="M502.3,37.8c-12.7-0.8-14.7,19.0-1.9,19.7C513.1,58.3,515.1,38.6,502.3,37.8z"/>
			<path d="M502.4,43.6c-6.1,0.0-6.2,9.5-0.1,9.5C508.4,53.1,508.5,43.6,502.4,43.6z"/>
			<path fill="#C94998" d="M540.4,21.2c-2.2,0.2-4.1,0.9-6.2,1.5c-2.8,0.8-5.6,1.4-8.3,2.5c-3.5,1.4-1.2,7.0,2.4,6.1c4.6-1.2,10.3-1.6,14.1-4.7C544.3,25.0,543.1,21.0,540.4,21.2z"/>
			<path fill="#C94998" d="M509.9,27.8c-4.2-1.2-8.6-0.5-12.8-1.4c-4.1-0.9-4.8,5.4-0.9,6.4c4.2,1.1,9.1,1.7,13.3,0.5C512.1,32.5,512.8,28.6,509.9,27.8z"/>
		</g>
	</g>
	<g id="selected">
		<g id="selectedStroke">
			<g>
				<g>
					<path fill="#B53C8D" d="M1090.1,68.9c-19.7-0.2-38.8,15.7-34.0,36.8c1.1,4.6,8.5,3.6,9.0-0.8c0.8-7.0,3.1-13.4,8.2-18.4c4.8-4.7,11.4-6.5,17.8-7.7C1096.7,77.5,1095.7,69.0,1090.1,68.9L1090.1,68.9z" stroke="#FFFFFF" stroke-width="32" stroke-miterlimit="10" stroke-linecap="round" stroke-linejoin="round"/>
				</g>
				<g>
					<path fill="#B53C8D" d="M1057.8,111.1c0.0-2.0,1.6-2.4,2.9-3.5c1.4-1.2,0.9-4.0-1.2-4.0c-1.4,0.0-2.4,0.3-3.5,1.2c-0.7,0.6-1.2,1.2-1.6,2.0c-0.9,1.4-1.1,3.2-1.0,4.8c0.1,1.2,1.3,2.1,2.4,1.9C1057.2,113.4,1057.8,112.3,1057.8,111.1L1057.8,111.1z" stroke="#FFFFFF" stroke-width="32" stroke-miterlimit="10" stroke-linecap="round" stroke-linejoin="round"/>
				</g>
				<g>
					<path fill="#B53C8D" d="M1065.5,109.0c-2.4-1.4-1.4-4.1-1.6-6.4c-0.1-2.1-2.5-2.2-3.7-1.1c-2.4,2.0-1.9,5.6-0.9,8.1c0.7,2.0,2.5,3.2,4.4,4.0C1066.3,114.5,1067.9,110.3,1065.5,109.0L1065.5,109.0z" stroke="#FFFFFF" stroke-width="32" stroke-miterlimit="10" stroke-linecap="round" stroke-linejoin="round"/>
				</g>
				<g>
					<path fill="#B53C8D" d="M1069.5,102.7c-2.3,0.3-3.6-1.5-5.4-2.6c0.3,0.3,0.7,0.6,1.0,0.9c-0.5-0.6-1.0-1.1-1.6-1.6c-1.6-1.3-4.0,0.6-3.5,2.4c1.3,4.7,5.9,7.1,10.5,5.8C1073.5,106.7,1072.7,102.2,1069.5,102.7L1069.5,102.7z" stroke="#FFFFFF" stroke-width="32" stroke-miterlimit="10" stroke-linecap="round" stroke-linejoin="round"/>
				</g>
			</g>
			<g>
				<g>
					<path fill="#B53C8D" d="M987.4,61.9c-18.7,3.0-35.5,19.9-32.4,39.8c0.7,4.4,8.0,5.4,9.1,0.7c1.8-7.6,3.2-14.6,8.5-20.7c4.4-5.1,10.6-8.2,17.1-9.6C996.3,70.7,994.0,60.8,987.4,61.9L987.4,61.9z" stroke="#FFFFFF" stroke-width="32" stroke-miterlimit="10" stroke-linecap="round" stroke-linejoin="round"/>
				</g>
				<g>
					<path fill="#B53C8D" d="M964.9,97.9c0.2,1.7,0.5,3.0,1.4,4.5c0.6,1.0,1.3,1.8,1.5,3.0c0.2,1.0-0.2,2.1-1.2,2.6c-0.4,0.2-0.8,0.3-1.2,0.3c-0.2,0.0-0.4-0.1-0.6-0.1c-0.4-0.1-0.8-0.3-1.0-0.7c-1.5,0.1-2.6-2.8-3.0-3.9c-0.8-2.0-0.5-4.2,0.3-6.2C961.8,95.7,964.6,95.9,964.9,97.9L964.9,97.9z" stroke="#FFFFFF" stroke-width="32" stroke-miterlimit="10" stroke-linecap="round" stroke-linejoin="round"/>
				</g>
				<g>
					<path fill="#B53C8D" d="M962.5,101.0c-1.1,1.0-2.3,2.5-2.7,4.0c-0.2,1.0-0.3,1.9-0.9,2.8c-1.2,1.8-3.6,1.3-4.5-0.4c-1.0-1.9-0.2-4.1,0.7-5.8c1.2-2.1,3.2-3.3,5.4-4.2C962.5,96.6,964.0,99.6,962.5,101.0L962.5,101.0z" stroke="#FFFFFF" stroke-width="32" stroke-miterlimit="10" stroke-linecap="round" stroke-linejoin="round"/>
				</g>
				<g>
					<path fill="#B53C8D" d="M958.5,100.9c-2.2,0.1-4.1,1.9-5.7,3.2c-1.6,1.2-3.8-0.4-3.5-2.2c0.8-5.0,5.6-5.7,9.8-5.2C961.5,97.0,960.8,100.8,958.5,100.9L958.5,100.9z" stroke="#FFFFFF" stroke-width="32" stroke-miterlimit="10" stroke-linecap="round" stroke-linejoin="round"/>
				</g>
			</g>
			<path fill="#DD57A4" d="M963.4,41.0c-9.4-5.2-30.4-9.3-31.2,6.0c-2.4,30.6,33.8,41.9,58.5,44.4c2.5,0.3,5.0,0.6,7.5,0.8c11.3,1.5,22.6,1.5,33.6,1.2c3.0,0.0,6.1,0.2,9.2,0.3c24.6,1.2,50.5,4.6,69.2-12.2c1.3-1.2,2.3-2.7,2.9-4.3c0.6-1.6,0.8-3.4,0.8-5.3c-13.3-51.6-82.5-29.9-122.0-27.5c-6.4,0.0-12.1,0.0-18.6-1.3c-2.2-0.4-4.3-0.8-6.5-1.4C964.8,41.5,963.6,41.1,963.4,41.0z" stroke="#FFFFFF" stroke-width="32" stroke-miterlimit="10" stroke-linecap="round" stroke-linejoin="round"/>
			<g>
				<path fill="#C94998" d="M1004.8,41.6C1004.8,41.6,1004.8,41.6,1004.8,41.6C1005.1,41.7,1005.2,41.7,1004.8,41.6z" stroke="#FFFFFF" stroke-width="32" stroke-miterlimit="10" stroke-linecap="round" stroke-linejoin="round"/>
				<path fill="#C94998" d="M999.7,42.3c-2.4,0.9-3.8,3.4-3.5,5.8c0.3,2.6,2.3,4.4,4.8,4.9c1.5,0.3,1.9,0.2,2.9,0.3c2.6,0.1,5.0-2.2,5.5-4.7c0.6-3.0-1.4-6.4-4.5-7.0c-0.2,0.0-0.6-0.1-0.6-0.1C1002.5,41.3,1001.3,41.7,999.7,42.3z" stroke="#FFFFFF" stroke-width="32" stroke-miterlimit="10" stroke-linecap="round" stroke-linejoin="round"/>
			</g>
			<path fill="#C94998" d="M1036.8,42.8c-0.7-7.6-13.0-5.4-14.7,0.6C1019.2,53.2,1037.5,51.2,1036.8,42.8C1036.6,41.5,1037.0,45.2,1036.8,42.8z" stroke="#FFFFFF" stroke-width="32" stroke-miterlimit="10" stroke-linecap="round" stroke-linejoin="round"/>
			<path fill="#C94998" d="M975.7,41.8c-6.7-0.1-7.1,8.7-0.5,8.8C981.9,50.8,982.4,41.9,975.7,41.8z" stroke="#FFFFFF" stroke-width="32" stroke-miterlimit="10" stroke-linecap="round" stroke-linejoin="round"/>
			<path fill="#C94998" d="M992.8,59.1c-4.4-6.1-16.3-0.5-10.0,4.8C986.2,66.7,997.2,65.1,992.8,59.1C992.0,58.1,993.4,59.9,992.8,59.1z" stroke="#FFFFFF" stroke-width="32" stroke-miterlimit="10" stroke-linecap="round" stroke-linejoin="round"/>
			<path fill="#C94998" d="M1011.6,62.9c0.6,9.0,19.3,5.4,16.2-2.6C1028.9,56.8,1010.9,53.4,1011.6,62.9C1011.8,65.9,1011.5,61.5,1011.6,62.9z" stroke="#FFFFFF" stroke-width="32" stroke-miterlimit="10" stroke-linecap="round" stroke-linejoin="round"/>
			<path fill="#C94998" d="M1053.2,61.3c-2.1-2.4-6.6-5.2-9.8-3.5c-1.9,1.0-3.0,3.1-2.8,5.2c0.1,0.8,3.2,5.5,0.9,2.5C1046.2,71.5,1059.6,68.7,1053.2,61.3C1052.1,60.1,1054.7,63.0,1053.2,61.3z" stroke="#FFFFFF" stroke-width="32" stroke-miterlimit="10" stroke-linecap="round" stroke-linejoin="round"/>
			<path fill="#F967BB" d="M1101.1,76.5c-6.6-0.2-12.9,2.0-19.4,2.9c-5.6,0.8-11.3,1.3-16.9,1.7c-12.0,0.9-23.8,1.9-35.8,1.4c-12.2-0.5-24.5-1.4-36.7-2.4c-10.6-0.9-21.4-2.0-31.5-5.7c-6.3-2.3-10.3,6.8-4.1,9.6c10.8,4.8,22.2,7.5,33.9,8.9c13.1,1.6,26.3,3.3,39.4,4.0c12.2,0.7,24.4,0.0,36.6-0.9c12.5-0.9,26.4-4.4,38.6-8.4C1131.1,79.2,1106.7,76.7,1101.1,76.5z" stroke="#FFFFFF" stroke-width="32" stroke-miterlimit="10" stroke-linecap="round" stroke-linejoin="round"/>
			<path fill="#F967BB" d="M977.8,70.1c-10.4-8.5-23.2,1.9-34.5,1.3c-2.3,0.1-4.5,0.2-6.7,0.3c-11.0,0.3-22.0,0.8-33.0,0.7c-12.0-0.1-23.9-0.3-35.9-1.2c-6.1-0.5-12.2-1.0-18.3-1.3c-5.5-0.3-11.3,0.6-16.7-0.5c-5.1-1.0-8.6,7.2-3.4,9.6c5.8,2.6,11.8,2.8,18.0,3.5c5.8,0.7,11.5,1.5,17.3,2.2c11.9,1.4,23.6,2.3,35.5,2.6c10.1,0.3,20.2,0.3,30.3,0.1c2.0,0.0,4.0-0.1,6.1-0.2c13.6-2.3,33.2-1.5,41.4-15.4C978.0,71.9,978.0,71.3,977.8,70.1z" stroke="#FFFFFF" stroke-width="32" stroke-miterlimit="10" stroke-linecap="round" stroke-linejoin="round"/>
			<path fill="#DD57A4" d="M907.0,59.1c-1.4,0.0-5.7-0.3-7.7-0.2c-11.2,0.5-36.6,0.6-41.3,0.6c-4.0-0.3-8.0-0.6-12.0-1.1c-2.7-5.8-6.5-11.3-15.4-10.9c-6.3,0.3-9.8,5.2-10.4,9.6c-0.6,4.5,3.2,10.3,7.3,13.3c0.9,0.7,2.0,1.0,3.1,1.0c1.1,0.6,2.7,0.9,4.4,0.6c3.1-0.6,27.9,0.0,37.4,0.4c11.5,0.5,23.1,1.2,34.6,1.6c0.5,0.0,1.0,0.0,1.5,0.0C928.7,76.4,918.8,58.3,907.0,59.1z" stroke="#FFFFFF" stroke-width="32" stroke-miterlimit="10" stroke-linecap="round" stroke-linejoin="round"/>
			<path fill="#DD57A4" d="M973.1,57.6c-0.4-1.5-0.9-3.0-1.5-4.4c-0.6-1.5-1.2-2.9-2.0-4.3c-4.2-8.1-11.0-14.3-17.2-20.7c-1.7-1.5-3.6-3.0-5.7-4.4c-13.2-5.6-37.0-14.5-43.7,4.7c-0.4,1.6-0.8,3.2-1.0,4.7c0.6,15.6,2.7,27.2,3.8,40.9c12.2-0.1,34.9-1.5,38.7-1.6c5.4-0.1,29.7,0.8,29.7-5.7C974.3,63.6,973.9,60.5,973.1,57.6z" stroke="#FFFFFF" stroke-width="32" stroke-miterlimit="10" stroke-linecap="round" stroke-linejoin="round"/>
			<path fill="#DD57A4" d="M964.4,39.6l-1.7-5.4c-1.6-3.5-3.9-6.3-6.8-8.6c-3.1-2.3-6.6-3.6-10.3-3.9c-3.6-0.3-7.0,0.4-10.2,2.1c-3.6,2.2-6.0,3.7-8.4,7.4c-2.2,3.2-3.6,6.8-4.0,10.8c-0.2,2.4-0.1,4.7,0.3,7.0c0.5,3.8,2.1,8.0,4.6,11.1c1.0,1.3,2.2,2.5,3.5,3.6c1.3,0.7,2.5,1.4,3.8,2.1c2.8,1.1,5.6,1.3,8.5,0.8c2.1-0.2,4.1-0.6,5.9-1.3c4.7-1.3,9.0-4.5,11.7-8.9C964.3,51.5,965.5,45.4,964.4,39.6z" stroke="#FFFFFF" stroke-width="32" stroke-miterlimit="10" stroke-linecap="round" stroke-linejoin="round"/>
			<path fill="#FFFFFF" d="M957.5,42.8l-1.2-3.4c-1.1-2.2-2.6-4.0-4.7-5.4c-2.2-1.4-4.5-2.3-7.1-2.5c-2.5-0.2-4.8,0.3-7.0,1.3c-2.5,1.4-4.1,2.3-5.8,4.7c-1.5,2.0-2.4,4.3-2.8,6.8c-0.1,1.5-0.1,3.0,0.2,4.4c0.3,2.4,1.4,5.1,3.2,7.0c0.7,0.9,1.5,1.6,2.4,2.3c0.9,0.4,1.7,0.9,2.6,1.3c1.9,0.7,3.8,0.9,5.8,0.5c1.5-0.1,2.8-0.4,4.0-0.8c3.3-0.8,6.2-2.9,8.1-5.6C957.4,50.4,958.2,46.5,957.5,42.8z" stroke="#FFFFFF" stroke-width="32" stroke-miterlimit="10" stroke-linecap="round" stroke-linejoin="round"/>
			<path d="M939.9,41.8c-7.3,0.0-8.1,11.3-0.7,11.3C946.4,53.1,947.2,41.8,939.9,41.8z" stroke="#FFFFFF" stroke-width="32" stroke-miterlimit="10" stroke-linecap="round" stroke-linejoin="round"/>
			<path d="M830.3,57.7c0.0-1.1-0.9-2.1-2.0-2.1c-0.8,0.0-1.5,0.3-2.0,0.8c-0.5,0.5-0.8,1.4-0.6,2.1c0.1,0.7,0.7,1.3,1.3,1.5c0.7,0.2,1.4,0.1,2.0-0.4c0.1-0.1,0.2-0.2,0.2-0.3c0.1-0.1,0.3-0.2,0.4-0.3C830.0,58.8,830.3,58.2,830.3,57.7z" stroke="#FFFFFF" stroke-width="32" stroke-miterlimit="10" stroke-linecap="round" stroke-linejoin="round"/>
			<path d="M836.5,55.5c-0.5-0.1-1.1,0.0-1.6,0.3c-0.3,0.2-0.6,0.5-0.7,0.8c-0.2,0.3-0.2,0.7-0.2,1.1c0.0,0.2,0.1,0.4,0.1,0.7c0.1,0.3,0.2,0.6,0.4,0.8c0.6,0.9,1.8,1.1,2.7,0.6c0.4-0.3,0.7-0.7,0.8-1.2c0.1,0.0,0.1-0.1,0.1-0.3c0.0,0.0,0.0-0.1,0.0-0.1c0.0-0.1,0.0-0.2,0.1-0.3C838.4,56.9,837.6,55.7,836.5,55.5z" stroke="#FFFFFF" stroke-width="32" stroke-miterlimit="10" stroke-linecap="round" stroke-linejoin="round"/>
			<path fill="#FFFFFF" d="M856.0,68.8c-3.3-0.1-6.6-0.2-9.8-0.3c-0.1,0.3-0.2,0.7-0.3,1.2c-0.1,1.0-0.3,1.7-0.3,2.6c0.0,1.0,0.3,1.9,0.6,2.8c0.5,1.5,1.4,2.5,2.7,3.4c1.6,1.1,3.5,0.5,4.9-0.6c1.0-0.8,1.8-1.8,2.3-2.9c0.3-0.7,0.9-2.0,0.8-2.8C856.8,71.1,856.7,69.8,856.0,68.8z" stroke="#FFFFFF" stroke-width="32" stroke-miterlimit="10" stroke-linecap="round" stroke-linejoin="round"/>
			<path fill="#FFFFFF" d="M871.7,74.1c-0.1-2.6-1.6-5.3-3.2-6.9c-1.7-1.6-3.9-1.5-5.7-0.1c-1.7,1.3-2.5,3.6-2.9,5.6c-0.1,0.3-0.1,0.7-0.1,1.0C863.8,73.8,867.8,73.9,871.7,74.1z" stroke="#FFFFFF" stroke-width="32" stroke-miterlimit="10" stroke-linecap="round" stroke-linejoin="round"/>
			<path fill="#FFFFFF" d="M903.8,71.8c-0.4,3.0,0.6,5.7,2.3,8.2c1.6,2.3,4.7,2.2,6.5,0.3c1.8-1.8,3.2-5.5,2.4-8.2C911.3,72.1,907.6,72.0,903.8,71.8z" stroke="#FFFFFF" stroke-width="32" stroke-miterlimit="10" stroke-linecap="round" stroke-linejoin="round"/>
			<path fill="#FFFFFF" d="M921.2,73.7c3.2,0.3,6.4,0.3,9.6,0.1c0.0-0.4,0.0-0.8-0.1-1.2c-0.1-0.7-0.3-1.2-0.6-1.9c-0.6-1.4-1.8-2.4-2.9-3.4c-1.2-0.9-3.5-0.7-4.5,0.4c-1.5,1.7-2.5,3.6-2.6,5.9c0.0,0.1,0.0,0.1,0.0,0.2C920.5,73.7,920.8,73.7,921.2,73.7z" stroke="#FFFFFF" stroke-width="32" stroke-miterlimit="10" stroke-linecap="round" stroke-linejoin="round"/>
			<path fill="#DD57A4" d="M1188.6,49.9c-2.6,0.7-43.7-4.7-62.0-5.5c-2.3-0.2-4.6-0.4-6.9-0.6c-11.5-1.0-23.0-1.9-34.5-1.9c-0.2-0.3-7.3,2.6-9.0,5.7c-2.1,3.8-2.1,8.7-0.7,12.9c3.2,9.2,12.4,14.2,19.3,17.9c4.6,2.4,9.2,4.0,14.0,4.9c1.6,0.3,3.2,0.5,4.8,0.6c49.5-1.6,72.5-25.0,72.7-25.2C1187.7,55.8,1190.1,52.6,1188.6,49.9z" stroke="#FFFFFF" stroke-width="32" stroke-miterlimit="10" stroke-linecap="round" stroke-linejoin="round"/>
			<path fill="#C94998" d="M1114.5,45.5c-0.1-0.9-0.5-1.7-1.1-2.4c-0.7-0.6-1.1-1.1-1.8-1.7c-1.0-0.8-2.2-1.2-3.4-1.0c-0.8,0.1-1.5,0.4-2.2,0.8c-0.7,0.5-1.2,1.1-1.5,1.8c-0.7,2.0-0.3,4.7,1.0,6.4c1.7,2.1,5.0,2.5,7.1,0.8c1.0-0.8,1.7-2.0,1.9-3.3C1114.5,46.4,1114.5,45.9,1114.5,45.5z" stroke="#FFFFFF" stroke-width="32" stroke-miterlimit="10" stroke-linecap="round" stroke-linejoin="round"/>
			<path fill="#C94998" d="M1144.2,41.6c-6.0-0.1-6.4,8.1-0.4,8.2C1149.8,49.9,1150.2,41.7,1144.2,41.6z" stroke="#FFFFFF" stroke-width="32" stroke-miterlimit="10" stroke-linecap="round" stroke-linejoin="round"/>
			<path fill="#C94998" d="M1160.3,53.5c-3.6-3.3-8.8,2.2-5.2,5.5C1158.7,62.3,1163.9,56.8,1160.3,53.5z" stroke="#FFFFFF" stroke-width="32" stroke-miterlimit="10" stroke-linecap="round" stroke-linejoin="round"/>
			<path fill="#C94998" d="M1087.5,45.6c-0.2-0.9-0.9-1.7-1.7-2.1c-0.3-0.1-0.6-0.2-0.9-0.3c-0.6-0.1-1.2-0.1-1.8,0.0c-0.7,0.4-1.4,0.7-2.0,1.1c-0.7,0.6-1.2,1.3-1.7,2.1c-0.1,0.4-0.3,0.8-0.4,1.2c-0.1,0.6-0.1,1.1,0.1,1.7c0.2,1.0,0.6,1.9,1.5,2.6c1.0,0.8,2.7,1.2,3.9,0.6c1.2-0.4,2.0-1.1,2.5-2.1c0.1-0.1,0.2-0.3,0.2-0.4C1088.0,48.6,1087.8,47.0,1087.5,45.6z" stroke="#FFFFFF" stroke-width="32" stroke-miterlimit="10" stroke-linecap="round" stroke-linejoin="round"/>
			<path fill="#C94998" d="M1079.5,64.8c-0.6-4.0-4.9-4.3-7.6-2.6C1062.2,68.3,1081.1,75.4,1079.5,64.8C1079.3,63.7,1079.7,66.5,1079.5,64.8z" stroke="#FFFFFF" stroke-width="32" stroke-miterlimit="10" stroke-linecap="round" stroke-linejoin="round"/>
			<path fill="#C94998" d="M1103.0,55.6c-1.6-2.3-4.1-3.1-6.6-3.2c-2.4-0.1-4.3,2.3-4.3,4.6c0.0,1.2,0.6,2.3,1.4,3.0c0.7,0.7,1.6,1.0,2.5,1.1c0.4,0.1,0.7,0.2,1.1,0.3c0.1,0.0,0.2,0.0,0.2,0.1c0.1,0.0,0.1,0.0,0.2,0.1c0.0,0.0,0.0,0.0,0.0,0.0c0.1,0.0,0.3,0.1,0.4,0.1c1.0,0.3,1.9,0.0,2.8-0.2C1103.1,60.9,1104.5,57.7,1103.0,55.6z" stroke="#FFFFFF" stroke-width="32" stroke-miterlimit="10" stroke-linecap="round" stroke-linejoin="round"/>
			<path fill="#C94998" d="M1133.6,53.4c-0.3-0.2-0.6-0.5-0.8-0.7c-0.7-0.4-1.4-0.7-2.2-0.7c-0.5,0.0-0.9,0.0-1.4,0.1c-1.4,0.3-2.8,1.3-3.2,2.8c0.0,0.2-0.1,0.4-0.1,0.5c-0.3,1.0-0.3,2.0,0.2,2.9c0.6,1.3,1.9,2.1,3.2,2.2c0.3,0.0,0.5,0.0,0.8,0.0c-0.1,0.0-0.2,0.0-0.3,0.0c0.1,0.0,0.2,0.0,0.3,0.0c2.3,0.2,4.4-1.7,4.5-4.1C1134.8,55.4,1134.4,54.3,1133.6,53.4z" stroke="#FFFFFF" stroke-width="32" stroke-miterlimit="10" stroke-linecap="round" stroke-linejoin="round"/>
			<path fill="#C94998" d="M1173.4,46.6c-0.4-0.6-0.9-1.0-1.6-1.2c-0.8-0.3-1.7,0.0-2.4,0.5c-0.7,0.4-1.3,1.3-1.2,2.1c0.1,0.9,0.4,1.5,1.2,2.1c0.4,0.2,0.7,0.3,1.1,0.4c1.4,0.3,2.8-0.5,3.2-1.9C1173.8,47.9,1173.7,47.2,1173.4,46.6z" stroke="#FFFFFF" stroke-width="32" stroke-miterlimit="10" stroke-linecap="round" stroke-linejoin="round"/>
			<g>
				<g>
					<path fill="#B53C8D" d="M999.1,69.1c-12.3,7.5-19.2,22.1-17.2,36.4c0.7,5.2,7.7,6.3,9.3,0.9c2.3-7.6,3.3-15.8,7.5-22.7c1.0-1.7,2.4-3.2,3.9-4.4c1.5-1.2,3.3-1.7,4.2-3.6C1009.3,70.8,1003.5,66.4,999.1,69.1L999.1,69.1z" stroke="#FFFFFF" stroke-width="32" stroke-miterlimit="10" stroke-linecap="round" stroke-linejoin="round"/>
				</g>
				<g>
					<path fill="#B53C8D" d="M984.7,105.5c-2.8,0.3-4.7,2.3-6.8,4.0c-1.7,1.4-4.1-0.2-3.5-2.3c1.3-4.6,5.7-6.9,10.3-6.6C987.5,100.9,987.4,105.2,984.7,105.5L984.7,105.5z" stroke="#FFFFFF" stroke-width="32" stroke-miterlimit="10" stroke-linecap="round" stroke-linejoin="round"/>
				</g>
				<g>
					<path fill="#B53C8D" d="M988.2,106.1c-0.8,1.0-1.6,2.1-2.0,3.3c-0.4,1.2-0.1,2.7-0.4,3.9c-0.3,1.3-2.1,2.1-3.2,1.3c-1.8-1.4-2.3-3.4-1.9-5.6c0.6-2.8,2.6-4.8,4.9-6.4C987.8,101.1,989.7,104.4,988.2,106.1L988.2,106.1z" stroke="#FFFFFF" stroke-width="32" stroke-miterlimit="10" stroke-linecap="round" stroke-linejoin="round"/>
				</g>
				<g>
					<path fill="#B53C8D" d="M990.7,101.1c-1.8,3.0,1.8,5.5,3.5,7.5c1.6,1.9-0.8,4.0-2.8,3.4c-5.8-1.9-8.8-9.0-4.0-13.6C989.2,96.7,992.0,99.0,990.7,101.1L990.7,101.1z" stroke="#FFFFFF" stroke-width="32" stroke-miterlimit="10" stroke-linecap="round" stroke-linejoin="round"/>
				</g>
			</g>
			<g>
				<g>
					<path fill="#B53C8D" d="M1083.1,67.2c-6.8,6.1-9.5,13.6-8.7,22.7c0.6,7.6,3.9,15.2,11.1,18.5c4.0,1.8,7.8-2.3,7.3-6.1c-1.1-8.6-9.9-18.1-2.2-26.9C1095.1,70.3,1088.6,62.3,1083.1,67.2L1083.1,67.2z" stroke="#FFFFFF" stroke-width="32" stroke-miterlimit="10" stroke-linecap="round" stroke-linejoin="round"/>
				</g>
				<g>
					<path fill="#B53C8D" d="M1094.5,100.3c0.1-0.2,0.2-0.4,0.3-0.6c-0.2,0.0-0.4,0.0-0.7,0.0c0.3,0.0-0.4-0.1-0.2-0.1c-1.0-0.3-1.8-0.5-2.9-0.3c-1.3,0.3-2.6,1.8-1.8,3.2c1.9,3.4,6.6,3.2,8.9,0.4c0.8-1.0,0.6-2.5-0.4-3.2c-0.5-0.4-1.1-0.5-1.7-0.5c-0.2,0.1-0.4,0.1-0.6,0.2C1095.0,99.7,1094.7,100.0,1094.5,100.3L1094.5,100.3z" stroke="#FFFFFF" stroke-width="32" stroke-miterlimit="10" stroke-linecap="round" stroke-linejoin="round"/>
				</g>
				<g>
					<path fill="#B53C8D" d="M1094.4,107.8c-2.5-0.6-2.4-2.8-3.3-4.6c-0.8-1.8-3.9-2.3-4.6-0.1c-0.9,2.5,0.2,5.0,1.9,6.9c1.5,1.7,3.5,2.4,5.8,2.4C1096.8,112.3,1096.8,108.4,1094.4,107.8L1094.4,107.8z" stroke="#FFFFFF" stroke-width="32" stroke-miterlimit="10" stroke-linecap="round" stroke-linejoin="round"/>
				</g>
				<g>
					<path fill="#B53C8D" d="M1085.8,109.9c-0.8-2.4,1.3-4.7,2.6-6.4c0.9-1.3,1.3-3.0-0.1-4.1c-1.8-1.5-3.7,0.0-4.9,1.4c-2.0,2.2-3.2,5.2-3.0,8.3c0.1,1.6,0.8,4.0,2.7,4.3C1085.0,113.6,1086.3,111.7,1085.8,109.9L1085.8,109.9z" stroke="#FFFFFF" stroke-width="32" stroke-miterlimit="10" stroke-linecap="round" stroke-linejoin="round"/>
				</g>
			</g>
			<path fill="#C94998" d="M1061.9,38.4c-3.7-1.0-10.2-0.4-10.1,4.7c0.0,2.7,1.9,3.8,4.1,4.8c0.5,0.2,7.8,1.3,3.5,1.0C1066.0,49.4,1069.2,40.3,1061.9,38.4C1059.9,37.8,1064.7,39.1,1061.9,38.4z" stroke="#FFFFFF" stroke-width="32" stroke-miterlimit="10" stroke-linecap="round" stroke-linejoin="round"/>
			<path fill="#DD57A4" d="M903.8,31.4c-18.1,0.0-19.2,32.4-1.0,32.4C920.9,63.8,922.0,31.4,903.8,31.4z" stroke="#FFFFFF" stroke-width="32" stroke-miterlimit="10" stroke-linecap="round" stroke-linejoin="round"/>
			<path fill="#FFFFFF" d="M904.3,37.8c-12.7-0.8-14.7,19.0-1.9,19.7C915.1,58.3,917.1,38.6,904.3,37.8z" stroke="#FFFFFF" stroke-width="32" stroke-miterlimit="10" stroke-linecap="round" stroke-linejoin="round"/>
			<path d="M904.4,43.6c-6.1,0.0-6.2,9.5-0.1,9.5C910.4,53.1,910.5,43.6,904.4,43.6z" stroke="#FFFFFF" stroke-width="32" stroke-miterlimit="10" stroke-linecap="round" stroke-linejoin="round"/>
			<path fill="#C94998" d="M942.4,21.2c-2.2,0.2-4.1,0.9-6.2,1.5c-2.8,0.8-5.6,1.4-8.3,2.5c-3.5,1.4-1.2,7.0,2.4,6.1c4.6-1.2,10.3-1.6,14.1-4.7C946.3,25.0,945.1,21.0,942.4,21.2z" stroke="#FFFFFF" stroke-width="32" stroke-miterlimit="10" stroke-linecap="round" stroke-linejoin="round"/>
			<path fill="#C94998" d="M911.9,27.8c-4.2-1.2-8.6-0.5-12.8-1.4c-4.1-0.9-4.8,5.4-0.9,6.4c4.2,1.1,9.1,1.7,13.3,0.5C914.1,32.5,914.8,28.6,911.9,27.8z" stroke="#FFFFFF" stroke-width="32" stroke-miterlimit="10" stroke-linecap="round" stroke-linejoin="round"/>
		</g>
		<g id="selectedContent">
			<g>
				<g>
					<path fill="#B53C8D" d="M1090.1,68.9c-19.7-0.2-38.8,15.7-34.0,36.8c1.1,4.6,8.5,3.6,9.0-0.8c0.8-7.0,3.1-13.4,8.2-18.4c4.8-4.7,11.4-6.5,17.8-7.7C1096.7,77.5,1095.7,69.0,1090.1,68.9L1090.1,68.9z"/>
				</g>
				<g>
					<path fill="#B53C8D" d="M1057.8,111.1c0.0-2.0,1.6-2.4,2.9-3.5c1.4-1.2,0.9-4.0-1.2-4.0c-1.4,0.0-2.4,0.3-3.5,1.2c-0.7,0.6-1.2,1.2-1.6,2.0c-0.9,1.4-1.1,3.2-1.0,4.8c0.1,1.2,1.3,2.1,2.4,1.9C1057.2,113.4,1057.8,112.3,1057.8,111.1L1057.8,111.1z"/>
				</g>
				<g>
					<path fill="#B53C8D" d="M1065.5,109.0c-2.4-1.4-1.4-4.1-1.6-6.4c-0.1-2.1-2.5-2.2-3.7-1.1c-2.4,2.0-1.9,5.6-0.9,8.1c0.7,2.0,2.5,3.2,4.4,4.0C1066.3,114.5,1067.9,110.3,1065.5,109.0L1065.5,109.0z"/>
				</g>
				<g>
					<path fill="#B53C8D" d="M1069.5,102.7c-2.3,0.3-3.6-1.5-5.4-2.6c0.3,0.3,0.7,0.6,1.0,0.9c-0.5-0.6-1.0-1.1-1.6-1.6c-1.6-1.3-4.0,0.6-3.5,2.4c1.3,4.7,5.9,7.1,10.5,5.8C1073.5,106.7,1072.7,102.2,1069.5,102.7L1069.5,102.7z"/>
				</g>
			</g>
			<g>
				<g>
					<path fill="#B53C8D" d="M987.4,61.9c-18.7,3.0-35.5,19.9-32.4,39.8c0.7,4.4,8.0,5.4,9.1,0.7c1.8-7.6,3.2-14.6,8.5-20.7c4.4-5.1,10.6-8.2,17.1-9.6C996.3,70.7,994.0,60.8,987.4,61.9L987.4,61.9z"/>
				</g>
				<g>
					<path fill="#B53C8D" d="M964.9,97.9c0.2,1.7,0.5,3.0,1.4,4.5c0.6,1.0,1.3,1.8,1.5,3.0c0.2,1.0-0.2,2.1-1.2,2.6c-0.4,0.2-0.8,0.3-1.2,0.3c-0.2,0.0-0.4-0.1-0.6-0.1c-0.4-0.1-0.8-0.3-1.0-0.7c-1.5,0.1-2.6-2.8-3.0-3.9c-0.8-2.0-0.5-4.2,0.3-6.2C961.8,95.7,964.6,95.9,964.9,97.9L964.9,97.9z"/>
				</g>
				<g>
					<path fill="#B53C8D" d="M962.5,101.0c-1.1,1.0-2.3,2.5-2.7,4.0c-0.2,1.0-0.3,1.9-0.9,2.8c-1.2,1.8-3.6,1.3-4.5-0.4c-1.0-1.9-0.2-4.1,0.7-5.8c1.2-2.1,3.2-3.3,5.4-4.2C962.5,96.6,964.0,99.6,962.5,101.0L962.5,101.0z"/>
				</g>
				<g>
					<path fill="#B53C8D" d="M958.5,100.9c-2.2,0.1-4.1,1.9-5.7,3.2c-1.6,1.2-3.8-0.4-3.5-2.2c0.8-5.0,5.6-5.7,9.8-5.2C961.5,97.0,960.8,100.8,958.5,100.9L958.5,100.9z"/>
				</g>
			</g>
			<path fill="#DD57A4" d="M963.4,41.0c-9.4-5.2-30.4-9.3-31.2,6.0c-2.4,30.6,33.8,41.9,58.5,44.4c2.5,0.3,5.0,0.6,7.5,0.8c11.3,1.5,22.6,1.5,33.6,1.2c3.0,0.0,6.1,0.2,9.2,0.3c24.6,1.2,50.5,4.6,69.2-12.2c1.3-1.2,2.3-2.7,2.9-4.3c0.6-1.6,0.8-3.4,0.8-5.3c-13.3-51.6-82.5-29.9-122.0-27.5c-6.4,0.0-12.1,0.0-18.6-1.3c-2.2-0.4-4.3-0.8-6.5-1.4C964.8,41.5,963.6,41.1,963.4,41.0z"/>
			<g>
				<path fill="#C94998" d="M1004.8,41.6C1004.8,41.6,1004.8,41.6,1004.8,41.6C1005.1,41.7,1005.2,41.7,1004.8,41.6z"/>
				<path fill="#C94998" d="M999.7,42.3c-2.4,0.9-3.8,3.4-3.5,5.8c0.3,2.6,2.3,4.4,4.8,4.9c1.5,0.3,1.9,0.2,2.9,0.3c2.6,0.1,5.0-2.2,5.5-4.7c0.6-3.0-1.4-6.4-4.5-7.0c-0.2,0.0-0.6-0.1-0.6-0.1C1002.5,41.3,1001.3,41.7,999.7,42.3z"/>
			</g>
			<path fill="#C94998" d="M1036.8,42.8c-0.7-7.6-13.0-5.4-14.7,0.6C1019.2,53.2,1037.5,51.2,1036.8,42.8C1036.6,41.5,1037.0,45.2,1036.8,42.8z"/>
			<path fill="#C94998" d="M975.7,41.8c-6.7-0.1-7.1,8.7-0.5,8.8C981.9,50.8,982.4,41.9,975.7,41.8z"/>
			<path fill="#C94998" d="M992.8,59.1c-4.4-6.1-16.3-0.5-10.0,4.8C986.2,66.7,997.2,65.1,992.8,59.1C992.0,58.1,993.4,59.9,992.8,59.1z"/>
			<path fill="#C94998" d="M1011.6,62.9c0.6,9.0,19.3,5.4,16.2-2.6C1028.9,56.8,1010.9,53.4,1011.6,62.9C1011.8,65.9,1011.5,61.5,1011.6,62.9z"/>
			<path fill="#C94998" d="M1053.2,61.3c-2.1-2.4-6.6-5.2-9.8-3.5c-1.9,1.0-3.0,3.1-2.8,5.2c0.1,0.8,3.2,5.5,0.9,2.5C1046.2,71.5,1059.6,68.7,1053.2,61.3C1052.1,60.1,1054.7,63.0,1053.2,61.3z"/>
			<path fill="#F967BB" d="M1101.1,76.5c-6.6-0.2-12.9,2.0-19.4,2.9c-5.6,0.8-11.3,1.3-16.9,1.7c-12.0,0.9-23.8,1.9-35.8,1.4c-12.2-0.5-24.5-1.4-36.7-2.4c-10.6-0.9-21.4-2.0-31.5-5.7c-6.3-2.3-10.3,6.8-4.1,9.6c10.8,4.8,22.2,7.5,33.9,8.9c13.1,1.6,26.3,3.3,39.4,4.0c12.2,0.7,24.4,0.0,36.6-0.9c12.5-0.9,26.4-4.4,38.6-8.4C1131.1,79.2,1106.7,76.7,1101.1,76.5z"/>
			<path fill="#F967BB" d="M977.8,70.1c-10.4-8.5-23.2,1.9-34.5,1.3c-2.3,0.1-4.5,0.2-6.7,0.3c-11.0,0.3-22.0,0.8-33.0,0.7c-12.0-0.1-23.9-0.3-35.9-1.2c-6.1-0.5-12.2-1.0-18.3-1.3c-5.5-0.3-11.3,0.6-16.7-0.5c-5.1-1.0-8.6,7.2-3.4,9.6c5.8,2.6,11.8,2.8,18.0,3.5c5.8,0.7,11.5,1.5,17.3,2.2c11.9,1.4,23.6,2.3,35.5,2.6c10.1,0.3,20.2,0.3,30.3,0.1c2.0,0.0,4.0-0.1,6.1-0.2c13.6-2.3,33.2-1.5,41.4-15.4C978.0,71.9,978.0,71.3,977.8,70.1z"/>
			<path fill="#DD57A4" d="M907.0,59.1c-1.4,0.0-5.7-0.3-7.7-0.2c-11.2,0.5-36.6,0.6-41.3,0.6c-4.0-0.3-8.0-0.6-12.0-1.1c-2.7-5.8-6.5-11.3-15.4-10.9c-6.3,0.3-9.8,5.2-10.4,9.6c-0.6,4.5,3.2,10.3,7.3,13.3c0.9,0.7,2.0,1.0,3.1,1.0c1.1,0.6,2.7,0.9,4.4,0.6c3.1-0.6,27.9,0.0,37.4,0.4c11.5,0.5,23.1,1.2,34.6,1.6c0.5,0.0,1.0,0.0,1.5,0.0C928.7,76.4,918.8,58.3,907.0,59.1z"/>
			<path fill="#DD57A4" d="M973.1,57.6c-0.4-1.5-0.9-3.0-1.5-4.4c-0.6-1.5-1.2-2.9-2.0-4.3c-4.2-8.1-11.0-14.3-17.2-20.7c-1.7-1.5-3.6-3.0-5.7-4.4c-13.2-5.6-37.0-14.5-43.7,4.7c-0.4,1.6-0.8,3.2-1.0,4.7c0.6,15.6,2.7,27.2,3.8,40.9c12.2-0.1,34.9-1.5,38.7-1.6c5.4-0.1,29.7,0.8,29.7-5.7C974.3,63.6,973.9,60.5,973.1,57.6z"/>
			<path fill="#DD57A4" d="M964.4,39.6l-1.7-5.4c-1.6-3.5-3.9-6.3-6.8-8.6c-3.1-2.3-6.6-3.6-10.3-3.9c-3.6-0.3-7.0,0.4-10.2,2.1c-3.6,2.2-6.0,3.7-8.4,7.4c-2.2,3.2-3.6,6.8-4.0,10.8c-0.2,2.4-0.1,4.7,0.3,7.0c0.5,3.8,2.1,8.0,4.6,11.1c1.0,1.3,2.2,2.5,3.5,3.6c1.3,0.7,2.5,1.4,3.8,2.1c2.8,1.1,5.6,1.3,8.5,0.8c2.1-0.2,4.1-0.6,5.9-1.3c4.7-1.3,9.0-4.5,11.7-8.9C964.3,51.5,965.5,45.4,964.4,39.6z"/>
			<path fill="#FFFFFF" d="M957.5,42.8l-1.2-3.4c-1.1-2.2-2.6-4.0-4.7-5.4c-2.2-1.4-4.5-2.3-7.1-2.5c-2.5-0.2-4.8,0.3-7.0,1.3c-2.5,1.4-4.1,2.3-5.8,4.7c-1.5,2.0-2.4,4.3-2.8,6.8c-0.1,1.5-0.1,3.0,0.2,4.4c0.3,2.4,1.4,5.1,3.2,7.0c0.7,0.9,1.5,1.6,2.4,2.3c0.9,0.4,1.7,0.9,2.6,1.3c1.9,0.7,3.8,0.9,5.8,0.5c1.5-0.1,2.8-0.4,4.0-0.8c3.3-0.8,6.2-2.9,8.1-5.6C957.4,50.4,958.2,46.5,957.5,42.8z"/>
			<path d="M939.9,41.8c-7.3,0.0-8.1,11.3-0.7,11.3C946.4,53.1,947.2,41.8,939.9,41.8z"/>
			<path d="M830.3,57.7c0.0-1.1-0.9-2.1-2.0-2.1c-0.8,0.0-1.5,0.3-2.0,0.8c-0.5,0.5-0.8,1.4-0.6,2.1c0.1,0.7,0.7,1.3,1.3,1.5c0.7,0.2,1.4,0.1,2.0-0.4c0.1-0.1,0.2-0.2,0.2-0.3c0.1-0.1,0.3-0.2,0.4-0.3C830.0,58.8,830.3,58.2,830.3,57.7z"/>
			<path d="M836.5,55.5c-0.5-0.1-1.1,0.0-1.6,0.3c-0.3,0.2-0.6,0.5-0.7,0.8c-0.2,0.3-0.2,0.7-0.2,1.1c0.0,0.2,0.1,0.4,0.1,0.7c0.1,0.3,0.2,0.6,0.4,0.8c0.6,0.9,1.8,1.1,2.7,0.6c0.4-0.3,0.7-0.7,0.8-1.2c0.1,0.0,0.1-0.1,0.1-0.3c0.0,0.0,0.0-0.1,0.0-0.1c0.0-0.1,0.0-0.2,0.1-0.3C838.4,56.9,837.6,55.7,836.5,55.5z"/>
			<path fill="#FFFFFF" d="M856.0,68.8c-3.3-0.1-6.6-0.2-9.8-0.3c-0.1,0.3-0.2,0.7-0.3,1.2c-0.1,1.0-0.3,1.7-0.3,2.6c0.0,1.0,0.3,1.9,0.6,2.8c0.5,1.5,1.4,2.5,2.7,3.4c1.6,1.1,3.5,0.5,4.9-0.6c1.0-0.8,1.8-1.8,2.3-2.9c0.3-0.7,0.9-2.0,0.8-2.8C856.8,71.1,856.7,69.8,856.0,68.8z"/>
			<path fill="#FFFFFF" d="M871.7,74.1c-0.1-2.6-1.6-5.3-3.2-6.9c-1.7-1.6-3.9-1.5-5.7-0.1c-1.7,1.3-2.5,3.6-2.9,5.6c-0.1,0.3-0.1,0.7-0.1,1.0C863.8,73.8,867.8,73.9,871.7,74.1z"/>
			<path fill="#FFFFFF" d="M903.8,71.8c-0.4,3.0,0.6,5.7,2.3,8.2c1.6,2.3,4.7,2.2,6.5,0.3c1.8-1.8,3.2-5.5,2.4-8.2C911.3,72.1,907.6,72.0,903.8,71.8z"/>
			<path fill="#FFFFFF" d="M921.2,73.7c3.2,0.3,6.4,0.3,9.6,0.1c0.0-0.4,0.0-0.8-0.1-1.2c-0.1-0.7-0.3-1.2-0.6-1.9c-0.6-1.4-1.8-2.4-2.9-3.4c-1.2-0.9-3.5-0.7-4.5,0.4c-1.5,1.7-2.5,3.6-2.6,5.9c0.0,0.1,0.0,0.1,0.0,0.2C920.5,73.7,920.8,73.7,921.2,73.7z"/>
			<path fill="#DD57A4" d="M1188.6,49.9c-2.6,0.7-43.7-4.7-62.0-5.5c-2.3-0.2-4.6-0.4-6.9-0.6c-11.5-1.0-23.0-1.9-34.5-1.9c-0.2-0.3-7.3,2.6-9.0,5.7c-2.1,3.8-2.1,8.7-0.7,12.9c3.2,9.2,12.4,14.2,19.3,17.9c4.6,2.4,9.2,4.0,14.0,4.9c1.6,0.3,3.2,0.5,4.8,0.6c49.5-1.6,72.5-25.0,72.7-25.2C1187.7,55.8,1190.1,52.6,1188.6,49.9z"/>
			<path fill="#C94998" d="M1114.5,45.5c-0.1-0.9-0.5-1.7-1.1-2.4c-0.7-0.6-1.1-1.1-1.8-1.7c-1.0-0.8-2.2-1.2-3.4-1.0c-0.8,0.1-1.5,0.4-2.2,0.8c-0.7,0.5-1.2,1.1-1.5,1.8c-0.7,2.0-0.3,4.7,1.0,6.4c1.7,2.1,5.0,2.5,7.1,0.8c1.0-0.8,1.7-2.0,1.9-3.3C1114.5,46.4,1114.5,45.9,1114.5,45.5z"/>
			<path fill="#C94998" d="M1144.2,41.6c-6.0-0.1-6.4,8.1-0.4,8.2C1149.8,49.9,1150.2,41.7,1144.2,41.6z"/>
			<path fill="#C94998" d="M1160.3,53.5c-3.6-3.3-8.8,2.2-5.2,5.5C1158.7,62.3,1163.9,56.8,1160.3,53.5z"/>
			<path fill="#C94998" d="M1087.5,45.6c-0.2-0.9-0.9-1.7-1.7-2.1c-0.3-0.1-0.6-0.2-0.9-0.3c-0.6-0.1-1.2-0.1-1.8,0.0c-0.7,0.4-1.4,0.7-2.0,1.1c-0.7,0.6-1.2,1.3-1.7,2.1c-0.1,0.4-0.3,0.8-0.4,1.2c-0.1,0.6-0.1,1.1,0.1,1.7c0.2,1.0,0.6,1.9,1.5,2.6c1.0,0.8,2.7,1.2,3.9,0.6c1.2-0.4,2.0-1.1,2.5-2.1c0.1-0.1,0.2-0.3,0.2-0.4C1088.0,48.6,1087.8,47.0,1087.5,45.6z"/>
			<path fill="#C94998" d="M1079.5,64.8c-0.6-4.0-4.9-4.3-7.6-2.6C1062.2,68.3,1081.1,75.4,1079.5,64.8C1079.3,63.7,1079.7,66.5,1079.5,64.8z"/>
			<path fill="#C94998" d="M1103.0,55.6c-1.6-2.3-4.1-3.1-6.6-3.2c-2.4-0.1-4.3,2.3-4.3,4.6c0.0,1.2,0.6,2.3,1.4,3.0c0.7,0.7,1.6,1.0,2.5,1.1c0.4,0.1,0.7,0.2,1.1,0.3c0.1,0.0,0.2,0.0,0.2,0.1c0.1,0.0,0.1,0.0,0.2,0.1c0.0,0.0,0.0,0.0,0.0,0.0c0.1,0.0,0.3,0.1,0.4,0.1c1.0,0.3,1.9,0.0,2.8-0.2C1103.1,60.9,1104.5,57.7,1103.0,55.6z"/>
			<path fill="#C94998" d="M1133.6,53.4c-0.3-0.2-0.6-0.5-0.8-0.7c-0.7-0.4-1.4-0.7-2.2-0.7c-0.5,0.0-0.9,0.0-1.4,0.1c-1.4,0.3-2.8,1.3-3.2,2.8c0.0,0.2-0.1,0.4-0.1,0.5c-0.3,1.0-0.3,2.0,0.2,2.9c0.6,1.3,1.9,2.1,3.2,2.2c0.3,0.0,0.5,0.0,0.8,0.0c-0.1,0.0-0.2,0.0-0.3,0.0c0.1,0.0,0.2,0.0,0.3,0.0c2.3,0.2,4.4-1.7,4.5-4.1C1134.8,55.4,1134.4,54.3,1133.6,53.4z"/>
			<path fill="#C94998" d="M1173.4,46.6c-0.4-0.6-0.9-1.0-1.6-1.2c-0.8-0.3-1.7,0.0-2.4,0.5c-0.7,0.4-1.3,1.3-1.2,2.1c0.1,0.9,0.4,1.5,1.2,2.1c0.4,0.2,0.7,0.3,1.1,0.4c1.4,0.3,2.8-0.5,3.2-1.9C1173.8,47.9,1173.7,47.2,1173.4,46.6z"/>
			<g>
				<g>
					<path fill="#B53C8D" d="M999.1,69.1c-12.3,7.5-19.2,22.1-17.2,36.4c0.7,5.2,7.7,6.3,9.3,0.9c2.3-7.6,3.3-15.8,7.5-22.7c1.0-1.7,2.4-3.2,3.9-4.4c1.5-1.2,3.3-1.7,4.2-3.6C1009.3,70.8,1003.5,66.4,999.1,69.1L999.1,69.1z"/>
				</g>
				<g>
					<path fill="#B53C8D" d="M984.7,105.5c-2.8,0.3-4.7,2.3-6.8,4.0c-1.7,1.4-4.1-0.2-3.5-2.3c1.3-4.6,5.7-6.9,10.3-6.6C987.5,100.9,987.4,105.2,984.7,105.5L984.7,105.5z"/>
				</g>
				<g>
					<path fill="#B53C8D" d="M988.2,106.1c-0.8,1.0-1.6,2.1-2.0,3.3c-0.4,1.2-0.1,2.7-0.4,3.9c-0.3,1.3-2.1,2.1-3.2,1.3c-1.8-1.4-2.3-3.4-1.9-5.6c0.6-2.8,2.6-4.8,4.9-6.4C987.8,101.1,989.7,104.4,988.2,106.1L988.2,106.1z"/>
				</g>
				<g>
					<path fill="#B53C8D" d="M990.7,101.1c-1.8,3.0,1.8,5.5,3.5,7.5c1.6,1.9-0.8,4.0-2.8,3.4c-5.8-1.9-8.8-9.0-4.0-13.6C989.2,96.7,992.0,99.0,990.7,101.1L990.7,101.1z"/>
				</g>
			</g>
			<g>
				<g>
					<path fill="#B53C8D" d="M1083.1,67.2c-6.8,6.1-9.5,13.6-8.7,22.7c0.6,7.6,3.9,15.2,11.1,18.5c4.0,1.8,7.8-2.3,7.3-6.1c-1.1-8.6-9.9-18.1-2.2-26.9C1095.1,70.3,1088.6,62.3,1083.1,67.2L1083.1,67.2z"/>
				</g>
				<g>
					<path fill="#B53C8D" d="M1094.5,100.3c0.1-0.2,0.2-0.4,0.3-0.6c-0.2,0.0-0.4,0.0-0.7,0.0c0.3,0.0-0.4-0.1-0.2-0.1c-1.0-0.3-1.8-0.5-2.9-0.3c-1.3,0.3-2.6,1.8-1.8,3.2c1.9,3.4,6.6,3.2,8.9,0.4c0.8-1.0,0.6-2.5-0.4-3.2c-0.5-0.4-1.1-0.5-1.7-0.5c-0.2,0.1-0.4,0.1-0.6,0.2C1095.0,99.7,1094.7,100.0,1094.5,100.3L1094.5,100.3z"/>
				</g>
				<g>
					<path fill="#B53C8D" d="M1094.4,107.8c-2.5-0.6-2.4-2.8-3.3-4.6c-0.8-1.8-3.9-2.3-4.6-0.1c-0.9,2.5,0.2,5.0,1.9,6.9c1.5,1.7,3.5,2.4,5.8,2.4C1096.8,112.3,1096.8,108.4,1094.4,107.8L1094.4,107.8z"/>
				</g>
				<g>
					<path fill="#B53C8D" d="M1085.8,109.9c-0.8-2.4,1.3-4.7,2.6-6.4c0.9-1.3,1.3-3.0-0.1-4.1c-1.8-1.5-3.7,0.0-4.9,1.4c-2.0,2.2-3.2,5.2-3.0,8.3c0.1,1.6,0.8,4.0,2.7,4.3C1085.0,113.6,1086.3,111.7,1085.8,109.9L1085.8,109.9z"/>
				</g>
			</g>
			<path fill="#C94998" d="M1061.9,38.4c-3.7-1.0-10.2-0.4-10.1,4.7c0.0,2.7,1.9,3.8,4.1,4.8c0.5,0.2,7.8,1.3,3.5,1.0C1066.0,49.4,1069.2,40.3,1061.9,38.4C1059.9,37.8,1064.7,39.1,1061.9,38.4z"/>
			<path fill="#DD57A4" d="M903.8,31.4c-18.1,0.0-19.2,32.4-1.0,32.4C920.9,63.8,922.0,31.4,903.8,31.4z"/>
			<path fill="#FFFFFF" d="M904.3,37.8c-12.7-0.8-14.7,19.0-1.9,19.7C915.1,58.3,917.1,38.6,904.3,37.8z"/>
			<path d="M904.4,43.6c-6.1,0.0-6.2,9.5-0.1,9.5C910.4,53.1,910.5,43.6,904.4,43.6z"/>
			<path fill="#C94998" d="M942.4,21.2c-2.2,0.2-4.1,0.9-6.2,1.5c-2.8,0.8-5.6,1.4-8.3,2.5c-3.5,1.4-1.2,7.0,2.4,6.1c4.6-1.2,10.3-1.6,14.1-4.7C946.3,25.0,945.1,21.0,942.4,21.2z"/>
			<path fill="#C94998" d="M911.9,27.8c-4.2-1.2-8.6-0.5-12.8-1.4c-4.1-0.9-4.8,5.4-0.9,6.4c4.2,1.1,9.1,1.7,13.3,0.5C914.1,32.5,914.8,28.6,911.9,27.8z"/>
		</g>
	</g>
</svg>
