<?xml version='1.0' encoding='UTF-8'?>
<svg xmlns="http://www.w3.org/2000/svg" xmlns:xlink="http://www.w3.org/1999/xlink" version="1.1" x="0px" y="0px" width="22px" height="36px" viewBox="0 0 22 36" enable-background="new 0 0 22 36" xml:space="preserve"><path id="digit5" fill="#FFFFFF" d="M15.2,12.7c0.0,0.0-2.7-0.6-6.1-0.1c0.0-0.8,0.1-1.7,0.1-2.5c0.0-1.6-0.1-2.7-0.3-4.4c1.2,0.0,9.5-0.3,12.4-1.0c-0.2-1.1-0.3-2.2-0.4-3.3c0.0-0.6,0.0-1.2,0.0-1.8c-2.7,1.3-15.0,1.1-16.9,1.0c0.7,5.1,0.2,14.2,0.1,16.8c0.0,0.3-0.1,0.7-0.1,1.1c0.0,0.1,0.0,0.3,0.0,0.4c0.2,0.0,0.3-0.1,0.5-0.1c0.0,0.0,0.0,0.1,0.0,0.1c0.2-0.1,0.3-0.1,0.5-0.2c0.4-0.1,0.9-0.3,1.3-0.4c3.6-0.9,9.1-0.1,9.1,4.8c-0.1,7.1-9.7,5.9-12.0,2.0c-0.1,0.2-0.1,0.5-0.2,0.7c-0.6,1.6-1.3,3.1-2.2,4.5c2.8,3.1,7.7,4.7,11.8,3.7c5.5-1.2,8.1-5.2,8.7-10.0C21.7,19.5,20.2,14.1,15.2,12.7z"/>
	</svg>
