<?xml version='1.0' encoding='UTF-8'?>
<svg xmlns="http://www.w3.org/2000/svg" xmlns:xlink="http://www.w3.org/1999/xlink" width="22" height="38"><g id="dollarSignSophia">
		<path fill="#333333" d="M12.6,1.2v4.2c1.1,0.1,2.0,0.2,2.9,0.4c0.9,0.2,1.8,0.5,2.7,0.9l-1.1,4.7c-1.0-1.0-2.5-1.7-4.5-2.0v7.2c1.2,0.5,2.2,1.0,3.1,1.5c0.8,0.5,1.6,1.0,2.1,1.6c0.7,0.6,1.1,1.3,1.5,2.1c0.3,0.8,0.5,1.6,0.5,2.6c0.0,1.1-0.2,2.1-0.6,3.0c-0.4,0.9-1.0,1.7-1.7,2.4c-0.7,0.7-1.5,1.2-2.5,1.6c-0.9,0.4-2.0,0.7-3.0,0.9v4.5h-3.3v-4.3c-1.7-0.1-3.2-0.4-4.5-0.8s-2.4-0.9-3.2-1.6l1.4-5.1c0.9,0.9,1.8,1.6,2.9,2.2c1.1,0.6,2.2,0.9,3.4,1.1v-8.1c-1.3-0.5-2.4-1.1-3.3-1.6s-1.6-1.0-2.2-1.6c-0.6-0.6-1.0-1.2-1.3-1.9s-0.4-1.5-0.4-2.4c0.0-0.8,0.2-1.7,0.5-2.5c0.3-0.8,0.8-1.5,1.5-2.2c0.7-0.7,1.5-1.2,2.5-1.7c1.0-0.4,2.1-0.7,3.3-0.9v-4.2H12.6zM6.3,12.9c0.1,0.2,0.2,0.5,0.5,0.7c0.5,0.5,1.3,1.0,2.6,1.6v-5.9c-1.0,0.1-1.8,0.5-2.4,0.9c-0.5,0.5-0.8,1.1-0.8,1.9C6.1,12.4,6.2,12.6,6.3,12.9zM15.1,24.0c-0.1-0.3-0.3-0.5-0.5-0.8c-0.5-0.5-1.3-1.1-2.6-1.7v6.6c1.0-0.2,1.8-0.6,2.3-1.1c0.6-0.5,0.8-1.3,0.8-2.1C15.2,24.5,15.2,24.2,15.1,24.0z"/>
		<circle fill="#00FFFF" cx="12.0" cy="29.1" r="5" opacity="0"/>
	</g>
</svg>
