<?xml version='1.0' encoding='UTF-8'?>
<svg xmlns="http://www.w3.org/2000/svg" xmlns:xlink="http://www.w3.org/1999/xlink" width="98" height="118"><g id="dragon10">
		<path fill="#AAA4FF" d="M33.5,57.5c0.0,0.0-7.7-10.4-10.3-12.0c-2.8-1.7-16.6,7.4-16.6,7.4s6.2,0.2,7.9,1.5c1.3,1.1,1.2,6.0,1.2,6.0s4.2-3.3,5.5-2.8c1.2,0.4,2.3,5.2,2.3,5.2L33.5,57.5z"/>
		<path fill="#8E8EEF" d="M23.2,45.5c-2.8-1.7-7.5,14.9-7.5,14.9s4.2-3.3,5.5-2.8c1.2,0.4,2.3,5.2,2.3,5.2S25.8,47.1,23.2,45.5z"/>
		<path fill="#D2ABFF" d="M37.3,34.1c3.1,0.4,1.2,12.4-1.1,12.5c-4.2,0.1-7.7-3.7-9.1-5.6C25.5,38.8,34.6,33.7,37.3,34.1z"/>
		<path fill="#D2ABFF" d="M17.3,85.2c0.7,1.6-6.2,8.0-7.8,7.0c-3.1-2.1-2.4-8.1-0.5-11.5C9.8,79.3,16.6,83.6,17.3,85.2z"/>
		<path fill="#D2ABFF" d="M25.5,77.0c1.1,1.3-3.2,9.6-5.1,9.1c-3.6-0.9-4.9-6.9-4.2-10.7C16.5,73.8,24.4,75.7,25.5,77.0z"/>
		<path fill="#BD78F4" d="M31.9,74.5c-6.5-0.3-11.0,4.6-16.1,7.6c-1.9,1.1-3.8,2.4-5.7,3.5c-2.2,1.3-4.6,1.9-6.6,3.5c-3.4,2.6-3.2,5.2,0.1,7.7c2.4,1.8,7.9,4.0,10.8,4.6c3.6,0.8,3.5,1.2,7.4,1.1c3.2-0.1,6.8-1.0,9.8-2.0c2.2-0.8,4.1-1.9,6.0-3.1c3.3-2.1,4.5-4.8,5.9-8.3C46.3,81.6,38.7,74.8,31.9,74.5z"/>
		<path fill="#A05DE2" d="M4.9,89.6c0.0-0.5,0.0-0.9,0.0-1.4c-0.5,0.3-1.0,0.6-1.5,1.0c-3.4,2.6-3.2,5.2,0.1,7.7c0.8,0.6,1.8,1.2,3.0,1.8C5.4,95.7,4.9,92.7,4.9,89.6z"/>
		<path fill="#D2ABFF" d="M31.9,65.1c1.8,1.1,0.0,12.2-2.3,12.4c-4.5,0.3-8.3-6.0-8.9-10.5C20.4,64.9,30.1,64.0,31.9,65.1z"/>
		<path fill="#BD78F4" d="M70.0,28.2c-7.2-13.8-29.4-11.4-32.5,5.6c-4.4,24.6-23.3,53.1-18.9,60.6c4.9,7.7,11.2,12.0,18.5,14.7c2.5,0.9,5.0,1.5,7.6,1.8c12.9,2.3,32.8,0.1,40.7-12.9c7.9-13.0,7.0-30.1-9.2-45.9C74.3,50.3,71.6,30.4,70.0,28.2z"/>
		<path fill="#D88DFC" d="M69.5,47.5c-2.3-16.1-14.0-3.1-23.9,9.2c-7.4,12.3-12.3,22.2-9.9,37.0c4.9,19.7,24.6,17.2,37.0,7.4c9.9-9.9,12.3-22.2,4.9-34.9C76.9,64.3,70.5,49.4,69.5,47.5z"/>
		<path fill="#D2ABFF" d="M41.4,20.8c4.8,1.0-3.0,13.8-3.4,13.6c-4.0,0.1-9.6-5.8-10.8-7.4C24.3,23.2,36.1,19.7,41.4,20.8z"/>
		<path fill="#D2ABFF" d="M55.3,16.2c-0.1,5.5-12.8,6.5-13.5,5.2c-2.9-5.5-6.6-13.9-4.8-15.1C42.7,2.2,55.3,11.4,55.3,16.2z"/>
		<path fill="#D2ABFF" d="M73.5,1.7c3.1,0.1-0.2,11.6-1.2,16.3c-1.2,5.4-17.2,0.2-17.3-2.5C54.1,10.5,65.5,1.4,73.5,1.7z"/>
		<path fill="#BD78F4" d="M40.8,39.7c4.3,1.9,11.0,1.9,15.8,3.6c5.3,1.9,10.4,4.0,15.6,6.2c0.1-0.0,0.3-0.1,0.4-0.1c3.4-1.1,6.3-3.0,8.2-6.4c1.3-3.1,1.5-6.3,1.1-9.4c-2.6-12.8-4.8-23.8-28.1-20.0c-2.3,0.4-5.4,1.1-8.7,2.9c-10.1,5.9-9.5,12.5-9.6,21.3C37.3,38.4,39.0,39.0,40.8,39.7z"/>
		<path fill="#FFFFFF" d="M40.1,44.7c-0.6,1.6-0.9,3.2-0.9,4.7c0.1,1.6,0.6,2.5,1.5,2.9c1.8,0.8,4.2-2.0,5.5-5.2C44.1,46.4,42.0,45.6,40.1,44.7z"/>
		<path fill="#FFFFFF" d="M48.5,47.6c-0.2,1.6-0.1,3.3,0.3,4.7c0.5,1.6,1.2,2.3,2.2,2.5c1.9,0.3,3.6-3.0,4.0-6.4C52.7,48.3,50.6,48.0,48.5,47.6z"/>
		<path fill="#FFFFFF" d="M56.8,49.8c-0.2,1.7-0.1,3.3,0.3,4.7c0.5,1.6,1.2,2.3,2.2,2.5c1.9,0.3,3.6-3.0,4.0-6.4C61.1,50.4,58.9,50.2,56.8,49.8z"/>
		<path fill="#FFFFFF" d="M66.7,49.9c-0.2,1.7-0.1,3.3,0.3,4.7c0.5,1.6,1.2,2.3,2.2,2.5c1.9,0.3,3.6-3.0,4.0-6.4C70.9,50.6,68.7,50.4,66.7,49.9z"/>
		<path fill="#BD78F4" d="M84.0,19.4c-5.8-0.1-11.3,1.8-17.0,2.0c-7.0,0.2-13.9,2.6-20.7,4.3c-15.3,3.7-16.2,17.1-12.7,19.1c13.3,7.5,36.0,9.5,54.5,12.0C100.3,58.4,97.8,19.6,84.0,19.4z"/>
		<path fill="#A767E5" d="M72.5,16.8c-9.5-5.8-24.4,1.9-32.1,8.1c-4.2,3.4-1.1,9.7,3.1,11.0c4.3,1.3,8.2-0.1,12.5-0.2c5.2-0.1,12.4,0.1,16.7-3.1C78.3,28.4,78.8,20.7,72.5,16.8z"/>
		<path fill="#A767E5" d="M39.8,32.8c-3.7,0.0-6.7,3.3-6.7,6.9c0.1,3.7,3.2,6.7,6.9,6.7c3.7,0.0,6.7-3.3,6.7-6.9C46.6,35.7,43.5,32.8,39.8,32.8z"/>
		<path fill="#FFFFFF" d="M41.5,26.2c0.4-10.2,16.2-10.7,16.5-0.2c0.3,10.8-15.2,12.7-16.3,1.3C41.8,30.3,41.6,25.7,41.5,26.2C41.6,25.3,41.5,26.8,41.5,26.2z"/>
		<path d="M44.1,24.1c0.2-0.9,0.7-1.8,1.5-2.3c1.6-1.1,3.8-0.6,4.9,1.0c0.5,0.7,0.6,1.4,0.6,2.3c-0.0,1.2-0.6,2.4-1.6,3.0c-0.5,0.3-1.1,0.5-1.6,0.5c-0.3-0.0-0.6-0.1-0.9-0.1c-0.6-0.1-1.1-0.4-1.6-0.9c-0.5-0.3-1.1-1.1-1.2-1.7C44.1,25.3,44.0,24.7,44.1,24.1z"/>
		<path fill="#FFFFFF" d="M60.0,23.8c0.3-9.7,15.3-10.1,15.6-0.2c0.3,10.3-14.4,12.1-15.5,1.3C60.2,27.7,60.0,23.4,60.0,23.8C60.0,23.0,60.0,24.4,60.0,23.8z"/>
		<path d="M61.9,22.0c0.2-0.9,0.7-1.8,1.5-2.3c1.6-1.1,3.8-0.6,4.9,1.0c0.5,0.7,0.6,1.4,0.6,2.3c-0.0,1.2-0.6,2.4-1.6,3.0c-0.5,0.3-1.1,0.5-1.6,0.5c-0.3-0.0-0.6-0.1-0.9-0.1c-0.6-0.1-1.1-0.4-1.6-0.9c-0.5-0.3-1.1-1.1-1.2-1.7C61.8,23.3,61.8,22.7,61.9,22.0z"/>
		<path fill="#8F5ACC" d="M78.9,37.2c-0.1-0.1-0.1-0.2-0.2-0.3c-0.1-0.1-0.1-0.2-0.2-0.3c-1.0-1.2-2.8-1.6-4.3-0.8c-1.9,1.1-2.0,3.6-0.6,5.2c0.7,0.7,1.5,1.0,2.5,1.0C78.8,42.1,80.0,39.2,78.9,37.2z"/>
		<path fill="#6E42AD" d="M78.8,38.6c-0.0-0.0-0.1-0.1-0.1-0.1c-0.0-0.0-0.1-0.1-0.1-0.1c-0.5-0.6-1.5-0.9-2.2-0.4c-1.0,0.6-1.0,1.9-0.3,2.7c0.3,0.4,0.8,0.5,1.3,0.5C78.7,41.2,79.4,39.6,78.8,38.6z"/>
		<path fill="#8F5ACC" d="M91.5,31.8c-0.3-1.1-1.2-2.0-2.4-2.3c-1.6-0.4-2.8,0.4-3.7,1.6c-0.6,0.8-0.5,1.8-0.4,2.7c0.2,0.9,1.2,1.8,2.1,2.0c0.1,0.0,0.2,0.1,0.3,0.1C89.9,36.6,92.2,34.1,91.5,31.8z"/>
		<path fill="#6E42AD" d="M89.3,32.9c-0.0-0.0-0.1-0.1-0.1-0.1c-0.0-0.0-0.1-0.1-0.1-0.1c-0.5-0.6-1.5-0.9-2.2-0.4c-1.0,0.6-1.0,1.9-0.3,2.7c0.3,0.4,0.8,0.5,1.3,0.5C89.2,35.5,89.8,33.9,89.3,32.9z"/>
		<path fill="#AD74E8" d="M58.1,23.9c-2.2-8.6-16.1-7.6-16.9,1.9C46.8,25.0,52.5,24.4,58.1,23.9z"/>
		<path fill="#AD74E8" d="M75.9,22.7c-1.2-9.4-15.8-8.6-16.3,1.1C65.0,23.3,70.5,22.9,75.9,22.7z"/>
		<path fill="#9C58DD" d="M58.8,107.1c2.5-3.8,7.4-3.2,11.3-2.5c2.5,0.5,5.8,3.0,4.8,4.9c-1.2,2.1-5.2,2.8-7.4,3.1c-2.5,0.4-5.5,1.2-7.6-0.5C58.4,110.9,57.7,108.9,58.8,107.1z"/>
		<path fill="#9C58DD" d="M58.6,108.0c0.9-0.6,1.9-1.2,3.0-0.9c1.6,0.4,1.9,2.4,0.6,3.4c-0.2,0.1-4.2,0.8-4.2,0.8c0.0,0.0-1.3-0.6-1.2-1.3C57.0,109.1,57.9,108.5,58.6,108.0z"/>
		<path fill="#9C58DD" d="M60.9,110.7c0.8-0.8,1.6-1.5,2.8-1.4c1.7,0.2,2.2,2.1,1.1,3.2c-0.2,0.2-4.0,1.5-4.0,1.5c0.0,0.0-1.4-0.3-1.4-1.1C59.4,112.0,60.3,111.3,60.9,110.7z"/>
		<path fill="#9C58DD" d="M59.7,104.7c1.1,0.0,2.2,0.1,3.0,1.0c1.1,1.3,0.1,3.1-1.5,3.1c-0.2,0.0-3.9-1.8-3.9-1.8s-0.7-1.2-0.2-1.8C57.8,104.5,58.9,104.6,59.7,104.7z"/>
		<path fill="#9C58DD" d="M57.6,107.6l-0.0,0.0L57.6,107.6z"/>
		<path fill="#9C58DD" d="M47.7,108.4c-1.3-4.4-6.2-5.2-10.2-5.5c-2.5-0.2-6.4,1.3-6.0,3.4c0.5,2.3,4.3,4.1,6.2,5.0c2.2,1.1,4.9,2.7,7.5,1.6C47.0,112.1,48.3,110.4,47.7,108.4z"/>
		<path fill="#9C58DD" d="M82.1,72.0c0.1,0.1,0.1,0.2,0.2,0.3C82.0,71.9,82.0,71.8,82.1,72.0z"/>
		<path fill="#9C58DD" d="M83.4,73.8c-0.2-0.3-0.4-0.6-0.6-0.9c-0.3-0.4-0.5-0.6-0.6-0.8c-0.2-0.3-0.4-0.5-0.6-0.8c-1.1-1.3-3.3-1.5-4.8-1.0c-2.1,0.8-3.1,2.9-2.3,5.0c-0.0,0.0,0.0,0.1,0.0,0.2c0.1,0.5,0.5,1.0,0.7,1.5c0.1,0.1,0.1,0.2,0.1,0.3c0.1,0.3,0.2,0.6,0.3,0.8c0.2,0.9,0.4,1.8,0.9,2.6c0.1,0.2,0.3,0.4,0.4,0.7l0.7,0.8c0.8,0.8,1.0,1.0,0.8,0.6c1.6,1.8,4.0,1.0,5.1-0.6C85.6,79.6,84.8,76.5,83.4,73.8z"/>
		<path fill="#9C58DD" d="M79.8,71.4c-2.4-1.1-6.4,1.0-7.4,3.4c-0.2,0.6-0.2,1.1,0.2,1.6c0.9,1.0,2.6,0.3,3.5-0.2c1.1-0.6,2.7-0.7,3.7-1.5C80.9,73.9,81.2,72.0,79.8,71.4z"/>
		<path fill="#9C58DD" d="M80.4,76.5c-1.3-0.5-2.3-0.2-3.5,0.3c-1.0,0.4-2.1,0.7-3.0,1.3c-0.9,0.6-0.9,1.8,0.0,2.3c1.1,0.7,2.5,0.3,3.7,0.0c1.3-0.3,2.7-0.7,3.4-1.9C81.3,77.9,81.1,76.8,80.4,76.5z"/>
		<path fill="#9C58DD" d="M81.3,79.7c-1.0,0.2-1.9,0.9-2.8,1.3c-0.3,0.2-0.7,0.3-1.1,0.4c-0.3,0.1-0.5,0.3-0.7,0.5c-0.1,0.1-0.7,0.5-0.2,0.2c-0.5,0.3-0.6,1.0-0.2,1.4c0.7,0.7,1.9,0.4,2.8,0.4c0.6-0.0,1.2-0.3,1.8-0.5c0.7-0.3,1.4-0.5,2.0-1.0C84.3,81.3,82.8,79.4,81.3,79.7z"/>
		<path fill="#9C58DD" d="M35.1,68.6c-0.1,0.1-0.2,0.1-0.3,0.2C35.2,68.5,35.3,68.5,35.1,68.6z"/>
		<path fill="#9C58DD" d="M33.6,69.8c0.2-0.3,0.5-0.5,0.8-0.7c0.4-0.3,0.6-0.5,0.7-0.5c0.2-0.2,0.5-0.4,0.8-0.6c1.3-0.9,3.3-0.6,4.5,0.3c1.7,1.2,2.1,3.3,0.9,4.9c-0.0,0.0-0.0,0.1-0.1,0.2c-0.2,0.4-0.7,0.8-1.0,1.1c-0.1,0.1-0.1,0.1-0.2,0.2c-0.1,0.2-0.3,0.5-0.4,0.7c-0.4,0.7-0.8,1.5-1.4,2.1c-0.2,0.2-0.3,0.3-0.5,0.5l-0.8,0.6c-0.8,0.5-1.1,0.6-0.9,0.3c-1.8,1.2-3.7-0.1-4.4-1.7C30.3,74.5,31.7,71.9,33.6,69.8z"/>
		<path fill="#9C58DD" d="M37.4,68.6c2.4-0.4,5.4,2.3,5.8,4.7c0.1,0.6-0.1,1.0-0.6,1.4c-1.0,0.7-2.3-0.3-3.1-1.0c-0.9-0.8-2.2-1.2-2.9-2.1C35.8,70.5,36.0,68.8,37.4,68.6z"/>
		<path fill="#9C58DD" d="M35.7,72.9c1.2-0.2,2.1,0.4,3.0,1.1c0.8,0.6,1.7,1.1,2.3,1.9c0.6,0.7,0.3,1.8-0.6,2.1c-1.1,0.3-2.3-0.3-3.2-0.8c-1.0-0.6-2.2-1.2-2.5-2.4C34.5,74.0,34.9,73.0,35.7,72.9z"/>
		<path fill="#9C58DD" d="M34.1,75.6c0.8,0.4,1.5,1.2,2.1,1.8c0.3,0.2,0.6,0.4,0.9,0.6c0.2,0.2,0.4,0.3,0.6,0.6c0.1,0.1,0.5,0.6,0.1,0.2c0.3,0.4,0.3,1.1-0.2,1.3c-0.8,0.4-1.8-0.0-2.6-0.3c-0.5-0.1-1.0-0.5-1.4-0.9c-0.6-0.4-1.1-0.8-1.6-1.4C31.1,76.3,32.9,74.9,34.1,75.6z"/>
		<path fill="#9C58DD" d="M47.6,109.3c-0.7-0.9-1.4-1.7-2.6-1.8c-1.7-0.1-2.5,1.8-1.5,3.1c0.1,0.2,3.8,2.0,3.8,2.0c0.0,0.0,1.4-0.2,1.5-0.9C48.9,110.8,48.2,110.0,47.6,109.3z"/>
		<path fill="#9C58DD" d="M45.3,112.4c-0.4-1.0-0.8-2.1-1.9-2.5c-1.6-0.6-2.9,0.9-2.4,2.4c0.1,0.2,2.9,3.1,2.9,3.1c0.0,0.0,1.4,0.3,1.7-0.4C46.1,114.2,45.6,113.2,45.3,112.4z"/>
		<path fill="#9C58DD" d="M47.5,105.8c-1.1-0.3-2.2-0.5-3.2,0.1c-1.4,0.9-0.9,2.9,0.6,3.4c0.2,0.1,4.2-0.6,4.2-0.6s1.1-1.0,0.7-1.6C49.4,106.2,48.3,106.0,47.5,105.8z"/>
		<path fill="#9C58DD" d="M42.0,109.1v0.0V109.1z"/>
		<circle fill="#00FFFF" cx="48.4" cy="58.6" r="5" opacity="0"/>
	</g>
</svg>
