<?xml version='1.0' encoding='UTF-8'?>
<svg xmlns="http://www.w3.org/2000/svg" xmlns:xlink="http://www.w3.org/1999/xlink" version="1.1" x="0px" y="0px" width="56px" height="32px" viewBox="0 0 56 32" enable-background="new 0 0 56 32" xml:space="preserve"><g id="equal">
		<path fill="#333333" d="M54.2,10.4c-0.9-3.6-1.2-6.5-1.4-10.2c-11.4,0.9-32.8,0.7-52.1,0.2c0.1,3.3-0.5,6.7-0.6,9.9c-0.0,0.1-0.0,0.2-0.0,0.4C12.6,11.4,40.5,11.9,54.2,10.4z"/>
		<path fill="#333333" d="M0.7,20.8c0.1,3.3-0.5,6.7-0.6,9.9c-0.0,0.1-0.0,0.2-0.0,0.4c12.5,0.6,40.4,1.1,54.1-0.4c-0.9-3.6-1.2-6.5-1.4-10.2C41.4,21.5,20.1,21.3,0.7,20.8z"/>
	</g>
	</svg>
