<?xml version='1.0' encoding='UTF-8'?>
<svg xmlns="http://www.w3.org/2000/svg" xmlns:xlink="http://www.w3.org/1999/xlink" width="420" height="96"><g id="equation2">
		<rect x="1.0" y="1.1" opacity="0" fill="#FF00FF" width="416.105" height="92.57"/>
		<path fill="#333333" d="M150.2,61.4c-0.1-1.6-0.2-4.2-0.2-7.8l-0.1-4.8c-3.3-0.1-6.9-0.2-10.8-0.5l-1.8-0.1c-0.0,0.0-0.0-0.1-0.0-0.4c0.0-0.3,0.0-1.1,0.1-2.5c0.0-0.3,0.0-0.8,0.1-1.5c0.0-0.7,0.1-1.2,0.1-1.5c0.0-0.4-0.0-0.6-0.1-0.6c2.9,0.0,5.0,0.1,6.2,0.1l6.3-0.0c0.1-3.3,0.2-7.5,0.4-12.5l0.0-0.6l1.2,0.1c1.1,0.1,1.7,0.2,1.9,0.2c1.1,0.1,2.0,0.1,2.6,0.1c0.1,0.0,0.3,0.0,0.5,0.0c0.3,0.0,0.4,0.0,0.5-0.0c-0.1,3.3-0.2,7.5-0.2,12.7c3.4,0.0,6.0-0.0,7.9-0.0c1.9-0.0,3.4-0.1,4.6-0.2l0.1,1.3c0.1,1.3,0.2,2.4,0.2,3.2c0.1,0.8,0.2,1.5,0.4,2.2c-2.7,0.2-7.1,0.4-13.1,0.6c0.0,5.6,0.1,9.6,0.3,12.1c-0.9,0.0-1.5,0.1-1.9,0.1C153.0,61.0,151.3,61.2,150.2,61.4z"/>
		<path fill="#333333" d="M386.2,42.8h-1.4c-5.2,0.0-10.5-0.1-15.7-0.4c-0.0,0.0-0.0-0.1-0.0-0.4c0.0-0.3,0.0-1.1,0.1-2.5c0.1-1.6,0.2-2.8,0.2-3.4c0.0-0.5-0.0-0.7-0.1-0.7l4.3,0.1c5.1,0.1,9.5,0.2,13.2,0.2c5.3,0.0,10.1-0.2,14.3-0.5c0.1,1.7,0.3,3.1,0.4,4.1s0.3,2.0,0.4,2.8l-4.0,0.2c-3.9,0.2-5.9,0.3-6.2,0.3C390.5,42.8,388.6,42.8,386.2,42.8zM386.2,54.8h-1.4c-5.2,0.0-10.5-0.1-15.7-0.4c-0.0,0.0-0.0-0.1-0.0-0.4c0.0-0.3,0.0-1.1,0.1-2.5c0.1-1.6,0.2-2.8,0.2-3.4c0.0-0.5-0.0-0.7-0.1-0.7l4.3,0.1c5.0,0.1,9.3,0.2,12.9,0.2c5.4,0.0,10.3-0.2,14.6-0.5c0.1,1.7,0.3,3.1,0.4,4.1s0.3,2.0,0.4,2.8l-4.0,0.2c-3.9,0.2-5.9,0.3-6.2,0.3C390.5,54.7,388.6,54.8,386.2,54.8z"/>
		<circle fill="#00FFFF" cx="392.1" cy="61.7" r="5" opacity="0"/>
	</g>
</svg>
