<?xml version='1.0' encoding='UTF-8'?>
<svg xmlns="http://www.w3.org/2000/svg" xmlns:xlink="http://www.w3.org/1999/xlink" width="372" height="60"><g id="exp1">
		<g id="_x33__13_">
			<g>
				<path fill="#333333" d="M22.4,57.3c0.0-0.5-0.1-2.9-0.3-7.1c-0.2-4.2-0.3-7.0-0.4-8.6c-2.3,0.0-5.5,0.2-9.7,0.4c-5.1,0.2-8.1,0.4-9.2,0.4c-0.2-0.7-0.7-1.7-1.4-3.1c-0.2-0.4-0.5-0.8-0.7-1.2c-0.2-0.4-0.4-0.7-0.5-0.8c0.9-4.2,2.4-8.4,4.3-12.5c1.9-4.1,4.3-8.3,7.0-12.4c1.3-2.1,2.9-4.3,4.8-6.6c0.9-1.2,1.8-2.2,2.6-3.1l1.4-1.5c0.1-0.1,0.3-0.3,0.6-0.7c0.3-0.4,0.6-0.6,0.9-0.7c4.7,0.0,8.1,0.1,10.3,0.2c-0.2,0.9-0.5,5.6-0.9,14.0c-0.2,4.9-0.4,9.2-0.4,13.0c0.0,1.9,0.0,3.6,0.1,5.0c2.9,0.0,4.9,0.1,6.3,0.2v2.0c0.0,1.2-0.0,2.1-0.0,2.8c-0.0,0.4-0.0,1.1-0.0,1.9l0.0,2.9c-1.2,0.1-3.1,0.1-5.6,0.1c0.1,1.3,0.3,5.0,0.7,11.0l0.3,4.2c-0.2,0.1-1.2,0.1-3.0,0.1l-5.3-0.0C22.9,57.2,22.4,57.2,22.4,57.3zM21.4,14.4c-1.3,2.1-2.9,4.8-4.8,7.9c-2.5,4.3-4.3,7.7-5.2,10.1c3.0-0.3,6.4-0.5,10.0-0.5V14.4z"/>
			</g>
		</g>
		<g id="_x36__11_">
			<g>
				<path fill="#333333" d="M173.6,57.5c-0.7-1.5-1.6-3.0-2.7-4.7c-1.1-1.6-2.3-3.0-3.4-4.2c2.1-1.4,4.5-3.3,7.3-5.7c2.8-2.3,5.6-4.9,8.3-7.6c3.3-3.2,5.9-6.2,7.7-9.0c1.7-2.7,2.8-5.0,3.1-6.7c0.1-0.6,0.2-1.2,0.2-1.9c0.0-1.0-0.1-1.9-0.4-2.7c-0.5-1.3-1.2-2.5-2.1-3.4c-0.9-0.9-2.1-1.5-3.4-1.8c-0.4-0.1-0.9-0.1-1.5-0.1c-1.3,0.0-2.6,0.3-4.0,1.0c-1.3,0.6-2.5,1.5-3.6,2.5c-1.1,1.1-2.1,2.2-3.0,3.5c-0.2-0.3-0.9-1.0-2.2-2.2c-1.3-1.2-2.8-2.7-4.6-4.3c1.7-2.9,3.8-5.3,6.3-7.1c2.5-1.9,5.3-3.0,8.4-3.3c0.7-0.1,1.3-0.1,2.0-0.1c2.2,0.0,4.4,0.4,6.4,1.3c2.1,0.9,3.9,2.1,5.5,3.6c3.0,2.9,4.8,6.4,5.2,10.5c0.0,0.4,0.1,0.9,0.1,1.7c0.0,4.0-1.3,8.2-4.0,12.9c-2.9,5.1-7.4,10.6-13.6,16.6c1.6-0.3,3.4-0.5,5.4-0.5c1.6,0.0,3.3,0.1,5.0,0.3c4.4,0.5,7.7,1.4,9.8,2.6c-0.7,1.4-1.6,3.5-2.6,6.4c-0.2,0.5-0.4,0.9-0.5,1.4c-0.1,0.4-0.2,0.7-0.3,0.8c-0.1-0.0-0.2-0.1-0.5-0.1c-0.2-0.1-0.5-0.1-0.8-0.2c-2.7-0.6-5.2-1.1-7.7-1.4c-2.4-0.3-4.8-0.5-7.2-0.5c-2.2,0.0-4.3,0.2-6.2,0.5c-1.7,0.3-3.2,0.6-4.6,1.1c-0.2,0.1-0.6,0.2-1.0,0.5C174.2,57.2,173.9,57.4,173.6,57.5z"/>
			</g>
		</g>
		<g id="_x39__9_">
			<g>
				<g>
					<path fill="#333333" d="M368.6,29.6c1.0,2.4,1.4,4.8,1.4,7.4c0.0,2.9-0.6,5.7-1.7,8.3c-0.7,1.7-1.7,3.2-2.8,4.6c-1.2,1.4-2.5,2.7-4.0,3.7c-1.6,1.1-3.4,2.0-5.3,2.6s-3.9,0.9-5.9,0.9c-2.0,0.0-3.9-0.3-5.8-0.8c-1.9-0.6-3.6-1.4-5.2-2.5c-2.3-1.6-4.1-3.8-5.3-6.4c-1.2-2.6-2.0-5.5-2.4-8.8c-0.2-1.8-0.3-3.5-0.3-5.3c0.0-4.6,0.8-9.1,2.3-13.5c1.5-4.3,3.8-8.4,6.7-12.0c2.7-3.3,6.1-5.6,10.4-7.0c2.1-0.7,4.2-1.0,6.6-1.0c1.2,0.0,2.5,0.1,3.9,0.3c1.4,0.2,2.7,0.5,3.9,0.8c-0.2,0.3-0.5,1.0-1.0,2.3c-0.4,1.1-0.8,2.0-1.0,2.5c-0.4,1.0-0.8,1.9-1.1,2.7c-0.3,0.8-0.5,1.4-0.5,1.6c-2.0-0.7-3.6-1.0-4.8-1.0c-2.5,0.0-4.9,0.8-7.1,2.4c-1.8,1.2-3.3,2.8-4.5,4.7c-0.6,0.9-1.2,1.9-1.6,2.9c-0.2,0.3-0.4,0.9-0.6,1.6c-0.3,0.7-0.4,1.2-0.5,1.4c0.2-0.1,0.6-0.3,1.1-0.5c0.5-0.3,1.1-0.5,1.6-0.8c2.6-1.1,5.2-1.7,7.9-1.7c2.2,0.0,4.3,0.4,6.3,1.1c2.0,0.8,3.8,1.9,5.4,3.3C366.2,25.2,367.6,27.2,368.6,29.6zM361.2,37.1c0.0-1.7-0.5-3.3-1.4-4.8c-0.9-1.5-2.2-2.6-3.7-3.4c-1.6-0.8-3.2-1.2-5.0-1.2c-1.3,0.0-2.5,0.2-3.8,0.6c-1.2,0.4-2.3,1.0-3.3,1.8c-1.0,0.8-1.8,1.7-2.3,2.9c-0.8,1.7-1.2,3.5-1.2,5.3c0.0,2.1,0.5,4.1,1.5,5.9c1.0,1.8,2.4,3.1,4.3,3.9c1.1,0.4,2.2,0.7,3.4,0.7c1.6,0.0,3.2-0.4,4.9-1.2c2.1-1.1,3.8-2.8,5.2-5.2C360.7,40.7,361.2,39.0,361.2,37.1z"/>
				</g>
			</g>
		</g>
		<g id="_x37__10_">
			<g>
				<path fill="#333333" d="M269.8,24.9h-1.8c-6.5,0.0-13.1-0.2-19.6-0.5c-0.0,0.0-0.0-0.1-0.0-0.4c0.0-0.3,0.0-1.4,0.1-3.1c0.1-2.1,0.2-3.5,0.2-4.2c0.0-0.6-0.0-0.9-0.1-0.9l5.4,0.1c6.4,0.2,11.9,0.3,16.4,0.3c6.6,0.0,12.6-0.2,17.9-0.6c0.2,2.1,0.3,3.8,0.5,5.2c0.1,1.4,0.3,2.5,0.6,3.5l-4.9,0.3c-4.8,0.3-7.4,0.4-7.7,0.4C275.1,24.9,272.9,24.9,269.8,24.9zM269.8,39.8h-1.8c-6.5,0.0-13.1-0.2-19.6-0.5c-0.0,0.0-0.0-0.1-0.0-0.4c0.0-0.3,0.0-1.4,0.1-3.1c0.1-2.1,0.2-3.5,0.2-4.2c0.0-0.6-0.0-0.9-0.1-0.9l5.4,0.1c6.3,0.2,11.7,0.3,16.1,0.3c6.8,0.0,12.8-0.2,18.2-0.6c0.2,2.1,0.3,3.8,0.5,5.2c0.1,1.4,0.3,2.5,0.6,3.5l-4.9,0.3c-4.8,0.3-7.4,0.4-7.7,0.4C275.1,39.8,272.9,39.8,269.8,39.8z"/>
			</g>
		</g>
		<g id="_x34__12_">
			<g>
				<path fill="#333333" d="M99.4,48.5c-0.1-2.0-0.2-5.2-0.3-9.8l-0.1-6.0c-4.1-0.1-8.6-0.3-13.5-0.7l-2.2-0.1c-0.0,0.0-0.0-0.1-0.0-0.4c0.0-0.3,0.0-1.4,0.1-3.1c0.0-0.4,0.1-1.0,0.1-1.9c0.0-0.8,0.1-1.5,0.1-1.9c0.0-0.5-0.0-0.8-0.1-0.8c3.7,0.1,6.2,0.1,7.7,0.1l7.8-0.0c0.1-4.1,0.2-9.4,0.5-15.7l0.0-0.8l1.5,0.1c1.4,0.1,2.2,0.2,2.4,0.3c1.4,0.1,2.5,0.2,3.3,0.2c0.1,0.0,0.3,0.0,0.7,0.0c0.3,0.0,0.5,0.0,0.7-0.0c-0.1,4.1-0.2,9.4-0.2,15.9c4.2,0.0,7.5-0.0,9.8-0.0c2.4-0.0,4.3-0.1,5.7-0.2l0.1,1.6c0.1,1.7,0.2,3.0,0.3,4.0c0.1,1.0,0.2,1.9,0.4,2.8c-3.4,0.3-8.8,0.5-16.4,0.7c0.0,7.0,0.1,12.0,0.4,15.1c-1.1,0.0-1.9,0.1-2.3,0.1C102.9,48.0,100.8,48.2,99.4,48.5z"/>
			</g>
		</g>
	</g>
</svg>
