<?xml version='1.0' encoding='UTF-8'?>
<svg xmlns="http://www.w3.org/2000/svg" xmlns:xlink="http://www.w3.org/1999/xlink" width="1232" height="172"><svg id="activeWhite" style="color:#FFFFFF;" x="0" y="0">
		<g id="defaultContent">
			<g>
				<path fill="currentColor" d="M303.9,97.8c0.0,4.8,0.0,9.6,0.0,14.4c-0.6,8.2-2.8,16.1-9.4,21.6c-8.7,7.3-18.8,12.6-29.5,17.1c-16.1,6.8-32.8,4.9-49.4,5.0c-6.5,0.0-12.6,0.1-18.2,3.6c-10.1,6.1-21.4,7.4-33.1,6.6c-10.7,0.0-21.4,0.0-32.1,0.0c-5.8-0.5-11.6-0.1-17.6-1.3c-6.8-1.4-11.8-4.7-16.1-8.9c-4.4-4.2-9.4-6.5-15.0-7.6c-16.1-3.2-30.8-9.5-44.5-17.9c-11.7-7.2-21.9-16.2-29.2-27.9c-2.9-4.6-3.2-9.7-4.0-14.7c0.0-3.3,0.0-6.7,0.0-10.0c1.3-3.6,0.6-7.3,0.5-10.9c-0.3-8.1,3.2-14.5,9.5-19.3c22.5-17.1,47.7-29.8,74.4-39.5c5.9-2.1,13.2-1.0,19.9-1.4c4.2-0.3,8.4-0.2,12.5-1.2c17.3,0.0,34.7,0.0,52.0,0.0c6.7,1.6,13.6,1.8,20.4,2.1c23.1,0.9,45.4,5.4,66.3,14.9c16.3,7.4,30.1,18.3,40.2,33.0c1.8,2.7,2.1,5.5,2.0,8.4c0.0,4.0,0.0,8.0,0.0,12.0C303.9,83.3,301.7,90.6,303.9,97.8z" fill-opacity="1"/>
				<path fill="#999999" d="M170.0,168.4c-1.9,0.0-3.8-0.1-5.7-0.2l-32.2-0.0c-2.0-0.2-4.1-0.2-6.1-0.3c-3.8-0.1-7.7-0.2-11.8-1.1c-6.4-1.3-11.8-4.3-17.1-9.4c-3.8-3.7-8.2-6.0-14.0-7.1c-15.4-3.1-30.6-9.2-45.2-18.1c-13.2-8.1-22.9-17.4-29.8-28.6c-2.7-4.3-3.3-9.0-4.0-13.4c-0.1-0.7-0.2-1.4-0.3-2.1l-0.0-0.3v-10.3l0.1-0.3c0.9-2.4,0.7-5.0,0.5-7.8c-0.1-0.8-0.1-1.6-0.1-2.4c-0.3-8.4,3.3-15.6,10.2-20.9c21.5-16.3,46.0-29.3,74.9-39.8c4.3-1.5,9.2-1.5,13.9-1.4c2.2,0.0,4.4,0.1,6.5-0.1c1.1-0.1,2.1-0.1,3.2-0.2c3.1-0.1,6.1-0.3,8.9-1.0l0.2-0.1h52.5l0.2,0.1c6.3,1.5,13.0,1.7,19.4,2.0l0.6,0.0c24.5,1.0,47.1,6.0,67.0,15.1c17.1,7.8,30.9,19.1,41.0,33.7c2.3,3.3,2.5,6.7,2.3,9.7l0.0,11.8c0.2,2.9,0.0,5.8-0.2,8.6c-0.3,4.4-0.6,8.6,0.7,12.8l0.1,0.3l-0.0,14.9c-0.5,6.7-2.1,16.3-10.1,23.0c-7.8,6.5-17.3,12.1-30.0,17.4c-13.5,5.7-27.5,5.5-41.0,5.2c-3.0-0.1-6.2-0.1-9.2-0.1c-5.8,0.0-11.8,0.0-17.2,3.3C190.4,166.1,181.3,168.4,170.0,168.4zM132.3,164.2l32.1,0.0c13.2,0.8,23.3-1.2,31.9-6.4c6.3-3.8,13.2-3.8,19.3-3.9c3.1-0.0,6.3,0.0,9.3,0.1c13.7,0.3,26.6,0.5,39.3-4.9c12.3-5.2,21.5-10.5,29.0-16.8c5.3-4.4,7.9-10.6,8.7-20.2v-14.1c-1.4-4.7-1.0-9.4-0.7-13.9c0.2-2.8,0.4-5.5,0.2-8.1l-0.0-0.1v-12.0c0.1-2.8-0.1-5.1-1.6-7.3c-9.7-14.0-22.9-24.8-39.4-32.3c-19.7-9.0-41.2-13.8-65.5-14.7l-0.6-0.0c-6.5-0.3-13.3-0.5-19.9-2.0h-51.5c-3.2,0.7-6.4,0.9-9.5,1.0c-1.0,0.0-2.1,0.1-3.1,0.2c-2.3,0.1-4.6,0.1-6.8,0.1c-4.6-0.1-8.9-0.1-12.5,1.2c-28.5,10.3-52.7,23.1-73.8,39.2c-6.0,4.5-8.9,10.5-8.7,17.6c0.0,0.8,0.1,1.5,0.1,2.3c0.2,2.9,0.4,5.9-0.6,9.0v9.5c0.1,0.6,0.2,1.3,0.3,1.9c0.6,4.2,1.2,8.2,3.4,11.9c6.6,10.6,15.9,19.5,28.5,27.3c14.2,8.7,28.9,14.6,43.9,17.6c6.4,1.3,11.7,4.0,16.0,8.2c4.7,4.6,9.5,7.2,15.1,8.4c3.7,0.8,7.3,0.9,11.1,1.0C128.1,164.0,130.2,164.0,132.3,164.2z" fill-opacity="inherit"/>
			</g>
			<g opacity="0.1">
				<path fill="#333333" d="M303.4,78.1c-0.0-0.7-0.0-1.4-0.1-2.1c0.0-0.4,0.0-0.8,0.0-1.2c0.0-3.6,0.0-7.2,0.0-10.8c0.0-0.4,0.0-0.8,0.0-1.2c0.0-0.2,0.0-0.4,0.0-0.6c-0.1-2.3-0.5-4.6-2.0-6.7c-1.5-2.2-3.2-4.3-4.9-6.4l-7.7,34.5c-3.1,13.9-12.0,26.0-24.7,33.3l-16.7,9.6c-7.9,4.6-17.1,6.6-26.3,5.8l-26.0-2.3l-17.3,5.6c-5.4,1.7-11.2,2.4-16.9,1.9l-27.3-2.3c-12.3-1.1-24.0-5.5-33.8-12.8l-17.9-13.4l-23.7-5.5c-4.5-1.0-8.7-3.0-12.3-5.6l-17.1-12.5c-5.0-3.6-8.3-9.0-9.4-14.9l-3.9-22.5c-5.6,4.4-8.8,10.2-9.0,17.3c0.0,0.1-0.0,0.3,0.0,0.4c0.1,2.1,0.3,4.2,0.3,6.3c0.0,2.0-0.1,3.9-0.8,5.9c0.0,2.9,0.0,5.9,0.0,8.8c0.8,5.0,1.1,10.1,4.0,14.7c7.3,11.7,17.5,20.7,29.2,27.9c13.7,8.4,28.5,14.6,44.5,17.9c5.6,1.1,10.6,3.4,15.0,7.6c4.3,4.2,9.3,7.5,16.1,8.9c6.0,1.2,11.8,0.8,17.6,1.3c10.7,0.0,21.4,0.0,32.1,0.0c11.7,0.7,22.9-0.5,33.1-6.6c5.7-3.4,11.8-3.5,18.2-3.6c16.6-0.1,33.3,1.9,49.4-5.0c10.7-4.5,20.7-9.8,29.5-17.1c6.6-5.6,8.8-13.4,9.4-21.6c0.0-4.4,0.0-8.8,0.0-13.3c-0.8-2.8-1.0-5.6-1.0-8.4C302.9,85.7,303.4,81.9,303.4,78.1z" fill-opacity="1"/>
			</g>
			<g>
				<path fill="#333333" d="M82.3,92.8c0.0-0.4-0.1-1.9-0.2-4.7c-0.1-2.8-0.2-4.7-0.3-5.7c-1.5,0.0-3.7,0.1-6.4,0.3c-3.4,0.2-5.4,0.2-6.2,0.2c-0.1-0.5-0.4-1.2-1.0-2.1c-0.1-0.3-0.3-0.5-0.5-0.8c-0.2-0.3-0.3-0.5-0.3-0.6c0.6-2.8,1.6-5.6,2.9-8.3c1.3-2.8,2.9-5.5,4.7-8.3c0.9-1.4,1.9-2.9,3.2-4.4c0.6-0.8,1.2-1.5,1.8-2.1l0.9-1.0c0.0-0.0,0.2-0.2,0.4-0.5c0.2-0.3,0.4-0.4,0.6-0.5c3.1,0.0,5.4,0.0,6.9,0.1c-0.1,0.6-0.4,3.7-0.6,9.3c-0.2,3.2-0.2,6.1-0.2,8.7c0.0,1.3,0.0,2.4,0.1,3.3c1.9,0.0,3.3,0.0,4.2,0.1v1.3c0.0,0.8-0.0,1.4-0.0,1.9c-0.0,0.3-0.0,0.7-0.0,1.3l0.0,1.9c-0.8,0.0-2.0,0.1-3.7,0.1c0.1,0.9,0.2,3.3,0.5,7.3l0.2,2.8c-0.1,0.1-0.8,0.1-2.0,0.1l-3.5-0.0C82.7,92.7,82.3,92.7,82.3,92.8zM81.7,64.2c-0.9,1.4-2.0,3.2-3.2,5.3c-1.7,2.9-2.8,5.1-3.5,6.7c2.0-0.2,4.2-0.3,6.7-0.3V64.2z" fill-opacity="1"/>
				<path fill="#333333" d="M120.9,71.6c0.0,0.3,0.0,0.8,0.0,1.5c0.0,3.8-0.7,7.4-2.0,10.8c-2.5,5.9-6.3,8.9-11.4,8.9c-2.6,0.0-4.7-0.9-6.4-2.6s-2.8-3.9-3.6-6.5s-1.1-5.2-1.1-7.8c0.0-0.7,0.0-1.3,0.1-1.9c0.2-2.8,0.8-5.6,1.7-8.4c1.3-3.8,3.1-6.8,5.4-8.9c0.8-0.7,1.8-1.2,3.0-1.6s2.4-0.6,3.7-0.6c1.3,0.0,2.5,0.2,3.5,0.7c1.0,0.4,1.9,1.1,2.6,2.0c0.7,0.9,1.4,1.9,1.9,3.1c0.7,1.8,1.3,3.6,1.8,5.6C120.6,67.6,120.8,69.6,120.9,71.6zM112.3,83.3c0.8-1.4,1.4-3.1,1.8-4.9c0.4-1.8,0.6-3.7,0.6-5.6c0.0-1.8-0.2-3.5-0.5-5.2c-0.3-1.7-0.8-3.2-1.4-4.6c-0.8-1.8-2.0-2.7-3.4-2.7c-1.4,0.0-2.6,0.7-3.5,2.0c-0.9,1.3-1.6,2.5-2.0,3.7c-0.9,2.9-1.3,5.8-1.3,8.8c0.0,3.1,0.5,6.0,1.5,8.6c0.3,0.9,1.0,1.7,1.9,2.3c0.7,0.5,1.4,0.7,2.0,0.7c0.1,0.0,0.2-0.0,0.4-0.0C110.0,86.1,111.3,85.1,112.3,83.3z" fill-opacity="1"/>
				<path fill="#333333" d="M151.8,87.3c-0.1-1.3-0.2-3.5-0.2-6.5l-0.1-4.0c-2.7-0.0-5.7-0.2-9.0-0.4l-1.5-0.1c-0.0,0.0-0.0-0.1-0.0-0.3c0.0-0.2,0.0-0.9,0.1-2.1c0.0-0.3,0.0-0.7,0.1-1.2c0.0-0.6,0.0-1.0,0.0-1.2c0.0-0.3-0.0-0.5-0.1-0.5c2.4,0.0,4.2,0.0,5.2,0.0l5.2-0.0c0.0-2.8,0.2-6.2,0.3-10.4l0.0-0.5l1.0,0.1c0.9,0.1,1.5,0.2,1.6,0.2c0.9,0.1,1.7,0.1,2.2,0.1c0.1,0.0,0.2,0.0,0.4,0.0c0.2,0.0,0.4,0.0,0.4-0.0c-0.1,2.7-0.1,6.3-0.1,10.6c2.8,0.0,5.0-0.0,6.6-0.0c1.6-0.0,2.8-0.1,3.8-0.1l0.1,1.0c0.1,1.1,0.1,2.0,0.2,2.7c0.1,0.7,0.2,1.3,0.3,1.8c-2.2,0.2-5.9,0.3-10.9,0.5c0.0,4.6,0.1,8.0,0.2,10.1c-0.7,0.0-1.3,0.1-1.6,0.1C154.1,86.9,152.7,87.1,151.8,87.3z" fill-opacity="1"/>
				<path fill="#333333" d="M188.6,86.4l1.1-1.1l2.1-2.0c0.3-0.2,0.5-0.4,0.7-0.6c0.2-0.2,0.3-0.3,0.4-0.4c0.7,1.4,2.2,2.5,4.4,3.5c1.0,0.4,1.9,0.7,2.9,0.7c0.9,0.0,1.8-0.2,2.6-0.6c0.8-0.4,1.5-1.0,2.0-2.0c0.5-0.9,0.8-1.9,0.8-3.1c0.0-0.9-0.2-1.7-0.5-2.5c-0.3-0.7-0.8-1.3-1.4-1.8c-1.2-0.9-2.9-1.3-5.2-1.3l-1.3-0.0c-0.4,0.0-0.8,0.0-1.1,0.1l-0.0-6.2c1.2-0.0,2.4-0.2,3.5-0.7c1.1-0.4,2.1-1.0,3.0-1.8c0.9-0.8,1.4-1.7,1.4-2.9c0.0-0.3-0.0-0.5-0.1-0.8c-0.1-0.7-0.5-1.3-1.0-1.9c-0.5-0.5-1.1-0.9-1.8-1.2c-0.4-0.1-0.8-0.2-1.3-0.2c-0.8,0.0-1.7,0.2-2.6,0.6c-1.0,0.4-2.0,1.0-3.0,1.8c-0.8-1.6-1.7-3.0-2.9-4.2c1.6-1.4,3.6-2.4,6.1-3.0c0.9-0.3,1.8-0.4,2.9-0.4c0.9,0.0,1.9,0.1,3.0,0.3c2.1,0.5,3.8,1.5,5.0,3.1h0.0c1.2,1.7,1.8,3.5,1.8,5.3c0.0,0.8-0.1,1.5-0.3,2.1c-0.6,2.4-2.0,4.3-4.1,5.5c2.5,0.8,4.3,2.2,5.5,4.2c1.0,1.7,1.5,3.5,1.5,5.4c0.0,0.5-0.0,1.0-0.1,1.4c-0.3,2.8-1.3,5.1-3.0,7.0s-4.0,3.1-6.9,3.7c-0.8,0.2-1.6,0.2-2.4,0.2c-1.0,0.0-1.9-0.1-2.6-0.2c-0.8-0.2-1.7-0.5-2.9-0.9c-0.7-0.3-1.5-0.8-2.4-1.6c-0.9-0.8-1.7-1.6-2.5-2.4s-1.2-1.2-1.2-1.2S188.6,86.4,188.6,86.4z" fill-opacity="1"/>
				<path fill="#333333" d="M220.8,92.9c-0.5-1.0-1.1-2.0-1.8-3.1c-0.7-1.1-1.5-2.0-2.3-2.8c1.4-1.0,3.0-2.2,4.9-3.8c1.9-1.6,3.7-3.2,5.6-5.0c2.2-2.1,3.9-4.1,5.1-6.0c1.2-1.8,1.8-3.3,2.1-4.5c0.1-0.4,0.1-0.8,0.1-1.3c0.0-0.7-0.1-1.3-0.3-1.8c-0.3-0.9-0.8-1.7-1.4-2.3c-0.6-0.6-1.4-1.0-2.2-1.2c-0.3-0.1-0.6-0.1-1.0-0.1c-0.9,0.0-1.8,0.2-2.7,0.6c-0.8,0.4-1.7,1.0-2.4,1.7c-0.8,0.7-1.4,1.5-2.0,2.3c-0.1-0.2-0.6-0.7-1.5-1.5c-0.9-0.8-1.9-1.8-3.0-2.9c1.1-1.9,2.5-3.5,4.2-4.8c1.7-1.3,3.6-2.0,5.6-2.2c0.4-0.0,0.9-0.1,1.3-0.1c1.5,0.0,2.9,0.3,4.3,0.9c1.4,0.6,2.6,1.4,3.7,2.4c2.0,1.9,3.2,4.3,3.5,7.0c0.0,0.2,0.0,0.6,0.0,1.1c0.0,2.6-0.9,5.5-2.6,8.6c-1.9,3.4-4.9,7.1-9.0,11.0c1.1-0.2,2.3-0.3,3.6-0.3c1.1,0.0,2.2,0.1,3.3,0.2c2.9,0.4,5.1,0.9,6.5,1.8c-0.5,0.9-1.0,2.4-1.7,4.3c-0.1,0.3-0.2,0.6-0.3,0.9c-0.1,0.3-0.1,0.5-0.2,0.6c-0.0-0.0-0.2-0.0-0.3-0.1c-0.2-0.0-0.3-0.1-0.5-0.1c-1.8-0.4-3.5-0.7-5.1-0.9c-1.6-0.2-3.2-0.3-4.8-0.3c-1.5,0.0-2.8,0.1-4.1,0.3c-1.1,0.2-2.1,0.4-3.1,0.8c-0.2,0.1-0.4,0.2-0.7,0.3S221.0,92.8,220.8,92.9z" fill-opacity="1"/>
			</g>
			<g>
				<circle fill="#00FFFF" cx="226.7" cy="100.1" r="10" opacity="0" fill-opacity="1"/>
			</g>
		</g>
	</svg>
	<svg id="disabledWhite" x="308" y="0">
		<use xlink:href="#defaultContent" style="color:#FFFFFF; fill-opacity: 0"/>
	</svg>
	<svg id="activeColored_ECB1C7" x="616" y="0">
		<use xlink:href="#defaultContent" style="color:#ECB1C7;"/>
	</svg>
	<svg id="disabledColored_ECB1C7" x="924" y="0">
		<use xlink:href="#defaultContent" style="color:#ECB1C7; fill-opacity: 0"/>
	</svg>
</svg>
