<?xml version='1.0' encoding='UTF-8'?>
<svg xmlns="http://www.w3.org/2000/svg" xmlns:xlink="http://www.w3.org/1999/xlink" width="68" height="56"><g id="fiftySeven">
		<g>
			<g>
				<path fill="#333333" d="M12.3,45.6c-2.3,0.0-4.5-0.4-6.6-1.3c-2.1-0.9-4.0-2.2-5.6-3.8c1.4-2.2,2.4-4.6,3.2-7.1c1.8,1.8,3.6,3.0,5.6,3.6c1.0,0.3,2.0,0.5,3.0,0.5c1.3,0.0,2.5-0.3,3.6-0.8c1.1-0.5,1.9-1.3,2.6-2.3c0.7-1.0,1.0-2.1,1.0-3.2c0.0-1.0-0.3-1.9-0.8-2.8c-0.5-0.9-1.2-1.7-2.1-2.3c-0.8-0.6-1.8-1.1-2.8-1.4c-0.8-0.2-1.6-0.3-2.6-0.3c-2.0,0.0-4.2,0.5-6.6,1.6c0.3-3.7,0.4-7.5,0.4-11.5c0.0-4.5-0.2-8.9-0.5-13.1c0.0,0.2,1.7,0.2,5.0,0.2h2.4c3.0,0.0,6.1-0.1,9.1-0.4c0.8-0.1,2.0-0.2,3.7-0.3c1.7-0.1,2.5-0.2,2.5-0.3c0.3,3.1,0.5,5.5,0.6,7.0l-15.5,1.1l0.2,8.3c0.7-0.1,1.4-0.2,2.2-0.2c2.2,0.0,4.3,0.5,6.3,1.6c2.0,1.1,3.6,2.5,4.8,4.3c0.8,1.1,1.3,2.4,1.7,3.7c0.4,1.4,0.6,2.7,0.6,4.1c0.0,2.4-0.5,4.7-1.6,6.7c-1.2,2.2-2.9,4.1-5.1,5.6c-2.2,1.5-4.6,2.4-7.1,2.6C13.5,45.6,12.9,45.6,12.3,45.6z"/>
			</g>
			<g>
				<path fill="#333333" d="M44.4,9.0c-4.6-0.2-8.7-0.8-12.1-1.8c0.7-2.8,1.2-5.0,1.5-6.6h0.1c4.3,1.3,8.9,1.9,13.6,1.9c4.6,0.0,9.3-0.6,14.1-1.8c0.1,0.2,0.5,1.2,1.3,2.8c0.8,1.8,1.3,2.7,1.4,2.8c-8.8,10.0-13.2,22.5-13.2,37.5c0.0,0.1,0.0,0.2,0.0,0.3l-0.1,0.3l-7.0,0.1c-0.2-1.7-0.3-3.4-0.3-5.2c0.0-4.9,0.8-9.8,2.3-14.7c2.1-6.5,4.8-11.8,8.2-15.8c-1.2,0.3-3.1,0.5-5.6,0.5C47.1,9.2,45.8,9.1,44.4,9.0z"/>
			</g>
		</g>
		<g>
			<g>
				<circle fill="#00FFFF" cx="31.1" cy="48.5" r="5.4" opacity="0"/>
			</g>
		</g>
	</g>
</svg>
