<?xml version='1.0' encoding='UTF-8'?>
<svg xmlns="http://www.w3.org/2000/svg" xmlns:xlink="http://www.w3.org/1999/xlink" width="166" height="208"><g id="fiveHouse">
		<g>
			<g opacity="0.2">
				<g>
					<path d="M117.8,204.2c7.8-0.5,15.6-0.3,23.5-0.3c3.8,0.0,7.7-0.0,11.5-0.2c2.8-0.1,5.8-0.0,7.6-1.6c1.6-1.5,2.0-3.5,2.1-5.2c0.3-2.5-0.1-5.1-0.2-7.6c-0.2-4.9-0.2-9.7-0.4-14.6c-0.3-5.1-0.5-10.1-0.5-15.2c-0.0-4.9,1.1-9.9,1.4-14.9c0.5-10.1-0.2-20.3-0.9-30.4c-0.7-10.0,0.0-20.1-0.3-30.1c-0.2-5.2-0.3-10.3-0.4-15.5c-0.1-5.1,0.9-10.2,1.3-15.3c0.4-5.2,0.7-10.4,0.6-15.6c-0.0-2.6-0.1-5.1-0.3-7.7c-0.2-2.5-0.7-5.1-0.8-7.6c-0.0-3.7,0.6-7.5,0.2-11.2c-0.2-1.4-1.4-2.8-3.2-3.7c-2.6-1.2-7.1-0.9-10.2-0.9c-8.1-0.0-16.2-0.0-24.3-0.1c-8.1-0.0-16.1,0.3-24.1,0.6c-8.2,0.3-16.4,0.0-24.5,0.2c-8.0,0.2-16.0,0.4-24.1,0.3c-8.1-0.1-16.3-0.3-24.4-0.3c-4.8-0.0-12.4-0.6-15.7,2.3c-0.7,0.6-0.7,1.3-1.1,2.0c-0.6,1.1-1.5,2.2-1.9,3.4c-0.8,2.3-0.6,4.8-0.3,7.1c0.6,4.9,1.1,9.9,1.3,14.9c0.2,5.0-0.7,9.9-0.7,14.9c0.0,2.4-0.7,4.7-0.9,7.0c-0.2,2.6-0.3,5.2-0.4,7.7c-0.2,5.1-0.2,10.2-0.0,15.3c0.2,5.0,0.8,10.0,0.7,15.0c-0.1,10.2-1.6,20.4-0.9,30.7c0.7,10.1,2.2,20.3,1.9,30.4c-0.2,4.9-1.3,9.8-1.3,14.7c-0.0,4.6-0.3,9.3-0.5,13.9c-0.1,2.4-0.1,4.8-0.3,7.1c-0.3,2.7-0.9,7.3,3.5,8.9c4.2,1.5,10.8,0.9,15.4,0.7c7.8-0.3,15.7-0.3,23.5-0.2c15.4,0.2,30.9,0.3,46.3,0.8C103.2,204.4,110.5,204.3,117.8,204.2C130.5,203.4,116.0,204.2,117.8,204.2z"/>
				</g>
			</g>
			<path fill="#F7E3C6" d="M110.8,197.2c7.8-0.5,15.6-0.3,23.5-0.3c3.8,0.0,7.7-0.0,11.5-0.2c2.8-0.1,5.8-0.0,7.6-1.6c1.6-1.5,2.0-3.5,2.1-5.2c0.3-2.5-0.1-5.1-0.2-7.6c-0.2-4.9-0.2-9.7-0.4-14.6c-0.3-5.1-0.5-10.1-0.5-15.2c-0.0-4.9,1.1-9.9,1.4-14.9c0.5-10.1-0.2-20.3-0.9-30.4c-0.7-10.0,0.0-20.1-0.3-30.1c-0.2-5.2-0.3-10.3-0.4-15.5c-0.1-5.1,0.9-10.2,1.3-15.3c0.4-5.2,0.7-10.4,0.6-15.6c-0.0-2.6-0.1-5.1-0.3-7.7c-0.2-2.5-0.7-5.1-0.8-7.6c-0.0-3.7,0.6-7.5,0.2-11.2c-0.2-1.4-1.4-2.8-3.2-3.7c-2.6-1.2-7.1-0.9-10.2-0.9c-8.1-0.0-16.2-0.0-24.3-0.1c-8.1-0.0-16.1,0.3-24.1,0.6c-8.2,0.3-16.4,0.0-24.5,0.2c-8.0,0.2-16.0,0.4-24.1,0.3c-8.1-0.1-16.3-0.3-24.4-0.3c-4.8-0.0-12.4-0.6-15.7,2.3c-0.7,0.6-0.7,1.3-1.1,2.0c-0.6,1.1-1.5,2.2-1.9,3.4c-0.8,2.3-0.6,4.8-0.3,7.1c0.6,4.9,1.1,9.9,1.3,14.9c0.2,5.0-0.7,9.9-0.7,14.9c0.0,2.4-0.7,4.7-0.9,7.0c-0.2,2.6-0.3,5.2-0.4,7.7c-0.2,5.1-0.2,10.2-0.0,15.3c0.2,5.0,0.8,10.0,0.7,15.0c-0.1,10.2-1.6,20.4-0.9,30.7c0.7,10.1,2.2,20.3,1.9,30.4c-0.2,4.9-1.3,9.8-1.3,14.7c-0.0,4.6-0.3,9.3-0.5,13.9c-0.1,2.4-0.1,4.8-0.3,7.1c-0.3,2.7-0.9,7.3,3.5,8.9c4.2,1.5,10.8,0.9,15.4,0.7c7.8-0.3,15.7-0.3,23.5-0.2c15.4,0.2,30.9,0.3,46.3,0.8C96.2,197.4,103.5,197.3,110.8,197.2C123.5,196.4,109.0,197.2,110.8,197.2z"/>
			<path fill="#9B816F" d="M133.9,160.0c0.0-1.4-0.0-2.8-0.1-4.2l-0.0-2.0c-0.1-3.8-0.2-7.7-0.4-11.5c-0.2-4.9-0.4-10.0-0.4-15.1c0.0-2.9,0.1-5.6,0.2-8.1c0.2-4.5,0.3-8.6,0.3-12.6c0.0-1.5-0.0-3.1-0.1-4.5c-0.0-0.6-0.0-1.1-0.0-1.7c0.0-1.9,0.1-3.8,0.1-5.6c0.1-1.8,0.1-3.7,0.1-5.7c0.0-1.5-0.0-2.9-0.1-4.1c-0.0-0.6-0.1-1.3-0.1-1.9l-0.0-0.4c-0.1-2.0-0.3-4.1-0.3-6.3l-0.0-0.1c0.0-0.5,0.0-1.0,0.1-1.5c0.1-0.6,0.1-1.3,0.1-2.0c0.0-1.8-0.5-3.1-1.4-4.1c-0.3-0.3-0.8-0.6-1.3-0.8c-2.9-3.6-6.3-7.3-10.8-11.4l-3.2-3.0c-6.0-5.6-12.1-11.4-18.6-16.7c-1.9-1.5-3.4-3.4-5.1-5.4c-1.5-1.8-3.1-3.7-4.9-5.3c-3.5-3.1-6.4-6.3-9.1-10.2c-0.3-0.5-0.8-0.8-1.3-0.8c-0.5-0.1-1.1,0.1-1.5,0.4c-3.9,3.0-7.8,6.7-12.3,11.4l-3.0,3.2c-5.6,6.0-11.4,12.1-16.7,18.6c-1.5,1.9-3.4,3.4-5.4,5.1c-1.8,1.5-3.7,3.1-5.3,4.9c-1.6,1.8-3.3,3.3-5.0,4.8c-1.3,1.1-2.5,2.3-3.8,3.5c-0.1,0.0-0.2,0.1-0.4,0.1c-0.3,0.1-0.5,0.2-0.6,0.3c-0.3,0.2-0.6,0.5-0.7,0.8c-0.2,0.3-0.3,0.7-0.3,1.2c0.0,0.2,0.0,0.5,0.1,0.7c0.0,0.4,0.1,0.8,0.1,1.3c0.0,0.4-0.0,0.9-0.0,1.3c-0.0,0.4-0.0,0.8-0.0,1.2l-0.0,4.9c-0.0,4.1-0.1,8.2-0.1,12.3c-0.0,3.7-0.2,7.4-0.3,11.0l-0.0,0.1c-0.2,4.7-0.3,9.6-0.3,14.4c0.0,3.5,0.1,6.6,0.3,9.6c0.1,2.3,0.3,4.6,0.4,6.9l0.0,0.1c0.4,6.3,0.8,12.8,0.8,19.1c0.0,3.0-0.1,5.7-0.3,8.4c-0.1,0.8-0.1,1.6-0.2,2.5c-0.2,2.0-0.3,4.0-0.4,6.1c-0.0,0.5-0.0,1.0-0.0,1.5c-0.0,0.8-0.0,1.6-0.1,2.4c-0.0,0.4-0.1,0.9-0.2,1.3c-0.1,0.6-0.2,1.2-0.2,1.9c0.0,0.5,0.1,1.0,0.2,1.4c0.6,2.0,2.7,3.1,7.1,3.5c4.5,0.4,9.3,0.5,13.9,0.5l2.2,0.0c7.1,0.1,14.4,0.0,21.5-0.0l0.6-0.1c4.0-0.0,8.2-0.2,12.2-0.2h0.4c4.8,0.0,9.7,0.2,14.6,0.3c6.2,0.1,12.6,0.3,18.9,0.2c1.5-0.0,3.1,0.0,4.6,0.1c1.2,0.0,2.4,0.0,3.5,0.0c3.0,0.0,5.2-0.1,7.1-0.3l0.1-0.0c0.1-0.0,0.2-0.0,0.4-0.1c0.0-0.0,1.2-0.4,1.9-1.0c0.7-0.7,1.2-1.7,1.2-3.0c0.1-0.7,0.1-1.5,0.1-2.0l-0.0-1.2c0.0-1.0,0.0-2.1,0.2-3.3C133.8,166.8,133.9,163.0,133.9,160.0z"/>
		</g>
		<g>
			<path fill="#F7E3C6" d="M26.2,122.2c-0.1-1.9-0.1-3.8-0.1-6.0c0.0-4.8,0.2-9.6,0.3-14.3l0.0-0.1c0.1-3.6,0.2-7.4,0.3-11.1c0.1-4.1,0.1-8.2,0.1-12.3l0.0-4.9c0.0-0.4,0.0-0.7,0.0-1.1c0.0-0.5,0.0-1.0,0.0-1.5c0.0-0.3-0.0-0.5-0.0-0.8c1.1-0.2,2.7-0.3,4.8-0.3c1.1,0.0,2.3,0.0,3.3,0.0c1.0,0.0,2.0,0.0,2.9,0.0h0.3c2.4,0.0,4.8-0.0,7.2-0.0l0.8-0.0c4.0-0.0,8.1-0.1,12.2-0.1c4.9,0.0,9.2,0.1,13.1,0.2c1.5,0.0,3.0,0.1,4.5,0.1c-0.6,4.9-0.3,9.9-0.0,14.6c0.1,1.8,0.2,3.7,0.3,5.6c0.1,3.3-0.2,6.7-0.4,9.9c-0.3,3.8-0.6,7.7-0.4,11.7c0.2,3.1,0.3,6.2,0.4,9.3c-3.4,0.2-6.8,0.5-10.2,0.8c-3.5,0.4-7.0,0.0-10.6-0.3c-3.3-0.3-6.7-0.6-10.1-0.4c-1.8,0.1-3.7,0.3-5.5,0.5C35.0,122.4,30.6,122.8,26.2,122.2z"/>
			<g>
				<path fill="#8E7565" d="M61.2,109.4c-0.0,0.3-0.0,0.8-0.0,1.4c0.0,0.5,0.0,0.8,0.0,1.0c-1.8-0.0-3.1-0.0-3.9-0.0c-4.5,0.0-7.8,0.1-9.9,0.4c-0.1-1.5-0.3-2.9-0.5-4.4c1.2-0.2,2.7-0.4,4.4-0.5c-0.1-1.6-0.2-3.6-0.2-6.0c0.0-2.9,0.1-6.4,0.3-10.3c-0.5,0.8-1.1,1.5-1.8,2.1c-0.7,0.6-1.5,1.1-2.4,1.6c-0.8-1.4-1.7-2.6-2.6-3.6c1.6-0.9,3.1-2.2,4.5-3.8c1.0-1.1,1.8-2.2,2.4-3.0c0.6-0.9,1.1-1.7,1.4-2.5c0.2,0.2,0.6,0.3,1.1,0.5c0.5,0.2,1.3,0.4,2.3,0.7l1.7,0.5c-0.9,3.5-1.4,8.3-1.5,14.5v1.6c0.0,3.2,0.1,5.8,0.3,7.8c1.5,0.0,3.0,0.1,4.3,0.1v0.2C61.3,107.7,61.3,108.3,61.2,109.4z"/>
			</g>
		</g>
		<g>
			<path fill="#F7E3C6" d="M67.8,177.4l-0.6,0.0c-7.0,0.0-14.3,0.1-21.4,0.0l-2.2-0.0c-4.5-0.0-9.2-0.1-13.6-0.5c-2.4-0.2-3.3-0.6-3.6-0.8c-0.0-0.0-0.0-0.1-0.0-0.2c0.0-0.3,0.1-0.8,0.1-1.3c0.1-0.5,0.2-1.1,0.2-1.7c0.1-0.9,0.1-1.8,0.1-2.7c0.0-0.5,0.0-0.9,0.0-1.4c0.0-1.9,0.2-3.9,0.4-5.9c0.1-0.8,0.1-1.6,0.2-2.5c0.2-2.8,0.3-5.6,0.3-8.7c0.0-6.5-0.4-13.1-0.9-19.4l-0.0-0.1c-0.1-2.1-0.3-4.1-0.4-6.2c1.5,0.2,3.0,0.2,4.5,0.2c3.1,0.0,6.1-0.3,9.1-0.6c1.8-0.2,3.6-0.3,5.4-0.5c3.1-0.2,6.2,0.1,9.5,0.4c3.7,0.3,7.5,0.7,11.4,0.3c3.3-0.3,6.6-0.6,9.9-0.8c0.2,7.7,0.3,15.4,0.4,22.9c0.0,2.2,0.0,4.3,0.1,6.5c0.1,8.8-0.2,16.0-0.8,22.6C73.0,177.3,70.4,177.4,67.8,177.4z"/>
			<g>
				<path fill="#8E7565" d="M46.0,165.0c-0.4-0.8-0.8-1.6-1.4-2.5c-0.6-0.9-1.2-1.6-1.8-2.2c1.1-0.8,2.4-1.8,3.9-3.0c1.5-1.2,3.0-2.6,4.4-4.0c1.8-1.7,3.1-3.3,4.1-4.8c0.9-1.4,1.5-2.6,1.6-3.6c0.1-0.3,0.1-0.6,0.1-1.0c0.0-0.5-0.1-1.0-0.2-1.4c-0.3-0.7-0.6-1.3-1.1-1.8c-0.5-0.5-1.1-0.8-1.8-1.0c-0.2-0.1-0.5-0.1-0.8-0.1c-0.7,0.0-1.4,0.2-2.1,0.5c-0.7,0.3-1.3,0.8-1.9,1.3c-0.6,0.6-1.1,1.2-1.6,1.9c-0.1-0.1-0.5-0.5-1.2-1.2c-0.7-0.6-1.5-1.4-2.4-2.3c0.9-1.5,2.0-2.8,3.3-3.8c1.3-1.0,2.8-1.6,4.4-1.8c0.3-0.0,0.7-0.1,1.0-0.1c1.2,0.0,2.3,0.2,3.4,0.7c1.1,0.5,2.1,1.1,2.9,1.9c1.6,1.5,2.5,3.4,2.8,5.6c0.0,0.2,0.0,0.5,0.0,0.9c0.0,2.1-0.7,4.3-2.1,6.8c-1.5,2.7-3.9,5.6-7.1,8.7c0.8-0.2,1.8-0.2,2.9-0.2c0.8,0.0,1.7,0.1,2.6,0.2c2.3,0.3,4.0,0.7,5.2,1.4c-0.4,0.7-0.8,1.9-1.4,3.4c-0.1,0.3-0.2,0.5-0.3,0.7c-0.1,0.2-0.1,0.4-0.1,0.4c-0.0-0.0-0.1-0.0-0.3-0.1c-0.1-0.0-0.3-0.1-0.4-0.1c-1.4-0.3-2.8-0.6-4.0-0.7c-1.3-0.2-2.5-0.3-3.8-0.3c-1.2,0.0-2.2,0.1-3.3,0.3c-0.9,0.1-1.7,0.3-2.4,0.6c-0.1,0.1-0.3,0.1-0.5,0.2C46.3,164.8,46.2,164.9,46.0,165.0z"/>
			</g>
		</g>
		<g>
			<path fill="#F7E3C6" d="M129.1,170.0c-0.3,1.5-0.3,2.9-0.3,4.0l0.0,1.2c0.0,0.5-0.0,1.1-0.1,1.7c-0.0,0.2-0.0,0.3-0.1,0.4c-0.1,0.0-0.1,0.1-0.2,0.1c-1.7,0.2-3.7,0.3-6.5,0.3c-1.2,0.0-2.3-0.0-3.5-0.0c-1.2-0.0-2.3-0.0-3.5-0.0c-0.4,0.0-0.8,0.0-1.2,0.0c-6.2,0.1-12.6-0.2-18.9-0.2c-4.8-0.1-9.7-0.3-14.6-0.3h-0.4c-0.1,0.0-0.3,0.0-0.4,0.0c0.6-6.0,0.9-13.8,0.8-22.5c-0.0-2.2-0.0-4.3-0.1-6.4c-0.1-7.6-0.1-15.3-0.3-23.1c7.0-0.4,14.1-0.6,21.0-0.8c2.1-0.1,4.2-0.1,6.3-0.2c8.5-0.3,15.4-0.1,21.8,0.7c-0.0,0.8-0.0,1.6-0.0,2.5c0.0,5.1,0.2,10.2,0.4,15.2c0.1,3.7,0.3,7.6,0.4,11.4l0.0,2.0c0.0,1.4,0.1,2.8,0.1,4.2C129.9,162.8,129.8,166.4,129.1,170.0z"/>
			<g>
				<path fill="#8E7565" d="M95.9,160.7l0.9-0.9l1.7-1.6c0.2-0.2,0.4-0.4,0.5-0.5c0.2-0.1,0.3-0.2,0.3-0.3c0.6,1.1,1.7,2.0,3.5,2.8c0.8,0.3,1.5,0.5,2.3,0.5c0.7,0.0,1.4-0.2,2.1-0.5c0.7-0.3,1.2-0.8,1.6-1.6c0.4-0.7,0.6-1.5,0.6-2.4c0.0-0.7-0.1-1.4-0.4-2.0c-0.3-0.6-0.6-1.1-1.1-1.4c-1.0-0.7-2.3-1.0-4.1-1.0l-1.0-0.0c-0.3,0.0-0.6,0.0-0.8,0.1l-0.0-4.9c1.0-0.0,1.9-0.2,2.8-0.5c0.9-0.3,1.6-0.8,2.3-1.4c0.7-0.6,1.1-1.4,1.1-2.3c0.0-0.2-0.0-0.4-0.1-0.6c-0.1-0.6-0.4-1.1-0.8-1.5c-0.4-0.4-0.9-0.7-1.4-0.9c-0.3-0.1-0.7-0.2-1.0-0.2c-0.6,0.0-1.3,0.2-2.1,0.5c-0.8,0.3-1.5,0.8-2.4,1.4c-0.6-1.2-1.4-2.4-2.3-3.4c1.3-1.1,2.9-1.9,4.8-2.4c0.7-0.2,1.5-0.3,2.3-0.3c0.7,0.0,1.5,0.1,2.3,0.3c1.7,0.4,3.0,1.2,3.9,2.4h0.0c0.9,1.3,1.4,2.7,1.4,4.2c0.0,0.6-0.1,1.2-0.2,1.7c-0.5,1.9-1.6,3.4-3.2,4.4c2.0,0.7,3.4,1.8,4.4,3.4c0.8,1.3,1.2,2.7,1.2,4.2c0.0,0.4-0.0,0.8-0.1,1.1c-0.3,2.2-1.1,4.1-2.4,5.6c-1.3,1.5-3.1,2.5-5.5,2.9c-0.6,0.1-1.2,0.2-1.9,0.2c-0.8,0.0-1.5-0.1-2.1-0.2c-0.6-0.1-1.4-0.4-2.3-0.7c-0.6-0.2-1.2-0.7-1.9-1.3c-0.7-0.6-1.4-1.2-2.0-1.9c-0.6-0.6-0.9-1.0-0.9-1.0S95.9,160.7,95.9,160.7z"/>
			</g>
		</g>
		<g>
			<path fill="#F7E3C6" d="M79.5,111.8c-0.2-3.7,0.1-7.3,0.4-11.1c0.3-3.4,0.5-6.8,0.4-10.3c-0.1-1.9-0.2-3.8-0.3-5.7c-0.3-4.9-0.5-9.6,0.1-14.3c6.9,0.1,13.8,0.2,20.5,0.2l4.9,0.0c2.8,0.0,5.6,0.0,8.3,0.0l0.7,0.0c2.2,0.0,4.4,0.0,6.5,0.0c4.0,0.0,6.1,0.2,7.1,0.4c0.3,0.3,0.7,0.5,1.0,0.6c0.0,0.2,0.1,0.5,0.1,0.9c0.0,0.5-0.1,1.1-0.1,1.6c-0.1,0.6-0.1,1.2-0.1,1.9l0.0,0.3c0.1,2.1,0.2,4.3,0.3,6.4l0.0,0.4c0.0,0.6,0.1,1.3,0.1,1.9c0.1,1.2,0.1,2.4,0.1,3.9c0.0,1.9-0.1,3.8-0.1,5.5c-0.1,1.9-0.1,3.8-0.1,5.7c0.0,0.6,0.0,1.2,0.0,1.8c0.0,1.5,0.0,3.0,0.0,4.5c0.0,4.0-0.1,8.0-0.3,12.4c-0.0,0.6-0.1,1.2-0.1,1.8c-6.5-0.7-13.5-0.9-22.1-0.7c-2.1,0.1-4.2,0.1-6.3,0.2c-6.9,0.2-13.9,0.4-21.0,0.8C79.8,118.0,79.7,114.9,79.5,111.8z"/>
			<g>
				<path fill="#8E7565" d="M106.8,112.4c0.0-0.3-0.1-1.5-0.2-3.7c-0.1-2.2-0.2-3.7-0.2-4.5c-1.2,0.0-2.9,0.1-5.1,0.2c-2.7,0.1-4.3,0.2-4.9,0.2c-0.1-0.4-0.4-0.9-0.8-1.6c-0.1-0.2-0.2-0.4-0.4-0.6c-0.1-0.2-0.2-0.4-0.3-0.4c0.5-2.2,1.2-4.4,2.3-6.6c1.0-2.2,2.3-4.4,3.7-6.5c0.7-1.1,1.5-2.3,2.5-3.5c0.5-0.6,1.0-1.2,1.4-1.7l0.7-0.8c0.0-0.0,0.1-0.2,0.3-0.4c0.2-0.2,0.3-0.3,0.5-0.4c2.5,0.0,4.3,0.0,5.4,0.1c-0.1,0.5-0.3,2.9-0.5,7.4c-0.1,2.6-0.2,4.8-0.2,6.9c0.0,1.0,0.0,1.9,0.1,2.6c1.5,0.0,2.6,0.0,3.3,0.1v1.1c0.0,0.6-0.0,1.1-0.0,1.5c-0.0,0.2-0.0,0.6-0.0,1.0l0.0,1.5c-0.6,0.0-1.6,0.1-3.0,0.1c0.1,0.7,0.2,2.6,0.4,5.8l0.1,2.2c-0.1,0.1-0.6,0.1-1.6,0.1l-2.8-0.0C107.1,112.4,106.8,112.4,106.8,112.4zM106.3,89.8c-0.7,1.1-1.5,2.5-2.5,4.2c-1.3,2.3-2.2,4.0-2.8,5.3c1.6-0.2,3.4-0.3,5.3-0.3V89.8z"/>
			</g>
		</g>
		<g>
			<path fill="#F7E3C6" d="M36.5,61.1c1.4-1.6,3.1-3.0,4.9-4.5c2.0-1.7,4.1-3.5,5.9-5.6c5.2-6.4,10.9-12.5,16.5-18.4l3.0-3.3c3.7-3.9,7.0-7.1,10.2-9.7c2.5,3.4,5.2,6.3,8.5,9.2c1.6,1.4,3.0,3.1,4.5,4.9c1.7,2.0,3.5,4.2,5.6,5.9c6.4,5.2,12.5,10.9,18.4,16.5l3.2,3.0c2.9,2.7,5.3,5.1,7.4,7.5c-1.1-0.0-2.2-0.1-3.5-0.1c-2.2-0.0-4.4-0.0-6.6-0.0l-0.7-0.0c-2.8-0.0-5.5-0.0-8.3-0.0l-4.9-0.0c-9.5-0.1-19.3-0.1-29.0-0.4c-3.9-0.1-8.2-0.2-13.2-0.2c-4.1,0.0-8.2,0.0-12.3,0.1l-0.7-0.0c-2.4,0.0-4.8,0.0-7.2,0.0h-0.2c-0.9,0.0-1.8-0.0-2.8-0.0c-1.1-0.0-2.2-0.0-3.4-0.0c-0.1,0.0-0.2,0.0-0.3,0.0C33.1,64.5,34.8,63.0,36.5,61.1z"/>
			<g>
				<path fill="#8E7565" d="M74.7,62.3c-1.5,0.0-2.9-0.3-4.4-0.9c-1.4-0.6-2.6-1.4-3.7-2.5c0.9-1.4,1.6-3.0,2.1-4.7c1.2,1.2,2.4,2.0,3.7,2.4c0.7,0.2,1.3,0.3,2.0,0.3c0.9,0.0,1.7-0.2,2.4-0.5c0.7-0.3,1.3-0.9,1.7-1.5c0.5-0.7,0.7-1.4,0.7-2.1c0.0-0.6-0.2-1.3-0.5-1.9c-0.3-0.6-0.8-1.1-1.4-1.5c-0.6-0.4-1.2-0.7-1.8-0.9c-0.5-0.1-1.1-0.2-1.7-0.2c-1.3,0.0-2.8,0.3-4.4,1.0c0.2-2.4,0.3-5.0,0.3-7.6c0.0-3.0-0.1-5.9-0.3-8.6c0.0,0.1,1.1,0.2,3.3,0.2h1.6c2.0,0.0,4.0-0.1,6.0-0.2c0.5-0.0,1.3-0.1,2.4-0.2c1.1-0.1,1.6-0.2,1.6-0.2c0.2,2.1,0.3,3.6,0.4,4.6l-10.2,0.7l0.2,5.4c0.5-0.1,0.9-0.1,1.4-0.1c1.4,0.0,2.8,0.4,4.1,1.1c1.3,0.7,2.4,1.6,3.2,2.8c0.5,0.7,0.9,1.6,1.1,2.5c0.3,0.9,0.4,1.8,0.4,2.7c0.0,1.6-0.3,3.1-1.0,4.4c-0.8,1.5-1.9,2.7-3.3,3.7c-1.5,1.0-3.0,1.6-4.7,1.7C75.5,62.3,75.1,62.3,74.7,62.3z"/>
			</g>
		</g>
	</g>
</svg>
