<?xml version='1.0' encoding='UTF-8'?>
<svg xmlns="http://www.w3.org/2000/svg" xmlns:xlink="http://www.w3.org/1999/xlink" width="40" height="60"><g id="four" display="none">
		<g display="inline">
			<path fill="#FFFFFF" d="M21.9,56.8c0.0-0.5-0.1-2.9-0.3-7.1c-0.2-4.2-0.3-7.0-0.4-8.6c-2.3,0.0-5.5,0.2-9.7,0.4c-5.1,0.2-8.1,0.4-9.2,0.4c-0.2-0.7-0.7-1.7-1.4-3.1c-0.2-0.4-0.5-0.8-0.7-1.2c-0.2-0.4-0.4-0.7-0.5-0.8c0.9-4.2,2.4-8.4,4.3-12.5c1.9-4.1,4.3-8.3,7.0-12.4c1.3-2.1,2.9-4.3,4.8-6.6c0.9-1.2,1.8-2.2,2.6-3.1l1.4-1.5c0.1-0.1,0.3-0.3,0.6-0.7c0.3-0.4,0.6-0.6,0.9-0.7c4.7,0.0,8.1,0.1,10.3,0.2c-0.2,0.9-0.5,5.6-0.9,14.0c-0.3,4.9-0.4,9.2-0.4,13.0c0.0,1.9,0.0,3.6,0.1,5.0c2.9,0.0,4.9,0.1,6.3,0.2l0.0,2.0c0.0,1.2,0.0,2.1,0.0,2.8c0.0,0.4,0.0,1.1,0.0,1.9l0.0,2.9c-1.2,0.1-3.1,0.1-5.6,0.1c0.1,1.3,0.3,5.0,0.7,11.0l0.3,4.2c-0.2,0.1-1.2,0.1-3.0,0.1l-5.3,0.0C22.5,56.8,21.9,56.8,21.9,56.8zM21.1,14.0c-1.3,2.1-2.9,4.8-4.8,7.9c-2.5,4.3-4.3,7.7-5.2,10.1c3.0-0.3,6.4-0.5,10.0-0.5L21.1,14.0z"/>
		</g>
	</g>
</svg>
