<?xml version='1.0' encoding='UTF-8'?>
<svg xmlns="http://www.w3.org/2000/svg" xmlns:xlink="http://www.w3.org/1999/xlink" width="54" height="34"><g id="graphAnts5">
		<g>
			<path fill="#7F3D4B" d="M8.3,14.4c0.9-0.4,1.8-0.7,2.7-0.8c2.8-0.5,6.0-0.0,8.7,1.0c3.2,1.3,7.4,6.2,4.8,9.7c-2.9,4.0-8.1,4.6-12.6,3.9c-2.4-0.4-4.8-1.3-6.7-2.7c-1.3-0.9-3.6-2.5-3.8-4.3c-0.2-1.6,1.8-3.4,2.8-4.3C5.4,15.9,6.8,15.0,8.3,14.4z"/>
		</g>
		<g>
			<path fill="#7F3D4B" d="M14.9,22.0c-0.4-0.6-1.3-0.3-1.2,0.4c0.2,1.6,0.4,3.2,0.0,4.7c-0.3,1.5-1.5,2.5-1.9,3.9c-0.2,0.6,0.3,1.4,1.0,1.2C16.8,31.0,16.7,24.8,14.9,22.0z"/>
		</g>
		<g>
			<path fill="#7F3D4B" d="M15.8,21.4c-0.6-0.3-1.2,0.2-0.9,0.8c0.6,1.7,1.8,3.1,2.5,4.7c0.8,1.8,0.2,3.8,0.9,5.6c0.2,0.5,1.0,0.7,1.3,0.3C22.3,29.9,18.7,23.1,15.8,21.4z"/>
		</g>
		<g>
			<path fill="#964B5B" d="M25.0,23.3c-0.7-1.5-1.4-2.9-2.1-4.3c-0.7-1.4-1.4-2.7-2.2-4.0c-0.4-0.2-0.7-0.4-1.0-0.5c-1.0-0.4-2.0-0.7-3.1-0.9c1.0,2.4,1.8,5.0,2.6,7.3c0.6,2.0,1.1,4.1,1.9,6.1c1.3-0.6,2.5-1.6,3.5-2.9C24.7,23.9,24.9,23.6,25.0,23.3z"/>
		</g>
		<g>
			<path fill="#964B5B" d="M14.9,13.4c-1.0-0.1-2.0-0.1-3.0-0.0c0.5,5.0,2.1,9.9,2.4,14.9c0.9,0.0,1.8,0.0,2.6-0.1C17.2,23.3,15.9,18.3,14.9,13.4z"/>
		</g>
		<g>
			<path fill="#964B5B" d="M11.3,22.2c-0.3-2.8-0.7-5.7-1.3-8.5c-0.6,0.2-1.1,0.3-1.7,0.6c-0.5,0.2-0.9,0.4-1.3,0.6c0.3,2.2,0.4,4.5,0.5,6.8c0.0,1.6-0.0,3.3-0.0,4.9c1.3,0.6,2.7,1.1,4.1,1.3C11.7,26.1,11.5,24.2,11.3,22.2z"/>
		</g>
		<g>
			<path fill="#5E2A35" d="M32.4,21.3c-0.4-1.2-1.3-2.2-3.4-3.1c-2.2-1.0-5.4,0.4-6.4,2.2c-1.0,2.0-0.4,4.8,3.4,5.5c1.5,0.3,4.1-0.5,5.2-1.8C32.2,23.5,32.6,22.2,32.4,21.3z"/>
		</g>
		<g>
			<path fill="#7F3D4B" d="M40.1,2.0c-1.2-0.2-2.1,0.7-2.5,1.7c-0.5,1.3,0.2,3.6,0.8,4.7c0.3,0.8,1.1,0.3,1.3-0.6c0.1-0.7-0.1-2.1-0.0-2.8c0.0-0.3,0.1-0.8,0.4-0.8C41.2,3.9,41.4,2.1,40.1,2.0z"/>
		</g>
		<g>
			<path fill="#5E2A35" d="M42.8,4.9c-0.6,1.2-0.6,4.3,0.7,5.2c0.4,0.3,1.0-0.2,1.0-0.6c0.0-0.7-0.3-2.4-0.2-3.0c0.0-0.0,0.0-0.1,0.1-0.2c0.7,0.9,2.3,0.2,1.8-1.1C45.6,3.6,43.5,3.4,42.8,4.9z"/>
		</g>
		<g>
			<path fill="#7F3D4B" d="M51.9,21.5c0.7-2.4,0.7-3.0-0.3-5.3c-1.1-2.4-2.6-4.8-4.7-6.6c-2.0-1.6-4.7-2.3-7.2-2.6c-1.2-0.2-2.5-0.3-3.7-0.3c-0.7-0.0-1.8,0.2-2.4,0.4c-2.1,0.7-3.4,2.2-4.3,3.0c-2.1,1.9-2.6,7.6-1.5,10.1c1.2,2.4,2.9,2.9,5.0,4.2c2.5,1.5,5.0,1.2,7.8,1.4c1.2,0.1,4.1,0.3,5.6,0.4C48.7,26.2,51.3,23.5,51.9,21.5z"/>
		</g>
		<g>
			<path d="M41.4,23.3c0.0-0.5-0.3-0.9-0.7-1.0c-0.4-0.1-0.8-0.1-1.3,0.0c-0.7,0.1-1.2,0.8-0.9,1.4c0.4,0.8,1.7,0.9,2.4,0.4C41.1,24.0,41.4,23.7,41.4,23.3z"/>
		</g>
		<g>
			<path fill="#8E4458" d="M50.5,21.2c0.1-1.0-0.7-1.7-1.6-1.7c-0.2,0.0-0.9,0.2-0.4,0.1c-0.4,0.1-0.7,0.1-1.0,0.4c-0.6,0.4-1.1,0.8-1.5,1.4c-0.4,0.6-0.4,1.3-0.2,2.0c0.4,1.2,1.7,1.5,2.7,1.2c0.5-0.1,1.0-0.6,1.4-1.0C50.4,23.0,50.8,22.0,50.5,21.2z"/>
		</g>
		<g>
			<path fill="#5E2A35" d="M41.3,12.5c-0.0-1.8-0.9-2.9-2.4-3.7c-0.1-0.0-0.2-0.1-0.2-0.1c-2.0-1.3-4.7,0.1-6.1,1.7c-2.0,2.2-1.0,5.4,1.2,7.0c2.2,1.7,5.2,1.2,6.6-1.1C41.0,15.2,41.3,13.8,41.3,12.5z"/>
		</g>
		<g>
			<path fill="#FFFFFF" d="M39.6,15.3c-0.7,1.6-2.6,2.2-4.1,1.5c-1.5-0.7-2.5-2.5-1.7-4.0c0.7-1.6,2.9-2.3,4.4-1.6C39.7,11.9,40.3,13.7,39.6,15.3z"/>
		</g>
		<g>
			<path fill="#5E2A35" d="M48.3,11.8c-1.2-0.8-3.2-0.9-4.4,0.0c-0.2,0.1-0.3,0.3-0.5,0.5c-0.7,0.7-1.0,1.9-0.9,2.9c0.1,1.2,0.6,2.4,1.6,3.0c1.1,0.7,2.5,0.6,3.7,0.1C50.3,17.2,50.5,13.3,48.3,11.8zM46.2,15.7c-0.2,0.0-0.2,0.0-0.4,0.0c0.1,0.0-0.1-0.1-0.1-0.0c-0.0-0.0-0.1-0.1-0.1-0.1c0.1-0.2,0.2-0.4,0.3-0.6c0.0-0.2,0.0-0.4,0.0-0.6c0.3-0.1,0.7,0.1,0.8,0.3c0.1,0.1-0.0,0.6-0.1,0.8C46.6,15.6,46.5,15.7,46.2,15.7z"/>
		</g>
		<g>
			<path fill="#FFFFFF" d="M48.5,16.0c-0.5,1.3-1.5,2.0-2.7,1.6c-1.2-0.4-2.2-1.9-1.7-3.1c0.5-1.3,1.8-1.9,3.0-1.5C48.4,13.4,49.0,14.7,48.5,16.0z"/>
		</g>
		<g>
			<path d="M39.6,14.1c-0.3,0.8-1.2,1.5-2.1,1.0c-0.8-0.4-1.2-1.3-1.0-2.1c0.3-0.8,1.2-1.2,2.0-0.9C39.4,12.4,39.9,13.3,39.6,14.1z"/>
		</g>
		<g>
			<path d="M48.4,15.6c-0.2,0.6-0.9,0.9-1.5,0.7c-0.6-0.2-1.0-0.9-0.8-1.5c0.2-0.6,0.9-0.9,1.5-0.7C48.2,14.4,48.6,15.0,48.4,15.6z"/>
		</g>
		<g>
			<path fill="#5E2A35" d="M29.0,32.4c0.8-1.4,0.7-3.1,0.6-4.7c-0.1-1.7-0.1-3.7-0.8-5.3c-0.2-0.5-1.0-0.6-1.2-0.0c-0.4,1.4-0.2,2.9-0.1,4.4c0.1,1.7-0.3,3.5,0.0,5.1C27.6,32.6,28.6,33.1,29.0,32.4z"/>
		</g>
		<g>
			<path fill="#5E2A35" d="M26.0,31.3c0.3-1.3,0.1-2.8,0.1-4.2c0.0-1.8,0.4-3.7,0.9-5.4c0.2-0.7-0.8-1.0-1.1-0.4c-1.6,2.7-2.6,7.3-1.2,10.2C25.0,32.0,25.9,31.8,26.0,31.3z"/>
		</g>
		<g id="Indication_1279_">
			<circle fill="#00FFFF" cx="26.9" cy="17.5" r="5" opacity="0"/>
		</g>
	</g>
</svg>
