<?xml version='1.0' encoding='UTF-8'?>
<svg xmlns="http://www.w3.org/2000/svg" xmlns:xlink="http://www.w3.org/1999/xlink" width="150" height="102"><g id="layerTargets">
		<g id="XMLID_258_" opacity="0.2">
			<path id="XMLID_267_" fill="#111111" d="M147.6,70.6c0.0-0.9-0.1-1.9-0.1-2.8c-0.1-1.9-0.2-3.8-0.2-5.6c0.0-1.1,0.0-2.2,0.1-3.2c0.1-1.9,0.1-3.9,0.1-6.0c0.0-1.6-0.1-3.3-0.1-4.9c-0.1-4.7-0.2-9.1-0.1-13.6c0.1-5.8,0.1-11.7,0.0-18.1c0.0-0.5,0.0-1.1,0.0-1.7c0.1-4.1,0.4-13.9-8.0-14.9c-1.3-0.2-2.5-0.2-3.5-0.2l-2.0,0.0c-0.3,0.0-0.7,0.0-1.0,0.0c-0.8,0.0-1.7,0.0-2.5,0.0c-1.3,0.0-2.8,0.0-4.4,0.1l-2.9,0.1c-5.5,0.3-10.6,0.5-15.9,0.5c-2.2,0.0-4.2,0.0-6.1-0.1c-1.5-0.1-3.0-0.2-4.5-0.3c-2.7-0.2-5.5-0.3-8.3-0.4c-0.4,0.0-0.8,0.0-1.1,0.0c-1.4,0.0-16.5,0.9-21.7,0.2c-1.3-0.2-2.5-0.2-3.5-0.2l-2.0,0.0c-0.3,0.0-0.7,0.0-1.0,0.0c-0.8,0.0-1.7,0.0-2.5,0.0c-1.3,0.0-2.8,0.0-4.4,0.1l-2.9,0.1c-5.5,0.3-10.6,0.5-15.9,0.5c-2.2,0.0-4.2,0.0-6.1-0.1c-1.5-0.1-3.0-0.2-4.5-0.3c-2.7-0.2-5.5-0.3-8.3-0.4c-0.4,0.0-0.8,0.0-1.1,0.0c-1.4,0.0-3.4,0.0-5.4,0.4l-0.3,0.1c-1.9,0.4-7.7,1.4-8.4,8.8c-0.2,2.0-0.1,4.1-0.1,5.9c0.0,0.7,0.0,1.4,0.0,2.0c0.0,1.4,0.0,2.7,0.0,4.1c0.0,1.8-0.1,3.6,0.0,5.5c0.0,2.5,0.0,5.0,0.0,7.5c0.0,3.5-0.1,7.0,0.1,10.6c0.2,4.7,0.1,9.7,0.0,14.4c0.0,1.5-0.1,3.0-0.1,4.5c-0.1,6.8-0.1,13.7,0.0,20.1c0.0,0.5,0.0,0.9,0.0,1.4c-0.1,2.5-0.2,5.9,1.5,8.9c2.6,4.8,7.3,5.2,9.3,5.3l0.3,0.0c1.6,0.1,3.2,0.2,4.7,0.2c0.9,0.0,1.8,0.0,2.7-0.1c0.8,0.0,1.6-0.2,2.3-0.3c0.4-0.1,0.9-0.1,1.3-0.2c0.5,0.1,1.0,0.2,1.5,0.2c0.3,0.0,0.6,0.0,0.8,0.0c0.1,0.0,0.2,0.1,0.3,0.1c0.4,0.1,1.0,0.2,1.6,0.2c0.9,0.0,1.9,0.2,2.8,0.2c2.2,0.1,4.5,0.4,7.1,0.4h0.0c2.5,0.0,5.0-0.3,7.5-0.3c1.7,0.0,3.5-0.3,5.2-0.3c3.8,0.0,8.3-0.1,12.7-0.2c0.1,0.0,0.3,0.0,0.4,0.0l1.4,0.0c1.2,0.0,19.4-0.2,21.4,0.0l0.3,0.0c1.6,0.1,3.2,0.2,4.7,0.2c0.9,0.0,1.8,0.0,2.7-0.1c0.8,0.0,1.6-0.2,2.3-0.3c0.4-0.1,0.9-0.1,1.3-0.2c0.5,0.1,1.0,0.2,1.5,0.2c0.3,0.0,0.6,0.0,0.8,0.0c0.1,0.0,0.2,0.1,0.3,0.1c0.4,0.1,1.0,0.2,1.6,0.2c0.9,0.0,1.9,0.2,2.8,0.2c2.2,0.1,4.5,0.4,7.1,0.4h0.0c2.5,0.0,5.0-0.3,7.5-0.3c1.7,0.0,3.5-0.3,5.2-0.3c3.8,0.0,8.3-0.1,12.7-0.2c0.1,0.0,0.3,0.0,0.4,0.0l1.4,0.0c1.2,0.0,2.6-0.1,4.1-0.5c4.4-1.2,6.7-4.7,6.8-10.4c0.0-1.7,0.1-3.4,0.2-5.1C147.6,79.2,147.8,74.9,147.6,70.6z"/>
		</g>
	</g>
</svg>
