<?xml version='1.0' encoding='UTF-8'?>
<svg xmlns="http://www.w3.org/2000/svg" xmlns:xlink="http://www.w3.org/1999/xlink" width="28" height="50"><g id="num10digit1">
		<g>
			<path fill="#333333" d="M26.7,43.9c-0.0,0.5-0.0,1.2-0.0,2.1c0.0,0.7,0.0,1.2,0.0,1.5c-2.8-0.0-4.7-0.1-5.9-0.1c-6.8,0.0-11.8,0.2-15.0,0.7c-0.2-2.2-0.4-4.4-0.8-6.7c1.9-0.4,4.1-0.6,6.7-0.8c-0.2-2.5-0.3-5.5-0.3-9.1c0.0-4.5,0.2-9.7,0.5-15.7c-0.8,1.2-1.7,2.2-2.7,3.1c-1.0,0.9-2.2,1.7-3.6,2.4c-1.2-2.2-2.5-4.0-3.9-5.5c2.5-1.4,4.8-3.3,6.8-5.7c1.5-1.7,2.7-3.3,3.6-4.6c0.9-1.3,1.6-2.6,2.1-3.9c0.3,0.2,0.9,0.5,1.7,0.8c0.8,0.3,2.0,0.6,3.5,1.1l2.6,0.8c-1.4,5.3-2.2,12.6-2.3,21.9v2.4c0.0,4.8,0.2,8.8,0.5,11.9c2.3,0.0,4.5,0.1,6.6,0.2v0.3C26.8,41.3,26.8,42.3,26.7,43.9z"/>
		</g>
		<g id="Indication_986_">
			<circle fill="#00FFFF" cx="14.4" cy="41.6" r="5" opacity="0"/>
		</g>
	</g>
</svg>
