<?xml version='1.0' encoding='UTF-8'?>
<svg xmlns="http://www.w3.org/2000/svg" xmlns:xlink="http://www.w3.org/1999/xlink" width="24" height="40"><g id="num1040Thousands">
		<path fill="#FFFFFF" d="M21.7,35.0c-0.0,0.4-0.0,1.0-0.0,1.7c0.0,0.6,0.0,1.0,0.0,1.2c-2.2-0.0-3.8-0.0-4.7-0.0c-5.5,0.0-9.5,0.2-12.0,0.5c-0.1-1.8-0.3-3.5-0.6-5.3c1.5-0.3,3.3-0.5,5.3-0.6c-0.2-2.0-0.2-4.4-0.2-7.3c0.0-3.6,0.1-7.8,0.4-12.6c-0.6,1.0-1.4,1.8-2.2,2.5s-1.8,1.4-2.9,1.9c-1.0-1.7-2.0-3.2-3.1-4.4c2.0-1.1,3.8-2.7,5.5-4.6c1.2-1.4,2.2-2.6,2.9-3.7s1.3-2.1,1.7-3.1c0.2,0.2,0.7,0.4,1.4,0.6s1.6,0.5,2.8,0.8l2.1,0.6c-1.1,4.3-1.8,10.1-1.8,17.6v1.9c0.0,3.8,0.1,7.0,0.4,9.5c1.8,0.0,3.6,0.1,5.2,0.2v0.2C21.7,32.9,21.7,33.7,21.7,35.0z"/>
		<circle fill="#00FFFF" cx="11.8" cy="33.2" r="5" opacity="0"/>
	</g>
</svg>
