<?xml version='1.0' encoding='UTF-8'?>
<svg xmlns="http://www.w3.org/2000/svg" xmlns:xlink="http://www.w3.org/1999/xlink" width="390" height="116"><svg x="0" y="0">
		<g id="defaultContent">
			<g>
				<g>
					<g>
						<g>
							<path fill="#F4E8D0" d="M109.2,74.5c-0.1-2.5-0.4-4.9-0.4-7.4c0.1-2.6,0.3-5.1,0.2-7.7c-0.1-5.4-0.4-10.6-0.3-16.0c0.1-5.1,0.1-10.2,0.0-15.3c-0.1-3.0,1.2-8.7-3.8-9.1c-2.8-0.2-5.8-0.1-8.7-0.1c-3.1-0.1-6.1,0.0-9.2,0.1c-12.2,0.4-24.3,0.8-36.6,0.5c-6.0-0.2-12.0-0.5-18.0-0.5c-2.5,0.0-5.1,0.0-7.6,0.3c-2.7,0.3-5.1,0.4-5.5,3.0c-0.3,2.0,0.0,4.2,0.0,6.3c0.0,2.7-0.2,5.4-0.1,8.1c0.1,5.1-0.3,10.2,0.1,15.4c0.4,5.4,0.0,11.0-0.1,16.4c-0.1,5.7-0.1,11.4,0.0,17.0c0.0,2.1-0.5,4.6,1.1,6.4c1.7,1.8,4.5,1.8,7.0,1.9c3.2,0.1,6.4,0.2,9.6,0.1c2.2-0.1,5.9-0.7,7.7-0.2c1.4-0.2,2.9,0.1,4.3,0.1c1.3,0.0,2.6,0.1,3.9,0.1c3.3,0.1,6.5,0.1,9.8,0.1c6.0,0.0,12.1-0.1,18.1-0.1c6.0,0.0,12.0,0.0,18.0-0.1c2.1,0.0,4.4,0.1,6.5-0.2c2.7-0.4,3.3-1.9,3.4-4.1C108.9,84.5,109.5,79.4,109.2,74.5z"/>
						</g>
					</g>
				</g>
				<g>
					<g>
						<path fill="#826654" d="M60.3,73.6c0.0,0.5,0.0,1.2,0.0,2.1c0.0,0.7,0.0,1.2,0.0,1.5c-2.8,0.0-4.7-0.1-5.9-0.1c-6.8,0.0-11.8,0.2-15.0,0.7c-0.2-2.2-0.4-4.4-0.8-6.7c1.9-0.4,4.1-0.6,6.7-0.8c-0.2-2.5-0.3-5.5-0.3-9.1c0.0-4.5,0.2-9.7,0.5-15.7c-0.8,1.2-1.7,2.2-2.7,3.1c-1.0,0.9-2.2,1.7-3.6,2.4c-1.2-2.2-2.5-4.0-3.9-5.5c2.5-1.4,4.8-3.3,6.8-5.7c1.5-1.7,2.7-3.3,3.6-4.6c0.9-1.3,1.6-2.6,2.1-3.9c0.3,0.2,0.9,0.5,1.7,0.8c0.8,0.3,2.0,0.6,3.5,1.1l2.6,0.8c-1.4,5.3-2.2,12.6-2.3,21.9v2.4c0.0,4.8,0.2,8.8,0.5,11.9c2.3,0.0,4.5,0.1,6.6,0.2v0.3C60.4,71.0,60.4,72.0,60.3,73.6z"/>
					</g>
					<g>
						<path fill="#826654" d="M66.0,70.0l1.3-1.3l2.6-2.4c0.3-0.3,0.6-0.5,0.8-0.7c0.2-0.2,0.4-0.3,0.5-0.4c0.9,1.6,2.6,3.0,5.2,4.2c1.2,0.5,2.3,0.8,3.5,0.8c1.1,0.0,2.1-0.2,3.1-0.7c1.0-0.5,1.8-1.3,2.4-2.4c0.6-1.1,0.9-2.3,0.9-3.7c0.0-1.1-0.2-2.1-0.6-3.0c-0.4-0.9-1.0-1.6-1.7-2.1c-1.4-1.0-3.5-1.6-6.3-1.6l-1.5,0.0c-0.5,0.0-0.9,0.0-1.3,0.1l0.0-7.5c1.5,0.0,2.9-0.3,4.2-0.8c1.3-0.5,2.5-1.2,3.6-2.2c1.1-0.9,1.6-2.1,1.6-3.5c0.0-0.3,0.0-0.6-0.1-0.9c-0.2-0.9-0.6-1.6-1.2-2.3c-0.6-0.7-1.3-1.1-2.2-1.4c-0.5-0.2-1.0-0.3-1.6-0.3c-1.0,0.0-2.0,0.2-3.2,0.7c-1.2,0.5-2.3,1.2-3.6,2.1c-0.9-1.9-2.1-3.6-3.5-5.1c1.9-1.7,4.3-2.9,7.3-3.6c1.1-0.3,2.2-0.5,3.5-0.5c1.1,0.0,2.3,0.1,3.5,0.4c2.6,0.6,4.5,1.8,5.9,3.7h0.0c1.4,2.0,2.1,4.2,2.1,6.4c0.0,0.9-0.1,1.8-0.3,2.6c-0.7,2.9-2.4,5.1-4.9,6.7c3.0,1.0,5.2,2.7,6.6,5.1c1.2,2.0,1.8,4.2,1.8,6.4c0.0,0.6,0.0,1.2-0.1,1.7c-0.4,3.3-1.6,6.2-3.6,8.4c-2.0,2.3-4.8,3.8-8.3,4.5c-0.9,0.2-1.9,0.3-2.9,0.3c-1.2,0.0-2.2-0.1-3.2-0.3c-0.9-0.2-2.1-0.6-3.5-1.1c-0.9-0.4-1.8-1.0-2.9-1.9s-2.1-1.9-3.0-2.9C66.4,70.5,66.0,70.0,66.0,70.0C66.0,70.0,66.0,70.0,66.0,70.0z"/>
					</g>
				</g>
			</g>
			<g>
				<g>
					<circle fill="#00FFFF" cx="82.2" cy="77.8" r="5.4" opacity="0"/>
				</g>
			</g>
		</g>
	</svg>
	<svg id="draggable" x="130" y="0">
		<use xlink:href="#defaultContent" style="stroke: #000000; stroke-width: 14; opacity: 0.2; stroke-miterlimit: 10; stroke-linecap: round; stroke-linejoin: round;" x="6" y="6"/>
		<use xlink:href="#defaultContent" style="stroke: #FFFFFF; stroke-width: 14; stroke-miterlimit: 10; stroke-linecap: round; stroke-linejoin: round;"/>
		<use xlink:href="#defaultContent"/>
	</svg>
	<svg id="grabbed" x="260" y="0">
		<use xlink:href="#defaultContent" style="stroke: #FFFFFF; stroke-width: 32; stroke-miterlimit: 10; stroke-linecap: round; stroke-linejoin: round;"/>
		<use xlink:href="#defaultContent"/>
	</svg>
</svg>
