<?xml version='1.0' encoding='UTF-8'?>
<svg xmlns="http://www.w3.org/2000/svg" xmlns:xlink="http://www.w3.org/1999/xlink" width="56" height="40"><g id="num190digits90">
		<path fill="#FFFFFF" d="M53.8,17.7c0.0,0.3,0.0,0.8,0.0,1.5c0.0,3.7-0.6,7.1-1.9,10.4c-2.4,5.7-6.0,8.6-11.0,8.6c-2.5,0.0-4.5-0.8-6.1-2.5c-1.6-1.7-2.7-3.7-3.4-6.2s-1.1-5.0-1.1-7.5c0.0-0.7,0.0-1.3,0.1-1.9c0.2-2.7,0.8-5.4,1.6-8.1c1.2-3.7,2.9-6.5,5.2-8.6c0.8-0.7,1.7-1.2,2.9-1.6c1.2-0.4,2.3-0.6,3.6-0.6c1.3,0.0,2.4,0.2,3.4,0.6c1.0,0.4,1.8,1.1,2.5,1.9c0.7,0.9,1.3,1.8,1.8,2.9c0.7,1.7,1.3,3.5,1.7,5.4C53.5,13.9,53.7,15.8,53.8,17.7zM45.6,28.9c0.8-1.4,1.4-2.9,1.8-4.7s0.6-3.6,0.6-5.4c0.0-1.7-0.2-3.3-0.5-4.9c-0.3-1.6-0.8-3.1-1.4-4.4c-0.8-1.7-1.9-2.6-3.2-2.6c-1.3,0.0-2.5,0.6-3.4,1.9c-0.9,1.2-1.5,2.4-1.9,3.6c-0.8,2.8-1.2,5.6-1.2,8.4c0.0,3.0,0.5,5.7,1.4,8.3c0.3,0.9,0.9,1.6,1.8,2.2c0.7,0.5,1.4,0.7,1.9,0.7c0.1,0.0,0.2-0.0,0.4-0.0C43.3,31.6,44.6,30.6,45.6,28.9z"/>
		<path fill="#FFFFFF" d="M9.6,37.9c-1.5,0.0-3.0-0.2-4.4-0.6c0.1,0.0,0.4-0.7,1.0-2.2s0.9-2.7,1.2-3.5c0.0,0.0,0.4,0.1,1.0,0.2c0.7,0.2,1.3,0.3,1.8,0.3c1.7,0.0,3.2-0.5,4.7-1.6c2.1-1.6,3.7-3.9,4.7-7.0l-0.2,0.1c-2.2,1.4-4.5,2.0-6.8,2.0c-0.8,0.0-1.5-0.1-2.3-0.2c-3.3-0.7-5.8-2.5-7.3-5.3c-1.0-1.8-1.5-3.8-1.5-6.0c0.0-1.8,0.4-3.6,1.1-5.3c0.7-1.7,1.8-3.2,3.1-4.4c1.2-1.0,2.5-1.8,3.9-2.4c1.4-0.5,2.9-0.8,4.5-0.8c1.2,0.0,2.3,0.2,3.5,0.5c3.8,1.1,6.3,3.5,7.6,7.3c0.7,2.0,1.0,4.2,1.1,6.6l0.0,0.8c0.0,2.1-0.2,4.2-0.8,6.3c-0.6,2.5-1.5,4.9-2.7,7.0c-1.2,2.1-2.7,3.9-4.6,5.3c-1.3,1.0-2.7,1.7-4.1,2.2S11.2,37.9,9.6,37.9zM14.3,6.5c-1.3,0.0-2.5,0.4-3.6,1.1c-1.1,0.7-2.0,1.7-2.7,2.9c-0.7,1.2-1.0,2.4-1.0,3.6c0.0,0.8,0.2,1.6,0.5,2.3c0.3,0.7,0.8,1.4,1.5,2.0c0.6,0.5,1.3,0.9,2.1,1.2s1.7,0.4,2.5,0.4c1.2,0.0,2.3-0.3,3.4-0.8s1.8-1.3,2.4-2.3c0.6-1.1,0.9-2.3,0.9-3.6c0.0-1.3-0.3-2.4-0.8-3.6s-1.2-1.9-2.2-2.5C16.3,6.8,15.3,6.5,14.3,6.5z"/>
		<circle id="Indication_831_" fill="#00FFFF" cx="43.9" cy="32.9" r="5" opacity="0"/>
	</g>
</svg>
