<?xml version='1.0' encoding='UTF-8'?>
<svg xmlns="http://www.w3.org/2000/svg" xmlns:xlink="http://www.w3.org/1999/xlink" width="40" height="56"><g id="num6">
		<path fill="#333333" d="M36.2,28.9c0.9,2.2,1.3,4.5,1.3,6.9c0.0,2.7-0.5,5.3-1.6,7.8c-0.7,1.6-1.6,3.0-2.6,4.3c-1.1,1.3-2.3,2.5-3.7,3.4c-1.5,1.1-3.2,1.9-5.0,2.4c-1.8,0.6-3.6,0.8-5.5,0.8s-3.6-0.3-5.4-0.8c-1.8-0.5-3.4-1.3-4.9-2.4c-2.2-1.5-3.8-3.5-5.0-5.9s-1.9-5.2-2.3-8.3c-0.2-1.6-0.3-3.3-0.3-4.9c0.0-4.3,0.7-8.5,2.1-12.6c1.4-4.1,3.5-7.8,6.3-11.2c2.5-3.1,5.7-5.2,9.7-6.5c1.9-0.6,4.0-1.0,6.1-1.0c1.1,0.0,2.3,0.1,3.6,0.3c1.3,0.2,2.5,0.4,3.7,0.8c-0.2,0.3-0.5,1.0-0.9,2.1c-0.4,1.1-0.7,1.9-1.0,2.4c-0.4,0.9-0.7,1.8-1.0,2.5s-0.5,1.3-0.5,1.5c-1.9-0.6-3.4-1.0-4.4-1.0c-2.4,0.0-4.6,0.8-6.7,2.3c-1.6,1.2-3.0,2.6-4.2,4.4c-0.6,0.8-1.1,1.7-1.5,2.7c-0.2,0.3-0.4,0.8-0.6,1.5c-0.2,0.7-0.4,1.1-0.5,1.4c0.2-0.1,0.5-0.3,1.0-0.5c0.5-0.2,1.0-0.5,1.5-0.7c2.4-1.1,4.9-1.6,7.4-1.6c2.0,0.0,4.0,0.4,5.9,1.1c1.9,0.7,3.6,1.7,5.1,3.1C34.0,24.8,35.3,26.7,36.2,28.9zM29.4,36.0c0.0-1.6-0.4-3.1-1.3-4.5c-0.9-1.4-2.0-2.4-3.5-3.2c-1.4-0.7-3.0-1.1-4.6-1.1c-1.2,0.0-2.4,0.2-3.5,0.6c-1.2,0.4-2.2,1.0-3.1,1.7c-0.9,0.7-1.7,1.6-2.2,2.7c-0.7,1.6-1.1,3.2-1.1,5.0c0.0,2.0,0.5,3.9,1.4,5.5c0.9,1.7,2.3,2.9,4.0,3.6c1.0,0.4,2.1,0.6,3.1,0.6c1.5,0.0,3.0-0.4,4.6-1.2c2.0-1.0,3.6-2.6,4.8-4.8C28.9,39.3,29.4,37.6,29.4,36.0z"/>
		<circle fill="#00FFFF" cx="22.8" cy="47.3" r="5" opacity="0"/>
	</g>
</svg>
