<?xml version='1.0' encoding='UTF-8'?>
<svg xmlns="http://www.w3.org/2000/svg" xmlns:xlink="http://www.w3.org/1999/xlink" width="30" height="40"><g id="num7a">
		<path fill="#333333" d="M11.5,8.6c-3.7-0.2-6.9-0.7-9.7-1.5c0.5-2.2,0.9-4.0,1.2-5.3h0.1c3.5,1.0,7.1,1.5,10.9,1.5c3.7,0.0,7.5-0.5,11.3-1.5c0.0,0.2,0.4,0.9,1.0,2.2c0.7,1.4,1.0,2.2,1.1,2.2c-7.0,8.0-10.5,18.0-10.5,30.0c0.0,0.1-0.0,0.1-0.0,0.2l-0.0,0.2l-5.6,0.1c-0.2-1.3-0.2-2.7-0.2-4.2c0.0-3.9,0.6-7.9,1.8-11.7c1.6-5.2,3.8-9.5,6.6-12.7c-1.0,0.2-2.5,0.4-4.5,0.4C13.7,8.7,12.6,8.7,11.5,8.6z"/>
		<circle fill="#00FFFF" cx="16.8" cy="32.8" r="5" opacity="0"/>
	</g>
</svg>
