<?xml version='1.0' encoding='UTF-8'?>
<svg xmlns="http://www.w3.org/2000/svg" xmlns:xlink="http://www.w3.org/1999/xlink" width="378" height="124"><svg x="0" y="0">
		<g id="defaultContent">
			<g>
				<path fill="#E5DBCF" d="M104.7,81.6c-0.1-2.8-0.4-5.5-0.4-8.3c0.1-2.9,0.3-5.8,0.2-8.7c-0.1-6.0-0.4-12.0-0.3-18.0c0.1-5.7,0.1-11.5,0.0-17.2c-0.1-3.3,1.1-9.8-3.7-10.2c-2.7-0.2-5.6-0.1-8.3-0.1c-2.9-0.1-5.8-0.0-8.8,0.1c-11.7,0.4-23.3,0.9-35.0,0.5c-5.7-0.2-11.5-0.6-17.2-0.6c-2.4-0.0-4.9-0.0-7.3,0.3c-2.6,0.3-4.9,0.5-5.3,3.4c-0.3,2.3-0.0,4.8-0.0,7.1c0.0,3.0-0.1,6.1-0.1,9.1c0.1,5.8-0.2,11.5,0.1,17.3c0.3,6.1-0.0,12.3-0.1,18.5c-0.1,6.4-0.1,12.8-0.0,19.2c0.0,2.4-0.5,5.2,1.1,7.2c1.6,2.0,4.3,2.0,6.7,2.1c3.0,0.2,6.1,0.2,9.1,0.1c2.1-0.1,5.7-0.8,7.4-0.3c1.3-0.2,2.8,0.1,4.1,0.2c1.2,0.0,2.5,0.1,3.7,0.1c3.1,0.1,6.3,0.1,9.4,0.1c5.8-0.0,11.6-0.1,17.3-0.1c5.7-0.0,11.5-0.1,17.2-0.2c2.0-0.0,4.2,0.1,6.2-0.2c2.6-0.5,3.1-2.2,3.2-4.6C104.4,92.8,105.0,87.2,104.7,81.6z"/>
			</g>
			<g>
				<path fill="#C9B6A1" d="M101.7,97.3c-2.0,0.4-4.3,0.2-6.3,0.2c-5.9,0.1-11.7,0.2-17.6,0.2c-5.9,0.0-11.8,0.1-17.7,0.1c-3.2,0.0-6.4-0.0-9.6-0.1c-1.3-0.0-2.5-0.1-3.8-0.1c-1.3-0.0-2.9-0.4-4.2-0.2c-1.8-0.5-5.4,0.2-7.5,0.3c-3.1,0.1-6.2,0.1-9.3-0.1c-2.4-0.1-5.2-0.1-6.8-2.2c-0.1-0.1-0.2-0.2-0.2-0.3c-0.1,2.1-0.2,4.3,1.1,6.0c1.6,2.0,4.3,2.0,6.7,2.1c3.0,0.2,6.1,0.2,9.1,0.1c2.1-0.1,5.7-0.8,7.4-0.3c1.3-0.2,2.8,0.1,4.1,0.2c1.2,0.0,2.5,0.1,3.7,0.1c3.1,0.1,6.3,0.1,9.4,0.1c5.8-0.0,11.6-0.1,17.3-0.1c5.7-0.0,11.5-0.1,17.2-0.2c2.0-0.0,4.2,0.1,6.2-0.2c2.6-0.5,3.1-2.2,3.2-4.6c0.0-0.9,0.1-1.7,0.1-2.6C103.8,96.5,103.0,97.1,101.7,97.3z"/>
			</g>
			<g>
				<path fill="#333333" d="M54.7,89.2c-2.4,0.0-4.7-0.3-6.9-1.0c0.2,0.0,0.7-1.1,1.5-3.5c0.8-2.3,1.5-4.2,1.9-5.5c0.1,0.0,0.6,0.1,1.6,0.3c1.1,0.3,2.1,0.5,2.9,0.5c2.6,0.0,5.1-0.8,7.3-2.5c3.3-2.4,5.8-6.1,7.3-10.9l-0.3,0.1c-3.5,2.1-7.0,3.2-10.7,3.2c-1.2,0.0-2.4-0.1-3.6-0.3c-5.2-1.1-9.0-3.8-11.4-8.3c-1.5-2.9-2.3-6.0-2.3-9.3c0.0-2.9,0.6-5.6,1.7-8.3c1.1-2.7,2.8-5.0,4.9-6.9c1.8-1.6,3.9-2.8,6.1-3.7c2.2-0.9,4.6-1.3,7.0-1.3c1.8,0.0,3.6,0.3,5.5,0.8c5.9,1.7,9.9,5.5,11.9,11.4c1.1,3.1,1.6,6.5,1.8,10.3l0.0,1.3c0.0,3.2-0.4,6.5-1.2,9.8c-1.0,4.0-2.4,7.6-4.2,11.0c-1.9,3.4-4.3,6.1-7.2,8.3c-2.0,1.5-4.2,2.6-6.5,3.4C59.5,88.9,57.2,89.2,54.7,89.2zM62.1,40.1c-2.0,0.0-3.8,0.6-5.6,1.7c-1.7,1.1-3.1,2.6-4.2,4.5c-1.0,1.8-1.6,3.7-1.6,5.6c0.0,1.3,0.2,2.5,0.8,3.6c0.5,1.2,1.3,2.2,2.3,3.1c0.9,0.8,2.0,1.5,3.3,1.9c1.3,0.4,2.6,0.7,3.9,0.7c1.9,0.0,3.6-0.4,5.2-1.2c1.6-0.8,2.8-2.0,3.7-3.5c0.9-1.7,1.4-3.6,1.4-5.7c0.0-2.0-0.4-3.8-1.2-5.5c-0.8-1.7-2.0-3.0-3.4-3.9C65.2,40.5,63.6,40.1,62.1,40.1z"/>
			</g>
		</g>
	</svg>
	<svg id="draggable" x="126" y="0">
		<use xlink:href="#defaultContent" style="stroke: #000000; stroke-width: 14; opacity: 0.2; stroke-miterlimit: 10; stroke-linecap: round; stroke-linejoin: round;" x="6" y="6"/>
		<use xlink:href="#defaultContent" style="stroke: #FFFFFF; stroke-width: 14; stroke-miterlimit: 10; stroke-linecap: round; stroke-linejoin: round;"/>
		<use xlink:href="#defaultContent"/>
	</svg>
	<svg id="grabbed" x="252" y="0">
		<use xlink:href="#defaultContent" style="stroke: #FFFFFF; stroke-width: 32; stroke-miterlimit: 10; stroke-linecap: round; stroke-linejoin: round;"/>
		<use xlink:href="#defaultContent"/>
	</svg>
</svg>
