<?xml version='1.0' encoding='UTF-8'?>
<svg xmlns="http://www.w3.org/2000/svg" xmlns:xlink="http://www.w3.org/1999/xlink" width="312" height="106"><svg x="0" y="0">
		<g id="defaultContent">
			<g>
				<g>
					<path fill="#5DC632" d="M82.5,48.2c-0.1-3.1-0.5-6.2-1.4-9.1c-0.7-2.2-1.8-4.1-3.1-6.0c-2.7-3.8-6.1-7.0-10.2-9.4c-13.2-7.7-29.4-5.6-40.2,5.2c-10.4,10.4-11.4,28.1-3.0,40.2c6.2,8.9,16.5,15.0,27.4,15.0C70.7,84.1,82.9,65.7,82.5,48.2z"/>
				</g>
				<g>
					<path fill="#3DA317" d="M79.0,47.5c-0.1-2.6-0.7-5.2-1.7-7.7c-0.2-0.5-0.4-0.9-0.6-1.3c-0.1-0.2-0.2-0.3-0.3-0.5c-0.2-0.4-0.4-0.7-0.6-1.1c-0.1-0.1-0.1-0.2-0.2-0.3c0.0,0.0,0.0,0.0,0.0,0.0c-0.1-0.1-0.2-0.2-0.2-0.4c-0.2-0.3-0.3-0.5-0.5-0.8c-0.1-0.2-0.3-0.4-0.4-0.7c-0.1-0.1-0.2-0.3-0.3-0.4c-6.0-8.3-14.8-10.8-24.7-10.0c-10.7,1.0-19.8,3.6-24.3,14.1c-3.4,8.1-3.5,18.3,0.4,26.2c5.1,10.5,22.1,16.8,32.9,12.7c5.9-2.2,11.6-6.3,15.0-11.6C77.0,60.3,79.3,53.9,79.0,47.5z"/>
				</g>
				<g>
					<path fill="#50B729" d="M41.2,65.9c-0.9-1.9-2.9-3.1-4.3-4.6c-1.5-1.6-2.7-3.7-3.7-5.6c-1.9-3.8-2.0-8.3-2.1-12.5c0.0-0.9-1.1-1.3-1.7-0.7c-4.2,4.0-4.2,9.9-3.2,15.3c1.0,5.5,5.8,13.1,11.8,13.6C41.1,71.6,42.3,68.1,41.2,65.9z"/>
				</g>
			</g>
			<g>
				<path fill="#FFFFFF" d="M37.0,69.3c-1.7,0.0-3.4-0.3-5.0-1.0c-1.6-0.7-3.0-1.6-4.2-2.8c1.0-1.6,1.8-3.4,2.4-5.3c1.3,1.3,2.7,2.2,4.2,2.7c0.8,0.2,1.5,0.4,2.3,0.4c1.0,0.0,1.9-0.2,2.7-0.6c0.8-0.4,1.4-1.0,2.0-1.7c0.5-0.8,0.8-1.6,0.8-2.4c0.0-0.7-0.2-1.4-0.6-2.1c-0.4-0.7-0.9-1.3-1.5-1.7c-0.6-0.5-1.3-0.8-2.1-1.0c-0.6-0.2-1.2-0.2-1.9-0.2c-1.5,0.0-3.1,0.4-5.0,1.2c0.2-2.8,0.3-5.6,0.3-8.6c0.0-3.4-0.1-6.7-0.4-9.8c0.0,0.1,1.3,0.2,3.8,0.2h1.8c2.3,0.0,4.5-0.1,6.8-0.3c0.6,0.0,1.5-0.1,2.7-0.2c1.2-0.1,1.9-0.2,1.9-0.2c0.2,2.3,0.4,4.1,0.4,5.3l-11.6,0.8l0.2,6.2c0.5-0.1,1.1-0.2,1.6-0.2c1.6,0.0,3.2,0.4,4.7,1.2c1.5,0.8,2.7,1.9,3.6,3.2c0.6,0.8,1.0,1.8,1.3,2.8c0.3,1.0,0.4,2.1,0.4,3.1c0.0,1.8-0.4,3.5-1.2,5.0c-0.9,1.7-2.1,3.1-3.8,4.2c-1.7,1.1-3.4,1.8-5.4,2.0C37.9,69.3,37.5,69.3,37.0,69.3z"/>
				<path fill="#FFFFFF" d="M74.6,50.2c0.0,0.3,0.0,0.8,0.0,1.4c0.0,3.5-0.6,6.7-1.8,9.7c-2.2,5.3-5.7,8.0-10.3,8.0c-2.3,0.0-4.2-0.8-5.7-2.3c-1.5-1.6-2.6-3.5-3.2-5.8c-0.7-2.3-1.0-4.7-1.0-7.1c0.0-0.6,0.0-1.2,0.1-1.7c0.2-2.5,0.7-5.1,1.5-7.6c1.1-3.5,2.8-6.1,4.9-8.0c0.7-0.6,1.6-1.1,2.7-1.5c1.1-0.4,2.2-0.5,3.3-0.5c1.2,0.0,2.2,0.2,3.1,0.6c0.9,0.4,1.7,1.0,2.4,1.8c0.7,0.8,1.2,1.7,1.7,2.8c0.7,1.6,1.2,3.3,1.6,5.0C74.3,46.6,74.5,48.4,74.6,50.2zM66.8,60.7c0.7-1.3,1.3-2.8,1.7-4.4c0.4-1.6,0.6-3.3,0.6-5.1c0.0-1.6-0.1-3.1-0.4-4.6c-0.3-1.5-0.7-2.9-1.3-4.1c-0.7-1.6-1.8-2.4-3.0-2.4c-1.2,0.0-2.3,0.6-3.2,1.8c-0.8,1.1-1.4,2.3-1.8,3.3c-0.8,2.6-1.2,5.2-1.2,7.9c0.0,2.8,0.4,5.4,1.3,7.8c0.3,0.8,0.9,1.5,1.7,2.1c0.7,0.4,1.3,0.6,1.8,0.6c0.1,0.0,0.2,0.0,0.4,0.0C64.8,63.3,65.9,62.3,66.8,60.7z"/>
			</g>
		</g>
	</svg>
	<svg id="active" x="104" y="0">
		<use xlink:href="#defaultContent" style="stroke: #000000; stroke-width: 14; opacity: 0.2; stroke-miterlimit: 10; stroke-linecap: round; stroke-linejoin: round;" x="6" y="6"/>
		<use xlink:href="#defaultContent" style="stroke: #FFFFFF; stroke-width: 14; stroke-miterlimit: 10; stroke-linecap: round; stroke-linejoin: round;"/>
		<use xlink:href="#defaultContent"/>
	</svg>
	<svg id="selected" x="208" y="0">
		<use xlink:href="#defaultContent" style="stroke: #FFFFFF; stroke-width: 32; stroke-miterlimit: 10; stroke-linecap: round; stroke-linejoin: round;"/>
		<use xlink:href="#defaultContent"/>
	</svg>
</svg>
