<?xml version='1.0' encoding='UTF-8'?>
<svg xmlns="http://www.w3.org/2000/svg" xmlns:xlink="http://www.w3.org/1999/xlink" width="276" height="114"><svg x="0" y="0">
		<g id="defaultContent">
			<g>
				<path fill="#E5DBCF" d="M73.7,75.6c-0.1-2.5-0.3-4.9-0.2-7.4c0.0-2.6,0.2-5.1,0.1-7.7c-0.1-5.4-0.3-10.6-0.2-16.0c0.1-5.1,0.1-10.2,0.0-15.3c-0.0-3.0,0.7-8.7-2.3-9.1c-1.7-0.2-3.5-0.1-5.2-0.1c-1.8-0.1-3.6-0.0-5.4,0.1c-7.3,0.4-14.5,0.8-21.8,0.5c-3.6-0.2-7.1-0.5-10.7-0.5c-1.5-0.0-3.0-0.0-4.5,0.3c-1.6,0.3-3.1,0.4-3.3,3.0c-0.2,2.0-0.0,4.2-0.0,6.3c0.0,2.7-0.1,5.4-0.0,8.1c0.1,5.1-0.2,10.2,0.0,15.4c0.2,5.4-0.0,11.0-0.1,16.4c-0.1,5.7-0.1,11.4-0.0,17.0c0.0,2.1-0.3,4.6,0.7,6.4c1.0,1.8,2.7,1.8,4.1,1.9c1.9,0.1,3.8,0.2,5.7,0.1c1.3-0.1,3.5-0.7,4.6-0.2c0.8-0.2,1.7,0.1,2.6,0.1c0.8,0.0,1.6,0.1,2.3,0.1c1.9,0.1,3.9,0.1,5.8,0.1c3.6-0.0,7.2-0.1,10.8-0.1c3.6-0.0,7.2-0.0,10.7-0.1c1.3-0.0,2.6,0.1,3.9-0.2c1.6-0.4,1.9-1.9,2.0-4.1C73.5,85.6,73.8,80.6,73.7,75.6z"/>
			</g>
			<g>
				<path fill="#333333" d="M60.1,55.1c0.0,0.4,0.0,1.0,0.0,1.8c0.0,4.6-0.8,8.9-2.3,13.0c-3.0,7.1-7.5,10.7-13.7,10.7c-3.1,0.0-5.7-1.0-7.6-3.1c-2.0-2.1-3.4-4.7-4.3-7.8c-0.9-3.1-1.3-6.2-1.3-9.4c0.0-0.8,0.0-1.6,0.1-2.3c0.3-3.4,0.9-6.7,2.1-10.1c1.5-4.6,3.7-8.2,6.5-10.7c1.0-0.8,2.2-1.5,3.6-2.0c1.5-0.5,2.9-0.7,4.4-0.7c1.6,0.0,3.0,0.3,4.2,0.8c1.2,0.5,2.2,1.3,3.1,2.4c0.9,1.1,1.6,2.3,2.2,3.7c0.9,2.1,1.6,4.3,2.1,6.7C59.7,50.3,60.0,52.7,60.1,55.1zM49.8,69.2c1.0-1.7,1.7-3.7,2.2-5.9c0.5-2.2,0.7-4.4,0.7-6.8c0.0-2.1-0.2-4.2-0.6-6.2c-0.4-2.0-1.0-3.8-1.7-5.5c-1.0-2.2-2.3-3.3-4.0-3.3c-1.7,0.0-3.1,0.8-4.2,2.4c-1.1,1.5-1.9,3.0-2.3,4.5c-1.0,3.5-1.6,7.0-1.6,10.5c0.0,3.7,0.6,7.2,1.8,10.4c0.4,1.1,1.2,2.1,2.2,2.8c0.9,0.6,1.7,0.8,2.4,0.8c0.1,0.0,0.3-0.0,0.5-0.1C47.0,72.5,48.6,71.3,49.8,69.2z"/>
			</g>
		</g>
	</svg>
	<svg id="draggable" x="92" y="0">
		<use xlink:href="#defaultContent" style="stroke: #000000; stroke-width: 14; opacity: 0.2; stroke-miterlimit: 10; stroke-linecap: round; stroke-linejoin: round;" x="6" y="6"/>
		<use xlink:href="#defaultContent" style="stroke: #FFFFFF; stroke-width: 14; stroke-miterlimit: 10; stroke-linecap: round; stroke-linejoin: round;"/>
		<use xlink:href="#defaultContent"/>
	</svg>
	<svg id="grabbed" x="184" y="0">
		<use xlink:href="#defaultContent" style="stroke: #FFFFFF; stroke-width: 32; stroke-miterlimit: 10; stroke-linecap: round; stroke-linejoin: round;"/>
		<use xlink:href="#defaultContent"/>
	</svg>
</svg>
