<?xml version='1.0' encoding='UTF-8'?>
<svg xmlns="http://www.w3.org/2000/svg" xmlns:xlink="http://www.w3.org/1999/xlink" width="312" height="128"><svg x="0" y="0">
		<g id="defaultContent">
			<g>
				<g>
					<path fill="#E5DBCF" d="M81.3,83.8c-0.1-2.9-0.3-5.8-0.3-8.7c0.0-3.0,0.2-6.0,0.2-9.0c-0.1-6.3-0.3-12.5-0.2-18.7c0.1-6.0,0.1-12.0,0.0-17.9c0.0-3.5,0.8-10.2-2.7-10.7c-2.0-0.2-4.1-0.1-6.0-0.1c-2.1-0.1-4.3,0.0-6.4,0.1c-8.5,0.4-17.0,1.0-25.5,0.5c-4.2-0.2-8.4-0.6-12.5-0.6c-1.8,0.0-3.5,0.0-5.3,0.3c-1.9,0.4-3.6,0.5-3.9,3.6c-0.2,2.4,0.0,5.0,0.0,7.4c0.0,3.2-0.1,6.4-0.1,9.5c0.1,6.0-0.2,12.0,0.1,18.0c0.3,6.4,0.0,12.8-0.1,19.2c-0.1,6.7-0.1,13.3,0.0,20.0c0.0,2.5-0.4,5.4,0.8,7.5c1.2,2.1,3.1,2.1,4.9,2.2c2.2,0.2,4.4,0.2,6.7,0.1c1.5-0.1,4.1-0.8,5.4-0.3c0.9-0.2,2.0,0.1,3.0,0.2c0.9,0.0,1.8,0.1,2.7,0.1c2.3,0.1,4.6,0.1,6.8,0.1c4.2,0.0,8.4-0.1,12.6-0.1c4.2,0.0,8.4-0.1,12.6-0.2c1.5,0.0,3.1,0.1,4.5-0.3c1.9-0.5,2.3-2.3,2.3-4.8C81.1,95.5,81.5,89.6,81.3,83.8z"/>
				</g>
				<g>
					<path fill="#C9B6A1" d="M79.2,100.1c-1.5,0.4-3.1,0.2-4.6,0.3c-4.3,0.1-8.5,0.2-12.8,0.2c-4.3,0.0-8.6,0.1-12.9,0.1c-2.3,0.0-4.7,0.0-7.0-0.1c-0.9,0.0-1.9-0.1-2.8-0.1c-1.0-0.1-2.1-0.4-3.1-0.2c-1.3-0.6-4.0,0.2-5.5,0.3c-2.3,0.1-4.5,0.1-6.8-0.1c-1.7-0.1-3.8-0.1-5.0-2.3c-0.1-0.1-0.1-0.2-0.2-0.4c-0.1,2.2-0.2,4.5,0.8,6.3c1.2,2.1,3.1,2.1,4.9,2.2c2.2,0.2,4.4,0.2,6.7,0.1c1.5-0.1,4.1-0.8,5.4-0.3c0.9-0.2,2.0,0.1,3.0,0.2c0.9,0.0,1.8,0.1,2.7,0.1c2.3,0.1,4.6,0.1,6.8,0.1c4.2,0.0,8.4-0.1,12.6-0.1c4.2,0.0,8.4-0.1,12.6-0.2c1.5,0.0,3.1,0.1,4.5-0.3c1.9-0.5,2.3-2.3,2.3-4.8c0.0-0.9,0.1-1.8,0.1-2.7C80.7,99.3,80.1,99.9,79.2,100.1z"/>
				</g>
			</g>
			<g>
				<path fill="#333333" d="M47.5,90.1c-2.8,0.0-5.6-0.6-8.3-1.7c-2.7-1.1-5.0-2.7-7.0-4.7c1.7-2.7,3.1-5.7,4.0-8.9c2.2,2.2,4.6,3.7,7.0,4.5c1.3,0.4,2.6,0.6,3.8,0.6c1.7,0.0,3.1-0.3,4.5-1.0c1.3-0.7,2.4-1.6,3.3-2.9c0.9-1.3,1.3-2.6,1.3-4.0c0.0-1.2-0.3-2.4-1.0-3.5c-0.6-1.1-1.5-2.1-2.6-2.9c-1.1-0.8-2.2-1.4-3.5-1.7c-1.0-0.3-2.1-0.4-3.2-0.4c-2.5,0.0-5.2,0.6-8.3,1.9c0.3-4.6,0.5-9.4,0.5-14.4c0.0-5.7-0.2-11.1-0.6-16.4c0.0,0.2,2.1,0.3,6.3,0.3h3.0c3.8,0.0,7.6-0.1,11.3-0.4c1.0-0.1,2.5-0.2,4.6-0.4c2.1-0.2,3.1-0.3,3.1-0.4c0.3,3.9,0.6,6.8,0.7,8.8l-19.3,1.4l0.3,10.3c0.9-0.2,1.8-0.3,2.7-0.3c2.7,0.0,5.4,0.7,7.9,2.0c2.5,1.3,4.5,3.1,6.1,5.4c1.0,1.4,1.7,3.0,2.2,4.7c0.5,1.7,0.7,3.4,0.7,5.2c0.0,3.0-0.7,5.8-2.0,8.4c-1.5,2.8-3.6,5.1-6.3,7.0c-2.8,1.9-5.7,3.0-8.9,3.3C49.0,90.1,48.3,90.1,47.5,90.1z"/>
			</g>
		</g>
	</svg>
	<svg id="draggable" x="104" y="0">
		<use xlink:href="#defaultContent" style="stroke: #000000; stroke-width: 14; opacity: 0.2; stroke-miterlimit: 10; stroke-linecap: round; stroke-linejoin: round;" x="6" y="6"/>
		<use xlink:href="#defaultContent" style="stroke: #FFFFFF; stroke-width: 14; stroke-miterlimit: 10; stroke-linecap: round; stroke-linejoin: round;"/>
		<use xlink:href="#defaultContent"/>
	</svg>
	<svg id="grabbed" x="208" y="0">
		<use xlink:href="#defaultContent" style="stroke: #FFFFFF; stroke-width: 32; stroke-miterlimit: 10; stroke-linecap: round; stroke-linejoin: round;"/>
		<use xlink:href="#defaultContent"/>
	</svg>
</svg>
