<?xml version='1.0' encoding='UTF-8'?>
<svg xmlns="http://www.w3.org/2000/svg" xmlns:xlink="http://www.w3.org/1999/xlink" width="270" height="108"><svg x="0" y="0">
		<g id="defaultContent">
			<g>
				<g>
					<path fill="#E5DBCF" d="M68.0,69.3c-0.1-2.2-0.2-4.5-0.2-6.7c0.0-2.3,0.2-4.7,0.1-7.0c-0.1-4.8-0.2-9.6-0.2-14.5c0.1-4.6,0.1-9.2,0.0-13.9c0.0-2.7,0.6-7.9-2.1-8.2c-1.5-0.2-3.2-0.1-4.7-0.1c-1.7-0.1-3.3,0.0-5.0,0.1c-6.7,0.3-13.3,0.7-19.9,0.4c-3.3-0.2-6.5-0.5-9.8-0.5c-1.4,0.0-2.8,0.0-4.1,0.2c-1.5,0.3-2.8,0.4-3.0,2.8c-0.2,1.8,0.0,3.9,0.0,5.7c0.0,2.5-0.1,4.9,0.0,7.4c0.1,4.6-0.1,9.3,0.0,13.9c0.2,4.9,0.0,9.9-0.1,14.9c-0.1,5.2-0.1,10.3,0.0,15.4c0.0,1.9-0.3,4.2,0.6,5.8c0.9,1.6,2.5,1.6,3.8,1.7c1.7,0.1,3.5,0.2,5.2,0.1c1.2-0.1,3.2-0.6,4.2-0.2c0.7-0.2,1.6,0.1,2.3,0.1c0.7,0.0,1.4,0.1,2.1,0.1c1.8,0.1,3.6,0.1,5.3,0.1c3.3,0.0,6.6-0.1,9.9-0.1c3.3,0.0,6.6,0.0,9.8-0.1c1.1,0.0,2.4,0.1,3.5-0.2c1.5-0.4,1.8-1.7,1.8-3.7C67.8,78.3,68.1,73.8,68.0,69.3z"/>
				</g>
				<g>
					<path fill="#C9B6A1" d="M66.3,81.9c-1.2,0.3-2.4,0.2-3.6,0.2c-3.3,0.1-6.7,0.1-10.0,0.1c-3.4,0.0-6.7,0.1-10.1,0.1c-1.8,0.0-3.6,0.0-5.5-0.1c-0.7,0.0-1.5-0.1-2.2-0.1c-0.8,0.0-1.6-0.3-2.4-0.1c-1.0-0.4-3.1,0.2-4.3,0.2c-1.8,0.1-3.5,0.0-5.3-0.1c-1.4-0.1-3.0-0.1-3.9-1.8c-0.1-0.1-0.1-0.2-0.1-0.3c0.0,1.7-0.1,3.5,0.6,4.9c0.9,1.6,2.5,1.6,3.8,1.7c1.7,0.1,3.5,0.2,5.2,0.1c1.2-0.1,3.2-0.6,4.2-0.2c0.7-0.2,1.6,0.1,2.3,0.1c0.7,0.0,1.4,0.1,2.1,0.1c1.8,0.1,3.6,0.1,5.3,0.1c3.3,0.0,6.6-0.1,9.9-0.1c3.3,0.0,6.6,0.0,9.8-0.1c1.1,0.0,2.4,0.1,3.5-0.2c1.5-0.4,1.8-1.7,1.8-3.7c0.0-0.7,0.0-1.4,0.1-2.1C67.4,81.3,67.0,81.7,66.3,81.9z"/>
				</g>
			</g>
			<g>
				<path fill="#333333" d="M39.6,38.7c-4.6-0.2-8.7-0.8-12.1-1.8c0.7-2.8,1.2-5.0,1.5-6.6h0.1c4.3,1.3,8.9,1.9,13.6,1.9c4.6,0.0,9.3-0.6,14.1-1.8c0.1,0.2,0.5,1.2,1.3,2.8c0.8,1.8,1.3,2.7,1.4,2.8c-8.8,10.0-13.2,22.5-13.2,37.5c0.0,0.1,0.0,0.2,0.0,0.3l-0.1,0.3l-7.0,0.1c-0.2-1.7-0.3-3.4-0.3-5.2c0.0-4.9,0.8-9.8,2.3-14.7c2.1-6.5,4.8-11.8,8.2-15.8c-1.2,0.3-3.1,0.5-5.6,0.5C42.4,38.8,41.0,38.8,39.6,38.7z"/>
			</g>
		</g>
	</svg>
	<svg id="draggable" x="90" y="0">
		<use xlink:href="#defaultContent" style="stroke: #000000; stroke-width: 14; opacity: 0.2; stroke-miterlimit: 10; stroke-linecap: round; stroke-linejoin: round;" x="6" y="6"/>
		<use xlink:href="#defaultContent" style="stroke: #FFFFFF; stroke-width: 14; stroke-miterlimit: 10; stroke-linecap: round; stroke-linejoin: round;"/>
		<use xlink:href="#defaultContent"/>
	</svg>
	<svg id="grabbed" x="180" y="0">
		<use xlink:href="#defaultContent" style="stroke: #FFFFFF; stroke-width: 32; stroke-miterlimit: 10; stroke-linecap: round; stroke-linejoin: round;"/>
		<use xlink:href="#defaultContent"/>
	</svg>
</svg>
