<?xml version='1.0' encoding='UTF-8'?>
<svg xmlns="http://www.w3.org/2000/svg" xmlns:xlink="http://www.w3.org/1999/xlink" width="300" height="98"><svg x="0" y="0">
		<g id="defaultContent">
			<path fill="#0C8BB7" d="M81.8,50.0c0.7,18.3-18.6,32.8-36.3,29.6c-4.0-0.8-7.2-1.6-10.1-3.9c-2.1-1.2-4.0-2.7-5.7-4.3c-8.5-8.1-12.2-20.6-7.5-32.0c3.2-6.4,7.2-12.1,13.7-15.3c7.7-3.9,14.9-4.6,23.3-2.6c10.5,2.6,20.2,11.4,22.1,22.6C81.6,46.0,81.8,48.0,81.8,50.0z"/>
			<path fill="#FFFFFF" d="M52.7,69.0c0.0-0.4-0.1-1.9-0.2-4.8c-0.1-2.8-0.2-4.7-0.3-5.7c-1.5,0.0-3.7,0.1-6.5,0.3c-3.4,0.2-5.5,0.2-6.2,0.2c-0.1-0.5-0.5-1.2-1.0-2.1c-0.1-0.3-0.3-0.5-0.5-0.8c-0.2-0.3-0.3-0.5-0.3-0.6c0.6-2.8,1.6-5.6,2.9-8.4s2.9-5.5,4.7-8.3c0.9-1.4,1.9-2.9,3.2-4.4c0.6-0.8,1.2-1.5,1.8-2.1l0.9-1.0c0.0-0.0,0.2-0.2,0.4-0.5c0.2-0.3,0.4-0.4,0.6-0.5c3.1,0.0,5.4,0.0,6.9,0.1c-0.1,0.6-0.4,3.7-0.6,9.4c-0.2,3.3-0.2,6.2-0.2,8.7c0.0,1.3,0.0,2.4,0.1,3.4c1.9,0.0,3.3,0.0,4.2,0.1v1.4c0.0,0.8-0.0,1.4-0.0,1.9c-0.0,0.3-0.0,0.7-0.0,1.3l0.0,1.9c-0.8,0.0-2.1,0.1-3.8,0.1c0.1,0.9,0.2,3.3,0.5,7.4l0.2,2.9c-0.1,0.1-0.8,0.1-2.0,0.1l-3.5-0.0C53.1,68.9,52.7,68.9,52.7,69.0zM52.1,40.2c-0.9,1.4-2.0,3.2-3.2,5.3c-1.7,2.9-2.9,5.2-3.5,6.8c2.0-0.2,4.3-0.3,6.7-0.3V40.2z"/>
			<circle fill="#00FFFF" cx="50.9" cy="51.3" r="5" opacity="0"/>
		</g>
	</svg>
	<svg id="active" x="100" y="0">
		<use xlink:href="#defaultContent" style="stroke: #000000; stroke-width: 14; opacity: 0.2; stroke-miterlimit: 10; stroke-linecap: round; stroke-linejoin: round;" x="6" y="6"/>
		<use xlink:href="#defaultContent" style="stroke: #FFFFFF; stroke-width: 14; stroke-miterlimit: 10; stroke-linecap: round; stroke-linejoin: round;"/>
		<use xlink:href="#defaultContent"/>
	</svg>
	<svg id="selected" x="200" y="0">
		<use xlink:href="#defaultContent" style="stroke: #FFFFFF; stroke-width: 32; stroke-miterlimit: 10; stroke-linecap: round; stroke-linejoin: round;"/>
		<use xlink:href="#defaultContent"/>
	</svg>
</svg>
