<?xml version='1.0' encoding='UTF-8'?>
<svg xmlns="http://www.w3.org/2000/svg" xmlns:xlink="http://www.w3.org/1999/xlink" width="570" height="196"><svg x="0" y="0">
		<g id="defaultContent">
			<g>
				<g>
					<g>
						<path fill="#8E20A8" d="M69.6,64.6c-0.6-0.5-1.2-1.1-1.5-2.0c0.1,0.3-2.6,0.5-2.9,0.5c-1.0-0.1-2.0-0.6-2.8-1.2c-1.6-1.2-2.7-3.2-2.9-5.2c-0.2-2.5,0.5-3.2,2.6-3.7c2.6-0.6,1.9-3.6,3.6-5.5c1.1-0.8,2.4-1.5,3.8-1.6c1.7-0.2,2.6-0.2,4.0,0.0c0.4-2.5,2.5-4.4,4.5-5.7c1.0-0.6,2.1-0.9,3.3-1.0c-0.1-1.0-0.1-2.0,0.0-3.0c0.2-3.0,1.4-5.7,3.5-7.9c1.5-1.6,2.5-3.2,4.9-3.3c3.6-0.1,7.9,2.7,10.0,5.4c2.7,3.5,2.3,7.7-1.0,10.5c-1.1,1.0-1.4,0.8-1.2,1.9c0.3,1.5,1.2,2.6,1.3,4.2c0.4,4.4-2.3,9.2-6.6,10.6c-2.6,0.8-4.7,0.9-7.2,0.2c-1.6-0.4-1.1-0.4-1.7,1.0c-1.4,3.3-3.9,6.6-7.7,7.1C73.5,66.0,71.2,65.9,69.6,64.6z"/>
					</g>
					<g>
						<path fill="#B74DD1" d="M60.8,65.6c0.5-1.4,1.4-2.6,2.5-3.5c-1.8-1.3-3.5-3.2-4.2-5.3c-0.9-2.5-0.8-2.0-1.1-4.7c-0.1-0.9,0.1-1.9,0.2-2.7c0.3-1.6,1.3-3.6,2.4-4.6c2.1-1.9,4.7-3.0,7.6-2.6c0.4,0.1,0.9,0.2,1.4,0.3c-0.2-0.6-0.4-1.3-0.5-1.9c-0.3-2.3-0.4-4.4,0.6-6.4c0.9-1.9,2.6-3.3,4.5-3.7c1.7-0.3,3.7-0.4,5.4,0.3c-0.1-0.7-0.2-1.5-0.1-2.2c0.1-2.3,0.4-3.6,1.3-5.7c1.5-3.7,5.6-5.3,9.0-3.9c2.0,0.8,3.9,2.4,4.8,4.7c0.1,0.3,0.2,0.6,0.3,0.8c0.3,0.5,0.5,1.1,0.7,1.7c0.3-0.6,0.7-1.1,1.2-1.7c2.3-2.7,6.0-3.5,9.3-2.3c3.9,1.4,6.8,5.9,6.8,10.5c0.0,1.4-0.2,2.8-0.7,4.1c0.9-0.7,1.9-1.1,3.0-1.4c1.3-0.3,3.2,0.0,4.4,0.7c2.1,1.1,3.3,2.6,4.5,4.8c0.6,1.1,0.9,2.5,1.0,3.9c0.1,0.0,0.1,0.0,0.2,0.0c5.0,0.4,9.3,5.8,10.4,11.2c0.8,3.7-0.3,7.6-2.4,10.3c1.2,1.4,2.1,3.0,2.4,4.8c0.5,1.0,0.8,2.0,0.9,3.2c0.4,4.6-1.3,8.1-4.8,10.0c-1.0,0.5-2.0,0.8-3.1,0.9c0.5,1.1,0.9,2.3,1.2,3.4c1.3,5.4-1.6,11.0-5.9,12.7c-3.1,1.2-6.4,0.9-9.5-0.5c-1.3,3.3-3.7,5.8-7.3,6.7c-5.2,1.2-10.1-2.0-12.8-7.3c-2.4,1.7-5.2,2.4-8.3,2.3c-6.7-0.2-10.8-8.4-10.5-15.4c-5.4-0.6-10.4-3.8-13.8-9.5C59.5,73.8,59.4,69.4,60.8,65.6zM75.4,61.6c1.1-1.0,2.5-1.7,4.0-1.9c1.7-0.1,2.6-0.1,4.0,0.2c0.3-2.9,2.3-5.1,4.3-6.5c1.0-0.7,2.1-1.0,3.3-1.1c-0.1-1.2-0.2-2.3-0.2-3.5c0.1-3.9,1.3-7.3,3.8-9.7c-0.5-1.1-0.9-2.3-1.0-3.6c0.0,0.0,0.0,0.0,0.0,0.0c-1.0,1.9-2.6,3.3-4.5,3.7c-0.5,0.1-0.9,0.1-1.4,0.1c0.7,2.9,0.1,6.1-1.8,8.1c-1.4,1.5-3.1,2.2-5.0,2.1c-0.5,0.3-1.1,0.6-1.7,0.7c-0.3,0.1-0.5,0.1-0.8,0.1c0.2,0.9,0.4,1.8,0.4,2.6c0.0,2.3-0.7,4.4-2.1,5.9c-0.5,0.6-1.1,1.0-1.7,1.4c0.0,0.1,0.0,0.1-0.1,0.2c-0.1,0.1-0.1,0.3-0.2,0.4C74.9,61.2,75.2,61.4,75.4,61.6z"/>
					</g>
					<g>
						<path fill="#A124BF" d="M59.9,70.1c3.2,4.1,8.4,6.6,12.8,5.9c1.0-0.2,1.9-0.5,2.8-0.8c0.5,1.8,1.3,3.5,2.6,5.0c3.8,4.6,9.6,6.4,13.3,1.8c2.5,3.0,7.4,3.5,8.7-1.3c0.4-1.3,0.3-2.7,0.0-4.1c1.4-0.2,2.7-0.8,4.0-1.8c2.4-1.8,3.7-5.2,4.0-8.6c0.1,0.1,0.2,0.2,0.4,0.3c0.9,0.7,2.0,1.2,3.1,1.5c2.3,1.0,4.7,0.9,7.0-1.0c2.4-2.0,3.6-5.8,3.4-9.4c0.8-0.5,1.6-1.0,2.3-1.6c2.8-2.3,4.4-5.6,5.2-9.3c3.0,2.1,5.2,5.8,6.0,9.5c0.8,3.7-0.3,7.6-2.4,10.3c1.2,1.4,2.1,3.0,2.4,4.8c0.5,1.0,0.8,2.0,0.9,3.2c0.4,4.6-1.3,8.1-4.8,10.0c-1.0,0.5-2.0,0.8-3.1,0.9c0.5,1.1,0.9,2.3,1.2,3.4c1.3,5.4-1.6,11.0-5.9,12.7c-3.1,1.2-6.4,0.9-9.5-0.5c-1.3,3.3-3.7,5.8-7.3,6.7c-5.2,1.2-10.1-2.0-12.8-7.3c-2.4,1.7-5.2,2.4-8.3,2.3c-6.7-0.2-10.8-8.4-10.5-15.4c-5.4-0.6-10.4-3.8-13.8-9.5C60.3,75.2,59.8,72.6,59.9,70.1z"/>
					</g>
					<g>
						<path fill="#AF69E0" d="M97.5,39.1L97.5,39.1L97.5,39.1z"/>
					</g>
					<g>
						<path fill="#E4A0EA" d="M93.3,39.0c0.1-0.6,0.3-1.2,0.6-1.7c0.2-0.2,0.4-0.5,0.6-0.7c0.5-0.4,1.1-0.7,1.8-0.8c1.2-0.4,2.6-0.1,3.6,0.6c1.1,0.8,1.7,2.1,1.6,3.5c-0.2,1.7-1.5,3.1-3.1,3.4c-0.7,0.1-1.6,0.0-2.3-0.2c-0.4-0.2-0.8-0.4-1.2-0.6c-0.5-0.4-1.0-0.9-1.2-1.5C93.4,40.3,93.3,39.6,93.3,39.0z"/>
					</g>
					<g>
						<path fill="#E4A0EA" d="M110.9,41.1c-0.5-1.5,0.3-3.5,1.9-3.9c0.7-0.2,1.4-0.3,2.2-0.1c0.4,0.1,0.9,0.3,1.3,0.5c1.5,0.7,2.1,2.6,1.4,4.1c-0.7,1.5-2.5,2.1-4.0,1.4c-0.4,0.0-0.9-0.1-1.3-0.3C111.7,42.5,111.1,41.9,110.9,41.1z"/>
					</g>
					<g>
						<path fill="#DC52DE" d="M93.5,49.3c1.0-2.6,3.9-4.5,6.7-3.7c1.9,0.5,3.7,1.0,5.3,2.2c2.0,1.6,2.9,4.2,3.0,6.7c0.2,2.7-1.6,4.9-4.0,5.8c-1.0,0.4-2.1,0.7-3.2,0.7c-0.5,0.0-1.3,0.0-1.9-0.2c-1.5-0.5-1.7-0.6-3.0-1.5c-1.3-0.9-1.9-2.5-2.8-3.7C92.2,53.8,92.4,51.2,93.5,49.3z"/>
					</g>
					<g>
						<path fill="#DC52DE" d="M72.4,62.0c0.0-0.4-0.1-0.9-0.1-1.3c-0.2-3.0,1.6-4.9,3.8-5.6c3.3-1.0,7.5,0.6,7.8,5.0c0.0,0.4,0.1,0.9,0.1,1.3C84.6,68.9,73.0,69.5,72.4,62.0z"/>
					</g>
				</g>
				<g>
					<g>
						<path fill="#8E4BC9" d="M168.8,114.0c-0.4,6.9-3.6,12.7-8.5,16.5c4.0,5.9,4.1,15.5-2.3,19.8c-3.0,2.0-6.1,3.1-9.3,3.0c0.0,6.3-3.0,12.0-8.7,14.1c-4.0,1.5-7.6,0.8-10.5-1.4c-2.3,3.1-5.3,5.4-9.0,6.2c-5.0,1.1-10.6-2.1-12.2-7.5c-0.3-1.1-0.5-2.4-0.6-3.7c-1.1,0.5-2.2,0.9-3.4,1.0c-4.4,0.4-7.8-1.7-9.8-5.9c-0.5-1.0-0.7-2.1-0.8-3.3c-0.6-1.8-0.6-3.7-0.1-5.7c-3.4-1.1-6.4-3.9-7.5-7.6c-1.7-5.4-0.3-12.7,4.3-16.0c0.1,0.0,0.1-0.1,0.2-0.1c-0.7-1.2-1.1-2.6-1.0-4.0c0.1-2.6,0.5-4.7,1.9-6.9c0.8-1.3,2.6-2.8,4.0-3.3c1.2-0.4,2.4-0.7,3.6-0.6c-1.1-0.8-2.1-2.0-2.8-3.2c-2.3-4.0-1.8-9.7,1.3-13.2c2.6-3.0,6.6-4.6,10.3-3.6c0.7,0.2,1.3,0.4,2.0,0.7c-0.1-0.6-0.2-1.3-0.3-1.9c0.0-0.2-0.1-0.5-0.1-0.9c-0.2-2.5,0.8-5.0,2.3-7.0c2.6-3.4,7.4-4.4,10.7-2.1c1.8,1.3,2.8,2.2,4.1,4.2c0.4,0.6,0.7,1.3,1.0,2.0c1.3-1.6,3.3-2.8,5.1-3.5c2.1-0.8,4.4-0.6,6.3,0.5c2.0,1.2,3.0,2.9,3.9,5.2c0.2,0.6,0.4,1.3,0.5,2.0c0.4-0.4,0.8-0.7,1.2-1.1c2.6-2.1,5.7-2.7,8.7-2.3c1.5,0.2,3.6,1.3,4.7,2.6c0.6,0.6,1.2,1.4,1.6,2.2c1.1,2.5,0.9,2.0,1.3,4.7c0.3,2.3-0.4,5.0-1.4,7.2c1.5,0.1,3.0,0.6,4.2,1.5C166.9,105.5,169.0,109.4,168.8,114.0zM147.7,107.4c-0.1-0.1-0.3-0.1-0.4-0.2c-0.1,0.0-0.1-0.1-0.2-0.1c-0.8,0.1-1.6,0.0-2.4-0.1c-2.1-0.5-3.9-1.9-5.1-3.9c-0.4-0.7-0.8-1.6-1.0-2.5c-0.3,0.1-0.5,0.3-0.8,0.4c-0.7,0.2-1.3,0.4-2.0,0.4c-1.7,1.2-3.8,1.6-5.9,1.2c-2.9-0.7-5.1-3.0-5.9-6.0c-0.5,0.3-0.9,0.5-1.4,0.7c-2.1,0.8-4.4,0.6-6.3-0.5c0.0,0.0,0.0,0.0,0.0,0.0c0.5,1.2,0.8,2.4,0.8,3.7c3.6,0.6,6.5,2.8,8.6,6.2c0.6,1.0,1.2,2.1,1.6,3.2c1.2-0.7,2.5-1.1,3.8-1.1c2.7,0.0,5.7,0.7,7.5,3.0c1.2-1.2,2.1-1.7,3.8-2.6c1.6-0.8,3.2-1.0,4.8-0.8C147.4,108.0,147.6,107.7,147.7,107.4z"/>
					</g>
					<g>
						<path fill="#1A4F28" d="M158.9,56.6c-12.0,9.0-19.8,25.6-23.2,39.0c-1.0,3.9,3.5,5.4,4.5,1.4c3.0-11.6,13.3-25.9,23.9-34.4C163.0,60.9,160.8,58.2,158.9,56.6z"/>
					</g>
					<g>
						<path fill="#2B6D3E" d="M156.5,79.6c-5.6-3.0-11.2,2.4-15.6,9.5c1.9-4.4,5.3-12.2,1.3-15.6c-5.5-4.8-11.2,2.4-13.2,6.9c-0.5-2.3-1.5-4.6-3.4-6.6c-1.6-1.8-4.5-0.8-5.6,0.9c-5.1,7.9-3.9,18.6-3.0,27.6c0.0,0.2,0.0,0.5,0.1,0.7c0.1,1.3,0.9,2.2,1.8,2.6c4.4,4.6,10.9,6.2,17.2,6.6c1.0,0.5,2.1,0.5,3.3-0.2C146.1,107.9,170.2,86.9,156.5,79.6z"/>
					</g>
					<g>
						<path fill="#3E8951" d="M142.4,71.1c-2.8-2.7-6.9-0.9-9.2,1.3c-2.9,2.8-4.9,6.5-6.0,10.3c-1.7,5.7-3.2,14.4-0.3,19.9c0.2,0.5,0.7,0.8,1.2,0.8c1.7,2.9,4.8,4.3,9.0,1.8c6.6-3.8,7.8-14.3,8.6-21.1C146.2,79.5,145.9,74.5,142.4,71.1z"/>
					</g>
					<g>
						<path fill="#3E8951" d="M127.3,88.7c-0.5-3.2-1.2-7.9-4.2-9.7c-1.1-0.6-2.3,0.1-2.8,1.1c-2.6,4.9-2.0,12.0,0.5,17.2c0.0,1.2,0.3,2.2,1.1,3.3c1.6,2.0,4.3,1.1,5.0-1.2C127.6,96.3,127.8,92.3,127.3,88.7z"/>
					</g>
					<g>
						<path fill="#8E4BC9" d="M154.6,117.0c0.3-0.8,0.5-1.7,0.3-2.8c0.1,0.3,2.8-1.0,3.0-1.2c0.9-0.7,1.6-1.7,2.0-2.7c0.8-2.1,0.7-4.6-0.2-6.6c-1.2-2.5-2.3-2.8-4.6-2.0c-2.8,0.9-3.9-2.3-6.5-3.1c-1.5-0.2-3.1,0.0-4.6,0.6c-1.7,0.8-2.5,1.3-3.8,2.3c-1.8-2.1-4.9-2.8-7.5-2.9c-1.3,0.0-2.6,0.3-3.7,0.9c-0.5-1.0-1.0-1.9-1.7-2.9c-1.9-2.8-4.5-4.6-7.8-5.5c-2.3-0.7-4.2-1.6-6.5-0.3c-3.5,1.9-6.0,7.0-6.4,10.8c-0.5,4.8,2.1,8.6,6.9,9.4c1.6,0.3,1.8-0.1,2.2,1.2c0.5,1.6,0.4,3.1,1.1,4.7c2.1,4.4,7.4,7.4,12.3,6.2c2.9-0.7,4.9-1.8,7.0-3.9c1.3-1.3,0.8-1.0,2.1,0.0c3.2,2.3,7.5,4.1,11.3,2.3C151.6,120.6,153.7,119.0,154.6,117.0z"/>
					</g>
					<g>
						<path fill="#592B89" d="M166.7,106.4c-1.1,5.5-4.8,10.9-9.4,12.8c-1.1,0.5-2.1,0.8-3.2,1.0c0.4,1.8,0.5,3.8,0.0,5.9c-1.4,6.3-6.0,11.3-12.0,9.6c-0.8,4.1-5.4,7.5-9.2,4.1c-1.0-0.9-1.7-2.2-2.1-3.6c-1.5,0.6-3.0,0.9-4.8,0.8c-3.3-0.1-6.2-2.3-8.3-5.0c-0.1,0.2-0.1,0.3-0.2,0.5c-0.6,1.1-1.4,2.2-2.3,3.2c-1.8,2.2-4.2,3.6-7.3,3.4c-3.4-0.3-6.5-2.8-8.1-6.1c-1.0,0.0-2.0,0.0-3.0-0.1c-3.9-0.3-7.1-2.2-9.8-5.0c-1.8,3.6-2.1,8.2-0.9,11.9c1.2,3.7,4.1,6.4,7.5,7.6c-0.5,1.9-0.5,3.9,0.1,5.7c0.1,1.1,0.3,2.3,0.8,3.3c2.0,4.2,5.4,6.3,9.8,5.9c1.2-0.1,2.4-0.5,3.4-1.0c0.1,1.3,0.3,2.5,0.6,3.7c1.5,5.5,7.2,8.6,12.2,7.5c3.7-0.8,6.7-3.1,9.0-6.2c2.9,2.1,6.5,2.8,10.5,1.4c5.7-2.1,8.7-7.9,8.7-14.1c3.2,0.0,6.3-1.1,9.3-3.0c6.4-4.3,6.3-13.8,2.3-19.8c5.0-3.8,8.1-9.6,8.5-16.5C168.9,111.1,168.2,108.5,166.7,106.4z"/>
					</g>
					<g>
						<path fill="#AF69E0" d="M119.8,115.9c-1.2-1.9-3.4-2.9-5.5-3.4c-2.2-0.5-4.2,0.3-6.1,1.4c-0.5,0.3-1.0,0.7-1.3,1.1c-1.6,0.6-3.0,1.8-4.1,3.2c-2.3,2.9-2.9,6.7-1.8,10.2c0.8,2.7,2.9,5.1,5.5,6.2c3.2,1.5,6.5,0.8,9.4-1.0c3.3-2.0,5.4-6.2,5.8-9.8C121.8,121.0,121.4,118.4,119.8,115.9z"/>
					</g>
					<g>
						<path fill="#AF69E0" d="M139.8,103.2c-1.3-1.8-4.0-3.3-6.3-2.9c-0.6,0.1-1.2,0.2-1.8,0.4c-0.6,0.2-1.1,0.5-1.5,0.8c-1.3,0.5-2.5,1.4-3.3,2.5c-1.2,1.6-1.8,3.1-2.3,5.0c-0.8,2.7,0.5,5.6,2.5,7.4c2.0,1.9,5.0,2.0,7.4,1.1c1.6-0.6,2.9-1.7,4.0-3.0c1.3-1.4,1.8-3.0,2.4-4.8C141.6,107.7,141.1,105.0,139.8,103.2z"/>
					</g>
					<g>
						<path fill="#AF69E0" d="M115.9,103.1L115.9,103.1L115.9,103.1z"/>
					</g>
					<g>
						<path fill="#C9A0EA" d="M119.7,100.6c-0.4-0.6-0.9-1.0-1.6-1.3c-0.3-0.1-0.7-0.2-1.0-0.3c-0.7-0.1-1.4,0.0-2.1,0.2c-1.3,0.3-2.5,1.4-3.0,2.6c-0.6,1.4-0.5,3.0,0.4,4.2c1.1,1.5,3.1,2.1,4.9,1.4c0.8-0.3,1.5-0.9,2.1-1.5c0.3-0.4,0.5-0.9,0.8-1.3c0.3-0.7,0.4-1.4,0.3-2.1C120.4,101.8,120.2,101.2,119.7,100.6z"/>
					</g>
					<g>
						<path fill="#AF69E0" d="M159.2,113.0c-0.3-0.5-0.5-1.0-0.8-1.5c-0.7-0.9-1.5-1.6-2.5-2.1c0.0,0.0-0.1,0.0-0.1-0.1c0.5,0.3,0.9,0.6,1.4,0.9c-0.5-0.3-1.0-0.7-1.6-1.0c-1.1-0.5-2.2-0.7-3.3-0.5c-1.7,0.2-3.2,1.0-4.3,2.3c-1.1,1.3-1.6,3.0-1.4,4.7c0.1,0.6,0.3,1.1,0.4,1.7c0.4,1.0,1.1,1.9,1.9,2.6c0.5,0.5,1.1,0.7,1.7,1.1c0.5,0.2,1.1,0.3,1.6,0.5c1.2,0.2,2.3,0.1,3.4-0.3c1.5-0.6,2.8-1.8,3.5-3.3C159.8,116.4,159.9,114.6,159.2,113.0z"/>
					</g>
				</g>
				<g>
					<g>
						<path fill="#3634BA" d="M29.0,92.2c1.5-0.8,3.2-1.0,4.9-0.9c-0.5-2.5-0.7-5.5,0.2-7.9c1.1-2.9,0.8-2.4,2.5-4.8c0.6-0.8,1.5-1.5,2.2-2.1c1.4-1.1,3.9-2.0,5.6-2.0c3.3,0.1,6.5,1.2,8.7,3.9c0.3,0.4,0.7,0.9,1.0,1.3c0.3-0.7,0.6-1.4,1.0-2.1c1.5-2.2,3.0-4.0,5.4-4.9c2.3-0.8,4.9-0.7,6.9,0.5c1.7,1.1,3.6,2.6,4.6,4.6c0.5-0.7,1.0-1.4,1.6-2.0c1.8-1.9,3.1-2.7,5.4-3.8c4.1-1.9,9.0,0.0,10.9,4.0c1.1,2.3,1.6,5.1,0.8,7.8c-0.1,0.4-0.2,0.7-0.3,0.9c-0.2,0.7-0.4,1.3-0.7,2.0c0.7-0.2,1.5-0.4,2.3-0.5c4.1-0.4,8.0,1.9,10.1,5.5c2.4,4.3,1.6,10.4-1.9,14.3c-1.0,1.2-2.4,2.2-3.8,2.9c1.3,0.1,2.5,0.6,3.7,1.3c1.4,0.8,2.8,2.6,3.4,4.2c1.0,2.6,0.9,4.8,0.3,7.7c-0.3,1.5-1.1,2.8-2.1,4.1c0.1,0.1,0.1,0.1,0.2,0.2c4.2,4.4,3.8,12.4,0.7,17.8c-2.1,3.7-6.0,6.2-9.9,6.8c0.0,2.1-0.4,4.2-1.5,6.0c-0.3,1.2-0.9,2.4-1.6,3.4c-3.2,4.2-7.3,5.8-11.9,4.6c-1.3-0.3-2.4-0.9-3.4-1.7c-0.4,1.4-0.9,2.7-1.5,3.8c-3.0,5.6-9.8,8.0-14.8,6.0c-3.7-1.5-6.4-4.4-8.1-8.1c-3.6,1.8-7.7,1.9-11.6-0.3c-5.5-3.2-7.4-9.8-5.8-16.5c-3.4-0.5-6.5-2.2-9.1-4.8c-5.8-5.6-3.3-15.8,2.4-21.5c-4.4-4.9-6.3-11.6-5.1-19.1C21.6,98.1,24.8,94.3,29.0,92.2zM45.0,100.6c1.8,0.1,3.5,0.5,5.0,1.6c1.6,1.3,2.4,2.0,3.4,3.4c2.5-2.2,5.9-2.4,8.8-2.0c1.4,0.2,2.6,0.9,3.7,1.8c0.8-1.1,1.6-2.1,2.5-3.1c3.1-3.3,6.7-5.1,10.7-5.2c0.4-1.4,0.9-2.7,1.8-3.8c0.0,0.0,0.0,0.0,0.0,0.0c-2.3,0.9-4.8,0.7-6.9-0.5c-0.5-0.3-0.9-0.6-1.4-1.0c-1.6,3.0-4.5,5.2-7.8,5.4c-2.3,0.2-4.4-0.7-6.0-2.2c-0.7-0.2-1.4-0.4-2.1-0.8c-0.3-0.2-0.5-0.3-0.8-0.5c-0.5,1.0-1.0,1.8-1.7,2.5c-1.7,1.9-4.0,3.1-6.3,3.3c-0.9,0.1-1.7,0.0-2.6-0.2c-0.1,0.0-0.1,0.1-0.2,0.1c-0.2,0.1-0.3,0.1-0.5,0.2C44.9,99.8,45.0,100.2,45.0,100.6z"/>
					</g>
					<g>
						<path fill="#236B36" d="M44.9,42.0c10.8,12.0,15.6,31.1,16.5,46.0c0.3,4.3-4.8,4.9-5.1,0.6c-0.8-12.9-8.7-30.1-18.2-41.3C39.6,45.7,42.6,43.4,44.9,42.0z"/>
					</g>
					<g>
						<path fill="#34854B" d="M42.7,66.8c6.6-2.0,11.4,4.9,14.6,13.3c-1.1-5.0-3.1-14.0,1.9-16.8c6.8-3.9,11.4,4.9,12.6,10.1c1.0-2.4,2.5-4.5,4.9-6.3c2.1-1.6,4.9,0.0,5.7,2.1c3.7,9.4,0.3,20.5-2.5,29.8c0.0,0.3-0.1,0.5-0.2,0.8c-0.4,1.3-1.4,2.1-2.5,2.4c-5.6,3.9-12.8,4.3-19.6,3.4c-1.1,0.3-2.4,0.1-3.4-0.9C47.9,98.9,26.7,71.7,42.7,66.8z"/>
					</g>
					<g>
						<path fill="#4AA360" d="M59.4,60.8c3.5-2.3,7.5,0.4,9.5,3.3c2.5,3.6,3.9,7.9,4.3,12.2c0.6,6.4,0.4,15.8-3.8,21.1c-0.3,0.4-0.9,0.7-1.5,0.6c-2.3,2.7-6.0,3.5-9.9,0.0c-6.2-5.4-5.3-16.7-4.7-24.1C53.7,68.9,55.0,63.6,59.4,60.8z"/>
					</g>
					<g>
						<path fill="#4AA360" d="M71.8,82.5c1.2-3.3,2.9-8.2,6.5-9.4c1.2-0.4,2.5,0.6,2.8,1.7c1.7,5.7-0.4,13.1-4.0,18.1c-0.3,1.3-0.7,2.3-1.8,3.3c-2.1,1.8-4.7,0.2-5.0-2.3C69.8,90.4,70.4,86.2,71.8,82.5z"/>
					</g>
					<g>
						<path fill="#3634BA" d="M37.1,106.7c-0.2-0.9-0.1-1.9,0.2-3.0c-0.1,0.3-2.7-1.7-2.9-1.9c-0.8-0.9-1.3-2.1-1.6-3.3c-0.5-2.4,0.2-5.0,1.6-7.0c1.8-2.4,3.0-2.5,5.3-1.2c2.8,1.6,4.6-1.6,7.5-2.0c1.7,0.1,3.3,0.6,4.7,1.6c1.7,1.2,2.4,1.9,3.5,3.2c2.4-1.9,5.7-2.0,8.6-1.5c1.4,0.2,2.6,0.9,3.8,1.7c0.7-0.9,1.5-1.9,2.3-2.7c2.6-2.5,5.8-3.9,9.4-4.2c2.6-0.2,4.8-0.8,7.0,1.0c3.3,2.8,4.9,8.6,4.5,12.8c-0.4,5.2-4.0,8.7-9.2,8.5c-1.8-0.1-1.9-0.4-2.6,0.8c-0.9,1.5-1.0,3.2-2.2,4.7c-3.2,4.2-9.3,6.3-14.3,4.1c-2.9-1.3-4.8-3.0-6.6-5.6c-1.1-1.6-0.7-1.2-2.2-0.5c-3.8,1.8-8.8,2.8-12.4,0.1C39.5,111.2,37.5,109.1,37.1,106.7z"/>
					</g>
					<g>
						<path fill="#2A289E" d="M24.8,95.3c-0.2,6.1,2.5,12.4,6.9,15.3c1.0,0.7,2.1,1.2,3.2,1.6c-0.9,1.9-1.4,4.0-1.5,6.3c-0.1,6.9,3.7,13.1,10.5,12.3c-0.1,4.5,3.9,8.9,8.8,5.9c1.3-0.8,2.4-2.0,3.1-3.5c1.4,0.9,3.0,1.4,4.9,1.7c3.6,0.4,7.2-1.4,10.1-4.0c0.0,0.2,0.1,0.4,0.1,0.5c0.3,1.3,0.9,2.6,1.7,3.8c1.3,2.7,3.5,4.6,6.9,4.8c3.7,0.2,7.6-2.0,10.2-5.2c1.1,0.2,2.2,0.4,3.3,0.4c4.2,0.3,8.1-1.2,11.7-3.7c1.1,4.2,0.2,9.1-1.9,12.9c-2.1,3.7-6.0,6.2-9.9,6.8c0.0,2.1-0.4,4.2-1.5,6.0c-0.3,1.2-0.9,2.4-1.6,3.4c-3.2,4.2-7.3,5.8-11.9,4.6c-1.3-0.3-2.4-0.9-3.4-1.7c-0.4,1.4-0.9,2.7-1.5,3.8c-3.0,5.6-9.8,8.0-14.8,6.0c-3.7-1.5-6.4-4.4-8.1-8.1c-3.6,1.8-7.7,1.9-11.6-0.3c-5.5-3.2-7.4-9.8-5.8-16.5c-3.4-0.5-6.5-2.2-9.1-4.8c-5.8-5.6-3.3-15.8,2.4-21.5c-4.4-4.9-6.3-11.6-5.1-19.1C21.3,100.0,22.7,97.3,24.8,95.3z"/>
					</g>
					<g>
						<path fill="#5654C4" d="M55.5,95.2c1.8-1.7,4.9-2.7,7.3-1.7c0.6,0.2,1.2,0.5,1.8,0.8c0.6,0.3,1.0,0.7,1.4,1.2c1.3,0.8,2.4,2.0,3.0,3.3c0.9,1.9,1.2,3.6,1.4,5.8c0.3,3.0-1.7,5.8-4.2,7.3c-2.5,1.6-5.7,1.1-8.1-0.3c-1.6-0.9-2.7-2.4-3.6-3.9c-1.1-1.7-1.3-3.6-1.5-5.5C52.7,99.7,53.8,96.8,55.5,95.2z"/>
					</g>
					<g>
						<path fill="#AF69E0" d="M80.8,100.0L80.8,100.0L80.8,100.0z"/>
					</g>
					<g>
						<path fill="#6678D4" d="M55.8,118.1c0.6-0.5,1.2-0.9,1.9-1.0c0.4,0.0,0.7-0.1,1.1-0.1c0.8,0.0,1.5,0.2,2.2,0.7c1.3,0.6,2.3,2.0,2.7,3.4c0.3,1.6-0.1,3.2-1.3,4.4c-1.5,1.4-3.7,1.6-5.5,0.5c-0.8-0.5-1.5-1.2-1.9-2.0c-0.3-0.5-0.4-1.0-0.6-1.5c-0.2-0.8-0.2-1.5,0.1-2.3C54.8,119.3,55.2,118.7,55.8,118.1z"/>
					</g>
					<g>
						<path fill="#5654C4" d="M32.9,101.5c0.4-0.5,0.8-0.9,1.1-1.4c0.9-0.8,1.9-1.4,3.1-1.7c0.0,0.0,0.1,0.0,0.1,0.0c-0.5,0.2-1.1,0.4-1.7,0.6c0.6-0.3,1.2-0.5,1.9-0.7c1.2-0.3,2.4-0.3,3.6,0.1c1.7,0.5,3.2,1.7,4.1,3.3c0.9,1.6,1.0,3.5,0.5,5.3c-0.3,0.6-0.5,1.1-0.8,1.7c-0.7,1.0-1.5,1.8-2.6,2.4c-0.6,0.4-1.3,0.5-2.0,0.8c-0.6,0.1-1.2,0.1-1.8,0.2c-1.3,0.0-2.4-0.4-3.5-1.1c-1.5-1.0-2.6-2.5-3.0-4.2C31.6,105.0,32.0,103.1,32.9,101.5z"/>
					</g>
				</g>
			</g>
			<g>
				<path fill="#FFFFFF" d="M88.7,136.4c-2.4,0.0-4.7-0.3-6.9-1.0c0.2,0.0,0.7-1.1,1.5-3.5c0.8-2.3,1.5-4.2,1.9-5.5c0.1,0.0,0.6,0.1,1.6,0.3c1.1,0.3,2.1,0.5,2.9,0.5c2.6,0.0,5.1-0.8,7.3-2.5c3.3-2.4,5.8-6.1,7.3-10.9l-0.3,0.1c-3.5,2.1-7.0,3.2-10.7,3.2c-1.2,0.0-2.4-0.1-3.6-0.3c-5.2-1.1-9.0-3.8-11.4-8.3c-1.5-2.9-2.3-6.0-2.3-9.3c0.0-2.9,0.6-5.6,1.7-8.3c1.1-2.7,2.8-5.0,4.9-6.9c1.8-1.6,3.9-2.8,6.1-3.7c2.2-0.9,4.6-1.3,7.0-1.3c1.8,0.0,3.6,0.3,5.5,0.8c5.9,1.7,9.9,5.5,11.9,11.4c1.0,3.1,1.6,6.5,1.8,10.3l0.0,1.3c0.0,3.2-0.4,6.5-1.2,9.8c-1.0,4.0-2.4,7.6-4.2,11.0c-1.9,3.4-4.3,6.1-7.2,8.3c-2.0,1.5-4.2,2.6-6.5,3.4C93.5,136.0,91.1,136.4,88.7,136.4zM96.0,87.2c-2.0,0.0-3.8,0.6-5.6,1.7c-1.7,1.1-3.1,2.6-4.2,4.5c-1.0,1.8-1.6,3.7-1.6,5.6c0.0,1.3,0.3,2.5,0.8,3.6c0.5,1.2,1.3,2.2,2.3,3.1c0.9,0.8,2.0,1.5,3.3,1.9c1.3,0.4,2.6,0.7,3.9,0.7c1.9,0.0,3.6-0.4,5.2-1.2c1.6-0.8,2.8-2.0,3.7-3.5c0.9-1.7,1.4-3.6,1.4-5.7c0.0-2.0-0.4-3.8-1.2-5.5c-0.8-1.7-2.0-3.0-3.4-3.9C99.1,87.6,97.6,87.2,96.0,87.2z"/>
			</g>
			<g>
				<circle fill="#FF00FF" cx="94.4" cy="83.7" r="10" opacity="0"/>
			</g>
		</g>
	</svg>
	<svg id="draggable" x="190" y="0">
		<use xlink:href="#defaultContent" style="stroke: #000000; stroke-width: 14; opacity: 0.2; stroke-miterlimit: 10; stroke-linecap: round; stroke-linejoin: round;" x="6" y="6"/>
		<use xlink:href="#defaultContent" style="stroke: #FFFFFF; stroke-width: 14; stroke-miterlimit: 10; stroke-linecap: round; stroke-linejoin: round;"/>
		<use xlink:href="#defaultContent"/>
	</svg>
	<svg id="grabbed" x="380" y="0">
		<use xlink:href="#defaultContent" style="stroke: #FFFFFF; stroke-width: 32; stroke-miterlimit: 10; stroke-linecap: round; stroke-linejoin: round;"/>
		<use xlink:href="#defaultContent"/>
	</svg>
</svg>
