<?xml version='1.0' encoding='UTF-8'?>
<svg xmlns="http://www.w3.org/2000/svg" xmlns:xlink="http://www.w3.org/1999/xlink" width="64" height="88"><g id="numCard1">
		<path fill="#E5DBCF" d="M62.0,64.0c-0.1-2.8-0.3-5.5-0.3-8.3c0.0-2.9,0.2-5.8,0.1-8.7c-0.1-6.0-0.3-11.9-0.2-17.9c0.1-5.7,0.1-11.5,0.0-17.2c-0.0-3.3,0.8-9.8-2.6-10.2c-1.9-0.2-3.9-0.1-5.8-0.1c-2.1-0.1-4.1-0.0-6.2,0.1c-8.2,0.4-16.5,0.9-24.7,0.5c-4.0-0.2-8.1-0.6-12.1-0.6c-1.7-0.0-3.4-0.0-5.1,0.3c-1.8,0.3-3.5,0.5-3.7,3.4c-0.2,2.3-0.0,4.8-0.0,7.1c0.0,3.0-0.1,6.1-0.1,9.1c0.1,5.7-0.2,11.5,0.1,17.2c0.2,6.1-0.0,12.3-0.1,18.4c-0.1,6.4-0.1,12.7-0.0,19.1c0.0,2.4-0.4,5.2,0.8,7.2c1.1,2.0,3.0,2.0,4.7,2.1c2.2,0.2,4.3,0.2,6.5,0.1c1.5-0.1,4.0-0.8,5.2-0.3c0.9-0.2,2.0,0.1,2.9,0.2c0.9,0.0,1.8,0.1,2.6,0.1c2.2,0.1,4.4,0.1,6.6,0.1c4.1-0.0,8.2-0.1,12.2-0.1c4.1-0.0,8.1-0.1,12.2-0.2c1.4-0.0,3.0,0.1,4.4-0.2c1.8-0.5,2.2-2.2,2.3-4.6C61.8,75.2,62.2,69.5,62.0,64.0z"/>
		<path fill="#C9B6A1" d="M59.9,79.6c-1.4,0.4-3.0,0.2-4.5,0.2c-4.1,0.1-8.3,0.2-12.4,0.2c-4.2,0.0-8.3,0.1-12.5,0.1c-2.3,0.0-4.5-0.0-6.8-0.1c-0.9-0.0-1.8-0.1-2.7-0.1c-0.9-0.0-2.0-0.4-3.0-0.2c-1.3-0.5-3.8,0.2-5.3,0.3c-2.2,0.1-4.4,0.1-6.6-0.1c-1.7-0.1-3.7-0.1-4.8-2.2c-0.1-0.1-0.1-0.2-0.2-0.3c-0.1,2.1-0.2,4.3,0.8,6.0c1.1,2.0,3.0,2.0,4.7,2.1c2.2,0.2,4.3,0.2,6.5,0.1c1.5-0.1,4.0-0.8,5.2-0.3c0.9-0.2,2.0,0.1,2.9,0.2c0.9,0.0,1.8,0.1,2.6,0.1c2.2,0.1,4.4,0.1,6.6,0.1c4.1-0.0,8.2-0.1,12.2-0.1c4.1-0.0,8.1-0.1,12.2-0.2c1.4-0.0,3.0,0.1,4.4-0.2c1.8-0.5,2.2-2.2,2.3-4.6c0.0-0.9,0.1-1.7,0.1-2.6C61.4,78.9,60.8,79.4,59.9,79.6z"/>
		<path fill="#333333" d="M47.2,67.2c-0.0,0.7-0.0,1.5-0.0,2.6c0.0,0.9,0.0,1.5,0.0,1.8c-3.5-0.0-5.9-0.1-7.3-0.1c-8.5,0.0-14.8,0.3-18.8,0.8c-0.2-2.8-0.5-5.5-1.0-8.3c2.3-0.4,5.1-0.8,8.3-1.0c-0.2-3.1-0.4-6.9-0.4-11.4c0.0-5.6,0.2-12.1,0.7-19.6c-1.0,1.5-2.1,2.8-3.4,3.9c-1.3,1.1-2.8,2.1-4.5,3.0c-1.5-2.7-3.1-5.0-4.9-6.8c3.1-1.8,6.0-4.2,8.5-7.1c1.9-2.2,3.4-4.1,4.5-5.8c1.1-1.7,2.0-3.3,2.6-4.8c0.4,0.3,1.1,0.6,2.1,1.0c1.0,0.3,2.5,0.8,4.4,1.3l3.2,1.0c-1.8,6.7-2.7,15.8-2.9,27.4v3.0c0.0,6.0,0.2,10.9,0.6,14.9c2.9,0.0,5.6,0.1,8.2,0.3v0.3C47.3,64.0,47.3,65.2,47.2,67.2z"/>
		<circle fill="#00FFFF" cx="31.6" cy="46.7" r="5" opacity="0"/>
	</g>
</svg>
