<?xml version='1.0' encoding='UTF-8'?>
<svg xmlns="http://www.w3.org/2000/svg" xmlns:xlink="http://www.w3.org/1999/xlink" width="264" height="106"><svg x="0" y="0">
		<g id="defaultContent">
			<g>
				<path fill="#E5DBCF" d="M68.6,70.2c-0.1-2.2-0.2-4.5-0.2-6.7c0.0-2.3,0.2-4.7,0.1-7.0c-0.1-4.8-0.2-9.6-0.2-14.5c0.1-4.6,0.1-9.2,0.0-13.9c-0.0-2.7,0.6-7.9-2.1-8.2c-1.5-0.2-3.2-0.1-4.7-0.1c-1.7-0.1-3.3-0.0-5.0,0.1c-6.7,0.3-13.3,0.7-19.9,0.4c-3.3-0.2-6.5-0.5-9.8-0.5c-1.4-0.0-2.8-0.0-4.1,0.2c-1.5,0.3-2.8,0.4-3.0,2.8c-0.2,1.8-0.0,3.9-0.0,5.7c0.0,2.5-0.1,4.9-0.0,7.4c0.1,4.6-0.1,9.3,0.0,13.9c0.2,4.9,0.0,9.9-0.1,14.9c-0.1,5.2-0.1,10.3-0.0,15.4c0.0,1.9-0.3,4.2,0.6,5.8c0.9,1.6,2.5,1.6,3.8,1.7c1.7,0.1,3.5,0.2,5.2,0.1c1.2-0.1,3.2-0.6,4.2-0.2c0.7-0.2,1.6,0.1,2.3,0.1c0.7,0.0,1.4,0.1,2.1,0.1c1.8,0.1,3.6,0.1,5.3,0.1c3.3-0.0,6.6-0.1,9.9-0.1c3.3-0.0,6.5-0.0,9.8-0.1c1.1-0.0,2.4,0.1,3.5-0.2c1.5-0.4,1.8-1.7,1.8-3.7C68.5,79.2,68.8,74.7,68.6,70.2z"/>
			</g>
			<g>
				<path fill="#C9B6A1" d="M66.9,82.8c-1.2,0.3-2.4,0.2-3.6,0.2c-3.3,0.1-6.7,0.1-10.0,0.1c-3.4,0.0-6.7,0.1-10.1,0.1c-1.8,0.0-3.6-0.0-5.5-0.1c-0.7-0.0-1.4-0.1-2.2-0.1c-0.8-0.0-1.6-0.3-2.4-0.1c-1.0-0.4-3.1,0.2-4.3,0.2c-1.8,0.1-3.5,0.0-5.3-0.1c-1.4-0.1-3.0-0.1-3.9-1.8c-0.1-0.1-0.1-0.2-0.1-0.3c-0.0,1.7-0.1,3.5,0.6,4.9c0.9,1.6,2.5,1.6,3.8,1.7c1.7,0.1,3.5,0.2,5.2,0.1c1.2-0.1,3.2-0.6,4.2-0.2c0.7-0.2,1.6,0.1,2.3,0.1c0.7,0.0,1.4,0.1,2.1,0.1c1.8,0.1,3.6,0.1,5.3,0.1c3.3-0.0,6.6-0.1,9.9-0.1c3.3-0.0,6.5-0.0,9.8-0.1c1.1-0.0,2.4,0.1,3.5-0.2c1.5-0.4,1.8-1.7,1.8-3.7c0.0-0.7,0.0-1.4,0.1-2.1C68.1,82.2,67.7,82.6,66.9,82.8z"/>
			</g>
			<g>
				<path fill="#333333" d="M38.6,76.0c-1.9,0.0-3.8-0.3-5.5-0.8c0.1,0.0,0.5-0.9,1.2-2.8c0.7-1.9,1.2-3.3,1.5-4.4c0.1,0.0,0.5,0.1,1.3,0.3c0.9,0.3,1.7,0.4,2.3,0.4c2.1,0.0,4.0-0.7,5.9-2.0c2.7-2.0,4.6-4.9,5.8-8.7l-0.2,0.1c-2.8,1.7-5.6,2.5-8.6,2.5c-1.0,0.0-1.9-0.1-2.8-0.3c-4.2-0.9-7.2-3.1-9.1-6.7c-1.2-2.3-1.8-4.8-1.8-7.5c0.0-2.3,0.5-4.5,1.4-6.6c0.9-2.1,2.2-4.0,3.9-5.5c1.5-1.3,3.1-2.3,4.9-3.0c1.8-0.7,3.7-1.0,5.6-1.0c1.5,0.0,2.9,0.2,4.4,0.6c4.7,1.4,7.9,4.4,9.5,9.1c0.8,2.5,1.3,5.2,1.4,8.2l0.0,1.0c0.0,2.6-0.3,5.2-0.9,7.8c-0.8,3.2-1.9,6.1-3.4,8.8c-1.5,2.7-3.4,4.9-5.7,6.6c-1.6,1.2-3.3,2.1-5.2,2.7S40.5,76.0,38.6,76.0zM44.4,36.7c-1.6,0.0-3.1,0.5-4.5,1.4c-1.4,0.9-2.5,2.1-3.3,3.6c-0.8,1.5-1.2,3.0-1.2,4.5c0.0,1.0,0.2,2.0,0.6,2.9c0.4,0.9,1.0,1.8,1.9,2.5c0.7,0.7,1.6,1.2,2.7,1.5s2.1,0.5,3.1,0.5c1.5,0.0,2.9-0.3,4.2-1.0c1.3-0.7,2.3-1.6,3.0-2.8c0.7-1.3,1.1-2.9,1.1-4.5c0.0-1.6-0.3-3.1-1.0-4.4s-1.6-2.4-2.8-3.1C46.9,37.0,45.7,36.7,44.4,36.7z"/>
			</g>
			<g>
				<circle fill="#00FFFF" cx="44.1" cy="55.8" r="5" opacity="0"/>
			</g>
		</g>
	</svg>
	<svg id="draggable" x="88" y="0">
		<use xlink:href="#defaultContent" style="stroke: #000000; stroke-width: 14; opacity: 0.2; stroke-miterlimit: 10; stroke-linecap: round; stroke-linejoin: round;" x="6" y="6"/>
		<use xlink:href="#defaultContent" style="stroke: #FFFFFF; stroke-width: 14; stroke-miterlimit: 10; stroke-linecap: round; stroke-linejoin: round;"/>
		<use xlink:href="#defaultContent"/>
	</svg>
	<svg id="grabbed" x="176" y="0">
		<use xlink:href="#defaultContent" style="stroke: #FFFFFF; stroke-width: 32; stroke-miterlimit: 10; stroke-linecap: round; stroke-linejoin: round;"/>
		<use xlink:href="#defaultContent"/>
	</svg>
</svg>
