<?xml version='1.0' encoding='UTF-8'?>
<svg xmlns="http://www.w3.org/2000/svg" xmlns:xlink="http://www.w3.org/1999/xlink" version="1.1" x="0px" y="0px" width="78px" height="76px" viewBox="0 0 78 76" enable-background="new 0 0 78 76" xml:space="preserve"><g id="nut1">
		<g>
			<path fill="#AF8E17" d="M48.6,24.9c-16.0-18.1-29.2-9.6-29.2-8.6c-11.6,10.4-24.6,34.2-15.4,49.2c-0.1,0.0,2.6,4.6,5.9,6.2c7.4,5.2,17.9,4.1,25.9,1.3c5.3-1.8,10.1-4.7,14.7-7.8c5.4-3.7,7.4-4.0,11.6-9.0C68.8,48.2,55.3,32.5,48.6,24.9z"/>
			<path fill="#AF8417" d="M48.6,24.9c-1.9-2.1-3.7-3.9-5.5-5.3c-2.8,6.2-8.1,11.5-13.4,15.4c-5.2,3.8-11.1,7.3-17.4,8.8c-2.7,0.6-6.7,1.4-10.2,1.0c-1.9,7.3-1.7,14.7,1.9,20.7c-0.1,0.0,2.6,4.6,5.9,6.2c7.4,5.2,17.9,4.1,25.9,1.3c5.3-1.8,10.1-4.7,14.7-7.8c5.4-3.7,7.4-4.0,11.6-9.0C68.8,48.2,55.3,32.5,48.6,24.9z"/>
			<g>
				<path fill="#633B1B" d="M59.2,22.9c0.3-0.3,0.7-0.5,1.2-0.6c0.4-0.1,0.9-0.2,1.4-0.4c3.5-1.6,7.7-2.4,11.8-2.1c1.2-0.0,2.3-0.0,3.4,0.1c0.1-0.0,0.1-0.0,0.2-0.0c0.1-1.9,0.2-3.7,0.4-5.6c0.1-0.9,0.2-1.8,0.3-2.7c-0.5-0.2-1.0-0.4-1.6-0.5c-3.4-0.6-7.2,0.1-10.3,1.6c-2.8,1.4-6.0,3.0-7.4,6.0C57.9,20.2,58.2,21.9,59.2,22.9z"/>
				<g>
					<path fill="#874E10" d="M74.3,39.8c-6.1-19.8-26.1-44.8-49.5-38.6c-5.6,1.2-9.4,10.2-4.0,13.6c12.4,9.1,25.6,17.6,30.1,31.3c0.5,1.4,1.2,7.7,1.9,10.0c0.4,1.4,1.0,2.7,1.7,4.0c1.0,1.6,2.4,3.0,3.9,4.0s3.4,1.6,5.3,1.8c9.6-0.2,15.7-9.8,12.7-18.3C76.0,44.9,75.2,42.4,74.3,39.8z"/>
				</g>
				<path fill="#995812" d="M28.4,5.0c-0.0-0.0-0.0-0.0-0.1-0.0c-1.2,0.7-2.5,1.3-3.7,2.0c1.2,1.2,2.3,2.6,3.2,4.0c0.5-0.1,0.9-0.3,1.3-0.7l0.0,0.0c-0.2-1.7-0.3-3.3-0.4-5.0C28.7,5.2,28.6,5.1,28.4,5.0z"/>
				<path fill="#995812" d="M34.5,9.2c-0.2,0.2-0.5,0.3-0.7,0.3c-0.1,0.6-0.0,1.3,0.3,1.9c1.5-0.1,3.0-0.2,4.5-0.3c0.3-0.0,0.6,0.0,0.8,0.1c0.1-1.8,0.4-3.5,0.7-5.2C38.2,7.0,36.3,8.0,34.5,9.2z"/>
				<path fill="#663B0C" d="M43.7,19.9c-0.2-1.4-0.4-2.8-0.5-4.2c-0.4-0.2-0.9-0.3-1.4-0.2c-1.0,0.1-1.8,0.9-2.1,1.8c-0.3,0.3-0.5,0.7-0.5,1.2c-0.0,0.3-0.0,0.6-0.1,1.0C40.7,19.5,42.2,19.6,43.7,19.9z"/>
				<path fill="#663B0C" d="M49.6,9.1c-0.2-0.4-0.6-0.6-1.0-0.8c-1.1,0.7-2.3,1.4-3.3,2.1c2.1,1.1,4.0,2.6,5.8,4.2c-0.2-1.4-0.4-2.9-0.4-4.3C50.3,10.0,49.9,9.6,49.6,9.1z"/>
				<path fill="#663B0C" d="M55.2,23.2c-0.2,0.6-0.3,1.1-0.4,1.7c-0.0,0.1-0.0,0.2-0.0,0.2c0.9,0.4,1.7,0.9,2.3,1.2c0.5,0.3,1.1,0.6,1.7,0.9c0.2-2.1,0.4-4.2,0.7-6.3c-0.1-0.1-0.3-0.2-0.5-0.3C57.7,21.5,56.4,22.3,55.2,23.2z"/>
				<path fill="#663B0C" d="M54.3,32.6c-0.0-0.0-0.1-0.0-0.1-0.0c-0.4-0.0-0.7,0.0-1.1,0.1c-0.6,1.0-1.2,2.1-1.8,3.1c0.0,0.1,0.0,0.3,0.1,0.4c1.7,1.2,3.2,2.5,4.6,4.0c0.4-0.2,0.7-0.5,0.9-0.9C55.9,37.1,55.0,34.9,54.3,32.6z"/>
				<path fill="#995812" d="M66.0,37.8c0.1-1.6,0.2-3.1,0.5-4.7c-0.7-0.7-1.4-1.3-2.1-2.0c-0.1,0.0-0.2,0.0-0.2,0.0c-1.2,0.2-2.0,1.2-2.1,2.4c-0.1,0.6-0.1,1.2-0.0,1.7C63.4,36.0,64.7,36.9,66.0,37.8z"/>
				<path fill="#663B0C" d="M63.1,52.7c0.9-0.5,1.4-1.4,1.5-2.4c0.0-0.2,0.0-0.5,0.0-0.7c-0.9-1.2-1.9-2.5-2.7-3.7c-1.1,1.0-2.2,2.0-2.9,3.2c-0.0,0.0-0.0,0.1-0.0,0.1C60.2,50.4,61.6,51.6,63.1,52.7z"/>
				<path fill="#663B0C" d="M71.3,57.1c0.4-2.1,0.9-4.3,1.3-6.4c-0.3-0.5-0.8-0.9-1.4-1.1c-0.2-0.0-0.3-0.1-0.5-0.1c-1.0,1.0-1.9,2.1-2.8,3.2c0.7,1.5,1.4,3.1,2.1,4.7C70.4,57.4,70.9,57.3,71.3,57.1z"/>
				<path fill="#995812" d="M44.3,28.3c1.3,0.4,2.6,0.9,3.8,1.4c0.6-0.9,1.3-1.7,2.1-2.3c-0.1-0.5-0.2-0.9-0.3-1.4c-0.0-0.0-0.0-0.0-0.0-0.0c-0.7-0.7-1.4-1.4-2.1-2.2c-0.1-0.1-0.3-0.3-0.5-0.6c-0.3-0.1-0.5-0.1-0.8-0.1c-0.9,1.4-1.8,2.9-2.8,4.3c0.0,0.2,0.1,0.3,0.1,0.5C44.1,27.9,44.2,28.1,44.3,28.3z"/>
				<path fill="#995812" d="M31.0,16.7c1.0,0.2,2.0,0.5,3.0,0.7c0.5-0.4,1.0-0.8,1.7-1.1c-0.1-0.2-0.1-0.5-0.2-0.7c0.0-0.0-0.0-0.0-0.0-0.0c-0.6-0.4-1.1-0.7-1.6-1.1c-0.1-0.0-0.2-0.2-0.4-0.3c-0.2-0.0-0.4-0.1-0.6-0.1c-0.7,0.7-1.5,1.4-2.2,2.1c0.0,0.1,0.1,0.2,0.1,0.3C30.8,16.5,30.9,16.6,31.0,16.7z"/>
				<path fill="#663B0C" d="M72.5,42.4c-1.0-0.8-2.0-1.5-2.9-2.4c-0.9,1.1-1.9,2.2-2.9,3.2c0.0,0.0,0.0,0.1,0.0,0.1c-0.0,1.5,1.2,2.8,2.7,3.1C70.3,44.9,71.4,43.6,72.5,42.4z"/>
				<path fill="#663B0C" d="M64.0,57.1c-0.9-0.4-1.8-0.9-2.6-1.4c-0.2-0.0-0.3-0.0-0.4,0.0c-1.0,1.6-1.8,3.3-1.8,5.3c0.1,0.2,0.3,0.4,0.4,0.6c0.7,0.9,2.0,1.3,3.2,1.1c0.3-0.1,0.5-0.2,0.8-0.3C63.6,60.6,63.7,58.8,64.0,57.1z"/>
			</g>
		</g>
		<path fill="#8A5226" d="M2.7,68.8c0.1,0.7,0.2,1.4,0.3,2.1c0.7,0.3,1.5,0.5,2.3,0.4c0.4-0.0,0.9-0.2,1.3-0.3c0.8-0.2,1.6-0.6,2.4-1.0c0.3-0.2,0.6-0.4,0.9-0.6c-0.3-0.7-0.6-1.4-0.9-2.1C6.9,68.2,4.8,68.9,2.7,68.8z"/>
	</g>
	</svg>
