<?xml version='1.0' encoding='UTF-8'?>
<svg xmlns="http://www.w3.org/2000/svg" xmlns:xlink="http://www.w3.org/1999/xlink" width="116" height="112"><g id="object6">
		<path fill="#E5AC7F" d="M19.2,93.3c3.1,2.9,6.5,5.5,10.2,7.8c5.2,4.2,11.0,5.6,18.3,7.1c32.0,5.8,66.9-20.3,65.6-53.4c0.0-3.7-0.4-7.3-1.1-10.8c-3.5-20.1-20.9-36.1-40.0-40.7c-15.1-3.7-28.1-2.3-42.0,4.6c-11.6,5.8-18.9,16.0-24.7,27.6C-2.9,56.0,3.8,78.6,19.2,93.3z"/>
		<path fill="#9E7758" d="M100.5,86.7c-11.4,11.9-27.7,18.9-43.6,18.9c-0.0,0.0-0.0,0.0-0.0,0.0c-3.2,0.0-6.4-0.3-9.5-0.8c-7.2-1.4-13.5-3.0-19.2-7.4c-3.8-2.3-7.3-4.9-10.5-8.0c-5.1-4.9-9.2-10.4-12.2-16.4c3.0,7.6,7.7,14.5,13.7,20.3c3.1,2.9,6.5,5.5,10.2,7.8c5.2,4.2,11.0,5.6,18.3,7.1c25.9,4.7,53.7-11.6,62.7-35.5C108.0,77.6,104.6,82.4,100.5,86.7z"/>
		<path fill="#FF6200" d="M31.7,71.8c5.8-0.2,11.6-0.4,17.4-0.2c5.8,0.2,11.6,0.7,17.4,0.7c2.8-0.0,5.5,0.0,8.3-0.1c1.4-0.1,2.9-0.3,4.3-0.4c1.3-0.1,2.7,0.1,4.0-0.1c1.8-0.3,3.4-1.5,3.4-3.5c-0.0-1.5-1.3-2.7-2.1-3.9c0.5,0.7,1.0,1.4,1.6,2.1c-4.5-6.1-8.6-12.5-13.2-18.6c-4.1-5.6-8.4-11.1-11.7-17.2c-1.3-2.5-3.9-4.4-6.4-2.0c-1.1,1.0-1.6,2.6-2.4,3.9c-1.0,1.7-2.1,3.4-3.3,5.0c-4.2,6.0-8.4,11.9-12.2,18.1c-2.1,3.4-4.1,6.9-6.5,10.1C28.6,67.9,27.6,71.9,31.7,71.8C33.4,71.7,30.4,71.8,31.7,71.8z"/>
		<path fill="#005C12" d="M32.2,71.8C32.3,71.8,32.3,71.8,32.2,71.8L32.2,71.8zM32.1,71.8c0.0-0.0,0.1-0.0,0.1-0.0C32.1,71.8,32.1,71.8,32.1,71.8z"/>
		<path fill="#CF4F00" d="M30.3,68.5c2.4-3.2,4.4-6.7,6.5-10.1c3.8-6.2,8.0-12.2,12.2-18.1c1.1-1.6,2.3-3.3,3.3-5.0c0.7-1.3,1.3-2.9,2.4-3.9c2.5-2.3,5.1-0.4,6.4,2.0c3.3,6.1,7.5,11.7,11.7,17.2c4.1,5.6,8.0,11.3,12.1,17.0c0.5,0.6,1.0,1.3,1.4,2.0c0.2-0.4,0.4-0.9,0.3-1.5c-0.0-1.3-0.9-2.3-1.7-3.3c-4.0-5.6-7.9-11.4-12.1-17.0c-4.1-5.6-8.4-11.1-11.7-17.2c-1.3-2.5-3.9-4.4-6.4-2.0c-1.1,1.0-1.6,2.6-2.4,3.9c-1.0,1.7-2.1,3.4-3.3,5.0c-4.2,6.0-8.4,11.9-12.2,18.1c-2.1,3.4-4.1,6.9-6.5,10.1c-1.1,1.5-1.9,3.8-1.2,5.1C29.4,69.9,29.8,69.1,30.3,68.5z"/>
		<circle fill="#00FFFF" cx="57.7" cy="55.0" r="5" opacity="0"/>
	</g>
</svg>
