<?xml version='1.0' encoding='UTF-8'?>
<svg xmlns="http://www.w3.org/2000/svg" xmlns:xlink="http://www.w3.org/1999/xlink" width="712" height="118"><svg id="activeWhite" style="color:#FFFFFF;" x="0" y="0">
		<g id="defaultContent">
			<path fill="currentColor" d="M78.1,115.7c-7.5,0.0-15.1-0.2-22.4-0.3c-5.7-0.1-11.6-0.3-17.4-0.3c-6.4-0.1-12.3,1.2-18.8,1.2h-7.7c-0.6-0.0-1.6,0.0-2.2,0.0c-0.7-0.0-5.0-1.3-5.2-1.3c-0.3,0.0,1.0-108.0,3.0-109.3c0.9-0.6,0.5-0.6,2.4-0.6c0.9,0.0,1.9,0.1,2.8,0.1c0.9,0.1,1.8,0.1,2.7,0.1c0.1,0.0,0.2-0.0,0.4-0.0c3.3-0.1,6.6-0.2,9.9-0.4c1.2-0.1,2.5-0.1,3.7-0.2c1.9-0.1,4.0-0.1,6.3-0.1c2.9,0.0,5.9,0.1,8.7,0.1c2.9,0.1,5.9,0.1,8.9,0.1c0.9,0.0,1.8-0.0,2.8-0.0c2.3-0.0,4.7-0.1,7.0-0.1c6.3,0.0,12.7,0.1,19.6,0.4c4.0,0.1,8.2,0.2,12.9,0.2c7.9,0.0,16.0-0.2,23.7-0.4c5.9-0.1,11.9-0.3,17.9-0.4l2.7-0.0c2.3-0.0,4.7-0.1,7.0-0.1c4.5,0.0,10.3,0.1,16.2,0.9c2.0,0.3,4.0,0.3,5.7,0.3l1.8-0.0c0.9,0.0,1.9,0.0,3.0,0.1c1.2,0.1,2.1,0.3,2.7,0.7c0.2,0.2,0.7,0.8,0.9,1.1l0.0,0.1c0.6,3.2,0.5,7.0,0.5,10.7c-0.0,1.6-0.1,3.2-0.0,4.8c0.1,6.4-0.0,13.0-0.2,19.4c-0.1,5.1-0.2,10.3-0.2,15.4c0.0,4.4,0.0,8.9,0.1,13.2c0.1,7.3-5.3,36.0-5.9,40.6C170.3,116.9,83.5,115.7,78.1,115.7z" fill-opacity="1"/>
			<path fill="#C63C7B" d="M111.6,81.6c2.0-2.4,0.1-12.3-2.6-14.6c-4.8-4.1-9.5-8.4-14.3-12.5c-4.4-3.8-8.8-7.6-13.3-11.3c-2.1-1.8-4.2-3.5-6.3-5.2c-3.6-2.9-7.6-6.0-12.6-6.0c-4.2-0.1-7.8,4.3-6.8,8.4c1.4,5.7,6.3,9.2,10.4,12.7c2.2,1.8,4.3,3.6,6.5,5.4c4.1,3.4,8.3,6.8,12.4,10.2c4.7,3.9,9.6,7.6,14.5,11.3C102.2,81.9,110.4,83.1,111.6,81.6z" fill-opacity="1"/>
			<path fill="#A82A69" d="M106.9,65.3c-0.5,0.2-1.1,0.4-1.6,0.7c-0.1,0.1-0.2,0.1-0.3,0.1c-0.0,0.0-0.1,0.1-0.1,0.1c-0.4,0.3-0.8,0.5-1.1,0.8c-0.5,0.4-0.9,0.7-1.4,1.1c-0.1,0.1-0.2,0.2-0.2,0.2c-0.0,0.0-0.1,0.1-0.1,0.1c-0.7,0.8-1.4,1.6-2.0,2.5c-0.3,0.4-0.5,0.7-0.8,1.1c-0.1,0.2-0.2,0.4-0.3,0.5c-0.5,1.0-1.0,2.0-1.4,3.0c-0.2,0.6-0.5,1.2-0.7,1.7c-0.1,0.2-0.1,0.4-0.2,0.6c4.2,3.1,8.7,5.9,13.1,8.7c2.6,1.7,6.3,1.3,8.7-0.9c2.8-2.5,3.3-7.4,0.5-10.1c-3.8-3.6-7.6-7.1-11.5-10.6C107.3,65.2,107.0,65.3,106.9,65.3z" fill-opacity="1"/>
			<path fill="#A82A69" d="M85.5,57.5c2.7-3.3,4.1-2.7,7.7-4.3c-0.2-0.4,2.3-3.6-2.2-3.8c-4.3-3.6-1.8-1.6-6.1-5.2c-2.4-2.0-4.8-3.9-7.3-5.9c-4.6-3.7-9.5-8.2-16.1-8.4c-4.8-0.1-9.1,4.9-8.2,9.6c1.0,5.5,5.2,9.2,9.1,12.5c2.3,1.9,4.6,3.9,7.0,5.7c5.0,4.0,3.2,2.5,8.3,6.4c0.3,0.2,0.6,0.5,0.9,0.7c-0.0,0.4,2.6,3.5,3.6,1.3C83.0,62.2,82.8,60.9,85.5,57.5z" fill-opacity="1"/>
			<path fill="#A82A69" d="M69.9,32.9c0.3-0.4,0.7-0.9,1.1-1.3c0.4-0.3,0.4-0.3,0.7-0.4c0.6-0.2,1.4,0.1,2.0,0.4c0.9,0.4,1.5,1.1,2.0,1.8c5.1,6.5,10.5,13.7,19.0,14.9c1.9-0.3,2.6-3.1,1.4-3.7c-1.0-0.5-1.9-1.0-2.8-1.7c-0.9-0.6-1.7-1.3-2.5-2.1c-0.8-0.7-1.5-1.5-2.3-2.3c-2.2-2.4-4.3-4.9-6.9-6.8c-2.4-1.8-10.5-8.4-13.9,0.5C67.4,33.7,69.0,34.2,69.9,32.9z" fill-opacity="1"/>
			<path fill="#C63C7B" d="M123.6,85.7c0.4-2.0-0.6-4.1-1.7-5.9c0.2-0.4,0.3-0.8,0.2-1.3c-0.8-2.8-3.9-3.5-6.1-2.5c-0.9,0.4-1.7,1.1-2.4,1.8c-1.5,1.7-2.6,3.7-3.1,6.0c-0.5,2.4,0.7,4.7,3.2,5.3c0.4,0.1,0.9,0.1,1.3-0.0c1.8,0.6,3.8,0.6,5.3,0.3C122.1,89.0,123.2,87.5,123.6,85.7z" fill-opacity="1"/>
			<path fill="#7C1C51" d="M121.8,88.9c1.0,0.6,2.0,1.1,3.1,1.6c0.9,0.4,2.4-1.4,1.8-2.2c-0.8-0.9-1.5-1.8-2.3-2.6c-0.6-0.6-1.0-1.1-2.2-0.6c-0.6,0.3-1.2,0.9-1.4,1.6C120.4,88.1,120.9,88.5,121.8,88.9z" fill-opacity="1"/>
			<path fill="#C63C7B" d="M62.5,36.7c1.7-2.1,3.6-3.8,5.8-5.2c-0.2-0.4-0.5-0.7-0.9-0.8c-1.9-1.0-4.3,1.0-5.8,2.1c-1.5,1.2-3.0,3.0-4.1,4.6c-1.7,2.6-3.4,6.0-2.1,8.9c0.4,0.9,1.3,1.2,2.2,1.0C58.3,43.5,59.9,39.9,62.5,36.7z" fill-opacity="1"/>
			<circle fill="#00FFFF" cx="90.8" cy="60.4" r="5" opacity="0" fill-opacity="1"/>
		</g>
	</svg>
	<svg id="disabledWhite" x="178" y="0">
		<use xlink:href="#defaultContent" style="color:#FFFFFF; fill-opacity: 0"/>
	</svg>
	<svg id="activeColored_2ED8FF" x="356" y="0">
		<use xlink:href="#defaultContent" style="color:#2ED8FF;"/>
	</svg>
	<svg id="disabledColored_2ED8FF" x="534" y="0">
		<use xlink:href="#defaultContent" style="color:#2ED8FF; fill-opacity: 0"/>
	</svg>
</svg>
