<?xml version='1.0' encoding='UTF-8'?>
<svg xmlns="http://www.w3.org/2000/svg" xmlns:xlink="http://www.w3.org/1999/xlink" width="378" height="126"><svg x="0" y="0">
		<g id="defaultContent">
			<path fill="#B06F34" d="M106.7,63.1c0.0,22.6-18.7,40.8-41.8,40.8c-23.1,0.0-41.8-18.3-41.8-40.8c0.0-10.7,3.8-20.7,10.8-28.0c7.6-8.0,19.0-12.8,31.1-12.8C87.9,22.3,106.7,40.6,106.7,63.1z"/>
			<path fill="#BC8653" d="M94.7,34.3c-2.7,3.3-7.0,8.0-13.8,14.6c-25.1,24.2-39.1,24.2-46.4,42.1c7.6,7.8,18.4,12.7,30.3,12.7c23.1,0.0,41.8-18.3,41.8-40.8C106.7,51.7,102.1,41.6,94.7,34.3z"/>
			<path fill="#A35914" d="M64.8,106.3c-9.0,0.0-17.6-2.6-25.0-7.6c-9.0-6.1-14.7-13.6-17.4-22.9c-1.0-3.6-2.2-12.1-1.6-16.4c1.4-10.8,3.6-18.2,11.5-26.3c3.6-3.7,8.7-7.0,14.9-9.6c5.6-2.4,11.5-3.6,17.6-3.6c8.7,0.0,18.4,3.7,24.1,6.9c9.6,5.4,15.5,13.5,18.6,25.5c0.8,3.1,1.6,6.9,1.5,11.3c-0.3,11.5-4.8,21.9-13.2,30.1c-5.1,4.9-10.0,8.0-15.9,10.0C75.2,105.4,69.6,106.3,64.8,106.3zM64.8,24.4c-5.5,0.0-10.8,1.1-15.8,3.2c-5.6,2.4-10.2,5.4-13.4,8.6c-7.0,7.2-9.0,13.6-10.2,23.7c-0.4,3.3,0.5,11.1,1.5,14.5c2.4,8.3,7.5,15.0,15.5,20.4c6.6,4.5,14.4,6.8,22.4,6.8c4.2,0.0,9.5-0.9,13.7-2.3c5.3-1.8,9.6-4.5,14.2-9.0c7.5-7.3,11.6-16.6,11.8-26.9v0.0c0.1-3.9-0.7-7.3-1.4-10.1c-2.8-10.9-7.9-17.9-16.5-22.7C81.1,27.6,72.1,24.4,64.8,24.4z"/>
			<path fill="#D2AD8B" d="M65.8,104.1c-11.1,0.0-23.7-4.9-31.4-12.3c-7.6-7.3-11.4-17.0-11.4-28.8c0.0-10.7,4.1-21.5,11.0-28.8c7.6-8.0,18.6-12.5,31.0-12.5c13.4,0.0,26.1,6.4,33.9,17.0c5.2,7.1,8.1,15.8,8.1,24.4c0.0,13.8-7.4,26.7-19.7,34.4C80.2,102.0,73.3,104.1,65.8,104.1zM64.9,24.9c-11.5,0.0-21.7,4.1-28.6,11.4c-6.3,6.7-10.1,16.7-10.1,26.6c0.0,11.0,3.5,19.9,10.4,26.5c7.1,6.8,18.8,11.4,29.1,11.4c7.0,0.0,13.2-1.9,19.9-6.1c11.4-7.1,18.2-19.0,18.2-31.7c0.0-8.0-2.7-16.0-7.5-22.5C89.0,30.8,77.3,24.9,64.9,24.9z"/>
			<path fill="#A1540D" d="M31.7,65.3c0.3,0.0,0.5-0.0,0.6-0.0s0.3-0.0,0.3-0.0v0.7h-2.2c0.0-0.1,0.0-0.2,0.0-0.4s0.0-0.4,0.0-0.8v-1.6c0.0-0.3-0.0-0.6-0.0-0.8c-0.0-0.2-0.0-0.3-0.0-0.4h0.7v3.3H31.7z"/>
			<path fill="#A1540D" d="M34.9,62.0v0.5h-0.6v2.8h0.6v0.5h-1.8v-0.5h0.6v-2.8h-0.6v-0.5H34.9z"/>
			<path fill="#A1540D" d="M38.0,65.2c-0.1,0.1-0.1,0.3-0.3,0.4c-0.1,0.1-0.3,0.2-0.4,0.2c-0.2,0.1-0.4,0.1-0.6,0.1c-0.3,0.0-0.5-0.0-0.8-0.0c-0.1-0.0-0.2-0.0-0.4-0.0c0.0-0.1,0.0-0.3,0.0-0.5c0.0-0.1,0.0-0.2,0.0-0.3v-2.2c0.0-0.3-0.0-0.5-0.0-0.6c-0.0-0.1-0.0-0.2-0.0-0.2c0.1-0.0,0.3-0.0,0.5-0.0c0.1-0.0,0.3-0.0,0.6-0.0c0.4,0.0,0.7,0.1,0.9,0.2c0.2,0.2,0.4,0.4,0.4,0.8c0.0,0.2-0.1,0.4-0.2,0.5c-0.1,0.1-0.2,0.2-0.4,0.3c0.2,0.1,0.4,0.2,0.5,0.3c0.2,0.2,0.2,0.4,0.2,0.7C38.1,65.0,38.1,65.1,38.0,65.2zM36.3,63.6h0.4c0.2,0.0,0.4-0.0,0.5-0.1s0.2-0.2,0.2-0.4c0.0-0.2-0.0-0.3-0.1-0.4c-0.1-0.1-0.3-0.1-0.5-0.1c-0.2,0.0-0.3,0.0-0.4,0.0V63.6zM36.3,65.3c0.1,0.0,0.2,0.0,0.5,0.0c0.2,0.0,0.4-0.0,0.5-0.1c0.1-0.1,0.2-0.3,0.2-0.5c0.0-0.2-0.1-0.3-0.2-0.4c-0.1-0.1-0.3-0.1-0.6-0.1h-0.4V65.3z"/>
			<path fill="#A1540D" d="M40.8,63.6v0.6h-1.3v1.1h0.6c0.3,0.0,0.5-0.0,0.6-0.0c0.1-0.0,0.2-0.0,0.3-0.0v0.7h-2.2c0.0-0.1,0.0-0.2,0.0-0.4s0.0-0.4,0.0-0.8v-1.6c0.0-0.3-0.0-0.6-0.0-0.8c-0.0-0.2-0.0-0.3-0.0-0.4h2.1v0.6h-1.4v0.9H40.8z"/>
			<path fill="#A1540D" d="M42.3,64.8c0.0,0.3,0.0,0.5,0.0,0.7c0.0,0.2,0.0,0.4,0.0,0.5h-0.7c0.0-0.1,0.0-0.2,0.0-0.4s0.0-0.4,0.0-0.8v-1.9c0.0-0.3-0.0-0.5-0.0-0.6c-0.0-0.1-0.0-0.2-0.0-0.2c0.1-0.0,0.2-0.0,0.4-0.0c0.2-0.0,0.5-0.0,0.8-0.0c0.2,0.0,0.3,0.0,0.5,0.1c0.1,0.0,0.3,0.1,0.4,0.2c0.1,0.1,0.2,0.2,0.3,0.4c0.1,0.1,0.1,0.3,0.1,0.5c0.0,0.3-0.1,0.5-0.2,0.7c-0.1,0.2-0.3,0.3-0.5,0.4l0.2,0.3l0.4,0.7c0.2,0.2,0.3,0.4,0.4,0.6c0.1,0.1,0.1,0.1,0.1,0.1h-0.8l-0.9-1.6h-0.3V64.8zM42.3,63.8h0.4c0.2,0.0,0.4-0.0,0.5-0.1c0.1-0.1,0.2-0.3,0.2-0.5c0.0-0.2-0.1-0.3-0.2-0.4c-0.1-0.1-0.3-0.1-0.5-0.1l-0.2,0.0l-0.1,0.0l-0.1,0.0V63.8z"/>
			<path fill="#A1540D" d="M47.3,62.0v0.7c-0.1-0.0-0.2-0.0-0.2-0.0c-0.1-0.0-0.2-0.0-0.3-0.0h-0.5v2.2c0.0,0.3,0.0,0.5,0.0,0.7c0.0,0.2,0.0,0.3,0.0,0.4h-0.8c0.0-0.1,0.0-0.2,0.0-0.4c0.0-0.2,0.0-0.4,0.0-0.7v-2.2H45.1c-0.1,0.0-0.2,0.0-0.3,0.0c-0.1,0.0-0.2,0.0-0.2,0.0v-0.7H47.3z"/>
			<path fill="#A1540D" d="M48.2,62.0l0.7,1.6l0.7-1.6h0.7c-0.1,0.2-0.2,0.4-0.3,0.6c-0.1,0.2-0.2,0.4-0.3,0.5l-0.6,1.1v0.5c0.0,0.3,0.0,0.6,0.0,0.8s0.0,0.3,0.0,0.4h-0.7c0.0-0.1,0.0-0.2,0.0-0.4c0.0-0.2,0.0-0.4,0.0-0.8v-0.5l-0.6-1.1l-0.1-0.3c-0.1-0.2-0.2-0.4-0.3-0.5c-0.1-0.1-0.1-0.2-0.2-0.3H48.2z"/>
			<path fill="#A1540D" d="M40.0,35.1l0.3,0.4l-0.5,0.4l1.7,2.2l0.5-0.4l0.3,0.4l-1.7,1.3l-0.3-0.4l0.5-0.4l-1.7-2.2l-0.5,0.4l-0.3-0.4L40.0,35.1z"/>
			<path fill="#A1540D" d="M42.2,35.1l1.4,2.3l-0.7,0.4c-0.0-0.1-0.1-0.2-0.2-0.4c-0.1-0.1-0.2-0.4-0.4-0.6l-0.8-1.3c-0.2-0.3-0.3-0.5-0.4-0.6c-0.1-0.1-0.2-0.3-0.2-0.3l0.7-0.4l3.0,1.3l-1.4-2.3l0.7-0.4c0.0,0.1,0.1,0.2,0.2,0.4c0.1,0.2,0.2,0.4,0.4,0.6l1.4,2.3l-0.6,0.4L42.2,35.1z"/>
			<path fill="#A1540D" d="M50.7,33.2c-0.2,0.3-0.4,0.5-0.6,0.7c-0.2,0.1-0.4,0.3-0.6,0.4c-0.3,0.1-0.5,0.2-0.8,0.2s-0.5-0.0-0.7-0.1c-0.2-0.1-0.4-0.2-0.6-0.4c-0.2-0.2-0.3-0.4-0.5-0.7s-0.2-0.6-0.2-0.8s0.0-0.5,0.1-0.8c0.1-0.2,0.2-0.4,0.4-0.6c0.2-0.2,0.4-0.3,0.7-0.4c0.2-0.1,0.5-0.2,0.7-0.2c0.2-0.0,0.5-0.0,0.8-0.0l0.0,0.7c-0.4-0.1-0.8-0.0-1.2,0.1c-0.2,0.1-0.3,0.2-0.4,0.3c-0.1,0.1-0.2,0.2-0.2,0.4c-0.1,0.2-0.1,0.3-0.1,0.5c0.0,0.2,0.1,0.4,0.1,0.5c0.1,0.2,0.2,0.4,0.3,0.5c0.1,0.1,0.2,0.2,0.4,0.3c0.1,0.1,0.3,0.1,0.4,0.1s0.3-0.0,0.5-0.1c0.2-0.1,0.3-0.1,0.4-0.2c0.1-0.1,0.2-0.2,0.3-0.3l-0.3-0.7l-0.8,0.3l-0.2-0.6l1.5-0.6L50.7,33.2z"/>
			<path fill="#A1540D" d="M54.3,31.5c-0.1,0.3-0.2,0.6-0.4,0.9c-0.1,0.1-0.2,0.2-0.4,0.3c-0.1,0.1-0.3,0.2-0.4,0.2c-0.2,0.1-0.5,0.1-0.7,0.1c-0.2-0.0-0.5-0.1-0.7-0.2c-0.2-0.1-0.4-0.3-0.6-0.5c-0.2-0.2-0.3-0.5-0.4-0.8c-0.1-0.3-0.1-0.6-0.1-0.9c0.0-0.3,0.1-0.5,0.2-0.7c0.1-0.2,0.3-0.4,0.4-0.6c0.2-0.2,0.4-0.3,0.6-0.3c0.2-0.1,0.5-0.1,0.7-0.1c0.2,0.0,0.4,0.1,0.6,0.2c0.2,0.1,0.4,0.3,0.6,0.5c0.2,0.2,0.3,0.5,0.4,0.8C54.4,30.8,54.4,31.2,54.3,31.5zM53.3,30.2c-0.1-0.2-0.2-0.3-0.3-0.4c-0.1-0.1-0.2-0.1-0.4-0.2c-0.1-0.0-0.3-0.0-0.4,0.0c-0.1,0.0-0.3,0.1-0.4,0.2s-0.2,0.2-0.2,0.3c-0.1,0.1-0.1,0.3-0.1,0.5c0.0,0.2,0.0,0.4,0.1,0.5c0.1,0.2,0.1,0.4,0.2,0.5s0.2,0.3,0.3,0.4c0.1,0.1,0.3,0.1,0.4,0.2c0.1,0.0,0.3,0.0,0.4-0.0c0.1-0.0,0.2-0.1,0.3-0.2s0.2-0.2,0.2-0.3c0.1-0.1,0.1-0.3,0.1-0.5s-0.0-0.4-0.1-0.5C53.5,30.5,53.4,30.3,53.3,30.2z"/>
			<path fill="#A1540D" d="M54.9,29.2c-0.0-0.2-0.1-0.5-0.1-0.6c-0.0-0.1-0.0-0.1-0.1-0.2l0.1-0.0c0.1-0.0,0.1-0.0,0.3-0.1l0.5-0.1c0.1-0.0,0.2-0.0,0.2-0.1l0.2-0.0c0.3-0.1,0.6-0.1,0.9-0.0c0.4,0.0,0.7,0.2,0.9,0.4c0.3,0.3,0.5,0.7,0.6,1.2c0.1,0.5,0.1,0.9-0.1,1.3c-0.1,0.3-0.4,0.6-0.7,0.8c-0.1,0.1-0.3,0.2-0.4,0.2c-0.2,0.1-0.3,0.1-0.5,0.1c-0.1,0.0-0.1,0.0-0.2,0.0c-0.1,0.0-0.1,0.0-0.2,0.0c-0.1,0.0-0.2,0.0-0.3,0.1l-0.1,0.0c-0.1,0.0-0.3,0.0-0.5,0.1c0.0-0.1-0.0-0.2-0.1-0.5c-0.0-0.1-0.1-0.4-0.1-0.7L54.9,29.2zM56.2,31.4c0.2-0.0,0.3-0.0,0.5-0.1c0.2-0.0,0.3-0.1,0.4-0.2c0.1-0.1,0.2-0.2,0.3-0.3c0.1-0.1,0.2-0.3,0.2-0.5c0.0-0.2,0.0-0.4-0.0-0.6c-0.1-0.5-0.3-0.8-0.5-1.0c-0.2-0.2-0.5-0.2-0.9-0.1c-0.1,0.0-0.1,0.0-0.3,0.1c-0.0,0.0-0.1,0.0-0.1,0.0l-0.1,0.0L56.2,31.4z"/>
			<path fill="#A1540D" d="M62.2,30.5l0.8-3.2l0.7-0.0l1.0,3.2l0.7-3.2l0.9-0.0c-0.0,0.1-0.1,0.2-0.1,0.4c-0.0,0.1-0.1,0.3-0.2,0.6l-0.8,2.9l-0.9,0.0l-0.9-2.9l-0.7,2.9l-0.9,0.0l-0.9-2.9c-0.1-0.3-0.2-0.5-0.2-0.6c-0.0-0.1-0.1-0.2-0.1-0.4l0.9-0.0L62.2,30.5z"/>
			<path fill="#A1540D" d="M69.3,29.1l-0.1,0.6l-1.5-0.1l-0.1,1.1l0.7,0.1c0.3,0.0,0.6,0.1,0.7,0.1s0.3,0.0,0.4,0.0l-0.1,0.7l-2.6-0.2c0.0-0.1,0.1-0.2,0.1-0.4c0.0-0.2,0.0-0.4,0.1-0.8l0.1-1.6c0.0-0.3,0.1-0.6,0.1-0.8c0.0-0.2,0.0-0.3,0.0-0.4l2.6,0.2l-0.1,0.6l-1.7-0.2l-0.1,0.9L69.3,29.1z"/>
			<path fill="#A1540D" d="M75.2,28.6l-0.1,0.7c-0.1-0.0-0.2-0.1-0.3-0.1s-0.2-0.1-0.3-0.1l-0.6-0.1l-0.5,2.1c-0.1,0.3-0.1,0.5-0.1,0.7c-0.0,0.2-0.0,0.3-0.0,0.4l-0.9-0.2c0.0-0.1,0.1-0.2,0.1-0.4c0.0-0.2,0.1-0.4,0.2-0.7l0.5-2.1l-0.6-0.1c-0.1-0.0-0.2-0.1-0.3-0.1c-0.1-0.0-0.2-0.0-0.3-0.0l0.1-0.7L75.2,28.6z"/>
			<path fill="#A1540D" d="M76.0,31.7c-0.1,0.3-0.2,0.5-0.2,0.7c-0.1,0.2-0.1,0.4-0.1,0.4l-0.8-0.3c0.0-0.1,0.1-0.2,0.2-0.4c0.1-0.2,0.1-0.4,0.2-0.7l0.6-1.8c0.1-0.2,0.1-0.4,0.2-0.6c0.0-0.1,0.0-0.2,0.0-0.2c0.1,0.0,0.2,0.1,0.4,0.1c0.3,0.1,0.6,0.2,0.9,0.3c0.2,0.1,0.4,0.2,0.5,0.3s0.3,0.2,0.4,0.3c0.1,0.1,0.2,0.3,0.2,0.4c0.0,0.2,0.0,0.3-0.1,0.5c-0.1,0.3-0.2,0.5-0.5,0.6c-0.2,0.1-0.4,0.2-0.7,0.2l0.1,0.3l0.3,0.8c0.1,0.3,0.2,0.5,0.2,0.7c0.0,0.1,0.1,0.2,0.1,0.2l-0.9-0.3l-0.5-1.8l-0.4-0.1L76.0,31.7zM76.3,30.8l0.4,0.1c0.2,0.1,0.4,0.1,0.6,0.1c0.2-0.1,0.3-0.2,0.4-0.4c0.1-0.2,0.0-0.3-0.0-0.5c-0.1-0.1-0.3-0.2-0.5-0.3l-0.2-0.1l-0.1-0.0l-0.1-0.0L76.3,30.8z"/>
			<path fill="#A1540D" d="M83.0,31.5c-0.1,0.1-0.1,0.2-0.2,0.4c-0.1,0.2-0.2,0.4-0.3,0.7l-0.6,1.2c-0.1,0.2-0.2,0.4-0.3,0.5c-0.1,0.1-0.3,0.2-0.5,0.3c-0.4,0.1-0.8,0.1-1.2-0.1c-0.2-0.1-0.4-0.2-0.6-0.4c-0.2-0.1-0.3-0.3-0.3-0.5c-0.1-0.2-0.1-0.3-0.1-0.5s0.1-0.4,0.2-0.6l0.6-1.2c0.1-0.3,0.2-0.5,0.3-0.7s0.1-0.3,0.1-0.4l0.8,0.3l-1.0,2.2c-0.1,0.3-0.2,0.5-0.1,0.7c0.0,0.2,0.2,0.4,0.5,0.5c0.3,0.1,0.5,0.1,0.7,0.0c0.1-0.0,0.2-0.1,0.2-0.2c0.1-0.1,0.1-0.2,0.2-0.3l1.0-2.2L83.0,31.5z"/>
			<path fill="#A1540D" d="M85.7,34.1c-0.1-0.2-0.3-0.4-0.4-0.5c-0.1-0.1-0.3-0.2-0.4-0.3c-0.1-0.1-0.3-0.1-0.4-0.1c-0.1,0.0-0.1,0.0-0.2,0.1c-0.1,0.0-0.1,0.1-0.1,0.1c-0.0,0.1-0.0,0.1-0.0,0.2c-0.0,0.1,0.0,0.1,0.0,0.2c0.0,0.1,0.1,0.1,0.2,0.2s0.2,0.2,0.3,0.4c0.3,0.3,0.5,0.6,0.5,0.8c0.1,0.3,0.1,0.5-0.1,0.7c-0.1,0.2-0.2,0.3-0.4,0.4c-0.1,0.1-0.3,0.2-0.5,0.2c-0.2,0.0-0.4,0.0-0.5-0.0s-0.4-0.1-0.5-0.2c-0.2-0.1-0.5-0.3-0.7-0.5c-0.2-0.2-0.3-0.4-0.4-0.5l0.5-0.6c0.2,0.4,0.5,0.8,0.9,1.0c0.1,0.0,0.2,0.1,0.2,0.1c0.1,0.0,0.2,0.0,0.2,0.0c0.2-0.0,0.3-0.1,0.4-0.2c0.0-0.1,0.0-0.1,0.0-0.2s-0.0-0.1-0.0-0.2c-0.0-0.1-0.1-0.2-0.2-0.3c-0.1-0.1-0.2-0.2-0.3-0.4c-0.2-0.2-0.3-0.3-0.4-0.4c-0.1-0.1-0.1-0.3-0.2-0.4c-0.0-0.1-0.0-0.2,0.0-0.3c0.0-0.1,0.1-0.2,0.1-0.3c0.1-0.1,0.2-0.3,0.4-0.4c0.2-0.1,0.4-0.2,0.6-0.2c0.3,0.0,0.5,0.1,0.8,0.2c0.2,0.1,0.4,0.2,0.5,0.4c0.1,0.1,0.3,0.3,0.4,0.4L85.7,34.1z"/>
			<path fill="#A1540D" d="M89.7,35.7l-0.4,0.5c-0.1-0.1-0.1-0.1-0.2-0.2s-0.2-0.1-0.3-0.2l-0.5-0.3l-1.2,1.8c-0.2,0.2-0.3,0.4-0.4,0.6c-0.1,0.1-0.2,0.3-0.2,0.4l-0.7-0.5c0.1-0.1,0.2-0.2,0.3-0.3c0.1-0.1,0.2-0.3,0.4-0.6l1.2-1.8l-0.5-0.3c-0.1-0.1-0.2-0.1-0.3-0.2c-0.1-0.1-0.2-0.1-0.3-0.1l0.4-0.5L89.7,35.7z"/>
			<path fill="#D2AD8B" d="M39.8,34.4l0.3,0.4l-0.5,0.4l1.7,2.2l0.5-0.4l0.3,0.4l-1.7,1.3l-0.3-0.4l0.5-0.4l-1.7-2.2l-0.5,0.4l-0.3-0.4L39.8,34.4z"/>
			<path fill="#D2AD8B" d="M42.0,34.3l1.4,2.3l-0.7,0.4c-0.0-0.1-0.1-0.2-0.2-0.4c-0.1-0.1-0.2-0.4-0.4-0.6l-0.8-1.3c-0.2-0.3-0.3-0.5-0.4-0.6c-0.1-0.1-0.2-0.3-0.2-0.3l0.7-0.4l3.0,1.3l-1.4-2.3l0.7-0.4c0.0,0.1,0.1,0.2,0.2,0.4c0.1,0.2,0.2,0.4,0.4,0.6l1.4,2.3l-0.6,0.4L42.0,34.3z"/>
			<path fill="#D2AD8B" d="M50.5,32.5c-0.2,0.3-0.4,0.5-0.6,0.7c-0.2,0.1-0.4,0.3-0.6,0.4c-0.3,0.1-0.5,0.2-0.8,0.2c-0.2,0.0-0.5-0.0-0.7-0.1c-0.2-0.1-0.4-0.2-0.6-0.4c-0.2-0.2-0.3-0.4-0.5-0.7s-0.2-0.6-0.2-0.8c-0.0-0.3,0.0-0.5,0.1-0.8c0.1-0.2,0.2-0.4,0.4-0.6c0.2-0.2,0.4-0.3,0.7-0.4c0.2-0.1,0.5-0.2,0.7-0.2c0.2-0.0,0.5-0.0,0.8-0.0l0.0,0.7c-0.4-0.1-0.8-0.0-1.2,0.1c-0.2,0.1-0.3,0.2-0.4,0.3s-0.2,0.2-0.2,0.4c-0.1,0.2-0.1,0.3-0.1,0.5s0.1,0.4,0.1,0.5c0.1,0.2,0.2,0.4,0.3,0.5c0.1,0.1,0.2,0.2,0.4,0.3c0.1,0.1,0.3,0.1,0.4,0.1c0.1,0.0,0.3-0.0,0.5-0.1c0.2-0.1,0.3-0.1,0.4-0.2c0.1-0.1,0.2-0.2,0.3-0.3l-0.3-0.7l-0.8,0.3l-0.2-0.6l1.5-0.6L50.5,32.5z"/>
			<path fill="#D2AD8B" d="M54.2,30.8c-0.1,0.3-0.2,0.6-0.4,0.9c-0.1,0.1-0.2,0.2-0.4,0.3c-0.1,0.1-0.3,0.2-0.4,0.2c-0.2,0.1-0.5,0.1-0.7,0.1c-0.2-0.0-0.5-0.1-0.7-0.2c-0.2-0.1-0.4-0.3-0.6-0.5c-0.2-0.2-0.3-0.5-0.4-0.8c-0.1-0.3-0.1-0.6-0.1-0.9c0.0-0.3,0.1-0.5,0.2-0.7c0.1-0.2,0.3-0.4,0.4-0.6c0.2-0.2,0.4-0.3,0.6-0.3c0.2-0.1,0.5-0.1,0.7-0.1s0.4,0.1,0.6,0.2c0.2,0.1,0.4,0.3,0.6,0.5c0.2,0.2,0.3,0.5,0.4,0.8C54.2,30.1,54.2,30.5,54.2,30.8zM53.1,29.5c-0.1-0.2-0.2-0.3-0.3-0.4c-0.1-0.1-0.2-0.1-0.4-0.2c-0.1-0.0-0.3-0.0-0.4,0.0c-0.1,0.0-0.3,0.1-0.4,0.2s-0.2,0.2-0.2,0.3c-0.1,0.1-0.1,0.3-0.1,0.5c0.0,0.2,0.0,0.4,0.1,0.5c0.1,0.2,0.1,0.4,0.2,0.5c0.1,0.2,0.2,0.3,0.3,0.4c0.1,0.1,0.3,0.1,0.4,0.2c0.1,0.0,0.3,0.0,0.4-0.0c0.1-0.0,0.2-0.1,0.3-0.2s0.2-0.2,0.2-0.3c0.1-0.1,0.1-0.3,0.1-0.5s-0.0-0.4-0.1-0.5C53.3,29.8,53.2,29.6,53.1,29.5z"/>
			<path fill="#D2AD8B" d="M54.7,28.4c-0.0-0.2-0.1-0.5-0.1-0.6c-0.0-0.1-0.0-0.1-0.1-0.2l0.1-0.0c0.1-0.0,0.1-0.0,0.3-0.1l0.5-0.1c0.1-0.0,0.2-0.0,0.2-0.1l0.2-0.0c0.3-0.1,0.6-0.1,0.9-0.0c0.4,0.0,0.7,0.2,0.9,0.4c0.3,0.3,0.5,0.7,0.6,1.2c0.1,0.5,0.1,0.9-0.1,1.3c-0.1,0.3-0.4,0.6-0.7,0.8c-0.1,0.1-0.3,0.2-0.4,0.2c-0.2,0.1-0.3,0.1-0.5,0.1c-0.1,0.0-0.1,0.0-0.2,0.0c-0.1,0.0-0.1,0.0-0.2,0.0c-0.1,0.0-0.2,0.0-0.3,0.1l-0.1,0.0c-0.1,0.0-0.3,0.0-0.5,0.1c0.0-0.1-0.0-0.2-0.1-0.5c-0.0-0.1-0.1-0.4-0.1-0.7L54.7,28.4zM56.0,30.7c0.2-0.0,0.3-0.0,0.5-0.1c0.2-0.0,0.3-0.1,0.4-0.2c0.1-0.1,0.2-0.2,0.3-0.3c0.1-0.1,0.2-0.3,0.2-0.5c0.0-0.2,0.0-0.4-0.0-0.6c-0.1-0.5-0.3-0.8-0.5-1.0c-0.2-0.2-0.5-0.2-0.9-0.1c-0.1,0.0-0.1,0.0-0.3,0.1c-0.0,0.0-0.1,0.0-0.1,0.0l-0.1,0.0L56.0,30.7z"/>
			<path fill="#D2AD8B" d="M62.0,29.8l0.8-3.2l0.7-0.0l1.0,3.2l0.7-3.2l0.9-0.0c-0.0,0.1-0.1,0.2-0.1,0.4c-0.0,0.1-0.1,0.3-0.2,0.6l-0.8,2.9l-0.9,0.0l-0.9-2.9l-0.7,2.9l-0.9,0.0l-0.9-2.9c-0.1-0.3-0.2-0.5-0.2-0.6c-0.0-0.1-0.1-0.2-0.1-0.4l0.9-0.0L62.0,29.8z"/>
			<path fill="#D2AD8B" d="M69.1,28.3l-0.1,0.6l-1.5-0.1l-0.1,1.1l0.7,0.1c0.3,0.0,0.6,0.1,0.7,0.1s0.3,0.0,0.4,0.0l-0.1,0.7l-2.6-0.2c0.0-0.1,0.1-0.2,0.1-0.4c0.0-0.2,0.0-0.4,0.1-0.8l0.1-1.6c0.0-0.3,0.1-0.6,0.1-0.8c0.0-0.2,0.0-0.3,0.0-0.4l2.6,0.2l-0.1,0.6l-1.7-0.2l-0.1,0.9L69.1,28.3z"/>
			<path fill="#D2AD8B" d="M75.1,27.9l-0.1,0.7c-0.1-0.0-0.2-0.1-0.3-0.1s-0.2-0.1-0.3-0.1l-0.6-0.1l-0.5,2.1c-0.1,0.3-0.1,0.5-0.1,0.7c-0.0,0.2-0.0,0.3-0.0,0.4l-0.9-0.2c0.0-0.1,0.1-0.2,0.1-0.4c0.0-0.2,0.1-0.4,0.2-0.7l0.5-2.1l-0.6-0.1c-0.1-0.0-0.2-0.1-0.3-0.1c-0.1-0.0-0.2-0.0-0.3-0.0l0.1-0.7L75.1,27.9z"/>
			<path fill="#D2AD8B" d="M75.8,31.0c-0.1,0.3-0.2,0.5-0.2,0.7c-0.1,0.2-0.1,0.4-0.1,0.4l-0.8-0.3c0.0-0.1,0.1-0.2,0.2-0.4c0.1-0.2,0.1-0.4,0.2-0.7l0.6-1.8c0.1-0.2,0.1-0.4,0.2-0.6c0.0-0.1,0.0-0.2,0.0-0.2c0.1,0.0,0.2,0.1,0.4,0.1c0.3,0.1,0.6,0.2,0.9,0.3c0.2,0.1,0.4,0.2,0.5,0.3s0.3,0.2,0.4,0.3c0.1,0.1,0.2,0.3,0.2,0.4c0.0,0.2,0.0,0.3-0.1,0.5c-0.1,0.3-0.2,0.5-0.5,0.6c-0.2,0.1-0.4,0.2-0.7,0.2l0.1,0.3l0.3,0.8c0.1,0.3,0.2,0.5,0.2,0.7c0.0,0.1,0.1,0.2,0.1,0.2l-0.9-0.3l-0.5-1.8l-0.4-0.1L75.8,31.0zM76.1,30.1l0.4,0.1c0.2,0.1,0.4,0.1,0.6,0.1c0.2-0.1,0.3-0.2,0.4-0.4c0.1-0.2,0.0-0.3-0.0-0.5c-0.1-0.1-0.3-0.2-0.5-0.3L76.7,29.0l-0.1-0.0l-0.1-0.0L76.1,30.1z"/>
			<path fill="#D2AD8B" d="M82.8,30.8c-0.1,0.1-0.1,0.2-0.2,0.4c-0.1,0.2-0.2,0.4-0.3,0.7l-0.6,1.2c-0.1,0.2-0.2,0.4-0.3,0.5c-0.1,0.1-0.3,0.2-0.5,0.3c-0.4,0.1-0.8,0.1-1.2-0.1c-0.2-0.1-0.4-0.2-0.6-0.4c-0.2-0.1-0.3-0.3-0.3-0.5c-0.1-0.2-0.1-0.3-0.1-0.5s0.1-0.4,0.2-0.6l0.6-1.2c0.1-0.3,0.2-0.5,0.3-0.7s0.1-0.3,0.1-0.4l0.8,0.3l-1.0,2.2c-0.1,0.3-0.2,0.5-0.1,0.7c0.0,0.2,0.2,0.4,0.5,0.5c0.3,0.1,0.5,0.1,0.7,0.0c0.1-0.0,0.2-0.1,0.2-0.2c0.1-0.1,0.1-0.2,0.2-0.3l1.0-2.2L82.8,30.8z"/>
			<path fill="#D2AD8B" d="M85.5,33.3c-0.1-0.2-0.3-0.4-0.4-0.5c-0.1-0.1-0.3-0.2-0.4-0.3c-0.1-0.1-0.3-0.1-0.4-0.1c-0.1,0.0-0.1,0.0-0.2,0.1c-0.1,0.0-0.1,0.1-0.1,0.1c-0.0,0.1-0.0,0.1-0.0,0.2c-0.0,0.1,0.0,0.1,0.0,0.2c0.0,0.1,0.1,0.1,0.2,0.2s0.2,0.2,0.3,0.4c0.3,0.3,0.5,0.6,0.5,0.8c0.1,0.3,0.1,0.5-0.1,0.7c-0.1,0.2-0.2,0.3-0.4,0.4c-0.1,0.1-0.3,0.2-0.5,0.2c-0.2,0.0-0.4,0.0-0.5-0.0s-0.4-0.1-0.5-0.2c-0.2-0.1-0.5-0.3-0.7-0.5c-0.2-0.2-0.3-0.4-0.4-0.5l0.5-0.6c0.2,0.4,0.5,0.8,0.9,1.0c0.1,0.0,0.2,0.1,0.2,0.1c0.1,0.0,0.2,0.0,0.2,0.0c0.2-0.0,0.3-0.1,0.4-0.2c0.0-0.1,0.0-0.1,0.0-0.2s-0.0-0.1-0.0-0.2c-0.0-0.1-0.1-0.2-0.2-0.3c-0.1-0.1-0.2-0.2-0.3-0.4c-0.2-0.2-0.3-0.3-0.4-0.4c-0.1-0.1-0.1-0.3-0.2-0.4c-0.0-0.1-0.0-0.2,0.0-0.3c0.0-0.1,0.1-0.2,0.1-0.3c0.1-0.1,0.2-0.3,0.4-0.4c0.2-0.1,0.4-0.2,0.6-0.2c0.3,0.0,0.5,0.1,0.8,0.2c0.2,0.1,0.4,0.2,0.5,0.4c0.1,0.1,0.3,0.3,0.4,0.4L85.5,33.3z"/>
			<path fill="#D2AD8B" d="M89.5,35.0l-0.4,0.5c-0.1-0.1-0.1-0.1-0.2-0.2s-0.2-0.1-0.3-0.2l-0.5-0.3l-1.2,1.8c-0.2,0.2-0.3,0.4-0.4,0.6c-0.1,0.1-0.2,0.3-0.2,0.4l-0.7-0.5c0.1-0.1,0.2-0.2,0.3-0.3c0.1-0.1,0.2-0.3,0.4-0.6l1.2-1.8l-0.5-0.3c-0.1-0.1-0.2-0.1-0.3-0.2c-0.1-0.1-0.2-0.1-0.3-0.1l0.4-0.5L89.5,35.0z"/>
			<path fill="#CA9F77" d="M62.3,34.1c-0.5,0.1-8.6,4.1-10.0,7.3c-0.6,1.3-1.3,2.6-1.5,5.1c-0.1,2.5,0.1,7.0,0.8,8.0c0.6,1.0,1.7,2.7,1.9,3.8c0.3,1.0,0.4,3.3,1.3,3.8c0.9,0.5,1.9-0.5,1.8,0.4c-0.1,0.9-1.6,0.8-1.6,0.8s-0.9,2.5-0.9,2.9c0.0,0.4-1.7,2.9-1.7,2.9l0.4,0.9c0.0,0.0-4.0,5.1-4.3,5.7c-0.3,0.6-3.5,2.9-4.2,5.8c-0.6,3.0-1.2,7.1-1.2,7.7c0.0,0.5,8.6,7.8,19.7,8.9c8.0,0.7,12.5-1.3,15.7-2.7c3.7-1.6,8.3-4.6,7.9-4.7c-0.4-0.1-10.2-15.8-11.9-16.1c-1.7-0.3,3.2-2.1-0.8-2.6c-1.5-0.2-1.8-0.8-2.1-1.4c-0.3-0.6,0.7-0.9,1.0-1.7s0.7-1.0,2.6-1.1c1.9-0.1,2.5-0.6,2.9-1.5c0.4-0.9,0.8-2.1,0.3-2.7c-0.5-0.6-1.4-0.9-1.5-1.4c-0.1-0.5,0.1-0.4,0.6-0.8c0.5-0.4-0.2-1.2-0.2-1.2l0.6-0.8c0.0,0.0-0.2-1.2-0.2-1.7c0.0-0.4,1.0-0.0,2.0-0.5c0.5-0.2,0.6-1.4,0.6-1.4s-2.1-4.5-2.6-4.8s-0.1-1.7-0.1-1.7s0.1-0.8-1.2-5.6c-0.2-0.9-0.2-0.9-0.6-1.6c-0.3-0.6,0.2-1.3,0.5-0.7c0.3,0.5,1.9-0.1,1.4-1.3c-0.5-1.2-0.3-1.9-1.6-2.9c-1.3-1.0-1.1-1.6-4.8-2.4C68.0,34.0,64.8,33.6,62.3,34.1z"/>
			<path fill="#A1540D" d="M85.4,93.4c0.1-0.1,0.1-0.2,0.2-0.3c0.5-0.7,0.8-1.4,1.0-2.0c-2.3,1.5-4.6,2.8-7.2,3.8c-2.9,1.1-6.0,1.9-9.1,2.3c-6.2,0.7-12.5-0.3-18.2-2.8c-3.2-1.4-6.2-3.3-9.1-5.4c-0.6-0.4-1.2,0.5-0.7,0.9c0.0,0.1,0.1,0.1,0.2,0.1c0.2,0.2,0.4,0.4,0.6,0.6c0.1,0.1,0.2,0.2,0.2,0.4c0.0,0.0,0.0,0.0,0.0-0.0c-0.0-0.1-0.0-0.1-0.1-0.2c9.5,8.4,23.9,10.2,35.5,5.8c2.2-0.8,4.5-1.9,6.5-3.1C85.3,93.4,85.3,93.4,85.4,93.4z"/>
			<path fill="#B3753B" d="M61.0,91.6c-1.2-3.6-2.8-7.2-5.7-9.7c-1.3-1.1-2.7-1.9-4.4-2.2c-1.4-0.3-3.6-0.3-4.8,0.8c-0.0,0.0-0.0,0.0,0.0,0.0c0.8,0.0,1.6-0.2,2.4-0.2c0.9-0.0,1.7,0.1,2.5,0.4c1.5,0.5,2.9,1.4,4.1,2.5c2.4,2.4,3.7,5.6,5.1,8.6C60.5,92.4,61.2,92.1,61.0,91.6z"/>
			<path fill="#B3753B" d="M72.7,93.4c-2.9-1.8-5.7-3.8-8.1-6.2c-1.2-1.2-2.3-2.5-3.2-3.8c-0.7-1.0-1.3-2.2-2.1-3.2c0.6-0.1,1.2-0.3,1.8-0.5c0.4-0.1,0.9-0.2,1.3-0.3c0.2,0.0,0.5-0.1,0.5-0.3c0.0-0.0,0.1-0.1,0.1-0.1c0.0-0.0,0.0-0.1-0.0-0.1c-0.0-0.0-0.1-0.0-0.1-0.1c-0.2-2.0-1.8-3.4-3.5-4.4c-2.1-1.2-5.3-2.0-6.2-4.5c-0.0-0.1-0.1-0.0-0.1,0.0c0.7,2.0,2.1,3.1,3.8,4.1c1.9,1.1,4.4,2.2,5.0,4.6c-0.4,0.0-0.8,0.1-1.1,0.2c-0.9,0.1-1.9,0.2-2.7,0.6c-0.4,0.2-0.2,0.8,0.2,0.9c0.1,0.0,0.1,0.0,0.2,0.0c0.4,1.2,1.2,2.4,1.9,3.5c1.0,1.5,2.1,2.8,3.3,4.1c2.4,2.6,5.3,4.8,8.5,6.2C72.8,94.2,73.1,93.6,72.7,93.4z"/>
			<path fill="#B3753B" d="M76.5,94.4c-2.0-5.7-5.1-11.1-8.5-16.2c-1.7-2.5-3.5-4.9-5.4-7.3c-1.9-2.3-4.0-4.8-6.3-6.7c-0.4-0.3-0.8,0.1-0.5,0.5c1.9,2.3,4.0,4.4,5.9,6.7c2.0,2.4,3.8,4.9,5.5,7.4c3.4,5.0,6.0,10.4,8.6,15.8C75.9,95.1,76.6,94.8,76.5,94.4z"/>
			<path fill="#B3753B" d="M55.7,88.4c-1.3-1.6-2.9-3.0-4.7-4.0c-0.4-0.2-0.9,0.2-0.6,0.6c0.7,1.2,1.5,2.4,2.2,3.7c-1.4,0.0-2.8,0.0-4.2,0.2c-0.5,0.1-0.3,0.7,0.1,0.8c1.6,0.1,3.3-0.1,4.8-0.2c0.3-0.0,0.5-0.4,0.4-0.7c-0.6-0.9-1.1-1.9-1.7-2.9c1.2,0.7,2.2,1.6,3.1,2.7c0.6,0.7,1.2,1.6,1.6,2.4c0.4,0.8,0.7,1.8,1.2,2.6c0.0,0.1,0.1,0.0,0.1-0.0C58.1,91.8,56.8,89.8,55.7,88.4z"/>
			<path fill="#B3753B" d="M77.4,66.0c-0.6,0.1-0.8,0.6-1.3,0.9c-0.5,0.3-1.0,0.6-1.6,0.7c-1.0,0.3-2.0,0.3-3.0,0.1c-0.1-0.0-0.2-0.1-0.3-0.1c-2.1-0.3-4.3-1.3-5.9-2.7c-0.8-0.7-1.5-1.5-2.0-2.4c-0.3-0.4-0.5-0.9-0.7-1.3c-0.3-0.5-0.7-0.7-1.1-1.1c-0.0-0.0-0.1-0.0-0.1,0.0c-0.1,0.6-0.4,1.0-0.2,1.7c0.2,0.5,0.4,1.1,0.7,1.6c0.6,1.1,1.4,2.1,2.4,2.9c1.9,1.7,4.3,2.6,6.8,2.7c0.2,0.0,0.4-0.1,0.5-0.2c1.0,0.3,2.0,0.3,3.0,0.2c1.2-0.2,3.3-0.7,3.7-1.9C78.6,66.3,78.0,65.9,77.4,66.0z"/>
			<path fill="#A1540D" d="M78.3,66.6c-0.5,0.2-0.7,0.7-1.1,1.1c-0.5,0.4-1.0,0.7-1.6,1.0c-0.5,0.2-1.1,0.4-1.7,0.5c-0.4,0.1-0.8,0.1-1.2,0.2c-0.1-0.1-0.1-0.2-0.2-0.3c-0.2-0.3-0.8,0.0-0.6,0.4c0.0,0.3,0.1,0.6,0.2,0.9c0.1,0.4,0.2,0.6,0.5,0.8c0.3,0.3,1.0,0.1,0.9-0.4c-0.0-0.1-0.0-0.1-0.0-0.2c1.0,0.0,2.2-0.5,2.9-1.0c0.9-0.6,2.3-1.8,2.3-2.9C78.5,66.6,78.4,66.5,78.3,66.6z"/>
			<path fill="#A1540D" d="M75.9,73.0c-0.2,0.1-0.3,0.1-0.5,0.2c-0.1-0.0-0.2,0.0-0.3,0.1c-0.2,0.1-0.3,0.2-0.5,0.3c-0.4,0.2-0.4,0.7-0.2,1.0c0.3,0.3,0.7,0.3,1.0,0.1c0.3-0.3,0.6-0.5,0.9-0.9C76.7,73.5,76.4,72.9,75.9,73.0z"/>
			<path fill="#A1540D" d="M54.2,63.4c-0.0-0.0-0.0-0.0-0.0,0.0c-0.1,0.4-0.3,0.8-0.3,1.1c-0.1,0.5-0.3,1.0-0.5,1.4c-0.4,0.8-1.0,1.4-1.4,2.2c-0.2,0.3,0.0,0.7,0.3,0.9c-0.1,0.0-0.1,0.0-0.2,0.1c-0.8,0.5-1.4,1.3-1.9,2.0c-0.7,0.8-1.3,1.6-2.0,2.3c-1.2,1.4-2.4,2.9-3.5,4.5c-1.0,1.5-1.9,3.1-2.4,4.8c-0.5,1.7-0.9,3.6-0.3,5.3c0.3,0.8,1.4,0.6,1.5-0.2c0.2-1.7,0.2-3.4,0.8-5.0c0.6-1.6,1.4-3.1,2.3-4.5c0.9-1.4,2.0-2.8,3.0-4.2c0.6-0.8,1.1-1.5,1.7-2.3c0.5-0.7,1.1-1.4,1.4-2.2c0.1-0.2-0.0-0.4-0.2-0.5c0.1-0.0,0.2-0.0,0.3-0.1c0.8-0.6,1.3-1.6,1.6-2.6c0.1-0.5,0.2-1.0,0.2-1.5C54.6,64.2,54.4,64.0,54.2,63.4z"/>
			<path fill="#A1540D" d="M60.3,34.0c-0.9-0.1-1.9,0.5-2.6,0.9c-0.9,0.5-1.8,1.1-2.6,1.7c-1.6,1.3-3.0,3.0-4.1,4.8c-2.3,4.0-2.9,9.1-1.4,13.5c0.2,0.5,0.7,0.5,1.0,0.3c1.5,2.4,2.4,4.9,2.8,7.7c0.1,0.7,1.2,0.5,1.2-0.2c0.1-3.4-1.4-6.7-3.9-9.0c-0.0-0.0-0.0-0.0-0.1-0.1c-0.6-4.0-0.0-8.0,1.9-11.6c0.9-1.7,2.1-3.1,3.5-4.4c0.7-0.7,1.4-1.3,2.2-1.8c0.7-0.5,1.6-0.9,2.2-1.5C60.5,34.2,60.4,34.0,60.3,34.0z"/>
			<path fill="#B3753B" d="M74.2,38.8c-0.6-0.4-1.3-0.5-1.9-0.4c0.0-0.2,0.0-0.3,0.0-0.5c0.1-0.6-0.7-0.9-1.1-0.7c-0.9,0.5-1.8,0.9-2.6,1.4c-2.1-1.8-5.6-1.8-7.4,0.4c-0.5,0.6,0.3,1.4,0.9,0.9c1.7-1.4,4.3-1.4,5.8,0.2c0.2,0.3,0.6,0.3,0.9,0.1c0.6-0.3,1.3-0.7,1.9-1.0c-0.0,0.1-0.0,0.2-0.0,0.3c-0.0,0.5,0.7,1.0,1.1,0.6c0.5-0.4,1.2-0.6,1.8-0.3c0.5,0.2,0.9,0.8,1.3,1.2c0.1,0.1,0.2,0.1,0.2-0.0C75.6,40.2,75.0,39.3,74.2,38.8z"/>
			<path fill="#B3753B" d="M67.1,39.6c-0.7,0.1-1.2-0.0-1.8,0.4c-0.6,0.3-1.1,0.8-1.5,1.3c-0.9,1.2-1.0,2.8-0.5,4.2c0.1,0.2,0.2,0.3,0.4,0.3c-0.4,0.6-0.8,1.2-1.3,1.7c-0.8,0.9-1.7,1.5-2.6,2.2c-0.3,0.2,0.0,0.7,0.3,0.6c2.3-0.8,4.3-3.3,4.8-5.6c0.0-0.1-0.0-0.3-0.1-0.3c-0.0-0.0-0.0-0.0-0.1-0.0c-0.0-0.0-0.0-0.0-0.0-0.0c-0.1-0.0-0.3,0.0-0.3,0.1c-0.1,0.1-0.1,0.2-0.2,0.3c-0.2-1.0-0.1-2.1,0.5-3.0c0.3-0.4,0.7-0.8,1.1-1.1c0.4-0.2,0.9-0.6,1.3-0.7C67.4,40.0,67.3,39.6,67.1,39.6z"/>
			<path fill="#B3753B" d="M65.5,45.6c-1.2,1.5-2.1,3.2-3.0,4.9c-0.2,0.3,0.3,0.6,0.5,0.3c1.0-1.6,2.1-3.2,2.8-5.0C65.8,45.6,65.6,45.5,65.5,45.6z"/>
			<path fill="#B3753B" d="M66.3,46.9c-0.8,1.5-1.6,2.8-2.9,3.8c-0.3,0.3,0.1,0.8,0.4,0.6c1.4-1.0,2.6-2.6,2.6-4.4C66.5,46.9,66.4,46.9,66.3,46.9z"/>
			<path fill="#B3753B" d="M67.2,48.5c-0.4,0.6-0.7,1.2-1.0,1.8c-0.3,0.6-0.6,1.1-0.6,1.7c-0.0,0.4,0.6,0.7,0.8,0.3c0.4-0.5,0.5-1.1,0.7-1.7c0.2-0.6,0.5-1.3,0.6-2.0C67.8,48.4,67.4,48.2,67.2,48.5z"/>
			<path fill="#B3753B" d="M75.6,63.0c-0.6-0.1-1.2-0.2-1.9-0.2c0.1-0.6,0.2-1.3,0.0-1.8c-0.1-0.3-0.4-0.5-0.7-0.4c-0.5,0.2-1.1,0.3-1.5,0.6c-0.0-0.1-0.1-0.2-0.3-0.3c-1.8-0.4-3.5-1.3-4.3-3.0c-0.5-1.1-0.7-2.5-0.3-3.8c0.0,0.0,0.0,0.0,0.0,0.0c0.1-0.0,0.2-0.0,0.3-0.0c-0.0,0.0-0.0,0.1-0.0,0.1c-0.1,0.3,0.1,0.6,0.3,0.7c1.6,1.1,1.9,4.1,4.4,3.6c0.6-0.1,0.5-1.2-0.2-1.1c-1.7,0.2-2.1-2.4-3.2-3.4c0.0-0.2,0.0-0.5-0.1-0.7c-0.1-0.3-0.5-0.4-0.8-0.2c-0.3,0.3-0.6,0.5-0.8,0.9c0.2-0.6,0.5-1.2,0.9-1.6c0.1-0.1-0.0-0.2-0.1-0.1c-0.9,0.9-1.6,1.7-1.8,2.9c-0.2,1.1-0.2,2.3,0.3,3.3c0.9,2.1,3.0,3.6,5.3,3.3c-0.0,0.1,0.0,0.2,0.1,0.2c0.3,0.2,0.7,0.1,1.1,0.1c-0.1,0.5-0.1,0.9-0.2,1.4c-0.1,0.5,0.2,0.8,0.6,0.8c0.8,0.1,1.6,0.2,2.5,0.1C76.1,64.1,76.3,63.1,75.6,63.0z"/>
			<path fill="#B3753B" d="M76.8,60.2c-0.2-0.1-0.3-0.2-0.5-0.3c-0.1-0.1-0.3-0.1-0.4-0.2c-0.3-0.1-0.7-0.3-1.0-0.3c-0.0,0.0-0.1,0.0-0.1,0.0c-0.0-0.0-0.0-0.1-0.0-0.1c0.0-0.0-0.0-0.1-0.1-0.1c-0.1,0.0-0.1,0.0-0.2,0.1c-0.1,0.0-0.1,0.1-0.2,0.1c-0.1,0.1-0.3,0.2-0.4,0.3c-0.1,0.1-0.1,0.4,0.0,0.5c0.1,0.1,0.3,0.1,0.4,0.0c0.0,0.1,0.1,0.2,0.2,0.2c0.4,0.2,0.7,0.1,1.1,0.2c0.2,0.0,0.3,0.0,0.5-0.0c0.2-0.1,0.4-0.1,0.6-0.1C76.8,60.4,76.9,60.2,76.8,60.2z"/>
			<path fill="#B3753B" d="M79.9,56.7c-0.4-0.3-0.8-0.4-1.3-0.4c-0.6-0.0-1.2-0.1-1.9-0.0c-0.8,0.1-0.6,1.4,0.2,1.4c0.6,0.0,1.2-0.1,1.7-0.2c0.5-0.1,0.9-0.2,1.3-0.5C79.9,56.9,79.9,56.8,79.9,56.7z"/>
			<path fill="#B3753B" d="M77.0,49.2c-0.7-1.0-2.3-1.2-3.4-0.8c-1.1,0.4-1.7,1.4-1.9,2.5c-0.0,0.0-0.0,0.1,0.0,0.1c0.0,0.0-0.0,0.0-0.0,0.0c-0.2,0.2-0.1,0.6,0.2,0.7c0.7,0.2,1.4-0.2,2.0-0.5c0.0,0.0,0.0,0.0,0.0,0.1c0.0,0.2,0.3,0.5,0.6,0.4c0.2-0.0,0.5-0.2,0.6-0.4c0.0-0.1,0.0-0.1,0.0-0.2c0.0-0.1,0.0-0.2-0.0-0.4c0.4-0.2,0.7-0.4,1.1-0.6c0.0-0.0,0.0-0.0,0.0-0.0c0.0,0.0,0.0,0.0,0.1,0.0C76.8,50.3,77.4,49.6,77.0,49.2zM74.6,50.1c-0.1-0.0-0.2-0.0-0.3,0.1c-0.0,0.0-0.0,0.0-0.0,0.0c-0.2,0.0-0.3,0.1-0.5,0.1c-0.5,0.1-1.1,0.2-1.6,0.4c0.4-0.6,1.0-0.9,1.8-1.1c0.7-0.2,1.2,0.1,1.8,0.3C75.3,49.9,75.0,50.0,74.6,50.1z"/>
			<path fill="#B3753B" d="M74.7,53.0c-0.1-0.2-0.2-0.3-0.3-0.5c-0.2-0.2-0.4-0.2-0.6-0.0c-0.1-0.1-0.2-0.2-0.3-0.2c-0.2-0.0-0.4,0.0-0.4,0.2c-0.1,0.2-0.1,0.4,0.0,0.6c0.1,0.1,0.2,0.3,0.3,0.4c0.3,0.3,0.6,0.4,0.9,0.4C74.6,53.8,74.9,53.3,74.7,53.0z"/>
			<path fill="#B3753B" d="M75.5,55.7c-1.0,1.4-2.0,2.9-3.0,4.4c-0.2,0.3,0.3,0.6,0.5,0.3c0.9-1.5,1.7-3.1,2.5-4.6C75.5,55.7,75.5,55.7,75.5,55.7z"/>
			<path fill="#B3753B" d="M77.3,54.8c-0.0-0.1-0.1-0.2-0.2-0.3c-0.1-0.1-0.3-0.2-0.5-0.2c-0.3,0.0-0.7,0.2-0.8,0.6c-0.0,0.3,0.3,0.5,0.5,0.3c0.1-0.1,0.2-0.2,0.4-0.3c0.1-0.0,0.2-0.0,0.2-0.1c0.1-0.0,0.1-0.0,0.2-0.0C77.3,55.0,77.3,54.9,77.3,54.8z"/>
			<path fill="#B3753B" d="M70.4,46.1c-0.1-0.1-0.4-0.1-0.3,0.1c0.5,1.1,0.0,2.2-0.7,3.1c-0.3,0.3,0.1,0.9,0.5,0.7C71.1,49.1,71.2,47.3,70.4,46.1z"/>
			<path fill="#B3753B" d="M61.6,56.3c-0.0-0.2-0.2-0.4-0.4-0.4c-0.2-0.0-0.4-0.2-0.4-0.4c0.0-0.3,0.2-0.4,0.4-0.6c0.1-0.1,0.1-0.3-0.1-0.4c-0.0-0.0-0.0-0.0-0.0-0.1c-0.2-0.6-0.7-0.9-1.2-1.3c-0.5-0.4-1.1-0.8-1.6-1.1c-0.1-0.1-0.3,0.1-0.2,0.2c0.4,0.5,0.8,1.0,1.2,1.6c0.3,0.3,0.5,0.7,0.9,1.0c-0.3,0.2-0.4,0.6-0.4,0.9c0.0,0.3,0.1,0.6,0.3,0.8c-0.1,0.2-0.1,0.4-0.0,0.6c0.1,0.1,0.2,0.2,0.4,0.3c0.2,0.1,0.4-0.0,0.6-0.2l0.2-0.2c0.0-0.0,0.1-0.1,0.1-0.1C61.5,56.7,61.6,56.5,61.6,56.3z"/>
			<path fill="#B3753B" d="M59.9,57.2c-0.6-0.7-1.1-1.4-1.3-2.3c-0.2-0.7-0.1-1.5-0.3-2.2c-0.0-0.0-0.0-0.0-0.0-0.0c-1.4,1.3-0.1,4.2,1.3,4.9C59.9,57.8,60.1,57.4,59.9,57.2z"/>
			<path fill="#B3753B" d="M57.0,64.0c0.0-0.0,0.0-0.0,0.0-0.0c0.0-0.0,0.0-0.0,0.0-0.0C57.0,64.0,57.0,64.0,57.0,64.0z"/>
			<path fill="#B3753B" d="M57.0,64.0c-0.0,0.0-0.0,0.0-0.0,0.0c0.0-0.0,0.0-0.0,0.0-0.1C57.0,64.0,57.0,64.0,57.0,64.0z"/>
			<path fill="#B3753B" d="M78.4,87.2c0.1,0.6,1.0,0.3,0.9-0.2c-0.5-2.2-1.4-4.4-2.5-6.4c-1.1-2.0-2.7-3.6-4.3-5.2c0.2-0.1,0.3-0.2,0.5-0.3c0.4-0.2,1.0-0.5,1.3-0.9c0.1-0.1,0.2-0.1,0.2-0.2c0.1-0.1,0.1-0.2-0.1-0.3c-0.6-0.1-1.3,0.1-1.9,0.3l-1.9,0.5c-0.4-0.6-0.7-1.2-1.1-1.7c1.0-0.3,2.1-0.7,2.8-1.4c0.1-0.1,0.0-0.2-0.1-0.2c-0.3-0.0-0.6-0.0-0.9,0.0c-0.0-0.2-0.1-0.3-0.3-0.4c-4.5-1.6-8.7-3.8-12.6-6.5c0.0-0.1,0.0-0.1,0.0-0.2c0.0-0.3-0.2-0.5-0.4-0.6c0.4-0.2,0.8-0.4,1.2-0.6c0.3-0.1,0.3-0.5,0.2-0.8c0.2-0.0,0.4-0.0,0.6-0.1c0.4-0.1,0.5-0.6,0.4-0.9c-0.2-0.5-0.3-1.2-0.6-1.7c0.4,0.1,0.7,0.1,1.1,0.2c0.1,0.4,0.6,0.6,0.9,0.3c1.2-1.1,1.6-2.9,1.4-4.5c-0.1-1.3-0.8-3.1-2.1-3.7c-0.2-0.1-0.4,0.2-0.3,0.4c0.3,0.6,0.7,1.1,1.0,1.7c0.2,0.6,0.4,1.2,0.4,1.8c0.0,1.1-0.3,2.1-0.9,3.0c-0.1,0.1-0.2,0.2-0.2,0.3c-0.0,0.0-0.0,0.0-0.0,0.0c-0.0,0.0-0.0,0.0-0.0,0.0c0.0,0.0,0.0,0.0,0.0,0.0c-0.0,0.0-0.0,0.0-0.0,0.0c-0.0-0.0-0.1-0.0-0.1-0.0c-1.8-0.4-3.5-1.5-3.9-3.4c-0.2-0.9-0.2-1.9,0.2-2.8c0.4-1.0,1.7-2.1,2.8-1.2c0.0,0.0,0.1,0.0,0.1-0.1c-0.4-0.9-1.4-1.2-2.2-0.8c-1.2,0.6-1.7,2.1-1.8,3.3c-0.2,2.2,1.1,4.3,3.1,5.1c-0.1,0.5-0.0,1.0,0.0,1.5c-0.5-0.1-1.0-0.0-1.5-0.0c-0.7,0.0-0.9,0.9-0.3,1.3c0.2,0.1,0.3,0.2,0.5,0.3c-0.6,0.3-1.2,0.6-1.7,0.9c-0.4,0.3,0.0,0.9,0.5,0.8c0.2-0.0,0.4-0.1,0.6-0.2c-0.0,0.0-0.0,0.1-0.0,0.1c-0.0,0.0-0.0,0.0-0.0,0.0c0.0-0.0,0.0-0.0,0.0-0.0c-0.0,0.1-0.0,0.1-0.0,0.2c0.0-0.0,0.0-0.1,0.0-0.1c-0.0,0.1-0.0,0.2-0.0,0.3c0.1,0.3,0.3,0.5,0.6,0.5c3.7,2.9,7.8,5.1,12.1,6.6c-0.5,0.1-0.9,0.3-1.3,0.4c-0.4,0.1-0.5,0.5-0.4,0.9c0.6,1.0,1.2,2.1,1.8,3.1c0.2,0.4,0.6,0.4,0.9,0.2c0.0-0.0,0.1-0.0,0.1-0.1c0.1-0.0,0.2-0.1,0.3-0.1c1.0,0.9,1.7,1.9,2.2,3.2c0.5,1.4,0.9,2.9,1.3,4.4c0.5,1.7,1.0,3.4,1.4,5.1c0.5,1.8,0.9,3.7,1.6,5.4c0.2,0.6,1.1,0.4,1.0-0.3c-0.4-2.0-1.1-3.9-1.7-5.8c-0.6-1.9-1.2-3.8-1.8-5.8c-0.6-2.0-1.4-5.6-3.6-6.5c0.2-0.1,0.5-0.3,0.7-0.4C75.5,78.5,77.4,82.9,78.4,87.2z"/>
			<path fill="#B3753B" d="M82.2,86.0c-0.9-1.6-2.3-3.1-3.5-4.6c-1.2-1.5-2.4-3.1-3.5-4.6c-0.0-0.0-0.1-0.0-0.1,0.1c1.1,1.7,2.2,3.3,3.3,5.0c1.0,1.5,1.9,3.3,3.2,4.7C81.8,86.9,82.4,86.4,82.2,86.0z"/>
			<path fill="#D8B99C" d="M64.0,39.9c-1.8,0.7-3.4,2.7-2.9,4.8c0.1,0.4,0.7,0.3,0.7-0.1c0.1-1.8,0.6-3.4,2.4-4.3C64.4,40.2,64.2,39.9,64.0,39.9z"/>
			<path fill="#D8B99C" d="M61.3,39.6c-2.2,1.2-3.8,3.2-3.5,5.9c0.1,1.0,1.7,1.0,1.6,0.0c-0.2-1.9,0.5-4.3,2.3-5.3C62.1,40.0,61.7,39.4,61.3,39.6z"/>
			<path fill="#D8B99C" d="M76.7,45.8c-0.2-0.2-0.5-0.4-0.8-0.5c0.1-0.9-0.2-1.9-0.6-2.7c-0.4-0.8-1.0-1.8-1.9-2.2c-0.3-0.1-0.4,0.2-0.4,0.4c0.1,0.8,0.6,1.5,0.8,2.4c0.1,0.6,0.1,1.3,0.2,1.9c-1.3,0.3-2.5,1.5-2.7,2.9c-0.1,0.3,0.4,0.6,0.6,0.2c0.8-1.5,2.4-1.3,3.8-0.9C76.6,47.7,77.5,46.5,76.7,45.8z"/>
			<path fill="#D8B99C" d="M58.2,48.8c-0.4-0.5-0.9-0.9-1.2-1.5c-0.3-0.8-0.3-1.6,0.0-2.4c0.1-0.2-0.2-0.3-0.3-0.2c-0.9,1.3-0.9,4.0,0.8,4.7C57.9,49.6,58.5,49.2,58.2,48.8z"/>
			<path fill="#D8B99C" d="M65.6,64.0c-0.8-1.2-1.2-2.5-0.8-4.0c0.0-0.1-0.1-0.2-0.2-0.1c-0.7,1.4-0.7,3.2,0.3,4.4C65.2,64.7,65.8,64.4,65.6,64.0z"/>
			<path fill="#D8B99C" d="M67.8,64.5c-1.1-0.9-1.6-2.3-1.0-3.7c0.1-0.1-0.1-0.3-0.2-0.1c-1.2,1.4-1.1,3.6,0.3,4.7C67.6,65.9,68.5,65.0,67.8,64.5z"/>
			<path fill="#D8B99C" d="M74.3,65.7c-0.2-0.1-0.4-0.3-0.6-0.4c-0.3-0.2-0.6-0.1-0.8,0.1c-0.2-0.1-0.3-0.2-0.5-0.2c-0.2-0.1-0.4,0.1-0.5,0.3c-0.0,0.1-0.0,0.3,0.0,0.4c-0.7-0.6-1.1-1.4-0.7-2.4c0.1-0.3-0.4-0.5-0.5-0.2c-0.6,0.9-0.5,2.2,0.1,3.1c-1.3-0.8-2.2-2.1-1.5-3.8c0.1-0.2-0.1-0.4-0.3-0.2c-1.5,1.8-0.7,5.0,1.9,5.1c0.3,0.0,0.5-0.2,0.5-0.5c0.2,0.1,0.4,0.2,0.6,0.3c0.4,0.1,0.7-0.2,0.7-0.5c0.4,0.3,1.0,0.4,1.5,0.3C74.8,66.9,74.9,66.0,74.3,65.7z"/>
			<path fill="#D8B99C" d="M77.2,51.5c-0.1-0.1-0.3-0.0-0.3,0.1c0.1,1.2,0.2,2.6,1.0,3.6c0.4,0.4,1.2,0.1,1.2-0.5C78.9,53.5,77.9,52.4,77.2,51.5z"/>
			<path fill="#D8B99C" d="M75.7,36.7c-0.3-0.1-0.5-0.2-0.8-0.2c-0.4,0.0-0.6,0.1-0.9,0.3c-0.2,0.1-0.4,0.5-0.3,0.7c0.1,0.3,0.3,0.4,0.6,0.5c0.3,0.0,0.6,0.0,0.9-0.1c0.3-0.1,0.5-0.3,0.7-0.5C76.1,37.1,75.9,36.8,75.7,36.7z"/>
			<path fill="#D8B99C" d="M73.1,35.5c-0.8,0.0-1.7,0.0-2.3,0.5c-0.4,0.3-0.0,0.8,0.3,0.8c0.4,0.0,0.8-0.2,1.1-0.3c0.4-0.1,0.7-0.3,1.0-0.5C73.4,35.8,73.3,35.5,73.1,35.5z"/>
			<path fill="#D8B99C" d="M70.7,35.1c-0.9-0.6-2.5,0.0-2.9,1.0c-0.2,0.5,0.4,0.9,0.9,0.8c0.0,0.0,0.0,0.0,0.0,0.0c0.0-0.0,0.0-0.0,0.1-0.0c0.0-0.0,0.1-0.0,0.1-0.0c0.3-0.1,0.5-0.3,0.8-0.4c0.2-0.1,0.3-0.2,0.3-0.4c0.3-0.2,0.6-0.4,0.8-0.7C70.8,35.4,70.8,35.2,70.7,35.1z"/>
			<path fill="#D8B99C" d="M67.9,34.7c-0.6,0.2-1.1,0.4-1.6,0.7c-0.5,0.3-1.1,0.5-1.2,1.1c-0.0,0.2,0.2,0.4,0.4,0.5c0.7,0.1,1.0-0.4,1.4-0.9c0.4-0.4,0.8-0.9,1.1-1.4C68.0,34.7,67.9,34.7,67.9,34.7z"/>
			<path fill="#D8B99C" d="M65.1,34.8c-0.4,0.3-0.8,0.7-1.2,1.0c-0.4,0.3-0.9,0.5-1.0,0.9c-0.1,0.3,0.2,0.6,0.6,0.6c0.5-0.1,0.7-0.6,0.9-1.0c0.3-0.4,0.6-0.8,0.9-1.3C65.4,34.9,65.2,34.7,65.1,34.8z"/>
			<path fill="#D8B99C" d="M62.1,35.9c-0.0-0.1-0.0-0.3-0.0-0.4c-0.0-0.1-0.0-0.1-0.1-0.2c-0.1-0.0-0.1-0.1-0.0-0.1c-0.0-0.1-0.1-0.1-0.2-0.1c-0.0,0.1-0.2,0.1-0.2,0.1c-0.1,0.1-0.2,0.2-0.2,0.3c-0.2,0.2-0.3,0.5-0.3,0.8c-0.1,0.7,0.8,1.0,1.1,0.3C62.1,36.5,62.1,36.1,62.1,35.9z"/>
			<path fill="#D8B99C" d="M59.7,37.3c-0.0-0.1-0.1-0.2-0.0-0.4c0.0-0.2-0.3-0.2-0.3-0.0c-0.0,0.1-0.1,0.3-0.2,0.4c-0.2,0.1-0.3,0.2-0.3,0.4c-0.1,0.2,0.0,0.5,0.2,0.6c0.1,0.1,0.3,0.1,0.4,0.1c0.2-0.1,0.4-0.2,0.4-0.4C59.9,37.7,59.8,37.4,59.7,37.3z"/>
			<path fill="#D8B99C" d="M74.9,71.1c-0.4-0.5-1.2-0.3-1.7-0.2c-0.7,0.1-1.4,0.2-2.0,0.6c-1.2,0.7-0.4,2.4,0.9,2.2C72.9,73.5,75.8,72.2,74.9,71.1z"/>
			<path fill="#D8B99C" d="M65.8,78.3c-3.1-4.6-6.5-8.8-10.1-13.1c-0.0-0.1-0.1,0.0-0.1,0.1c3.0,4.6,6.0,9.2,9.5,13.5C65.4,79.1,66.1,78.7,65.8,78.3z"/>
			<path fill="#D8B99C" d="M65.4,79.2c-0.7-0.4-1.5-0.1-2.3,0.2c-0.4,0.2-0.8,0.3-1.1,0.5c-0.4,0.2-0.6,0.5-1.0,0.8c-0.0,0.0-0.0,0.1,0.0,0.1c0.4,0.1,0.7,0.2,1.1,0.2c0.4,0.0,0.9-0.0,1.4-0.1c0.8-0.1,1.6-0.2,2.1-0.9C65.8,79.8,65.7,79.4,65.4,79.2z"/>
			<path fill="#D8B99C" d="M72.0,80.9c-2.2-4.7-5.7-8.6-9.3-12.2c-0.1-0.1-0.2,0.0-0.1,0.1c3.4,3.8,5.9,8.2,8.5,12.6C71.4,82.1,72.4,81.5,72.0,80.9z"/>
			<path fill="#D8B99C" d="M56.0,79.4c-1.6-1.0-3.2-1.6-5.0-1.8c-0.4-0.1-0.8-0.1-1.2-0.1c0.1-0.2,0.2-0.3,0.4-0.5c0.4-0.6,0.8-1.2,1.2-1.8c0.7-1.2,1.4-2.4,2.0-3.7c0.1-0.2-0.1-0.3-0.3-0.1c-0.8,1.1-1.7,2.2-2.7,3.3c-0.7,0.9-2.0,1.8-2.3,2.8c-0.0,0.1-0.0,0.2-0.0,0.3c-0.3,0.2-0.6,0.4-0.7,0.8c-0.0,0.1,0.0,0.1,0.1,0.1c2.5-0.5,5.6,0.7,7.8,2.0C56.1,81.1,56.8,79.9,56.0,79.4z"/>
			<path fill="#D8B99C" d="M48.4,81.4c-0.4-0.6-1.1-0.8-1.7-0.4c-0.8,0.5-0.8,1.6-0.9,2.4c-0.2,1.0-0.3,2.1-0.5,3.1c-0.1,0.9-0.4,2.0-0.2,3.0c0.0,0.2,0.2,0.2,0.3,0.0c0.4-0.6,2.2-7.1,2.2-7.1C48.2,82.6,48.8,81.9,48.4,81.4z"/>
			<path fill="#D2AD8B" d="M31.4,64.7c0.3,0.0,0.5-0.0,0.6-0.0s0.3-0.0,0.3-0.0v0.7h-2.2c0.0-0.1,0.0-0.2,0.0-0.4s0.0-0.4,0.0-0.8v-1.6c0.0-0.3-0.0-0.6-0.0-0.8c-0.0-0.2-0.0-0.3-0.0-0.4h0.7v3.3H31.4z"/>
			<path fill="#D2AD8B" d="M34.5,61.5v0.5h-0.6v2.8h0.6v0.5h-1.8v-0.5h0.6v-2.8h-0.6v-0.5H34.5z"/>
			<path fill="#D2AD8B" d="M37.7,64.7c-0.1,0.1-0.1,0.3-0.3,0.4c-0.1,0.1-0.3,0.2-0.4,0.2c-0.2,0.1-0.4,0.1-0.6,0.1c-0.3,0.0-0.5-0.0-0.8-0.0c-0.1-0.0-0.2-0.0-0.4-0.0c0.0-0.1,0.0-0.3,0.0-0.5c0.0-0.1,0.0-0.2,0.0-0.3v-2.2c0.0-0.3-0.0-0.5-0.0-0.6c-0.0-0.1-0.0-0.2-0.0-0.2c0.1-0.0,0.3-0.0,0.5-0.0c0.1-0.0,0.3-0.0,0.6-0.0c0.4,0.0,0.7,0.1,0.9,0.2c0.2,0.2,0.4,0.4,0.4,0.8c0.0,0.2-0.1,0.4-0.2,0.5c-0.1,0.1-0.2,0.2-0.4,0.3c0.2,0.1,0.4,0.2,0.5,0.3c0.2,0.2,0.2,0.4,0.2,0.7C37.8,64.4,37.7,64.5,37.7,64.7zM35.9,63.0h0.4c0.2,0.0,0.4-0.0,0.5-0.1s0.2-0.2,0.2-0.4c0.0-0.2-0.0-0.3-0.1-0.4c-0.1-0.1-0.3-0.1-0.5-0.1c-0.2,0.0-0.3,0.0-0.4,0.0V63.0zM35.9,64.8c0.1,0.0,0.2,0.0,0.5,0.0c0.2,0.0,0.4-0.0,0.5-0.1c0.1-0.1,0.2-0.3,0.2-0.5c0.0-0.2-0.1-0.3-0.2-0.4c-0.1-0.1-0.3-0.1-0.6-0.1h-0.4V64.8z"/>
			<path fill="#D2AD8B" d="M40.4,63.0v0.6h-1.3v1.1h0.6c0.3,0.0,0.5-0.0,0.6-0.0c0.1-0.0,0.2-0.0,0.3-0.0v0.7h-2.2c0.0-0.1,0.0-0.2,0.0-0.4s0.0-0.4,0.0-0.8v-1.6c0.0-0.3-0.0-0.6-0.0-0.8c-0.0-0.2-0.0-0.3-0.0-0.4h2.1v0.6h-1.4v0.9H40.4z"/>
			<path fill="#D2AD8B" d="M42.0,64.2c0.0,0.3,0.0,0.5,0.0,0.7c0.0,0.2,0.0,0.4,0.0,0.5h-0.7c0.0-0.1,0.0-0.2,0.0-0.4s0.0-0.4,0.0-0.8v-1.9c0.0-0.3-0.0-0.5-0.0-0.6c-0.0-0.1-0.0-0.2-0.0-0.2c0.1-0.0,0.2-0.0,0.4-0.0c0.2-0.0,0.5-0.0,0.8-0.0c0.2,0.0,0.3,0.0,0.5,0.1c0.1,0.0,0.3,0.1,0.4,0.2c0.1,0.1,0.2,0.2,0.3,0.4c0.1,0.1,0.1,0.3,0.1,0.5c0.0,0.3-0.1,0.5-0.2,0.7c-0.1,0.2-0.3,0.3-0.5,0.4l0.2,0.3l0.4,0.7c0.2,0.2,0.3,0.4,0.4,0.6c0.1,0.1,0.1,0.1,0.1,0.1h-0.8l-0.9-1.6h-0.3V64.2zM42.0,63.2h0.4c0.2,0.0,0.4-0.0,0.5-0.1c0.1-0.1,0.2-0.3,0.2-0.5c0.0-0.2-0.1-0.3-0.2-0.4c-0.1-0.1-0.3-0.1-0.5-0.1l-0.2,0.0l-0.1,0.0l-0.1,0.0V63.2z"/>
			<path fill="#D2AD8B" d="M46.9,61.5v0.7c-0.1-0.0-0.2-0.0-0.2-0.0c-0.1-0.0-0.2-0.0-0.3-0.0h-0.5v2.2c0.0,0.3,0.0,0.5,0.0,0.7c0.0,0.2,0.0,0.3,0.0,0.4h-0.8c0.0-0.1,0.0-0.2,0.0-0.4c0.0-0.2,0.0-0.4,0.0-0.7v-2.2h-0.5c-0.1,0.0-0.2,0.0-0.3,0.0c-0.1,0.0-0.2,0.0-0.2,0.0v-0.7H46.9z"/>
			<path fill="#D2AD8B" d="M47.9,61.5l0.7,1.6l0.7-1.6h0.7c-0.1,0.2-0.2,0.4-0.3,0.6c-0.1,0.2-0.2,0.4-0.3,0.5l-0.6,1.1v0.5c0.0,0.3,0.0,0.6,0.0,0.8s0.0,0.3,0.0,0.4h-0.7c0.0-0.1,0.0-0.2,0.0-0.4c0.0-0.2,0.0-0.4,0.0-0.8v-0.5l-0.6-1.1l-0.1-0.3c-0.1-0.2-0.2-0.4-0.3-0.5c-0.1-0.1-0.1-0.2-0.2-0.3H47.9z"/>
			<path fill="#D8B99C" d="M52.2,71.6c-0.0,0.0-0.0,0.0,0.0,0.0C52.2,71.7,52.2,71.6,52.2,71.6z"/>
			<path fill="#A1540D" d="M84.0,79.5c-0.1-0.1-0.1-0.3-0.2-0.4c-0.1-0.1-0.2-0.3-0.3-0.4c0.2-0.1,0.4-0.3,0.6-0.5c0.2-0.2,0.5-0.4,0.7-0.7c0.3-0.3,0.5-0.6,0.6-0.8c0.1-0.3,0.2-0.5,0.3-0.6c0.0-0.1,0.0-0.1,0.0-0.2c0.0-0.1-0.0-0.2-0.0-0.2c-0.0-0.1-0.1-0.2-0.2-0.3s-0.2-0.1-0.3-0.2c-0.0-0.0-0.1-0.0-0.1-0.0c-0.1,0.0-0.2,0.0-0.3,0.1c-0.1,0.1-0.2,0.1-0.3,0.2s-0.2,0.2-0.2,0.3c-0.0-0.0-0.1-0.1-0.2-0.2c-0.1-0.1-0.2-0.2-0.4-0.4c0.1-0.3,0.3-0.5,0.5-0.7s0.4-0.3,0.7-0.3c0.1-0.0,0.1-0.0,0.2-0.0c0.2,0.0,0.4,0.0,0.5,0.1s0.3,0.2,0.4,0.3c0.2,0.3,0.4,0.6,0.4,1.0c0.0,0.0,0.0,0.1,0.0,0.2c0.0,0.4-0.1,0.8-0.3,1.2c-0.2,0.5-0.6,1.0-1.1,1.5c0.1-0.0,0.3-0.0,0.4-0.0c0.1,0.0,0.3,0.0,0.4,0.0c0.4,0.0,0.6,0.1,0.8,0.2c-0.1,0.1-0.1,0.3-0.2,0.6c-0.0,0.0-0.0,0.1-0.0,0.1c-0.0,0.0-0.0,0.1-0.0,0.1c-0.0-0.0-0.0-0.0-0.0-0.0c-0.0-0.0-0.0-0.0-0.1-0.0c-0.2-0.1-0.4-0.1-0.6-0.1c-0.2-0.0-0.4-0.0-0.6-0.0c-0.2,0.0-0.3,0.0-0.5,0.0c-0.1,0.0-0.3,0.1-0.4,0.1c-0.0,0.0-0.0,0.0-0.1,0.0S84.0,79.5,84.0,79.5z"/>
			<path fill="#A1540D" d="M90.1,76.6c0.0,0.0,0.0,0.1,0.0,0.2c0.0,0.5-0.1,1.0-0.2,1.5c-0.3,0.8-0.8,1.2-1.4,1.2c-0.3,0.0-0.6-0.1-0.8-0.4c-0.2-0.2-0.3-0.5-0.4-0.9c-0.1-0.4-0.1-0.7-0.1-1.1c0.0-0.1,0.0-0.2,0.0-0.3c0.0-0.4,0.1-0.8,0.2-1.2c0.2-0.5,0.4-0.9,0.7-1.2c0.1-0.1,0.2-0.2,0.4-0.2s0.3-0.1,0.5-0.1c0.2,0.0,0.3,0.0,0.4,0.1c0.1,0.1,0.2,0.2,0.3,0.3s0.2,0.3,0.2,0.4c0.1,0.2,0.2,0.5,0.2,0.8C90.1,76.0,90.1,76.3,90.1,76.6zM89.1,78.2c0.1-0.2,0.2-0.4,0.2-0.7c0.1-0.3,0.1-0.5,0.1-0.8c0.0-0.2-0.0-0.5-0.1-0.7c-0.0-0.2-0.1-0.4-0.2-0.6c-0.1-0.2-0.2-0.4-0.4-0.4c-0.2,0.0-0.3,0.1-0.4,0.3c-0.1,0.2-0.2,0.3-0.2,0.5c-0.1,0.4-0.2,0.8-0.2,1.2c0.0,0.4,0.1,0.8,0.2,1.2c0.0,0.1,0.1,0.2,0.2,0.3c0.1,0.1,0.2,0.1,0.2,0.1c0.0,0.0,0.0-0.0,0.1-0.0C88.8,78.6,88.9,78.4,89.1,78.2z"/>
			<path fill="#A1540D" d="M93.6,76.6c0.0,0.0,0.0,0.1,0.0,0.2c0.0,0.5-0.1,1.0-0.2,1.5c-0.3,0.8-0.8,1.2-1.4,1.2c-0.3,0.0-0.6-0.1-0.8-0.4c-0.2-0.2-0.3-0.5-0.4-0.9c-0.1-0.4-0.1-0.7-0.1-1.1c0.0-0.1,0.0-0.2,0.0-0.3c0.0-0.4,0.1-0.8,0.2-1.2c0.2-0.5,0.4-0.9,0.7-1.2c0.1-0.1,0.2-0.2,0.4-0.2s0.3-0.1,0.5-0.1c0.2,0.0,0.3,0.0,0.4,0.1c0.1,0.1,0.2,0.2,0.3,0.3c0.1,0.1,0.2,0.3,0.2,0.4c0.1,0.2,0.2,0.5,0.2,0.8C93.6,76.0,93.6,76.3,93.6,76.6zM92.6,78.2c0.1-0.2,0.2-0.4,0.2-0.7c0.1-0.3,0.1-0.5,0.1-0.8c0.0-0.2-0.0-0.5-0.1-0.7c-0.0-0.2-0.1-0.4-0.2-0.6c-0.1-0.2-0.2-0.4-0.4-0.4c-0.2,0.0-0.3,0.1-0.4,0.3c-0.1,0.2-0.2,0.3-0.2,0.5c-0.1,0.4-0.2,0.8-0.2,1.2c0.0,0.4,0.1,0.8,0.2,1.2c0.0,0.1,0.1,0.2,0.2,0.3c0.1,0.1,0.2,0.1,0.2,0.1c0.0,0.0,0.0-0.0,0.1-0.0C92.3,78.6,92.4,78.4,92.6,78.2z"/>
			<path fill="#A1540D" d="M95.3,79.5c-0.2,0.0-0.5-0.1-0.7-0.2c-0.2-0.1-0.4-0.2-0.6-0.4c0.1-0.3,0.2-0.5,0.3-0.8c0.2,0.2,0.4,0.3,0.6,0.4c0.1,0.0,0.2,0.1,0.3,0.1c0.1,0.0,0.3-0.0,0.4-0.1s0.2-0.1,0.3-0.3c0.1-0.1,0.1-0.2,0.1-0.4c0.0-0.1-0.0-0.2-0.1-0.3s-0.1-0.2-0.2-0.3c-0.1-0.1-0.2-0.1-0.3-0.2c-0.1-0.0-0.2-0.0-0.3-0.0c-0.2,0.0-0.4,0.1-0.7,0.2c0.0-0.4,0.0-0.9,0.0-1.3c0.0-0.5-0.0-1.0-0.0-1.5c0.0,0.0,0.2,0.0,0.5,0.0h0.2c0.3,0.0,0.6-0.0,0.9-0.0c0.1-0.0,0.2-0.0,0.4-0.0c0.2-0.0,0.3-0.0,0.3-0.0c0.0,0.4,0.0,0.6,0.1,0.8l-1.6,0.1l0.0,0.9c0.1-0.0,0.1-0.0,0.2-0.0c0.2,0.0,0.4,0.1,0.6,0.2c0.2,0.1,0.4,0.3,0.5,0.5c0.1,0.1,0.1,0.3,0.2,0.4s0.1,0.3,0.1,0.5c0.0,0.3-0.1,0.5-0.2,0.8c-0.1,0.3-0.3,0.5-0.5,0.6c-0.2,0.2-0.5,0.3-0.7,0.3C95.4,79.5,95.4,79.5,95.3,79.5z"/>
			<path fill="#D2AD8B" d="M83.6,79.2c-0.1-0.1-0.1-0.3-0.2-0.4c-0.1-0.1-0.2-0.3-0.3-0.4c0.2-0.1,0.4-0.3,0.6-0.5c0.2-0.2,0.5-0.4,0.7-0.7c0.3-0.3,0.5-0.6,0.6-0.8c0.1-0.3,0.2-0.5,0.3-0.6c0.0-0.1,0.0-0.1,0.0-0.2c0.0-0.1-0.0-0.2-0.0-0.2c-0.0-0.1-0.1-0.2-0.2-0.3s-0.2-0.1-0.3-0.2c-0.0-0.0-0.1-0.0-0.1-0.0c-0.1,0.0-0.2,0.0-0.3,0.1c-0.1,0.1-0.2,0.1-0.3,0.2s-0.2,0.2-0.2,0.3c-0.0-0.0-0.1-0.1-0.2-0.2c-0.1-0.1-0.2-0.2-0.4-0.4c0.1-0.3,0.3-0.5,0.5-0.7s0.4-0.3,0.7-0.3c0.1-0.0,0.1-0.0,0.2-0.0c0.2,0.0,0.4,0.0,0.5,0.1s0.3,0.2,0.4,0.3c0.2,0.3,0.4,0.6,0.4,1.0c0.0,0.0,0.0,0.1,0.0,0.2c0.0,0.4-0.1,0.8-0.3,1.2c-0.2,0.5-0.6,1.0-1.1,1.5c0.1-0.0,0.3-0.0,0.4-0.0c0.1,0.0,0.3,0.0,0.4,0.0c0.4,0.0,0.6,0.1,0.8,0.2c-0.1,0.1-0.1,0.3-0.2,0.6c-0.0,0.0-0.0,0.1-0.0,0.1c-0.0,0.0-0.0,0.1-0.0,0.1c-0.0-0.0-0.0-0.0-0.0-0.0c-0.0-0.0-0.0-0.0-0.1-0.0c-0.2-0.1-0.4-0.1-0.6-0.1c-0.2-0.0-0.4-0.0-0.6-0.0c-0.2,0.0-0.3,0.0-0.5,0.0c-0.1,0.0-0.3,0.1-0.4,0.1c-0.0,0.0-0.0,0.0-0.1,0.0S83.6,79.1,83.6,79.2z"/>
			<path fill="#D2AD8B" d="M89.7,76.2c0.0,0.0,0.0,0.1,0.0,0.2c0.0,0.5-0.1,1.0-0.2,1.5c-0.3,0.8-0.8,1.2-1.4,1.2c-0.3,0.0-0.6-0.1-0.8-0.4c-0.2-0.2-0.3-0.5-0.4-0.9c-0.1-0.4-0.1-0.7-0.1-1.1c0.0-0.1,0.0-0.2,0.0-0.3c0.0-0.4,0.1-0.8,0.2-1.2c0.2-0.5,0.4-0.9,0.7-1.2c0.1-0.1,0.2-0.2,0.4-0.2s0.3-0.1,0.5-0.1c0.2,0.0,0.3,0.0,0.4,0.1c0.1,0.1,0.2,0.2,0.3,0.3s0.2,0.3,0.2,0.4c0.1,0.2,0.2,0.5,0.2,0.8C89.7,75.7,89.7,76.0,89.7,76.2zM88.7,77.8c0.1-0.2,0.2-0.4,0.2-0.7c0.1-0.3,0.1-0.5,0.1-0.8c0.0-0.2-0.0-0.5-0.1-0.7c-0.0-0.2-0.1-0.4-0.2-0.6c-0.1-0.2-0.2-0.4-0.4-0.4c-0.2,0.0-0.3,0.1-0.4,0.3c-0.1,0.2-0.2,0.3-0.2,0.5c-0.1,0.4-0.2,0.8-0.2,1.2c0.0,0.4,0.1,0.8,0.2,1.2c0.0,0.1,0.1,0.2,0.2,0.3c0.1,0.1,0.2,0.1,0.2,0.1c0.0,0.0,0.0-0.0,0.1-0.0C88.4,78.2,88.6,78.1,88.7,77.8z"/>
			<path fill="#D2AD8B" d="M93.2,76.2c0.0,0.0,0.0,0.1,0.0,0.2c0.0,0.5-0.1,1.0-0.2,1.5c-0.3,0.8-0.8,1.2-1.4,1.2c-0.3,0.0-0.6-0.1-0.8-0.4c-0.2-0.2-0.3-0.5-0.4-0.9c-0.1-0.4-0.1-0.7-0.1-1.1c0.0-0.1,0.0-0.2,0.0-0.3c0.0-0.4,0.1-0.8,0.2-1.2c0.2-0.5,0.4-0.9,0.7-1.2c0.1-0.1,0.2-0.2,0.4-0.2s0.3-0.1,0.5-0.1c0.2,0.0,0.3,0.0,0.4,0.1c0.1,0.1,0.2,0.2,0.3,0.3c0.1,0.1,0.2,0.3,0.2,0.4c0.1,0.2,0.2,0.5,0.2,0.8C93.2,75.7,93.2,76.0,93.2,76.2zM92.2,77.8c0.1-0.2,0.2-0.4,0.2-0.7c0.1-0.3,0.1-0.5,0.1-0.8c0.0-0.2-0.0-0.5-0.1-0.7c-0.0-0.2-0.1-0.4-0.2-0.6c-0.1-0.2-0.2-0.4-0.4-0.4c-0.2,0.0-0.3,0.1-0.4,0.3c-0.1,0.2-0.2,0.3-0.2,0.5c-0.1,0.4-0.2,0.8-0.2,1.2c0.0,0.4,0.1,0.8,0.2,1.2c0.0,0.1,0.1,0.2,0.2,0.3c0.1,0.1,0.2,0.1,0.2,0.1c0.0,0.0,0.0-0.0,0.1-0.0C91.9,78.2,92.1,78.1,92.2,77.8z"/>
			<path fill="#D2AD8B" d="M95.0,79.1c-0.2,0.0-0.5-0.1-0.7-0.2c-0.2-0.1-0.4-0.2-0.6-0.4c0.1-0.3,0.2-0.5,0.3-0.8c0.2,0.2,0.4,0.3,0.6,0.4c0.1,0.0,0.2,0.1,0.3,0.1c0.1,0.0,0.3-0.0,0.4-0.1s0.2-0.1,0.3-0.3c0.1-0.1,0.1-0.2,0.1-0.4c0.0-0.1-0.0-0.2-0.1-0.3s-0.1-0.2-0.2-0.3c-0.1-0.1-0.2-0.1-0.3-0.2c-0.1-0.0-0.2-0.0-0.3-0.0c-0.2,0.0-0.4,0.1-0.7,0.2c0.0-0.4,0.0-0.9,0.0-1.3c0.0-0.5-0.0-1.0-0.0-1.5c0.0,0.0,0.2,0.0,0.5,0.0h0.2c0.3,0.0,0.6-0.0,0.9-0.0c0.1-0.0,0.2-0.0,0.4-0.0c0.2-0.0,0.3-0.0,0.3-0.0c0.0,0.4,0.0,0.6,0.1,0.8l-1.6,0.1l0.0,0.9c0.1-0.0,0.1-0.0,0.2-0.0c0.2,0.0,0.4,0.1,0.6,0.2c0.2,0.1,0.4,0.3,0.5,0.5c0.1,0.1,0.1,0.3,0.2,0.4s0.1,0.3,0.1,0.5c0.0,0.3-0.1,0.5-0.2,0.8c-0.1,0.3-0.3,0.5-0.5,0.6c-0.2,0.2-0.5,0.3-0.7,0.3C95.1,79.1,95.0,79.1,95.0,79.1z"/>
			<circle fill="#00FFFF" cx="100.9" cy="82.7" r="5" opacity="0"/>
		</g>
	</svg>
	<svg id="draggable" x="126" y="0">
		<use xlink:href="#defaultContent" style="stroke: #000000; stroke-width: 14; opacity: 0.2; stroke-miterlimit: 10; stroke-linecap: round; stroke-linejoin: round;" x="6" y="6"/>
		<use xlink:href="#defaultContent" style="stroke: #FFFFFF; stroke-width: 14; stroke-miterlimit: 10; stroke-linecap: round; stroke-linejoin: round;"/>
		<use xlink:href="#defaultContent"/>
	</svg>
	<svg id="grabbed" x="252" y="0">
		<use xlink:href="#defaultContent" style="stroke: #FFFFFF; stroke-width: 32; stroke-miterlimit: 10; stroke-linecap: round; stroke-linejoin: round;"/>
		<use xlink:href="#defaultContent"/>
	</svg>
</svg>
