<?xml version='1.0' encoding='UTF-8'?>
<svg xmlns="http://www.w3.org/2000/svg" xmlns:xlink="http://www.w3.org/1999/xlink" width="54" height="54"><g id="penny3">
		<path fill="#B76C29" d="M51.7,26.8c0.0,13.3-11.0,24.0-24.6,24.0c-13.6,0.0-24.6-10.8-24.6-24.0c0.0-6.3,2.2-12.2,6.3-16.5c4.5-4.7,11.2-7.6,18.3-7.6C40.6,2.8,51.7,13.5,51.7,26.8z"/>
		<path fill="#AB5826" d="M27.0,52.2c-5.3,0.0-10.4-1.5-14.7-4.5c-5.3-3.6-8.6-8.0-10.2-13.5c-0.6-2.1-1.3-7.1-1.0-9.6c0.8-6.4,2.1-10.7,6.8-15.5c2.1-2.2,5.1-4.1,8.8-5.7c3.3-1.4,6.8-2.1,10.3-2.1c5.1,0.0,10.8,2.2,14.2,4.1c5.6,3.2,9.1,8.0,11.0,15.0c0.5,1.8,1.0,4.1,0.9,6.7l0.0,0.0c-0.2,6.8-2.8,12.9-7.8,17.7c-3.0,2.9-5.9,4.7-9.4,5.9C33.2,51.7,29.8,52.2,27.0,52.2zM27.0,4.0c-3.2,0.0-6.4,0.6-9.3,1.9c-3.3,1.4-6.0,3.2-7.9,5.1c-4.1,4.2-5.3,8.0-6.0,14.0c-0.2,1.9,0.3,6.5,0.9,8.6c1.4,4.9,4.4,8.8,9.1,12.0c3.9,2.6,8.5,4.0,13.2,4.0c2.5,0.0,5.6-0.5,8.1-1.3c3.1-1.0,5.6-2.6,8.4-5.3c4.4-4.3,6.8-9.8,7.0-15.8l0.0,0.0c0.1-2.3-0.4-4.3-0.8-5.9c-1.7-6.4-4.7-10.5-9.7-13.4C36.6,5.9,31.3,4.0,27.0,4.0z"/>
		<path fill="#D7AB83" d="M27.6,50.9c-6.5,0.0-13.9-2.9-18.5-7.2c-4.5-4.3-6.7-10.0-6.7-17.0c0.0-6.3,2.4-12.7,6.5-17.0c4.5-4.7,10.9-7.3,18.2-7.3c7.9,0.0,15.3,3.7,20.0,10.0c3.1,4.2,4.8,9.3,4.8,14.4c0.0,8.1-4.3,15.7-11.6,20.2C36.1,49.7,32.1,50.9,27.6,50.9zM27.1,4.3c-6.8,0.0-12.8,2.4-16.8,6.7c-3.7,4.0-5.9,9.8-5.9,15.7c0.0,6.5,2.1,11.7,6.1,15.6c4.2,4.0,11.1,6.7,17.2,6.7c4.1,0.0,7.7-1.1,11.7-3.6c6.7-4.2,10.7-11.2,10.7-18.6c0.0-4.7-1.6-9.4-4.4-13.2C41.3,7.8,34.4,4.3,27.1,4.3z"/>
		<path fill="#D09D71" d="M39.6,17.1c0.0-0.1,0.0-0.1,0.0-0.2c-1.8-0.0-3.6-0.1-5.4-0.1c-2.6-0.0-5.2,0.1-7.7,0.1c-2.6,0.0-5.2,0.0-7.7,0.1c-1.2,0.0-3.7,0.1-3.7,0.1c0.0,0.0-0.1,0.1-0.2,0.1c-0.0,0.0-0.0,0.0-0.0,0.1c0.0,0.2-0.0,1.4-0.1,1.8c-0.1,0.7-0.0,1.4-0.0,2.1c-0.0,0.7-0.0,1.4-0.0,2.1c-0.0,0.5-0.1,1.1,0.1,1.6c1.3-0.0,2.6-0.0,3.8-0.0c2.5-0.0,5.0-0.1,7.5-0.1c2.5,0.0,5.0-0.0,7.4-0.0c1.9,0.0,3.9,0.1,5.8,0.1c0.1-0.1,0.2-0.2,0.3-0.3C39.6,22.2,39.6,19.6,39.6,17.1z"/>
		<path fill="#D09D71" d="M42.1,19.8c0.0-0.1,0.0-0.2,0.0-0.2c-2.2-0.1-4.3-0.1-6.5-0.2c-3.1-0.0-6.2,0.1-9.3,0.2c-3.1,0.0-6.2,0.0-9.3,0.1c-1.4,0.0-2.9,0.1-4.3,0.1c-0.1,0.0-0.1,0.0-0.2,0.1c0.0,0.0,0.0,0.0-0.0,0.0c-0.1,0.1-0.1,0.1-0.2,0.2c-0.0,0.0-0.0,0.1-0.0,0.1c0.0,0.3,0.1,0.5,0.1,0.8c0.0,0.6-0.1,1.3-0.1,1.9c-0.1,1.0-0.0,2.1-0.1,3.1c-0.0,1.0-0.0,2.1-0.0,3.1c-0.0,0.7-0.1,1.7,0.1,2.4c1.5-0.0,3.1-0.0,4.6-0.0c3.0-0.0,6.0-0.1,9.0-0.1c3.0,0.0,6.0-0.1,8.9-0.0c2.3,0.0,4.7,0.1,7.0,0.1c0.1-0.1,0.2-0.2,0.3-0.4C42.0,27.2,42.1,23.5,42.1,19.8z"/>
		<path fill="#D09D71" d="M42.9,29.9c-0.8-0.3-1.4-0.7-2.2-1.1c-0.6-0.3-1.2-0.5-1.9-0.7c-4.7,0.0-9.4,0.1-14.1,0.1c-3.0-0.0-6.0,0.1-9.1,0.1c-0.3,0.0-0.6-0.0-0.8-0.0c-0.0,0.0-0.0,0.0-0.0,0.0c-0.2,0.1-0.5,0.2-0.7,0.3c-0.7,0.3-1.4,0.7-2.0,1.0c-0.6,0.3-1.3,0.7-1.9,1.0c-0.2,0.1-0.4,0.2-0.5,0.3c-0.1,0.0-0.1,0.1-0.2,0.1c-0.0,0.0-0.0,0.0-0.0,0.0c0.1,0.0,0.1,0.0,0.2,0.0c1.8-0.0,3.7-0.0,5.5-0.0c3.6-0.0,7.1-0.0,10.7-0.0c3.6,0.0,7.1-0.0,10.7,0.0c2.0,0.0,4.1,0.0,6.1,0.0c0.1-0.0,0.2-0.0,0.3-0.0c0.7-0.0,1.4-0.0,2.0-0.1c0.0-0.0-0.0-0.2,0.0-0.2C44.2,30.5,43.5,30.2,42.9,29.9z"/>
		<path fill="#B76C29" d="M36.4,19.4v11.8c0.5,0.0,1.0,0.0,1.5,0.0v-11.8C37.4,19.4,36.9,19.4,36.4,19.4z"/>
		<path fill="#B76C29" d="M33.2,19.4v11.7c0.4-0.0,0.9-0.0,1.3-0.0v-11.8C34.1,19.4,33.7,19.4,33.2,19.4z"/>
		<path fill="#B76C29" d="M13.6,19.7v11.6c0.3-0.0,0.7-0.0,1.0-0.0v-11.6C14.2,19.7,13.9,19.7,13.6,19.7z"/>
		<path fill="#B76C29" d="M17.5,19.7c-0.4,0.0-0.8,0.0-1.1,0.0v11.7c0.3-0.0,0.7-0.0,1.0-0.0c0.1-0.0,0.2-0.0,0.3-0.0V19.6C17.6,19.7,17.6,19.7,17.5,19.7z"/>
		<path fill="#B76C29" d="M19.5,19.6v11.7c0.5-0.0,0.9-0.0,1.4-0.0v-11.7C20.5,19.6,20.0,19.6,19.5,19.6z"/>
		<path fill="#B76C29" d="M22.8,19.6v11.6c0.5-0.0,1.1-0.0,1.6-0.0v-11.6C23.8,19.6,23.3,19.6,22.8,19.6z"/>
		<path fill="#B76C29" d="M26.9,19.6c-0.3,0.0-0.6,0.0-1.0,0.0v11.6c0.1,0.0,0.2-0.0,0.3,0.0c0.6,0.0,1.2,0.0,1.8,0.0v-11.7C27.6,19.6,27.3,19.6,26.9,19.6z"/>
		<path fill="#B76C29" d="M29.5,19.5v11.7c0.6-0.0,1.2-0.0,1.9-0.0v-11.7C30.8,19.5,30.1,19.5,29.5,19.5z"/>
		<path fill="#B76C29" d="M39.7,19.5v11.8c0.4,0.0,0.7,0.0,1.1,0.0v-11.8C40.4,19.5,40.1,19.5,39.7,19.5z"/>
		<path fill="#D09D71" d="M44.9,31.0c0.0-0.0,0.0-0.0,0.0-0.0c-2.6-0.0-5.1-0.0-7.7-0.0c-3.7-0.0-7.4,0.0-11.1,0.0c-3.7,0.0-7.4,0.0-11.1,0.0c-1.7,0.0-3.4,0.0-5.1,0.0c-0.1,0.0-0.2,0.0-0.3,0.0c0.0,0.0-0.0,0.0-0.0,0.0c-0.1,0.0-0.4,0.1-0.4,0.1c0.0,0.0,0.1,1.3,0.1,1.3c1.8-0.0,3.6-0.0,5.4-0.0c3.6-0.0,7.1-0.0,10.7-0.0c3.5,0.0,7.1-0.0,10.6-0.0c2.8,0.0,5.5,0.0,8.3,0.0c0.2-0.0,0.3-0.0,0.4-0.0C44.9,32.2,44.9,31.4,44.9,31.0z"/>
		<path fill="#D09D71" d="M42.8,19.2c0.0-0.0,0.0-0.0,0.0-0.0c-2.3-0.0-4.5-0.0-6.8-0.0c-3.3-0.0-6.5,0.0-9.8,0.0c-3.3,0.0-6.5,0.0-9.8,0.0c-1.5,0.0-4.9,0.0-5.0,0.0c-0.0,0.0-0.0,0.9-0.1,1.1c-0.0,0.2,0.8,0.9,1.1,1.0c1.6-0.0,2.3-0.0,3.9-0.0c3.2-0.0,6.3-0.0,9.5-0.0c3.1,0.0,6.3-0.0,9.4-0.0c2.5,0.0,4.5,0.1,7.0,0.1c0.2-0.0,0.6-1.0,0.7-1.0C42.8,19.8,42.8,19.9,42.8,19.2z"/>
		<path fill="#D09D71" d="M42.2,28.7c0.0-0.0,0.0-0.0,0.0-0.0c-2.2-0.0-4.3-0.0-6.5-0.0c-3.1-0.0-6.2,0.0-9.3,0.0c-3.1,0.0-6.2,0.0-9.3,0.0c-1.4,0.0-2.9,0.0-4.3,0.0c-0.1,0.0-0.1,0.0-0.2,0.0c0.0,0.0,0.0,0.0-0.0,0.0c-0.1,0.0-0.1,0.0-0.2,0.0c-0.0,0.0-0.0,0.0-0.0,0.0c0.0,0.1,0.1,0.1,0.1,0.2c0.0,0.1-0.1,0.3-0.1,0.4c-0.1,0.2-0.0,0.4-0.1,0.7c-0.0,0.2-0.0,0.4-0.0,0.6c-0.0,0.2-0.1,0.3,0.1,0.5c1.5-0.0,3.1-0.0,4.6-0.0c3.0-0.0,6.0-0.0,9.0-0.0c3.0,0.0,6.0-0.0,9.0-0.0c2.3,0.0,4.7,0.0,7.0,0.0c0.1-0.0,0.2-0.1,0.3-0.1C42.1,30.2,42.2,29.4,42.2,28.7z"/>
		<circle fill="#00FFFF" cx="27.1" cy="26.8" r="5" opacity="0"/>
	</g>
</svg>
