<?xml version='1.0' encoding='UTF-8'?>
<svg xmlns="http://www.w3.org/2000/svg" xmlns:xlink="http://www.w3.org/1999/xlink" version="1.1" x="0px" y="0px" width="58px" height="58px" viewBox="0 0 58 58" enable-background="new 0 0 58 58" xml:space="preserve"><g id="plus">
		<g>
			<path id="XMLID_20_" fill="#FFFFFF" d="M56.2,33.7c-0.9-3.8-1.3-6.8-1.5-10.6c-5.4,0.4-13.0,0.6-21.5,0.6c0.1-7.3,0.2-15.0,0.4-22.4c-3.4,0.1-7.0-0.5-10.3-0.6c-0.1,0.0-0.2,0.0-0.4,0.0c-0.3,5.5-0.5,14.0-0.6,23.0c-7.2-0.1-14.6-0.2-21.8-0.4c0.1,3.4-0.5,7.0-0.6,10.3c0.0,0.1,0.0,0.2,0.0,0.4c5.4,0.3,13.6,0.5,22.4,0.6c0.1,8.5,0.4,16.7,1.0,22.4c3.8-0.9,6.8-1.3,10.6-1.5c-0.4-5.3-0.6-12.7-0.6-20.9C41.9,34.6,50.3,34.3,56.2,33.7z"/>
		</g>
	</g>
</svg>
