<?xml version='1.0' encoding='UTF-8'?>
<svg xmlns="http://www.w3.org/2000/svg" xmlns:xlink="http://www.w3.org/1999/xlink" width="32" height="40"><g id="point5">
		<path fill="#BD78F4" d="M8.1,11.2c-1.5,2.1-3.8,4.6-5.4,6.6c-1.0,1.2-1.6,1.8-1.5,2.5c0.0,0.8,0.8,1.7,2.7,3.9c3.2,3.7,6.1,7.7,9.2,11.5c1.0,1.3,1.5,2.2,2.3,2.0c1.0-0.2,2.5-1.8,6.2-6.4c2.2-2.8,9.1-9.2,9.1-10.2c0.0-0.7-4.1-6.6-5.6-8.4c-0.4-0.5-7.4-11.0-8.6-10.9C15.5,1.8,8.7,10.4,8.1,11.2z"/>
		<circle fill="#00FFFF" cx="16.0" cy="19.8" r="5" opacity="0"/>
	</g>
</svg>
