<?xml version='1.0' encoding='UTF-8'?>
<svg xmlns="http://www.w3.org/2000/svg" xmlns:xlink="http://www.w3.org/1999/xlink" width="158" height="184"><g id="rabbit">
		<g>
			<g>
				<g>
					<g>
						<g>
							<path fill="#754C29" d="M58.7,128.7c-2.8,1.8-6.5-2.3-4.4-4.9c1.6-2.0,2.6-4.2,2.8-6.8c0.2-2.4-0.4-4.3-0.1-6.8c0.4-2.6,4.0-3.1,5.6-1.5C68.3,114.3,64.5,124.9,58.7,128.7z"/>
						</g>
						<g>
							<path fill="#754C29" d="M47.2,30.6c0.6-3.9,6.0-37.5,15.2-28.1c6.6,6.6,1.1,25.6-2.5,37.3c-1.4,4.8-8.2,34.3-14.3,31.4C40.0,68.7,46.3,37.0,47.2,30.6C48.7,20.7,46.5,35.5,47.2,30.6z"/>
						</g>
						<g>
							<path fill="#754C29" d="M78.5,121.4c0.9-5.0,4.5-8.8,7.6-12.6c3.1-3.7,6.5-7.1,10.3-10.0c3.9-3.0,8.9,2.4,5.9,6.2c-2.8,3.4-5.8,6.5-8.5,9.9c-2.7,3.2-4.5,7.5-7.7,10.2C83.3,127.4,77.7,125.5,78.5,121.4z"/>
						</g>
						<g>
							<path fill="#754C29" d="M143.8,50.6c-1.6-6.9-7.9-11.4-14.6-8.8c-7.8,3.1-7.9,11.8-5.4,17.9c2.3,3.7,5.8,6.0,10.1,6.1c6.1-0.3,11.3-6.3,10.5-12.1C144.3,52.7,144.1,51.6,143.8,50.6z"/>
						</g>
						<g>
							<path fill="#8B5E3C" d="M71.1,51.2c18.1,4.4,33.6,22.6,32.7,42.3c-1.1,9.0-6.3,16.9-14.1,21.4c-21.1,11.1-55.7,3.7-62.3-21.4c-0.5-1.7-0.9-3.5-1.2-5.3c-1.1-7.3-0.2-15.0,2.9-21.8c1.3-2.8,2.8-5.2,4.5-7.3c1.7-2.1,3.6-3.8,5.6-5.1c7.9-4.4,16.5-5.2,25.3-4.2C66.7,50.1,68.9,50.6,71.1,51.2z"/>
						</g>
						<g>
							<path fill="#8B5E3C" d="M44.3,75.4c-2.1,11.4,1.7,22.9,10.3,30.5c18.1,16.2,46.8,24.8,68.5,11.8c1.9-1.2,3.6-2.6,5.2-4.2c3.2-3.1,5.7-7.0,7.3-11.4c4.8-14.3,2.9-31.5-8.6-41.0c-13.4-12.5-33.3-7.5-50.9-4.4c-2.5,0.5-5.0,0.9-7.4,1.2c-9.5,2.2-16.1,6.0-22.5,13.2C45.6,72.4,44.9,73.8,44.3,75.4z"/>
						</g>
						<g>
							<path fill="#754C29" d="M87.4,121.0c4.1-2.9,9.4-3.1,14.3-3.6c4.8-0.5,9.6-0.4,14.4,0.1c4.9,0.6,4.6,8.0-0.2,8.5c-4.3,0.5-8.7,0.6-13.0,1.0c-4.2,0.4-8.5,2.1-12.6,1.8C86.6,128.6,84.0,123.4,87.4,121.0z"/>
						</g>
						<g>
							<path fill="#FFFFFF" d="M33.7,62.4c-2.6,1.6-3.9,4.3-3.2,7.3c0.6,3.0,3.2,4.5,5.8,4.7c5.0,0.1,8.3-3.6,7.7-7.9c-0.6-3.0-2.6-4.6-5.2-5.1C37.0,61.1,35.2,61.4,33.7,62.4z"/>
						</g>
						<g>
							<path fill="#8B5E3C" d="M73.8,20.7c3.0-4.7,7.5-12.2,12.2-13.9c6.6-2.5,7.0,4.9,5.3,10.6c-4.4,14.6-11.5,27.5-19.1,39.8c-2.4,4.0-10.6,18.9-15.7,17.0C52.7,72.8,66.4,32.4,73.8,20.7z"/>
						</g>
						<g>
							<path fill="#754C29" d="M71.1,130.0c6.0-3.2,9.3-10.6,9.1-16.7c0.0-2.2-1.2-4.1-3.7-4.2c-2.2-0.1-4.5,1.6-4.6,3.8c-0.2,4.1-2.2,7.2-5.7,9.6C61.0,126.0,65.7,132.9,71.1,130.0z"/>
						</g>
						<g>
							<path d="M39.0,66.1c1.4,4.3-5.1,6.9-6.5,2.6C31.0,64.4,37.6,61.8,39.0,66.1z"/>
						</g>
						<g>
							<g>
								<path fill="#C66393" d="M47.3,77.6c0.0,5.6,0.9,10.9,1.8,16.4c0.1,1.0-1.4,1.3-1.8,0.4c-2.2-5.1-2.4-11.3-1.8-16.7C45.5,76.7,47.2,76.6,47.3,77.6L47.3,77.6z"/>
							</g>
						</g>
						<g>
							<g>
								<path fill="#C66393" d="M46.6,96.2c2.6-1.0,5.8-2.2,7.3-4.7c0.5-0.8-0.5-1.3-1.2-0.9c-1.4,0.9-2.4,1.9-3.9,2.7c-0.9,0.5-1.8,0.9-2.7,1.3C45.0,95.1,45.5,96.5,46.6,96.2L46.6,96.2z"/>
							</g>
						</g>
						<g>
							<path fill="#C66393" d="M60.1,80.1c0.1,2.2-5.6,3.7-12.7,3.6c-7.3-0.2-13.7-2.4-13.8-4.6c-0.1-2.2,6.1-3.4,13.4-3.3C54.1,76.0,60.0,77.9,60.1,80.1z"/>
						</g>
						<g>
							<path fill="#FFFFFF" d="M56.1,69.6c0.1,4.4,4.2,6.5,8.1,6.7c4.4-0.5,7.2-4.6,6.8-8.4c-0.3-2.5-1.8-4.9-4.5-5.9c-2.7-1.0-7.1-0.5-8.9,2.2C56.4,65.7,55.9,67.6,56.1,69.6z"/>
						</g>
						<g>
							<path d="M61.2,64.7c2.3-0.3,4.3,1.7,4.5,3.9c0.2,2.4-1.6,4.3-3.9,4.5c-2.3,0.2-4.3-1.7-4.5-3.9C57.1,66.9,58.9,65.0,61.2,64.7z"/>
						</g>
					</g>
				</g>
			</g>
			<g>
				<g>
					<path fill="#F2F0ED" d="M154.4,169.7c0.0,6.6-5.4,12.0-12.0,12.0h-130.0c-6.6,0.0-12.0-5.4-12.0-12.0v-34.0c0.0-6.6,5.4-12.0,12.0-12.0h130.0c6.6,0.0,12.0,5.4,12.0,12.0V169.7z"/>
				</g>
				<g>
					<path fill="#333333" d="M40.1,170.4c-0.7,0.0-1.3,0.0-1.8-0.1c-2.2-0.2-3.9-0.9-5.2-1.9c-1.0-0.8-1.8-1.8-2.4-3.1c-0.6-1.3-0.9-2.5-0.9-3.8c0.0-0.2,0.0-0.4,0.0-0.7c0.2-2.0,0.9-3.8,2.1-5.4c1.1-1.6,2.6-2.9,4.4-4.0c-1.5-1.2-2.5-2.6-3.0-4.1c-0.2-0.7-0.4-1.5-0.4-2.4c0.0-0.9,0.2-1.8,0.5-2.7c0.4-1.1,1.1-2.2,2.0-3.1c0.9-0.9,1.9-1.7,3.1-2.2c1.2-0.5,2.4-0.8,3.6-0.8c0.2,0.0,0.4,0.0,0.7,0.0c1.4,0.1,2.7,0.7,3.9,1.6c1.2,0.9,2.1,2.1,2.6,3.4c0.4,1.0,0.6,2.0,0.6,3.0c0.0,0.8-0.1,1.6-0.3,2.4c-0.5,1.9-1.3,3.5-2.5,4.8c1.6,1.2,2.9,2.7,3.7,4.5c0.6,1.3,0.9,2.6,0.9,4.0c0.0,0.6-0.1,1.2-0.2,1.8c-0.4,2.3-1.4,4.2-2.9,5.7c-1.1,1.1-2.3,1.9-3.8,2.4C43.2,170.2,41.7,170.4,40.1,170.4zM41.9,154.7c-2.0,0.6-3.8,1.5-5.2,2.7c-0.5,0.5-0.9,1.0-1.3,1.7c-0.3,0.7-0.5,1.3-0.5,2.0c0.0,0.7,0.2,1.3,0.5,1.9c0.6,1.0,1.8,1.7,3.4,2.1c0.7,0.2,1.4,0.3,2.0,0.3c1.3,0.0,2.4-0.4,3.3-1.1c0.5-0.4,1.0-1.0,1.3-1.7c0.3-0.7,0.4-1.4,0.4-2.2c0.0-0.6-0.1-1.2-0.3-1.7C45.1,157.1,43.8,155.8,41.9,154.7zM42.2,140.9c-0.1,0.0-0.3,0.0-0.6,0.0c-0.6,0.1-1.2,0.3-1.8,0.6c-0.6,0.4-1.0,0.8-1.3,1.4c-0.3,0.6-0.5,1.2-0.5,1.8c0.0,0.8,0.3,1.6,0.8,2.3c0.7,0.8,1.8,1.5,3.2,2.2l0.7-0.4c0.7-0.4,1.3-0.9,1.8-1.6c0.5-0.7,0.8-1.3,0.9-2.0c0.0-0.3,0.0-0.5,0.0-0.6c0.0-0.8-0.2-1.5-0.7-2.2c-0.3-0.4-0.7-0.8-1.2-1.0C43.3,141.1,42.7,140.9,42.2,140.9z"/>
					<path fill="#333333" d="M78.9,165.6c-0.1-1.2-0.1-3.1-0.2-5.9l-0.1-3.6c-2.4,0.0-5.1-0.2-8.1-0.4l-1.3-0.1c0.0,0.0,0.0-0.1,0.0-0.3c0.0-0.2,0.0-0.8,0.1-1.8c0.0-0.2,0.0-0.6,0.1-1.1c0.0-0.5,0.0-0.9,0.0-1.1c0.0-0.3,0.0-0.5-0.1-0.5c2.2,0.0,3.7,0.0,4.6,0.0l4.7,0.0c0.0-2.5,0.1-5.6,0.3-9.4l0.0-0.5l0.9,0.1c0.8,0.1,1.3,0.1,1.4,0.2c0.8,0.1,1.5,0.1,2.0,0.1c0.1,0.0,0.2,0.0,0.4,0.0c0.2,0.0,0.3,0.0,0.4,0.0c-0.1,2.5-0.1,5.6-0.1,9.5c2.5,0.0,4.5,0.0,5.9,0.0c1.4,0.0,2.6-0.1,3.4-0.1l0.1,0.9c0.1,1.0,0.1,1.8,0.2,2.4c0.1,0.6,0.1,1.2,0.3,1.7c-2.0,0.2-5.3,0.3-9.8,0.4c0.0,4.2,0.1,7.2,0.2,9.1c-0.7,0.0-1.1,0.1-1.4,0.1C81.0,165.3,79.7,165.4,78.9,165.6z"/>
					<path fill="#333333" d="M133.8,153.9c0.6,1.4,0.9,2.9,0.9,4.4c0.0,1.8-0.3,3.4-1.0,5.0c-0.4,1.0-1.0,1.9-1.7,2.8c-0.7,0.9-1.5,1.6-2.4,2.2c-1.0,0.7-2.1,1.2-3.2,1.6c-1.2,0.4-2.3,0.5-3.5,0.5c-1.2,0.0-2.3-0.2-3.5-0.5c-1.1-0.3-2.2-0.8-3.1-1.5c-1.4-1.0-2.5-2.3-3.2-3.8c-0.7-1.6-1.2-3.3-1.5-5.3c-0.1-1.1-0.2-2.1-0.2-3.2c0.0-2.8,0.5-5.5,1.4-8.1c0.9-2.6,2.3-5.0,4.0-7.2c1.6-2.0,3.7-3.4,6.2-4.2c1.2-0.4,2.5-0.6,3.9-0.6c0.7,0.0,1.5,0.1,2.3,0.2c0.8,0.1,1.6,0.3,2.4,0.5c-0.1,0.2-0.3,0.6-0.6,1.4c-0.3,0.7-0.5,1.2-0.6,1.5c-0.2,0.6-0.5,1.1-0.7,1.6c-0.2,0.5-0.3,0.8-0.3,1.0c-1.2-0.4-2.2-0.6-2.9-0.6c-1.5,0.0-3.0,0.5-4.3,1.5c-1.1,0.7-2.0,1.7-2.7,2.8c-0.4,0.5-0.7,1.1-1.0,1.7c-0.1,0.2-0.2,0.5-0.4,1.0c-0.2,0.4-0.3,0.7-0.3,0.9c0.1-0.1,0.3-0.2,0.7-0.3c0.3-0.2,0.6-0.3,0.9-0.5c1.5-0.7,3.1-1.0,4.8-1.0c1.3,0.0,2.6,0.2,3.8,0.7c1.2,0.5,2.3,1.1,3.3,2.0C132.4,151.3,133.2,152.5,133.8,153.9zM129.4,158.4c0.0-1.0-0.3-2.0-0.8-2.9c-0.6-0.9-1.3-1.6-2.2-2.0c-0.9-0.5-1.9-0.7-3.0-0.7c-0.8,0.0-1.5,0.1-2.3,0.4c-0.7,0.2-1.4,0.6-2.0,1.1c-0.6,0.5-1.1,1.0-1.4,1.7c-0.5,1.0-0.7,2.1-0.7,3.2c0.0,1.3,0.3,2.5,0.9,3.6c0.6,1.1,1.5,1.9,2.6,2.3c0.7,0.3,1.3,0.4,2.0,0.4c1.0,0.0,1.9-0.2,2.9-0.7c1.3-0.7,2.3-1.7,3.1-3.1C129.1,160.6,129.4,159.5,129.4,158.4z"/>
				</g>
			</g>
		</g>
		<g>
			<circle fill="#00FFFF" cx="140.6" cy="83.8" r="5.4" opacity="0"/>
		</g>
	</g>
</svg>
