<?xml version='1.0' encoding='UTF-8'?>
<svg xmlns="http://www.w3.org/2000/svg" xmlns:xlink="http://www.w3.org/1999/xlink" width="118" height="194"><g id="rightCell2">
		<g>
			<path fill="#EFBB15" d="M82.7,190.7c5.3-0.5,10.6-0.3,15.9-0.3c2.4,0.0,4.8,0.0,7.3-0.1c2.1-0.1,4.6,0.1,6.6-0.6c4.1-1.5,3.3-8.0,3.1-11.4c-0.3-5.1-0.2-10.2-0.4-15.3c-0.2-5.3-0.5-10.6-0.4-15.9c0.1-5.0,0.9-10.0,1.1-15.0c0.3-10.6-0.6-21.1-0.9-31.6c-0.3-10.4,0.1-20.8-0.2-31.2c-0.1-4.9-0.3-9.9,0.1-14.8c0.4-5.2,0.9-10.3,1.1-15.5c0.2-5.2,0.2-10.4-0.1-15.5c-0.1-2.3-0.5-4.6-0.6-7.0c-0.1-2.6,0.2-5.1,0.2-7.7c0.0-2.1,0.2-4.3-1.3-5.9c-1.4-1.5-3.4-1.8-5.3-1.9c-4.8-0.2-9.6-0.0-14.4-0.0c-10.3-0.0-20.6,0.6-30.9,0.6c-10.3,0.1-20.7,0.6-31.0,0.4c-5.3-0.1-10.6-0.3-15.9-0.3c-3.3-0.0-7.1-0.5-10.2,0.8c-1.9,0.8-2.3,2.1-3.1,3.8c-1.0,2.4-1.6,4.4-1.5,7.1c0.2,5.2,0.9,10.3,1.1,15.4c0.5,10.0-1.1,20.0-1.4,29.9c-0.2,5.0-0.2,10.0-0.0,15.1c0.2,5.2,0.6,10.3,0.5,15.5c-0.2,10.3-1.1,20.5-0.5,30.8c0.7,10.4,1.8,20.8,0.9,31.2c-0.9,10.0-0.6,20.0-1.3,30.0c-0.2,2.9-0.4,6.7,2.6,8.2c3.4,1.7,7.7,0.8,11.3,0.7c21.0-1.0,41.9,0.9,62.9,0.7c2.2-0.0,4.5-0.0,6.7-0.2c0.6-0.1,1.3-0.3,1.9-0.2C85.4,190.2,83.4,190.7,82.7,190.7C88.4,190.2,81.3,190.7,82.7,190.7z"/>
			<g>
				<path fill="#EDB318" d="M115.5,178.2c-0.3-5.1-0.2-10.2-0.4-15.3c-0.2-5.3-0.5-10.6-0.4-15.9c0.1-5.0,0.9-10.0,1.1-15.0c0.3-10.6-0.6-21.1-0.9-31.6c-0.0-0.9-0.0-1.7-0.0-2.6c-3.6,30.8-7.0,61.7-10.1,92.5c0.3-0.0,0.7-0.0,1.0-0.0c2.1-0.1,4.6,0.1,6.6-0.6C116.6,188.1,115.7,181.6,115.5,178.2z"/>
				<path fill="#EDB318" d="M15.0,190.0c0.1-0.0,0.2-0.0,0.4-0.0c6.0-57.0,13.7-113.6,25.4-168.4c1.4-6.7,2.9-13.3,4.5-19.9c-2.5,0.0-5.1,0.1-7.6,0.1c-13.9,60.6-22.8,124.6-29.6,188.5C10.4,190.4,12.9,190.1,15.0,190.0z"/>
				<path fill="#EDB318" d="M2.9,28.7c0.5,10.0-1.1,20.0-1.4,29.9c-0.2,5.0-0.2,10.0-0.0,15.1c0.2,5.2,0.6,10.3,0.5,15.5c-0.2,10.3-1.1,20.5-0.5,30.8c0.7,10.4,1.8,20.8,0.9,31.2c-0.9,10.0-0.6,20.0-1.3,30.0c-0.1,1.3-0.2,2.9,0.0,4.3c0.6-8.1,1.3-16.3,2.0-24.4c4.2-45.9,10.5-91.6,18.8-136.9c1.2-6.4,2.4-12.7,3.6-19.1c0.2-1.2,0.5-2.3,0.7-3.5c-3.2-0.1-6.5-0.1-9.7-0.2c-3.3-0.0-7.1-0.5-10.2,0.8c-1.2,0.5-1.8,1.2-2.3,2.1c-0.7,3.8-1.5,7.6-2.2,11.4C2.2,20.1,2.7,24.4,2.9,28.7z"/>
				<path fill="#EDB318" d="M94.7,190.3c2.6-54.4,6.8-108.6,14.7-161.6c1.3-8.9,2.8-17.7,4.3-26.4c-1.4-1.2-3.2-1.4-5.0-1.5c-0.8-0.0-1.5-0.0-2.3-0.0c-10.7,61.4-16.1,125.6-19.1,189.6C89.9,190.3,92.3,190.3,94.7,190.3z"/>
				<path fill="#EDB318" d="M78.2,190.7c0.1-0.9,0.3-1.8,0.4-2.7c9.6-62.0,14.6-124.7,16.5-187.3c-0.2-0.0-0.5,0.0-0.7,0.0c-6.9-0.0-13.7,0.2-20.6,0.4c-0.1,1.8-0.1,3.6-0.2,5.4c-0.3,8.3-0.6,16.5-1.0,24.8c-0.8,16.0-1.8,31.9-3.1,47.9c-2.5,31.3-5.8,62.6-10.3,93.6c-0.8,5.8-1.7,11.7-2.7,17.5c7.1,0.2,14.2,0.4,21.3,0.3C78.0,190.7,78.1,190.7,78.2,190.7z"/>
				<path fill="#EDB318" d="M38.2,189.9c0.0-0.3,0.1-0.5,0.1-0.8c9.8-62.3,19.0-124.8,26.0-187.6c-0.3,0.0-0.6,0.0-0.9,0.0c-4.3,0.0-8.6,0.1-12.9,0.2c-2.2,19.6-4.6,39.3-7.1,58.9c-5.7,43.2-12.2,86.2-19.0,129.2C29.1,189.7,33.7,189.8,38.2,189.9z"/>
			</g>
		</g>
		<g>
			<path fill="#915117" d="M44.4,24.5c-0.7,1.4-1.7,2.4-2.9,3.2c-0.6,0.4-1.2,0.6-1.9,0.8c-0.7,0.2-1.3,0.3-2.0,0.3c-1.1,0.0-2.1-0.2-3.0-0.6c-0.9-0.4-1.8-1.0-2.5-1.8c-0.7-0.8-1.3-1.8-1.7-2.9c-0.4-1.1-0.6-2.4-0.6-3.8c0.0-1.4,0.2-2.7,0.6-3.9c0.4-1.2,1.0-2.2,1.8-3.0c0.7-0.8,1.6-1.4,2.6-1.8c1.0-0.4,2.0-0.6,3.0-0.6c1.1,0.0,2.0,0.2,3.0,0.6c0.9,0.4,1.8,1.0,2.5,1.8c0.7,0.8,1.3,1.8,1.7,2.9c0.4,1.1,0.6,2.4,0.6,3.8C45.6,21.4,45.2,23.0,44.4,24.5zM41.8,17.1c-0.2-0.8-0.5-1.5-0.9-2.0c-0.4-0.6-0.9-1.0-1.4-1.3s-1.1-0.4-1.8-0.4c-0.6,0.0-1.2,0.1-1.8,0.4c-0.5,0.3-1.0,0.7-1.4,1.2c-0.4,0.5-0.7,1.2-0.9,1.9c-0.2,0.7-0.3,1.6-0.3,2.5c0.0,1.0,0.1,1.8,0.3,2.6c0.2,0.8,0.5,1.5,0.9,2.0c0.4,0.6,0.9,1.0,1.4,1.3c0.5,0.3,1.1,0.4,1.8,0.4c0.6,0.0,1.2-0.1,1.7-0.4c0.5-0.3,1.0-0.7,1.4-1.2c0.4-0.5,0.7-1.2,0.9-1.9c0.2-0.7,0.3-1.6,0.3-2.5C42.1,18.8,42.0,17.9,41.8,17.1z"/>
			<path fill="#915117" d="M57.2,28.5v-6.7c0.0-1.1-0.2-1.9-0.5-2.3c-0.3-0.4-0.8-0.6-1.4-0.6c-0.3,0.0-0.7,0.1-1.0,0.2c-0.3,0.1-0.7,0.4-1.0,0.6c-0.3,0.3-0.5,0.5-0.7,0.8c-0.2,0.3-0.4,0.6-0.5,0.9v7.1h-3.4v-7.5c0.0-1.1-0.1-2.1-0.2-2.9c-0.1-0.9-0.3-1.5-0.4-2.0h3.4c0.1,0.2,0.2,0.6,0.3,1.1l0.1,0.6l0.1,0.5c0.8-0.9,1.6-1.5,2.3-1.9c0.7-0.4,1.6-0.6,2.4-0.6c0.6,0.0,1.2,0.1,1.7,0.3c0.5,0.2,0.9,0.5,1.3,1.0c0.7,0.9,1.1,2.1,1.1,3.8v7.6H57.2z"/>
			<path fill="#915117" d="M66.6,23.0c0.1,1.0,0.4,1.8,0.9,2.3c0.5,0.5,1.2,0.7,2.2,0.7c0.8,0.0,1.6-0.1,2.4-0.3c0.8-0.2,1.5-0.5,2.2-0.9l0.3,2.8c-0.9,0.4-1.7,0.7-2.5,0.9c-0.8,0.2-1.7,0.3-2.7,0.3c-0.8,0.0-1.6-0.1-2.3-0.4c-0.7-0.3-1.4-0.7-1.9-1.2c-0.6-0.6-1.0-1.2-1.3-2.0c-0.3-0.8-0.5-1.7-0.5-2.7c0.0-1.0,0.1-1.9,0.4-2.7c0.3-0.8,0.7-1.5,1.2-2.1c0.5-0.6,1.2-1.0,1.9-1.3c0.7-0.3,1.6-0.5,2.5-0.5c1.3,0.0,2.3,0.3,3.1,0.9c0.7,0.6,1.2,1.3,1.6,2.3c0.3,0.9,0.4,1.9,0.4,3.0v0.2c0.0,0.1,0.0,0.2,0.0,0.3v0.3v0.2H66.6zM67.5,19.0c-0.4,0.4-0.7,1.0-0.8,1.9h4.7c0.0-0.8-0.2-1.5-0.5-1.9c-0.4-0.4-0.9-0.6-1.7-0.6C68.5,18.4,67.9,18.6,67.5,19.0z"/>
			<path fill="#915117" d="M86.3,19.7c-0.6-0.3-1.1-0.6-1.7-0.8c-0.8-0.3-1.6-0.4-2.3-0.4c-0.6,0.0-1.1,0.1-1.5,0.3c-0.1,0.1-0.2,0.2-0.3,0.3c-0.1,0.1-0.1,0.3-0.1,0.4c0.0,0.2,0.0,0.3,0.1,0.4c0.1,0.1,0.2,0.2,0.3,0.3c0.3,0.2,1.0,0.4,2.0,0.6c1.4,0.3,2.5,0.7,3.3,1.2c0.9,0.7,1.4,1.5,1.4,2.6c0.0,0.6-0.1,1.1-0.4,1.6c-0.3,0.5-0.6,0.9-1.1,1.3c-0.5,0.4-1.0,0.7-1.7,0.9c-0.7,0.2-1.3,0.3-2.1,0.3c-1.1,0.0-2.1-0.1-3.0-0.4c-0.9-0.3-1.6-0.6-2.2-1.0l0.7-3.0c0.6,0.5,1.3,0.9,2.2,1.2c0.8,0.3,1.6,0.5,2.4,0.5c0.6,0.0,1.0-0.1,1.4-0.3c0.4-0.2,0.5-0.5,0.5-0.8c0.0-0.2-0.0-0.4-0.1-0.5c-0.1-0.2-0.2-0.3-0.4-0.4c-0.4-0.3-1.2-0.5-2.3-0.8c-1.6-0.3-2.7-0.8-3.4-1.5c-0.3-0.3-0.5-0.6-0.6-0.9c-0.1-0.3-0.2-0.7-0.2-1.1c0.0-0.2,0.0-0.5,0.1-0.7c0.1-0.3,0.2-0.5,0.3-0.8c0.4-0.7,0.9-1.2,1.6-1.6c0.9-0.5,2.0-0.7,3.2-0.7c0.9,0.0,1.8,0.1,2.6,0.3c0.6,0.2,1.2,0.4,1.8,0.7L86.3,19.7z"/>
		</g>
	</g>
</svg>
