<?xml version='1.0' encoding='UTF-8'?>
<svg xmlns="http://www.w3.org/2000/svg" xmlns:xlink="http://www.w3.org/1999/xlink" width="564" height="134"><svg x="0" y="0">
		<g id="defaultContent">
			<g>
				<path fill="#E5DBCF" d="M122.4,116.1c-7.2,0.0-14.5-0.2-20.0-0.3c-6.2-0.2-12.5-0.4-18.5-0.7c-9.6-0.4-19.5-0.8-29.4-0.8c-0.6,0.0-1.2,0.0-1.8,0.0c-7.6,0.0-15.7,0.2-25.4,0.5c-0.7,0.0-1.5,0.1-2.4,0.1c-0.9,0.1-1.9,0.1-2.8,0.1c-0.9,0.0-1.4-0.1-1.6-0.1c-0.2-0.2-0.5-0.9-0.5-1.6c0.0-1.3,1.1-2.8,2.3-4.2c0.6-0.8,1.3-1.6,2.0-2.3c1.4-1.7,2.9-3.4,4.2-5.2c4.6-6.0,9.0-12.0,13.2-17.8c8.8-12.2,17.7-23.4,27.0-34.3l1.4-1.6c4.2-4.9,8.6-10.0,12.5-15.3c1.9-2.6,3.8-5.5,6.0-9.0c1.0-1.6,2.2-2.7,3.7-3.2c0.6-0.2,1.1-0.3,1.5-0.3c1.8,0.0,4.0,1.8,5.9,4.7c3.6,5.7,7.4,11.1,11.6,16.3c5.9,7.4,12.3,14.7,18.4,21.7c3.5,4.0,7.2,8.2,10.7,12.3c4.5,5.3,8.9,10.7,13.2,15.9c3.5,4.2,7.0,8.6,10.6,12.9c0.1,0.2,0.2,0.4,0.4,0.5l2.7,3.1c0.0,0.0,0.1,0.1,0.1,0.1c0.1,0.1,0.2,0.2,0.2,0.3c0.2,0.2,0.4,0.4,0.6,0.6c0.0,0.0,0.0,0.0,0.0,0.0c0.9,1.1,1.3,1.7,1.3,2.3c0.0,0.9-0.5,1.9-1.3,2.5c-1.3,1.0-3.5,1.4-7.5,1.4c-0.9,0.0-1.8-0.0-2.6-0.0c-0.9-0.0-1.8-0.0-2.7-0.0c-1.5,0.0-2.7,0.0-3.8,0.1C142.8,115.8,133.3,116.1,122.4,116.1z"/>
				<path fill="#B7A491" d="M160.5,111.1c-0.8,0.0-1.7-0.0-2.5-0.0l-0.1-0.0c-0.9-0.0-1.8-0.0-2.7-0.0c-1.4,0.0-2.6,0.0-3.6,0.1c-8.6,0.8-18.1,1.2-29.2,1.2c-7.3,0.0-14.5-0.2-20.0-0.3c-6.2-0.2-12.5-0.4-18.6-0.7c-9.6-0.4-19.5-0.8-29.3-0.8c-0.6,0.0-1.2,0.0-1.8,0.0c-7.6,0.0-15.6,0.2-25.3,0.5c-0.7,0.0-1.5,0.1-2.3,0.1c-1.0,0.1-2.0,0.1-2.9,0.1c-0.5,0.0-1.0-0.0-1.4-0.1c-0.5,0.8-0.8,1.5-0.8,2.1c-0.0,0.7,0.3,1.4,0.5,1.6c0.2,0.1,0.7,0.1,1.6,0.1c0.8,0.0,1.8-0.1,2.8-0.1c0.8-0.1,1.6-0.1,2.4-0.1c9.7-0.3,17.8-0.5,25.4-0.5c0.6-0.0,1.2-0.0,1.8-0.0c9.9,0.0,19.8,0.4,29.4,0.8c6.1,0.3,12.4,0.5,18.5,0.7c5.5,0.1,12.8,0.3,20.0,0.3c11.0,0.0,20.5-0.4,29.0-1.2c1.1-0.1,2.3-0.1,3.8-0.1c0.9,0.0,1.8,0.0,2.7,0.0c0.9,0.0,1.7,0.0,2.6,0.0c4.1,0.0,6.2-0.4,7.5-1.4c0.8-0.7,1.3-1.6,1.3-2.5c-0.0-0.4-0.2-0.8-0.6-1.4C167.1,110.6,164.7,111.1,160.5,111.1z"/>
			</g>
			<path fill="#55435B" d="M105.7,75.6c1.7,3.4,2.1,6.9,1.2,10.7c-1.0,3.8-3.1,6.7-6.3,8.8c-3.8,2.5-7.9,3.1-12.3,1.8c-4.4-1.3-7.3-4.2-8.8-8.6c-0.8-2.9-1.2-6.1-1.2-9.4c-0.0-3.4,0.6-6.7,1.9-9.9c1.3-3.3,3.0-6.1,4.9-8.6c2.0-2.5,4.6-4.2,7.8-5.2c3.2-1.0,6.7-1.0,10.5,0.1l0.2,0.1c-0.3,0.6-0.9,1.7-1.5,3.3c-0.7,1.6-1.1,2.6-1.1,3.1c-0.1-0.1-0.1-0.1-0.2-0.1c-3.3-1.1-6.2-0.7-9.0,1.3c-2.7,1.9-4.7,4.9-5.9,8.8c0.1-0.1,0.2-0.1,0.3-0.2c0.2-0.1,0.3-0.2,0.3-0.2c3.6-2.1,7.2-2.8,10.7-2.0C101.2,70.2,104.0,72.3,105.7,75.6zM99.6,78.2c-1.4-1.7-3.1-2.7-5.3-2.9c-2.1-0.3-4.3,0.4-6.6,1.8c-1.4,1.0-2.2,2.5-2.4,4.3c-0.3,1.9-0.2,3.4,0.0,4.6c0.3,1.2,0.5,1.9,0.7,2.1c1.3,2.1,3.1,3.2,5.3,3.5c2.2,0.3,4.3-0.4,6.2-1.9c1.9-1.5,3.1-3.5,3.6-6.0C101.5,81.7,101.0,79.9,99.6,78.2z"/>
		</g>
	</svg>
	<svg id="draggable" x="188" y="0">
		<use xlink:href="#defaultContent" style="stroke: #000000; stroke-width: 14; opacity: 0.2; stroke-miterlimit: 10; stroke-linecap: round; stroke-linejoin: round;" x="6" y="6"/>
		<use xlink:href="#defaultContent" style="stroke: #FFFFFF; stroke-width: 14; stroke-miterlimit: 10; stroke-linecap: round; stroke-linejoin: round;"/>
		<use xlink:href="#defaultContent"/>
	</svg>
	<svg id="grabbed" x="376" y="0">
		<use xlink:href="#defaultContent" style="stroke: #FFFFFF; stroke-width: 32; stroke-miterlimit: 10; stroke-linecap: round; stroke-linejoin: round;"/>
		<use xlink:href="#defaultContent"/>
	</svg>
</svg>
