<?xml version='1.0' encoding='UTF-8'?>
<svg xmlns="http://www.w3.org/2000/svg" xmlns:xlink="http://www.w3.org/1999/xlink" width="714" height="148"><svg x="0" y="0">
		<g id="defaultContent">
			<g>
				<g>
					<g>
						<g>
							<path fill="#E8C910" d="M117.4,121.9c1.3-0.6,2.4-1.4,3.1-2.4c4.2-5.6,4.2-10.0,4.2-27.5c0.1-18.9,0.0-25.5-0.1-39.9c0.0-7.7-1.5-18.3-1.7-19.0c-3.2-13.4-5.9-12.4-5.9-12.4s-79.1,48.2-96.3,70.0c-2.0,2.6-0.6,16.2-0.6,16.2s0.8,12.1,3.5,16.1c2.7,3.8,3.7,3.7,3.7,3.7l64.5-2.2C100.4,122.8,108.9,122.0,117.4,121.9z"/>
						</g>
						<g>
							<g>
								<path fill="#E8C910" d="M116.0,89.3c0.0,1.1-1.2,22.3,1.6,32.6c11.6-0.2,23.3,0.7,35.0,1.5c10.7,0.8,21.5,2.4,32.2,2.6c9.8,0.2,19.3-0.3,29.0,0.9c0.8-0.3,1.6-0.7,2.4-1.2c2.4-1.5,1.4-27.4,0.1-28.9c-19.1-22.0-86.6-66.9-86.6-66.9s-9.9-11.5-12.7-10.0c-2.8,1.4-1.2,24.1-1.2,24.1S115.5,67.2,116.0,89.3z"/>
							</g>
						</g>
						<g>
							<g>
								<g>
									<path fill="#FFF031" d="M120.2,26.5c0.6,15.4,1.3,41.7,0.5,56.0c-0.6,11.1-8.0,10.5-8.0,10.5l-86.2,3.5c0.0,0.0-6.2-0.8-6.7-3.3c-0.4-2.0,5.1-7.9,7.1-9.9c22.3-22.1,87.2-64.5,90.4-63.7C118.8,20.0,120.0,21.9,120.2,26.5z"/>
								</g>
							</g>
							<g>
								<path fill="#FFF031" d="M116.6,19.7c-1.3,1.4-0.6,62.8-0.6,62.8s-0.1,6.5,1.7,8.4c1.8,1.9,8.6,2.7,8.6,2.7l77.5,1.9c0.0,0.0,12.4,2.3,11.2-1.5C212.5,86.1,119.2,16.9,116.6,19.7z"/>
							</g>
						</g>
					</g>
					<g>
						<path fill="#333333" d="M111.3,83.1c0.0,0.5,0.0,1.1,0.0,1.9c0.0,0.7,0.0,1.1,0.0,1.4c-2.6,0.0-4.4-0.1-5.4-0.1c-6.4,0.0-11.0,0.2-14.0,0.6c-0.1-2.1-0.4-4.1-0.7-6.2c1.7-0.3,3.8-0.6,6.2-0.7c-0.2-2.3-0.3-5.1-0.3-8.4c0.0-4.2,0.2-9.0,0.5-14.6c-0.7,1.1-1.6,2.1-2.5,2.9c-1.0,0.8-2.1,1.6-3.4,2.2c-1.1-2.0-2.3-3.7-3.6-5.1c2.3-1.3,4.4-3.1,6.3-5.3c1.4-1.6,2.5-3.0,3.4-4.3c0.8-1.2,1.5-2.4,2.0-3.6c0.3,0.2,0.8,0.5,1.6,0.7c0.8,0.3,1.8,0.6,3.2,1.0l2.4,0.7c-1.3,5.0-2.0,11.8-2.1,20.4v2.2c0.0,4.5,0.1,8.1,0.4,11.1c2.1,0.0,4.2,0.1,6.1,0.2v0.2C111.3,80.7,111.3,81.6,111.3,83.1z"/>
						<path fill="#333333" d="M143.5,66.3c0.7,1.8,1.1,3.6,1.1,5.5c0.0,2.2-0.4,4.3-1.3,6.2c-0.5,1.2-1.2,2.4-2.1,3.4s-1.8,2.0-3.0,2.7c-1.2,0.9-2.5,1.5-4.0,1.9c-1.4,0.4-2.9,0.7-4.4,0.7c-1.5,0.0-2.9-0.2-4.3-0.6c-1.4-0.4-2.7-1.0-3.9-1.9c-1.7-1.2-3.1-2.8-4.0-4.7c-0.9-1.9-1.5-4.1-1.8-6.6c-0.2-1.3-0.2-2.6-0.2-3.9c0.0-3.5,0.6-6.8,1.7-10.0c1.1-3.2,2.8-6.2,5.0-9.0c2.0-2.5,4.6-4.2,7.7-5.2c1.5-0.5,3.2-0.8,4.9-0.8c0.9,0.0,1.9,0.1,2.9,0.2c1.0,0.1,2.0,0.3,2.9,0.6c-0.1,0.2-0.4,0.8-0.7,1.7c-0.3,0.9-0.6,1.5-0.8,1.9c-0.3,0.7-0.6,1.4-0.8,2.0c-0.2,0.6-0.4,1.0-0.4,1.2c-1.5-0.5-2.7-0.8-3.5-0.8c-1.9,0.0-3.7,0.6-5.3,1.8c-1.3,0.9-2.4,2.1-3.4,3.5c-0.5,0.7-0.9,1.4-1.2,2.1c-0.1,0.3-0.3,0.6-0.5,1.2c-0.2,0.5-0.3,0.9-0.4,1.1c0.1-0.1,0.4-0.2,0.8-0.4c0.4-0.2,0.8-0.4,1.2-0.6c1.9-0.9,3.9-1.3,5.9-1.3c1.6,0.0,3.2,0.3,4.7,0.8c1.5,0.6,2.8,1.4,4.0,2.5C141.8,63.0,142.8,64.5,143.5,66.3zM138.0,71.9c0.0-1.3-0.3-2.5-1.0-3.6c-0.7-1.1-1.6-2.0-2.8-2.5c-1.2-0.6-2.4-0.9-3.7-0.9c-0.9,0.0-1.9,0.2-2.8,0.5c-0.9,0.3-1.7,0.8-2.5,1.4c-0.7,0.6-1.3,1.3-1.7,2.1c-0.6,1.3-0.9,2.6-0.9,4.0c0.0,1.6,0.4,3.1,1.1,4.4c0.7,1.3,1.8,2.3,3.2,2.9c0.8,0.3,1.7,0.5,2.5,0.5c1.2,0.0,2.4-0.3,3.7-0.9c1.6-0.8,2.9-2.1,3.8-3.8C137.7,74.6,138.0,73.3,138.0,71.9z"/>
					</g>
				</g>
			</g>
			<g>
				<circle fill="#00FFFF" cx="143.3" cy="80.7" r="5.4" opacity="0"/>
			</g>
		</g>
	</svg>
	<svg id="draggable" x="238" y="0">
		<use xlink:href="#defaultContent" style="stroke: #000000; stroke-width: 14; opacity: 0.2; stroke-miterlimit: 10; stroke-linecap: round; stroke-linejoin: round;" x="6" y="6"/>
		<use xlink:href="#defaultContent" style="stroke: #FFFFFF; stroke-width: 14; stroke-miterlimit: 10; stroke-linecap: round; stroke-linejoin: round;"/>
		<use xlink:href="#defaultContent"/>
	</svg>
	<svg id="grabbed" x="476" y="0">
		<use xlink:href="#defaultContent" style="stroke: #FFFFFF; stroke-width: 32; stroke-miterlimit: 10; stroke-linecap: round; stroke-linejoin: round;"/>
		<use xlink:href="#defaultContent"/>
	</svg>
</svg>
