<?xml version='1.0' encoding='UTF-8'?>
<svg xmlns="http://www.w3.org/2000/svg" xmlns:xlink="http://www.w3.org/1999/xlink" version="1.1" x="0px" y="0px" width="48px" height="50px" viewBox="0 0 48 50" enable-background="new 0 0 48 50" xml:space="preserve"><g id="roof0">
		<g>
			<path fill="#BC8B69" d="M0.3,33.8c0.0,0.0-0.2,2.1,0.1,6.9c0.2,4.8,7.2,9.6,23.6,8.4c0.0,0.0,22.0-2.2,23.4-8.6c1.5-6.4,0.4-10.0,0.2-10.2c-0.2-0.2-8.5-7.1-24.8-3.3S1.8,33.3,0.3,33.8z"/>
		</g>
		<g>
			<path fill="#EFCF9C" d="M0.4,32.3c0.6-1.4,20.1-31.0,22.4-31.6c2.3-0.6,23.8,23.9,24.8,26.5c1.0,2.7-6.0,5.5-23.8,6.8C5.9,35.4-0.8,35.3,0.4,32.3z"/>
		</g>
	</g>
	</svg>
