<?xml version='1.0' encoding='UTF-8'?>
<svg xmlns="http://www.w3.org/2000/svg" xmlns:xlink="http://www.w3.org/1999/xlink" width="50" height="40"><g id="row10">
		<path fill="#333333" d="M21.0,35.0c-0.0,0.4-0.0,1.0-0.0,1.7c0.0,0.6,0.0,1.0,0.0,1.2c-2.2-0.0-3.8-0.0-4.7-0.0c-5.5,0.0-9.5,0.2-12.0,0.5c-0.1-1.8-0.3-3.5-0.6-5.3c1.5-0.3,3.3-0.5,5.3-0.6c-0.2-2.0-0.2-4.4-0.2-7.3c0.0-3.6,0.1-7.8,0.4-12.6c-0.6,1.0-1.4,1.8-2.2,2.5s-1.8,1.4-2.9,1.9c-1.0-1.7-2.0-3.2-3.1-4.4c2.0-1.1,3.8-2.7,5.5-4.6c1.2-1.4,2.2-2.6,2.9-3.7s1.3-2.1,1.7-3.1c0.2,0.2,0.7,0.4,1.4,0.6s1.6,0.5,2.8,0.8l2.1,0.6c-1.1,4.3-1.8,10.1-1.8,17.6v1.9c0.0,3.8,0.1,7.0,0.4,9.5c1.8,0.0,3.6,0.1,5.2,0.2v0.2C21.1,32.9,21.1,33.7,21.0,35.0z"/>
		<path fill="#333333" d="M47.3,17.9c0.0,0.3,0.0,0.8,0.0,1.5c0.0,3.7-0.6,7.1-1.9,10.4c-2.4,5.7-6.0,8.6-11.0,8.6c-2.5,0.0-4.5-0.8-6.1-2.5s-2.7-3.7-3.4-6.2s-1.1-5.0-1.1-7.5c0.0-0.7,0.0-1.3,0.1-1.9c0.2-2.7,0.8-5.4,1.6-8.1c1.2-3.7,2.9-6.5,5.2-8.6c0.8-0.7,1.7-1.2,2.9-1.6s2.3-0.6,3.6-0.6c1.3,0.0,2.4,0.2,3.4,0.6c1.0,0.4,1.8,1.1,2.5,1.9s1.3,1.8,1.8,2.9c0.7,1.7,1.3,3.5,1.7,5.4S47.2,16.0,47.3,17.9zM39.0,29.1c0.8-1.4,1.4-2.9,1.8-4.7s0.6-3.6,0.6-5.4c0.0-1.7-0.2-3.3-0.5-4.9s-0.8-3.1-1.4-4.4c-0.8-1.7-1.9-2.6-3.2-2.6c-1.3,0.0-2.5,0.6-3.4,1.9c-0.9,1.2-1.5,2.4-1.9,3.6c-0.8,2.8-1.2,5.6-1.2,8.4c0.0,3.0,0.5,5.7,1.4,8.3c0.3,0.9,0.9,1.6,1.8,2.2c0.7,0.5,1.4,0.7,1.9,0.7c0.1,0.0,0.2-0.0,0.4-0.0C36.8,31.8,38.1,30.8,39.0,29.1z"/>
		<circle fill="#00FFFF" cx="36.0" cy="33.2" r="5" opacity="0"/>
	</g>
</svg>
