<?xml version='1.0' encoding='UTF-8'?>
<svg xmlns="http://www.w3.org/2000/svg" xmlns:xlink="http://www.w3.org/1999/xlink" width="194" height="204"><g id="Ruby">
		<g>
			<g>
				<g>
					<ellipse transform="matrix(0.5452 -0.8383 0.8383 0.5452 -422.9171 505.52869999999996)" fill="#A84C09" cx="611.6" cy="204.1" rx="14.9" ry="14.9"/>
					<ellipse transform="matrix(0.5452 -0.8383 0.8383 0.5452 -435.6158 491.32280000000003)" fill="#A84C09" cx="592.2" cy="208.7" rx="8.7" ry="8.7"/>
					<ellipse transform="matrix(0.5451 -0.8384 0.8384 0.5451 -446.0071 491.6267)" fill="#A84C09" cx="587.2" cy="218.4" rx="6.2" ry="6.2"/>
					<ellipse transform="matrix(0.5452 -0.8383 0.8383 0.5452 -450.13779999999997 484.4647)" fill="#A84C09" cx="578.5" cy="218.6" rx="3.6" ry="3.6"/>
				</g>
				<g>
					<ellipse transform="matrix(0.02408673 -0.9997 0.9997 0.02408673 -124.81479999999999 751.865)" fill="#A84C09" cx="638.9" cy="218.4" rx="14.9" ry="14.9"/>
					<ellipse transform="matrix(0.0241766 -0.9997 0.9997 0.0241766 -146.5009 736.5094)" fill="#A84C09" cx="620.2" cy="221.8" rx="10.5" ry="10.5"/>
					<ellipse transform="matrix(0.02409287 -0.9997 0.9997 0.02409287 -162.8965 729.0328)" fill="#A84C09" cx="608.2" cy="226.5" rx="4.7" ry="4.7"/>
					<ellipse transform="matrix(0.02428144 -0.9997 0.9997 0.02428144 -170.47859999999997 725.8094)" fill="#A84C09" cx="602.8" cy="228.7" rx="3.8" ry="3.8"/>
				</g>
				<ellipse transform="matrix(0.1255 -0.9921 0.9921 0.1255 -115.0514 767.86)" fill="#A84C09" cx="699.7" cy="198.6" rx="10.7" ry="11.8"/>
				<g>
					<ellipse transform="matrix(0.8417 -0.5399 0.5399 0.8417 -529.8286 310.8807)" fill="#A84C09" cx="700.9" cy="205.1" rx="8.9" ry="8.6"/>
					<ellipse transform="matrix(0.8416 -0.5401 0.5401 0.8416 -531.981 317.2295)" fill="#A84C09" cx="710.4" cy="212" rx="6.4" ry="6.2"/>
					<ellipse transform="matrix(0.8415 -0.5402 0.5402 0.8415 -537.1871 318.0635)" fill="#A84C09" cx="709" cy="221.3" rx="4.2" ry="4"/>
					<ellipse transform="matrix(0.8417 -0.5399 0.5399 0.8417 -538.7745 320.4244)" fill="#A84C09" cx="712.7" cy="225.2" rx="2.7" ry="2.6"/>
				</g>
				<ellipse transform="matrix(0.1254 -0.9921 0.9921 0.1254 -174.745 753.588)" fill="#A84C09" cx="661.8" cy="225.3" rx="12.3" ry="12.7"/>
				<ellipse transform="matrix(0.1255 -0.9921 0.9921 0.1255 -138.9269 766.063)" fill="#A84C09" cx="686.8" cy="211.2" rx="12.7" ry="12.4"/>
				<g>
					<ellipse transform="matrix(0.6594 -0.7518 0.7518 0.6594 -472.6748 477.79949999999997)" fill="#A84C09" cx="666.4" cy="225.6" rx="9.1" ry="9.2"/>
					<ellipse transform="matrix(0.6595 -0.7517 0.7517 0.6595 -482.4573 477.7269)" fill="#A84C09" cx="661.4" cy="236.4" rx="4" ry="4.1"/>
				</g>
			</g>
			<ellipse transform="matrix(0.9614 -0.2752 0.2752 0.9614 -563.0767 96.03569999999999)" fill="#A84C09" cx="682" cy="215.9" rx="11.2" ry="9.7"/>
			<path fill="#A84C09" d="M69.6,97.2c7.5,26.0,36.2,38.2,65.3,32.3c29.6-6.0,51.6-30.9,44.1-56.9c-7.5-26.0-37.7-50.7-71.1-37.4C80.3,46.3,62.2,71.2,69.6,97.2z"/>
			<g>
				<ellipse transform="matrix(0.218 -0.976 0.976 0.218 -289.3585 616.3279)" fill="#C65E09" cx="567.3" cy="208" rx="3.6" ry="3.6"/>
				<ellipse transform="matrix(0.2185 -0.9758 0.9758 0.2185 -296.1517 610.3903)" fill="#C65E09" cx="560.4" cy="209.2" rx="4.4" ry="4.4"/>
				<ellipse transform="matrix(0.2183 -0.9759 0.9759 0.2183 -259.57 632.5126)" fill="#C65E09" cx="592.5" cy="197.4" rx="10.9" ry="10.9"/>
				<ellipse transform="matrix(0.2183 -0.9759 0.9759 0.2183 -275.1201 617.8297)" fill="#C65E09" cx="575.5" cy="199.8" rx="8.7" ry="8.7"/>
			</g>
			<ellipse transform="matrix(0.9614 -0.2753 0.2753 0.9614 -563.576 72.9436)" fill="#C65E09" cx="599.4" cy="206.1" rx="14.9" ry="14.9"/>
			<g>
				<ellipse transform="matrix(0.8776 -0.4793 0.4793 0.8776 -513.0385 221.7258)" fill="#C65E09" cx="638.6" cy="127.6" rx="7.9" ry="7.8"/>
				<ellipse transform="matrix(0.8776 -0.4794 0.4794 0.8776 -510.3922 216.71839999999997)" fill="#C65E09" cx="630" cy="120" rx="5.1" ry="5.1"/>
				<ellipse transform="matrix(0.8777 -0.4791 0.4791 0.8777 -511.4994 212.81650000000002)" fill="#C65E09" cx="622.2" cy="120.2" rx="3.8" ry="3.8"/>
				<ellipse transform="matrix(0.8775 -0.4795 0.4795 0.8775 -511.0884 208.7812)" fill="#C65E09" cx="614" cy="117.4" rx="5.2" ry="5.2"/>
			</g>
			<g>
				<ellipse transform="matrix(0.9972 -0.07527821 0.07527821 0.9972 -538.6856 -52.3789)" fill="#C65E09" cx="627.4" cy="139" rx="13.6" ry="13.6"/>
				<ellipse transform="matrix(0.9972 -0.0752939 0.0752939 0.9972 -538.1648 -53.7859)" fill="#C65E09" cx="608.8" cy="131.4" rx="10.6" ry="10.6"/>
				<ellipse transform="matrix(0.9972 -0.07525425 0.07525425 0.9972 -538.094 -54.998)" fill="#C65E09" cx="593.1" cy="129.9" rx="7.7" ry="7.7"/>
				<ellipse transform="matrix(0.9972 -0.07514527 0.07514527 0.9972 -538.1089 -55.9446)" fill="#C65E09" cx="581.4" cy="129.8" rx="4.8" ry="4.8"/>
				<ellipse transform="matrix(0.9972 -0.07538645 0.07538645 0.9972 -537.9271 -56.3232)" fill="#C65E09" cx="574.6" cy="126.8" rx="3.3" ry="3.3"/>
				<ellipse transform="matrix(0.9972 -0.07525837 0.07525837 0.9972 -538.2369 -56.623)" fill="#C65E09" cx="571.4" cy="131" rx="2.7" ry="2.7"/>
				<ellipse transform="matrix(0.9972 -0.07541008 0.07541008 0.9972 -538.442 -56.8846)" fill="#C65E09" cx="566.7" cy="133.3" rx="3.2" ry="3.2"/>
			</g>
			<ellipse transform="matrix(0.9614 -0.2752 0.2752 0.9614 -546.5894 97.0486)" fill="#C65E09" cx="693.9" cy="157.6" rx="13.1" ry="13.2"/>
			<ellipse transform="matrix(0.9614 -0.2752 0.2752 0.9614 -550.9898 99.2662)" fill="#C65E09" cx="699.5" cy="174.4" rx="13.3" ry="12"/>
			<ellipse transform="matrix(0.9614 -0.2753 0.2753 0.9614 -543.976 93.00479999999999)" fill="#C65E09" cx="680.6" cy="146.3" rx="13.1" ry="13.3"/>
			<ellipse transform="matrix(0.9614 -0.2752 0.2752 0.9614 -543.0726 88.2961)" fill="#C65E09" cx="664.5" cy="140.7" rx="14.3" ry="10.7"/>
			<ellipse transform="matrix(0.9614 -0.2752 0.2752 0.9614 -542.9083 84.80969999999999)" fill="#C65E09" cx="652" cy="138.4" rx="9.5" ry="13"/>
			<path fill="#DF986A" d="M161.1,106.5c0.0,0.0,14.6-11.3,10.2-27.7c-1.5-5.5-13.2-26.4-18.8-33.3c-5.7-7.2-25.5-10.0-49.0-1.3c-6.7,2.5-25.9,15.8-23.4,35.0c0.9,7.2,2.7,15.8,6.9,25.6c0.0,0.0,7.0,22.4,44.7,15.6C131.7,120.3,150.7,115.4,161.1,106.5z"/>
			<path fill="#C65E09" d="M72.8,78.1c-1.8-29.8,25.0-41.5,31.7-44.0c23.5-8.7,45.0-4.2,55.8,8.5c4.7,5.5-0.3,7.1-3.3,7.5c-5.7-9.8-16.1-11.4-25.0-11.3c-27.0,0.4-41.3,22.5-43.2,29.9c-2.1,5.8-2.0,12.4-1.2,18.8c0.3,3.5-2.2,5.3-4.4,6.5C74.3,96.1,73.0,82.6,72.8,78.1z"/>
			<path fill="#C65E09" d="M72.6,79.4c0.9-23.2,25.0-37.5,31.7-39.9c14.4-5.3,28.3-6.9,37.5-3.9c4.9,1.6,9.7,4.7,11.4,8.9c-2.6-2.1-9.7-4.1-11.6-4.4c-25.5-3.1-50.7,16.0-53.0,34.0c-0.2,1.5,3.2,18.1-5.8,20.0C71.4,94.8,72.4,83.6,72.6,79.4z"/>
			<g>
				<ellipse transform="matrix(0.9666 -0.2563 0.2563 0.9666 -542.3649 78.2404)" fill="#C65E09" cx="677.5" cy="136.6" rx="8.5" ry="8.5"/>
				<ellipse transform="matrix(0.9666 -0.2562 0.2562 0.9666 -542.1445 75.0041)" fill="#C65E09" cx="665.5" cy="134.1" rx="7" ry="7"/>
				<ellipse transform="matrix(0.9666 -0.2563 0.2563 0.9666 -543.7039 81.08869999999999)" fill="#C65E09" cx="687.9" cy="143.1" rx="7" ry="7"/>
			</g>
			<ellipse transform="matrix(0.9614 -0.2752 0.2752 0.9614 -555.7242 84.3877)" fill="#FFFFFF" cx="644.1" cy="183.8" rx="9.6" ry="10"/>
			<ellipse transform="matrix(0.9614 -0.2753 0.2753 0.9614 -555.4355 85.80099999999999)" cx="649.1" cy="183.5" rx="5" ry="5.6"/>
			<ellipse transform="matrix(0.9614 -0.2752 0.2752 0.9614 -551.0018 94.61240000000001)" fill="#FFFFFF" cx="683.1" cy="172.2" rx="9.6" ry="10"/>
			<ellipse transform="matrix(0.9614 -0.2752 0.2752 0.9614 -550.6547 95.97319999999999)" cx="688.1" cy="171.6" rx="5" ry="5.6"/>
			<path fill="#DF986A" d="M87.6,96.6c0.0,0.0-9.9-8.2-11.3,3.3c0.0,0.0-1.7,11.7,12.7,4.7L87.6,96.6z"/>
			<g>
				<path fill="#CE7D51" d="M143.2,83.1c-0.5-0.8-1.6-1.3-2.5-1.5c-1.4-0.2-2.7-0.1-4.1,0.1c-0.8,0.1-1.6,0.5-2.3,1.1c1.8,3.1,3.5,6.3,5.2,9.4c1.3-0.5,2.4-1.4,3.0-2.6C143.7,87.5,144.5,85.2,143.2,83.1z"/>
			</g>
			<g>
				<ellipse transform="matrix(0.9351 -0.3544 0.3544 0.9351 -531.7665 143.192)" fill="#C65E09" cx="663.1" cy="126.4" rx="10.8" ry="10.1"/>
				<ellipse transform="matrix(0.8027 -0.5964 0.5964 0.8027 -466.7768 318.1433)" fill="#C65E09" cx="663.6" cy="113.5" rx="6.5" ry="6.1"/>
				<ellipse transform="matrix(0.8027 -0.5964 0.5964 0.8027 -464.1504 311.9579)" fill="#C65E09" cx="655.6" cy="106.5" rx="4.7" ry="5"/>
				<ellipse transform="matrix(0.8026 -0.5965 0.5965 0.8026 -466.0966 307.7653)" fill="#C65E09" cx="648" cy="107.3" rx="3.4" ry="3.4"/>
				<ellipse transform="matrix(0.8026 -0.5965 0.5965 0.8026 -466.26189999999997 304.8193)" fill="#C65E09" cx="643.5" cy="106.1" rx="2.3" ry="2.2"/>
			</g>
			<g>
				<ellipse transform="matrix(0.8422 -0.5392 0.5392 0.8422 -493.8182 269.1993)" fill="#C65E09" cx="648.8" cy="122.8" rx="7" ry="6.6"/>
				<ellipse transform="matrix(0.8421 -0.5393 0.5393 0.8421 -489.5117 265.9979)" fill="#C65E09" cx="645.4" cy="113.8" rx="3.5" ry="3.2"/>
				<ellipse transform="matrix(0.8676 -0.4972 0.4972 0.8676 -501.1804 232.015)" fill="#C65E09" cx="638" cy="111.9" rx="4.7" ry="4.6"/>
			</g>
			<path fill="#C65E09" d="M173.8,76.7c-2.6,4.9-0.6,11.0,4.4,13.7c5.0,2.6,11.2,0.8,13.7-4.2c2.6-4.9,0.6-11.0-4.4-13.7C182.6,69.9,176.4,71.8,173.8,76.7z"/>
			<g>
				<ellipse transform="matrix(0.06637819 -0.9978 0.9978 0.06637819 -17.033300000000054 716.9922)" fill="#C65E09" cx="693.1" cy="134.4" rx="9.9" ry="9.6"/>
				<ellipse transform="matrix(0.06647395 -0.9978 0.9978 0.06647395 -3.178800000000024 708.4897)" fill="#C65E09" cx="695.5" cy="122.7" rx="5.5" ry="5.3"/>
				<ellipse transform="matrix(0.06653396 -0.9978 0.9978 0.06653396 1.6666999999999916 700.5454)" fill="#C65E09" cx="693.7" cy="116.1" rx="3.1" ry="3"/>
			</g>
			<g>
				<ellipse transform="matrix(0.9638 -0.2665 0.2665 0.9638 -539.7404 85.47569999999999)" fill="#C65E09" cx="678.4" cy="128.6" rx="8.6" ry="8.9"/>
				<ellipse transform="matrix(0.9639 -0.2664 0.2664 0.9639 -536.2688 85.86959999999999)" fill="#C65E09" cx="681.9" cy="116" rx="6.1" ry="6.4"/>
				<ellipse transform="matrix(0.9638 -0.2665 0.2665 0.9638 -534.6926 83.977)" fill="#C65E09" cx="675.5" cy="109.3" rx="4.4" ry="4.6"/>
				<ellipse transform="matrix(0.9638 -0.2667 0.2667 0.9638 -533.4393 83.57239999999999)" fill="#C65E09" cx="674" cy="104.4" rx="2.1" ry="2.2"/>
			</g>
			<g>
				<ellipse transform="matrix(0.9889 -0.1484 0.1484 0.9889 -544.0646 5.2686999999999955)" fill="#C65E09" cx="698.4" cy="146.9" rx="9.2" ry="9.3"/>
				<ellipse transform="matrix(0.9889 -0.1483 0.1483 0.9889 -545.1808 7.1174000000000035)" fill="#C65E09" cx="710.8" cy="155.4" rx="7.1" ry="7.2"/>
				<ellipse transform="matrix(0.9889 -0.1484 0.1484 0.9889 -546.5029 7.964500000000001)" fill="#C65E09" cx="715.3" cy="164.6" rx="3.9" ry="4"/>
			</g>
			<ellipse transform="matrix(0.7536 -0.6574 0.6574 0.7536 -480.4486 415.56539999999995)" fill="#C65E09" cx="712.4" cy="191.7" rx="5.2" ry="5.7"/>
			<ellipse transform="matrix(0.4651 -0.8852 0.8852 0.4651 -325.1704 637.0155)" fill="#C65E09" cx="712.3" cy="199" rx="3.7" ry="3.6"/>
			<g>
				<ellipse transform="matrix(0.3651 -0.931 0.931 0.3651 -313.5163 570.3825)" fill="#C65E09" cx="599.8" cy="176.5" rx="14.9" ry="14.9"/>
				<ellipse transform="matrix(0.3651 -0.931 0.931 0.3651 -334.4969 550.5181)" fill="#C65E09" cx="574.7" cy="181.9" rx="14.9" ry="14.9"/>
				<ellipse transform="matrix(0.365 -0.931 0.931 0.365 -363.158 524.894)" fill="#C65E09" cx="541.5" cy="190.1" rx="4" ry="4"/>
				<ellipse transform="matrix(0.3653 -0.9309 0.9309 0.3653 -368.7582 518.835)" fill="#C65E09" cx="534.4" cy="191.2" rx="3.1" ry="3.1"/>
				<ellipse transform="matrix(0.3651 -0.931 0.931 0.3651 -347.435 537.6774)" fill="#C65E09" cx="558.8" cy="185" rx="9.3" ry="9.3"/>
				<ellipse transform="matrix(0.3651 -0.931 0.931 0.3651 -361.1859 533.6567)" fill="#C65E09" cx="549" cy="193.1" rx="6.7" ry="6.7"/>
			</g>
			<g>
				<ellipse transform="matrix(0.9949 -0.1009 0.1009 0.9949 -541.9717 -38.6351)" fill="#C65E09" cx="600.4" cy="149" rx="11.5" ry="11.1"/>
				<ellipse transform="matrix(0.9949 -0.1009 0.1009 0.9949 -542.3648 -40.3992)" fill="#C65E09" cx="583" cy="152" rx="9.5" ry="9.1"/>
				<ellipse transform="matrix(0.9949 -0.1009 0.1009 0.9949 -542.537 -41.6999)" fill="#C65E09" cx="569.9" cy="153" rx="7" ry="6.8"/>
				<ellipse transform="matrix(0.9949 -0.101 0.101 0.9949 -543.2128 -42.5758)" fill="#C65E09" cx="560.5" cy="159.2" rx="4.6" ry="4.4"/>
				<ellipse transform="matrix(0.9949 -0.101 0.101 0.9949 -543.2698 -43.3101)" fill="#C65E09" cx="553.3" cy="159.4" rx="3.2" ry="3.1"/>
				<ellipse transform="matrix(0.9949 -0.1009 0.1009 0.9949 -541.945 -36.7216)" fill="#C65E09" cx="619.6" cy="149.7" rx="11.8" ry="11.8"/>
			</g>
			<g>
				<ellipse transform="matrix(0.03960598 -0.9992 0.9992 0.03960598 -122.43950000000001 688.7245)" fill="#C65E09" cx="614.1" cy="182.3" rx="10.8" ry="10.8"/>
				<ellipse transform="matrix(0.0396607 -0.9992 0.9992 0.0396607 -143.1723 695.3417)" fill="#C65E09" cx="607.2" cy="196.4" rx="8.7" ry="8.7"/>
				<ellipse transform="matrix(0.03960536 -0.9992 0.9992 0.03960536 -157.39350000000002 707.3874)" fill="#C65E09" cx="606.3" cy="209.9" rx="5.7" ry="5.7"/>
			</g>
			<g>
				<polygon fill="#C8A6FF" points="81.5,42.2 85.1,63.0 71.4,49.4"/>
				<path fill="#C8A6FF" d="M62.5,54.8c0.0,0.0,1.0,10.8,0.6,15.3l21.6-7.3L62.5,54.8z"/>
			</g>
			<path fill="#A3583A" d="M144.1,95.6l-25.7,5.2C118.4,100.8,140.6,127.0,144.1,95.6z"/>
			<path fill="#FFFFFF" d="M144.1,95.4l-15.4,3.2c0.1,1.2,1.5,4.0,5.1,3.6c0.4,0.0,3.6-1.1,4.0-1.1C144.4,99.9,144.3,96.8,144.1,95.4z"/>
			<g>
				<polygon fill="#964400" points="151.0,51.5 149.4,46.8 141.9,49.6 143.9,54.6"/>
				<polygon fill="#964400" points="110.8,63.2 110.5,58.3 102.5,59.1 103.2,64.4"/>
			</g>
			<g>
				<g>
					<ellipse transform="matrix(0.9761 -0.2174 0.2174 0.9761 -548.4566 48.12729999999999)" fill="#C65E09" cx="664.1" cy="158" rx="6.3" ry="5.6"/>
					<ellipse transform="matrix(0.9614 -0.2751 0.2751 0.9614 -550.246 88.68180000000001)" fill="#C65E09" cx="662.5" cy="166.5" rx="3" ry="3.1"/>
					<ellipse transform="matrix(0.8415 -0.5403 0.5403 0.8415 -505.9573 280.9565)" fill="#C65E09" cx="661.2" cy="149.5" rx="4.7" ry="4.2"/>
					<ellipse transform="matrix(0.9614 -0.2752 0.2752 0.9614 -543.9446 85.9743)" fill="#C65E09" cx="655.7" cy="142.7" rx="5.8" ry="5.2"/>
				</g>
				<ellipse transform="matrix(0.9614 -0.2752 0.2752 0.9614 -543.2038 83.37889999999999)" fill="#C65E09" cx="646.8" cy="138.7" rx="8.1" ry="8.1"/>
			</g>
			<g>
				<ellipse transform="matrix(0.9983 -0.05849896 0.05849896 0.9983 -537.6736 -62.182)" fill="#C65E09" cx="642.1" cy="150" rx="10.3" ry="10.3"/>
				<ellipse transform="matrix(0.9983 -0.05841919 0.05841919 0.9983 -538.421 -62.7481)" fill="#C65E09" cx="632.9" cy="162.7" rx="10.2" ry="10.2"/>
				<ellipse transform="matrix(0.9983 -0.05841296 0.05841296 0.9983 -539.1816 -63.1027)" fill="#C65E09" cx="626.5" cy="175.5" rx="4.9" ry="4.9"/>
				<ellipse transform="matrix(0.9983 -0.05847107 0.05847107 0.9983 -539.8535 -63.262)" fill="#C65E09" cx="622.8" cy="186.7" rx="7.9" ry="7.9"/>
				<ellipse transform="matrix(0.9983 -0.05871922 0.05871922 0.9983 -540.432 -63.2931)" fill="#C65E09" cx="619.4" cy="195.9" rx="5.2" ry="5.2"/>
				<ellipse transform="matrix(0.9983 -0.05847355 0.05847355 0.9983 -540.8387 -63.2456)" fill="#C65E09" cx="622.6" cy="203.6" rx="3.1" ry="3.1"/>
			</g>
			<path fill="#DF986A" d="M167.1,75.7c-0.1-0.2-0.2-0.4-0.3-0.5c-0.1-0.2-1.8-1.6-2.3-1.3c-0.3-0.1-0.6-0.2-1.0-0.2c-3.9,0.0-7.7,0.5-11.6,1.2c-2.7,0.5-7.1,1.7-8.4,4.4c-0.5,1.0,0.0,2.5,1.2,2.5c-0.5,1.5-0.2,3.4,1.1,4.4c3.0,2.4,7.1,1.0,10.4,0.0c4.0-1.1,7.5-2.8,10.6-5.6C168.7,79.2,168.4,77.1,167.1,75.7z"/>
			<path fill="#DF986A" d="M128.6,86.2c-0.5-1.0-1.5-1.7-3.1-1.6c-5.4,0.3-27.2,5.7-19.9,14.6c3.2,3.9,10.3,0.7,13.8-0.8c4.4-1.9,8.0-3.5,10.2-8.1C130.4,88.7,129.8,87.2,128.6,86.2z"/>
		</g>
		<path fill="#DF986A" d="M126.9,133.1c0.4,1.9,2.4,2.0,3.7,1.7l0.0,0.0c1.2-0.3,2.0-2.1,1.6-3.9l-3.3-15.1c-0.4-1.9-1.2-3.0-2.4-2.7l0.0,0.0c-1.2,0.3-2.0,2.1-1.6,3.9L126.9,133.1z"/>
		<g>
			<ellipse transform="matrix(0.957 -0.2899 0.2899 0.957 -571.9535 103.6165)" fill="#A84C09" cx="666.2" cy="243.4" rx="6.6" ry="6.4"/>
			<path fill="#DF986A" d="M171.7,193.5c1.7,0.5,2.6,2.2,2.2,3.9l0.0,0.0c-0.5,1.7-2.2,2.6-3.9,2.2l-21.1-6.2c-1.7-0.5-2.6-2.2-2.2-3.9l0.0,0.0c0.5-1.7,2.2-2.6,3.9-2.2L171.7,193.5z"/>
			<path fill="#DF986A" d="M182.4,156.1c1.7-0.4,3.4,0.6,3.8,2.3l0.0,0.0c0.4,1.7-0.6,3.4-2.3,3.8l-21.4,5.1c-1.7,0.4-3.4-0.6-3.8-2.3l0.0,0.0c-0.4-1.7,0.6-3.4,2.3-3.8L182.4,156.1z"/>
			<path fill="#DF986A" d="M154.4,188.3c1.7,0.5,2.6,2.2,2.2,3.9l0.0,0.0c-0.5,1.7-2.2,2.6-3.9,2.2l-21.1-6.2c-1.7-0.5-2.6-2.2-2.2-3.9l0.0,0.0c0.5-1.7,2.2-2.6,3.9-2.2L154.4,188.3z"/>
			<path fill="#DF986A" d="M164.8,160.2c1.7-0.4,3.4,0.6,3.8,2.3l0.0,0.0c0.4,1.7-0.6,3.4-2.3,3.8l-21.4,5.1c-1.7,0.4-3.4-0.6-3.8-2.3l0.0,0.0c-0.4-1.7,0.6-3.4,2.3-3.8L164.8,160.2z"/>
			<path fill="#DF986A" d="M179.0,128.2c1.7-0.3,2.9-1.9,2.7-3.6l0.0,0.0c-0.3-1.7-1.9-2.9-3.6-2.7l-21.7,3.4c-1.7,0.3-2.9,1.9-2.7,3.6l0.0,0.0c0.3,1.7,1.9,2.9,3.6,2.7L179.0,128.2z"/>
			<path fill="#DF986A" d="M157.8,131.4c1.7-0.3,2.8-2.0,2.5-3.7l0.0,0.0c-0.3-1.7-2.0-2.8-3.7-2.5l-21.6,4.2c-1.7,0.3-2.8,2.0-2.5,3.7l0.0,0.0c0.3,1.7,2.0,2.8,3.7,2.5L157.8,131.4z"/>
			<path fill="#964EE3" d="M179.0,146.3c0.0,3.8,0.2,7.4,0.4,9.5c1.7,2.4,3.4,4.8,5.2,7.1c1.4-0.2,3.2-0.5,5.2-1.3c0.0,0.0,0.0-0.1,0.0-0.2L184.0,138.0C180.7,140.4,179.3,143.2,179.0,146.3z"/>
			<path fill="#B178FF" d="M174.1,183.4c-1.9,3.3-3.4,6.5-4.4,8.5c0.3,2.9,0.6,5.8,1.0,8.8c1.3,0.6,3.1,1.1,5.2,1.4c0.0,0.0,0.1-0.1,0.1-0.2l6.5-23.2C178.5,179.1,176.0,180.9,174.1,183.4z"/>
			<path fill="#964EE3" d="M170.1,177.1c0.0,0.0-35.6,15.0-49.7,16.3c0.0,0.0-5.0-45.4,0.1-65.4c0.0,0.0,10.9-3.3,15.1-3.7C136.1,124.1,165.1,168.4,170.1,177.1z"/>
			<path fill="#DF986A" d="M80.0,134.2c-1.7,0.1-3.1,1.5-3.0,3.3l0.0,0.0c0.1,1.7,1.5,3.1,3.3,3.0l22.0-0.9c1.7-0.1,3.1-1.5,3.0-3.3l0.0,0.0c-0.1-1.7-1.5-3.1-3.3-3.0L80.0,134.2z"/>
			<path fill="#DF986A" d="M101.0,133.4c-1.7,0.2-2.9,1.8-2.7,3.5l0.0,0.0c0.2,1.7,1.8,2.9,3.5,2.7l21.8-3.0c1.7-0.2,2.9-1.8,2.7-3.5l0.0,0.0c-0.2-1.7-1.8-2.9-3.5-2.7L101.0,133.4z"/>
			<path fill="#B178FF" d="M144.4,174.1l-8.6-15.5l-20.2,8.9l6.9,16.0C128.7,188.6,141.9,184.0,144.4,174.1z"/>
			<g>
				<g>
					<path fill="#DF986A" d="M82.7,144.8c-3.4,0.4-5.3-2.5-5.7-6.6c-0.4-4.1,2.0-7.7,5.4-8.1c3.4-0.4,4.1,2.1,4.5,6.2C87.3,140.4,86.1,144.4,82.7,144.8"/>
					<path fill="#DF986A" d="M75.2,143.5c-2.9,1.3-4.3,1.1-4.7,0.4c-0.4-0.8-0.2-2.1,2.6-3.3c2.9-1.2,6.3-1.5,6.6-0.7C80.2,140.6,78.1,142.2,75.2,143.5"/>
					<path fill="#DF986A" d="M78.0,146.8c-2.1,1.7-3.4,1.8-3.8,1.2c-0.5-0.6-0.5-1.9,1.6-3.6c2.1-1.7,4.8-2.5,5.3-1.8C81.5,143.3,80.2,145.1,78.0,146.8"/>
					<path fill="#DF986A" d="M73.6,133.9c-2.9-0.8-3.9-1.8-3.7-2.6c0.2-0.8,1.5-1.9,4.5-1.1c2.9,0.8,5.2,2.8,5.0,3.6C79.1,134.7,76.6,134.7,73.6,133.9"/>
					<path fill="#DF986A" d="M79.3,129.1c-2.1-2.3-1.4-3.7-0.8-4.4c0.6-0.7,1.6-1.3,3.3,1.4c1.8,3.0,3.1,5.2,2.5,5.9C83.7,132.6,81.5,131.3,79.3,129.1"/>
					<path fill="#DF986A" d="M73.7,139.0c-3.0,0.5-4.3,0.0-4.4-0.8c-0.1-0.8,0.3-2.2,3.3-2.7c3.0-0.4,6.1,0.4,6.3,1.2C79.0,137.5,76.7,138.5,73.7,139.0"/>
				</g>
			</g>
			<g>
				<g>
					<path fill="#DF986A" d="M180.8,131.0c3.2-1.2,3.6-4.7,2.1-8.5c-1.5-3.8-5.3-6.0-8.5-4.8c-3.2,1.2-2.6,3.8-1.1,7.6C174.7,129.2,177.6,132.1,180.8,131.0"/>
					<path fill="#DF986A" d="M186.8,126.3c3.1-0.2,4.4-1.0,4.3-1.8c0.0-0.8-0.7-1.9-3.9-1.7c-3.1,0.2-6.2,1.6-6.2,2.4C181.1,126.1,183.7,126.6,186.8,126.3"/>
					<path fill="#DF986A" d="M185.2,131.2c2.7,0.5,3.8,0.1,3.9-0.7c0.1-0.8-0.4-2.0-3.1-2.5c-2.7-0.5-5.4,0.0-5.5,0.8C180.4,129.6,182.5,130.7,185.2,131.2"/>
					<path fill="#DF986A" d="M183.9,117.1c2.3-2.0,2.7-3.4,2.1-4.0c-0.6-0.6-2.2-1.0-4.5,1.1c-2.3,2.1-3.3,4.9-2.8,5.5C179.3,120.3,181.6,119.2,183.9,117.1"/>
					<path fill="#DF986A" d="M176.6,115.4c0.9-3.0-0.4-4.0-1.3-4.3c-0.8-0.3-2.0-0.5-2.3,2.7c-0.3,3.5-0.4,6.1,0.5,6.4C174.3,120.6,175.7,118.4,176.6,115.4"/>
					<path fill="#DF986A" d="M186.2,121.6c2.9-1.0,3.8-2.0,3.6-2.7c-0.2-0.8-1.3-1.8-4.2-0.8c-2.9,1.0-5.3,3.2-5.0,3.9C180.7,122.8,183.3,122.6,186.2,121.6"/>
				</g>
			</g>
		</g>
	</g>
</svg>
