<?xml version='1.0' encoding='UTF-8'?>
<svg xmlns="http://www.w3.org/2000/svg" xmlns:xlink="http://www.w3.org/1999/xlink" width="1054" height="802"><g id="SC1_back">
		<g>
			<g>
				<g>
					<g>
						<g>
							<rect x="0.3" y="17.0" fill="#000063" width="1043.7" height="782"/>
							<path fill="#15156B" d="M403.4,799.0c18.4-3.4,36.8-6.4,55.3-9.1c38.1-5.4,76.1-9.1,114.4-12.2c32.1-2.5,64.0-6.4,95.9-10.6c29.2-4.0,58.4-8.1,87.6-11.8c16.6-2.1,33.3-3.7,49.9-5.8c48.4-6.9,96.6-18.1,142.0-36.5c20.9-9.3,41.1-20.3,59.6-33.8c10.0-8.2,19.3-17.2,27.6-27.1c2.9-4.1,5.7-8.4,8.3-12.8v-48.7c0.0-75.2,0.0-150.4,0.0-225.6c0.0-0.9,0.0-1.9,0.0-2.8c2.1-0.7,4.2-1.7,6.0-3.0V223.0c-13.5-7.7-27.6-14.6-41.6-21.1c-33.7-15.7-68.2-29.9-102.5-44.2c-32.4-13.4-65.2-26.1-99.9-32.1c-68.6-11.8-137.5,0.2-206.3,1.8c-16.8,0.4-33.7,0.0-50.4-1.5c-2.0-0.2-4.0-0.4-6.0-0.6c-0.2,0.0-3.2-0.4-3.9-0.5c-3.5-0.5-7.1-1.1-10.6-1.7c-8.5-1.5-16.8-3.5-25.1-5.8c-31.3-8.6-61.1-22.0-92.2-31.1c-16.4-4.8-33.2-8.0-50.2-9.3c-17.7-1.4-35.5,0.8-52.7,4.8c-16.8,3.9-33.2,9.7-49.7,14.8c-16.8,5.1-33.9,9.0-51.1,12.3c-34.6,6.6-69.6,10.5-104.4,15.7c-30.0,4.5-63.1,7.9-89.5,24.2c-4.9,3.0-9.5,6.6-13.5,10.7V799.0H403.4z"/>
							<path fill="#222280" d="M1023.3,322.5c-5.9-8.6-11.9-17.2-18.2-25.2c-10.1-12.9-21.0-24.4-33.4-32.7c-25.9-17.3-53.3-25.2-81.2-29.1c-3.4-1.6-6.9-3.1-10.4-4.6c-21.8-9.3-43.9-16.1-67.0-19.3c-21.7-19.0-49.9-31.4-77.0-39.2c-47.9-13.8-99.6-14.6-148.1-3.3c-10.9-10.7-22.5-20.7-34.9-29.9c-22.0-16.4-47.4-29.0-74.1-35.3c-32.0-7.6-65.4-6.0-98.0-4.1c-14.0,0.8-28.2,2.2-41.8,5.7c-13.6,3.5-26.4,9.9-38.0,17.6c-11.8,7.8-22.7,17.0-33.7,25.9c-10.0,8.0-20.0,16.0-30.0,24.1c-11.6-2.7-23.6-3.9-35.3-4.4c-28.2-1.2-56.6,1.1-84.6,4.8c-26.6,3.6-54.0,8.4-79.3,17.6c-13.8,5.0-27.8,12.9-38.3,23.6v480.9c12.9,12.8,28.7,23.1,44.4,31.7c25.9,14.3,54.2,24.6,83.2,30.7c59.2,12.6,120.7,8.3,178.5-9.0c29.1-8.7,57.4-20.9,84.2-35.3c2.9-1.5,5.7-3.1,8.5-4.8c10.9,5.1,23.4,7.8,34.7,10.2c21.3,4.6,43.7,7.7,65.4,6.4c19.7-1.2,38.0-6.3,54.1-17.3c38.2,17.4,80.6,26.0,122.2,23.7c30.9-1.7,60.4-9.3,88.7-21.7c27.9-12.2,51.1-31.0,73.9-51.0c5.4-4.8,10.9-9.5,16.5-14.0c0.2-0.2,1.5-1.2,2.3-1.8c1.2-0.9,2.4-1.7,3.5-2.6c3.3-2.4,6.7-4.6,10.1-6.8c12.2-7.8,25.2-14.4,38.2-20.8c26.5-13.1,52.9-25.8,76.1-44.5c23.8-19.2,44.0-47.0,49.6-77.6c2.8-3.9,5.4-7.9,7.7-12.1V352.3C1037.0,341.8,1029.9,332.2,1023.3,322.5z"/>
							<path fill="#2E2E8A" d="M97.8,359.6c7.1-15.8,16.3-29.7,26.9-41.4c39.7-44.1,92.7-60.6,138.3-71.9c73.5-18.1,147.6-32.7,216.8-6.0c37.4,14.4,73.9,15.6,113.9,12.9c50.0-3.4,99.0,3.2,148.1,7.3c38.4,3.2,77.8,7.1,112.4,27.4c25.9,15.2,66.3,52.2,63.5,101.4c0.0,0.0-0.5,8.9-1.3,13.2c-4.2,32.1-15.6,64.5-28.5,91.0c-35.4,73.0-90.2,117.9-140.1,139.8c-58.6,25.7-117.6,28.3-174.5,25.7c-61.5-2.8-122.5-8.5-181.5-25.8c-30.5-8.9-60.6-20.0-90.5-32.0c-29.9-12.0-58.6-29.3-87.8-43.7c-49.0-24.2-154.8-55.7-125.4-170.2C90.6,377.5,93.9,368.3,97.8,359.6z"/>
							<g>
								<path fill="#2E2E8A" d="M1023.8,467.8c-3.2-8.1-20.0-8.4-24.6-1.4C994.4,473.8,1026.6,474.9,1023.8,467.8C1021.8,462.7,1024.5,469.6,1023.8,467.8z"/>
								<path fill="#2E2E8A" d="M104.2,667.4c-3.2-8.1-20.0-8.4-24.6-1.4C74.8,673.3,106.9,674.5,104.2,667.4C102.2,662.3,104.9,669.2,104.2,667.4z"/>
								<path fill="#2E2E8A" d="M288.4,654.2c-3.2-8.1-20.0-8.4-24.6-1.4C259.0,660.2,291.2,661.3,288.4,654.2C286.4,649.1,289.1,656.0,288.4,654.2z"/>
								<path fill="#2E2E8A" d="M281.2,675.5c-0.1-0.5-0.3-1.1-0.8-1.7c-0.8-1.1-2.1-1.8-3.5-2.1c-1.0-0.4-2.1-0.7-3.2-0.9c-3.9-1.0-8.4-0.6-12.0,0.7c-0.3,0.1-0.6,0.2-0.9,0.3c-2.1,0.8-4.4,2.1-5.1,4.4c-1.1,1.9-1.2,4.0,0.9,5.9c1.7,1.5,4.4,2.1,7.0,2.0c0.3,0.1,0.6,0.1,0.8,0.2c3.2,0.6,6.8,0.0,9.9-0.8c2.5-0.6,5.2-1.6,6.7-3.7C282.2,678.4,282.0,676.8,281.2,675.5z"/>
								<path fill="#2E2E8A" d="M243.3,652.6c1.4,1.5,7.6,2.3,7.2-1.0C250.0,647.7,241.0,650.1,243.3,652.6C244.8,654.3,242.6,651.9,243.3,652.6z"/>
								<path fill="#2E2E8A" d="M373.9,653.2c1.1,1.2,6.1,1.9,5.8-0.8C379.3,649.3,372.0,651.2,373.9,653.2C375.1,654.6,373.3,652.7,373.9,653.2z"/>
								<path fill="#2E2E8A" d="M953.6,471.0c3.1,2.8,15.8,3.0,14.2-3.7C966.1,459.7,948.4,466.4,953.6,471.0C957.1,474.1,952.1,469.7,953.6,471.0z"/>
								<path fill="#2E2E8A" d="M99.1,229.3c6.1,4.7,33.3,7.2,31.7-3.2C128.8,214.3,88.8,221.4,99.1,229.3C105.9,234.6,96.1,227.1,99.1,229.3z"/>
								<path fill="#2E2E8A" d="M207.1,648.8c1.8,2.3,10.1,3.6,9.6-1.6C216.1,641.3,204.0,644.9,207.1,648.8C209.1,651.4,206.2,647.7,207.1,648.8z"/>
								<path fill="#2E2E8A" d="M156.0,674.9c2.1,2.2,11.4,3.4,10.8-1.5C166.2,667.7,152.5,671.1,156.0,674.9C158.3,677.4,155.0,673.8,156.0,674.9z"/>
								<path fill="#2E2E8A" d="M147.8,654.8c-0.3,0.0-0.6,0.0-0.8,0.0c-1.5-0.7-3.3-0.7-4.9-0.1c-0.3,0.1-0.5,0.3-0.6,0.5c-0.8,0.4-0.8,1.9,0.0,2.3c0.5,0.2,0.9,0.3,1.4,0.4c1.7,0.4,3.5,0.3,5.2-0.4c0.3-0.1,0.5-0.4,0.6-0.7C149.5,656.1,148.8,654.8,147.8,654.8z"/>
								<path fill="#2E2E8A" d="M74.1,306.3c-0.3,0.0-0.6,0.0-0.8,0.0c-1.5-0.7-3.3-0.7-4.9-0.1c-0.3,0.1-0.5,0.3-0.6,0.5c-0.8,0.4-0.8,1.9,0.0,2.3c0.5,0.2,0.9,0.3,1.4,0.4c1.7,0.4,3.5,0.3,5.2-0.4c0.3-0.1,0.5-0.4,0.6-0.7C75.8,307.7,75.1,306.4,74.1,306.3z"/>
								<path fill="#2E2E8A" d="M931.8,489.6c-2.6-5.1-15.0-5.7-13.6,0.9C919.2,495.2,933.9,493.8,931.8,489.6C930.2,486.6,932.4,490.9,931.8,489.6z"/>
								<path fill="#2E2E8A" d="M132.0,270.8c-0.1-0.3-0.3-0.6-0.5-0.9c-0.6-0.6-1.3-0.8-2.2-1.0c-0.6-0.2-1.2-0.2-1.9-0.3c-2.3-0.3-4.8,0.3-6.8,1.3c-0.2,0.1-0.3,0.2-0.5,0.3c-1.1,0.6-2.4,1.5-2.6,2.9c-0.5,1.2-0.4,2.4,1.0,3.3c1.1,0.8,2.7,0.9,4.1,0.6c0.2,0.0,0.3,0.0,0.5,0.0c1.9,0.1,3.9-0.5,5.6-1.2c1.4-0.5,2.8-1.3,3.6-2.6C132.8,272.4,132.6,271.5,132.0,270.8z"/>
								<path fill="#2E2E8A" d="M348.8,662.2c0.0-0.4-0.2-0.8-0.5-1.2c-0.5-0.8-1.4-1.3-2.4-1.7c-0.7-0.4-1.4-0.6-2.2-0.8c-2.8-0.9-5.9-0.8-8.6,0.0c-0.2,0.1-0.5,0.1-0.7,0.2c-1.5,0.4-3.2,1.3-3.8,2.9c-0.9,1.3-1.0,2.8,0.4,4.3c1.1,1.2,3.0,1.7,4.9,1.7c0.2,0.1,0.4,0.1,0.6,0.2c2.2,0.5,4.8,0.3,7.1-0.1c1.8-0.3,3.8-0.9,5.0-2.3C349.4,664.3,349.3,663.2,348.8,662.2z"/>
								<path fill="#2E2E8A" d="M932.1,520.5c-2.5-3.2-9.5-2.2-12.6-0.5c-1.9,1.0-2.4,3.4-0.2,4.4c2.9,1.4,5.4,1.0,8.2,1.0c2.3,0.0,3.6-0.7,4.8-2.3C933.0,522.4,932.7,521.3,932.1,520.5z"/>
								<path fill="#2E2E8A" d="M111.2,267.2c-2.5-3.2-9.5-2.2-12.6-0.5c-1.9,1.0-2.4,3.4-0.2,4.4c2.9,1.4,5.4,1.0,8.2,1.0c2.3,0.0,3.6-0.7,4.8-2.3C112.1,269.1,111.8,267.9,111.2,267.2z"/>
							</g>
							<g>
								<path fill="#2E2E8A" d="M814.0,644.5c-2.1-6.3-13.3-6.5-16.4-1.1C794.4,649.1,815.8,650.0,814.0,644.5C812.6,640.5,814.4,645.9,814.0,644.5z"/>
								<path fill="#2E2E8A" d="M776.8,660.6c2.1,2.3,11.4,3.5,10.8-1.6C787.0,653.2,773.3,656.7,776.8,660.6C779.2,663.1,775.8,659.4,776.8,660.6z"/>
								<path fill="#2E2E8A" d="M683.8,612.3c-3.2-6.4-18.6-7.1-16.8,1.1C668.3,619.1,686.5,617.4,683.8,612.3C681.9,608.5,684.6,613.8,683.8,612.3z"/>
								<path fill="#2E2E8A" d="M167.4,541.4c3.0,2.6,14.9,2.9,13.5-3.5C179.3,530.7,162.4,537.0,167.4,541.4C170.8,544.3,166.0,540.2,167.4,541.4z"/>
							</g>
							<g>
								<path fill="#3737A6" d="M733.8,355.0c-0.3,0.0-0.6,0.0-0.9,0.0c-1.6-0.7-3.5-0.8-5.1-0.1c-0.3,0.1-0.5,0.3-0.6,0.5c-0.9,0.4-0.9,2.0,0.0,2.4c0.5,0.2,1.0,0.4,1.5,0.5c1.8,0.5,3.7,0.3,5.4-0.5c0.3-0.1,0.5-0.4,0.6-0.7C735.6,356.4,734.8,355.0,733.8,355.0z"/>
								<path fill="#3737A6" d="M695.5,367.0c-3.0-5.9-17.3-6.6-15.7,1.0C681.0,373.4,697.9,371.8,695.5,367.0C693.7,363.5,696.2,368.4,695.5,367.0z"/>
								<path fill="#3737A6" d="M747.9,362.3c-0.1-0.2-0.2-0.4-0.4-0.7c-0.4-0.4-1.0-0.6-1.6-0.7c-0.4-0.1-0.9-0.2-1.4-0.2c-1.7-0.2-3.5,0.2-5.0,0.9c-0.1,0.1-0.3,0.1-0.4,0.2c-0.8,0.4-1.7,1.1-1.9,2.1c-0.4,0.8-0.3,1.8,0.7,2.4c0.8,0.5,1.9,0.6,3.0,0.5c0.1,0.0,0.2,0.0,0.4,0.0c1.4,0.1,2.8-0.3,4.1-0.9c1.0-0.4,2.1-0.9,2.6-1.9C748.5,363.4,748.3,362.8,747.9,362.3z"/>
								<path fill="#3737A6" d="M630.3,289.3c-0.1-0.3-0.3-0.7-0.6-1.0c-0.6-0.7-1.5-1.0-2.5-1.1c-0.7-0.2-1.4-0.3-2.2-0.3c-2.7-0.3-5.6,0.3-7.8,1.5c-0.2,0.1-0.4,0.2-0.6,0.3c-1.3,0.7-2.7,1.8-3.0,3.3c-0.6,1.3-0.5,2.8,1.1,3.8c1.3,0.9,3.1,1.0,4.7,0.7c0.2,0.0,0.4,0.0,0.6,0.0c2.2,0.1,4.4-0.5,6.4-1.3c1.6-0.6,3.3-1.5,4.1-3.0C631.3,291.1,631.0,290.1,630.3,289.3z"/>
								<path fill="#3737A6" d="M537.1,324.2c2.1,2.7,11.6,4.1,11.0-1.8C547.5,315.5,533.5,319.6,537.1,324.2C539.5,327.2,536.1,322.9,537.1,324.2z"/>
								<path fill="#3737A6" d="M562.3,343.0c7.0,5.4,38.4,8.3,36.5-3.7C596.5,325.7,550.4,333.9,562.3,343.0C570.1,349.0,558.9,340.4,562.3,343.0z"/>
								<path fill="#3737A6" d="M789.9,443.3c7.0,5.4,38.4,8.3,36.5-3.7C824.1,426.0,778.0,434.2,789.9,443.3C797.8,449.3,786.5,440.7,789.9,443.3z"/>
								<path fill="#3737A6" d="M567.8,295.3c1.6,1.8,8.7,2.7,8.3-1.2C575.6,289.6,565.1,292.3,567.8,295.3C569.6,297.2,567.0,294.4,567.8,295.3z"/>
								<path fill="#3737A6" d="M880.4,389.4c-0.3,0.0-0.7,0.0-1.0,0.0c-1.8-0.8-3.8-0.8-5.6-0.1c-0.3,0.1-0.5,0.3-0.7,0.5c-0.9,0.5-1.0,2.2,0.1,2.6c0.5,0.2,1.1,0.4,1.6,0.5c2.0,0.5,4.1,0.3,5.9-0.5c0.4-0.2,0.6-0.4,0.7-0.8C882.4,390.9,881.5,389.4,880.4,389.4z"/>
								<path fill="#3737A6" d="M441.2,347.9c3.6,3.2,18.1,3.5,16.4-4.3C455.6,334.8,435.1,342.5,441.2,347.9C445.2,351.5,439.4,346.4,441.2,347.9z"/>
							</g>
							<path fill="#3737A6" d="M217.8,501.1c-1.1-8.4-15.1-7.5-20.9-6.2c-1.8,0.4-2.9,2.1-2.9,3.9c-0.1,2.8,0.8,7.2,4.0,8.1c1.2,0.3,2.4,0.4,3.7,0.5C208.2,508.9,218.9,509.5,217.8,501.1z"/>
							<path fill="#3737A6" d="M195.1,483.8c-3.6-2.6-7.9-3.3-12.2-2.5c-2.3,0.4-3.2,3.0-2.8,4.9l0.0,0.1c-0.2,1.1,0.0,2.3,0.7,3.2c0.6,1.9,3.0,2.9,4.8,2.4c0.1,0.0,0.2-0.1,0.3-0.1c2.8,0.6,5.6,0.4,8.3-0.7C197.4,489.7,198.1,485.9,195.1,483.8z"/>
							<path fill="#3737A6" d="M453.0,562.7c-3.9-4.1-9.0-5.9-14.6-6.5c-6.2-0.7-12.3-0.4-18.5,0.5c-4.9,0.7-10.5,2.5-11.7,7.9c0.0,0.1,0.0,0.2-0.1,0.4c-0.4,1.4-0.2,2.9,0.7,3.9c1.6,2.7,5.3,4.3,8.0,5.4c6.5,2.6,13.2,3.8,20.2,3.7c1.7,0.0,2.9-0.9,3.4-2.1c3.7-0.4,7.3-1.4,10.7-2.6C455.7,571.6,456.1,566.0,453.0,562.7z"/>
							<path fill="#3737A6" d="M433.7,532.9c0.0-0.4,0.0-0.8-0.1-1.2c-0.7-3.9-6.0-4.6-9.0-5.0c-4.1-0.5-8.3,0.7-11.9,2.5c-2.7,1.3-2.5,5.5,0.0,6.9c3.1,1.8,6.6,2.8,10.1,2.9c1.9,0.5,3.7,0.8,5.5,0.5c1.8-0.3,3.3-1.2,4.2-2.4C433.8,536.1,434.2,534.4,433.7,532.9z"/>
							<path fill="#3737A6" d="M684.0,530.9c-0.8-3.9-4.3-6.0-7.8-7.0c-8.1-2.4-17.7-0.2-20.7,8.4c-1.0,2.9-0.6,4.9,0.7,6.3c0.2,1.8,1.5,3.4,3.8,3.4c3.1,0.0,6.1-0.4,9.1-1.0c3.2,0.0,6.6-0.9,9.6-2.2C681.9,537.5,684.7,534.7,684.0,530.9z"/>
							<path fill="#3737A6" d="M198.1,355.9c-1.0-0.6-2.0-1.0-3.0-1.3c-2.1-1.5-4.4-2.0-7.0-1.2c-0.5,0.1-0.9,0.4-1.3,0.6c-0.3,0.0-0.5,0.1-0.8,0.1c-0.4,0.1-0.7,0.2-1.0,0.3c-0.2-0.1-0.5-0.2-0.7-0.3c-2.0-0.9-4.3-0.6-5.5,1.4c-1.0,1.7-0.6,4.6,1.4,5.5c5.5,2.4,11.0,3.1,16.9,2.2C200.6,362.6,200.8,357.4,198.1,355.9z"/>
						</g>
					</g>
					<g>
						<g>
							<path fill="#475278" d="M1050.0,612.4c-0.3-0.5-0.8-0.9-1.2-1.3c-22.7-19.8-49.1-35.4-77.6-42.9c0.2-0.8,0.2-1.6,0.0-2.4c-1.3-7.2-2.5-14.6-5.1-21.5c-3.6-9.7-18.5-3.9-14.9,5.8c1.8,4.8,2.7,9.8,3.6,14.8c-12.6-1.8-25.6-2.0-38.8-0.2c-10.2,1.4-8.4,17.3,1.8,15.9c3.1-0.4,6.1-0.7,9.1-0.9c-1.5,3.9,0.4,8.4,4.3,10.1c4.0,1.8,8.8-0.1,10.5-4.1l1.6-3.7c0.3-0.7,0.5-1.5,0.6-2.2c35.3,2.7,67.6,20.0,94.6,43.7c4.1,3.6,8.9,1.8,11.3-1.7V612.4z"/>
							<g>
								<path fill="#3F4461" d="M978.2,570.2c-3.6,4.2-6.8,8.9-9.5,13.9c4.2,1.1,8.4,2.5,12.5,4.0c2.8-4.9,6.2-9.5,10.1-13.2C987.0,573.2,982.6,571.6,978.2,570.2z"/>
								<path fill="#3F4461" d="M941.6,586.1c0.1-0.1,0.1-0.3,0.2-0.4l1.6-3.7c0.3-0.7,0.5-1.5,0.6-2.2c3.2,0.2,6.4,0.6,9.6,1.1c-1.2-5.5-2.2-11.0-3.2-16.6c-4.3-0.5-8.7-0.8-13.1-0.9C938.8,571.0,939.9,578.6,941.6,586.1z"/>
								<path fill="#3F4461" d="M917.9,580.5c2.9-0.4,5.8-0.7,8.8-0.9c1.7-5.4,3.5-10.8,5.4-16.2c-4.6,0.1-9.3,0.4-14.0,1.0c-1.7,5.1-3.4,10.2-4.9,15.3C914.5,580.5,916.1,580.8,917.9,580.5z"/>
							</g>
						</g>
						<g>
							<path fill="#3C4666" d="M384.9,106.0c-23.4-31.4-58.7-49.2-96.8-55.7c-4.3-0.7-8.6,1.1-9.8,5.6c-1.1,3.9,1.3,9.1,5.6,9.8c33.6,5.7,66.4,20.4,87.2,48.3c2.6,3.5,6.9,5.3,10.9,2.9C385.5,114.9,387.5,109.5,384.9,106.0z"/>
							<g>
								<path fill="#434F73" d="M364.9,84.6c-3.3-2.8-6.7-5.4-10.2-7.9c-3.3,4.0-6.3,8.4-9.0,13.0c3.6,2.5,7.1,5.2,10.4,8.1C358.6,93.1,361.5,88.7,364.9,84.6z"/>
								<path fill="#434F73" d="M329.3,80.0c4.0,2.0,7.8,4.1,11.6,6.4c3.4-4.0,6.7-8.2,9.9-12.4c-3.6-2.4-7.4-4.6-11.2-6.6C336.2,71.7,332.8,75.9,329.3,80.0z"/>
								<path fill="#434F73" d="M380.0,99.8c-2.8-3.4-5.8-6.6-9.0-9.6c-4.5,2.9-8.8,6.1-12.6,9.7c3.1,2.9,6.1,6.0,8.8,9.3C371.1,105.7,375.4,102.5,380.0,99.8z"/>
							</g>
						</g>
						<g>
							<g>
								<path fill="#316C8F" d="M105.7,670.8c-33.5,23.5-68.8,38.2-105.4,52.1v22.8c0.1,0.0,0.2,0.0,0.3-0.1c2.7-0.3,5.1,0.1,7.8,0.6c1.7-0.2,3.4-0.5,5.0-0.7c1.0-0.7,2.1-1.3,3.3-1.6c1.2-0.4,2.4-0.5,3.7-0.4c1.1,0.1,2.2,0.4,3.3,0.0c0.7-0.3,1.3-0.3,1.9-0.2c6.4-1.3,12.7-2.8,18.9-4.4c12.6-3.2,25.0-7.4,36.5-13.6c1.5-2.0,2.7-4.1,5.1-5.4c1.2-0.7,2.4-1.2,3.6-1.9c1.3-0.8,2.2-2.0,3.4-2.9c1.6-1.2,3.2-2.0,5.1-2.7c1.3-0.5,2.4-1.1,3.5-1.8c7.8-7.0,14.9-14.9,21.8-22.9c6.3-7.3,12.2-14.6,17.0-23.0c0.7-1.1,1.3-2.3,1.9-3.5c0.2-1.4,0.7-2.7,1.7-3.6c0.1-0.3,0.3-0.7,0.4-1.0C130.4,657.5,117.1,662.6,105.7,670.8z"/>
								<path fill="#3171B2" d="M18.3,740.9c6.4-7.2,10.7-18.0,6.1-27.3c-0.9-1.9-3.5-0.3-2.6,1.5c4.3,8.5,0.7,17.6-4.9,24.6C16.2,740.7,17.4,741.9,18.3,740.9z"/>
								<path fill="#3171B2" d="M48.1,732.6c5.1-4.1,7.7-10.6,10.9-16.1c3.3-5.7,4.0-11.7,1.5-18.0c-0.8-2.0-3.2-0.4-2.6,1.4c0.8,2.4,1.3,4.8,1.5,7.3c0.2,3.4-1.5,6.4-3.0,9.3c-2.7,5.0-4.8,10.7-9.3,14.4C46.2,731.7,47.0,733.5,48.1,732.6z"/>
								<g>
									<path fill="#3171B2" d="M100.1,676.6c0.0,0.0,0.1,0.1,0.1,0.1C100.1,676.7,100.1,676.6,100.1,676.6z"/>
									<path fill="#3171B2" d="M87.7,712.1c5.8-6.0,11.7-12.3,14.6-20.3c1.1-3.0,1.5-6.2,1.5-9.5c-0.1-2.5,0.1-5.6-1.2-7.8c-0.2-0.3-0.7-0.6-1.0-0.6c-0.2,0.0-0.4,0.0-0.6,0.0c-1.2,0.1-1.6,1.8-0.9,2.6c-0.1-0.2,0.1-0.1,0.2,0.2c0.2,0.5,0.2,1.1,0.3,1.7c0.2,1.4,0.3,2.8,0.3,4.1c0.1,3.0-0.4,5.9-1.3,8.7c-2.5,7.4-8.1,13.4-13.3,18.9C85.1,711.3,86.5,713.3,87.7,712.1z"/>
								</g>
								<path fill="#3153B2" d="M169.5,649.1c-1.3-5.4-7.4-3.7-11.1-2.3c-2.3,0.9-4.6,1.9-7.0,2.8c-1.7,0.7-3.4,1.5-5.1,2.3c-1.2,0.5-2.4,0.8-3.6,1.2c-3.4,0.2-6.9,0.3-10.3,0.0c-4.2-0.5-8.2-2.0-12.4-2.5c-8.7-1.0-17.5-1.0-26.2-0.4c-11.6,0.8-23.2,2.5-34.6,4.6c-1.7,0.5-3.4,1.1-5.1,1.7c-15.2,5.4-29.3,13.1-42.3,22.3c-0.7,1.1-1.6,1.8-2.9,2.1c-0.8,2.4-2.9,4.3-5.6,4.5c-0.1,0.0-0.3,0.0-0.4,0.0c-0.9,0.7-1.7,1.4-2.6,2.1v36.5c36.8-14.1,72.2-28.8,106.0-52.2c11.2-7.8,24.0-12.9,37.4-14.2c0.5-0.6,1.2-1.1,2.1-1.4c0.1,0.0,0.2-0.1,0.4-0.1c2.9-1.1,5.9-2.0,8.9-2.6c4.0-1.2,8.1-2.0,12.4-1.5C169.1,652.3,169.9,650.5,169.5,649.1zM47.2,673.2c-0.5,1.8-2.3,2.8-4.1,2.3c-0.6-0.2-1.2-0.3-1.8-0.5c-0.1,0.0-0.4-0.1-0.5-0.1c-0.1,0.0-0.1,0.0-0.2,0.0c-1.8,0.0-3.3-1.5-3.3-3.3c0.0-1.8,1.5-3.3,3.3-3.3c1.4,0.0,2.8,0.4,4.2,0.8C46.6,669.6,47.7,671.5,47.2,673.2z"/>
								<path fill="#2649B2" d="M143.2,655.9c-1.9-0.3-4.2,0.8-5.9,1.4c-3.7,1.2-7.6,2.0-11.4,3.2c-7.7,2.4-14.9,6.6-21.9,10.5c-0.7,0.4-1.4,0.8-2.2,1.2c-0.6-1.6-2.5-2.8-3.8-3.8c-2.1-1.6-4.4-3.0-6.7-4.3c-6.5-3.7-15.4-5.3-22.6-2.3c-1.0,0.4-0.8,2.2,0.4,1.7c6.8-2.5,15.0-0.3,21.0,3.2c1.7,1.0,3.3,2.2,4.8,3.3c1.2,0.9,3.6,2.2,4.2,3.7c-12.8,7.5-25.3,15.6-38.9,21.7c-0.3,0.1-0.5,0.2-0.8,0.4c0.2-1.9-2.7-4.8-3.9-6.1c-2.3-2.6-5.1-5.1-8.3-6.6c-6.9-3.3-14.5-5.5-22.2-3.7c-1.0,0.2-0.8,1.8,0.3,1.6c8.3-1.6,18.3,1.9,24.5,7.3c2.3,2.0,4.2,4.2,6.0,6.7c0.3,0.4,0.9,1.2,1.6,1.7c-6.6,2.9-13.4,5.5-20.1,8.4c-4.3,1.9-8.6,3.8-12.9,5.8c0.0-0.1,0.0-0.2-0.1-0.3c-0.9-2.1-3.4-4.4-5.2-5.6c-2.6-1.8-5.7-2.8-8.6-3.9c-3.1-1.2-6.8-2.4-10.4-2.5v2.1c3.9,0.4,7.9,2.1,11.2,3.6c2.7,1.3,6.0,2.5,8.0,4.8c0.6,0.7,1.4,2.2,2.3,3.1c-2.4,1.1-4.8,2.2-7.2,3.3c-4.7,2.1-9.4,3.9-14.2,5.8v3.0c2.2-0.8,4.5-1.7,6.7-2.5c7.8-3.1,15.4-6.6,22.9-10.2c15.1-7.0,30.9-12.5,45.6-20.5c14.7-8.0,28.5-17.6,43.7-24.7c4.8-2.2,9.7-3.6,14.8-4.9c1.6-0.4,3.3-0.9,4.9-1.4c1.2-0.4,2.8-1.2,4.0-1.0c0.4-0.8,0.9-1.4,1.5-2.0C144.3,656.5,143.9,656.0,143.2,655.9z"/>
								<path fill="#3179B2" d="M36.2,736.1c0.0,0.0,0.1,0.1,0.1,0.1c0.4,0.5,1.1,0.8,1.7,0.4c0.2-0.1,0.4-0.2,0.5-0.4c1.1-0.4,2.1-1.3,2.7-2.5c0.9-1.1,1.4-2.3,1.5-3.7c0.0-0.9-0.5-1.9-1.6-1.7c-2.4,0.4-5.5,3.3-5.7,5.8C35.2,735.1,35.6,735.8,36.2,736.1z"/>
								<path fill="#3179B2" d="M44.5,724.6c0.8-0.4,1.3-1.1,1.6-2.0c0.2-0.6-0.1-1.3-0.7-1.6c-0.7-0.4-1.4,0.1-1.7,0.7c0.0,0.1-0.1,0.1-0.1,0.2c-0.6,0.4-0.9,1.1-0.7,1.8C43.1,724.4,43.8,724.9,44.5,724.6z"/>
								<path fill="#3179B2" d="M33.4,719.5c1.0-0.1,1.6-0.6,2.2-1.4c0.3-0.5,0.3-1.1-0.1-1.6c-0.4-0.4-0.9-0.5-1.4-0.2c0.2-0.1-0.4,0.2-0.5,0.2c0.0,0.0-0.1,0.0-0.1,0.0c-0.1,0.1-0.2,0.1-0.3,0.2c-0.3,0.2-0.5,0.4-0.7,0.6c-0.4,0.3-0.5,1.0-0.3,1.5C32.5,719.4,32.9,719.5,33.4,719.5z"/>
								<path fill="#3179B2" d="M64.1,704.4c0.7,1.4,2.4,1.8,3.9,1.6c2.1-0.3,3.6-2.0,4.1-3.9c0.3-1.1-0.8-1.9-1.6-1.5c-0.4-0.6-1.0-0.8-1.7-0.8c-0.2,0.0-0.3-0.1-0.5-0.1c-0.8-0.1-1.8,0.2-2.5,0.7c-0.4,0.3-0.8,0.7-1.0,1.2C64.0,702.2,63.6,703.3,64.1,704.4z"/>
								<path fill="#3179B2" d="M102.5,705.3c0.8,0.1,1.4-0.1,2.1-0.6c0.7-0.5,1.0-1.5,1.0-2.3c0.0-0.6-0.3-1.1-0.9-1.3c-0.6-0.1-1.2,0.2-1.4,0.7c-0.1,0.1-0.1,0.3-0.2,0.4c0.0,0.1,0.0,0.1-0.1,0.2c0.0,0.0-0.1,0.0-0.2,0.1c0.0,0.0-0.2,0.0-0.2,0.0c-0.5,0.0-0.8,0.3-1.0,0.7C101.0,704.2,101.5,705.2,102.5,705.3z"/>
								<path fill="#2649B2" d="M48.9,666.5c0.5,0.1,0.9,0.0,1.4-0.1c0.1-0.1,0.3-0.1,0.4-0.2c0.4-0.1,0.8-0.5,1.0-0.8c0.8-1.1,0.1-2.4-0.7-3.3c-1.2-1.3-2.8-0.6-3.9,0.3c-0.6,0.6-0.7,1.4-0.3,2.1C47.2,665.4,47.9,666.2,48.9,666.5z"/>
								<path fill="#2649B2" d="M80.5,677.2c0.6,0.5,1.3,0.5,2.0,0.4c1.3,0.1,2.6-0.1,3.7-0.2c1.7-0.3,3.5-1.2,3.7-3.1c0.4-3.3-4.0-5.2-6.6-5.6c-3.2-0.5-7.7,2.1-6.4,5.9C77.3,675.9,78.8,676.8,80.5,677.2z"/>
								<path fill="#2649B2" d="M103.4,659.2c0.3,0.5,0.7,0.9,1.1,1.1c0.1,0.1,0.2,0.3,0.2,0.4c0.7,1.2,2.0,2.1,3.4,1.5c1.9-0.8,2.0-2.6,1.3-4.2c0.0,0.0,0.0,0.0,0.0-0.1c0.1-0.4-0.1-0.7-0.4-0.8c0.0,0.0,0.0,0.0,0.0,0.0c0.0-0.3,0.0-0.6-0.1-0.9c-0.7-1.6-2.5-1.7-4.0-1.3c-0.3,0.1-0.5,0.3-0.6,0.6C103.1,656.4,102.8,658.0,103.4,659.2z"/>
							</g>
						</g>
						<g>
							<g>
								<path fill="#265994" d="M113.3,379.6c-0.2-0.1-0.4-0.2-0.5-0.3c-0.2-0.1-0.5-0.2-0.7-0.3c-0.3-0.2-0.6-0.4-1.0-0.6c-5.0-3.1-9.1-7.2-13.6-10.9c-0.7-0.6-1.3-1.1-2.0-1.7c-1.7-1.2-3.4-2.3-5.3-3.1c-2.3-1.0-4.5-1.8-6.2-3.7c-1.6-1.8-2.1-4.0-2.5-6.4c-0.1-0.7-4.1-2.7-5.0-3.5c-2.0-1.9-3.3-4.0-4.6-6.3c-1.2-1.1-2.5-2.3-3.8-3.4c-1.2-0.4-2.3-0.8-3.4-1.4c-1.1-0.7-1.9-1.6-2.6-2.6c-0.6-0.9-1.1-2.0-2.1-2.5c-0.7-0.3-1.1-0.8-1.4-1.3c-5.1-4.0-10.3-7.9-15.5-11.6c-10.6-7.6-21.8-14.4-33.9-19.1c-2.5,0.2-4.9,0.6-7.4-0.4c-0.5-0.2-1.0-0.4-1.5-0.6v34.3c24.0,10.4,46.7,23.0,69.8,35.9c12.9,7.6,27.1,9.4,41.4,10.5c0.2,0.0,0.3,0.0,0.5,0.0c0.6,0.0,1.2,0.1,1.7,0.1C113.8,380.2,113.6,379.9,113.3,379.6z"/>
								<path fill="#2962A1" d="M82.0,359.0c-5.8,0.0-14.4,2.3-16.8,8.1c-0.8,1.8,2.2,2.0,2.9,0.5c2.1-5.1,9.2-6.2,14.1-6.9C83.2,360.6,83.1,359.0,82.0,359.0z"/>
								<path fill="#2962A1" d="M61.4,338.5c-9.7-0.3-20.6,3.4-24.8,12.9c-0.9,2.0,2.1,2.8,2.8,1.1c3.7-8.8,13.0-11.8,21.9-12.1C62.6,340.3,62.8,338.6,61.4,338.5z"/>
								<path fill="#2962A1" d="M35.9,321.1c-6.4-1.3-13.0,1.0-19.3,2.1c-6.5,1.2-11.5,4.5-14.7,10.4c-1.0,1.9,1.8,2.7,2.8,1.1c1.3-2.2,2.8-4.1,4.6-5.9c2.4-2.3,5.8-3.0,9.0-3.7c5.6-1.1,11.3-3.2,17.0-2.2C36.5,323.2,37.3,321.4,35.9,321.1z"/>
								<path fill="#2944A1" d="M113.4,379.8c-14.8-1.2-29.4-3.1-42.8-10.9c-23.3-13.0-46.1-25.6-70.4-36.1v44.9c5.9,2.2,11.9,4.1,18.0,5.7c1.2-0.2,2.4,0.0,3.5,0.9c2.3-0.9,5.1-0.6,7.1,1.4c0.1,0.1,0.2,0.2,0.3,0.3c11.7,2.4,23.7,3.9,35.6,4.5c6.2,0.3,12.0-0.2,17.9-1.2c2.5-0.7,5.1-1.3,7.7-1.8c4.1-1.7,8.5-3.1,12.8-4.1c0.7-0.3,1.4-0.5,2.1-0.5c0.6-0.2,1.2-0.4,1.8-0.6c2.1-1.6,4.5-2.6,6.5-1.2c0.0,0.0,0.0-0.1,0.1-0.1C113.9,380.5,113.8,380.1,113.4,379.8z"/>
								<path fill="#293AA1" d="M112.0,379.0c-0.4-0.2-0.7-0.4-1.0-0.7c-4.1-0.3-8.5,0.4-12.4-0.1c-3.8-0.5-7.6-0.9-11.3-2.0c-4.0-1.2-7.9-3.3-11.7-5.0c-7.5-3.4-14.4-7.8-21.6-11.6c-7.4-4.0-15.0-7.5-22.6-11.0C20.9,343.7,10.8,338.0,0.3,333.0v3.0c0.0,0.0,0.1,0.0,0.1,0.1c-0.1,0.0-0.1,0.1-0.1,0.1v22.9c2.0,5.4,4.9,10.3,9.7,13.9c0.8,0.6,1.9-0.5,1.1-1.2c-6.5-5.3-10.3-15.3-10.2-23.5c0.1-3.0,0.5-5.9,1.3-8.9c0.1-0.5,0.3-1.5,0.3-2.3c6.5,3.2,12.9,6.7,19.3,10.0c4.2,2.1,8.5,4.1,12.8,6.1c-0.1,0.1-0.1,0.2-0.2,0.3c-1.1,2.1-1.2,5.4-0.9,7.6c0.3,3.1,1.5,6.2,2.5,9.1c1.8,5.0,4.4,11.2,9.7,13.4c0.8,0.4,1.8-0.9,0.9-1.4c-5.1-2.8-7.2-9.6-8.6-14.8c-0.8-2.9-2.0-6.2-1.5-9.2c0.1-1.0,0.8-2.5,0.9-3.7c2.4,1.1,4.8,2.3,7.2,3.4c7.3,3.6,14.3,7.7,21.6,11.5c-1.2,4.9,1.1,11.5,4.6,15.2c0.6,0.6,1.9,0.1,1.5-0.8c-1.9-3.8-4.0-8.6-3.3-12.9c6.0,3.0,12.1,5.7,18.5,7.6c4.5,1.3,9.4,1.8,14.0,2.1c4.0,0.3,8.4-0.8,12.3,0.4C114.1,379.7,112.9,379.5,112.0,379.0z"/>
								<path fill="#296AA1" d="M46.3,328.0c0.0,0.0,0.0-0.1,0.0-0.1c0.1-0.6-0.1-1.4-0.8-1.6c-0.2-0.1-0.4-0.1-0.6-0.2c-1.0-0.6-2.4-0.8-3.6-0.5c-1.4,0.0-2.7,0.4-3.8,1.3c-0.7,0.6-1.1,1.7-0.3,2.4c1.9,1.6,6.0,2.1,8.1,0.6C46.1,329.4,46.4,328.7,46.3,328.0z"/>
								<path fill="#296AA1" d="M32.1,329.1c-0.8-0.4-1.7-0.3-2.5,0.1c-0.5,0.3-0.9,0.9-0.8,1.5c0.2,0.8,1.0,1.0,1.7,0.9c0.1,0.0,0.1,0.0,0.2-0.1c0.7,0.2,1.4,0.0,1.8-0.6C32.8,330.3,32.8,329.4,32.1,329.1z"/>
								<path fill="#296AA1" d="M35.3,340.8c-0.7-0.6-1.5-0.9-2.5-0.8c-0.5,0.1-1.0,0.5-1.1,1.1c-0.1,0.6,0.2,1.0,0.7,1.2c-0.2-0.1,0.4,0.2,0.5,0.2c0.0,0.0,0.1,0.0,0.1,0.0c0.1,0.1,0.2,0.1,0.4,0.1c0.3,0.1,0.6,0.1,0.9,0.2c0.5,0.1,1.1-0.2,1.3-0.7C35.8,341.6,35.7,341.2,35.3,340.8z"/>
								<path fill="#296AA1" d="M2.7,323.1c-0.7-0.6-1.5-1.0-2.4-1.1v6.5c0.4,0.0,0.7,0.0,1.1-0.1c1.1,0.1,2.2-0.3,2.6-1.4C4.6,325.6,3.8,324.1,2.7,323.1z"/>
								<path fill="#296AA1" d="M88.9,371.2c0.7-1.3,0.0-2.6-1.2-3.4c-1.9-1.2-4.8-0.6-5.4,1.8c-0.2,1.0,0.1,2.0,0.9,2.6c0.7,0.5,1.5,0.6,2.3,0.6C86.8,373.1,88.2,372.4,88.9,371.2z"/>
							</g>
						</g>
						<g>
							<g>
								<path fill="#0F9191" d="M594.2,1.3c-34.2,33.1-64.1,70.0-95.3,107.0c-6.0,7.2-13.7,12.6-19.0,20.6c-0.8,1.4-1.5,2.8-2.0,4.2c0.2,0.3,0.3,0.5,0.5,0.7c0.0,0.0,0.0,0.0,0.0,0.0c1.8-1.7,4.6-2.1,7.4-2.4c2.4-0.5,4.8-0.9,7.0-1.5c7.0-1.8,13.7-5.6,20.1-8.9c0.1,0.0,0.1-0.1,0.2-0.1c2.3-2.0,5.1-3.4,7.9-4.7c2.4-1.2,4.8-2.5,7.1-3.7c2.5-1.5,5.0-3.1,7.5-4.8c0.7-1.0,1.4-1.9,2.1-2.8c1.4-1.5,3.0-2.4,4.8-2.9c0.3-0.2,0.6-0.4,0.8-0.7c0.4-0.3,0.8-0.6,1.2-0.9c0.0,0.0,0.4-0.3,0.5-0.4c0.9-0.7,1.8-1.4,2.6-2.1c0.8-0.8,1.8-1.0,2.6-1.0c1.1-0.9,2.3-1.8,3.4-2.7c24.7-20.0,47.6-43.8,60.2-73.4c1.0-2.4,1.9-4.7,2.8-7.1c0.6-4.0,1.7-7.4,3.6-10.6c0.2-0.7,0.5-1.3,0.7-2.0C612.1,1.2,603.1,1.3,594.2,1.3z"/>
								<path fill="#0D8282" d="M503.6,123.9c3.0-2.1,3.6-6.4,3.8-9.8c0.1-3.0-0.6-8.8-3.7-10.3c-1.0-0.5-2.0,0.6-1.6,1.7c0.5,1.1,1.3,2.1,1.9,3.2c0.8,1.4,1.0,3.2,1.2,4.8c0.3,3.4-0.7,6.4-2.6,9.1C501.9,123.3,502.7,124.6,503.6,123.9z"/>
								<path fill="#0D8282" d="M521.8,110.3c4.1-5.3,7.7-11.3,9.4-17.8c1.3-4.9,1.1-12.1-4.0-14.7c-1.6-0.8-2.4,2.1-1.1,2.9c5.0,2.8,3.0,10.5,1.5,14.6c-1.7,5.0-4.7,9.4-7.2,14.0C520.0,110.2,521.1,111.2,521.8,110.3z"/>
								<path fill="#0D8282" d="M549.8,88.7c1.3-6.3,4.3-12.0,5.0-18.5c0.8-6.6-1.7-12.2-6.2-17.0c-1.4-1.5-3.3,0.7-2.0,2.1c2.1,2.1,4.1,4.5,5.1,7.4c1.0,2.9,0.9,6.1,0.5,9.1c-0.8,5.7-3.1,11.0-4.1,16.7C547.9,89.7,549.6,89.9,549.8,88.7z"/>
								<path fill="#108D9E" d="M574.0,68.8c4.7-7.5,5.0-16.5,3.1-24.9c-0.7-3.2-1.8-6.3-3.0-9.3c-1.0-2.5-2.6-6.4-5.8-6.1c-1.7,0.1-1.2,3.1,0.4,3.2c1.8,0.1,2.9,4.2,3.4,5.5c1.2,3.0,2.3,6.1,3.0,9.3c1.6,7.0,1.1,14.8-2.7,21.1C571.8,68.7,573.2,70.1,574.0,68.8z"/>
								<path fill="#108D9E" d="M595.2,40.4c2.3-3.5,2.9-7.7,3.5-11.8c0.5-4.0,1.0-8.2-0.1-12.2c-0.6-2.3-5.4-14.2-9.0-9.7c-0.9,1.1,1.0,2.7,1.2,2.3c0.6-1.2,3.2,3.4,3.4,3.8c1.1,2.2,2.0,4.3,2.4,6.7c0.5,3.1,0.0,6.3-0.4,9.4c-0.4,3.5-0.8,7.2-2.6,10.2C592.9,40.2,594.4,41.6,595.2,40.4z"/>
								<path fill="#087F8F" d="M558.9,1.2c-6.8,4.8-13.5,10.0-19.8,15.4c-0.7,1.1-1.4,2.2-2.2,3.3c-4.1,5.8-10.1,11.0-16.0,15.0c-0.4,0.3-0.8,0.5-1.3,0.5C509.8,46.0,500.1,56.7,492.0,68.6c-3.5,5.2-6.8,10.7-9.2,16.4c-2.1,4.9-3.1,10.3-3.7,15.5c-0.3,2.2-0.5,4.4-0.7,6.6c0.3,2.5,0.6,5.0,0.7,7.5c0.3,5.3,0.1,11.4-2.0,16.6c0.2,0.7,0.4,1.3,0.7,1.8c0.6-1.4,1.3-2.8,2.0-4.2c5.3-8.0,13.0-13.3,19.0-20.6c31.2-36.9,61.1-73.9,95.3-107.0C582.4,1.4,570.7,1.3,558.9,1.2z"/>
								<path fill="#046685" d="M592.0,1.3c-0.3,0.3-0.6,0.7-1.0,1.0c0.0,0.0-0.1-0.1-0.1-0.1c-0.6-0.3-1.1-0.6-1.7-1.0c-2.3,0.0-4.7,0.0-7.0,0.0c0.9,0.2,1.7,0.5,2.4,0.9c1.1,0.6,2.7,1.9,4.2,2.5c-6.4,6.9-13.0,13.6-19.4,20.5c-0.2-0.4-0.4-0.7-0.8-0.8c-2.8-1.3-5.1-3.5-7.9-4.8c-2.6-1.2-5.9-1.1-8.7-1.0c-5.3,0.2-10.6,1.7-14.9,4.8c-0.8,0.6-0.2,2.0,0.8,1.5c4.6-2.8,10.6-3.7,15.9-3.6c2.5,0.0,5.1,0.5,7.3,1.8c2.2,1.3,4.1,3.0,6.4,4.2c-3.0,3.2-6.0,6.4-8.9,9.7c-3.1,3.5-6.1,7.0-9.1,10.6c-0.2-0.2-0.4-0.5-0.7-0.6c-10.8-5.0-22.6-6.5-32.7,0.7c-0.8,0.6-0.1,2.3,0.8,1.7c10.0-6.5,20.5-4.2,30.7,0.5c-7.1,8.6-14.1,17.2-21.4,25.6c0.0,0.0-0.1,0.1-0.1,0.1c-2.0-2.6-5.5-2.9-8.6-2.7c-3.9,0.2-7.8-0.3-11.6,0.5c-6.2,1.2-13.9,3.9-16.8,9.9c-0.4,0.8,0.6,1.8,1.2,1.0c3.8-4.9,10.0-7.1,15.9-8.1c3.3-0.6,6.4,0.1,9.7,0.1c3.0,0.0,5.8-0.4,8.2,1.6c-5.0,5.6-10.0,11.1-14.9,16.7c-1.7,1.9-3.3,3.8-4.9,5.7c0.0,0.0,0.0,0.0-0.1-0.1c-5.0-4.0-12.9-1.9-18.1,0.8c-0.8,0.4-0.7,2.1,0.3,1.8c2.8-0.8,5.4-1.7,8.3-2.0c2.9-0.3,5.1,0.5,7.7,1.5c-3.2,3.9-6.5,7.7-10.0,11.3c-3.9,4.0-7.9,7.8-11.6,12.0c-2.1,2.4-4.6,5.6-3.8,9.0c0.1,0.2,0.1,0.4,0.2,0.5c0.4-0.8,1.0-1.4,1.7-1.9c0.1-2.4,2.3-4.6,3.8-6.2c2.7-3.0,5.5-5.9,8.4-8.7c6.0-6.0,11.3-12.6,16.8-19.0c11.0-12.8,22.6-25.2,33.3-38.2c10.7-13.0,21.6-25.7,33.3-37.9c5.8-6.1,11.6-12.2,17.3-18.4c1.1-1.2,2.1-2.3,3.2-3.5C594.0,1.3,593.0,1.3,592.0,1.3z"/>
								<g>
									<path fill="#10959E" d="M510.9,108.8C510.9,108.7,510.9,108.7,510.9,108.8C511.0,108.9,511.0,108.9,510.9,108.8z"/>
									<path fill="#2D9EA6" d="M516.0,102.4c-1.5-2.8-6.0-1.5-5.9,1.6c0.0,0.1,0.1,1.0,0.1,1.2c0.1,0.5,0.1,1.0,0.2,1.4c-0.1-0.8,0.1,0.8,0.2,1.0c0.0,0.1,0.3,0.8,0.4,1.0c0.5,1.2,1.4,2.1,2.9,2.1c1.4,0.0,2.5-0.9,2.9-2.2C517.3,106.6,517.0,104.4,516.0,102.4z"/>
									<path fill="#10959E" d="M510.1,105.3c0.0-0.1,0.0-0.1,0.0-0.2C510.1,105.3,510.2,105.3,510.1,105.3z"/>
								</g>
								<g>
									<path fill="#10959E" d="M514.2,117.0C514.1,117.0,514.1,117.0,514.2,117.0C514.1,117.0,514.1,117.0,514.2,117.0z"/>
									<path fill="#2D9EA6" d="M513.4,114.5c-0.4,0.2-0.7,0.5-1.0,0.8c-0.5,0.5-0.5,1.3,0.0,1.7c0.5,0.5,1.2,0.4,1.7,0.0c0.0,0.0,0.0,0.0,0.1-0.1c0.1-0.1,0.3-0.2,0.5-0.2C516.1,116.0,514.8,113.6,513.4,114.5z"/>
								</g>
								<path fill="#2D9EA6" d="M542.6,93.6c-0.3-1.1-1.3-1.9-2.5-1.9c-2.7,0.0-4.4,2.9-5.9,4.8c-1.3,1.7-3.2,5.3-0.1,6.4c2.1,0.7,4.2-1.4,5.5-2.8C541.2,98.3,543.4,96.1,542.6,93.6z"/>
								<path fill="#046685" d="M486.8,91.1c-1.3,0.8-1.8,3.0-0.5,4.0c1.5,1.1,2.9,1.5,4.7,1.3c1.9-0.2,3.9-0.9,4.3-2.9C496.2,89.0,489.1,89.7,486.8,91.1z"/>
								<g>
									<path fill="#05659E" d="M500.1,88.7C500.1,88.7,500.1,88.7,500.1,88.7C500.0,88.8,500.0,88.7,500.1,88.7z"/>
									<path fill="#046685" d="M504.2,89.0c0.1-1.0-1.1-1.8-2.0-1.5c0.0,0.0-0.1,0.0-0.1,0.0c-0.1,0.0-0.2,0.0-0.3,0.1c-0.3,0.1-0.5,0.3-0.8,0.4c-0.2,0.1-0.3,0.2-0.5,0.4c0.2-0.1,0.2-0.2,0.0,0.0c-0.1,0.0-0.4,0.3-0.5,0.4c-0.4,0.3-0.7,0.7-0.7,1.3c0.0,0.5,0.3,1.1,0.8,1.3c0.8,0.4,1.8,0.5,2.7,0.0c0.4-0.2,0.9-0.5,1.1-1.0c0.1-0.1,0.1-0.3,0.2-0.4c0.0-0.1,0.0-0.2,0.0-0.2C504.2,89.4,504.2,89.2,504.2,89.0z"/>
								</g>
								<path fill="#046685" d="M491.7,105.7c-1.1,0.0-1.8,1.2-1.3,2.2c0.0,0.1,0.1,0.2,0.1,0.2c0.6,0.8,1.6,0.8,2.2,0.0c0.1-0.1,0.1-0.2,0.1-0.2C493.5,107.0,492.8,105.7,491.7,105.7z"/>
								<path fill="#046685" d="M489.8,111.9c-0.3-1.3-1.7-1.9-2.9-1.6c-1.1,0.3-2.1,1.5-2.2,2.7c-0.2,0.7-0.1,1.5,0.5,2.1c0.6,0.6,1.4,0.7,2.1,0.5c0.6,0.0,1.3-0.4,1.7-0.9C489.8,113.8,490.1,113.0,489.8,111.9z"/>
							</g>
						</g>
						<g>
							<path fill="#6B4885" d="M1050.0,764.9c-1.8-4.5-2.4-9.6-3.6-14.0c-1.9-6.8-3.1-13.6-4.6-20.5c-1.6-7.2-4.8-13.5-8.2-19.9c-1.8-3.3-3.7-6.6-5.6-9.9c-5.7-4.3-8.2-10.7-11.5-17.0c-0.3-0.5-0.4-1.0-0.4-1.5c-0.3-0.4-0.6-0.8-0.9-1.2c-2.2-1.2-3.4-3.5-4.3-5.9c-5.8-7.8-11.9-15.4-18.4-22.7c-4.2-4.7-8.6-9.3-13.3-13.7c-0.2-0.1-0.5-0.2-0.7-0.4c-4.5-2.0-7.9-5.1-11.7-8.2c-4.8-3.9-9.7-7.7-14.4-11.8c-7.7-4.1-15.9-7.0-24.3-9.9c-1.7-0.6-3.3-1.1-5.0-1.5c-5.9-0.6-11.8-0.7-17.7-1.4c-0.4,0.4-0.8,0.8-1.1,1.2c0.0,0.2,0.0,0.8,0.0,0.5c0.1,0.9,0.1,1.7,0.2,2.6c17.1,11.5,31.9,26.3,43.2,44.0c28.7,43.3,63.4,77.7,102.3,112.1V764.9zM950.5,627.2c-0.5,1.6-2.4,2.9-4.1,2.3c-2.0-0.7-3.7-2.1-4.1-4.3c-0.3-1.8,0.5-3.6,2.3-4.1c1.6-0.4,3.6,0.5,4.0,2.2c0.0,0.0,0.1,0.0,0.1,0.1c0.0,0.0,0.0,0.0-0.1,0.0C950.1,624.1,951.0,625.6,950.5,627.2z"/>
							<path fill="#5B3C73" d="M934.0,613.5c-0.7-0.9-2.4-0.1-1.6,0.9c4.3,5.6,5.4,13.8,0.1,19.1c-1.3,1.3,1.0,2.9,2.2,1.9C941.2,629.5,938.8,619.6,934.0,613.5z"/>
							<path fill="#5B3C73" d="M949.4,653.3c1.6-2.0,3.6-3.3,5.1-5.4c1.4-1.9,2.6-4.0,3.4-6.2c2.0-5.2,1.1-11.1-0.7-16.2c-0.3-0.9-2.2-0.8-2.0,0.3c1.1,5.1,2.0,10.1-0.1,15.1c-0.9,2.2-2.2,4.2-3.6,6.0c-1.4,1.9-3.6,3.1-4.9,5.1C945.8,653.6,948.5,654.5,949.4,653.3z"/>
							<path fill="#5B3C73" d="M977.2,690.5c0.8-1.5,2.7-2.6,3.8-4.0c1.2-1.5,2.0-3.2,2.6-5.0c1.5-4.3,2.0-8.9,2.1-13.4c0.1-4.1-0.7-8.0-2.0-11.8c-0.9-2.6-2.4-7.3-5.2-8.4c-1.1-0.4-2.0,0.8-0.9,1.5c1.3,0.8,1.9,2.9,2.5,4.2c0.8,1.8,1.6,3.6,2.1,5.5c1.0,3.8,0.9,7.7,0.6,11.5c-0.3,3.7-1.1,7.5-2.5,11.0c-0.8,1.9-2.0,3.7-3.6,5.1c-1.1,0.9-2.0,1.7-2.7,3.0C973.2,691.4,976.4,692.2,977.2,690.5z"/>
							<path fill="#5B3C73" d="M1013.5,692.3c-0.5-0.8-2.1-0.4-1.7,0.6c3.7,9.9-0.2,19.3-7.6,26.1c-1.5,1.4,0.5,3.3,2.0,2.1C1014.5,714.3,1019.4,702.2,1013.5,692.3z"/>
							<path fill="#5B3C73" d="M1033.4,735.7c0.2-4.2-1.2-8.2-1.7-12.3c-0.1-1.0-1.9-1.1-1.9,0.0c0.2,7.1,3.1,15.2-3.4,20.3c-1.6,1.3,0.5,3.3,1.8,2.1C1031.4,743.1,1033.2,739.9,1033.4,735.7z"/>
							<path fill="#67307A" d="M1050.0,765.7c-38.9-34.5-73.6-68.8-102.3-112.1c-11.4-17.7-26.1-32.5-43.2-44.0c0.0,0.6,0.1,1.1,0.1,1.7c0.0,0.1,0.0,0.3,0.0,0.4c0.2,1.3,0.2,2.7,0.1,4.0c0.4,2.8,0.7,5.7,1.4,8.2c2.2,7.8,4.7,15.6,7.4,23.3c5.3,15.1,12.6,29.4,20.7,43.3c0.7,1.2,1.4,2.3,2.0,3.5c3.1,3.1,6.3,6.6,6.9,11.0c0.1,0.1,0.1,0.2,0.2,0.3c1.7,0.9,3.5,1.8,4.7,3.4c2.0,2.5,2.6,5.2,3.3,8.1c6.0,8.1,12.6,15.7,19.9,22.6c5.8,2.7,11.6,6.1,14.6,11.9c3.8,2.7,7.8,5.1,12.0,7.4c8.1,4.3,16.9,7.2,25.7,9.4c8.8,2.2,18.1,2.2,26.5,5.5V765.7z"/>
							<path fill="#4D1B6B" d="M1050.0,768.1c-0.9-0.6-1.9-1.0-2.8-1.6c-3.4-2.4-6.2-6.0-8.8-9.2c-5.0-5.9-9.8-12.0-15.1-17.6c-5.9-6.2-12.2-12.0-17.9-18.3c-5.5-6.0-11.0-11.7-16.8-17.4c-12.2-11.9-22.7-25.4-32.5-39.3c-4.9-6.9-9.7-13.8-14.8-20.6c-5.1-6.7-10.1-13.7-15.7-19.9c-3.0-3.4-6.9-5.9-10.4-8.7c-3.5-2.7-8.2-5.5-10.4-9.5c-0.1,0.1-0.2,0.3-0.3,0.4c0.0,0.2,0.0,0.8,0.0,0.5c0.1,1.1,0.2,2.3,0.2,3.4c0.9,0.9,1.8,1.7,2.8,2.5c3.2,2.5,6.3,5.1,9.5,7.6c2.6,2.0,5.0,4.3,7.2,6.7c-1.1,1.2-3.9,1.0-5.4,1.0c-2.0-0.1-3.8-0.8-5.4-2.1c-1.0-0.8-2.8,0.1-1.8,1.3c1.4,1.7,3.9,2.5,6.1,2.8c1.3,0.2,2.7,0.2,4.0,0.0c1.4-0.1,2.7-0.8,4.1-0.9c0.1,0.0,0.2,0.0,0.3-0.1c2.7,3.2,5.3,6.6,7.9,9.9c2.7,3.4,5.3,6.8,7.9,10.3c-5.6,5.2-15.4,0.3-20.6-3.5c-0.9-0.7-2.3,0.4-1.3,1.2c6.1,4.9,16.3,9.9,23.5,4.5c6.9,9.4,13.5,19.0,20.6,28.2c1.0,1.3,2.0,2.6,3.1,3.9c-7.7,4.9-19.7,3.7-26.6-2.0c-0.8-0.7-2.1,0.2-1.3,1.1c3.6,3.8,9.4,5.5,14.5,6.2c5.0,0.7,10.7-0.6,15.1-3.1c3.5,4.4,7.1,8.7,11.0,12.7c5.7,6.1,11.9,11.7,17.6,17.7c0.8,0.9,1.7,1.7,2.5,2.6c-4.9,3.4-10.5,5.3-16.4,5.6c-5.4,0.3-11.2,0.0-15.3-3.9c-0.8-0.8-2.1,0.2-1.5,1.2c2.9,4.6,9.9,5.1,14.8,5.2c7.3,0.1,14.3-2.0,20.4-6.0c4.2,4.5,8.3,9.0,12.6,13.4c2.9,2.9,5.8,5.9,8.7,8.9c-0.3,0.1-0.5,0.2-0.7,0.4c-6.2,5.8-16.3,7.3-23.9,3.5c-1.0-0.5-1.9,0.8-0.9,1.4c7.8,4.7,20.8,3.0,27.3-3.3c2.2,2.4,4.4,4.9,6.5,7.5c3.0,3.7,5.9,7.4,9.1,10.8c1.3,1.4,2.8,2.8,4.2,4.1c0.7,0.6,1.4,1.3,2.1,1.9c0.6,0.5,2.6,1.2,2.7,2.0c0.1,0.4,0.3,0.7,0.6,0.8V768.1z"/>
							<g>
								<path fill="#6953B0" d="M1023.4,715.6C1023.4,715.6,1023.4,715.7,1023.4,715.6L1023.4,715.6C1023.4,715.7,1023.4,715.6,1023.4,715.6z"/>
								<path fill="#6953B0" d="M1023.4,715.7c0.0,0.2,0.0,0.3,0.0,0.5C1023.4,716.0,1023.4,715.8,1023.4,715.7z"/>
							</g>
							<g>
								<path fill="#6953B0" d="M963.2,714.7C963.1,714.7,963.1,714.6,963.2,714.7c0.0,0.0,0.0,0.1,0.1,0.1C963.2,714.7,963.2,714.7,963.2,714.7z"/>
							</g>
							<path fill="#7F569E" d="M966.7,645.9c-0.1-0.2-0.2-0.4-0.2-0.5c0.0,0.0,0.0-0.1-0.1-0.1c0.0,0.0,0.0,0.0,0.0,0.0c-0.1-0.1-0.1-0.2-0.2-0.2c-0.1-0.2-0.1-0.2,0.0,0.0c-0.1-0.2-0.2-0.3-0.5-0.4c-0.8-0.6-2.0-0.4-2.8,0.1c-1.1,0.9-1.5,2.1-0.9,3.4c0.3,0.6,0.9,1.0,1.5,1.1c1.0,0.3,2.3-0.1,2.8-1.1C966.7,647.4,966.9,646.7,966.7,645.9z"/>
							<path fill="#7F569E" d="M964.6,654.8c-0.5-0.7-1.4-1.0-2.1-1.5c-0.4-0.3-0.9-0.4-1.3-0.6c-0.2-0.1-0.5-0.2-0.7-0.3c-0.9-0.1-1.7-0.2-2.5,0.3c-0.7,0.4-1.3,1.1-1.5,1.9c-0.3,1.1,0.0,2.9,0.7,3.9c0.9,1.2,2.0,2.5,3.5,2.7c1.8,0.3,3.5-0.2,4.5-1.8c0.4-0.6,0.5-1.3,0.5-2.0C965.8,656.4,965.3,655.6,964.6,654.8z"/>
							<path fill="#7F569E" d="M972.8,669.6c-1.8,0.0-3.3,1.5-3.3,3.3c0.0,0.7,0.1,1.4,0.5,2.0c0.2,0.3,0.5,0.6,0.7,0.9c0.9,1.1,3.2,1.1,4.1,0.0c0.2-0.3,0.5-0.6,0.7-0.9c0.3-0.6,0.5-1.3,0.5-2.0C976.1,671.1,974.6,669.6,972.8,669.6z"/>
							<path fill="#74368A" d="M974.4,708.6c-1.1-0.4-2.8-0.5-4.1-0.5c-1.5,0.0-2.9,0.3-4.3,1.0c-1.9,0.9-2.6,3.3-2.1,5.2c0.5,2.0,1.8,3.4,3.5,4.5c1.4,1.0,3.6,1.7,5.3,1.6c2.7-0.2,5.0-1.7,5.8-4.4c0.2-0.5,0.2-1.1,0.2-1.6C978.6,711.5,977.0,709.7,974.4,708.6z"/>
							<path fill="#74368A" d="M985.3,715.0c-1.4,0.0-2.5,1.2-2.5,2.5s1.2,2.5,2.5,2.5c1.4,0.0,2.5-1.2,2.5-2.5S986.7,715.0,985.3,715.0z"/>
							<path fill="#74368A" d="M979.1,733.5c-0.3,0.1-0.5,0.3-0.7,0.5c-0.9,0.8-0.9,2.5,0.0,3.3c0.2,0.2,0.4,0.4,0.7,0.5c1.6,0.9,3.8-0.2,3.8-2.2S980.7,732.6,979.1,733.5z"/>
							<path fill="#74368A" d="M959.1,675.7c-0.4-0.7-0.9-1.1-1.6-1.5c-1.0-0.6-2.0-0.6-3.1-0.4c-1.1,0.2-1.7,1.0-2.5,1.7c-0.5,0.4-1.2,1.7-1.3,2.3c-0.3,0.9-0.1,1.7,0.0,2.6c0.4,1.9,2.3,3.0,4.1,3.1c1.2,0.1,2.6-0.4,3.4-1.3c1.0-1.1,1.5-2.2,1.6-3.7C959.8,677.6,959.5,676.5,959.1,675.7z"/>
						</g>
					</g>
				</g>
				<g>
					<g>
						<path fill="#4A5941" d="M674.8,124.2c-0.4-0.2-0.8-0.3-1.2-0.2c-0.2-0.3-0.4-0.6-0.8-0.9c-0.3-0.2-0.7-0.4-1.0-0.4c0.0-0.4-0.2-0.8-0.5-1.2c-0.9-1.0-2.1-1.4-3.3-1.1c-0.7,0.2-1.4,0.5-2.0,0.8c-0.6,0.3-1.2,0.3-1.8,0.6c-0.7,0.4-0.5,1.4,0.0,1.9c0.3,0.3,0.6,0.3,1.0,0.3c0.4,0.0,0.7-0.1,0.9-0.3c0.1,0.0,0.1,0.0,0.1,0.0c0.4-0.1,0.7-0.3,1.0-0.4c0.6-0.3,1.4-0.8,2.1-0.5c0.3,0.1-0.8,1.2-1.4,1.8c-0.1,0.1-0.2,0.2-0.3,0.3c-1.1,1.0,0.2,3.0,1.4,1.9c0.3-0.3,0.7-0.6,1.1-1.0c0.2-0.2,0.4-0.4,0.7-0.5c0.3-0.2,0.8-0.6,0.4-0.1c0.0,0.0-0.1,0.1-0.1,0.1c-0.4,0.4-0.7,0.7-1.0,1.0c-0.9,1.0,0.6,2.6,1.7,1.7c0.3-0.3,0.7-0.7,1.0-1.0c0.3-0.3,0.7-0.5,1.1-0.6c0.2,0.0,0.0,1.6,0.0,1.8c-0.3,1.5,2.1,1.9,2.4,0.4C676.5,126.9,676.4,125.1,674.8,124.2z"/>
						<path fill="#7F3F13" d="M740.7,98.9c0.2-0.5,0.3-0.9,0.4-1.4c0.2-0.7,0.4-1.4,0.6-2.0c1.3-4.8,1.9-9.7,1.8-14.6c-0.1-4.6-0.5-9.1-1.8-13.5c-1.3-4.2-3.7-8.1-7.3-10.5c-4.3-2.8-9.2-2.9-14.1-2.0c-0.5,0.1-0.9,0.2-1.4,0.3c-1.6-0.1-3.2-0.2-4.8-0.3c-0.3,0.0-0.6-0.1-0.9-0.1c-0.1,0.0-0.4-0.1-0.5-0.1c-0.4-0.1-0.7-0.2-1.1-0.4c-0.1-0.1-0.3-0.1-0.4-0.2c-0.1,0.0-0.1-0.1-0.2-0.1c-0.3-0.2-0.6-0.4-0.9-0.6c0.1,0.1-0.6-0.6-0.7-0.7c-0.3-0.3-0.6-0.7-0.9-1.1c-0.7-0.9-1.4-1.9-2.1-2.8c-3.2-4.2-7.2-7.8-12.0-10.0c-4.3-1.8-9.2-2.0-13.8-1.0c-1.7,0.4-3.3,0.9-5.0,1.6c-0.2,0.1-0.4,0.1-0.6,0.2c-9.0,2.5-16.6,9.0-22.9,16.0c-3.5,3.9-5.7,8.6-6.7,13.8c-0.2,0.9-0.3,1.8-0.3,2.7c-1.1,3.9-1.6,7.9-1.4,11.9c0.5,9.2,5.3,17.4,10.5,24.5c5.3,7.2,12.0,12.8,20.0,16.7c7.6,3.6,16.2,5.4,24.6,5.0c9.0-0.5,17.6-3.3,25.2-8.6c6.3-4.4,11.3-10.7,14.5-17.7C739.5,102.2,740.1,100.6,740.7,98.9z"/>
						<path fill="#995930" d="M680.4,123.6c3.2-0.9,6.3-2.1,9.2-3.7c2.2-1.4,4.3-2.9,6.2-4.6c1.7-1.8,3.3-3.8,4.7-5.8c1.4-2.6,2.6-5.4,3.6-8.2c1.1-4.5,1.6-9.2,1.8-13.8c-0.1-4.2-0.6-8.3-1.5-12.4c-1.2-4.2-2.9-8.3-5.0-12.2c-3.5-5.8-7.7-11.2-12.3-16.1c-2.8-2.9-5.8-5.6-8.8-8.2c-0.8,0.3-1.7,0.6-2.5,0.9c-0.2,0.1-0.4,0.1-0.6,0.2c-9.0,2.5-16.6,9.0-22.9,16.0c-3.5,3.9-5.7,8.6-6.7,13.8c-0.2,0.9-0.3,1.8-0.3,2.7c-1.1,3.9-1.6,7.9-1.4,11.9c0.5,9.2,5.3,17.4,10.5,24.5c5.1,7.0,11.6,12.5,19.3,16.3C675.9,124.5,678.2,124.1,680.4,123.6z"/>
						<path fill="#612D1D" d="M714.2,59.8c-0.4-0.6-1.0-1.1-1.7-1.2c-0.5,0.0-0.9,0.0-1.3-0.1c-0.6-0.4-1.3-0.7-1.8-1.1c-1.6-1.1-3.3-2.2-5.1-2.9c-1.3-0.5-2.6,0.0-3.2,1.3c-1.9,3.4-0.2,7.0,2.6,8.9c0.7,0.6,1.4,1.2,2.2,1.7c1.7,1.0,3.7,1.2,5.5,0.7c2.0-0.5,3.4-2.3,4.0-4.2C715.8,61.5,715.3,60.4,714.2,59.8z"/>
						<path fill="#261709" d="M715.1,37.4c-1.1,0.7-2.3,1.3-3.5,1.7c0.6,1.3,0.9,2.6,1.0,4.0c0.1,2.9-0.6,5.4-1.5,8.1c-1.3,3.6-2.9,7.4-5.1,10.6c0.4,0.2,0.9,0.4,1.3,0.5c-0.1,0.0,0.8,0.2,0.9,0.2c0.2,0.0,0.3,0.1,0.5,0.1c0.7-0.7,1.4-1.5,1.8-2.2c1.7-2.5,2.9-4.7,3.8-7.6C715.8,48.3,718.0,41.8,715.1,37.4z"/>
						<g>
							<path fill="#0E6319" d="M716.4,45.4c0.5,1.7,1.1,2.9,2.0,3.8c0.7,0.5,1.4,1.0,2.1,1.6c2.3,1.2,5.4,1.4,9.0,1.6c3.7,0.2,7.3,0.3,10.9,0.7c-5.3-10.0-17.9-18.7-27.8-14.1c0.5,1.0,1.0,2.0,1.4,3.0C715.1,42.8,716.0,44.0,716.4,45.4z"/>
							<path fill="#388123" d="M729.8,48.6c1.7,1.3,3.4,2.6,5.0,4.1c1.9,0.1,3.7,0.2,5.6,0.4c-5.3-10.0-17.9-18.6-27.8-14.1c0.0,0.1,0.1,0.1,0.1,0.2C718.9,41.1,724.9,44.9,729.8,48.6z"/>
						</g>
					</g>
					<g>
						<path fill="#413881" d="M869.2,662.3c-7.6-6.3-17.6-13.4-27.8-13.9c-8.1-0.4-13.1,3.7-15.5,9.5c-4.0-1.0-9.8,1.6-12.4,3.5c-2.6,1.8-4.2,4.7-5.4,7.5c-2.5,5.9-2.7,12.7-2.3,19.0c0.9,12.9,5.0,25.6,14.8,34.4c10.3,9.3,25.3,15.0,39.3,12.6c8.4-1.4,16.0-8.0,19.3-16.0c11.3-5.3,15.0-16.5,11.0-28.8C886.7,679.2,877.9,669.6,869.2,662.3z"/>
						<path fill="#574E9D" d="M879.3,666.8c-2.5-3.6-6.1-5.9-8.6-8.6c-1.1-0.9-2.2-1.7-3.3-2.5c-4.6-3.2-9.7-5.6-15.3-6.7c-1.4-0.3-2.8-0.6-4.2-0.9c-1.4-0.3-2.8-0.5-4.2-0.8c-1.7-0.1-3.4,0.1-5.1,0.4c-3.3,0.7-6.5,2.3-9.4,5.1c-0.7,0.7-1.3,1.5-1.9,2.4c-0.5,0.9-1.0,1.8-1.4,2.7c1.1,0.3,2.2,0.7,3.3,1.0c1.1,0.4,2.2,0.8,3.3,1.2c3.4,0.7,5.5,3.3,8.6,5.0c0.8,0.6,1.6,1.2,2.4,1.8c0.8,0.6,1.6,1.3,2.3,1.9c0.8,0.7,1.5,1.3,2.3,2.0c1.8,0.9,2.7,3.2,4.3,4.3c1.0,1.0,1.9,2.1,2.9,3.1c1.1,1.2,2.2,2.5,3.2,3.7c1.1,1.3,2.1,2.6,3.1,3.9c4.6,5.2,7.9,10.5,10.7,16.6c0.7,1.3,1.4,2.6,2.0,4.0c1.9,4.0,3.7,8.1,5.2,12.3c5.5-2.7,9.1-6.8,10.9-11.8c0.4-1.2,0.8-2.5,1.0-3.9c0.4-1.8,0.6-3.6,0.7-5.3c0.8-10.2-4.5-19.8-9.9-28.0C881.4,668.8,880.4,667.9,879.3,666.8z"/>
						<path fill="#4A5941" d="M821.8,640.3c-2.8,6.1-1.1,13.8,2.2,19.0c0.8,1.3,3.2-0.1,2.5-1.4c-2.9-5.7-2.3-11.0-2.0-17.2C824.6,639.2,822.4,639.1,821.8,640.3z"/>
					</g>
					<g>
						<path fill="#4A5941" d="M269.2,702.1c-0.5,0.2-1.0,0.5-1.3,0.9c-0.4-0.2-0.9-0.2-1.5-0.1c-0.5,0.1-0.9,0.2-1.3,0.5c-0.4-0.3-0.8-0.6-1.4-0.6c-1.6-0.2-3.1,0.5-4.0,1.9c-0.5,0.8-0.8,1.6-1.2,2.5c-0.3,0.8-0.9,1.3-1.1,2.1c-0.3,1.0,0.7,1.8,1.6,1.8c0.5,0.0,0.8-0.3,1.2-0.6c0.4-0.3,0.6-0.7,0.6-1.1c0.0-0.1,0.1-0.1,0.1-0.1c0.2-0.4,0.4-0.8,0.6-1.3c0.3-0.8,0.6-1.9,1.5-2.2c0.3-0.1,0.3,1.8,0.3,2.8c0.0,0.2,0.0,0.4,0.0,0.6c-0.1,1.9,2.8,2.5,3.0,0.5c0.1-0.5,0.1-1.2,0.1-1.9c0.0-0.4,0.1-0.7,0.2-1.1c0.1-0.4,0.2-1.2,0.3-0.5c0.0,0.1,0.0,0.1,0.0,0.2c-0.1,0.7-0.1,1.3,0.0,1.8c0.1,1.7,2.9,1.9,3.0,0.1c0.0-0.6,0.1-1.2,0.0-1.8c0.0-0.6,0.2-1.1,0.5-1.5c0.2-0.2,1.4,1.4,1.5,1.7c1.0,1.7,3.5-0.1,2.5-1.7C273.1,703.0,271.5,701.4,269.2,702.1z"/>
						<path fill="#0F6670" d="M310.5,639.7c-4.5,2.8-10.1,5.7-15.6,5.1c-7.3-0.8-13.0-6.8-12.2-14.4c0.6-5.4,3.5-9.7,7.3-13.3c-0.3-0.1-0.7-0.1-1.0-0.2c-8.3-2.1-13.2-12.2-6.4-18.9c1.0-1.0,2.2-1.9,3.4-2.7c-1.5-1.1-3.0-2.2-4.7-3.1c-4.8-2.7-10.4-4.2-15.7-3.3c-6.4,1.1-10.8,5.3-14.6,10.4c-0.3,0.5-0.7,1.0-1.0,1.4c-1.5,1.3-3.0,2.6-4.6,3.8c-0.3,0.2-0.6,0.5-0.9,0.7c-0.1,0.1-0.4,0.3-0.6,0.4c-0.4,0.2-0.9,0.4-1.3,0.6c-0.2,0.1-0.3,0.1-0.5,0.2c-0.1,0.0-0.2,0.0-0.3,0.1c-0.4,0.1-0.9,0.1-1.3,0.2c0.2,0.0-1.0,0.0-1.3-0.1c-0.6-0.1-1.2-0.1-1.7-0.2c-1.5-0.2-2.9-0.5-4.3-0.8c-6.6-1.1-13.3-1.0-19.6,1.3c-5.5,2.0-10.2,6.1-13.5,10.9c-1.2,1.8-2.3,3.7-3.2,5.7c-0.2,0.2-0.3,0.5-0.4,0.7c-6.1,10.1-7.4,22.6-7.1,34.4c0.2,6.6,2.2,12.8,5.8,18.3c0.6,1.0,1.3,1.9,2.0,2.8c2.3,4.5,5.3,8.6,9.0,12.1c8.4,8.0,19.9,11.3,30.7,13.3c11.1,2.1,22.1,1.4,32.7-2.0c10.1-3.2,19.4-9.0,26.8-16.7c7.9-8.2,13.3-18.3,15.7-29.6c1.3-6.1,1.4-12.4,0.4-18.5C311.9,638.8,311.2,639.3,310.5,639.7z"/>
						<path fill="#137D7A" d="M273.8,696.7c2.1-3.6,3.9-7.4,5.3-11.3c0.8-3.2,1.4-6.4,1.7-9.6c0.0-3.1-0.3-6.3-0.8-9.4c-1.0-3.7-2.3-7.2-3.9-10.6c-2.9-5.1-6.4-9.8-10.3-14.2c-3.7-3.8-7.7-7.1-12.1-10.1c-4.8-2.8-9.8-5.1-15.1-6.8c-8.2-2.3-16.7-3.5-25.2-4.1c-5.1-0.2-10.1-0.1-15.2,0.1c-0.5,1.0-1.0,1.9-1.5,2.9c-0.2,0.2-0.3,0.5-0.4,0.7c-6.1,10.1-7.4,22.6-7.1,34.4c0.2,6.6,2.2,12.8,5.8,18.3c0.6,1.0,1.3,1.9,2.0,2.8c2.3,4.5,5.3,8.6,9.0,12.1c8.4,8.0,19.9,11.3,30.7,13.3c10.8,2.0,21.4,1.4,31.7-1.7C270.5,701.3,272.2,699.0,273.8,696.7z"/>
						<path fill="#124C19" d="M249.6,609.0c-0.9-0.3-1.9-0.2-2.6,0.4c-0.4,0.4-0.9,0.7-1.3,1.1c-0.9,0.2-1.8,0.4-2.7,0.6c-2.4,0.4-4.9,0.8-7.2,1.8c-1.7,0.7-2.3,2.3-1.9,4.0c1.3,4.8,5.8,6.6,10.1,5.9c1.2,0.0,2.3-0.1,3.5-0.4c2.4-0.6,4.4-2.1,5.6-4.1c1.3-2.2,1.2-5.1,0.1-7.3C252.5,609.3,251.1,608.6,249.6,609.0z"/>
						<path fill="#4A5941" d="M231.0,587.8c-0.4,1.6-1.0,3.2-1.7,4.6c1.6,0.7,3.1,1.6,4.4,2.8c2.6,2.5,4.2,5.4,5.6,8.7c1.9,4.4,3.7,9.3,4.5,14.1c0.6-0.2,1.1-0.4,1.7-0.7c-0.1,0.0,0.8-0.5,1.0-0.6c0.2-0.1,0.4-0.2,0.5-0.3c0.1-1.3,0.0-2.6-0.2-3.6c-0.6-3.8-1.4-6.8-3.0-10.2C241.1,597.2,237.5,589.4,231.0,587.8z"/>
					</g>
					<g>
						<path fill="#6D2925" d="M1050.0,403.7c-3.4-3.9-7.6-6.3-12.7-9.4c-5.5-3.4-9.2-7.6-12.7-13.0c-1.7-2.6-3.7-6.2-6.3-8.7c-0.2-0.1-0.4-0.3-0.5-0.4c-3.8-2.9-8.7-4.4-13.5-4.6c-1.8-0.1-3.6,0.0-5.4,0.3c-0.2,0.0-0.5,0.0-0.7,0.0c-5.6,0.1-11.0,1.6-16.2,3.8c0.7,0.4,1.3,0.9,1.8,1.5c3.0,3.6,3.0,9.6-1.7,11.9c-0.4,0.2-0.9,0.4-1.3,0.5c3.5,2.0,6.5,4.9,7.5,8.5c1.6,5.9-1.6,12.0-7.4,14.1c-3.4,1.3-7.4,0.8-11.0-0.2c-1.7,0.5-3.4,0.7-5.2,0.6c1.3,1.9,2.3,4.1,3.0,6.2c1.7,5.4-4.7,9.3-9.4,7.0c-0.8-0.4-1.5-0.9-2.3-1.3c0.8,3.3,2.0,6.5,3.2,9.5c3.4,8.5,8.7,15.7,15.6,21.6c6.6,5.5,14.8,9.5,23.3,11.2c9.2,1.9,18.6,1.3,27.6-1.9c7.5-2.7,14.1-7.6,19.3-13.6c1.2-1.4,2.3-2.8,3.3-4.3c0.3-0.4,0.5-0.8,0.8-1.2c0.3-0.5,0.7-1.1,1.0-1.6V403.7z"/>
						<path fill="#843A38" d="M1005.1,443.1c2.1-2.2,4.1-4.6,5.8-7.2c2.3-4.1,4.1-8.5,5.5-13.1c1.0-4.1,1.6-8.3,1.8-12.5c-0.1-4.5-0.7-8.9-1.8-13.2c-1.9-6.6-4.8-12.9-8.1-19.0c-2.1-3.5-4.3-7.0-6.7-10.4c-0.9,0.0-1.8,0.1-2.7,0.2c-0.2,0.0-0.5,0.0-0.7,0.0c-5.6,0.1-11.0,1.6-16.2,3.8c0.7,0.4,1.3,0.9,1.8,1.5c3.0,3.6,3.0,9.6-1.7,11.9c-0.4,0.2-0.9,0.4-1.3,0.5c3.5,2.0,6.5,4.9,7.5,8.5c1.6,5.9-1.6,12.0-7.4,14.1c-3.4,1.3-7.4,0.8-11.0-0.2c-1.7,0.5-3.4,0.7-5.2,0.6c1.3,1.9,2.3,4.1,3.0,6.2c1.7,5.4-4.7,9.3-9.4,7.0c-0.8-0.4-1.5-0.9-2.3-1.3c0.8,3.3,2.0,6.5,3.2,9.5c3.3,8.2,8.3,15.3,15.0,21.0c2.3,0.3,4.7,0.5,7.0,0.6c3.5-0.1,6.9-0.5,10.2-1.2c2.6-0.8,5.1-1.7,7.5-2.9C1001.1,446.2,1003.2,444.7,1005.1,443.1z"/>
						<path fill="#4F1717" d="M1032.1,397.8c-0.2-0.7-0.7-1.4-1.4-1.6c-0.5-0.1-0.9-0.3-1.3-0.4c-0.6-0.5-1.1-1.1-1.6-1.6c-1.4-1.5-2.7-3.0-4.4-4.1c-1.2-0.8-2.6-0.6-3.6,0.4c-2.8,2.9-2.1,6.8,0.3,9.4c0.5,0.8,1.1,1.5,1.8,2.2c1.4,1.4,3.4,2.1,5.3,2.1c2.1,0.0,4.1-1.4,5.2-3.0C1033.2,400.0,1033.0,398.7,1032.1,397.8z"/>
						<path fill="#4A5941" d="M1038.9,376.1c-1.3,0.4-2.6,0.7-4.0,0.8c0.2,1.4,0.3,2.8,0.0,4.2c-0.6,2.8-2.0,5.2-3.7,7.5c-2.3,3.2-4.9,6.5-8.0,9.1c0.4,0.3,0.8,0.6,1.2,0.8c-0.1-0.1,0.7,0.4,0.9,0.4c0.2,0.1,0.3,0.2,0.5,0.2c0.9-0.5,1.8-1.1,2.4-1.6c2.4-2.0,4.2-3.8,5.8-6.4C1036.6,387.0,1040.6,381.2,1038.9,376.1z"/>
						<g>
							<path fill="#0E6319" d="M1050.0,380.2c-3.9-1.9-8.2-3.1-12.7-3.2c0.1,2.3,0.0,4.7-0.1,7.0c1.4,2.7,2.0,5.7,1.4,8.9c-0.7,3.6-0.5,6.5,0.2,9.1c0.9,1.6,1.7,3.2,2.5,4.9c1.5,1.9,3.5,3.6,5.8,5.2c0.9,0.6,1.9,1.2,2.9,1.8V380.2z"/>
							<path fill="#388123" d="M1050.0,380.2c-3.9-1.9-8.2-3.1-12.7-3.2c0.0,0.1,0.0,0.3,0.0,0.4c4.7,4.4,9.0,9.4,12.7,14.7V380.2z"/>
						</g>
					</g>
					<g>
						<path fill="#413881" d="M57.2,559.4c7.1-5.9,16.6-12.6,26.2-13.1c7.6-0.3,12.3,3.5,14.6,9.0c3.8-0.9,9.3,1.5,11.7,3.3c2.4,1.7,4.0,4.4,5.1,7.1c2.4,5.6,2.5,12.0,2.1,17.9c-0.8,12.2-4.7,24.1-13.9,32.4c-9.8,8.8-23.9,14.2-37.0,11.9c-7.9-1.3-15.1-7.6-18.2-15.1c-10.7-5.0-14.1-15.6-10.4-27.2C40.7,575.3,48.9,566.3,57.2,559.4z"/>
						<path fill="#574E9D" d="M47.6,563.6c2.3-3.4,5.8-5.5,8.1-8.1c1.0-0.8,2.0-1.6,3.1-2.4c4.3-3.0,9.2-5.3,14.5-6.4c1.3-0.3,2.6-0.6,4.0-0.9c1.3-0.3,2.6-0.5,3.9-0.7c1.6-0.1,3.2,0.1,4.8,0.4c3.2,0.7,6.2,2.2,8.8,4.8c0.7,0.7,1.2,1.4,1.7,2.2c0.5,0.8,1.0,1.7,1.3,2.6c-1.1,0.3-2.1,0.6-3.1,1.0c-1.0,0.3-2.1,0.7-3.1,1.1c-3.2,0.6-5.2,3.1-8.1,4.7c-0.8,0.6-1.5,1.1-2.3,1.7c-0.7,0.6-1.5,1.2-2.2,1.8c-0.7,0.6-1.4,1.3-2.1,1.9c-1.7,0.9-2.5,3.0-4.1,4.0c-0.9,1.0-1.8,1.9-2.7,2.9c-1.0,1.2-2.1,2.3-3.0,3.5c-1.0,1.2-2.0,2.4-2.9,3.7c-4.4,4.9-7.5,9.9-10.1,15.7c-0.6,1.2-1.3,2.5-1.9,3.8c-1.8,3.8-3.5,7.6-4.9,11.6c-5.2-2.5-8.6-6.4-10.3-11.1c-0.4-1.2-0.7-2.4-0.9-3.6c-0.4-1.7-0.6-3.4-0.7-5.0c-0.8-9.6,4.3-18.7,9.4-26.4C45.7,565.5,46.6,564.6,47.6,563.6z"/>
						<path fill="#4A5941" d="M101.8,538.6c2.6,5.7,1.0,13.0-2.1,17.9c-0.8,1.2-3.0-0.1-2.3-1.4c2.8-5.4,2.1-10.3,1.9-16.2C99.2,537.6,101.3,537.5,101.8,538.6z"/>
						<path fill="#265994" d="M102.8,545.7c0.9-0.1,1.7,0.3,2.5,0.9c3.9-1.7,8.9,0.2,12.5,1.9c4.5,2.2,8.2,5.9,10.8,10.1c5.4,8.9,6.8,19.9,5.4,30.1c0.0,0.0,0.0,0.1,0.0,0.1c0.1,0.3-0.1,0.7-0.5,0.5c-5.1-2.0-9.4-5.7-13.7-9.2c-3.6-2.9-7.0-6.1-10.0-9.6c-3.3-4.0-6.0-8.4-6.4-13.7c-0.2-1.9,0.0-3.9,0.2-5.8c0.1-1.0,0.2-2.7,1.0-3.6c-0.5-0.5-1.2-0.9-1.9-1.1C102.4,546.3,102.5,545.7,102.8,545.7z"/>
					</g>
					<g>
						<path fill="#3C4857" d="M852.5,258.8c19.7-11.8,38.7-24.7,56.0-39.9c2.1-1.8,3.0-4.2,2.9-6.5c1.8-1.1,3.6-2.2,5.4-3.5c4.3-3.1,0.4-9.2-4.1-8.7c-13.9,1.6-28.8,7.6-41.7,12.9c-10.2,4.2-19.4,9.3-28.3,15.6c-9.7,6.8-26.8,16.5-25.5,30.4C818.7,276.9,845.5,263.0,852.5,258.8zM850.9,240.9c-1.3,0.9-2.6,1.8-3.9,2.7c3.0-2.3,6.1-4.6,9.3-6.6c0.0,0.0,0.0,0.0,0.0,0.0C854.5,238.4,852.7,239.7,850.9,240.9z"/>
						<path fill="#3C4857" d="M814.2,201.4c0.7-18.5,34.5-21.2,47.3-23.1c12.5-1.9,25.3-1.8,37.9-0.8c11.3,0.9,21.7,5.8,33.0,6.1c5.6,0.2,5.8,7.5,1.7,9.8c-5.9,3.4-13.2,3.1-20.6,2.0c2.6,4.2,1.4,10.2-3.6,12.6c-20.0,9.4-43.0,11.5-64.9,9.7C835.6,216.8,813.7,215.1,814.2,201.4z"/>
						<path fill="#3C4857" d="M834.8,144.3c20.3-10.1,45.8-2.3,66.7,1.1c15.5,2.5,40.0,8.2,47.9,23.8c2.3,4.6-3.9,8.1-7.2,4.7c-2.2-2.3-5.9-3.8-9.6-5.1c1.2,3.7,0.5,8.0-2.7,10.5c-5.6,4.3-12.1,3.6-18.7,2.4c-9.9-1.8-19.9-3.1-29.8-4.9c-17.1-3.2-37.3-7.0-49.0-20.9C829.2,152.0,830.5,146.4,834.8,144.3z"/>
						<path fill="#3C4857" d="M998.4,141.2c-0.4-13.5,6.9-30.7,12.7-42.6c5.9-12.1,9.7-28.2,22.1-35.3c3.4-1.9,8.9-0.1,10.2,3.7c5.0,14.8,2.1,32.9-3.4,47.3c-4.0,10.6-13.7,24.5-24.5,30.7c-2.4,1.9-5.1,3.4-8.4,4.3C1002.1,150.7,998.6,145.5,998.4,141.2z"/>
						<path fill="#635361" d="M1050.0,149.3c-17.3-6.5-37.8-9.5-58.9-6.2c-26.6,4.2-50.4,20.8-67.5,40.2c-17.7,20.0-31.1,42.7-41.6,64.9c-5.0,10.6-9.6,21.4-12.9,32.2c-3.5,11.2-6.2,22.9-5.7,33.8c0.4,10.3,3.3,20.6,11.1,27.5c8.3,7.4,20.4,10.8,33.8,10.6c14.5-0.2,29.5-3.2,44.3-6.9c17.6-4.5,35.2-10.3,52.4-16.9c15.2-5.8,30.2-12.3,45.0-19.4V149.3z"/>
						<path fill="#121726" d="M893.6,309.8c4.2,6.9,12.0,25.1,10.7,35.6c0.6,9.3-13.4,10.8-25.4,7.6c-6.3-1.8-15.4-7.2-19.8-17.0c-8.3-18.3-1.5-36.7,7.7-43.0C876.1,286.7,885.1,296.0,893.6,309.8z"/>
						<path fill="#C9D1D1" d="M920.4,299.0c3.8,9.3,14.2,13.8,23.3,10.1c9.1-3.7,13.5-14.2,9.7-23.4c-3.7-9.3-14.2-13.8-23.3-10.1C921.0,279.2,916.7,289.7,920.4,299.0z"/>
						<path d="M936.0,286.3c-13.4-2.8-16.0,18.5-2.7,21.3C946.6,310.5,949.3,289.1,936.0,286.3z"/>
						<path fill="#C9D1D1" d="M877.7,271.3c3.0,7.5,12.7,10.7,21.6,7.1c8.9-3.6,13.6-12.6,10.6-20.1c-3.0-7.5-12.7-10.7-21.6-7.1C879.4,254.8,874.6,263.8,877.7,271.3z"/>
						<path d="M886.0,262.1c-11.5,4.6-2.9,21.4,8.5,16.8C906.0,274.2,897.4,257.4,886.0,262.1z"/>
						<path fill="#635361" d="M993.8,328.3c-2.0-3.2-6.3-4.4-9.8-3.2c-3.9,1.4-5.6,4.8-5.7,8.7c-0.1,2.3-0.9,6.4-1.5,8.4c-1.0,3.1-3.2,5.5-4.1,8.6c-0.8,3.3,1.7,7.3,5.2,7.7C991.9,360.1,1000.0,337.9,993.8,328.3z"/>
						<path fill="#3C4857" d="M1050.0,109.1c-0.4,0.3-0.8,0.6-1.2,1.0c-2.7-2.1-6.0-3.4-9.7-3.9c0.4-3.8-0.3-11.6-0.9-15.4c-1.7-10.8-7.3-10.8-13.9-4.8c-3.6,3.3-12.1,13.1-14.0,17.7c-4.2-1.2-8.6-0.1-12.6,2.3c0.3-5.7,0.7-16.4-4.1-21.1c-2.7-2.6-9.1,0.3-11.5,3.5c-4.8,6.3-7.4,15.8-7.9,23.4c-3.8-3.3-8.2-4.6-12.9-0.9c-2.0,1.6-3.4,3.3-4.2,5.2c-8.3-6.3-17.9-11.0-24.9-3.2c-4.0,4.5-3.9,9.6-1.7,14.6c-11.8-4.4-29.7-11.4-37.6-2.9c-5.5,5.8,4.0,16.7,9.5,20.8c0.6,0.4,1.2,0.9,1.8,1.3c-15.3-3.7-40.3-7.1-47.7,5.9c-5.3,9.3,12.4,16.3,22.6,21.4c-1.0,1.4-1.7,3.0-2.1,4.7c-11.4,4.1-24.5,2.0-35.4,9.2c-3.6,2.4-6.0,8.3-2.9,12.1c5.3,6.7,12.3,8.8,19.7,9.5c-0.4,1.8-0.7,3.7-0.7,5.7c0.0,2.0,0.4,3.8,1.2,5.4c-3.9,6.0-6.6,12.7-11.6,17.9c-5.9,6.2,0.5,17.6,9.0,14.7c3.2-1.1,6.1-2.5,9.0-4.0c-2.9,8.9,4.8,17.4,14.5,15.7c7.6-1.3,15.4-6.0,22.0-9.9c5.1-3.0,9.9-6.4,14.4-10.1c-0.7,4.8-0.6,9.7,0.6,14.4c1.5,6.1,9.0,10.6,15.1,8.6c7.4-2.5,12.6-10.0,16.9-17.1c0.6,1.8,1.7,3.6,3.3,5.1c1.8,1.7,3.9,2.6,6.0,2.7c0.5,8.2,8.1,13.7,16.2,11.4c3.2-0.9,5.9-3.0,8.1-5.4c-0.5,8.5,0.8,17.4,5.8,23.4c4.3,5.2,12.9,4.1,17.8,0.9c5.7-3.7,9.4-10.9,12.6-16.7c0.5-0.9,0.9-1.8,1.4-2.6c0.0,1.3,0.1,2.6,0.3,3.9c1.1,9.5,8.6,17.6,18.7,15.9c4.9-0.8,8.5-4.2,11.2-8.3V109.1z"/>
						<g>
							<path fill="#273742" d="M937.9,216.6c-4.4,6.0-60.1,55.2-73.8,64.2c-4.6,3.0-9.3,1.1-7.7-4.4c4.5-14.8,17.7-26.0,28.4-36.6c12.9-12.8,26.7-24.7,39.2-37.8C930.3,195.3,942.3,210.6,937.9,216.6z"/>
						</g>
						<g>
							<path fill="#273742" d="M932.4,181.8c-10.4-3.5-20.9-6.5-31.6-9.1c-10.2-2.6-21.1-3.8-30.8-8.3c-5.6-2.6-2.8-10.5,2.6-11.1c10.6-1.1,21.6,2.3,31.8,4.9c10.8,2.8,21.3,6.4,31.6,10.5C944.0,172.0,940.8,184.6,932.4,181.8L932.4,181.8z"/>
						</g>
						<g>
							<path fill="#273742" d="M1050.0,151.4c-0.1,0.0-0.2,0.1-0.2,0.1c-3.7,2.0-3.2,10.2,0.2,13.1V151.4z"/>
						</g>
						<g>
							<path fill="#273742" d="M1030.5,104.8c-5.2,11.1-9.1,27.1-19.3,34.6c-4.7,3.4-9.6-2.2-8.8-6.7c1.0-5.5,4.2-10.2,6.8-15.1c3.5-6.7,7.1-13.3,11.8-19.2C1025.2,93.0,1033.2,99.0,1030.5,104.8L1030.5,104.8z"/>
						</g>
						<g>
							<path fill="#273742" d="M1050.0,185.6c-1.6-1.4-3.6-2.0-5.4-1.0c-8.2,4.5-19.8,7.7-25.7,15.5c-2.4,3.2,1.0,9.7,5.2,9.0c9.3-1.5,18.2-8.1,25.9-13.4V185.6z"/>
						</g>
						<g>
							<path fill="#273742" d="M1037.9,160.0c-0.8,3.8-2.0,7.5-3.2,11.3c-1.6,4.7-2.8,9.8-7.0,12.8c-3.0,2.1-7.4,0.1-8.3-3.2c-0.9-3.3-0.1-6.2,1.2-9.3c1.8-4.5,3.9-8.8,5.2-13.5c0.9-3.2,3.5-5.7,7.1-5.1C1036.0,153.4,1038.6,156.7,1037.9,160.0L1037.9,160.0z"/>
						</g>
						<g>
							<path fill="#273742" d="M998.3,152.0c-7.6,8.5-17.9,20.0-29.3,23.1c-5.5,1.5-10.0-4.3-6.4-9.1c2.9-3.9,7.0-6.6,10.9-9.5c5.5-4.1,10.9-8.4,15.7-13.2C994.4,138.4,1003.0,146.7,998.3,152.0L998.3,152.0z"/>
						</g>
						<g>
							<path fill="#273742" d="M993.4,103.1c-0.2,12.3-1.8,27.5-8.1,38.4c-2.9,5.1-9.5,1.8-9.9-3.1c-0.4-5.8,1.2-11.5,2.4-17.1c1.4-6.4,2.7-12.7,4.0-19.1C983.2,95.9,993.6,96.4,993.4,103.1L993.4,103.1z"/>
						</g>
						<g>
							<path fill="#273742" d="M943.4,115.8c10.7,7.0,21.1,18.6,26.5,30.2c2.3,4.9-3.6,10.2-8.1,6.9c-9.9-7.3-17.2-18.7-25.5-27.7C931.8,120.4,937.5,111.9,943.4,115.8L943.4,115.8z"/>
						</g>
						<g>
							<path fill="#273742" d="M1050.0,114.7c-7.0,7.5-16.4,12.6-22.2,21.1c-3.1,4.5,1.5,10.5,6.7,8.3c5.4-2.3,10.8-5.8,15.5-10.0V114.7z"/>
						</g>
						<g>
							<path fill="#273742" d="M939.5,161.2c-6.2-4.2-12.4-8.2-18.8-12.1c-5.8-3.6-12.0-6.6-16.4-11.9c-4.0-4.7,0.0-11.2,6.0-10.0c13.7,2.7,27.0,14.0,36.9,23.3C952.4,155.6,945.8,165.6,939.5,161.2L939.5,161.2z"/>
						</g>
						<g>
							<path fill="#273742" d="M957.6,168.9c0.1,11.1-1.8,22.3-4.1,33.1c-1.3,5.9-9.5,6.8-10.9,0.5c-2.6-11.4,1.2-21.5,1.9-32.9C945.0,161.3,957.6,160.3,957.6,168.9L957.6,168.9z"/>
						</g>
						<g>
							<path fill="#273742" d="M980.3,202.8c-3.5,7.6-5.6,16.9-12.3,22.4c-3.2,2.6-9.0,0.1-9.0-4.1c0.0-8.3,5.0-15.5,8.5-22.8c1.7-3.6,4.3-6.8,8.8-5.5C980.9,194.0,982.1,198.8,980.3,202.8L980.3,202.8z"/>
						</g>
						<g>
							<path fill="#273742" d="M1050.0,210.6c-0.7-0.7-1.7-1.3-2.9-1.6c-4.5-1.3-7.1,1.9-8.8,5.5c-3.5,7.3-8.5,14.5-8.5,22.8c0.0,4.2,5.8,6.7,9.0,4.1c6.0-4.9,8.3-12.9,11.3-20.0V210.6z"/>
						</g>
						<g>
							<path fill="#273742" d="M1008.0,169.5c0.0,16.7,2.4,35.7-2.3,51.9c-2.0,6.7-13.1,10.0-15.3,1.4c-4.4-17.0-1.7-36.1-1.3-53.6C989.5,157.0,1008.0,157.4,1008.0,169.5L1008.0,169.5z"/>
						</g>
						<g>
							<path fill="#273742" d="M907.2,212.4c-8.9,7.6-18.0,14.8-27.3,21.8c-8.4,6.2-16.7,13.6-26.2,18.0c-5.7,2.7-12.3-3.6-7.5-8.9c7.0-7.6,16.2-13.2,24.5-19.3c9.7-7.1,19.5-14.2,28.9-21.8C906.0,197.0,913.4,207.1,907.2,212.4L907.2,212.4z"/>
						</g>
						<g>
							<path fill="#273742" d="M917.3,195.9c-7.0,3.7-52.4,2.9-64.7,1.3c-6.5-0.9-8.2-6.4-3.3-8.2c11.0-4.0,23.4-4.3,34.9-5.7c11.0-1.3,22.0-2.7,33.1-2.6C925.0,180.8,924.4,192.2,917.3,195.9z"/>
						</g>
						<path fill="#3C4857" d="M1050.0,257.3c-0.1,0.1-0.3,0.1-0.4,0.2c-0.3-0.1-0.5-0.2-0.9-0.2c-5.6-0.8-7.4,4.8-6.3,9.2c0.9,3.7,1.9,6.9,4.0,10.1c0.9,1.5,2.1,2.9,3.6,3.9V257.3z"/>
						<path fill="#3C4857" d="M996.9,244.7c0.5-0.7,1.1-1.4,1.6-2.0c0.1-0.1,0.2-0.3,0.3-0.4c1.3-1.3,1.4-1.5,0.3-0.4c0.4-0.6,0.8-1.0,1.3-1.5c1.8-1.5,4.2-1.3,6.1-0.1c0.9,0.6,1.4,1.4,1.9,2.3c0.1,0.2,0.3,0.5,0.5,0.9c0.2,0.7,0.4,1.4,0.6,2.1c0.6,2.5-0.5,5.2-1.7,7.3c-2.0,3.2-6.7,3.4-9.5,1.4C995.3,252.0,994.8,247.7,996.9,244.7z"/>
						<path fill="#273742" d="M946.9,231.2c-9.8-5.8-14.4,7.0-17.1,13.7c-4.4,11.0-9.0,22.0-13.7,32.9c-0.1,0.3-0.3,0.7-0.3,1.0c-0.2,0.2-0.3,0.5-0.5,0.7c-4.0,6.4,6.1,12.3,10.1,5.9c6.1-9.8,11.8-19.8,17.3-29.9C946.0,249.5,956.2,236.7,946.9,231.2z"/>
						<path fill="#273742" d="M979.0,227.4c-8.6-0.7-11.3,9.0-14.1,15.2c-0.5,1.1-0.6,2.1-0.6,3.1c-0.2,0.6-0.5,1.3-0.7,1.9c-2.6,6.3-4.9,12.6-7.3,18.9c-2.5,6.8,7.0,9.3,10.7,4.5c4.0-5.3,6.8-11.3,9.7-17.2c3.2-6.5,7.7-13.1,8.2-20.5C985.1,229.9,982.0,227.6,979.0,227.4z"/>
						<path fill="#273742" d="M1015.4,236.4c-2.7-4.4-7.8-3.8-11.8-1.9c-2.0,0.9-2.9,2.4-3.0,4.0c-0.3,0.4-0.5,0.8-0.7,1.3c-4.4,10.7-6.9,21.9-7.8,33.5c-0.4,5.4,6.5,7.4,10.0,4.1c3.5-3.2,4.7-8.0,6.4-12.3c2.3-5.8,4.6-11.5,6.8-17.3C1016.8,243.9,1017.8,240.2,1015.4,236.4z"/>
						<path fill="#273742" d="M1050.0,243.3c-2.2-1.6-5.4-1.8-7.4,0.0c-0.4,0.1-0.7,0.3-1.1,0.4c-1.4,0.6-2.8,2.1-3.5,3.5c-0.3,0.6-0.5,1.2-0.6,1.8c-0.1,0.2-0.3,0.5-0.4,0.8c-3.3,7.4-5.3,14.8-6.4,22.8c-0.5,4.3,5.4,7.4,8.8,5.0c3.9-2.7,5.3-6.4,7.1-10.7c1.3-3.2,2.4-6.4,3.4-9.7V243.3z"/>
					</g>
				</g>
			</g>
			<g>
				<path fill="#803926" d="M108.2,787.6c1.0,4.1,2.7,8.0,4.9,11.5H221.0c1.3-3.0,2.4-6.1,3.2-9.3c0.5-2.0,0.9-4.1,1.2-6.2c0.1-0.6,0.1-1.1,0.2-1.7c0.1-0.8,0.2-1.7,0.2-2.5c0.4-6.0,0.1-11.8-1.1-17.6c-1.1-5.4-2.6-10.6-5.2-15.4c-2.4-4.6-6.1-8.7-10.9-10.7c-5.7-2.4-11.4-1.3-17.0,0.8c-0.5,0.2-1.0,0.4-1.6,0.6c-1.9,0.3-3.8,0.5-5.7,0.7c-0.4,0.0-0.7,0.1-1.1,0.1c-0.1,0.0-0.5,0.0-0.6,0.0c-0.5,0.0-0.9-0.1-1.4-0.2c-0.2,0.0-0.3-0.1-0.5-0.1c-0.1,0.0-0.2-0.1-0.2-0.1c-0.4-0.1-0.8-0.3-1.1-0.5c0.1,0.1-0.8-0.5-1.0-0.7c-0.4-0.3-0.8-0.7-1.3-1.1c-1.0-0.9-2.1-1.9-3.1-2.8c-4.7-4.3-10.2-7.6-16.4-9.0c-5.4-1.2-11.2-0.4-16.4,1.8c-1.9,0.8-3.7,1.8-5.5,3.0c-0.2,0.1-0.5,0.2-0.7,0.3c-10.0,4.9-17.5,14.3-23.3,23.9c-3.2,5.4-4.8,11.4-4.8,17.7c0.0,1.1,0.1,2.2,0.2,3.3C106.8,778.1,107.1,782.9,108.2,787.6z"/>
				<path fill="#A64B2B" d="M108.2,787.6c1.0,4.1,2.7,8.0,4.9,11.5H182.0c0.3-1.5,0.6-3.0,0.8-4.6c0.3-5.6-0.1-11.1-0.9-16.6c-1.0-4.9-2.5-9.7-4.5-14.2c-2.4-4.7-5.3-9.1-8.6-13.2c-5.4-6.1-11.5-11.4-18.1-16.2c-4.0-2.7-8.1-5.3-12.2-7.7c-0.9,0.5-1.8,1.0-2.7,1.6c-0.2,0.1-0.5,0.2-0.7,0.3c-10.0,4.9-17.5,14.3-23.3,23.9c-3.2,5.4-4.8,11.4-4.8,17.7c0.0,1.1,0.1,2.2,0.2,3.3C106.8,778.1,107.1,782.9,108.2,787.6z"/>
				<path fill="#6E2120" d="M185.5,743.4c-0.6-0.7-1.4-1.1-2.3-1.0c-0.6,0.1-1.1,0.2-1.6,0.2c-0.8-0.3-1.7-0.6-2.4-0.9c-2.2-0.9-4.3-1.8-6.7-2.2c-1.7-0.3-3.0,0.6-3.5,2.2c-1.4,4.5,1.3,8.3,5.1,9.9c0.9,0.6,1.9,1.1,3.0,1.5c2.2,0.7,4.6,0.6,6.6-0.4c2.2-1.1,3.5-3.5,3.8-5.8C187.8,745.1,187.0,743.9,185.5,743.4z"/>
				<path fill="#33161C" d="M181.6,716.9c-1.1,1.1-2.4,2.0-3.7,2.8c1.0,1.4,1.7,2.9,2.1,4.5c0.8,3.3,0.5,6.5,0.0,9.8c-0.7,4.5-1.8,9.3-3.7,13.6c0.5,0.1,1.1,0.2,1.7,0.3c-0.1,0.0,0.9,0.0,1.1,0.0c0.2,0.0,0.4,0.0,0.6,0.0c0.7-1.0,1.3-2.1,1.7-3.0c1.4-3.3,2.4-6.1,2.8-9.7C184.8,729.6,185.9,721.5,181.6,716.9z"/>
				<g>
					<path fill="#116B29" d="M184.9,726.1c0.9,1.9,2.0,3.2,3.2,4.1c0.9,0.4,1.9,0.9,2.8,1.4c3.0,0.9,6.7,0.4,10.9-0.1c4.4-0.6,8.7-1.3,13.0-1.7c-8.5-10.6-25.2-17.9-35.8-10.4c0.8,1.0,1.6,2.1,2.3,3.2C182.8,723.3,184.1,724.5,184.9,726.1z"/>
					<path fill="#378937" d="M201.3,726.8c2.2,1.1,4.5,2.3,6.8,3.7c2.2-0.3,4.4-0.6,6.6-0.8c-8.5-10.6-25.2-17.9-35.8-10.4c0.1,0.1,0.1,0.1,0.2,0.2C186.9,720.4,194.8,723.6,201.3,726.8z"/>
				</g>
			</g>
		</g>
	</g>
</svg>
