<?xml version='1.0' encoding='UTF-8'?>
<svg xmlns="http://www.w3.org/2000/svg" xmlns:xlink="http://www.w3.org/1999/xlink" width="36" height="36"><g id="SC1_plus1">
		<g>
			<path fill="#333333" d="M13.2,32.3c-0.1-1.6-0.2-4.2-0.2-7.8l-0.1-4.8c-3.3-0.1-6.9-0.2-10.8-0.5l-1.8-0.1c0.0,0.0,0.0-0.1,0.0-0.4c0.0-0.3,0.0-1.1,0.1-2.5c0.0-0.3,0.0-0.8,0.1-1.5c0.0-0.7,0.1-1.2,0.1-1.5c0.0-0.4,0.0-0.6-0.1-0.6c2.9,0.0,5.0,0.1,6.2,0.1l6.3,0.0c0.1-3.3,0.2-7.5,0.4-12.5l0.0-0.6l1.2,0.1c1.1,0.1,1.7,0.2,1.9,0.2c1.1,0.1,2.0,0.1,2.6,0.1c0.1,0.0,0.3,0.0,0.5,0.0c0.3,0.0,0.4,0.0,0.5,0.0c-0.1,3.3-0.2,7.5-0.2,12.7c3.4,0.0,6.0,0.0,7.9,0.0c1.9,0.0,3.4-0.1,4.6-0.2l0.1,1.3c0.1,1.3,0.2,2.4,0.2,3.2c0.1,0.8,0.2,1.5,0.4,2.2c-2.7,0.2-7.1,0.4-13.1,0.6c0.0,5.6,0.1,9.6,0.3,12.1c-0.9,0.0-1.5,0.1-1.9,0.1C16.0,31.9,14.3,32.1,13.2,32.3z"/>
		</g>
	</g>
</svg>
