<?xml version='1.0' encoding='UTF-8'?>
<svg xmlns="http://www.w3.org/2000/svg" xmlns:xlink="http://www.w3.org/1999/xlink" width="260" height="182"><g id="SC1_helperbox1">
		<g>
			<g opacity="0.2">
				<path fill="#333333" d="M4.0,178.8c-2.2,0.0-4.0-1.8-4.0-4.0v-170.0c0.0-2.2,1.8-4.0,4.0-4.0h250.0c2.2,0.0,4.0,1.8,4.0,4.0v170.0c0.0,2.2-1.8,4.0-4.0,4.0H4.0z"/>
			</g>
			<g>
				<rect x="4.2" y="164.9" fill="#915237" width="250" height="10"/>
			</g>
			<g>
				<rect x="4.2" y="4.9" fill="#A06444" width="100" height="160"/>
			</g>
			<g>
				<rect x="104.2" y="4.9" fill="#A06444" width="150" height="160"/>
			</g>
		</g>
		<g>
			<g>
				<path fill="#8FB72D" d="M73.3,160.8c4.2-0.4,8.5-0.3,12.7-0.3c1.9,0.0,3.9,0.0,5.8-0.1c1.7-0.1,3.7,0.1,5.3-0.5c3.3-1.2,2.6-6.4,2.5-9.1c-0.2-4.1-0.2-8.2-0.3-12.3c-0.2-4.2-0.4-8.5-0.3-12.7c0.0-4.0,0.7-8.0,0.8-12.0c0.2-8.5-0.5-16.9-0.7-25.3c-0.3-8.3,0.1-16.6-0.1-25.0c-0.1-4.0-0.3-7.9,0.0-11.8c0.3-4.1,0.7-8.3,0.8-12.4c0.1-4.1,0.2-8.3-0.1-12.4c-0.1-1.9-0.4-3.7-0.4-5.6c0.0-2.1,0.2-4.1,0.2-6.2c0.0-1.7,0.2-3.4-1.0-4.7c-1.1-1.2-2.7-1.4-4.3-1.5c-3.8-0.1-7.7,0.0-11.5,0.0c-8.3,0.0-16.5,0.5-24.7,0.5c-8.3,0.0-16.5,0.5-24.8,0.3c-4.2-0.1-8.5-0.2-12.7-0.2c-2.7,0.0-5.7-0.4-8.2,0.7c-1.5,0.6-1.9,1.7-2.5,3.1c-0.8,1.9-1.3,3.5-1.2,5.6c0.1,4.1,0.7,8.2,0.9,12.4c0.4,8.0-0.9,16.0-1.1,23.9c-0.1,4.0-0.2,8.0,0.0,12.0c0.1,4.1,0.5,8.2,0.4,12.4c-0.2,8.2-0.9,16.4-0.4,24.6c0.5,8.3,1.5,16.7,0.7,25.0c-0.7,8.0-0.5,16.0-1.0,24.0c-0.2,2.3-0.4,5.4,2.1,6.6c2.7,1.3,6.2,0.7,9.1,0.5c16.8-0.8,33.6,0.8,50.3,0.6c1.8,0.0,3.6,0.0,5.3-0.2c0.5,0.0,1.1-0.2,1.5-0.1C75.5,160.4,73.9,160.8,73.3,160.8C77.9,160.4,72.3,160.8,73.3,160.8z"/>
			</g>
			<g>
				<g>
					<path fill="#8FAF2B" d="M99.6,150.8c-0.2-4.1-0.2-8.2-0.3-12.3c-0.2-4.2-0.4-8.5-0.3-12.7c0.0-4.0,0.7-8.0,0.8-12.0c0.2-8.5-0.5-16.9-0.7-25.3c0.0-0.7,0.0-1.4,0.0-2.1c-2.9,24.6-5.6,49.3-8.1,74.0c0.3,0.0,0.5,0.0,0.8,0.0c1.7-0.1,3.7,0.1,5.3-0.5C100.4,158.7,99.8,153.5,99.6,150.8z"/>
				</g>
				<g>
					<path fill="#8FAF2B" d="M19.2,160.3c0.1,0.0,0.2,0.0,0.3,0.0c4.8-45.6,11.0-90.9,20.3-134.7c1.1-5.3,2.3-10.6,3.6-15.9c-2.0,0.0-4.1,0.1-6.1,0.1c-11.1,48.5-18.3,99.6-23.7,150.8C15.5,160.6,17.5,160.3,19.2,160.3z"/>
				</g>
				<g>
					<path fill="#8FAF2B" d="M9.5,31.2c0.4,8.0-0.9,16.0-1.1,23.9c-0.1,4.0-0.2,8.0,0.0,12.0c0.1,4.1,0.5,8.2,0.4,12.4c-0.2,8.2-0.9,16.4-0.4,24.6c0.5,8.3,1.5,16.7,0.7,25.0c-0.7,8.0-0.5,16.0-1.0,24.0c-0.1,1.1-0.2,2.3,0.0,3.5c0.5-6.5,1.0-13.0,1.6-19.5c3.4-36.7,8.4-73.3,15.1-109.5c0.9-5.1,1.9-10.2,2.9-15.3c0.2-0.9,0.4-1.9,0.6-2.8c-2.6-0.1-5.2-0.1-7.8-0.1c-2.7,0.0-5.7-0.4-8.2,0.7c-1.0,0.4-1.4,1.0-1.8,1.7c-0.6,3.0-1.2,6.1-1.7,9.1C8.9,24.3,9.3,27.7,9.5,31.2z"/>
				</g>
				<g>
					<path fill="#8FAF2B" d="M83.0,160.5c2.0-43.5,5.4-86.9,11.8-129.3c1.1-7.1,2.2-14.1,3.5-21.1c-1.1-1.0-2.5-1.2-4.0-1.2c-0.6,0.0-1.2,0.0-1.8,0.0c-8.5,49.1-12.9,100.4-15.3,151.7C79.1,160.5,81.0,160.5,83.0,160.5z"/>
				</g>
				<g>
					<path fill="#8FAF2B" d="M69.8,160.8c0.1-0.7,0.2-1.4,0.3-2.1c7.6-49.6,11.7-99.8,13.2-149.8c-0.2,0.0-0.4,0.0-0.6,0.0c-5.5,0.0-11.0,0.2-16.4,0.3c0.0,1.4-0.1,2.9-0.1,4.3c-0.2,6.6-0.5,13.2-0.8,19.8c-0.6,12.8-1.4,25.5-2.4,38.3c-2.0,25.0-4.7,50.1-8.3,74.9c-0.7,4.7-1.4,9.3-2.1,14.0c5.7,0.2,11.4,0.3,17.1,0.3C69.6,160.8,69.7,160.8,69.8,160.8z"/>
				</g>
				<g>
					<path fill="#8FAF2B" d="M37.8,160.1c0.0-0.2,0.1-0.4,0.1-0.7c7.8-49.9,15.2-99.9,20.8-150.1c-0.2,0.0-0.5,0.0-0.7,0.0c-3.4,0.0-6.9,0.1-10.3,0.2C46.0,25.3,44.1,41.0,42.0,56.7c-4.6,34.6-9.8,69.0-15.2,103.4C30.5,160.0,34.1,160.1,37.8,160.1z"/>
				</g>
			</g>
		</g>
		<g>
			<g>
				<path fill="#EFBB15" d="M168.9,160.8c-5.7,0.0-11.3-0.4-17.0-0.5c-6.0-0.1-12.0,0.0-18.0,0.1c-5.8,0.1-11.5,0.0-17.3-0.1c-1.3,0.0-2.5,0.0-3.8,0.0c-1.1,0.0-2.5,0.0-3.4-0.6c-1.8-1.1-1.1-3.5-0.9-4.9c0.5-4.3,0.7-8.5,0.6-12.8c-0.1-4.3-0.3-8.7,0.4-13.0c0.6-4.2,0.4-8.4,0.2-12.6c-0.1-4.4-0.4-8.8-0.9-13.3c-0.4-4.3-0.9-8.6-0.9-12.9c0.0-4.2,0.5-8.4,0.7-12.7c0.2-4.2,0.1-8.4,0.1-12.6c0.0-3.5,0.2-7.0,0.4-10.5c0.1-4.0-0.1-8.1-0.3-12.1c-0.3-4.3,0.2-8.6-0.1-12.9c-0.3-4.4-0.8-8.8-0.8-13.2c0.0-1.0,0.0-1.9,0.1-2.9c0.0-0.8,0.0-1.7,0.4-2.5c0.9-1.6,3.7-1.4,5.7-1.4c12.1-0.1,24.2-0.7,36.4-0.6c6.1,0.1,12.2,0.2,18.4,0.2c5.8,0.0,11.7-0.1,17.5,0.0c12.4,0.1,24.7,0.3,37.1,0.1c6.0-0.1,12.0-0.4,18.0-0.3c2.9,0.1,7.6,0.0,8.2,2.6c0.3,1.5,0.0,3.2,0.0,4.7c0.0,1.0,0.0,2.1,0.0,3.1c0.0,4.3-0.1,8.6-0.4,12.9c-0.5,8.8-0.7,17.5-0.6,26.3c0.0,8.7,0.4,17.5,0.4,26.2c0.0,4.4,0.0,8.7,0.2,13.1c0.3,4.3,0.6,8.6,0.5,12.9c-0.2,4.3-0.6,8.7-0.5,13.0c0.1,4.3,0.4,8.7,0.6,13.0c0.2,4.4,0.0,8.6-0.3,13.0c-0.2,2.1-0.1,4.2-0.1,6.2c0.0,1.5-0.4,3.4-2.9,3.8c-1.3,0.2-2.6,0.1-3.9,0.2c-1.4,0.0-2.8,0.0-4.2,0.0c-1.5,0.0-3.0,0.0-4.5,0.1c-2.6,0.0-5.3,0.1-7.9,0.0c-2.6,0.0-5.3-0.2-7.9-0.2c-4.5,0.0-9.1-0.1-13.6-0.1c-6.1,0.1-12.3,0.3-18.4,0.5C180.3,160.5,174.6,160.8,168.9,160.8z"/>
			</g>
			<g>
				<g>
					<path fill="#EDB318" d="M125.8,30.2c1.6-3.5,3.3-6.9,5.1-10.3c0.4-0.8,0.8-1.6,1.2-2.4c0.0,0.0,0.0-0.1,0.1-0.1c0.3-0.5,0.5-0.9,0.8-1.4c0.9-1.7,1.8-3.3,2.7-5.0c0.4-0.7,0.8-1.4,1.2-2.1c-7.5,0.2-15.0,0.4-22.5,0.5c-2.0,0.0-4.8-0.2-5.7,1.4c-0.4,0.8-0.4,1.7-0.4,2.5c0.0,1.0,0.0,1.9-0.1,2.9c-0.1,4.4,0.5,8.8,0.8,13.2c0.2,4.3-0.2,8.6,0.1,12.9c0.2,4.0,0.5,8.0,0.3,12.1c-0.1,3.5-0.3,7.0-0.4,10.5c0.0,2.3,0.0,4.6,0.0,6.9C113.6,57.9,119.2,44.1,125.8,30.2z"/>
				</g>
				<g>
					<path fill="#EDB318" d="M109.5,129.0c-0.6,4.3-0.5,8.7-0.4,13.0c0.1,3.0,0.0,6.0-0.3,9.0c9.5-41.3,21.4-82.6,43.2-122.2c3.7-6.7,7.7-13.3,12.0-19.8c-3.6,0.0-7.2-0.1-10.8-0.1c-20.5,32.2-33.9,66.2-43.9,100.5c0.2,2.3,0.3,4.7,0.3,7.0C109.9,120.6,110.1,124.9,109.5,129.0z"/>
				</g>
				<g>
					<path fill="#EDB318" d="M233.9,160.1c1.5,0.0,3.0,0.0,4.5-0.1c1.4,0.0,2.8,0.0,4.2,0.0c1.3,0.0,2.6,0.0,3.9-0.2c2.5-0.4,2.8-2.2,2.9-3.8c0.1-2.1,0.0-4.2,0.1-6.2c0.4-4.3,0.5-8.6,0.3-13.0c-0.2-4.3-0.5-8.7-0.6-13.0c-0.1-4.3,0.3-8.7,0.5-13.0c0.2-4.3-0.2-8.6-0.5-12.9c-0.1-1.8-0.2-3.6-0.2-5.4c-6.4,22.5-12.1,45.0-16.4,67.6C233.2,160.1,233.6,160.1,233.9,160.1z"/>
				</g>
				<g>
					<path fill="#EDB318" d="M205.1,119.2c13.9-35.0,20.9-70.4,23.4-105.7c0.1-1.5,0.2-3.0,0.3-4.5c-1.7,0.0-3.5,0.1-5.2,0.1c-8.2,0.1-16.4,0.1-24.6,0.0c-0.1,2.0-0.2,4.1-0.4,6.1c0.0,0.1,0.0,0.2,0.0,0.2c0.0,0.0,0.0,0.1,0.0,0.1c0.0,0.5-0.1,1.0-0.1,1.5c-0.1,1.2-0.2,2.4-0.3,3.6c-0.4,4.5-0.9,9.0-1.5,13.5c-1.1,8.7-2.5,17.3-4.3,26.0c-3.4,17.0-8.2,34.0-14.4,50.8c-3.1,8.4-6.7,16.8-10.6,25.2c-2.0,4.3-4.2,8.6-6.4,12.8c-1.0,2.0-2.1,3.9-3.2,5.9c-0.3,0.5-0.5,0.9-0.8,1.4c0.0,0.0,0.0,0.1-0.1,0.1c0.0,0.0,0.0,0.1-0.1,0.1c-0.7,1.1-1.3,2.3-2.0,3.4c-0.1,0.2-0.2,0.3-0.3,0.5c4.8,0.1,9.5,0.5,14.3,0.5c5.4,0.0,10.9-0.3,16.3-0.5C193.0,146.7,199.6,133.0,205.1,119.2z"/>
				</g>
				<g>
					<path fill="#EDB318" d="M132.0,160.4c5.6-13.6,11.2-27.2,16.7-40.7c14.9-36.8,28.9-73.6,38.9-110.7c-0.4,0.0-0.8,0.0-1.2,0.0c-5.8,0.0-11.7,0.0-17.5,0.0c-0.2,0.0-0.4,0.0-0.6,0.0c-3.7,13.7-7.9,27.1-12.5,40.7c-12.6,36.9-28.0,74.1-43.1,110.1c0.0,0.0,0.0,0.0,0.1,0.0c1.3,0.0,2.5,0.2,3.8,0.2C121.8,160.2,126.9,160.5,132.0,160.4z"/>
				</g>
				<g>
					<path fill="#EDB318" d="M223.9,160.1c3.0-42.7,8.2-85.7,24.3-127.4c0.4-1.1,0.9-2.3,1.4-3.4c0.1-3.3,0.2-6.6,0.2-9.9c0.0-1.0,0.0-2.1,0.0-3.1c0.0-1.6,0.3-3.2,0.0-4.7c-0.2-0.9-0.9-1.5-1.9-1.9c-21.0,43.1-28.9,88.9-32.9,134.1c-0.5,5.4-0.9,10.8-1.2,16.2c1.5,0.0,2.9,0.0,4.4,0.0C220.0,159.9,221.9,160.0,223.9,160.1z"/>
				</g>
			</g>
		</g>
		<g>
			<path fill="#34540F" d="M43.1,16.8v2.4c-0.3-0.1-0.7-0.1-1.0-0.2c-0.4,0.0-0.8,0.0-1.2,0.0h-2.1v8.0c0.0,1.0,0.0,1.9,0.0,2.5c0.0,0.7,0.1,1.2,0.2,1.5h-3.2c0.1-0.3,0.1-0.8,0.2-1.5c0.0-0.7,0.0-1.5,0.0-2.5v-8.0h-2.1c-0.5,0.0-0.9,0.0-1.2,0.0c-0.4,0.0-0.7,0.1-1.0,0.2v-2.4H43.1z"/>
			<path fill="#34540F" d="M47.2,26.7c0.1,0.8,0.3,1.4,0.7,1.8c0.4,0.4,1.0,0.6,1.7,0.6c0.7,0.0,1.3-0.1,1.9-0.2c0.6-0.2,1.2-0.4,1.8-0.8l0.2,2.3c-0.7,0.3-1.4,0.6-2.0,0.8c-0.6,0.1-1.4,0.2-2.1,0.2c-0.7,0.0-1.3-0.1-1.9-0.3c-0.6-0.2-1.1-0.5-1.5-1.0c-0.5-0.4-0.8-1.0-1.1-1.6c-0.3-0.6-0.4-1.4-0.4-2.2c0.0-0.8,0.1-1.5,0.3-2.2c0.2-0.7,0.5-1.2,1.0-1.7c0.4-0.5,0.9-0.8,1.5-1.1s1.3-0.4,2.0-0.4c1.0,0.0,1.9,0.2,2.5,0.7c0.6,0.4,1.0,1.1,1.3,1.8c0.2,0.7,0.3,1.5,0.3,2.4v0.2c0.0,0.1,0.0,0.2,0.0,0.2v0.2v0.2H47.2zM47.9,23.4c-0.3,0.3-0.5,0.8-0.7,1.5H51.0c0.0-0.7-0.1-1.2-0.4-1.5c-0.3-0.3-0.7-0.5-1.3-0.5C48.7,23.0,48.3,23.1,47.9,23.4z"/>
			<path fill="#34540F" d="M62.7,31.1v-5.4c0.0-0.9-0.1-1.5-0.4-1.9c-0.2-0.3-0.6-0.5-1.2-0.5c-0.3,0.0-0.5,0.1-0.8,0.2c-0.3,0.1-0.5,0.3-0.8,0.5c-0.2,0.2-0.4,0.4-0.6,0.7c-0.2,0.2-0.3,0.5-0.4,0.8v5.7h-2.7v-6.0c0.0-0.9,0.0-1.7-0.1-2.3c-0.1-0.7-0.2-1.2-0.3-1.6h2.7c0.1,0.2,0.1,0.5,0.2,0.9l0.1,0.5l0.1,0.4c0.6-0.7,1.2-1.2,1.8-1.5c0.6-0.3,1.2-0.5,1.9-0.5c0.5,0.0,0.9,0.1,1.3,0.3c0.4,0.2,0.7,0.4,1.0,0.8c0.6,0.7,0.8,1.7,0.8,3.0v6.1H62.7z"/>
			<path fill="#34540F" d="M75.1,24.0c-0.4-0.2-0.9-0.4-1.4-0.6c-0.6-0.2-1.2-0.3-1.8-0.3c-0.5,0.0-0.9,0.1-1.2,0.3c-0.1,0.1-0.2,0.2-0.2,0.3c-0.1,0.1-0.1,0.2-0.1,0.3c0.0,0.1,0.0,0.2,0.1,0.3c0.0,0.1,0.1,0.2,0.3,0.2c0.3,0.1,0.8,0.3,1.6,0.5c1.2,0.2,2.0,0.6,2.6,1.0c0.7,0.5,1.1,1.2,1.1,2.1c0.0,0.5-0.1,0.9-0.3,1.3c-0.2,0.4-0.5,0.8-0.9,1.1c-0.4,0.3-0.8,0.5-1.4,0.7c-0.5,0.2-1.1,0.3-1.7,0.3c-0.8,0.0-1.6-0.1-2.4-0.3c-0.7-0.2-1.3-0.5-1.7-0.8l0.5-2.4c0.5,0.4,1.1,0.7,1.8,1.0c0.7,0.2,1.3,0.4,1.9,0.4c0.4,0.0,0.8-0.1,1.1-0.3c0.3-0.2,0.4-0.4,0.4-0.6c0.0-0.1,0.0-0.3-0.1-0.4c-0.1-0.1-0.2-0.2-0.3-0.3c-0.4-0.2-1.0-0.4-1.8-0.6c-1.3-0.3-2.2-0.6-2.7-1.2c-0.2-0.2-0.4-0.5-0.5-0.7c-0.1-0.3-0.1-0.6-0.1-0.9c0.0-0.2,0.0-0.4,0.1-0.6c0.1-0.2,0.2-0.4,0.3-0.7c0.3-0.5,0.7-1.0,1.3-1.3c0.7-0.4,1.6-0.6,2.6-0.6c0.7,0.0,1.4,0.1,2.1,0.2c0.5,0.1,1.0,0.3,1.4,0.5L75.1,24.0z"/>
		</g>
		<g>
			<path fill="#915117" d="M167.7,27.9c-0.6,1.1-1.3,1.9-2.3,2.5c-0.5,0.3-1.0,0.5-1.5,0.7c-0.5,0.2-1.1,0.2-1.6,0.2c-0.8,0.0-1.6-0.2-2.4-0.5c-0.8-0.3-1.4-0.8-2.0-1.4c-0.6-0.6-1.1-1.4-1.4-2.3c-0.3-0.9-0.5-1.9-0.5-3.1c0.0-1.1,0.2-2.2,0.5-3.1c0.3-0.9,0.8-1.7,1.4-2.4c0.6-0.6,1.3-1.1,2.1-1.5s1.6-0.5,2.4-0.5c0.8,0.0,1.6,0.2,2.4,0.5c0.7,0.3,1.4,0.8,2.0,1.4c0.6,0.6,1.0,1.4,1.4,2.3c0.3,0.9,0.5,1.9,0.5,3.1C168.6,25.3,168.3,26.7,167.7,27.9zM165.6,21.9c-0.2-0.6-0.4-1.2-0.7-1.6c-0.3-0.4-0.7-0.8-1.1-1.0c-0.4-0.2-0.9-0.4-1.4-0.4c-0.5,0.0-1.0,0.1-1.4,0.3c-0.4,0.2-0.8,0.5-1.1,1.0c-0.3,0.4-0.6,0.9-0.8,1.5c-0.2,0.6-0.3,1.3-0.3,2.0c0.0,0.8,0.1,1.5,0.3,2.1c0.2,0.6,0.4,1.2,0.7,1.6c0.3,0.4,0.7,0.8,1.1,1.0c0.4,0.2,0.9,0.4,1.4,0.4c0.5,0.0,0.9-0.1,1.4-0.3c0.4-0.2,0.8-0.5,1.1-1.0c0.3-0.4,0.6-0.9,0.8-1.5c0.2-0.6,0.3-1.3,0.3-2.0C165.9,23.3,165.8,22.6,165.6,21.9z"/>
			<path fill="#915117" d="M178.0,31.1v-5.4c0.0-0.9-0.1-1.5-0.4-1.9c-0.2-0.3-0.6-0.5-1.2-0.5c-0.3,0.0-0.5,0.1-0.8,0.2c-0.3,0.1-0.5,0.3-0.8,0.5c-0.2,0.2-0.4,0.4-0.6,0.7c-0.2,0.2-0.3,0.5-0.4,0.8v5.7h-2.7v-6.0c0.0-0.9,0.0-1.7-0.1-2.3c-0.1-0.7-0.2-1.2-0.3-1.6h2.7c0.1,0.2,0.1,0.5,0.2,0.9l0.1,0.5l0.1,0.4c0.6-0.7,1.2-1.2,1.8-1.5c0.6-0.3,1.2-0.5,1.9-0.5c0.5,0.0,0.9,0.1,1.3,0.3c0.4,0.2,0.7,0.4,1.0,0.8c0.6,0.7,0.8,1.7,0.8,3.0v6.1H178.0z"/>
			<path fill="#915117" d="M185.5,26.7c0.1,0.8,0.3,1.4,0.7,1.8s1.0,0.6,1.7,0.6c0.7,0.0,1.3-0.1,1.9-0.2c0.6-0.2,1.2-0.4,1.8-0.8l0.2,2.3c-0.7,0.3-1.4,0.6-2.0,0.8c-0.6,0.1-1.4,0.2-2.1,0.2c-0.7,0.0-1.3-0.1-1.9-0.3c-0.6-0.2-1.1-0.5-1.5-1.0c-0.5-0.4-0.8-1.0-1.1-1.6c-0.3-0.6-0.4-1.4-0.4-2.2c0.0-0.8,0.1-1.5,0.3-2.2c0.2-0.7,0.5-1.2,1.0-1.7c0.4-0.5,0.9-0.8,1.5-1.1c0.6-0.2,1.3-0.4,2.0-0.4c1.0,0.0,1.9,0.2,2.5,0.7c0.6,0.4,1.0,1.1,1.3,1.8c0.2,0.7,0.3,1.5,0.3,2.4v0.2c0.0,0.1,0.0,0.2,0.0,0.2v0.2v0.2H185.5zM186.2,23.4c-0.3,0.3-0.5,0.8-0.7,1.5h3.8c0.0-0.7-0.1-1.2-0.4-1.5c-0.3-0.3-0.7-0.5-1.3-0.5C187.0,23.0,186.5,23.1,186.2,23.4z"/>
			<path fill="#915117" d="M201.2,24.0c-0.4-0.2-0.9-0.4-1.4-0.6c-0.6-0.2-1.2-0.3-1.8-0.3c-0.5,0.0-0.9,0.1-1.2,0.3c-0.1,0.1-0.2,0.2-0.2,0.3c-0.1,0.1-0.1,0.2-0.1,0.3c0.0,0.1,0.0,0.2,0.1,0.3c0.0,0.1,0.1,0.2,0.3,0.2c0.3,0.1,0.8,0.3,1.6,0.5c1.2,0.2,2.0,0.6,2.6,1.0c0.7,0.5,1.1,1.2,1.1,2.1c0.0,0.5-0.1,0.9-0.3,1.3c-0.2,0.4-0.5,0.8-0.9,1.1c-0.4,0.3-0.8,0.5-1.4,0.7c-0.5,0.2-1.1,0.3-1.7,0.3c-0.8,0.0-1.6-0.1-2.4-0.3c-0.7-0.2-1.3-0.5-1.7-0.8l0.5-2.4c0.5,0.4,1.1,0.7,1.8,1.0c0.7,0.2,1.3,0.4,1.9,0.4c0.4,0.0,0.8-0.1,1.1-0.3c0.3-0.2,0.4-0.4,0.4-0.6c0.0-0.1,0.0-0.3-0.1-0.4c-0.1-0.1-0.2-0.2-0.3-0.3c-0.4-0.2-1.0-0.4-1.8-0.6c-1.3-0.3-2.2-0.6-2.7-1.2c-0.2-0.2-0.4-0.5-0.5-0.7c-0.1-0.3-0.1-0.6-0.1-0.9c0.0-0.2,0.0-0.4,0.1-0.6c0.1-0.2,0.2-0.4,0.3-0.7c0.3-0.5,0.7-1.0,1.3-1.3c0.7-0.4,1.6-0.6,2.6-0.6c0.7,0.0,1.4,0.1,2.1,0.2c0.5,0.1,1.0,0.3,1.4,0.5L201.2,24.0z"/>
		</g>
	</g>
</svg>
