<?xml version='1.0' encoding='UTF-8'?>
<svg xmlns="http://www.w3.org/2000/svg" xmlns:xlink="http://www.w3.org/1999/xlink" width="68" height="90"><g id="SC1_target3">
		<g opacity="0.2">
			<path fill="#111111" d="M65.2,61.2c0.0-0.8-0.1-1.6-0.1-2.4c-0.1-1.6-0.1-3.2-0.1-4.7c0.0-0.9,0.0-1.8,0.1-2.8c0.0-1.7,0.1-3.4,0.1-5.1c0.0-1.4,0.0-2.8-0.1-4.2c-0.1-4.0-0.2-7.7-0.1-11.6c0.1-4.9,0.1-10.0,0.0-15.5c0.0-0.4,0.0-0.9,0.0-1.4c0.1-3.5,0.3-12.6-7.6-13.6c-1.1-0.1-2.2-0.2-3.1-0.2l-1.7,0.0c-0.3,0.0-0.6,0.0-0.8,0.0c-0.7,0.0-1.4,0.0-2.2,0.0c-1.2,0.0-2.4,0.0-3.8,0.1l-2.5,0.1c-4.7,0.2-9.1,0.5-13.5,0.5c-1.8,0.0-3.5,0.0-5.2-0.1c-1.3-0.1-2.5-0.1-3.8-0.2c-2.3-0.1-4.7-0.3-7.1-0.3c-0.3,0.0-0.7,0.0-1.0,0.0c-1.3,0.0-2.9,0.0-4.7,0.4l-0.2,0.0c-4.8,0.9-7.5,3.7-7.9,8.3c-0.2,1.8-0.1,3.6-0.1,5.2c0.0,0.6,0.0,1.2,0.0,1.7c0.0,1.2,0.0,2.3,0.0,3.5c0.0,1.5,0.0,3.1,0.0,4.7c0.0,2.1,0.0,4.2,0.0,6.4c0.0,3.0-0.1,6.0,0.1,9.1c0.2,4.0,0.1,8.2,0.0,12.2c0.0,1.3-0.1,2.6-0.1,3.8c-0.1,5.8-0.1,11.7,0.0,17.2c0.0,0.4,0.0,0.8,0.0,1.2c-0.1,2.2-0.1,5.2,1.4,8.1c2.5,4.6,7.0,4.9,8.7,5.0l0.3,0.0c1.4,0.1,2.8,0.2,4.1,0.2c0.8,0.0,1.6,0.0,2.4-0.1c0.7,0.0,1.4-0.1,2.1-0.3c0.3,0.0,0.6-0.1,0.9-0.1c0.4,0.1,0.9,0.1,1.3,0.1c0.2,0.0,0.5,0.0,0.7-0.1c0.0,0.0,0.1,0.0,0.1,0.0c0.4,0.1,0.9,0.1,1.4,0.1c0.8,0.0,1.6,0.0,2.4,0.0c1.9,0.1,3.8,0.0,6.1,0.0h0.0c2.1,0.0,4.3,0.1,6.4,0.1c1.5,0.0,2.9,0.1,4.4,0.1c3.3,0.0,7.1,0.0,10.9-0.2l0.3,0.0l1.2,0.0c1.0,0.0,2.3,0.0,3.7-0.4c2.8-0.8,6.3-3.0,6.5-9.7c0.0-1.4,0.1-2.9,0.2-4.3C65.1,68.5,65.3,64.8,65.2,61.2z"/>
		</g>
		<g opacity="0.5">
			<g>
				<path fill="#FFFFFF" d="M52.9,16.7c-1.1,0.0-2.0-0.9-2.0-2.0c0.0-0.3,0.0-0.7,0.0-1.0c-0.3,0.0-0.7,0.0-1.0,0.0c-1.1,0.0-2.0-0.9-2.0-2.0c0.0-1.1,0.9-2.0,2.0-2.0c0.0,0.0,0.0,0.0,0.0,0.0c0.4,0.0,0.9,0.0,1.3,0.0c0.4,0.0,0.8,0.0,1.3,0.0l0.4,0.0h0.0c1.1,0.0,2.0,0.9,2.0,2.0c0.0,0.6,0.0,1.2,0.0,1.5c0.0,0.6,0.0,1.1,0.0,1.5C54.9,15.8,54.0,16.7,52.9,16.7z"/>
			</g>
			<g>
				<path fill="#FFFFFF" d="M29.7,14.4l-1.0,0.0c-1.1,0.0-2.0-0.9-2.0-2.0c0.0-1.1,0.9-2.0,2.0-2.0c0.0,0.0,0.0,0.0,0.0,0.0l0.9,0.0c1.9,0.0,3.9,0.0,6.1-0.1c1.1,0.0,2.0,0.8,2.1,1.9c0.0,1.1-0.8,2.0-1.9,2.1C33.7,14.3,31.6,14.4,29.7,14.4z"/>
			</g>
			<g>
				<path fill="#FFFFFF" d="M11.7,16.7c-1.1,0.0-2.0-0.9-2.0-2.0c0.0-0.4,0.0-0.8,0.0-1.2l0.0-0.1c0.0-0.5,0.0-1.1,0.0-1.6c0.0-1.1,0.8-2.0,1.9-2.0c0.7,0.0,1.3,0.0,1.9,0.0c0.4,0.0,0.8,0.0,1.2,0.0c1.1,0.0,2.0,1.0,1.9,2.1c0.0,1.1-1.0,2.0-2.1,1.9c-0.3,0.0-0.6,0.0-0.9,0.0c0.0,0.3,0.0,0.7,0.0,1.0C13.7,15.8,12.9,16.7,11.7,16.7C11.7,16.7,11.7,16.7,11.7,16.7z"/>
			</g>
			<g>
				<path fill="#FFFFFF" d="M11.6,63.2L11.6,63.2c-1.1,0.0-2.0-0.9-2.0-2.0c0.0-1.7,0.0-3.5,0.0-5.2c0.0-1.1,0.9-2.0,2.0-2.0c0.0,0.0,0.0,0.0,0.0,0.0c1.1,0.0,2.0,0.9,2.0,2.0c0.0,1.7,0.0,3.4,0.0,5.2C13.6,62.4,12.7,63.2,11.6,63.2zM11.8,47.7C11.8,47.7,11.8,47.7,11.8,47.7c-1.1,0.0-2.0-0.9-2.0-2.0c0.0-0.6,0.0-1.2,0.0-1.8c0.0-1.1,0.0-2.2,0.0-3.3c0.0-1.1,0.9-2.0,2.0-2.0c0.0,0.0,0.0,0.0,0.0,0.0c1.1,0.0,2.0,0.9,2.0,2.0c0.0,1.1,0.0,2.2,0.0,3.4c0.0,0.6,0.0,1.2,0.0,1.9C13.8,46.8,12.9,47.7,11.8,47.7zM11.7,32.2c-1.1,0.0-2.0-0.9-2.0-2.0l0.0-0.4c0.0-1.3,0.0-2.6,0.0-3.9l0.0-0.9c0.0-1.1,0.9-2.0,2.0-2.0c0.0,0.0,0.0,0.0,0.0,0.0c1.1,0.0,2.0,0.9,2.0,2.0l0.0,0.9c0.0,1.3,0.0,2.6,0.0,3.9l0.0,0.3C13.7,31.3,12.8,32.2,11.7,32.2z"/>
			</g>
			<g>
				<path fill="#FFFFFF" d="M14.1,76.7c-0.8,0.0-1.7,0.0-2.6-0.1c-1.1-0.1-1.9-0.9-1.9-2.0c0.0-0.3,0.0-0.6,0.0-0.9c0.0-0.5,0.0-1.0,0.0-1.5l0.0-0.6c0.0-1.1,0.9-2.0,2.0-2.0l0.0,0.0c1.1,0.0,2.0,0.9,2.0,2.0l0.0,0.6c0.0,0.2,0.0,0.3,0.0,0.5c0.1,0.0,0.3,0.0,0.4,0.0l0.5,0.0c1.1,0.0,2.0,0.9,2.0,2.0c0.0,1.1-0.9,2.0-2.0,2.0L14.1,76.7z"/>
			</g>
			<g>
				<path fill="#FFFFFF" d="M35.8,76.5C35.8,76.5,35.8,76.5,35.8,76.5l-1.1,0.0c-1.9-0.1-3.8-0.1-5.6,0.0l-0.3,0.0c-1.1,0.0-2.0-0.9-2.0-2.0c0.0-1.1,0.9-2.0,2.0-2.0l0.3,0.0c1.8,0.0,3.8,0.0,5.8,0.0l1.0,0.0c1.1,0.0,2.0,0.9,2.0,2.0C37.8,75.6,36.9,76.5,35.8,76.5z"/>
			</g>
			<g>
				<path fill="#FFFFFF" d="M52.9,76.5c-0.2,0.0-0.4,0.0-0.6-0.1c-0.8,0.0-1.6,0.0-2.4,0.0c0.0,0.0,0.0,0.0,0.0,0.0c-1.1,0.0-2.0-0.9-2.0-2.0c0.0-1.1,0.9-2.0,2.0-2.0c0.3,0.0,0.7,0.0,1.0,0.0c0.0-0.3,0.0-0.6,0.0-1.0c0.0-1.1,0.9-1.9,2.0-1.9c0.0,0.0,0.0,0.0,0.0,0.0c1.1,0.0,2.0,0.9,2.0,2.0c0.0,0.0,0.0,0.1,0.0,0.2c0.0,1.0-0.1,1.9-0.1,2.9C54.8,75.7,54.0,76.5,52.9,76.5z"/>
			</g>
			<g>
				<path fill="#FFFFFF" d="M53.2,63.2c-1.1,0.0-2.0-0.8-2.0-1.9c0.0-0.6-0.1-1.3-0.1-1.9c0.0-1.1-0.1-2.2-0.1-3.3c0.0-1.1,0.8-2.0,2.0-2.0c1.1-0.1,2.0,0.8,2.0,2.0c0.0,1.1,0.1,2.2,0.1,3.2c0.0,0.7,0.1,1.3,0.1,1.9C55.2,62.2,54.3,63.1,53.2,63.2C53.2,63.2,53.2,63.2,53.2,63.2zM53.1,47.7c-1.1,0.0-2.0-0.9-2.0-2.0c0.0-1.2,0.0-2.4-0.1-3.5l0.0-1.6c0.0-1.1,0.9-2.0,2.0-2.0c1.1,0.0,2.0,0.9,2.0,2.0l0.0,1.6c0.0,1.2,0.0,2.4,0.1,3.6C55.1,46.8,54.2,47.7,53.1,47.7C53.1,47.7,53.1,47.7,53.1,47.7zM52.9,32.2L52.9,32.2c-1.1,0.0-2.0-0.9-2.0-2.0c0.0,0.0,0.0-0.1,0.0-0.2c0.0-1.6,0.0-3.3,0.1-5.0c0.0-1.1,0.9-2.0,2.0-2.0h0.0c1.1,0.0,2.0,0.9,2.0,2.0c0.0,1.7,0.0,3.4-0.1,5.1C54.9,31.3,54.0,32.2,52.9,32.2z"/>
			</g>
		</g>
		<g>
			<circle fill="#00FFFF" cx="47.8" cy="65.3" r="5.4" opacity="0"/>
		</g>
	</g>
</svg>
