<?xml version='1.0' encoding='UTF-8'?>
<svg xmlns="http://www.w3.org/2000/svg" xmlns:xlink="http://www.w3.org/1999/xlink" width="34" height="50"><g id="SC1_a_secondNumber6">
		<g>
			<path fill="#826654" d="M29.8,24.6c0.8,1.9,1.1,3.9,1.1,5.9c0.0,2.3-0.5,4.6-1.4,6.7c-0.6,1.3-1.3,2.6-2.3,3.7c-0.9,1.1-2.0,2.1-3.2,2.9c-1.3,0.9-2.7,1.6-4.3,2.1c-1.5,0.5-3.1,0.7-4.7,0.7c-1.6,0.0-3.1-0.2-4.6-0.7c-1.5-0.4-2.9-1.1-4.2-2.0c-1.9-1.3-3.3-3.0-4.3-5.1c-1.0-2.1-1.6-4.4-1.9-7.1c-0.2-1.4-0.3-2.8-0.3-4.2c0.0-3.7,0.6-7.3,1.8-10.8c1.2-3.5,3.0-6.7,5.4-9.6c2.1-2.6,4.9-4.5,8.3-5.6c1.6-0.5,3.4-0.8,5.2-0.8c1.0,0.0,2.0,0.1,3.1,0.2c1.1,0.1,2.1,0.4,3.1,0.7c-0.1,0.2-0.4,0.8-0.8,1.8c-0.4,0.9-0.6,1.6-0.8,2.0c-0.3,0.8-0.6,1.5-0.9,2.2c-0.3,0.7-0.4,1.1-0.4,1.3c-1.6-0.5-2.9-0.8-3.8-0.8c-2.0,0.0-3.9,0.6-5.7,1.9c-1.4,1.0-2.6,2.3-3.6,3.8c-0.5,0.7-0.9,1.5-1.3,2.3c-0.1,0.3-0.3,0.7-0.5,1.3c-0.2,0.6-0.3,1.0-0.4,1.2c0.2-0.1,0.4-0.2,0.9-0.4c0.4-0.2,0.8-0.4,1.3-0.6c2.1-0.9,4.2-1.4,6.4-1.4c1.7,0.0,3.4,0.3,5.0,0.9c1.6,0.6,3.1,1.5,4.4,2.7C27.9,21.1,29.1,22.7,29.8,24.6zM23.9,30.7c0.0-1.4-0.4-2.7-1.1-3.9c-0.7-1.2-1.7-2.1-3.0-2.7c-1.2-0.6-2.6-0.9-4.0-0.9c-1.0,0.0-2.0,0.2-3.0,0.5c-1.0,0.3-1.9,0.8-2.7,1.5c-0.8,0.6-1.4,1.4-1.9,2.3c-0.6,1.3-0.9,2.8-0.9,4.3c0.0,1.7,0.4,3.3,1.2,4.7c0.8,1.4,1.9,2.5,3.4,3.1c0.9,0.4,1.8,0.5,2.7,0.5c1.3,0.0,2.6-0.3,3.9-1.0c1.7-0.9,3.1-2.3,4.1-4.1C23.6,33.5,23.9,32.1,23.9,30.7z"/>
		</g>
		<g>
			<circle fill="#00FFFF" cx="24.3" cy="39.3" r="5.4" opacity="0"/>
		</g>
	</g>
</svg>
