<?xml version='1.0' encoding='UTF-8'?>
<svg xmlns="http://www.w3.org/2000/svg" xmlns:xlink="http://www.w3.org/1999/xlink" width="68" height="88"><g id="SC1_target1">
		<g opacity="0.2">
			<path fill="#111111" d="M65.3,60.7c0.0-0.8-0.1-1.6-0.1-2.4c-0.1-1.6-0.1-3.2-0.1-4.7c0.0-0.9,0.0-1.8,0.1-2.8c0.0-1.7,0.1-3.4,0.1-5.1c0.0-1.4,0.0-2.8-0.1-4.2c-0.1-4.0-0.2-7.7-0.1-11.6c0.1-4.9,0.1-10.0,0.0-15.5c0.0-0.4,0.0-0.9,0.0-1.4c0.1-3.5,0.3-12.6-7.6-13.6c-1.1-0.1-2.2-0.2-3.1-0.2l-1.7,0.0c-0.3,0.0-0.6,0.0-0.8,0.0c-0.7,0.0-1.4,0.0-2.2,0.0c-1.2,0.0-2.4,0.0-3.8,0.1l-2.5,0.1c-4.7,0.2-9.1,0.5-13.5,0.5c-1.8,0.0-3.5,0.0-5.2-0.1c-1.3-0.1-2.5-0.1-3.8-0.2c-2.3-0.1-4.7-0.3-7.1-0.3c-0.3,0.0-0.7,0.0-1.0,0.0c-1.3,0.0-2.9,0.0-4.7,0.4l-0.2,0.0c-4.8,0.9-7.5,3.7-7.9,8.3c-0.2,1.8-0.1,3.6-0.1,5.2c0.0,0.6,0.0,1.2,0.0,1.7c0.0,1.2,0.0,2.3,0.0,3.5c0.0,1.5,0.0,3.1,0.0,4.7c0.0,2.1,0.0,4.2,0.0,6.4c0.0,3.0-0.1,6.0,0.1,9.1c0.2,4.0,0.1,8.2,0.0,12.2c0.0,1.3-0.1,2.6-0.1,3.8c-0.1,5.8-0.1,11.7,0.0,17.2c0.0,0.4,0.0,0.8,0.0,1.2c-0.1,2.2-0.1,5.2,1.4,8.1c2.5,4.6,7.0,4.9,8.7,5.0l0.3,0.0c1.4,0.1,2.8,0.2,4.1,0.2c0.8,0.0,1.6,0.0,2.4-0.1c0.7,0.0,1.4-0.1,2.1-0.2c0.3,0.0,0.6-0.1,0.9-0.1c0.4,0.1,0.9,0.1,1.3,0.1c0.2,0.0,0.5,0.0,0.7,0.0c0.0,0.0,0.1,0.0,0.1,0.0c0.4,0.1,0.9,0.1,1.4,0.1c0.8,0.0,1.6,0.0,2.4,0.0c1.9,0.1,3.8,0.0,6.1,0.0c0.0,0.0,0.0,0.0,0.0,0.0c2.1,0.0,4.3,0.1,6.4,0.1c1.5,0.0,2.9,0.1,4.4,0.1c3.3,0.0,7.1,0.0,10.9-0.1l0.3,0.0l1.2,0.0c1.0,0.0,2.3,0.0,3.7-0.4c2.8-0.8,6.3-3.0,6.5-9.7c0.0-1.4,0.1-2.9,0.2-4.3C65.2,68.1,65.4,64.4,65.3,60.7z"/>
		</g>
		<g opacity="0.5">
			<g>
				<path fill="#FFFFFF" d="M53.0,16.3c-1.1,0.0-2.0-0.9-2.0-2.0c0.0-0.3,0.0-0.7,0.0-1.0c-0.3,0.0-0.7,0.0-1.0,0.0c-1.1,0.0-2.0-0.9-2.0-2.0c0.0-1.1,0.9-2.0,2.0-2.0c0.0,0.0,0.0,0.0,0.0,0.0c0.4,0.0,0.9,0.0,1.3,0.0c0.4,0.0,0.8,0.0,1.3,0.0l0.4,0.0c0.0,0.0,0.0,0.0,0.0,0.0c1.1,0.0,2.0,0.9,2.0,2.0c0.0,0.6,0.0,1.2,0.0,1.5c0.0,0.6,0.0,1.1,0.0,1.5C55.0,15.4,54.1,16.3,53.0,16.3z"/>
			</g>
			<g>
				<path fill="#FFFFFF" d="M29.8,13.9l-0.9,0.0c-1.1,0.0-2.0-0.9-2.0-2.0c0.0-1.1,0.9-2.0,2.0-2.0c0.0,0.0,0.0,0.0,0.0,0.0l0.9,0.0c1.9,0.0,3.9,0.0,6.1-0.1c1.1-0.1,2.0,0.8,2.1,1.9c0.0,1.1-0.8,2.0-1.9,2.1C33.8,13.9,31.7,13.9,29.8,13.9z"/>
			</g>
			<g>
				<path fill="#FFFFFF" d="M11.8,16.3c-1.1,0.0-2.0-0.9-2.0-2.0c0.0-0.4,0.0-0.8,0.0-1.2l0.0-0.1c0.0-0.5,0.0-1.1,0.0-1.6c0.0-1.1,0.8-2.0,1.9-2.0c0.4,0.0,0.8,0.0,1.1,0.0l0.8,0.0c0.4,0.0,0.8,0.0,1.2,0.0c1.1,0.0,2.0,1.0,1.9,2.1c0.0,1.1-1.0,2.0-2.1,1.9c-0.3,0.0-0.6,0.0-0.9,0.0c0.0,0.3,0.0,0.7,0.0,1.0C13.8,15.4,12.9,16.3,11.8,16.3C11.8,16.3,11.8,16.3,11.8,16.3z"/>
			</g>
			<g>
				<path fill="#FFFFFF" d="M11.7,62.8C11.7,62.8,11.7,62.8,11.7,62.8c-1.1,0.0-2.0-0.9-2.0-2.0c0.0-1.7,0.0-3.5,0.0-5.2c0.0-1.1,0.9-2.0,2.0-2.0c1.1,0.0,2.0,0.9,2.0,2.0c0.0,1.7,0.0,3.4,0.0,5.2C13.7,61.9,12.8,62.8,11.7,62.8zM11.9,47.3C11.9,47.3,11.9,47.3,11.9,47.3c-1.1,0.0-2.0-0.9-2.0-2.0c0.0-0.6,0.0-1.2,0.0-1.8c0.0-1.1,0.0-2.2,0.0-3.3c0.0-1.1,0.9-2.0,2.0-2.0c1.1,0.0,2.0,0.9,2.0,2.0c0.0,1.1,0.0,2.2,0.0,3.4c0.0,0.6,0.0,1.2,0.0,1.9C13.9,46.4,13.0,47.3,11.9,47.3zM11.8,31.8c-1.1,0.0-2.0-0.9-2.0-2.0l0.0-0.4c0.0-1.3,0.0-2.6,0.0-3.9l0.0-0.9c0.0-1.1,0.9-2.0,2.0-2.0c0.0,0.0,0.0,0.0,0.0,0.0c1.1,0.0,2.0,0.9,2.0,2.0l0.0,0.9c0.0,1.3,0.0,2.6,0.0,3.9l0.0,0.3C13.8,30.9,12.9,31.8,11.8,31.8z"/>
			</g>
			<g>
				<path fill="#FFFFFF" d="M14.2,76.3c-0.9,0.0-1.7,0.0-2.6-0.1c-1.1-0.1-1.9-1.0-1.9-2.0c0.0-0.3,0.0-0.6,0.0-0.9c0.0-0.5,0.0-1.0,0.0-1.5l0.0-0.6c0.0-1.1,0.9-2.0,2.0-2.0c0.0,0.0,0.0,0.0,0.0,0.0c1.1,0.0,2.0,0.9,2.0,2.0l0.0,0.6c0.0,0.2,0.0,0.3,0.0,0.5c0.1,0.0,0.3,0.0,0.4,0.0l0.5,0.0c0.0,0.0,0.0,0.0,0.0,0.0c1.1,0.0,2.0,0.9,2.0,2.0c0.0,1.1-0.9,2.0-2.0,2.0L14.2,76.3z"/>
			</g>
			<g>
				<path fill="#FFFFFF" d="M35.9,76.1C35.9,76.1,35.9,76.1,35.9,76.1c-0.4,0.0-0.7,0.0-1.1,0.0c-1.9-0.1-3.8-0.1-5.6,0.0l-0.3,0.0c0.0,0.0,0.0,0.0,0.0,0.0c-1.1,0.0-2.0-0.9-2.0-2.0c0.0-1.1,0.9-2.0,2.0-2.0l0.3,0.0c1.8,0.0,3.8,0.0,5.8,0.0c0.3,0.0,0.7,0.0,1.0,0.0c1.1,0.0,2.0,0.9,2.0,2.0C37.9,75.2,37.0,76.1,35.9,76.1z"/>
			</g>
			<g>
				<path fill="#FFFFFF" d="M53.0,76.1c-0.2,0.0-0.4,0.0-0.6-0.1c-0.8,0.0-1.6,0.0-2.4,0.0c0.0,0.0,0.0,0.0,0.0,0.0c-1.1,0.0-2.0-0.9-2.0-2.0c0.0-1.1,0.9-2.0,2.0-2.0c0.3,0.0,0.7,0.0,1.0,0.0c0.0-0.3,0.0-0.6,0.0-1.0l2.0,0.0l2.0,0.1c0.0,1.0-0.1,2.0-0.1,3.0C54.9,75.2,54.0,76.1,53.0,76.1z"/>
			</g>
			<g>
				<path fill="#FFFFFF" d="M53.2,62.8c-1.1,0.0-2.0-0.8-2.0-1.9c0.0-0.6-0.1-1.3-0.1-1.9c0.0-1.1-0.1-2.2-0.1-3.3c0.0-1.1,0.8-2.0,2.0-2.0c0.0,0.0,0.0,0.0,0.0,0.0c1.1,0.0,2.0,0.9,2.0,2.0c0.0,1.1,0.1,2.2,0.1,3.2c0.0,0.7,0.1,1.3,0.1,1.9C55.3,61.8,54.4,62.7,53.2,62.8C53.3,62.8,53.3,62.8,53.2,62.8zM53.1,47.3c-1.1,0.0-2.0-0.9-2.0-2.0l-0.1-5.2c0.0-1.1,0.9-2.0,2.0-2.0c1.1,0.0,2.0,0.9,2.0,2.0l0.1,5.2C55.2,46.4,54.3,47.3,53.1,47.3C53.2,47.3,53.2,47.3,53.1,47.3zM53.0,31.8C53.0,31.8,53.0,31.8,53.0,31.8c-1.1,0.0-2.0-0.9-2.0-2.0c0.0,0.0,0.0-0.1,0.0-0.2c0.0-1.6,0.0-3.3,0.1-5.0c0.0-1.1,0.9-2.0,2.0-2.0c0.0,0.0,0.0,0.0,0.0,0.0c1.1,0.0,2.0,0.9,2.0,2.0c0.0,1.7,0.0,3.4-0.1,5.1C55.0,30.9,54.1,31.8,53.0,31.8z"/>
			</g>
		</g>
		<g>
			<circle fill="#00FFFF" cx="47.5" cy="67.1" r="5.4" opacity="0"/>
		</g>
	</g>
</svg>
