<?xml version='1.0' encoding='UTF-8'?>
<svg xmlns="http://www.w3.org/2000/svg" xmlns:xlink="http://www.w3.org/1999/xlink" width="74" height="64"><g id="segment2">
		<g>
			<path fill="#9B6131" d="M36.0,61.0c-20.8,0.0-21.0-40.3-21.0-42.0c0.0-1.1,0.9-2.0,2.0-2.0h0.0c1.1,0.0,2.0,0.9,2.0,2.0c0.0,0.1,0.0,9.9,2.3,19.6c2.9,12.2,7.8,18.4,14.7,18.4c13.1,0.0,16.0-27.4,16.0-38.0c0.0-1.1,0.9-2.0,2.0-2.0s2.0,0.9,2.0,2.0C56.0,20.7,55.8,61.0,36.0,61.0z"/>
		</g>
		<g>
			<path fill="#9B6131" d="M64.0,38.0c-3.9,0.0-7.0-3.1-7.0-7.0v-24.0c0.0-3.9,3.1-7.0,7.0-7.0s7.0,3.1,7.0,7.0v24.0C71.0,34.9,67.9,38.0,64.0,38.0z"/>
		</g>
		<g>
			<path fill="#9B6131" d="M64.0,26.0h-57.0c-3.9,0.0-7.0-3.1-7.0-7.0s3.1-7.0,7.0-7.0h57.0c3.9,0.0,7.0,3.1,7.0,7.0S67.9,26.0,64.0,26.0z"/>
		</g>
	</g>
</svg>
