<?xml version='1.0' encoding='UTF-8'?>
<svg xmlns="http://www.w3.org/2000/svg" xmlns:xlink="http://www.w3.org/1999/xlink" width="354" height="246"><g id="segmentDiagram">
		<g>
			<path fill="#E6EDBE" d="M351.8,71.8c-0.9-12.2-0.6-24.5-0.6-36.8c0.0-6.0-0.1-12.1-0.4-18.1c-0.3-4.4-0.0-9.1-2.9-11.9c-2.6-2.6-6.2-3.1-9.3-3.4c-4.5-0.4-9.1,0.2-13.5,0.4c-8.7,0.3-17.3,0.3-26.0,0.7c-9.0,0.4-18.0,0.7-27.0,0.8c-8.8,0.1-17.7-1.8-26.5-2.2c-18.1-0.8-36.2,0.3-54.2,1.5c-17.8,1.2-35.7-0.0-53.6,0.4c-9.2,0.2-18.4,0.5-27.6,0.7c-9.1,0.1-18.2-1.4-27.3-2.1c-9.2-0.6-18.5-1.0-27.8-1.0c-4.5,0.0-9.1,0.2-13.6,0.5c-4.5,0.3-9.0,1.2-13.6,1.2c-6.6,0.0-13.3-1.0-19.9-0.3c-2.5,0.2-5.1,2.2-6.5,5.1c-2.1,4.1-1.6,11.1-1.6,15.9c-0.0,12.7-0.1,25.4-0.1,38.1c-0.1,12.6,0.5,25.2,1.0,37.8c0.5,12.8,0.1,25.6,0.4,38.5c0.3,12.6,0.8,25.2,0.6,37.8c-0.2,12.8-0.6,25.5-0.6,38.3c-0.0,7.5-1.1,19.4,4.1,24.5c1.1,1.1,2.3,1.2,3.5,1.7c2.0,1.0,3.9,2.3,6.0,2.9c4.2,1.3,8.5,0.9,12.7,0.5c8.8-0.9,17.7-1.7,26.5-2.1c8.9-0.4,17.7,1.1,26.6,1.1c4.2-0.0,8.3,1.1,12.5,1.3c4.6,0.3,9.2,0.5,13.8,0.7c9.1,0.3,18.2,0.4,27.3,0.1c8.9-0.3,17.8-1.2,26.8-1.1c18.3,0.2,36.4,2.6,54.6,1.4c18.1-1.1,36.1-3.5,54.2-2.9c8.8,0.3,17.5,2.0,26.2,2.1c8.3,0.0,16.5,0.5,24.8,0.8c4.2,0.2,8.5,0.2,12.7,0.5c4.8,0.4,13.0,1.4,15.9-5.5c2.7-6.6,1.5-16.9,1.3-24.1c-0.5-12.3-0.6-24.6-0.4-36.9c0.4-24.2,0.5-48.5,1.5-72.6C352.2,94.6,351.9,83.3,351.8,71.8C350.3,51.9,351.9,74.6,351.8,71.8z"/>
		</g>
		<g>
			<path fill="#F5DD4C" d="M323.0,126.9c0.0,31.4-54.8,56.9-122.4,56.9s-122.4-25.5-122.4-56.9"/>
		</g>
		<g>
			<path fill="#7BDBD2" d="M78.0,125.5c0.0,32.1-11.0,58.2-24.5,58.2s-24.5-26.1-24.5-58.2"/>
		</g>
		<g>
			<path fill="#B4E34C" d="M29.1,127.4c0.0-47.0,65.8-61.8,147.0-61.8c81.2,0.0,147.0,15.7,147.0,61.8"/>
		</g>
		<g>
			<g>
				<path fill="#7BDBD2" d="M62.6,207.5c-1.5,0.5-3.1,1.0-4.7,1.2c-0.0,0.0-0.1,0.0-0.1,0.0c-3.4,0.5-6.8,0.9-10.5-0.2c-2.1-0.4-4.1-1.0-6.0-1.8c-10.7-4.5-17.2-14.5-16.5-25.3c0.0-0.1,0.0-0.2,0.0-0.3c0.7-4.8,2.2-11.7,7.7-17.2c3.6-3.6,7.5-6.1,11.9-7.7c2.4-0.9,5.0-1.4,7.8-1.7c10.8-1.2,21.9,3.9,26.8,12.5c0.9,1.5,1.7,3.1,2.3,4.8c2.4,6.2,2.0,13.3-1.1,19.9C76.8,198.9,70.2,204.9,62.6,207.5z"/>
			</g>
			<g>
				<path fill="#FFFFFF" d="M78.3,181.6c0.5,14.5-14.7,25.9-28.7,23.4c-3.2-0.6-5.7-1.3-8.0-3.1c-1.6-1.0-3.1-2.1-4.5-3.4c-6.7-6.4-9.7-16.3-5.9-25.3c2.5-5.1,5.7-9.5,10.8-12.1c6.1-3.0,11.8-3.6,18.4-2.0c8.3,2.0,15.9,9.0,17.5,17.8C78.1,178.4,78.3,180.0,78.3,181.6z"/>
			</g>
			<g>
				<path fill="#333333" d="M62.5,194.9c-0.0,0.4-0.0,0.8-0.0,1.4c0.0,0.5,0.0,0.8,0.0,1.0c-1.9-0.0-3.3-0.0-4.0-0.0c-4.7,0.0-8.2,0.2-10.4,0.5c-0.1-1.5-0.3-3.0-0.5-4.6c1.3-0.2,2.8-0.4,4.6-0.5c-0.1-1.7-0.2-3.8-0.2-6.3c0.0-3.1,0.1-6.7,0.4-10.8c-0.5,0.8-1.2,1.5-1.9,2.1c-0.7,0.6-1.5,1.2-2.5,1.7c-0.8-1.5-1.7-2.8-2.7-3.8c1.7-1.0,3.3-2.3,4.7-3.9c1.0-1.2,1.9-2.3,2.5-3.2c0.6-0.9,1.1-1.8,1.5-2.7c0.2,0.2,0.6,0.3,1.2,0.5c0.6,0.2,1.4,0.4,2.4,0.7l1.8,0.5c-1.0,3.7-1.5,8.7-1.6,15.1v1.6c0.0,3.3,0.1,6.0,0.3,8.2c1.6,0.0,3.1,0.1,4.5,0.1v0.2C62.5,193.1,62.5,193.7,62.5,194.9z"/>
			</g>
		</g>
		<g>
			<g>
				<path fill="#F5DD4C" d="M190.4,207.4c-1.5-0.6-2.9-1.3-4.3-2.1c-0.0-0.0-0.0-0.0-0.1-0.0c-2.9-1.8-5.6-3.7-7.6-6.9c-1.3-1.6-2.4-3.4-3.3-5.3c-5.0-10.4-3.4-22.2,4.1-30.1c0.1-0.1,0.2-0.2,0.2-0.2c3.6-3.2,9.2-7.6,16.8-8.3c5.0-0.5,9.5,0.1,13.7,1.7c2.3,0.9,4.6,2.1,6.9,3.7c8.8,6.0,13.6,17.1,11.7,26.9c-0.3,1.8-0.8,3.5-1.4,5.2c-2.2,6.4-7.0,11.5-13.6,14.6C206.3,209.9,197.6,210.2,190.4,207.4z"/>
			</g>
			<g>
				<path fill="#FFFFFF" d="M224.8,181.9c0.5,14.1-14.3,25.2-27.9,22.7c-3.1-0.6-5.6-1.2-7.8-3.0c-1.6-0.9-3.0-2.0-4.4-3.3c-6.6-6.2-9.4-15.8-5.8-24.6c2.5-4.9,5.6-9.3,10.5-11.7c5.9-3.0,11.5-3.5,17.9-2.0c8.1,2.0,15.5,8.8,17.0,17.3C224.7,178.8,224.8,180.4,224.8,181.9z"/>
			</g>
			<g>
				<path fill="#333333" d="M199.8,197.2c-1.5,0.0-3.0-0.3-4.4-0.9c-1.4-0.6-2.7-1.4-3.8-2.5c0.9-1.5,1.6-3.0,2.2-4.7c1.2,1.2,2.4,2.0,3.7,2.4c0.7,0.2,1.4,0.3,2.0,0.3c0.9,0.0,1.7-0.2,2.4-0.5c0.7-0.4,1.3-0.9,1.7-1.5c0.5-0.7,0.7-1.4,0.7-2.1c0.0-0.7-0.2-1.3-0.5-1.9c-0.3-0.6-0.8-1.1-1.4-1.5c-0.6-0.4-1.2-0.7-1.9-0.9c-0.5-0.1-1.1-0.2-1.7-0.2c-1.3,0.0-2.8,0.3-4.4,1.0c0.2-2.5,0.3-5.0,0.3-7.7c0.0-3.0-0.1-6.0-0.3-8.8c0.0,0.1,1.1,0.2,3.4,0.2h1.6c2.0,0.0,4.1-0.1,6.1-0.2c0.5-0.0,1.3-0.1,2.5-0.2c1.1-0.1,1.7-0.2,1.7-0.2c0.2,2.1,0.3,3.7,0.4,4.7l-10.4,0.7l0.2,5.5c0.5-0.1,0.9-0.1,1.5-0.1c1.5,0.0,2.9,0.4,4.2,1.1c1.3,0.7,2.4,1.7,3.2,2.9c0.5,0.8,0.9,1.6,1.2,2.5c0.3,0.9,0.4,1.8,0.4,2.8c0.0,1.6-0.4,3.1-1.1,4.5c-0.8,1.5-1.9,2.8-3.4,3.7c-1.5,1.0-3.1,1.6-4.8,1.8C200.6,197.2,200.2,197.2,199.8,197.2z"/>
			</g>
		</g>
		<g>
			<g>
				<path fill="#B4E34C" d="M148.6,64.6c0.1-1.5,0.4-3.0,0.7-4.5c0.0-0.0,0.0-0.0,0.0-0.1c0.9-3.2,1.9-6.2,4.3-8.9c1.2-1.6,2.5-3.2,4.0-4.5c8.3-7.5,19.8-9.3,29.2-4.5c0.1,0.0,0.2,0.1,0.3,0.1c4.0,2.4,9.7,6.4,12.5,13.2c1.8,4.5,2.6,8.8,2.2,13.1c-0.2,2.4-0.7,4.8-1.5,7.4c-3.2,9.8-12.1,17.3-21.7,18.3c-1.7,0.2-3.5,0.3-5.2,0.1c-6.6-0.3-12.7-3.3-17.4-8.6C150.8,80.0,148.1,72.1,148.6,64.6z"/>
			</g>
			<g>
				<path fill="#FFFFFF" d="M198.4,66.7c0.5,13.8-14.0,24.7-27.3,22.2c-3.0-0.6-5.4-1.2-7.6-2.9c-1.6-0.9-3.0-2.0-4.3-3.2c-6.4-6.1-9.2-15.5-5.7-24.1c2.4-4.8,5.4-9.1,10.3-11.5c5.8-2.9,11.2-3.5,17.5-1.9c7.9,1.9,15.2,8.6,16.6,17.0C198.3,63.7,198.4,65.2,198.4,66.7z"/>
			</g>
			<g>
				<path fill="#333333" d="M184.8,67.3c0.5,1.2,0.8,2.5,0.8,3.9c0.0,1.5-0.3,3.0-0.9,4.4c-0.4,0.9-0.9,1.7-1.5,2.4c-0.6,0.7-1.3,1.4-2.1,1.9c-0.9,0.6-1.8,1.1-2.8,1.4c-1.0,0.3-2.0,0.5-3.1,0.5c-1.0,0.0-2.0-0.1-3.0-0.4c-1.0-0.3-1.9-0.7-2.7-1.3c-1.2-0.9-2.2-2.0-2.8-3.3c-0.6-1.4-1.1-2.9-1.3-4.6c-0.1-0.9-0.2-1.8-0.2-2.8c0.0-2.4,0.4-4.8,1.2-7.1c0.8-2.3,2.0-4.4,3.5-6.3c1.4-1.7,3.2-2.9,5.5-3.6c1.1-0.4,2.2-0.5,3.4-0.5c0.6,0.0,1.3,0.0,2.0,0.1c0.7,0.1,1.4,0.2,2.1,0.4c-0.1,0.1-0.3,0.5-0.5,1.2c-0.2,0.6-0.4,1.0-0.5,1.3c-0.2,0.5-0.4,1.0-0.6,1.4c-0.2,0.4-0.3,0.7-0.3,0.9c-1.1-0.4-1.9-0.5-2.5-0.5c-1.3,0.0-2.6,0.4-3.7,1.3c-0.9,0.7-1.7,1.5-2.4,2.5c-0.3,0.5-0.6,1.0-0.9,1.5c-0.1,0.2-0.2,0.5-0.3,0.8c-0.1,0.4-0.2,0.6-0.3,0.8c0.1-0.1,0.3-0.1,0.6-0.3c0.3-0.1,0.6-0.3,0.8-0.4c1.3-0.6,2.7-0.9,4.2-0.9c1.1,0.0,2.2,0.2,3.3,0.6c1.1,0.4,2.0,1.0,2.9,1.7C183.5,65.0,184.3,66.0,184.8,67.3zM180.9,71.3c0.0-0.9-0.2-1.8-0.7-2.5c-0.5-0.8-1.1-1.4-1.9-1.8c-0.8-0.4-1.7-0.6-2.6-0.6c-0.7,0.0-1.3,0.1-2.0,0.3c-0.6,0.2-1.2,0.5-1.7,1.0c-0.5,0.4-0.9,0.9-1.2,1.5c-0.4,0.9-0.6,1.8-0.6,2.8c0.0,1.1,0.3,2.2,0.8,3.1c0.5,0.9,1.3,1.6,2.2,2.0c0.6,0.2,1.2,0.3,1.8,0.3c0.8,0.0,1.7-0.2,2.6-0.7c1.1-0.6,2.0-1.5,2.7-2.7C180.7,73.1,180.9,72.2,180.9,71.3z"/>
			</g>
		</g>
		<g>
			<path fill="#0FC9E8" d="M62.3,113.5c-5.5-3.1-12.9-2.2-17.9,1.7c-1.9,1.5-3.4,3.3-4.3,5.5c-1.8,4.0-1.6,8.8,0.4,12.7c3.6,6.9,12.7,9.7,19.8,6.7c4.5-1.9,7.6-6.2,8.6-10.8c0.8-3.9,0.2-8.2-2.0-11.6C65.7,115.9,64.1,114.5,62.3,113.5z"/>
			<path fill="#04A0C4" d="M54.3,142.9c-6.2,0.0-12.2-3.2-15.1-8.7c-2.3-4.3-2.5-9.6-0.5-14.0c1.0-2.3,2.7-4.4,4.8-6.1c5.6-4.4,13.7-5.2,19.6-1.9l0.0,0.0c2.1,1.2,3.8,2.7,5.1,4.7c2.4,3.6,3.2,8.2,2.2,12.7c-1.1,5.4-4.8,9.9-9.5,11.9C58.8,142.5,56.5,142.9,54.3,142.9zM54.9,113.1c-3.4,0.0-6.8,1.1-9.6,3.3c-1.7,1.4-3.1,3.1-3.9,4.9c-1.6,3.6-1.4,7.9,0.4,11.4c3.2,6.0,11.4,8.8,17.9,6.0c3.8-1.6,6.7-5.3,7.7-9.8c0.8-3.7,0.2-7.6-1.8-10.5c-1.0-1.6-2.4-2.8-4.0-3.8l0.0,0.0C59.6,113.7,57.2,113.1,54.9,113.1z"/>
		</g>
		<g>
			<path fill="#FFD400" d="M99.4,111.4c-6.1,1.6-10.8,7.3-11.7,13.7c-0.3,2.3-0.1,4.8,0.7,7.0c1.5,4.1,5.0,7.5,9.1,8.9c7.4,2.4,15.9-1.8,18.9-8.9c1.9-4.5,1.2-9.7-1.3-13.7c-2.1-3.4-5.5-6.1-9.5-7.0C103.5,110.8,101.3,110.9,99.4,111.4z"/>
			<path fill="#D19602" d="M101.9,143.1c-1.6,0.0-3.3-0.2-4.9-0.8c-4.6-1.5-8.4-5.2-10.1-9.8c-0.9-2.4-1.1-5.0-0.8-7.7c1.0-7.1,6.3-13.2,12.8-14.9l0.0,0.0c2.3-0.6,4.6-0.6,6.9-0.1c4.2,0.9,8.0,3.7,10.4,7.7c2.9,4.7,3.4,10.5,1.4,15.1C115.0,139.0,108.5,143.1,101.9,143.1zM99.8,112.9c-5.4,1.4-9.8,6.5-10.6,12.4c-0.3,2.2-0.1,4.3,0.6,6.3c1.3,3.7,4.5,6.7,8.2,7.9c6.5,2.1,14.3-1.6,17.1-8.0c1.6-3.8,1.2-8.5-1.2-12.4c-2.0-3.3-5.1-5.6-8.5-6.3C103.4,112.3,101.6,112.4,99.8,112.9L99.8,112.9z"/>
		</g>
		<g>
			<path fill="#FFD400" d="M166.2,131.2c1.5-6.1-1.1-13.0-6.3-16.9c-1.9-1.4-4.1-2.4-6.4-2.8c-4.3-0.7-8.9,0.7-12.2,3.7c-5.7,5.3-6.1,14.7-1.4,20.9c3.0,3.8,7.9,5.7,12.7,5.5c4.0-0.2,8.0-1.9,10.7-4.9C164.7,135.0,165.7,133.1,166.2,131.2z"/>
			<path fill="#D19602" d="M151.8,143.1c-5.2,0.0-10.1-2.3-13.0-6.1c-5.3-6.9-4.6-17.1,1.5-22.9c3.6-3.3,8.6-4.9,13.4-4.1c2.5,0.4,5.0,1.5,7.1,3.1c5.7,4.3,8.5,11.9,6.8,18.4l0.0,0.0c-0.6,2.3-1.7,4.4-3.3,6.1c-2.8,3.2-7.1,5.2-11.7,5.4C152.4,143.1,152.1,143.1,151.8,143.1zM151.3,112.9c-3.3,0.0-6.6,1.3-9.0,3.5c-5.0,4.6-5.5,13.2-1.2,18.8c2.5,3.3,6.9,5.1,11.4,4.9c3.8-0.2,7.3-1.8,9.7-4.4c1.3-1.4,2.1-3.1,2.6-4.9c1.4-5.4-1.0-11.7-5.7-15.3c-1.8-1.3-3.7-2.2-5.8-2.5C152.6,112.9,152.0,112.9,151.3,112.9z"/>
		</g>
		<g>
			<path fill="#FFD400" d="M190.4,137.9c4.8,4.0,12.3,4.5,17.9,1.4c2.1-1.1,3.9-2.7,5.2-4.7c2.5-3.6,3.1-8.4,1.8-12.6c-2.4-7.4-10.8-11.8-18.3-10.1c-4.7,1.1-8.5,4.8-10.3,9.2c-1.5,3.7-1.7,8.1-0.1,11.8C187.5,134.9,188.8,136.6,190.4,137.9z"/>
			<path fill="#D19602" d="M200.4,142.8c-4.0,0.0-7.9-1.3-10.9-3.7c-1.8-1.5-3.2-3.4-4.2-5.5c-1.7-3.9-1.7-8.6,0.1-12.9c2.1-5.1,6.4-8.9,11.4-10.1c8.5-1.9,17.5,3.0,20.1,11.1c1.5,4.7,0.8,9.8-2.0,13.9c-1.4,2.1-3.4,3.9-5.8,5.1C206.4,142.1,203.4,142.8,200.4,142.8zM200.4,113.1c-1.0,0.0-2.0,0.1-3.0,0.3c-4.0,0.9-7.6,4.1-9.3,8.3c-1.4,3.5-1.5,7.4-0.1,10.6c0.7,1.7,1.9,3.2,3.3,4.4l0.0,0.0c4.3,3.6,11.0,4.1,16.3,1.3c1.9-1.0,3.6-2.5,4.7-4.2c2.2-3.2,2.8-7.6,1.6-11.3C212.2,116.9,206.3,113.1,200.4,113.1z"/>
		</g>
		<g>
			<path fill="#FFD400" d="M258.2,113.5c-5.5-3.1-12.9-2.2-17.9,1.7c-1.9,1.5-3.4,3.3-4.3,5.5c-1.8,4.0-1.6,8.8,0.4,12.7c3.6,6.9,12.7,9.7,19.8,6.7c4.5-1.9,7.6-6.2,8.6-10.8c0.8-3.9,0.2-8.2-2.0-11.6C261.6,115.9,260.0,114.5,258.2,113.5z"/>
			<path fill="#D19602" d="M250.2,142.9c-6.2,0.0-12.2-3.2-15.1-8.7c-2.3-4.3-2.5-9.6-0.5-14.0c1.0-2.3,2.7-4.4,4.8-6.1c5.6-4.4,13.7-5.2,19.6-1.9l0.0,0.0c2.1,1.2,3.8,2.7,5.1,4.7c2.4,3.6,3.2,8.2,2.2,12.7c-1.1,5.4-4.8,9.9-9.5,11.9C254.7,142.5,252.4,142.9,250.2,142.9zM250.8,113.1c-3.4,0.0-6.8,1.1-9.6,3.3c-1.7,1.4-3.1,3.1-3.9,4.9c-1.6,3.6-1.4,7.9,0.4,11.4c3.2,6.0,11.4,8.8,17.9,6.0c3.8-1.6,6.7-5.3,7.7-9.8c0.8-3.7,0.2-7.6-1.8-10.5c-1.0-1.6-2.4-2.8-4.0-3.8l0.0,0.0C255.5,113.7,253.2,113.1,250.8,113.1z"/>
		</g>
		<g>
			<path fill="#FFD400" d="M288.5,115.2c-4.3,4.5-5.4,11.9-2.9,17.8c0.9,2.2,2.4,4.1,4.2,5.6c3.4,2.7,8.1,3.8,12.4,2.8c7.6-1.8,12.6-9.8,11.5-17.4c-0.7-4.8-4.0-8.9-8.3-11.0c-3.6-1.8-7.9-2.3-11.7-1.0C291.7,112.6,289.9,113.7,288.5,115.2z"/>
			<path fill="#D19602" d="M299.0,143.2c-3.6,0.0-7.2-1.2-10.1-3.5c-2.0-1.6-3.6-3.7-4.7-6.2c-2.8-6.5-1.5-14.5,3.2-19.4c1.6-1.7,3.6-3.0,5.9-3.7c4.1-1.4,8.8-1.0,12.9,1.1c4.9,2.5,8.4,7.1,9.1,12.2c1.2,8.6-4.5,17.2-12.7,19.1C301.4,143.1,300.2,143.2,299.0,143.2zM298.3,112.6c-1.4,0.0-2.7,0.2-4.0,0.6c-1.8,0.6-3.4,1.6-4.7,3.0v0.0c-3.9,4.0-5.0,10.7-2.6,16.1c0.9,2.0,2.2,3.8,3.8,5.0c3.1,2.4,7.3,3.4,11.1,2.5c6.6-1.5,11.4-8.8,10.4-15.8c-0.6-4.1-3.4-7.9-7.5-9.9C302.7,113.2,300.5,112.6,298.3,112.6z"/>
		</g>
	</g>
</svg>
