<?xml version='1.0' encoding='UTF-8'?>
<svg xmlns="http://www.w3.org/2000/svg" xmlns:xlink="http://www.w3.org/1999/xlink" width="36" height="48"><g id="seven">
		<path id="XMLID_529_" fill="#333333" d="M13.4,10.2c-4.6-0.2-8.7-0.8-12.1-1.8c0.7-2.8,1.2-5.0,1.5-6.6h0.1c4.3,1.3,8.9,1.9,13.6,1.9c4.6,0.0,9.3-0.6,14.1-1.8c0.1,0.2,0.5,1.2,1.3,2.8c0.8,1.8,1.3,2.7,1.4,2.8c-8.8,10.0-13.2,22.5-13.2,37.5c0.0,0.1-0.0,0.2-0.0,0.3l-0.1,0.3l-7.0,0.1c-0.2-1.7-0.3-3.4-0.3-5.2c0.0-4.9,0.8-9.8,2.3-14.7c2.1-6.5,4.8-11.8,8.2-15.8c-1.2,0.3-3.1,0.5-5.6,0.5C16.2,10.3,14.8,10.3,13.4,10.2z"/>
	</g>
</svg>
