<?xml version='1.0' encoding='UTF-8'?>
<svg xmlns="http://www.w3.org/2000/svg" xmlns:xlink="http://www.w3.org/1999/xlink" width="58" height="82"><g id="squareTarget4" opacity="0.5">
		<g>
			<path fill="#FFFFFF" d="M50.0,79.7c-1.1,0.0-2.0-0.9-2.0-2.0c-0.0-1.1,0.8-2.0,2.0-2.0c0.4-0.0,0.7-0.0,1.1-0.0c0.0-0.4,0.0-0.7,0.0-1.1c0.0-1.1,1.0-2.0,2.1-1.9c1.1,0.0,2.0,1.0,1.9,2.1c-0.0,1.0-0.1,2.0-0.1,3.0c-0.0,1.1-0.9,2.0-2.0,1.9l-0.3-0.0c-0.2,0.0-0.4,0.0-0.7,0.0c-0.6,0.0-1.3,0.0-1.9,0.1C50.0,79.7,50.0,79.7,50.0,79.7z"/>
		</g>
		<g>
			<path fill="#FFFFFF" d="M53.4,64.0c-1.1,0.0-2.0-0.9-2.0-2.0l-0.0-0.6c-0.0-0.9-0.1-1.7-0.1-2.6c-0.0-1.0-0.1-2.1-0.1-3.1c-0.0-1.1,0.8-2.0,1.9-2.1c1.1-0.0,2.0,0.8,2.1,1.9c0.0,1.0,0.1,2.0,0.1,3.0c0.0,0.9,0.1,1.8,0.1,2.7l0.0,0.6c0.0,1.1-0.8,2.0-2.0,2.0C53.4,64.0,53.4,64.0,53.4,64.0zM53.3,45.0c-1.1,0.0-2.0-0.9-2.0-2.0c-0.0-1.4-0.1-2.9-0.1-4.3l-0.0-2.0c-0.0-1.1,0.9-2.0,2.0-2.0c1.1-0.0,2.0,0.9,2.0,2.0l0.0,2.0c0.0,1.4,0.1,2.9,0.1,4.3c0.0,1.1-0.9,2.0-2.0,2.0C53.3,45.0,53.3,45.0,53.3,45.0zM53.1,26.0c-0.0,0.0-0.0,0.0-0.0,0.0c-1.1-0.0-2.0-0.9-2.0-2.0c0.0-2.1,0.1-4.2,0.1-6.3c0.0-1.1,0.9-2.0,2.0-2.0c0.0,0.0,0.0,0.0,0.0,0.0c1.1,0.0,2.0,0.9,2.0,2.0c-0.0,2.2-0.0,4.3-0.1,6.4C55.1,25.1,54.2,26.0,53.1,26.0z"/>
		</g>
		<g>
			<path fill="#FFFFFF" d="M53.1,7.0c-0.0,0.0-0.0,0.0-0.0,0.0c-1.1-0.0-2.0-0.9-2.0-2.0c0.0-0.1,0.0-0.3,0.1-0.4l0.0-0.0c0.0-0.1,0.0-0.3,0.0-0.5L50.0,4.0c-1.1,0.0-2.0-0.9-2.0-2.0s0.9-2.0,2.0-2.0l3.1-0.0c1.1-0.0,2.0,0.8,2.0,1.9c0.0,1.0,0.0,2.1,0.0,2.7l-0.0,0.1c-0.0,0.1-0.0,0.1-0.0,0.2l-0.0,0.2c-0.0,0.1-0.1,0.3-0.1,0.4C54.7,6.4,54.0,7.0,53.1,7.0z"/>
		</g>
		<g>
			<path fill="#FFFFFF" d="M22.3,4.7c-0.0,0.0-0.0,0.0-0.0,0.0c-1.4-0.0-2.8-0.1-4.2-0.1c-0.5-0.0-0.9-0.0-1.4-0.1c-1.1-0.1-1.9-1.0-1.9-2.1c0.1-1.1,1.0-1.9,2.1-1.9c0.5,0.0,0.9,0.1,1.4,0.1c1.3,0.1,2.7,0.1,4.1,0.1c1.1,0.0,2.0,0.9,2.0,2.0C24.3,3.8,23.4,4.7,22.3,4.7zM33.5,4.5c-1.1,0.0-2.0-0.8-2.0-1.9c-0.0-1.1,0.8-2.0,1.9-2.1c1.8-0.1,3.7-0.2,5.5-0.2c1.1-0.1,2.0,0.8,2.1,1.9c0.1,1.1-0.8,2.0-1.9,2.1c-1.9,0.1-3.7,0.2-5.6,0.3C33.5,4.5,33.5,4.5,33.5,4.5z"/>
		</g>
		<g>
			<path fill="#FFFFFF" d="M3.0,7.0c-0.6,0.0-1.1-0.2-1.4-0.6c-0.6-0.5-0.7-1.1-0.7-1.5c-0.0-0.3-0.0-0.7-0.1-1.1c-0.0-0.6-0.1-1.2-0.1-1.8c0.0-1.0,0.8-1.9,1.8-2.0c0.7-0.1,1.5-0.1,2.4-0.1l0.3-0.0c0.2,0.0,0.4-0.0,0.6,0.0c1.1,0.0,2.0,0.9,2.0,2.0c-0.0,1.1-0.9,2.0-2.0,2.0l-0.8,0.0c-0.0,0.0-0.1,0.0-0.1,0.0c0.0,0.1,0.0,0.2,0.0,0.3c0.1,0.3,0.2,0.5,0.2,0.8C5.0,6.1,4.1,7.0,3.0,7.0z"/>
		</g>
		<g>
			<path fill="#FFFFFF" d="M2.6,64.0c-0.0,0.0-0.0,0.0-0.0,0.0c-1.1-0.0-2.0-0.9-2.0-2.0c0.0-2.1,0.0-4.2,0.0-6.4c0.0-1.1,0.9-2.0,2.0-2.0c1.1,0.0,2.0,0.9,2.0,2.0c-0.0,2.1-0.0,4.2-0.0,6.3C4.6,63.1,3.7,64.0,2.6,64.0zM2.9,45.0c-0.0,0.0-0.0,0.0-0.0,0.0c-1.1-0.0-2.0-0.9-2.0-2.0c0.0-0.7,0.0-1.5,0.0-2.2c0.0-1.3-0.0-2.7-0.0-4.0c-0.0-1.1,0.8-2.0,2.0-2.0c1.1-0.0,2.0,0.8,2.0,2.0c0.0,1.4,0.0,2.7,0.0,4.1c0.0,0.8-0.0,1.5-0.0,2.3C4.8,44.1,3.9,45.0,2.9,45.0zM2.7,26.0c-0.0,0.0-0.0,0.0-0.0,0.0c-1.1-0.0-2.0-0.9-2.0-2.0c0.0-1.4,0.0-2.8,0.0-4.3c0.0-0.7-0.0-1.3-0.0-2.0c-0.0-1.1,0.9-2.0,2.0-2.0c1.1,0.0,2.0,0.9,2.0,2.0c0.0,0.7,0.0,1.3,0.0,2.0c0.0,1.5-0.0,3.0-0.0,4.4C4.7,25.1,3.8,26.0,2.7,26.0z"/>
		</g>
		<g>
			<path fill="#FFFFFF" d="M5.6,79.8c-0.0,0.0-0.0,0.0-0.0,0.0c-1.0-0.0-2.0-0.1-3.0-0.1l-0.1-0.0c-1.0-0.1-1.8-0.9-1.9-1.9c-0.0-0.7-0.0-1.5,0.0-2.1l0.0-1.0c0.0-1.1,0.9-2.0,2.0-2.0c0.0,0.0,0.0,0.0,0.0,0.0c1.1,0.0,2.0,0.9,2.0,2.0l-0.0,1.0c0.0,0.0-0.0,0.0-0.0,0.1c0.3,0.0,0.7,0.0,1.0,0.0c1.1,0.0,2.0,0.9,2.0,2.0C7.6,78.9,6.7,79.8,5.6,79.8z"/>
		</g>
		<g>
			<path fill="#FFFFFF" d="M33.3,79.9c-1.1,0.0-2.0-0.9-2.0-2.0c-0.0-1.1,0.9-2.0,2.0-2.0l0.9-0.0c0.7-0.0,1.4-0.0,2.1-0.0c0.9-0.0,1.7-0.0,2.5-0.1c1.1-0.0,2.0,0.9,2.0,2.0c0.0,1.1-0.9,2.0-2.0,2.0c-0.8,0.0-1.6,0.0-2.4,0.0c-0.8,0.0-1.5,0.0-2.3,0.0l-0.9,0.0C33.4,79.9,33.3,79.9,33.3,79.9zM22.2,79.9c-0.0,0.0-0.0,0.0-0.1-0.0l-1.9-0.1c-0.4-0.0-0.9-0.0-1.3-0.1l-1.2-0.1c-0.1-0.0-0.1-0.0-0.2-0.0l-0.3-0.1c-0.2-0.0-0.4-0.1-0.5-0.1l-0.2-0.0c-1.1-0.1-1.9-1.1-1.7-2.2c0.1-1.1,1.1-1.9,2.2-1.7l0.3,0.0c0.2,0.0,0.4,0.1,0.6,0.1l0.1,0.0l1.2,0.1c0.4,0.0,0.8,0.1,1.2,0.1l1.9,0.1c1.1,0.0,2.0,1.0,1.9,2.1C24.2,79.1,23.3,79.9,22.2,79.9z"/>
		</g>
	</g>
</svg>
