<?xml version='1.0' encoding='UTF-8'?>
<svg xmlns="http://www.w3.org/2000/svg" xmlns:xlink="http://www.w3.org/1999/xlink" version="1.1" x="0px" y="0px" width="84px" height="80px" viewBox="0 0 84 80" enable-background="new 0 0 84 80" xml:space="preserve"><g id="star2">
		<g id="XMLID_11233_">
			<path id="XMLID_11234_" fill="#FF7BAC" d="M81.6,27.2c-4.1-2.1-8.4-3.4-12.9-4.6c-3.5-0.9-7.4-2.0-11.1-2.4c-0.7-0.9-1.4-1.7-2.0-2.6c-1.3-2.0-2.5-4.1-3.8-6.1c-2.3-3.8-5.0-9.2-9.3-11.0c0.0,0.0,0.0,0.0,0.0,0.0c-1.2-0.7-2.8-0.7-3.9,0.8c-4.6,6.8-9.9,13.1-15.0,19.5c-2.1,0.5-4.3,1.1-6.3,1.6c-5.0,1.3-10.3,2.3-15.1,4.1c-2.5,1.0-3.9,2.5-0.7,6.3c2.0,3.6,5.2,6.5,7.6,9.8c2.0,2.7,3.9,5.9,6.2,8.5c-0.7,7.8-1.4,15.7-1.0,23.5c0.3,4.2,2.7,5.9,7.2,1.7c1.1-0.6,2.2-1.3,3.4-2.0c2.4-1.6,5.0-2.9,7.5-4.3c2.5-1.3,5.0-2.5,7.5-3.5c2.6,1.7,5.4,3.2,7.9,4.7c4.6,2.8,9.3,5.5,14.1,7.9c2.6,1.3,5.3-1.0,5.1-3.7c-0.5-9.5,0.5-19.2,0.7-28.7c0.0-0.2,0.0-0.3,0.0-0.4c5.0-4.5,9.6-9.4,14.7-13.7C84.6,31.0,83.6,28.3,81.6,27.2z"/>
			<g id="XMLID_11236_">
				<g id="XMLID_11237_">
					<g id="XMLID_11238_">
						<path id="XMLID_8650_" fill="#FCFCFC" d="M53.3,33.6c0.2,9.1-9.9,14.8-18.3,12.1c-7.0-2.2-11.0-8.9-9.2-15.9c1.8-4.8,5.8-8.3,11.1-9.2c7.1-0.8,14.5,2.7,15.9,9.6C53.1,31.3,53.3,32.4,53.3,33.6z"/>
						<path id="XMLID_8647_" d="M39.3,37.7c2.2,0.2,3.7-1.3,4.6-2.9c0.3-0.5,0.9-3.1,0.1-4.3c-1.6-2.1-3.9-3.6-6.6-2.4c-2.8,1.7-3.7,4.6-1.9,7.4C36.5,37.1,37.8,37.8,39.3,37.7z"/>
						
							<ellipse id="XMLID_8638_" transform="matrix(0.00601285 -1.0 1.0 0.00601285 -580.7072000000001 321.1376)" fill="#FCFCFC" cx="293.5" cy="622.4" rx="2.4" ry="3"/>
					</g>
					<path id="XMLID_11239_" opacity="0.5" d="M64.1,48.5c-0.1-0.2-0.2-0.4-0.4-0.5c-0.2-0.3-0.5-0.5-0.8-0.7c-0.8-0.5-1.8-0.7-2.7-0.7c-0.1,0.0-0.1,0.0-0.2,0.0c-0.4-0.1-0.9,0.0-1.3,0.2c-1.4,0.3-2.8,1.0-3.9,2.0c-1.0,0.9,0.5,2.5,1.5,1.7c0.0,0.0,0.0,0.0,0.1,0.0c-0.4,1.3-0.9,2.6-1.7,3.7c-1.8,2.4-4.4,3.8-7.3,4.7c-6.6,2.0-17.1-0.3-20.6-6.8c-0.9-1.6-3.7-0.8-3.2,1.0c2.1,7.9,12.5,11.0,20.0,11.2c4.6,0.1,9.5-1.5,13.0-4.4c2.4-2.0,5.3-5.7,5.5-9.2c0.1,0.2,0.3,0.4,0.5,0.5c0.4,0.2,1.4-0.4,1.4-0.4C64.5,49.9,64.5,49.2,64.1,48.5z"/>
				</g>
			</g>
		</g>
	</g>
	</svg>
