<?xml version='1.0' encoding='UTF-8'?>
<svg xmlns="http://www.w3.org/2000/svg" xmlns:xlink="http://www.w3.org/1999/xlink" width="48" height="50"><g id="sumOnes9">
		<path fill-rule="evenodd" clip-rule="evenodd" fill="#F5ED15" d="M33.9,9.7c-1.6,1.3-2.7,2.8-3.0,4.5c-1.6,1.7-2.6,3.8-3.6,6.1c-1.3,3.1-1.9,7.2-4.9,9.1c-4.9,3.0-11.5,2.6-16.7,5.3c-2.6,1.3-3.3,4.1-2.4,6.7c6.8,19.2,57.4-10.4,38.5-32.0C39.4,6.6,35.7,7.2,33.9,9.7z"/>
		<path fill-rule="evenodd" clip-rule="evenodd" fill="#E9D214" d="M24.8,22.4c-2.5,5.5-6.3,7.1-11.9,8.6c-3.7,1.0-7.2,2.2-9.7,5.2c-0.2,0.3-0.3,0.6-0.3,0.9c-0.5,1.0-0.1,2.5,1.4,2.6c3.8,0.4,7.5,0.1,10.9-0.8c0.5-0.0,1.0-0.1,1.6-0.1c0.5-0.1,0.9-0.3,1.1-0.6c5.0-1.7,9.4-4.6,13.0-8.5c1.9-1.6,3.5-3.6,4.6-6.0c2.6-4.2,4.4-9.0,5.2-14.2c0.1-0.9-0.7-1.9-1.6-1.9C30.6,7.7,27.7,15.9,24.8,22.4z"/>
		<path fill-rule="evenodd" clip-rule="evenodd" fill="#F5ED15" d="M42.9,1.8c-0.5-0.6-1.5-1.0-2.3-0.6c-0.9,0.5-1.3,0.9-1.4,1.8c-0.7,1.7-1.1,3.4-1.0,5.3c0.1,2.0,3.2,2.3,3.2,0.1c0.0-1.5,0.6-3.0,1.4-4.3C43.4,3.4,43.5,2.5,42.9,1.8z"/>
		<path fill-rule="evenodd" clip-rule="evenodd" fill="#F5ED15" d="M4.2,38.1c-0.4-0.8-1.1-1.4-2.1-1.1c-0.9,0.3-1.3,1.2-1.1,2.1c0.1,0.3,0.1,0.5,0.2,0.8c0.4,0.8,1.2,1.4,2.1,1.1c0.9-0.3,1.3-1.2,1.1-2.1C4.4,38.5,4.3,38.3,4.2,38.1z"/>
		<circle fill="#00FFFF" cx="23.4" cy="24.2" r="5" opacity="0"/>
	</g>
</svg>
