<?xml version='1.0' encoding='UTF-8'?>
<svg xmlns="http://www.w3.org/2000/svg" xmlns:xlink="http://www.w3.org/1999/xlink" width="56" height="80"><g id="target2">
		<path opacity="0.8" fill="#FFFFFF" d="M51.6,78.0h-0.1c-0.4,0.0-0.8-0.1-1.0-0.2c-0.6,0.0-1.2,0.0-1.8,0.0c-1.1-0.0-2.0-0.9-2.0-2.0c-0.0-1.1,0.9-2.0,2.0-2.0c0.4-0.0,0.7-0.0,1.1-0.0c0.0-0.3,0.0-0.6,0.0-0.9c0.0-1.1,1.0-2.0,2.1-1.9c1.1,0.0,2.0,1.0,1.9,2.1c-0.0,0.8-0.1,1.6-0.1,3.0C53.5,77.2,52.7,78.0,51.6,78.0zM50.7,77.9c-0.0,0.0-0.0,0.0-0.0,0.0C50.7,77.9,50.7,77.9,50.7,77.9z"/>
		<path opacity="0.8" fill="#FFFFFF" d="M51.9,63.0c-1.1,0.0-2.0-0.9-2.0-2.0l-0.0-0.6c-0.0-0.6-0.0-1.1-0.1-1.7l-0.0-1.1c-0.0-0.9-0.1-1.8-0.1-2.7c-0.0-1.1,0.8-2.0,1.9-2.1c1.1-0.0,2.0,0.8,2.1,1.9c0.0,0.9,0.1,1.8,0.1,2.6l0.0,1.1c0.0,0.6,0.1,1.1,0.1,1.7l0.0,0.6c0.0,1.1-0.8,2.0-2.0,2.0C52.0,63.0,52.0,63.0,51.9,63.0zM51.8,44.9c-1.1,0.0-2.0-0.9-2.0-2.0c-0.0-1.4-0.1-2.8-0.1-4.2l-0.0-1.8c-0.0-1.1,0.9-2.0,2.0-2.0c1.1-0.0,2.0,0.9,2.0,2.0l0.0,1.8c0.0,1.4,0.1,2.8,0.1,4.2c0.0,1.1-0.9,2.0-2.0,2.0C51.8,44.9,51.8,44.9,51.8,44.9zM51.6,26.8c-0.0,0.0-0.0,0.0-0.0,0.0c-1.1-0.0-2.0-0.9-2.0-2.0c0.0-2.0,0.1-4.0,0.1-6.0c0.0-1.1,0.9-2.0,2.0-2.0c0.0,0.0,0.0,0.0,0.0,0.0c1.1,0.0,2.0,0.9,2.0,2.0c-0.0,2.0-0.0,4.1-0.1,6.1C53.6,25.9,52.7,26.8,51.6,26.8z"/>
		<path opacity="0.8" fill="#FFFFFF" d="M53.7,6.7l-2.0-0.0l-2.0-0.1l0.0-0.6c0.0-0.1,0.0-0.2,0.0-0.3c-0.3-0.0-0.5-0.0-0.8-0.0l-0.3-0.0l0.1-4.0l0.3,0.0c0.5,0.0,0.9,0.0,1.4,0.0l1.2-0.0c1.1-0.0,2.0,0.8,2.0,1.9c0.0,0.9,0.0,1.9-0.0,2.4L53.7,6.7zM51.7,6.7h0.0H51.7z"/>
		<path opacity="0.8" fill="#FFFFFF" d="M22.1,6.4c-0.0,0.0-0.0,0.0-0.0,0.0c-1.4-0.0-2.8-0.1-4.2-0.1l-1.2-0.1c-1.1-0.1-1.9-1.0-1.9-2.1c0.1-1.1,1.0-1.9,2.1-1.9l1.2,0.1c1.3,0.1,2.6,0.1,4.0,0.1c1.1,0.0,2.0,0.9,2.0,2.0C24.1,5.5,23.2,6.4,22.1,6.4zM32.7,6.2c-1.1,0.0-2.0-0.8-2.0-1.9c-0.0-1.1,0.8-2.0,1.9-2.1c1.8-0.1,3.5-0.1,5.3-0.2c1.1-0.0,2.0,0.8,2.1,1.9c0.1,1.1-0.8,2.0-1.9,2.1c-1.8,0.1-3.6,0.2-5.3,0.2C32.8,6.2,32.8,6.2,32.7,6.2z"/>
		<path opacity="0.8" fill="#FFFFFF" d="M3.2,8.7c-1.1,0.0-2.0-0.9-2.0-1.9l-0.0-0.5c-0.0-0.9-0.0-1.8-0.0-2.6c0.0-1.0,0.8-1.9,1.8-2.0c0.8-0.1,1.6-0.1,2.1-0.1c0.3,0.0,0.6,0.0,1.0,0.0l0.1,0.0c1.1,0.0,2.0,0.9,2.0,2.0c-0.0,1.1-0.9,2.0-2.0,2.0c-0.0,0.0-0.0,0.0-0.0,0.0l-0.1-0.0c-0.3-0.0-0.6-0.0-0.8-0.0c0.0,0.2,0.0,0.4,0.0,0.5l0.0,0.5c0.0,1.1-0.8,2.0-1.9,2.1C3.3,8.7,3.3,8.7,3.2,8.7z"/>
		<path opacity="0.8" fill="#FFFFFF" d="M3.1,62.7c-0.0,0.0-0.0,0.0-0.0,0.0c-1.1-0.0-2.0-0.9-2.0-2.0c0.0-2.0,0.0-4.0,0.0-6.0c0.0-1.1,0.9-2.0,2.0-2.0c1.1,0.0,2.0,0.9,2.0,2.0c-0.0,2.0-0.0,4.0-0.0,6.0C5.1,61.8,4.2,62.7,3.1,62.7zM3.4,44.7c-0.0,0.0-0.0,0.0-0.0,0.0c-1.1-0.0-2.0-0.9-2.0-2.0c0.0-0.7,0.0-1.4,0.0-2.1c-0.0-1.3-0.0-2.5-0.0-3.8c-0.0-1.1,0.8-2.0,2.0-2.0c1.1-0.0,2.0,0.8,2.0,2.0c0.0,1.3,0.0,2.6,0.0,3.9c0.0,0.7-0.0,1.4-0.0,2.1C5.3,43.8,4.5,44.7,3.4,44.7zM3.2,26.7c-0.0,0.0-0.0,0.0-0.0,0.0c-1.1-0.0-2.0-0.9-2.0-2.0c0.0-1.4,0.0-2.9,0.0-4.3c0.0-0.6-0.0-1.1-0.0-1.7c-0.0-1.1,0.9-2.0,2.0-2.0c0.0,0.0,0.0,0.0,0.0,0.0c1.1,0.0,2.0,0.9,2.0,2.0c0.0,0.6,0.0,1.1,0.0,1.7c0.0,1.5-0.0,2.9-0.0,4.3C5.2,25.8,4.3,26.7,3.2,26.7z"/>
		<path opacity="0.8" fill="#FFFFFF" d="M6.1,77.8c-0.0,0.0-0.0,0.0-0.0,0.0c-1.0-0.0-2.1-0.1-3.1-0.1c-1.0-0.1-1.8-0.9-1.8-1.9c-0.0-0.6,0.0-1.3,0.0-1.8c0.0-0.5,0.0-0.9,0.0-1.3c0.0-1.1,0.9-2.0,2.0-2.0c0.0,0.0,0.0,0.0,0.0,0.0c1.1,0.0,2.0,0.9,2.0,2.0c-0.0,0.3-0.0,0.7-0.0,1.1c0.3,0.0,0.7,0.0,1.0,0.0c1.1,0.0,2.0,0.9,2.0,2.0C8.1,77.0,7.2,77.8,6.1,77.8z"/>
		<path opacity="0.8" fill="#FFFFFF" d="M32.6,78.0c-1.1,0.0-2.0-0.9-2.0-2.0c-0.0-1.1,0.9-2.0,2.0-2.0l1.6-0.0c0.5-0.0,1.0-0.0,1.5-0.0c0.4-0.0,0.8-0.0,1.1-0.0l1.1,0.0c1.1,0.0,2.0,0.9,2.0,2.0c-0.0,1.1-0.9,2.0-2.0,2.0c-0.0,0.0-0.0,0.0-0.0,0.0l-1.1-0.0c-0.3,0.0-0.7,0.0-1.0,0.0c-0.5,0.0-1.1,0.0-1.6,0.0l-1.6,0.0C32.7,78.0,32.6,78.0,32.6,78.0zM22.0,77.9c-0.0,0.0-0.0,0.0-0.1-0.0l-2.0-0.1c-0.4-0.0-0.8-0.0-1.2-0.1l-0.1-0.0c-0.4-0.0-0.7-0.0-1.1-0.1c-0.1-0.0-0.2-0.0-0.2-0.0l-0.9-0.1c-1.1-0.1-1.9-1.1-1.7-2.2c0.1-1.1,1.2-1.9,2.2-1.7l0.9,0.1c0.3,0.0,0.7,0.0,1.0,0.1l0.1,0.0c0.4,0.0,0.8,0.0,1.1,0.1l2.0,0.1c1.1,0.0,2.0,1.0,1.9,2.1C24.0,77.1,23.1,77.9,22.0,77.9z"/>
		<circle fill="#00FFFF" cx="32.9" cy="59.0" r="5" opacity="0"/>
	</g>
</svg>
