<?xml version='1.0' encoding='UTF-8'?>
<svg xmlns="http://www.w3.org/2000/svg" xmlns:xlink="http://www.w3.org/1999/xlink" width="78" height="74"><g id="target3">
		<g opacity="0.2">
			<path fill="#111111" d="M74.3,35.8c0.0-2.4-0.2-4.7-0.7-7.0c-2.3-12.9-13.3-24.2-26.8-27.5c-3.5-0.9-6.8-1.3-10.1-1.3c-5.9,0.0-11.6,1.4-17.5,4.3c-8.9,4.4-13.7,12.5-16.5,18.1c-0.1,0.1-0.1,0.3-0.2,0.4c-1.5,3.5-2.3,7.2-2.5,10.9c0.0,0.1,0.0,0.1,0.0,0.2c0.0,0.3,0.0,0.6,0.0,0.8c0.0,0.8,0.0,1.6,0.0,2.4c0.0,0.2,0.0,0.4,0.0,0.7c0.0,0.5,0.1,1.0,0.1,1.5c0.0,0.2,0.0,0.5,0.1,0.7c0.1,0.5,0.1,1.0,0.2,1.5c0.0,0.1,0.0,0.2,0.1,0.3c0.3,1.7,0.8,3.5,1.4,5.1c0.0,0.1,0.1,0.2,0.1,0.3c0.6,1.7,1.3,3.3,2.2,4.9c0.0,0.1,0.1,0.2,0.1,0.3c0.3,0.5,0.6,1.0,0.8,1.5c0.1,0.1,0.2,0.3,0.3,0.4c0.9,1.4,1.9,2.8,3.0,4.1c0.2,0.2,0.4,0.4,0.6,0.7c0.3,0.4,0.6,0.7,1.0,1.1c0.2,0.2,0.4,0.4,0.6,0.7c0.3,0.3,0.6,0.6,0.9,0.9c2.0,1.9,4.1,3.5,6.5,5.0c3.9,3.0,8.1,4.0,12.4,4.9c0.0,0.0,0.1,0.1,0.1,0.1c2.0,0.4,4.1,0.7,6.2,0.7h0.0c10.1,0.0,20.5-4.6,27.8-12.2C71.2,53.5,74.6,44.7,74.3,35.8z"/>
		</g>
		<g opacity="0.5">
			<g>
				<path fill="#FFFFFF" d="M36.8,62.5c-1.1,0.0-2.0-0.9-2.0-2.0c0.0-1.1,0.9-2.0,2.0-2.0h0.1c1.7,0.0,3.4-0.2,5.2-0.7c1.1-0.3,2.2,0.4,2.4,1.5c0.3,1.1-0.4,2.2-1.5,2.4C40.8,62.2,38.8,62.5,36.8,62.5zM25.7,59.6c-0.4,0.0-0.8-0.1-1.1-0.4c-0.2-0.1-0.3-0.2-0.5-0.3c-0.3-0.2-0.6-0.4-0.9-0.6c-1.2-0.7-2.3-1.6-3.5-2.5c-0.8-0.7-1.0-2.0-0.2-2.8c0.7-0.8,2.0-1.0,2.8-0.2c0.9,0.8,1.9,1.5,3.0,2.1c0.4,0.3,0.8,0.5,1.2,0.9c0.1,0.1,0.2,0.2,0.3,0.2c0.9,0.6,1.1,1.9,0.5,2.8C27.0,59.3,26.4,59.6,25.7,59.6zM52.7,56.9c-0.6,0.0-1.2-0.3-1.6-0.8c-0.7-0.9-0.5-2.1,0.4-2.8c1.1-0.8,2.1-1.7,3.0-2.7c0.3-0.3,0.6-0.6,0.9-1.0c0.7-0.8,2.0-0.9,2.8-0.2c0.8,0.7,0.9,2.0,0.2,2.8c-0.3,0.4-0.7,0.7-1.0,1.1c-1.1,1.1-2.2,2.1-3.5,3.1C53.5,56.7,53.1,56.9,52.7,56.9zM14.2,47.2c-0.8,0.0-1.5-0.4-1.8-1.2c-0.3-0.7-0.6-1.4-0.8-2.0l-0.1-0.2c-0.4-1.2-0.7-2.4-1.0-3.6c-0.2-1.1,0.5-2.1,1.6-2.3c1.1-0.2,2.1,0.5,2.3,1.6c0.2,1.0,0.5,2.0,0.8,3.0l0.1,0.2c0.2,0.6,0.4,1.2,0.7,1.7c0.5,1.0,0.0,2.2-1.0,2.6C14.8,47.2,14.5,47.2,14.2,47.2zM62.0,42.8c-0.1,0.0-0.3,0.0-0.4,0.0c-1.1-0.2-1.8-1.3-1.6-2.4c0.2-1.2,0.4-2.4,0.4-3.6c0.0-0.2,0.0-0.4,0.0-0.6c0.0-0.1,0.0-0.3,0.0-0.5c0.0-0.2,0.0-0.4,0.0-0.6c0.0-1.1,0.8-2.0,1.9-2.1c1.1,0.0,2.0,0.8,2.1,1.9c0.0,0.2,0.0,0.5,0.0,0.7c0.0,0.1,0.0,0.2,0.0,0.3c0.0,0.2,0.0,0.5,0.0,0.7c0.0,1.5-0.1,2.9-0.4,4.4C63.7,42.2,62.9,42.8,62.0,42.8zM13.3,30.5c-0.2,0.0-0.4,0.0-0.7-0.1c-1.0-0.4-1.6-1.5-1.2-2.6c0.1-0.3,0.2-0.6,0.3-0.9c0.0-0.1,0.0-0.1,0.1-0.2c0.9-1.7,1.6-3.1,2.5-4.4c0.6-0.9,1.8-1.2,2.8-0.6c0.9,0.6,1.2,1.8,0.6,2.8c-0.7,1.2-1.5,2.4-2.2,4.0c-0.1,0.2-0.2,0.5-0.3,0.7C14.9,30.0,14.1,30.5,13.3,30.5zM59.3,26.2c-0.7,0.0-1.3-0.3-1.7-1.0c-0.9-1.5-2.0-2.9-3.2-4.1c-0.8-0.8-0.8-2.1,0.0-2.8c0.8-0.8,2.1-0.8,2.8,0.0c1.5,1.5,2.8,3.1,3.8,4.9c0.6,0.9,0.3,2.2-0.7,2.7C60.0,26.2,59.6,26.2,59.3,26.2zM24.0,17.4c-0.7,0.0-1.4-0.4-1.8-1.0c-0.5-1.0-0.2-2.2,0.8-2.7c0.2-0.1,0.4-0.2,0.7-0.4c1.7-0.9,3.3-1.5,5.0-2.0c1.1-0.3,2.2,0.3,2.5,1.3c0.3,1.1-0.3,2.2-1.3,2.5c-1.4,0.4-2.9,1.0-4.4,1.8c-0.2,0.1-0.4,0.2-0.5,0.3C24.7,17.4,24.4,17.4,24.0,17.4zM46.2,15.6c-0.2,0.0-0.4,0.0-0.7-0.1c-0.7-0.2-1.3-0.4-2.0-0.6c-1.1-0.3-2.2-0.5-3.2-0.6c-1.1-0.2-1.9-1.2-1.7-2.3c0.2-1.1,1.2-1.9,2.3-1.7c1.1,0.2,2.4,0.4,3.6,0.7c0.8,0.2,1.6,0.4,2.4,0.7c1.0,0.4,1.6,1.5,1.2,2.5C47.8,15.1,47.0,15.6,46.2,15.6z"/>
			</g>
		</g>
	</g>
</svg>
