<?xml version='1.0' encoding='UTF-8'?>
<svg xmlns="http://www.w3.org/2000/svg" xmlns:xlink="http://www.w3.org/1999/xlink" width="72" height="34"><g id="text3">
		<path fill="#333333" d="M1.1,26.5l0.9-0.9l1.7-1.6c0.2-0.2,0.4-0.4,0.5-0.5c0.2-0.1,0.3-0.2,0.3-0.3c0.6,1.1,1.8,2.0,3.5,2.8c0.8,0.4,1.5,0.5,2.3,0.5c0.7,0.0,1.4-0.2,2.1-0.5c0.7-0.3,1.2-0.8,1.6-1.6c0.4-0.7,0.6-1.6,0.6-2.5c0.0-0.7-0.1-1.4-0.4-2.0c-0.3-0.6-0.7-1.1-1.1-1.4c-1.0-0.7-2.4-1.0-4.2-1.0l-1.0-0.0c-0.3,0.0-0.6,0.0-0.8,0.1l-0.0-5.0c1.0-0.0,1.9-0.2,2.8-0.5c0.9-0.3,1.7-0.8,2.4-1.4c0.7-0.6,1.1-1.4,1.1-2.3c0.0-0.2-0.0-0.4-0.1-0.6c-0.1-0.6-0.4-1.1-0.8-1.5c-0.4-0.4-0.9-0.8-1.5-0.9c-0.3-0.1-0.7-0.2-1.1-0.2c-0.6,0.0-1.3,0.2-2.1,0.5c-0.8,0.3-1.6,0.8-2.4,1.4c-0.6-1.2-1.4-2.4-2.3-3.4c1.3-1.1,2.9-1.9,4.9-2.4c0.7-0.2,1.5-0.3,2.3-0.3c0.7,0.0,1.5,0.1,2.4,0.3c1.7,0.4,3.0,1.2,4.0,2.4h0.0c0.9,1.4,1.4,2.8,1.4,4.2c0.0,0.6-0.1,1.2-0.2,1.7c-0.5,1.9-1.6,3.4-3.3,4.4c2.0,0.7,3.5,1.8,4.4,3.4c0.8,1.3,1.2,2.8,1.2,4.3c0.0,0.4-0.0,0.8-0.1,1.2c-0.3,2.2-1.1,4.1-2.4,5.6s-3.2,2.5-5.5,3.0c-0.6,0.1-1.3,0.2-2.0,0.2c-0.8,0.0-1.5-0.1-2.1-0.2c-0.6-0.1-1.4-0.4-2.3-0.7c-0.6-0.2-1.2-0.7-1.9-1.3c-0.7-0.6-1.4-1.3-2.0-1.9c-0.6-0.6-0.9-1.0-0.9-1.0S1.1,26.5,1.1,26.5z"/>
		<path fill="#333333" d="M27.9,31.7c-0.4-0.8-0.8-1.6-1.4-2.5c-0.6-0.9-1.2-1.6-1.8-2.2c1.1-0.8,2.4-1.8,3.9-3.0c1.5-1.2,3.0-2.6,4.5-4.0c1.8-1.7,3.1-3.3,4.1-4.8c0.9-1.5,1.5-2.7,1.7-3.6c0.1-0.3,0.1-0.6,0.1-1.0c0.0-0.5-0.1-1.0-0.2-1.4c-0.3-0.7-0.6-1.3-1.1-1.8c-0.5-0.5-1.1-0.8-1.8-1.0c-0.2-0.1-0.5-0.1-0.8-0.1c-0.7,0.0-1.4,0.2-2.1,0.5c-0.7,0.3-1.3,0.8-1.9,1.3c-0.6,0.6-1.1,1.2-1.6,1.9c-0.1-0.1-0.5-0.5-1.2-1.2c-0.7-0.7-1.5-1.4-2.4-2.3c0.9-1.5,2.0-2.8,3.4-3.8c1.3-1.0,2.8-1.6,4.5-1.8c0.4-0.0,0.7-0.1,1.1-0.1c1.2,0.0,2.3,0.2,3.4,0.7c1.1,0.5,2.1,1.1,2.9,1.9c1.6,1.6,2.5,3.4,2.8,5.6c0.0,0.2,0.0,0.5,0.0,0.9c0.0,2.1-0.7,4.4-2.1,6.9c-1.5,2.7-3.9,5.7-7.2,8.8c0.9-0.2,1.8-0.3,2.9-0.3c0.8,0.0,1.7,0.1,2.7,0.2c2.3,0.3,4.1,0.8,5.2,1.4c-0.4,0.7-0.8,1.9-1.4,3.4c-0.1,0.3-0.2,0.5-0.3,0.7c-0.1,0.2-0.1,0.4-0.1,0.4c-0.0-0.0-0.1-0.0-0.3-0.1c-0.1-0.0-0.3-0.1-0.4-0.1c-1.4-0.3-2.8-0.6-4.1-0.7s-2.6-0.3-3.8-0.3c-1.2,0.0-2.3,0.1-3.3,0.3c-0.9,0.1-1.7,0.3-2.5,0.6c-0.1,0.1-0.3,0.1-0.5,0.2C28.2,31.5,28.1,31.6,27.9,31.7z"/>
		<path fill="#333333" d="M69.2,14.6c0.0,0.3,0.0,0.7,0.0,1.2c0.0,3.1-0.5,6.0-1.6,8.7c-2.0,4.8-5.0,7.1-9.1,7.1c-2.1,0.0-3.8-0.7-5.1-2.1c-1.3-1.4-2.3-3.1-2.9-5.2c-0.6-2.1-0.9-4.2-0.9-6.3c0.0-0.5,0.0-1.1,0.1-1.5c0.2-2.2,0.6-4.5,1.4-6.8c1.0-3.1,2.4-5.5,4.3-7.1c0.6-0.6,1.4-1.0,2.4-1.3c1.0-0.3,2.0-0.5,3.0-0.5c1.1,0.0,2.0,0.2,2.8,0.5c0.8,0.4,1.5,0.9,2.1,1.6c0.6,0.7,1.1,1.5,1.5,2.5c0.6,1.4,1.1,2.9,1.4,4.5C69.0,11.4,69.2,13.0,69.2,14.6zM62.4,24.0c0.7-1.1,1.1-2.4,1.5-3.9c0.3-1.5,0.5-3.0,0.5-4.5c0.0-1.4-0.1-2.8-0.4-4.1c-0.3-1.3-0.6-2.6-1.2-3.7c-0.7-1.4-1.6-2.2-2.7-2.2c-1.1,0.0-2.1,0.5-2.8,1.6c-0.7,1.0-1.3,2.0-1.6,3.0c-0.7,2.3-1.0,4.7-1.0,7.0c0.0,2.5,0.4,4.8,1.2,6.9c0.3,0.8,0.8,1.4,1.5,1.9c0.6,0.4,1.1,0.6,1.6,0.6c0.1,0.0,0.2-0.0,0.4-0.0C60.5,26.2,61.6,25.4,62.4,24.0z"/>
		<circle fill="#00FFFF" cx="62.0" cy="27.3" r="5" opacity="0"/>
	</g>
</svg>
