<?xml version='1.0' encoding='UTF-8'?>
<svg xmlns="http://www.w3.org/2000/svg" xmlns:xlink="http://www.w3.org/1999/xlink" width="296" height="304"><g id="thing2" display="inline">
		<g>
			<g>
				<g>
					<path fill="#731AC9" d="M65.0,250.1c-3.5-0.8-18.3-17.9-18.6-21.8c-0.3-3.8,29.2-30.3,46.1-26.5c8.5,1.9,10.0,13.7,2.7,20.4c-7.9,7.2-12.4,9.5-18.6,16.2C72.5,242.8,68.4,250.8,65.0,250.1z"/>
				</g>
			</g>
		</g>
		<g>
			<g>
				<path fill="#9036E8" d="M120.0,69.8c-2.7-0.8-5.7-0.5-8.5,1.5c-7.0,4.9-11.3,13.4-16.4,20.1c-6.5,8.5-14.6,16.9-22.4,24.3c-13.0,12.4-38.5,36.5-46.2,24.7c-0.2-0.3-0.4-0.6-0.6-0.9c-6.3-8.4-15.4-5.3-20.7,1.5c-2.2,2.8-4.9,5.2-4.7,9.2c0.3,8.1,13.0,15.8,27.9,17.8c39.7,5.1,97.9-41.6,102.9-48.1c4.2-5.6,6.3-16.4,6.8-23.7C138.8,84.7,133.2,70.6,120.0,69.8z"/>
			</g>
		</g>
		<g>
			<g>
				<path fill="#731AC9" d="M87.4,22.0c7.2-11.3,24.2-19.6,38.0-20.8c14.7-1.2,25.1,2.4,36.8,11.9c8.7,7.0,7.6,19.3,1.6,26.7c-0.0,0.2-0.0,0.3-0.1,0.5c-1.2,6.9-35.4,3.7-30.6,40.3c3.0,23.2-38.2,15.4-50.0-2.2C70.8,60.3,77.2,38.0,87.4,22.0z"/>
			</g>
		</g>
		<g>
			<g>
				<path fill-rule="evenodd" clip-rule="evenodd" fill="#731AC9" d="M158.3,289.3c-0.3,2.6-1.5,4.9,1.0,7.1c2.4,2.3,24.5,4.6,28.4,1.1c3.9-3.5,1.8-31.0-0.6-41.3c-3.2-14.0-23.6-9.9-23.8,3.9C163.3,270.3,159.4,279.4,158.3,289.3z"/>
			</g>
		</g>
		<g>
			<g>
				<path fill="#AB52F0" d="M291.7,258.0c-0.5-1.3-1.5-2.3-2.5-3.3c-0.8-0.8-3.3-1.3-4.4-1.8c-2.7-18.9-11.4-35.0-20.5-48.6c-3.4-5.1-10.8,0.6-7.3,6.2c8.6,13.8,15.5,27.5,20.0,43.0c-0.7,1.2-4.0,3.7-4.6,4.9c-0.4,0.7-0.7,1.4-1.0,2.0c-0.9,2.2-0.3,4.8,1.9,6.0c1.4,0.7,3.1,0.5,4.5-0.3c1.9,3.5,6.4,1.8,8.0-1.6c0.5,0.2,1.0,0.4,1.5,0.4C290.8,265.0,293.3,262.0,291.7,258.0z"/>
			</g>
		</g>
		<g>
			<g>
				<path fill-rule="evenodd" clip-rule="evenodd" fill="#9036E8" d="M282.1,135.1c-7.1-20.2-19.1-39.3-33.3-56.1c-3.6-4.2-7.3-8.2-11.1-12.1c-28.0-29.5-76.1-57.1-111.9-26.1c-31.8,27.8-44.6,68.1-50.0,110.5c-1.0,6.4-1.7,12.8-2.0,19.2c-1.4,24.0,2.8,48.1,16.9,68.0c13.8,19.4,36.3,28.9,59.3,31.5c42.2,4.7,94.4-8.9,122.7-42.3C295.1,201.3,292.9,165.6,282.1,135.1z"/>
			</g>
		</g>
		<g>
			<g>
				<g>
					<path fill="#AB52F0" d="M205.0,299.9c3.0,1.8,25.6-0.4,28.5-3.0c2.9-2.5-0.2-42.1-15.1-50.9c-7.5-4.4-16.7,3.0-16.0,12.9c0.8,10.6,2.4,15.4,2.3,24.6C204.5,289.4,201.9,298.1,205.0,299.9z"/>
				</g>
			</g>
		</g>
		<g>
			<g>
				<path fill-rule="evenodd" clip-rule="evenodd" fill="#AB52F0" d="M115.2,275.0c-1.3,2.2-1.7,4.8-5.0,5.2c-3.3,0.4-22.5-10.7-23.6-15.8c-1.1-5.1,16.8-26.1,24.8-33.1c10.9-9.4,24.9,5.9,16.9,17.1C122.4,256.7,120.2,266.3,115.2,275.0z"/>
			</g>
		</g>
		<g>
			<g>
				<path fill="#731AC9" d="M273.0,109.9c4.4-12.1,0.5-30.0-7.1-41.4c-8.1-12.1-17.3-18.0-32.0-21.7c-10.8-2.7-24.3,3.5-23.4,11.8c0.6,5.7,20.1,32.3-11.5,49.7c-20.0,11.0,11.5,38.4,32.5,37.5C253.3,144.8,266.8,127.0,273.0,109.9z"/>
			</g>
		</g>
		<g>
			<g>
				<g>
					<path fill="#FFE5FF" d="M152.9,91.5c-6.8,1.1-11.8,7.2-10.9,13.6c0.9,6.3,7.5,11.0,14.3,9.9c6.9-1.1,11.8-7.2,10.9-13.6C166.3,95.1,159.8,90.4,152.9,91.5z"/>
				</g>
			</g>
			<g>
				<g>
					<path fill="#211F1F" d="M152.7,97.2c-3.5,0.6-6.0,3.9-5.5,7.4c0.5,3.5,3.9,6.1,7.4,5.5c3.5-0.6,6.0-3.9,5.5-7.4C159.6,99.2,156.2,96.6,152.7,97.2z"/>
				</g>
			</g>
		</g>
		<g>
			<g>
				<g>
					<path fill="#FFE5FF" d="M116.6,72.5c-6.3,1.0-10.7,6.9-9.8,13.2c0.9,6.2,7.0,10.8,13.2,9.8c6.3-1.0,10.7-6.9,9.8-13.2C128.9,76.1,122.9,71.4,116.6,72.5z"/>
				</g>
			</g>
			<g>
				<g>
					<path fill="#211F1F" d="M119.1,78.2c-3.5,0.6-6.0,3.8-5.4,7.4c0.5,3.4,3.9,6.0,7.3,5.5c3.5-0.6,6.0-3.8,5.5-7.4C126.0,80.2,122.6,77.7,119.1,78.2z"/>
				</g>
			</g>
		</g>
		<g>
			<g>
				<path fill="#211F1F" d="M114.8,150.1c-0.2-1.4-1.5-2.6-2.9-3.0c-1.8-0.5-2.9-0.1-4.7,0.5c-0.6,0.3-1.1,0.6-1.6,1.0c0.0-0.0-0.8,0.5-0.9,0.6c-2.3,1.4-4.0,1.9-6.8,1.8c-1.9-0.1-3.6,1.8-4.0,3.5c-0.5,2.4,1.2,4.5,3.5,5.1c3.4,0.8,6.6,0.7,9.9-0.4C111.4,157.9,115.5,154.6,114.8,150.1z"/>
			</g>
		</g>
		<g>
			<g>
				<path fill="#541391" d="M18.2,138.9c-0.3-0.3-0.7-0.5-1.2-0.7c-4.6-1.9-8.5,1.7-11.3,5.3c-3.4,4.2-4.1,10.3,1.6,12.5c4.7,1.8,9.0-1.5,11.8-5.0c1.2-1.5,1.8-3.2,2.2-5.1C21.9,143.2,20.6,140.2,18.2,138.9z"/>
			</g>
		</g>
		<g>
			<g>
				<path fill="#AB52F0" d="M177.9,84.6c-3.7-21.4-31.1-34.1-50.5-35.6c-5.0-0.4-5.1,7.1-0.2,7.7c19.1,2.1,34.5,14.5,44.4,30.4C173.6,90.6,178.5,88.4,177.9,84.6z"/>
			</g>
		</g>
	</g>
</svg>
