<?xml version='1.0' encoding='UTF-8'?>
<svg xmlns="http://www.w3.org/2000/svg" xmlns:xlink="http://www.w3.org/1999/xlink" width="138" height="58"><g id="tile81E">
		<path fill="#F9FFD8" d="M1.6,28.6c-0.9,7.6-0.1,15.3,0.3,23.0c0.0,0.8-0.0,1.6,0.3,2.4c0.4,0.8,1.3,0.8,2.1,1.0c1.8,0.3,3.6,0.1,5.3,0.2c3.7,0.1,7.4,0.3,11.1,0.4c3.7,0.1,7.4,0.2,11.1-0.1c3.8-0.3,1.3-0.2,5.1-0.2c3.8,0.1,3.2,0.1,7.0-0.0c3.7-0.1,7.4-0.4,11.1-0.5c3.8-0.1,7.5,0.2,11.3,0.2c3.8,0.0,7.6,0.1,11.4,0.1c7.4,0.1,8.1,0.1,15.5-0.0c7.5-0.1,11.0,0.0,18.5,0.2c3.7,0.1,4.4,0.1,8.1-0.0c3.4-0.1,6.8-0.5,10.2-0.3c1.4,0.1,4.7,0.7,5.4-1.1c0.3-0.7,0.3-1.5,0.3-2.2c0.0-1.1,0.0-2.3,0.0-3.4c0.0-7.3-0.0-14.7-0.1-22.0c-0.0-3.9-0.0-7.7,0.1-11.6c0.1-3.3,0.6-6.8,0.2-10.1c-0.1-0.8-0.4-1.8-1.1-2.3c-0.7-0.5-1.7-0.5-2.5-0.5c-1.1-0.0-2.2-0.2-3.3-0.3c-1.9-0.2-3.8-0.2-5.7-0.1c-3.8,0.2-4.5,0.5-8.3,0.6c-3.8,0.2-3.7,0.1-7.6,0.1c-1.7-0.0-3.5,0.0-5.2,0.1c-1.9,0.0-3.8-0.1-5.8-0.2c-3.8-0.1-3.7-0.2-7.5-0.2c-3.7,0.0-4.7,0.3-8.4,0.2c-3.5-0.1-6.9-0.3-10.4-0.1c-3.5,0.2-7.1-0.3-10.6-0.4c-3.8-0.0-7.5,0.1-11.3,0.2c-7.4,0.3-4.3,0.6-11.8,0.5c-3.8-0.1-7.5-0.4-11.3-0.4c-3.1,0.1-6.3,0.2-9.4,0.2c-1.7,0.0-3.5,0.1-5.2,0.1c-1.8,0.0-3.6-0.1-5.4,0.1c-1.0,0.1-2.7,0.1-3.5,0.9c-0.6,0.5-0.4,1.9-0.4,2.6c-0.1,2.4-0.1,4.8-0.2,7.3c-0.0,0.9-0.0,1.9-0.0,2.8c-0.0,1.2,0.1,2.3,0.2,3.5C1.5,22.4,1.8,25.5,1.6,28.6C0.7,36.4,1.7,28.1,1.6,28.6z"/>
		<path fill="#FFA0D6" d="M136.2,4.4c-0.1-0.8-0.4-1.8-1.1-2.3c-0.7-0.5-1.7-0.5-2.6-0.5c-1.1-0.0-2.2-0.2-3.3-0.3c-1.9-0.2-3.9-0.2-5.8-0.1c-3.9,0.2-4.5,0.5-8.4,0.6c-3.9,0.2-3.8,0.1-7.7,0.1c-1.8-0.0-3.5,0.0-5.3,0.1c-1.9,0.0-3.9-0.1-5.8-0.2c-3.8-0.1-3.7-0.2-7.6-0.2c-3.8,0.0-4.8,0.3-8.6,0.2c-3.4-0.1-6.8-0.3-10.2-0.2c-0.1,0.3-0.1,0.6-0.1,0.9c-0.1,8.4-0.1,16.8-0.0,25.2c0.1,4.2,0.2,8.4,0.1,12.6c-0.1,3.4-0.9,7.3,0.2,10.7c0.2,0.7,0.5,1.2,0.8,1.8c0.0,0.7,0.0,1.5,0.1,2.2c2.1,0.0,4.2,0.1,6.3,0.1c7.5,0.1,8.2,0.1,15.7-0.0c7.6-0.1,11.2,0.0,18.8,0.2c3.8,0.1,4.4,0.1,8.2-0.0c3.4-0.1,6.9-0.5,10.4-0.3c1.5,0.1,4.8,0.7,5.5-1.1c0.3-0.7,0.3-1.5,0.3-2.2c0.0-1.1,0.0-2.3,0.0-3.4c0.0-7.3-0.0-14.7-0.1-22.0c-0.0-3.9-0.0-7.7,0.1-11.6C136.1,11.2,136.7,7.7,136.2,4.4z"/>
		<path fill="#C9B6A1" d="M1.7,24.3c0.2-3.0-0.1-6.0-0.2-9.0c-0.0-0.9-0.1-1.8-0.2-2.7c-0.0,0.1-0.0,0.3-0.0,0.4c-0.0,0.9-0.0,1.9-0.0,2.8c-0.0,1.2,0.1,2.3,0.2,3.5C1.5,20.9,1.6,22.6,1.7,24.3z"/>
		<path fill="#A9B086" d="M136.1,47.6c-0.0,0.7-0.1,1.6-0.3,2.2c-0.8,1.8-4.0,1.2-5.4,1.1c-3.4-0.2-6.8,0.2-10.2,0.3c-3.7,0.1-4.4,0.1-8.1,0.0c-7.5-0.1-11.0-0.2-18.5-0.2c-7.4,0.1-8.1,0.1-15.5,0.0c-3.8-0.0-7.6-0.1-11.4-0.1c-3.8,0.0-7.5-0.3-11.3-0.2c-3.7,0.1-7.4,0.3-11.1,0.5c-3.8,0.2-3.2,0.1-7.0,0.0c-3.8-0.1-1.3-0.2-5.1,0.2c-3.7,0.3-7.4,0.3-11.1,0.1c-3.7-0.1-7.4-0.4-11.1-0.4c-1.8-0.0-3.6,0.1-5.3-0.2c-0.8-0.1-1.8-0.1-2.1-1.0c-0.4-0.8-0.3-1.5-0.3-2.4c-0.2-4.4-0.6-8.8-0.7-13.3c-0.1,5.7,0.4,11.5,0.7,17.3c0.0,0.8-0.0,1.6,0.3,2.4c0.4,0.8,1.3,0.8,2.1,1.0c1.8,0.3,3.6,0.1,5.3,0.2c3.7,0.1,7.4,0.3,11.1,0.4c3.7,0.1,7.4,0.2,11.1-0.1c3.8-0.3,1.3-0.2,5.1-0.2c3.8,0.1,3.2,0.1,7.0-0.0c3.7-0.1,7.4-0.4,11.1-0.5c3.8-0.1,7.5,0.2,11.3,0.2c3.8,0.0,7.6,0.1,11.4,0.1c7.4,0.1,8.1,0.1,15.5-0.0c7.5-0.1,11.0,0.0,18.5,0.2c3.7,0.1,4.4,0.1,8.1-0.0c3.4-0.1,6.8-0.5,10.2-0.3c1.4,0.1,4.7,0.7,5.4-1.1c0.3-0.7,0.3-1.5,0.3-2.2c0.0-1.1,0.0-2.3,0.0-3.4c0.0-1.3-0.0-2.5-0.0-3.8C136.1,45.5,136.1,46.5,136.1,47.6z"/>
		<path fill="#8C5774" d="M136.1,47.6c-0.0,0.7-0.1,1.6-0.3,2.2c-0.8,1.8-4.1,1.2-5.6,1.1c-3.5-0.2-7.0,0.2-10.6,0.3c-3.9,0.1-4.5,0.1-8.4,0.0c-7.7-0.1-11.4-0.2-19.1-0.2c-7.6,0.1-8.4,0.1-16.0,0.0c-1.8-0.0-4.2-0.2-6.0-0.3c-0.8,0.8-0.8,4.0,0.0,4.0c1.7,0.0,4.4,0.2,6.0,0.2c7.6,0.1,8.4,0.1,16.0-0.0c7.7-0.1,11.4,0.0,19.1,0.2c3.9,0.1,4.5,0.1,8.4-0.0c3.5-0.1,7.0-0.5,10.6-0.3c1.5,0.1,4.8,0.7,5.6-1.1c0.3-0.7,0.3-1.5,0.3-2.2c0.0-1.1,0.0-2.3,0.0-3.4c0.0-1.3-0.0-2.5-0.0-3.8C136.1,45.5,136.1,46.5,136.1,47.6z"/>
		<path fill="#333333" d="M109.7,35.2h-12.0l-2.4,7.8h-6.5c0.5-1.2,0.9-2.2,1.2-3.0c0.3-0.9,0.9-2.5,1.6-4.8l8.1-24.3h7.8l8.1,24.3l0.9,2.7c0.3,1.0,0.8,2.2,1.4,3.7l0.2,0.4l0.4,1.0h-6.4L109.7,35.2zM99.2,30.5h9.0l-4.5-14.5L99.2,30.5z"/>
		<path fill="#333333" d="M26.6,43.9c-0.6,0.0-1.2-0.0-1.7-0.1c-2.0-0.2-3.6-0.8-4.9-1.8c-0.9-0.7-1.7-1.7-2.3-2.9c-0.6-1.2-0.9-2.4-0.9-3.6c0.0-0.1,0.0-0.4,0.0-0.7c0.2-1.9,0.8-3.5,1.9-5.1c1.1-1.5,2.4-2.7,4.1-3.8c-1.4-1.2-2.3-2.4-2.8-3.9c-0.2-0.7-0.3-1.4-0.3-2.2c0.0-0.9,0.1-1.7,0.5-2.5c0.4-1.1,1.0-2.0,1.9-2.9s1.8-1.6,2.9-2.1s2.2-0.7,3.4-0.7c0.1,0.0,0.4,0.0,0.7,0.0c1.3,0.1,2.5,0.6,3.6,1.5c1.1,0.9,1.9,1.9,2.4,3.1c0.4,0.9,0.6,1.8,0.6,2.8c0.0,0.7-0.1,1.5-0.3,2.2c-0.5,1.7-1.2,3.2-2.4,4.5c1.5,1.1,2.7,2.5,3.5,4.2c0.6,1.2,0.9,2.4,0.9,3.7c0.0,0.6-0.1,1.1-0.2,1.7c-0.4,2.1-1.3,3.9-2.7,5.3c-1.0,1.0-2.2,1.8-3.5,2.3C29.5,43.6,28.1,43.9,26.6,43.9zM28.3,29.2c-1.9,0.5-3.5,1.4-4.8,2.6c-0.5,0.4-0.9,0.9-1.2,1.5c-0.3,0.6-0.4,1.2-0.4,1.9c0.0,0.7,0.2,1.3,0.5,1.8c0.6,0.9,1.6,1.6,3.1,1.9c0.7,0.2,1.3,0.2,1.9,0.2c1.2,0.0,2.3-0.3,3.1-1.0c0.5-0.4,0.9-0.9,1.2-1.6c0.3-0.7,0.4-1.3,0.4-2.1c0.0-0.6-0.1-1.1-0.3-1.6C31.3,31.4,30.1,30.2,28.3,29.2zM28.6,16.3c-0.1-0.0-0.3-0.0-0.6-0.0c-0.6,0.1-1.1,0.3-1.7,0.6c-0.5,0.3-0.9,0.8-1.2,1.3c-0.3,0.5-0.4,1.1-0.4,1.7c0.0,0.8,0.3,1.5,0.8,2.1c0.6,0.7,1.6,1.4,3.0,2.0l0.6-0.4c0.6-0.4,1.2-0.9,1.7-1.5s0.8-1.2,0.9-1.9c0.0-0.2,0.0-0.4,0.0-0.6c0.0-0.8-0.2-1.4-0.6-2.0c-0.3-0.4-0.7-0.7-1.1-1.0C29.6,16.5,29.1,16.3,28.6,16.3z"/>
		<path fill="#333333" d="M58.1,41.1c-0.0,0.4-0.0,0.9-0.0,1.5c0.0,0.5,0.0,0.8,0.0,1.0c-1.9-0.0-3.3-0.0-4.1-0.0c-4.8,0.0-8.3,0.2-10.5,0.5c-0.1-1.5-0.3-3.1-0.5-4.7c1.3-0.2,2.9-0.4,4.7-0.6c-0.1-1.7-0.2-3.8-0.2-6.4c0.0-3.1,0.1-6.8,0.4-11.0c-0.5,0.8-1.2,1.6-1.9,2.2c-0.7,0.6-1.6,1.2-2.5,1.7c-0.8-1.5-1.8-2.8-2.7-3.8c1.8-1.0,3.3-2.3,4.8-4.0c1.1-1.2,1.9-2.3,2.5-3.2c0.6-0.9,1.1-1.8,1.5-2.7c0.2,0.2,0.6,0.3,1.2,0.5s1.4,0.4,2.4,0.7l1.8,0.5c-1.0,3.7-1.5,8.9-1.6,15.4v1.7c0.0,3.4,0.1,6.1,0.3,8.3c1.6,0.0,3.1,0.1,4.6,0.1v0.2C58.2,39.3,58.2,40.0,58.1,41.1z"/>
		<circle fill="#00FFFF" cx="106.0" cy="39.2" r="5" opacity="0"/>
	</g>
</svg>
