<?xml version='1.0' encoding='UTF-8'?>
<svg xmlns="http://www.w3.org/2000/svg" xmlns:xlink="http://www.w3.org/1999/xlink" width="42" height="52"><g id="two">
		<g id="_x34_8_3_">
			<g>
				<path fill="#333333" d="M5.0,45.6c-0.5-1.2-1.3-2.4-2.2-3.7c-0.9-1.3-1.8-2.4-2.7-3.3c1.6-1.2,3.6-2.7,5.9-4.5c2.3-1.9,4.5-3.9,6.7-6.0c2.7-2.5,4.7-5.0,6.2-7.2c1.4-2.2,2.2-4.0,2.5-5.4c0.1-0.4,0.1-1.0,0.1-1.6c0.0-0.8-0.1-1.5-0.4-2.2c-0.4-1.1-1.0-2.0-1.7-2.7c-0.7-0.8-1.6-1.2-2.7-1.4c-0.3-0.1-0.7-0.1-1.2-0.1c-1.0,0.0-2.1,0.3-3.2,0.8c-1.0,0.5-2.0,1.2-2.9,2.0c-0.9,0.9-1.7,1.8-2.4,2.8c-0.2-0.2-0.7-0.8-1.8-1.8c-1.0-1.0-2.2-2.1-3.6-3.5c1.3-2.3,3.0-4.2,5.0-5.7c2.0-1.5,4.3-2.4,6.8-2.7c0.5-0.1,1.1-0.1,1.6-0.1c1.8,0.0,3.5,0.3,5.1,1.0c1.6,0.7,3.1,1.7,4.4,2.9c2.4,2.3,3.8,5.1,4.2,8.4c0.0,0.3,0.1,0.8,0.1,1.4c0.0,3.2-1.1,6.6-3.2,10.3c-2.3,4.1-5.9,8.5-10.8,13.2c1.3-0.3,2.7-0.4,4.3-0.4c1.3,0.0,2.6,0.1,4.0,0.3c3.5,0.4,6.1,1.1,7.9,2.1c-0.5,1.1-1.2,2.8-2.1,5.1c-0.2,0.4-0.3,0.8-0.4,1.1c-0.1,0.3-0.2,0.6-0.2,0.7c-0.1-0.0-0.2-0.1-0.4-0.1c-0.2-0.1-0.4-0.1-0.6-0.2c-2.1-0.5-4.2-0.8-6.1-1.1c-1.9-0.3-3.9-0.4-5.8-0.4c-1.8,0.0-3.4,0.1-5.0,0.4c-1.3,0.2-2.6,0.5-3.7,0.9c-0.2,0.1-0.5,0.2-0.8,0.4C5.5,45.3,5.2,45.5,5.0,45.6z"/>
			</g>
		</g>
		<g>
			<circle fill="#00FFFF" cx="33.2" cy="44.1" r="5.401" opacity="0"/>
		</g>
	</g>
</svg>
